%TF.GenerationSoftware,KiCad,Pcbnew,9.0.0*%
%TF.CreationDate,2025-03-03T23:12:30-05:00*%
%TF.ProjectId,neurophy-receptacle-insert,6e657572-6f70-4687-992d-726563657074,1*%
%TF.SameCoordinates,Original*%
%TF.FileFunction,Soldermask,Top*%
%TF.FilePolarity,Negative*%
%FSLAX46Y46*%
G04 Gerber Fmt 4.6, Leading zero omitted, Abs format (unit mm)*
G04 Created by KiCad (PCBNEW 9.0.0) date 2025-03-03 23:12:30*
%MOMM*%
%LPD*%
G01*
G04 APERTURE LIST*
%ADD10C,0.010000*%
%ADD11C,1.934000*%
G04 APERTURE END LIST*
D10*
%TO.C,J1*%
X171660000Y-97530000D02*
X171616000Y-97557000D01*
X171566000Y-97589000D01*
X171518000Y-97623000D01*
X171471000Y-97658000D01*
X171425000Y-97695000D01*
X171380000Y-97734000D01*
X171337000Y-97775000D01*
X171295000Y-97816000D01*
X171255000Y-97860000D01*
X171216000Y-97904000D01*
X171179000Y-97950000D01*
X171143000Y-97997000D01*
X171109000Y-98046000D01*
X171077000Y-98095000D01*
X171047000Y-98146000D01*
X171018000Y-98198000D01*
X170991000Y-98250000D01*
X170966000Y-98304000D01*
X170943000Y-98358000D01*
X170922000Y-98413000D01*
X170903000Y-98469000D01*
X170886000Y-98526000D01*
X170870000Y-98583000D01*
X170857000Y-98640000D01*
X170846000Y-98698000D01*
X170836000Y-98757000D01*
X170829000Y-98815000D01*
X170824000Y-98874000D01*
X170821000Y-98933000D01*
X170820000Y-99000000D01*
X170821000Y-99067000D01*
X170824000Y-99126000D01*
X170829000Y-99185000D01*
X170836000Y-99243000D01*
X170846000Y-99302000D01*
X170857000Y-99360000D01*
X170870000Y-99417000D01*
X170886000Y-99474000D01*
X170903000Y-99531000D01*
X170922000Y-99587000D01*
X170943000Y-99642000D01*
X170966000Y-99696000D01*
X170991000Y-99750000D01*
X171018000Y-99802000D01*
X171047000Y-99854000D01*
X171077000Y-99905000D01*
X171109000Y-99954000D01*
X171143000Y-100003000D01*
X171179000Y-100050000D01*
X171216000Y-100096000D01*
X171255000Y-100140000D01*
X171295000Y-100184000D01*
X171337000Y-100225000D01*
X171380000Y-100266000D01*
X171425000Y-100305000D01*
X171471000Y-100342000D01*
X171518000Y-100377000D01*
X171566000Y-100411000D01*
X171616000Y-100443000D01*
X171660000Y-100470000D01*
X171660000Y-102480000D01*
X169020000Y-102480000D01*
X169020000Y-95520000D01*
X171660000Y-95520000D01*
X171660000Y-97530000D01*
G36*
X171660000Y-97530000D02*
G01*
X171616000Y-97557000D01*
X171566000Y-97589000D01*
X171518000Y-97623000D01*
X171471000Y-97658000D01*
X171425000Y-97695000D01*
X171380000Y-97734000D01*
X171337000Y-97775000D01*
X171295000Y-97816000D01*
X171255000Y-97860000D01*
X171216000Y-97904000D01*
X171179000Y-97950000D01*
X171143000Y-97997000D01*
X171109000Y-98046000D01*
X171077000Y-98095000D01*
X171047000Y-98146000D01*
X171018000Y-98198000D01*
X170991000Y-98250000D01*
X170966000Y-98304000D01*
X170943000Y-98358000D01*
X170922000Y-98413000D01*
X170903000Y-98469000D01*
X170886000Y-98526000D01*
X170870000Y-98583000D01*
X170857000Y-98640000D01*
X170846000Y-98698000D01*
X170836000Y-98757000D01*
X170829000Y-98815000D01*
X170824000Y-98874000D01*
X170821000Y-98933000D01*
X170820000Y-99000000D01*
X170821000Y-99067000D01*
X170824000Y-99126000D01*
X170829000Y-99185000D01*
X170836000Y-99243000D01*
X170846000Y-99302000D01*
X170857000Y-99360000D01*
X170870000Y-99417000D01*
X170886000Y-99474000D01*
X170903000Y-99531000D01*
X170922000Y-99587000D01*
X170943000Y-99642000D01*
X170966000Y-99696000D01*
X170991000Y-99750000D01*
X171018000Y-99802000D01*
X171047000Y-99854000D01*
X171077000Y-99905000D01*
X171109000Y-99954000D01*
X171143000Y-100003000D01*
X171179000Y-100050000D01*
X171216000Y-100096000D01*
X171255000Y-100140000D01*
X171295000Y-100184000D01*
X171337000Y-100225000D01*
X171380000Y-100266000D01*
X171425000Y-100305000D01*
X171471000Y-100342000D01*
X171518000Y-100377000D01*
X171566000Y-100411000D01*
X171616000Y-100443000D01*
X171660000Y-100470000D01*
X171660000Y-102480000D01*
X169020000Y-102480000D01*
X169020000Y-95520000D01*
X171660000Y-95520000D01*
X171660000Y-97530000D01*
G37*
X175980000Y-102480000D02*
X173340000Y-102480000D01*
X173340000Y-100470000D01*
X173384000Y-100443000D01*
X173434000Y-100411000D01*
X173482000Y-100377000D01*
X173529000Y-100342000D01*
X173575000Y-100305000D01*
X173620000Y-100266000D01*
X173663000Y-100225000D01*
X173705000Y-100184000D01*
X173745000Y-100140000D01*
X173784000Y-100096000D01*
X173821000Y-100050000D01*
X173857000Y-100003000D01*
X173891000Y-99954000D01*
X173923000Y-99905000D01*
X173953000Y-99854000D01*
X173982000Y-99802000D01*
X174009000Y-99750000D01*
X174034000Y-99696000D01*
X174057000Y-99642000D01*
X174078000Y-99587000D01*
X174097000Y-99531000D01*
X174114000Y-99474000D01*
X174130000Y-99417000D01*
X174143000Y-99360000D01*
X174154000Y-99302000D01*
X174164000Y-99243000D01*
X174171000Y-99185000D01*
X174176000Y-99126000D01*
X174179000Y-99067000D01*
X174180000Y-99000000D01*
X174179000Y-98933000D01*
X174176000Y-98874000D01*
X174171000Y-98815000D01*
X174164000Y-98757000D01*
X174154000Y-98698000D01*
X174143000Y-98640000D01*
X174130000Y-98583000D01*
X174114000Y-98526000D01*
X174097000Y-98469000D01*
X174078000Y-98413000D01*
X174057000Y-98358000D01*
X174034000Y-98304000D01*
X174009000Y-98250000D01*
X173982000Y-98198000D01*
X173953000Y-98146000D01*
X173923000Y-98095000D01*
X173891000Y-98046000D01*
X173857000Y-97997000D01*
X173821000Y-97950000D01*
X173784000Y-97904000D01*
X173745000Y-97860000D01*
X173705000Y-97816000D01*
X173663000Y-97775000D01*
X173620000Y-97734000D01*
X173575000Y-97695000D01*
X173529000Y-97658000D01*
X173482000Y-97623000D01*
X173434000Y-97589000D01*
X173384000Y-97557000D01*
X173340000Y-97530000D01*
X173340000Y-95520000D01*
X175980000Y-95520000D01*
X175980000Y-102480000D01*
G36*
X175980000Y-102480000D02*
G01*
X173340000Y-102480000D01*
X173340000Y-100470000D01*
X173384000Y-100443000D01*
X173434000Y-100411000D01*
X173482000Y-100377000D01*
X173529000Y-100342000D01*
X173575000Y-100305000D01*
X173620000Y-100266000D01*
X173663000Y-100225000D01*
X173705000Y-100184000D01*
X173745000Y-100140000D01*
X173784000Y-100096000D01*
X173821000Y-100050000D01*
X173857000Y-100003000D01*
X173891000Y-99954000D01*
X173923000Y-99905000D01*
X173953000Y-99854000D01*
X173982000Y-99802000D01*
X174009000Y-99750000D01*
X174034000Y-99696000D01*
X174057000Y-99642000D01*
X174078000Y-99587000D01*
X174097000Y-99531000D01*
X174114000Y-99474000D01*
X174130000Y-99417000D01*
X174143000Y-99360000D01*
X174154000Y-99302000D01*
X174164000Y-99243000D01*
X174171000Y-99185000D01*
X174176000Y-99126000D01*
X174179000Y-99067000D01*
X174180000Y-99000000D01*
X174179000Y-98933000D01*
X174176000Y-98874000D01*
X174171000Y-98815000D01*
X174164000Y-98757000D01*
X174154000Y-98698000D01*
X174143000Y-98640000D01*
X174130000Y-98583000D01*
X174114000Y-98526000D01*
X174097000Y-98469000D01*
X174078000Y-98413000D01*
X174057000Y-98358000D01*
X174034000Y-98304000D01*
X174009000Y-98250000D01*
X173982000Y-98198000D01*
X173953000Y-98146000D01*
X173923000Y-98095000D01*
X173891000Y-98046000D01*
X173857000Y-97997000D01*
X173821000Y-97950000D01*
X173784000Y-97904000D01*
X173745000Y-97860000D01*
X173705000Y-97816000D01*
X173663000Y-97775000D01*
X173620000Y-97734000D01*
X173575000Y-97695000D01*
X173529000Y-97658000D01*
X173482000Y-97623000D01*
X173434000Y-97589000D01*
X173384000Y-97557000D01*
X173340000Y-97530000D01*
X173340000Y-95520000D01*
X175980000Y-95520000D01*
X175980000Y-102480000D01*
G37*
%TD*%
D11*
%TO.C,J1*%
X172500000Y-99000000D03*
%TD*%
M02*
