%TF.GenerationSoftware,KiCad,Pcbnew,9.0.0*%
%TF.CreationDate,2025-03-03T23:12:30-05:00*%
%TF.ProjectId,neurophy-receptacle-insert,6e657572-6f70-4687-992d-726563657074,1*%
%TF.SameCoordinates,Original*%
%TF.FileFunction,Copper,L1,Top*%
%TF.FilePolarity,Positive*%
%FSLAX46Y46*%
G04 Gerber Fmt 4.6, Leading zero omitted, Abs format (unit mm)*
G04 Created by KiCad (PCBNEW 9.0.0) date 2025-03-03 23:12:30*
%MOMM*%
%LPD*%
G01*
G04 APERTURE LIST*
G04 Aperture macros list*
%AMFreePoly0*
4,1,77,1.663536,3.383536,1.665000,3.380000,1.665000,1.520000,1.663536,1.516464,1.662673,1.515775,1.613741,1.484818,1.562857,1.450895,1.514034,1.415025,1.466138,1.378106,1.420284,1.339229,1.375384,1.299318,1.331536,1.257463,1.289681,1.213615,1.249796,1.168744,1.210848,1.121807,1.172982,1.074972,1.138114,1.026157,1.104187,0.975266,1.072282,0.924418,1.041374,0.871576,
1.013445,0.818709,0.986545,0.763914,0.962598,0.709036,0.939663,0.653194,0.918732,0.596380,0.900788,0.538560,0.883826,0.480690,0.868877,0.421890,0.856905,0.363032,0.845939,0.303215,0.837956,0.243339,0.830980,0.183547,0.826994,0.122755,0.825000,0.062923,0.825000,-0.062923,0.826994,-0.122755,0.830980,-0.183547,0.837956,-0.243339,0.845939,-0.303215,0.856905,-0.363032,
0.868877,-0.421890,0.883826,-0.480690,0.900788,-0.538560,0.918732,-0.596380,0.939663,-0.653194,0.962598,-0.709036,0.986545,-0.763914,1.013445,-0.818709,1.041374,-0.871576,1.072282,-0.924418,1.104187,-0.975266,1.138114,-1.026157,1.172982,-1.074972,1.210848,-1.121807,1.249796,-1.168744,1.289681,-1.213615,1.331536,-1.257463,1.375384,-1.299318,1.420284,-1.339229,1.466138,-1.378106,
1.514034,-1.415025,1.562857,-1.450895,1.613741,-1.484818,1.662673,-1.515775,1.664878,-1.518902,1.665000,-1.520000,1.665000,-3.380000,1.663536,-3.383536,1.660000,-3.385000,-0.780000,-3.385000,-0.783536,-3.383536,-0.785000,-3.380000,-0.785000,3.380000,-0.783536,3.383536,-0.780000,3.385000,1.660000,3.385000,1.663536,3.383536,1.663536,3.383536,$1*%
%AMFreePoly1*
4,1,77,0.783536,3.383536,0.785000,3.380000,0.785000,-3.380000,0.783536,-3.383536,0.780000,-3.385000,-1.660000,-3.385000,-1.663536,-3.383536,-1.665000,-3.380000,-1.665000,-1.520000,-1.663536,-1.516464,-1.662673,-1.515775,-1.613741,-1.484818,-1.562857,-1.450895,-1.514034,-1.415025,-1.466138,-1.378106,-1.420284,-1.339229,-1.375384,-1.299318,-1.331536,-1.257463,-1.289681,-1.213615,-1.249796,-1.168744,
-1.210848,-1.121807,-1.172982,-1.074972,-1.138114,-1.026157,-1.104187,-0.975266,-1.072282,-0.924418,-1.041374,-0.871576,-1.013445,-0.818709,-0.986545,-0.763914,-0.962598,-0.709036,-0.939663,-0.653194,-0.918732,-0.596380,-0.900788,-0.538560,-0.883826,-0.480690,-0.868877,-0.421890,-0.856905,-0.363032,-0.845939,-0.303215,-0.837956,-0.243339,-0.830980,-0.183547,-0.826994,-0.122755,-0.825000,-0.062923,
-0.825000,0.062923,-0.826994,0.122755,-0.830980,0.183547,-0.837956,0.243339,-0.845939,0.303215,-0.856905,0.363032,-0.868877,0.421890,-0.883826,0.480690,-0.900788,0.538560,-0.918732,0.596380,-0.939663,0.653194,-0.962598,0.709036,-0.986545,0.763914,-1.013445,0.818709,-1.041374,0.871576,-1.072282,0.924418,-1.104187,0.975266,-1.138114,1.026157,-1.172982,1.074972,-1.210848,1.121807,
-1.249796,1.168744,-1.289681,1.213615,-1.331536,1.257463,-1.375384,1.299318,-1.420284,1.339229,-1.466138,1.378106,-1.514034,1.415025,-1.562857,1.450895,-1.613741,1.484818,-1.662673,1.515775,-1.664878,1.518902,-1.665000,1.520000,-1.665000,3.380000,-1.663536,3.383536,-1.660000,3.385000,0.780000,3.385000,0.783536,3.383536,0.783536,3.383536,$1*%
G04 Aperture macros list end*
%TA.AperFunction,SMDPad,CuDef*%
%ADD10C,1.730000*%
%TD*%
%TA.AperFunction,SMDPad,CuDef*%
%ADD11FreePoly0,0.000000*%
%TD*%
%TA.AperFunction,SMDPad,CuDef*%
%ADD12FreePoly1,0.000000*%
%TD*%
%TA.AperFunction,ViaPad*%
%ADD13C,0.600000*%
%TD*%
G04 APERTURE END LIST*
D10*
%TO.P,J1,1,In*%
%TO.N,Net-(J1-In)*%
X172500000Y-99000000D03*
D11*
%TO.P,J1,2,Ext*%
%TO.N,Earth*%
X169900000Y-99000000D03*
D12*
X175100000Y-99000000D03*
%TD*%
D13*
%TO.N,Net-(J1-In)*%
X172500000Y-99000000D03*
%TD*%
%TA.AperFunction,Conductor*%
%TO.N,Earth*%
G36*
X172701660Y-94505255D02*
G01*
X173081914Y-94538522D01*
X173092631Y-94539933D01*
X173468544Y-94606216D01*
X173479082Y-94608552D01*
X173847814Y-94707354D01*
X173858103Y-94710599D01*
X174216810Y-94841157D01*
X174226776Y-94845285D01*
X174572737Y-95006609D01*
X174582323Y-95011600D01*
X174912890Y-95202452D01*
X174922009Y-95208261D01*
X175234692Y-95427205D01*
X175243260Y-95433779D01*
X175535686Y-95679153D01*
X175543647Y-95686450D01*
X175813549Y-95956352D01*
X175820846Y-95964314D01*
X176066217Y-96256735D01*
X176072794Y-96265307D01*
X176291738Y-96577990D01*
X176297550Y-96587114D01*
X176488397Y-96917672D01*
X176493392Y-96927267D01*
X176654708Y-97273209D01*
X176658848Y-97283204D01*
X176789396Y-97641883D01*
X176792649Y-97652199D01*
X176891444Y-98020906D01*
X176893785Y-98031468D01*
X176960065Y-98407364D01*
X176961477Y-98418089D01*
X176994745Y-98798339D01*
X176995217Y-98809146D01*
X176995217Y-99190853D01*
X176994745Y-99201660D01*
X176961477Y-99581910D01*
X176960065Y-99592635D01*
X176893785Y-99968531D01*
X176891444Y-99979093D01*
X176792649Y-100347800D01*
X176789396Y-100358116D01*
X176658848Y-100716795D01*
X176654708Y-100726790D01*
X176493392Y-101072732D01*
X176488397Y-101082327D01*
X176297550Y-101412885D01*
X176291738Y-101422009D01*
X176072794Y-101734692D01*
X176066209Y-101743274D01*
X175820858Y-102035672D01*
X175813549Y-102043647D01*
X175543647Y-102313549D01*
X175535672Y-102320858D01*
X175243274Y-102566209D01*
X175234692Y-102572794D01*
X174922009Y-102791738D01*
X174912885Y-102797550D01*
X174582327Y-102988397D01*
X174572732Y-102993392D01*
X174226790Y-103154708D01*
X174216795Y-103158848D01*
X173858116Y-103289396D01*
X173847800Y-103292649D01*
X173479093Y-103391444D01*
X173468531Y-103393785D01*
X173092635Y-103460065D01*
X173081910Y-103461477D01*
X172701660Y-103494745D01*
X172690853Y-103495217D01*
X172309147Y-103495217D01*
X172298340Y-103494745D01*
X171918089Y-103461477D01*
X171907364Y-103460065D01*
X171531468Y-103393785D01*
X171520906Y-103391444D01*
X171152199Y-103292649D01*
X171141883Y-103289396D01*
X170783204Y-103158848D01*
X170773209Y-103154708D01*
X170427267Y-102993392D01*
X170417672Y-102988397D01*
X170087114Y-102797550D01*
X170077990Y-102791738D01*
X169765307Y-102572794D01*
X169756735Y-102566217D01*
X169464314Y-102320846D01*
X169456352Y-102313549D01*
X169186450Y-102043647D01*
X169179153Y-102035686D01*
X168933779Y-101743260D01*
X168927205Y-101734692D01*
X168708261Y-101422009D01*
X168702449Y-101412885D01*
X168511602Y-101082327D01*
X168506607Y-101072732D01*
X168345285Y-100726776D01*
X168341157Y-100716810D01*
X168210599Y-100358103D01*
X168207354Y-100347814D01*
X168108552Y-99979082D01*
X168106216Y-99968544D01*
X168039933Y-99592631D01*
X168038522Y-99581910D01*
X168005255Y-99201660D01*
X168004783Y-99190853D01*
X168004783Y-98912209D01*
X171384500Y-98912209D01*
X171384500Y-99087790D01*
X171411968Y-99261214D01*
X171411968Y-99261217D01*
X171466224Y-99428200D01*
X171466225Y-99428203D01*
X171544543Y-99581910D01*
X171545939Y-99584649D01*
X171649145Y-99726699D01*
X171773301Y-99850855D01*
X171915351Y-99954061D01*
X171992083Y-99993157D01*
X172071796Y-100033774D01*
X172071799Y-100033775D01*
X172227553Y-100084382D01*
X172238787Y-100088032D01*
X172412208Y-100115500D01*
X172412209Y-100115500D01*
X172587791Y-100115500D01*
X172587792Y-100115500D01*
X172761213Y-100088032D01*
X172761216Y-100088031D01*
X172761217Y-100088031D01*
X172928200Y-100033775D01*
X172928203Y-100033774D01*
X173084649Y-99954061D01*
X173226699Y-99850855D01*
X173350855Y-99726699D01*
X173454061Y-99584649D01*
X173533774Y-99428203D01*
X173588032Y-99261213D01*
X173615500Y-99087792D01*
X173615500Y-98912208D01*
X173588032Y-98738787D01*
X173588031Y-98738783D01*
X173588031Y-98738782D01*
X173533775Y-98571799D01*
X173533774Y-98571796D01*
X173454060Y-98415350D01*
X173350855Y-98273301D01*
X173226699Y-98149145D01*
X173084649Y-98045939D01*
X173035519Y-98020906D01*
X172928203Y-97966225D01*
X172928200Y-97966224D01*
X172761215Y-97911968D01*
X172645599Y-97893656D01*
X172587792Y-97884500D01*
X172412208Y-97884500D01*
X172354401Y-97893656D01*
X172238785Y-97911968D01*
X172238782Y-97911968D01*
X172071799Y-97966224D01*
X172071796Y-97966225D01*
X171915350Y-98045939D01*
X171773299Y-98149146D01*
X171649146Y-98273299D01*
X171545939Y-98415350D01*
X171466225Y-98571796D01*
X171466224Y-98571799D01*
X171411968Y-98738782D01*
X171411968Y-98738785D01*
X171384500Y-98912209D01*
X168004783Y-98912209D01*
X168004783Y-98809146D01*
X168005255Y-98798339D01*
X168010465Y-98738785D01*
X168038522Y-98418082D01*
X168039934Y-98407364D01*
X168063573Y-98273301D01*
X168106217Y-98031451D01*
X168108551Y-98020922D01*
X168207356Y-97652178D01*
X168210596Y-97641902D01*
X168341160Y-97283181D01*
X168345281Y-97273231D01*
X168506614Y-96927253D01*
X168511594Y-96917685D01*
X168702458Y-96587098D01*
X168708251Y-96578004D01*
X168927213Y-96265295D01*
X168933770Y-96256749D01*
X169179163Y-95964302D01*
X169186439Y-95956363D01*
X169456363Y-95686439D01*
X169464302Y-95679163D01*
X169756749Y-95433770D01*
X169765295Y-95427213D01*
X170078004Y-95208251D01*
X170087098Y-95202458D01*
X170417685Y-95011594D01*
X170427253Y-95006614D01*
X170773231Y-94845281D01*
X170783181Y-94841160D01*
X171141902Y-94710596D01*
X171152178Y-94707356D01*
X171520922Y-94608551D01*
X171531451Y-94606217D01*
X171907371Y-94539932D01*
X171918082Y-94538522D01*
X172298340Y-94505255D01*
X172309147Y-94504783D01*
X172690853Y-94504783D01*
X172701660Y-94505255D01*
G37*
%TD.AperFunction*%
%TD*%
M02*
