%TF.GenerationSoftware,KiCad,Pcbnew,7.0.10*%
%TF.CreationDate,2024-04-19T13:43:16-04:00*%
%TF.ProjectId,spst-eval-board,73707374-2d65-4766-916c-2d626f617264,1*%
%TF.SameCoordinates,Original*%
%TF.FileFunction,Copper,L4,Bot*%
%TF.FilePolarity,Positive*%
%FSLAX46Y46*%
G04 Gerber Fmt 4.6, Leading zero omitted, Abs format (unit mm)*
G04 Created by KiCad (PCBNEW 7.0.10) date 2024-04-19 13:43:16*
%MOMM*%
%LPD*%
G01*
G04 APERTURE LIST*
%TA.AperFunction,ComponentPad*%
%ADD10C,2.400000*%
%TD*%
%TA.AperFunction,ComponentPad*%
%ADD11R,1.700000X1.700000*%
%TD*%
%TA.AperFunction,ComponentPad*%
%ADD12O,1.700000X1.700000*%
%TD*%
%TA.AperFunction,ComponentPad*%
%ADD13C,0.800000*%
%TD*%
%TA.AperFunction,ComponentPad*%
%ADD14C,5.400000*%
%TD*%
%TA.AperFunction,ViaPad*%
%ADD15C,0.600000*%
%TD*%
%TA.AperFunction,ViaPad*%
%ADD16C,0.800000*%
%TD*%
%TA.AperFunction,Conductor*%
%ADD17C,0.500000*%
%TD*%
%TA.AperFunction,Conductor*%
%ADD18C,0.250000*%
%TD*%
G04 APERTURE END LIST*
D10*
%TO.P,TP7,1,1*%
%TO.N,/A7*%
X86875000Y-72485000D03*
%TD*%
%TO.P,TP10,1,1*%
%TO.N,/B2*%
X109875000Y-47500000D03*
%TD*%
%TO.P,TP5,1,1*%
%TO.N,/A5*%
X86875000Y-62485000D03*
%TD*%
%TO.P,TP13,1,1*%
%TO.N,/B5*%
X109875000Y-62500000D03*
%TD*%
%TO.P,TP16,1,1*%
%TO.N,/B8*%
X109875000Y-77500000D03*
%TD*%
%TO.P,TP15,1,1*%
%TO.N,/B7*%
X109875000Y-72500000D03*
%TD*%
%TO.P,TP12,1,1*%
%TO.N,/B4*%
X109875000Y-57500000D03*
%TD*%
%TO.P,TP18,1,1*%
%TO.N,/+3.3V*%
X95875000Y-72500000D03*
%TD*%
%TO.P,TP4,1,1*%
%TO.N,/A4*%
X86875000Y-57485000D03*
%TD*%
%TO.P,TP1,1,1*%
%TO.N,/A1*%
X86875000Y-42485000D03*
%TD*%
%TO.P,TP9,1,1*%
%TO.N,/B1*%
X109875000Y-42500000D03*
%TD*%
D11*
%TO.P,J1,1,Pin_1*%
%TO.N,/A1*%
X80875000Y-51110000D03*
D12*
%TO.P,J1,2,Pin_2*%
%TO.N,/A2*%
X80875000Y-53650000D03*
%TO.P,J1,3,Pin_3*%
%TO.N,/A3*%
X80875000Y-56190000D03*
%TO.P,J1,4,Pin_4*%
%TO.N,/A4*%
X80875000Y-58730000D03*
%TO.P,J1,5,Pin_5*%
%TO.N,/A5*%
X80875000Y-61270000D03*
%TO.P,J1,6,Pin_6*%
%TO.N,/A6*%
X80875000Y-63810000D03*
%TO.P,J1,7,Pin_7*%
%TO.N,/A7*%
X80875000Y-66350000D03*
%TO.P,J1,8,Pin_8*%
%TO.N,/A8*%
X80875000Y-68890000D03*
%TD*%
D13*
%TO.P,H3,1,1*%
%TO.N,Earth*%
X116350000Y-40000000D03*
X116943109Y-38568109D03*
X116943109Y-41431891D03*
X118375000Y-37975000D03*
D14*
X118375000Y-40000000D03*
D13*
X118375000Y-42025000D03*
X119806891Y-38568109D03*
X119806891Y-41431891D03*
X120400000Y-40000000D03*
%TD*%
D11*
%TO.P,J4,1,Pin_1*%
%TO.N,/+3.3V*%
X100675000Y-48200000D03*
D12*
%TO.P,J4,2,Pin_2*%
X100675000Y-45660000D03*
%TO.P,J4,3,Pin_3*%
%TO.N,Earth*%
X103215000Y-48200000D03*
%TO.P,J4,4,Pin_4*%
X103215000Y-45660000D03*
%TD*%
D11*
%TO.P,J2,1,Pin_1*%
%TO.N,/B1*%
X115875000Y-51110000D03*
D12*
%TO.P,J2,2,Pin_2*%
%TO.N,/B2*%
X115875000Y-53650000D03*
%TO.P,J2,3,Pin_3*%
%TO.N,/B3*%
X115875000Y-56190000D03*
%TO.P,J2,4,Pin_4*%
%TO.N,/B4*%
X115875000Y-58730000D03*
%TO.P,J2,5,Pin_5*%
%TO.N,/B5*%
X115875000Y-61270000D03*
%TO.P,J2,6,Pin_6*%
%TO.N,/B6*%
X115875000Y-63810000D03*
%TO.P,J2,7,Pin_7*%
%TO.N,/B7*%
X115875000Y-66350000D03*
%TO.P,J2,8,Pin_8*%
%TO.N,/B8*%
X115875000Y-68890000D03*
%TD*%
D10*
%TO.P,TP3,1,1*%
%TO.N,/A3*%
X86875000Y-52485000D03*
%TD*%
%TO.P,TP6,1,1*%
%TO.N,/A6*%
X86875000Y-67485000D03*
%TD*%
%TO.P,TP2,1,1*%
%TO.N,/A2*%
X86875000Y-47485000D03*
%TD*%
%TO.P,TP11,1,1*%
%TO.N,/B3*%
X109875000Y-52500000D03*
%TD*%
D13*
%TO.P,H4,1,1*%
%TO.N,Earth*%
X116350000Y-80000000D03*
X116943109Y-78568109D03*
X116943109Y-81431891D03*
X118375000Y-77975000D03*
D14*
X118375000Y-80000000D03*
D13*
X118375000Y-82025000D03*
X119806891Y-78568109D03*
X119806891Y-81431891D03*
X120400000Y-80000000D03*
%TD*%
D10*
%TO.P,TP14,1,1*%
%TO.N,/B6*%
X109875000Y-67500000D03*
%TD*%
D11*
%TO.P,J3,1,Pin_1*%
%TO.N,/MISO*%
X93475000Y-48200000D03*
D12*
%TO.P,J3,2,Pin_2*%
%TO.N,/MOSI*%
X93475000Y-45660000D03*
%TO.P,J3,3,Pin_3*%
%TO.N,/CLK*%
X96015000Y-48200000D03*
%TO.P,J3,4,Pin_4*%
%TO.N,/CS*%
X96015000Y-45660000D03*
%TD*%
D10*
%TO.P,TP19,1,1*%
%TO.N,Earth*%
X100875000Y-72500000D03*
%TD*%
D13*
%TO.P,H2,1,1*%
%TO.N,Earth*%
X80400000Y-80000000D03*
X79806891Y-81431891D03*
X79806891Y-78568109D03*
X78375000Y-82025000D03*
D14*
X78375000Y-80000000D03*
D13*
X78375000Y-77975000D03*
X76943109Y-81431891D03*
X76943109Y-78568109D03*
X76350000Y-80000000D03*
%TD*%
D10*
%TO.P,TP8,1,1*%
%TO.N,/A8*%
X86875000Y-77485000D03*
%TD*%
D11*
%TO.P,JP1,1,A*%
%TO.N,/+3.3V*%
X95835000Y-52600000D03*
D12*
%TO.P,JP1,2,C*%
%TO.N,/SPI{slash}I2C_SELECT*%
X98375000Y-52600000D03*
%TO.P,JP1,3,B*%
%TO.N,Earth*%
X100915000Y-52600000D03*
%TD*%
D13*
%TO.P,H1,1,1*%
%TO.N,Earth*%
X76350000Y-40000000D03*
X76943109Y-38568109D03*
X76943109Y-41431891D03*
X78375000Y-37975000D03*
D14*
X78375000Y-40000000D03*
D13*
X78375000Y-42025000D03*
X79806891Y-38568109D03*
X79806891Y-41431891D03*
X80400000Y-40000000D03*
%TD*%
D15*
%TO.N,/+3.3V*%
X100125000Y-55500000D03*
X97157417Y-56219244D03*
D16*
%TO.N,Earth*%
X94958100Y-56266900D03*
X98358100Y-63233100D03*
X102271900Y-56643100D03*
D15*
X97955937Y-56186108D03*
%TO.N,/SPI{slash}I2C_SELECT*%
X93875000Y-58423100D03*
%TD*%
D17*
%TO.N,/+3.3V*%
X95875000Y-56750000D02*
X95875000Y-72500000D01*
X97157417Y-56219244D02*
X96405756Y-56219244D01*
X95835000Y-51040000D02*
X96625000Y-50250000D01*
X95835000Y-52600000D02*
X94025000Y-52600000D01*
X95835000Y-52600000D02*
X95835000Y-51040000D01*
X96625000Y-50250000D02*
X99875000Y-50250000D01*
X99875000Y-50250000D02*
X100675000Y-49450000D01*
X92875000Y-71500000D02*
X93875000Y-72500000D01*
X92875000Y-53750000D02*
X92875000Y-71500000D01*
X93875000Y-72500000D02*
X95875000Y-72500000D01*
D18*
X97875000Y-57000000D02*
X99625000Y-57000000D01*
D17*
X96405756Y-56219244D02*
X95875000Y-56750000D01*
X100675000Y-45660000D02*
X100675000Y-48200000D01*
D18*
X99625000Y-57000000D02*
X100125000Y-56500000D01*
X97157417Y-56282417D02*
X97875000Y-57000000D01*
D17*
X100675000Y-49450000D02*
X100675000Y-48200000D01*
X94025000Y-52600000D02*
X92875000Y-53750000D01*
D18*
X100125000Y-56500000D02*
X100125000Y-55500000D01*
%TO.N,/SPI{slash}I2C_SELECT*%
X97625000Y-54750000D02*
X98375000Y-54000000D01*
X93625000Y-58173100D02*
X93625000Y-55250000D01*
X93625000Y-55250000D02*
X94125000Y-54750000D01*
X94125000Y-54750000D02*
X97625000Y-54750000D01*
X93875000Y-58423100D02*
X93625000Y-58173100D01*
X98375000Y-54000000D02*
X98375000Y-52600000D01*
%TD*%
%TA.AperFunction,Conductor*%
%TO.N,Earth*%
G36*
X123317539Y-35020185D02*
G01*
X123363294Y-35072989D01*
X123374500Y-35124500D01*
X123374500Y-84875500D01*
X123354815Y-84942539D01*
X123302011Y-84988294D01*
X123250500Y-84999500D01*
X73499500Y-84999500D01*
X73432461Y-84979815D01*
X73386706Y-84927011D01*
X73375500Y-84875500D01*
X73375500Y-77485005D01*
X85419529Y-77485005D01*
X85439379Y-77724559D01*
X85498389Y-77957589D01*
X85594951Y-78177729D01*
X85726427Y-78378966D01*
X85726429Y-78378969D01*
X85889236Y-78555825D01*
X85889239Y-78555827D01*
X85889242Y-78555830D01*
X86078924Y-78703466D01*
X86078930Y-78703470D01*
X86078933Y-78703472D01*
X86290344Y-78817882D01*
X86290347Y-78817883D01*
X86517699Y-78895933D01*
X86517701Y-78895933D01*
X86517703Y-78895934D01*
X86754808Y-78935500D01*
X86754809Y-78935500D01*
X86995191Y-78935500D01*
X86995192Y-78935500D01*
X87232297Y-78895934D01*
X87459656Y-78817882D01*
X87671067Y-78703472D01*
X87860764Y-78555825D01*
X88023571Y-78378969D01*
X88155049Y-78177728D01*
X88251610Y-77957591D01*
X88310620Y-77724563D01*
X88329228Y-77500005D01*
X108419529Y-77500005D01*
X108439379Y-77739559D01*
X108498389Y-77972589D01*
X108594951Y-78192729D01*
X108716627Y-78378966D01*
X108726429Y-78393969D01*
X108889236Y-78570825D01*
X108889239Y-78570827D01*
X108889242Y-78570830D01*
X109078924Y-78718466D01*
X109078930Y-78718470D01*
X109078933Y-78718472D01*
X109290344Y-78832882D01*
X109290347Y-78832883D01*
X109517699Y-78910933D01*
X109517701Y-78910933D01*
X109517703Y-78910934D01*
X109754808Y-78950500D01*
X109754809Y-78950500D01*
X109995191Y-78950500D01*
X109995192Y-78950500D01*
X110232297Y-78910934D01*
X110459656Y-78832882D01*
X110671067Y-78718472D01*
X110860764Y-78570825D01*
X111023571Y-78393969D01*
X111155049Y-78192728D01*
X111251610Y-77972591D01*
X111310620Y-77739563D01*
X111330471Y-77500000D01*
X111329228Y-77485005D01*
X111310620Y-77260440D01*
X111310620Y-77260437D01*
X111251610Y-77027409D01*
X111155049Y-76807272D01*
X111023571Y-76606031D01*
X110860764Y-76429175D01*
X110860759Y-76429171D01*
X110860757Y-76429169D01*
X110671075Y-76281533D01*
X110671069Y-76281529D01*
X110459657Y-76167118D01*
X110459652Y-76167116D01*
X110232300Y-76089066D01*
X110054468Y-76059391D01*
X109995192Y-76049500D01*
X109754808Y-76049500D01*
X109707387Y-76057413D01*
X109517699Y-76089066D01*
X109290347Y-76167116D01*
X109290342Y-76167118D01*
X109078930Y-76281529D01*
X109078924Y-76281533D01*
X108889242Y-76429169D01*
X108889239Y-76429172D01*
X108726430Y-76606029D01*
X108726427Y-76606033D01*
X108594951Y-76807270D01*
X108498389Y-77027410D01*
X108439379Y-77260440D01*
X108419529Y-77499994D01*
X108419529Y-77500005D01*
X88329228Y-77500005D01*
X88330471Y-77485000D01*
X88310620Y-77245437D01*
X88251610Y-77012409D01*
X88155049Y-76792272D01*
X88023571Y-76591031D01*
X87860764Y-76414175D01*
X87860759Y-76414171D01*
X87860757Y-76414169D01*
X87671075Y-76266533D01*
X87671069Y-76266529D01*
X87459657Y-76152118D01*
X87459652Y-76152116D01*
X87232300Y-76074066D01*
X87054468Y-76044391D01*
X86995192Y-76034500D01*
X86754808Y-76034500D01*
X86707387Y-76042413D01*
X86517699Y-76074066D01*
X86290347Y-76152116D01*
X86290342Y-76152118D01*
X86078930Y-76266529D01*
X86078924Y-76266533D01*
X85889242Y-76414169D01*
X85889239Y-76414172D01*
X85726430Y-76591029D01*
X85726427Y-76591033D01*
X85594951Y-76792270D01*
X85498389Y-77012410D01*
X85439379Y-77245440D01*
X85419529Y-77484994D01*
X85419529Y-77485005D01*
X73375500Y-77485005D01*
X73375500Y-72485005D01*
X85419529Y-72485005D01*
X85439379Y-72724559D01*
X85498389Y-72957589D01*
X85594951Y-73177729D01*
X85726427Y-73378966D01*
X85726429Y-73378969D01*
X85889236Y-73555825D01*
X85889239Y-73555827D01*
X85889242Y-73555830D01*
X86078924Y-73703466D01*
X86078930Y-73703470D01*
X86078933Y-73703472D01*
X86290344Y-73817882D01*
X86290347Y-73817883D01*
X86517699Y-73895933D01*
X86517701Y-73895933D01*
X86517703Y-73895934D01*
X86754808Y-73935500D01*
X86754809Y-73935500D01*
X86995191Y-73935500D01*
X86995192Y-73935500D01*
X87232297Y-73895934D01*
X87459656Y-73817882D01*
X87671067Y-73703472D01*
X87860764Y-73555825D01*
X88023571Y-73378969D01*
X88155049Y-73177728D01*
X88251610Y-72957591D01*
X88310620Y-72724563D01*
X88330471Y-72485000D01*
X88310620Y-72245437D01*
X88251610Y-72012409D01*
X88155049Y-71792272D01*
X88139833Y-71768983D01*
X88054050Y-71637682D01*
X88023571Y-71591031D01*
X87906567Y-71463930D01*
X92370641Y-71463930D01*
X92374184Y-71513461D01*
X92374500Y-71522308D01*
X92374500Y-71535797D01*
X92376420Y-71549154D01*
X92377365Y-71557946D01*
X92380909Y-71607486D01*
X92382593Y-71612000D01*
X92389148Y-71637682D01*
X92389834Y-71642455D01*
X92410457Y-71687612D01*
X92413845Y-71695790D01*
X92431203Y-71742329D01*
X92434096Y-71746194D01*
X92447617Y-71768983D01*
X92449619Y-71773367D01*
X92449622Y-71773372D01*
X92449623Y-71773373D01*
X92482144Y-71810904D01*
X92487688Y-71817785D01*
X92495779Y-71828593D01*
X92505333Y-71838147D01*
X92511353Y-71844614D01*
X92543872Y-71882143D01*
X92543874Y-71882145D01*
X92547928Y-71884750D01*
X92568571Y-71901385D01*
X93473614Y-72806428D01*
X93490246Y-72827066D01*
X93492854Y-72831125D01*
X93492857Y-72831128D01*
X93530400Y-72863658D01*
X93536863Y-72869677D01*
X93546407Y-72879221D01*
X93546413Y-72879226D01*
X93546416Y-72879228D01*
X93557207Y-72887306D01*
X93564100Y-72892860D01*
X93601627Y-72925377D01*
X93606010Y-72927379D01*
X93628807Y-72940905D01*
X93632669Y-72943796D01*
X93679212Y-72961155D01*
X93687360Y-72964530D01*
X93714673Y-72977004D01*
X93732540Y-72985164D01*
X93732541Y-72985164D01*
X93732543Y-72985165D01*
X93737312Y-72985850D01*
X93763002Y-72992407D01*
X93767517Y-72994091D01*
X93817049Y-72997633D01*
X93825843Y-72998579D01*
X93839201Y-73000500D01*
X93852692Y-73000500D01*
X93861538Y-73000815D01*
X93911073Y-73004359D01*
X93915785Y-73003334D01*
X93942143Y-73000500D01*
X94429619Y-73000500D01*
X94496658Y-73020185D01*
X94542413Y-73072989D01*
X94543175Y-73074690D01*
X94594951Y-73192729D01*
X94716627Y-73378966D01*
X94726429Y-73393969D01*
X94889236Y-73570825D01*
X94889239Y-73570827D01*
X94889242Y-73570830D01*
X95078924Y-73718466D01*
X95078930Y-73718470D01*
X95078933Y-73718472D01*
X95290344Y-73832882D01*
X95290347Y-73832883D01*
X95517699Y-73910933D01*
X95517701Y-73910933D01*
X95517703Y-73910934D01*
X95754808Y-73950500D01*
X95754809Y-73950500D01*
X95995191Y-73950500D01*
X95995192Y-73950500D01*
X96232297Y-73910934D01*
X96459656Y-73832882D01*
X96671067Y-73718472D01*
X96860764Y-73570825D01*
X97023571Y-73393969D01*
X97155049Y-73192728D01*
X97251610Y-72972591D01*
X97310620Y-72739563D01*
X97330471Y-72500005D01*
X108419529Y-72500005D01*
X108439379Y-72739559D01*
X108498389Y-72972589D01*
X108594951Y-73192729D01*
X108716627Y-73378966D01*
X108726429Y-73393969D01*
X108889236Y-73570825D01*
X108889239Y-73570827D01*
X108889242Y-73570830D01*
X109078924Y-73718466D01*
X109078930Y-73718470D01*
X109078933Y-73718472D01*
X109290344Y-73832882D01*
X109290347Y-73832883D01*
X109517699Y-73910933D01*
X109517701Y-73910933D01*
X109517703Y-73910934D01*
X109754808Y-73950500D01*
X109754809Y-73950500D01*
X109995191Y-73950500D01*
X109995192Y-73950500D01*
X110232297Y-73910934D01*
X110459656Y-73832882D01*
X110671067Y-73718472D01*
X110860764Y-73570825D01*
X111023571Y-73393969D01*
X111155049Y-73192728D01*
X111251610Y-72972591D01*
X111310620Y-72739563D01*
X111330471Y-72500000D01*
X111329228Y-72485005D01*
X111310620Y-72260440D01*
X111310620Y-72260437D01*
X111251610Y-72027409D01*
X111155049Y-71807272D01*
X111130033Y-71768983D01*
X111044250Y-71637682D01*
X111023571Y-71606031D01*
X110860764Y-71429175D01*
X110860759Y-71429171D01*
X110860757Y-71429169D01*
X110671075Y-71281533D01*
X110671069Y-71281529D01*
X110459657Y-71167118D01*
X110459652Y-71167116D01*
X110232300Y-71089066D01*
X110054468Y-71059391D01*
X109995192Y-71049500D01*
X109754808Y-71049500D01*
X109707387Y-71057413D01*
X109517699Y-71089066D01*
X109290347Y-71167116D01*
X109290342Y-71167118D01*
X109078930Y-71281529D01*
X109078924Y-71281533D01*
X108889242Y-71429169D01*
X108889239Y-71429172D01*
X108889236Y-71429174D01*
X108889236Y-71429175D01*
X108861583Y-71459214D01*
X108726430Y-71606029D01*
X108726427Y-71606033D01*
X108594951Y-71807270D01*
X108498389Y-72027410D01*
X108439379Y-72260440D01*
X108419529Y-72499994D01*
X108419529Y-72500005D01*
X97330471Y-72500005D01*
X97330471Y-72500000D01*
X97329228Y-72485005D01*
X97310620Y-72260440D01*
X97310620Y-72260437D01*
X97251610Y-72027409D01*
X97155049Y-71807272D01*
X97130033Y-71768983D01*
X97044250Y-71637682D01*
X97023571Y-71606031D01*
X96860764Y-71429175D01*
X96860759Y-71429171D01*
X96860757Y-71429169D01*
X96671075Y-71281533D01*
X96671069Y-71281529D01*
X96459657Y-71167118D01*
X96459646Y-71167114D01*
X96459221Y-71166968D01*
X96459071Y-71166861D01*
X96454961Y-71165059D01*
X96455332Y-71164212D01*
X96402211Y-71126574D01*
X96376090Y-71061771D01*
X96375500Y-71049692D01*
X96375500Y-67500005D01*
X108419529Y-67500005D01*
X108439379Y-67739559D01*
X108498389Y-67972589D01*
X108594951Y-68192729D01*
X108670379Y-68308179D01*
X108726429Y-68393969D01*
X108889236Y-68570825D01*
X108889239Y-68570827D01*
X108889242Y-68570830D01*
X109078924Y-68718466D01*
X109078930Y-68718470D01*
X109078933Y-68718472D01*
X109290344Y-68832882D01*
X109290347Y-68832883D01*
X109517699Y-68910933D01*
X109517701Y-68910933D01*
X109517703Y-68910934D01*
X109754808Y-68950500D01*
X109754809Y-68950500D01*
X109995191Y-68950500D01*
X109995192Y-68950500D01*
X110232297Y-68910934D01*
X110293276Y-68890000D01*
X114769785Y-68890000D01*
X114788602Y-69093082D01*
X114844417Y-69289247D01*
X114844422Y-69289260D01*
X114935327Y-69471821D01*
X115058237Y-69634581D01*
X115208958Y-69771980D01*
X115208960Y-69771982D01*
X115308141Y-69833392D01*
X115382363Y-69879348D01*
X115572544Y-69953024D01*
X115773024Y-69990500D01*
X115773026Y-69990500D01*
X115976974Y-69990500D01*
X115976976Y-69990500D01*
X116177456Y-69953024D01*
X116367637Y-69879348D01*
X116541041Y-69771981D01*
X116691764Y-69634579D01*
X116814673Y-69471821D01*
X116905582Y-69289250D01*
X116961397Y-69093083D01*
X116980215Y-68890000D01*
X116974922Y-68832883D01*
X116961397Y-68686917D01*
X116928366Y-68570827D01*
X116905582Y-68490750D01*
X116814673Y-68308179D01*
X116691764Y-68145421D01*
X116691762Y-68145418D01*
X116541041Y-68008019D01*
X116541039Y-68008017D01*
X116367642Y-67900655D01*
X116367635Y-67900651D01*
X116272546Y-67863814D01*
X116177456Y-67826976D01*
X115976976Y-67789500D01*
X115773024Y-67789500D01*
X115572544Y-67826976D01*
X115572541Y-67826976D01*
X115572541Y-67826977D01*
X115382364Y-67900651D01*
X115382357Y-67900655D01*
X115208960Y-68008017D01*
X115208958Y-68008019D01*
X115058237Y-68145418D01*
X114935327Y-68308178D01*
X114844422Y-68490739D01*
X114844417Y-68490752D01*
X114788602Y-68686917D01*
X114769785Y-68889999D01*
X114769785Y-68890000D01*
X110293276Y-68890000D01*
X110459656Y-68832882D01*
X110671067Y-68718472D01*
X110860764Y-68570825D01*
X111023571Y-68393969D01*
X111155049Y-68192728D01*
X111251610Y-67972591D01*
X111310620Y-67739563D01*
X111330471Y-67500000D01*
X111329228Y-67485005D01*
X111317159Y-67339348D01*
X111310620Y-67260437D01*
X111251610Y-67027409D01*
X111155049Y-66807272D01*
X111023571Y-66606031D01*
X110860764Y-66429175D01*
X110860759Y-66429171D01*
X110860757Y-66429169D01*
X110759041Y-66350000D01*
X114769785Y-66350000D01*
X114788602Y-66553082D01*
X114844417Y-66749247D01*
X114844422Y-66749260D01*
X114935327Y-66931821D01*
X115058237Y-67094581D01*
X115208958Y-67231980D01*
X115208960Y-67231982D01*
X115230691Y-67245437D01*
X115382363Y-67339348D01*
X115572544Y-67413024D01*
X115773024Y-67450500D01*
X115773026Y-67450500D01*
X115976974Y-67450500D01*
X115976976Y-67450500D01*
X116177456Y-67413024D01*
X116367637Y-67339348D01*
X116541041Y-67231981D01*
X116691764Y-67094579D01*
X116814673Y-66931821D01*
X116905582Y-66749250D01*
X116961397Y-66553083D01*
X116980215Y-66350000D01*
X116961397Y-66146917D01*
X116905582Y-65950750D01*
X116814673Y-65768179D01*
X116691764Y-65605421D01*
X116691762Y-65605418D01*
X116541041Y-65468019D01*
X116541039Y-65468017D01*
X116367642Y-65360655D01*
X116367635Y-65360651D01*
X116272546Y-65323814D01*
X116177456Y-65286976D01*
X115976976Y-65249500D01*
X115773024Y-65249500D01*
X115572544Y-65286976D01*
X115572541Y-65286976D01*
X115572541Y-65286977D01*
X115382364Y-65360651D01*
X115382357Y-65360655D01*
X115208960Y-65468017D01*
X115208958Y-65468019D01*
X115058237Y-65605418D01*
X114935327Y-65768178D01*
X114844422Y-65950739D01*
X114844417Y-65950752D01*
X114788602Y-66146917D01*
X114769785Y-66349999D01*
X114769785Y-66350000D01*
X110759041Y-66350000D01*
X110671075Y-66281533D01*
X110671069Y-66281529D01*
X110459657Y-66167118D01*
X110459652Y-66167116D01*
X110232300Y-66089066D01*
X110054468Y-66059391D01*
X109995192Y-66049500D01*
X109754808Y-66049500D01*
X109707387Y-66057413D01*
X109517699Y-66089066D01*
X109290347Y-66167116D01*
X109290342Y-66167118D01*
X109078930Y-66281529D01*
X109078924Y-66281533D01*
X108889242Y-66429169D01*
X108889239Y-66429172D01*
X108726430Y-66606029D01*
X108726427Y-66606033D01*
X108594951Y-66807270D01*
X108498389Y-67027410D01*
X108439379Y-67260440D01*
X108419529Y-67499994D01*
X108419529Y-67500005D01*
X96375500Y-67500005D01*
X96375500Y-62500005D01*
X108419529Y-62500005D01*
X108439379Y-62739559D01*
X108498389Y-62972589D01*
X108594951Y-63192729D01*
X108618112Y-63228179D01*
X108726429Y-63393969D01*
X108889236Y-63570825D01*
X108889239Y-63570827D01*
X108889242Y-63570830D01*
X109078924Y-63718466D01*
X109078930Y-63718470D01*
X109078933Y-63718472D01*
X109290344Y-63832882D01*
X109290347Y-63832883D01*
X109517699Y-63910933D01*
X109517701Y-63910933D01*
X109517703Y-63910934D01*
X109754808Y-63950500D01*
X109754809Y-63950500D01*
X109995191Y-63950500D01*
X109995192Y-63950500D01*
X110232297Y-63910934D01*
X110459656Y-63832882D01*
X110501938Y-63810000D01*
X114769785Y-63810000D01*
X114788602Y-64013082D01*
X114844417Y-64209247D01*
X114844422Y-64209260D01*
X114935327Y-64391821D01*
X115058237Y-64554581D01*
X115208958Y-64691980D01*
X115208960Y-64691982D01*
X115308141Y-64753392D01*
X115382363Y-64799348D01*
X115572544Y-64873024D01*
X115773024Y-64910500D01*
X115773026Y-64910500D01*
X115976974Y-64910500D01*
X115976976Y-64910500D01*
X116177456Y-64873024D01*
X116367637Y-64799348D01*
X116541041Y-64691981D01*
X116691764Y-64554579D01*
X116814673Y-64391821D01*
X116905582Y-64209250D01*
X116961397Y-64013083D01*
X116980215Y-63810000D01*
X116961397Y-63606917D01*
X116905582Y-63410750D01*
X116814673Y-63228179D01*
X116691764Y-63065421D01*
X116691762Y-63065418D01*
X116541041Y-62928019D01*
X116541039Y-62928017D01*
X116367642Y-62820655D01*
X116367635Y-62820651D01*
X116272546Y-62783814D01*
X116177456Y-62746976D01*
X115976976Y-62709500D01*
X115773024Y-62709500D01*
X115572544Y-62746976D01*
X115572541Y-62746976D01*
X115572541Y-62746977D01*
X115382364Y-62820651D01*
X115382357Y-62820655D01*
X115208960Y-62928017D01*
X115208958Y-62928019D01*
X115058237Y-63065418D01*
X114935327Y-63228178D01*
X114844422Y-63410739D01*
X114844417Y-63410752D01*
X114788602Y-63606917D01*
X114769785Y-63809999D01*
X114769785Y-63810000D01*
X110501938Y-63810000D01*
X110671067Y-63718472D01*
X110860764Y-63570825D01*
X111023571Y-63393969D01*
X111155049Y-63192728D01*
X111251610Y-62972591D01*
X111310620Y-62739563D01*
X111330471Y-62500000D01*
X111329228Y-62485005D01*
X111310620Y-62260440D01*
X111310620Y-62260437D01*
X111251610Y-62027409D01*
X111155049Y-61807272D01*
X111023571Y-61606031D01*
X110860764Y-61429175D01*
X110860759Y-61429171D01*
X110860757Y-61429169D01*
X110671075Y-61281533D01*
X110671069Y-61281529D01*
X110649765Y-61270000D01*
X114769785Y-61270000D01*
X114788602Y-61473082D01*
X114844417Y-61669247D01*
X114844422Y-61669260D01*
X114935327Y-61851821D01*
X115058237Y-62014581D01*
X115208958Y-62151980D01*
X115208960Y-62151982D01*
X115308141Y-62213392D01*
X115382363Y-62259348D01*
X115572544Y-62333024D01*
X115773024Y-62370500D01*
X115773026Y-62370500D01*
X115976974Y-62370500D01*
X115976976Y-62370500D01*
X116177456Y-62333024D01*
X116367637Y-62259348D01*
X116541041Y-62151981D01*
X116691764Y-62014579D01*
X116814673Y-61851821D01*
X116905582Y-61669250D01*
X116961397Y-61473083D01*
X116980215Y-61270000D01*
X116961397Y-61066917D01*
X116905582Y-60870750D01*
X116814673Y-60688179D01*
X116691764Y-60525421D01*
X116691762Y-60525418D01*
X116541041Y-60388019D01*
X116541039Y-60388017D01*
X116367642Y-60280655D01*
X116367635Y-60280651D01*
X116272546Y-60243814D01*
X116177456Y-60206976D01*
X115976976Y-60169500D01*
X115773024Y-60169500D01*
X115572544Y-60206976D01*
X115572541Y-60206976D01*
X115572541Y-60206977D01*
X115382364Y-60280651D01*
X115382357Y-60280655D01*
X115208960Y-60388017D01*
X115208958Y-60388019D01*
X115058237Y-60525418D01*
X114935327Y-60688178D01*
X114844422Y-60870739D01*
X114844417Y-60870752D01*
X114788602Y-61066917D01*
X114769785Y-61269999D01*
X114769785Y-61270000D01*
X110649765Y-61270000D01*
X110459657Y-61167118D01*
X110459652Y-61167116D01*
X110232300Y-61089066D01*
X110054468Y-61059391D01*
X109995192Y-61049500D01*
X109754808Y-61049500D01*
X109707387Y-61057413D01*
X109517699Y-61089066D01*
X109290347Y-61167116D01*
X109290342Y-61167118D01*
X109078930Y-61281529D01*
X109078924Y-61281533D01*
X108889242Y-61429169D01*
X108889239Y-61429172D01*
X108726430Y-61606029D01*
X108726427Y-61606033D01*
X108594951Y-61807270D01*
X108498389Y-62027410D01*
X108439379Y-62260440D01*
X108419529Y-62499994D01*
X108419529Y-62500005D01*
X96375500Y-62500005D01*
X96375500Y-57500005D01*
X108419529Y-57500005D01*
X108439379Y-57739559D01*
X108498389Y-57972589D01*
X108594951Y-58192729D01*
X108685126Y-58330750D01*
X108726429Y-58393969D01*
X108889236Y-58570825D01*
X108889239Y-58570827D01*
X108889242Y-58570830D01*
X109078924Y-58718466D01*
X109078930Y-58718470D01*
X109078933Y-58718472D01*
X109290344Y-58832882D01*
X109290347Y-58832883D01*
X109517699Y-58910933D01*
X109517701Y-58910933D01*
X109517703Y-58910934D01*
X109754808Y-58950500D01*
X109754809Y-58950500D01*
X109995191Y-58950500D01*
X109995192Y-58950500D01*
X110232297Y-58910934D01*
X110459656Y-58832882D01*
X110649765Y-58730000D01*
X114769785Y-58730000D01*
X114788602Y-58933082D01*
X114844417Y-59129247D01*
X114844422Y-59129260D01*
X114935327Y-59311821D01*
X115058237Y-59474581D01*
X115208958Y-59611980D01*
X115208960Y-59611982D01*
X115308141Y-59673392D01*
X115382363Y-59719348D01*
X115572544Y-59793024D01*
X115773024Y-59830500D01*
X115773026Y-59830500D01*
X115976974Y-59830500D01*
X115976976Y-59830500D01*
X116177456Y-59793024D01*
X116367637Y-59719348D01*
X116541041Y-59611981D01*
X116691764Y-59474579D01*
X116814673Y-59311821D01*
X116905582Y-59129250D01*
X116961397Y-58933083D01*
X116980215Y-58730000D01*
X116961397Y-58526917D01*
X116905582Y-58330750D01*
X116880008Y-58279391D01*
X116836856Y-58192729D01*
X116814673Y-58148179D01*
X116691764Y-57985421D01*
X116691762Y-57985418D01*
X116541041Y-57848019D01*
X116541039Y-57848017D01*
X116367642Y-57740655D01*
X116367635Y-57740651D01*
X116272546Y-57703814D01*
X116177456Y-57666976D01*
X115976976Y-57629500D01*
X115773024Y-57629500D01*
X115572544Y-57666976D01*
X115572541Y-57666976D01*
X115572541Y-57666977D01*
X115382364Y-57740651D01*
X115382357Y-57740655D01*
X115208960Y-57848017D01*
X115208958Y-57848019D01*
X115058237Y-57985418D01*
X114935327Y-58148178D01*
X114844422Y-58330739D01*
X114844417Y-58330752D01*
X114788602Y-58526917D01*
X114769785Y-58729999D01*
X114769785Y-58730000D01*
X110649765Y-58730000D01*
X110671067Y-58718472D01*
X110693869Y-58700725D01*
X110751684Y-58655725D01*
X110860764Y-58570825D01*
X111023571Y-58393969D01*
X111155049Y-58192728D01*
X111251610Y-57972591D01*
X111310620Y-57739563D01*
X111330471Y-57500000D01*
X111329228Y-57485005D01*
X111316617Y-57332812D01*
X111310620Y-57260437D01*
X111251610Y-57027409D01*
X111155049Y-56807272D01*
X111152788Y-56803812D01*
X111072674Y-56681189D01*
X111023571Y-56606031D01*
X110860764Y-56429175D01*
X110860759Y-56429171D01*
X110860757Y-56429169D01*
X110671075Y-56281533D01*
X110671069Y-56281529D01*
X110501939Y-56190000D01*
X114769785Y-56190000D01*
X114788602Y-56393082D01*
X114844417Y-56589247D01*
X114844422Y-56589260D01*
X114935327Y-56771821D01*
X115058237Y-56934581D01*
X115208958Y-57071980D01*
X115208960Y-57071982D01*
X115308141Y-57133392D01*
X115382363Y-57179348D01*
X115572544Y-57253024D01*
X115773024Y-57290500D01*
X115773026Y-57290500D01*
X115976974Y-57290500D01*
X115976976Y-57290500D01*
X116177456Y-57253024D01*
X116367637Y-57179348D01*
X116541041Y-57071981D01*
X116691764Y-56934579D01*
X116814673Y-56771821D01*
X116905582Y-56589250D01*
X116961397Y-56393083D01*
X116980215Y-56190000D01*
X116969608Y-56075535D01*
X116961397Y-55986917D01*
X116948508Y-55941619D01*
X116905582Y-55790750D01*
X116887636Y-55754710D01*
X116832366Y-55643712D01*
X116814673Y-55608179D01*
X116691764Y-55445421D01*
X116691762Y-55445418D01*
X116541041Y-55308019D01*
X116541039Y-55308017D01*
X116367642Y-55200655D01*
X116367635Y-55200651D01*
X116186209Y-55130367D01*
X116177456Y-55126976D01*
X115976976Y-55089500D01*
X115773024Y-55089500D01*
X115572544Y-55126976D01*
X115572541Y-55126976D01*
X115572541Y-55126977D01*
X115382364Y-55200651D01*
X115382357Y-55200655D01*
X115208960Y-55308017D01*
X115208958Y-55308019D01*
X115058237Y-55445418D01*
X114935327Y-55608178D01*
X114844422Y-55790739D01*
X114844417Y-55790752D01*
X114788602Y-55986917D01*
X114769785Y-56189999D01*
X114769785Y-56190000D01*
X110501939Y-56190000D01*
X110459657Y-56167118D01*
X110459652Y-56167116D01*
X110232300Y-56089066D01*
X110054468Y-56059391D01*
X109995192Y-56049500D01*
X109754808Y-56049500D01*
X109707387Y-56057413D01*
X109517699Y-56089066D01*
X109290347Y-56167116D01*
X109290342Y-56167118D01*
X109078930Y-56281529D01*
X109078924Y-56281533D01*
X108889242Y-56429169D01*
X108889239Y-56429172D01*
X108889236Y-56429174D01*
X108889236Y-56429175D01*
X108883177Y-56435757D01*
X108726430Y-56606029D01*
X108726427Y-56606033D01*
X108594951Y-56807270D01*
X108498389Y-57027410D01*
X108439379Y-57260440D01*
X108419529Y-57499994D01*
X108419529Y-57500005D01*
X96375500Y-57500005D01*
X96375500Y-57008675D01*
X96395185Y-56941636D01*
X96411819Y-56920994D01*
X96576750Y-56756063D01*
X96638073Y-56722578D01*
X96664431Y-56719744D01*
X96902541Y-56719744D01*
X96949989Y-56729181D01*
X97013708Y-56755574D01*
X97070819Y-56763092D01*
X97134713Y-56791358D01*
X97142313Y-56798350D01*
X97572849Y-57228886D01*
X97588978Y-57248747D01*
X97594916Y-57257836D01*
X97619890Y-57277274D01*
X97631422Y-57287459D01*
X97631484Y-57287521D01*
X97648398Y-57299598D01*
X97652504Y-57302660D01*
X97693806Y-57334806D01*
X97693809Y-57334808D01*
X97693811Y-57334809D01*
X97693812Y-57334809D01*
X97700735Y-57338555D01*
X97707802Y-57342011D01*
X97757960Y-57356943D01*
X97762833Y-57358504D01*
X97767380Y-57360065D01*
X97812337Y-57375500D01*
X97820101Y-57376795D01*
X97827911Y-57377768D01*
X97827912Y-57377769D01*
X97827912Y-57377768D01*
X97827913Y-57377769D01*
X97880207Y-57375606D01*
X97885332Y-57375500D01*
X99573196Y-57375500D01*
X99598641Y-57378139D01*
X99601724Y-57378785D01*
X99609268Y-57380367D01*
X99640676Y-57376451D01*
X99656014Y-57375500D01*
X99656112Y-57375500D01*
X99656114Y-57375500D01*
X99676643Y-57372073D01*
X99681673Y-57371341D01*
X99733626Y-57364866D01*
X99733628Y-57364864D01*
X99741141Y-57362628D01*
X99748606Y-57360066D01*
X99748606Y-57360065D01*
X99748610Y-57360065D01*
X99788357Y-57338555D01*
X99794636Y-57335157D01*
X99799193Y-57332812D01*
X99814102Y-57325522D01*
X99846211Y-57309826D01*
X99846213Y-57309823D01*
X99852594Y-57305268D01*
X99858820Y-57300422D01*
X99858826Y-57300419D01*
X99894316Y-57261865D01*
X99897794Y-57258241D01*
X100353892Y-56802144D01*
X100373741Y-56786025D01*
X100382836Y-56780084D01*
X100402272Y-56755110D01*
X100412450Y-56743587D01*
X100412520Y-56743518D01*
X100424607Y-56726586D01*
X100427666Y-56722485D01*
X100451352Y-56692054D01*
X100459809Y-56681189D01*
X100459811Y-56681182D01*
X100463547Y-56674280D01*
X100467003Y-56667207D01*
X100467010Y-56667199D01*
X100481955Y-56616995D01*
X100483483Y-56612224D01*
X100500500Y-56562660D01*
X100500500Y-56562656D01*
X100501790Y-56554924D01*
X100502768Y-56547085D01*
X100500606Y-56494807D01*
X100500500Y-56489683D01*
X100500500Y-55957026D01*
X100520185Y-55889987D01*
X100526117Y-55881547D01*
X100605861Y-55777625D01*
X100661330Y-55643709D01*
X100680250Y-55500000D01*
X100661330Y-55356291D01*
X100605861Y-55222375D01*
X100517621Y-55107379D01*
X100402625Y-55019139D01*
X100402624Y-55019138D01*
X100402622Y-55019137D01*
X100268712Y-54963671D01*
X100268710Y-54963670D01*
X100268709Y-54963670D01*
X100196854Y-54954210D01*
X100125001Y-54944750D01*
X100124999Y-54944750D01*
X99981291Y-54963670D01*
X99981287Y-54963671D01*
X99847377Y-55019137D01*
X99732379Y-55107379D01*
X99644137Y-55222377D01*
X99588671Y-55356287D01*
X99588670Y-55356291D01*
X99569750Y-55499999D01*
X99569750Y-55500000D01*
X99588670Y-55643708D01*
X99588671Y-55643712D01*
X99644137Y-55777622D01*
X99644138Y-55777624D01*
X99644139Y-55777625D01*
X99723876Y-55881540D01*
X99749070Y-55946709D01*
X99749500Y-55957026D01*
X99749500Y-56293100D01*
X99729815Y-56360139D01*
X99713181Y-56380781D01*
X99505781Y-56588181D01*
X99444458Y-56621666D01*
X99418100Y-56624500D01*
X98081899Y-56624500D01*
X98014860Y-56604815D01*
X97994218Y-56588181D01*
X97745740Y-56339703D01*
X97712255Y-56278380D01*
X97710482Y-56235837D01*
X97712667Y-56219244D01*
X97693747Y-56075535D01*
X97638278Y-55941619D01*
X97550038Y-55826623D01*
X97435042Y-55738383D01*
X97435041Y-55738382D01*
X97435039Y-55738381D01*
X97301129Y-55682915D01*
X97301127Y-55682914D01*
X97301126Y-55682914D01*
X97229271Y-55673454D01*
X97157418Y-55663994D01*
X97157416Y-55663994D01*
X97013710Y-55682913D01*
X96997329Y-55689697D01*
X96949989Y-55709306D01*
X96902541Y-55718744D01*
X96472899Y-55718744D01*
X96446541Y-55715910D01*
X96441830Y-55714885D01*
X96441826Y-55714885D01*
X96392295Y-55718428D01*
X96383448Y-55718744D01*
X96369956Y-55718744D01*
X96363819Y-55719626D01*
X96356596Y-55720664D01*
X96347810Y-55721609D01*
X96298272Y-55725153D01*
X96298269Y-55725154D01*
X96293742Y-55726842D01*
X96268083Y-55733390D01*
X96263306Y-55734077D01*
X96263299Y-55734079D01*
X96218121Y-55754710D01*
X96209947Y-55758095D01*
X96163431Y-55775444D01*
X96163424Y-55775448D01*
X96159556Y-55778344D01*
X96136775Y-55791860D01*
X96132383Y-55793867D01*
X96096489Y-55824968D01*
X96094854Y-55826385D01*
X96087975Y-55831928D01*
X96077165Y-55840021D01*
X96067616Y-55849569D01*
X96061151Y-55855587D01*
X96023615Y-55888114D01*
X96023612Y-55888117D01*
X96021001Y-55892180D01*
X96004371Y-55912814D01*
X95568569Y-56348616D01*
X95547937Y-56365244D01*
X95543872Y-56367857D01*
X95543867Y-56367861D01*
X95511353Y-56405384D01*
X95505329Y-56411854D01*
X95495780Y-56421403D01*
X95487678Y-56432226D01*
X95482132Y-56439108D01*
X95449624Y-56476625D01*
X95449617Y-56476636D01*
X95447615Y-56481020D01*
X95434100Y-56503799D01*
X95431206Y-56507664D01*
X95431200Y-56507675D01*
X95413851Y-56554191D01*
X95410466Y-56562365D01*
X95389835Y-56607543D01*
X95389833Y-56607550D01*
X95389146Y-56612327D01*
X95382598Y-56637986D01*
X95380910Y-56642513D01*
X95380909Y-56642516D01*
X95377365Y-56692054D01*
X95376420Y-56700845D01*
X95374500Y-56714200D01*
X95374500Y-56727690D01*
X95374184Y-56736537D01*
X95370641Y-56786069D01*
X95370641Y-56786073D01*
X95371666Y-56790785D01*
X95374500Y-56817143D01*
X95374500Y-71049692D01*
X95354815Y-71116731D01*
X95302011Y-71162486D01*
X95290779Y-71166968D01*
X95290353Y-71167114D01*
X95290342Y-71167118D01*
X95078930Y-71281529D01*
X95078924Y-71281533D01*
X94889242Y-71429169D01*
X94889239Y-71429172D01*
X94889236Y-71429174D01*
X94889236Y-71429175D01*
X94861583Y-71459214D01*
X94726430Y-71606029D01*
X94726427Y-71606033D01*
X94594951Y-71807270D01*
X94543175Y-71925310D01*
X94498219Y-71978796D01*
X94431483Y-71999486D01*
X94429619Y-71999500D01*
X94133676Y-71999500D01*
X94066637Y-71979815D01*
X94045995Y-71963181D01*
X93411819Y-71329005D01*
X93378334Y-71267682D01*
X93375500Y-71241324D01*
X93375500Y-58985157D01*
X93395185Y-58918118D01*
X93447989Y-58872363D01*
X93517147Y-58862419D01*
X93574987Y-58886782D01*
X93597373Y-58903960D01*
X93597374Y-58903960D01*
X93597375Y-58903961D01*
X93731291Y-58959430D01*
X93858280Y-58976148D01*
X93874999Y-58978350D01*
X93875000Y-58978350D01*
X93875001Y-58978350D01*
X93889977Y-58976378D01*
X94018709Y-58959430D01*
X94152625Y-58903961D01*
X94267621Y-58815721D01*
X94355861Y-58700725D01*
X94411330Y-58566809D01*
X94430250Y-58423100D01*
X94411330Y-58279391D01*
X94355861Y-58145475D01*
X94267621Y-58030479D01*
X94152625Y-57942239D01*
X94152621Y-57942237D01*
X94077048Y-57910934D01*
X94022644Y-57867093D01*
X94000579Y-57800799D01*
X94000500Y-57796373D01*
X94000500Y-55456899D01*
X94020185Y-55389860D01*
X94036819Y-55369218D01*
X94244219Y-55161819D01*
X94305542Y-55128334D01*
X94331900Y-55125500D01*
X97573196Y-55125500D01*
X97598641Y-55128139D01*
X97601724Y-55128785D01*
X97609268Y-55130367D01*
X97640676Y-55126451D01*
X97656014Y-55125500D01*
X97656112Y-55125500D01*
X97656114Y-55125500D01*
X97676643Y-55122073D01*
X97681673Y-55121341D01*
X97733626Y-55114866D01*
X97733628Y-55114864D01*
X97741141Y-55112628D01*
X97748606Y-55110066D01*
X97748606Y-55110065D01*
X97748610Y-55110065D01*
X97794636Y-55085157D01*
X97799193Y-55082812D01*
X97814102Y-55075522D01*
X97846211Y-55059826D01*
X97846213Y-55059823D01*
X97852594Y-55055268D01*
X97858820Y-55050421D01*
X97858826Y-55050419D01*
X97894293Y-55011890D01*
X97897795Y-55008240D01*
X98603889Y-54302146D01*
X98623746Y-54286022D01*
X98632836Y-54280084D01*
X98652271Y-54255112D01*
X98662456Y-54243581D01*
X98662456Y-54243580D01*
X98662519Y-54243518D01*
X98674630Y-54226553D01*
X98677627Y-54222534D01*
X98709809Y-54181189D01*
X98709811Y-54181181D01*
X98713547Y-54174280D01*
X98717003Y-54167207D01*
X98717010Y-54167199D01*
X98731955Y-54116995D01*
X98733483Y-54112224D01*
X98750500Y-54062660D01*
X98750500Y-54062656D01*
X98751790Y-54054924D01*
X98752768Y-54047085D01*
X98750606Y-53994807D01*
X98750500Y-53989683D01*
X98750500Y-53719668D01*
X98770185Y-53652629D01*
X98822989Y-53606874D01*
X98829679Y-53604052D01*
X98867637Y-53589348D01*
X99041041Y-53481981D01*
X99191764Y-53344579D01*
X99314673Y-53181821D01*
X99405582Y-52999250D01*
X99461397Y-52803083D01*
X99480215Y-52600000D01*
X99470949Y-52500005D01*
X108419529Y-52500005D01*
X108439379Y-52739559D01*
X108498389Y-52972589D01*
X108594951Y-53192729D01*
X108707661Y-53365243D01*
X108726429Y-53393969D01*
X108889236Y-53570825D01*
X108889239Y-53570827D01*
X108889242Y-53570830D01*
X109078924Y-53718466D01*
X109078930Y-53718470D01*
X109078933Y-53718472D01*
X109290344Y-53832882D01*
X109290347Y-53832883D01*
X109517699Y-53910933D01*
X109517701Y-53910933D01*
X109517703Y-53910934D01*
X109754808Y-53950500D01*
X109754809Y-53950500D01*
X109995191Y-53950500D01*
X109995192Y-53950500D01*
X110232297Y-53910934D01*
X110459656Y-53832882D01*
X110671067Y-53718472D01*
X110676555Y-53714201D01*
X110759040Y-53650000D01*
X114769785Y-53650000D01*
X114788602Y-53853082D01*
X114844417Y-54049247D01*
X114844422Y-54049260D01*
X114935327Y-54231821D01*
X115058237Y-54394581D01*
X115208958Y-54531980D01*
X115208960Y-54531982D01*
X115308141Y-54593392D01*
X115382363Y-54639348D01*
X115572544Y-54713024D01*
X115773024Y-54750500D01*
X115773026Y-54750500D01*
X115976974Y-54750500D01*
X115976976Y-54750500D01*
X116177456Y-54713024D01*
X116367637Y-54639348D01*
X116541041Y-54531981D01*
X116691764Y-54394579D01*
X116814673Y-54231821D01*
X116905582Y-54049250D01*
X116961397Y-53853083D01*
X116980215Y-53650000D01*
X116978417Y-53630601D01*
X116961397Y-53446917D01*
X116954139Y-53421407D01*
X116905582Y-53250750D01*
X116814673Y-53068179D01*
X116731161Y-52957591D01*
X116691762Y-52905418D01*
X116541041Y-52768019D01*
X116541039Y-52768017D01*
X116367642Y-52660655D01*
X116367635Y-52660651D01*
X116211072Y-52599999D01*
X116177456Y-52586976D01*
X115976976Y-52549500D01*
X115773024Y-52549500D01*
X115572544Y-52586976D01*
X115572541Y-52586976D01*
X115572541Y-52586977D01*
X115382364Y-52660651D01*
X115382357Y-52660655D01*
X115208960Y-52768017D01*
X115208958Y-52768019D01*
X115058237Y-52905418D01*
X114935327Y-53068178D01*
X114844422Y-53250739D01*
X114844417Y-53250752D01*
X114788602Y-53446917D01*
X114769785Y-53649999D01*
X114769785Y-53650000D01*
X110759040Y-53650000D01*
X110807442Y-53612327D01*
X110860764Y-53570825D01*
X111023571Y-53393969D01*
X111155049Y-53192728D01*
X111251610Y-52972591D01*
X111310620Y-52739563D01*
X111323264Y-52586976D01*
X111330471Y-52500005D01*
X111330471Y-52499994D01*
X111311319Y-52268872D01*
X111310620Y-52260437D01*
X111251610Y-52027409D01*
X111232866Y-51984678D01*
X114774500Y-51984678D01*
X114789032Y-52057735D01*
X114789033Y-52057739D01*
X114789034Y-52057740D01*
X114844399Y-52140601D01*
X114895319Y-52174624D01*
X114927260Y-52195966D01*
X114927264Y-52195967D01*
X115000321Y-52210499D01*
X115000324Y-52210500D01*
X115000326Y-52210500D01*
X116749676Y-52210500D01*
X116749677Y-52210499D01*
X116822740Y-52195966D01*
X116905601Y-52140601D01*
X116960966Y-52057740D01*
X116975500Y-51984674D01*
X116975500Y-50235326D01*
X116975500Y-50235323D01*
X116975499Y-50235321D01*
X116960967Y-50162264D01*
X116960966Y-50162260D01*
X116905601Y-50079399D01*
X116822740Y-50024034D01*
X116822739Y-50024033D01*
X116822735Y-50024032D01*
X116749677Y-50009500D01*
X116749674Y-50009500D01*
X115000326Y-50009500D01*
X115000323Y-50009500D01*
X114927264Y-50024032D01*
X114927260Y-50024033D01*
X114844399Y-50079399D01*
X114789033Y-50162260D01*
X114789032Y-50162264D01*
X114774500Y-50235321D01*
X114774500Y-51984678D01*
X111232866Y-51984678D01*
X111155049Y-51807272D01*
X111101507Y-51725321D01*
X111023572Y-51606033D01*
X111023571Y-51606031D01*
X110860764Y-51429175D01*
X110860759Y-51429171D01*
X110860757Y-51429169D01*
X110671075Y-51281533D01*
X110671069Y-51281529D01*
X110459657Y-51167118D01*
X110459652Y-51167116D01*
X110232300Y-51089066D01*
X110054468Y-51059391D01*
X109995192Y-51049500D01*
X109754808Y-51049500D01*
X109707387Y-51057413D01*
X109517699Y-51089066D01*
X109290347Y-51167116D01*
X109290342Y-51167118D01*
X109078930Y-51281529D01*
X109078924Y-51281533D01*
X108889242Y-51429169D01*
X108889239Y-51429172D01*
X108726430Y-51606029D01*
X108726427Y-51606033D01*
X108594951Y-51807270D01*
X108498389Y-52027410D01*
X108439379Y-52260440D01*
X108419529Y-52499994D01*
X108419529Y-52500005D01*
X99470949Y-52500005D01*
X99461397Y-52396917D01*
X99405582Y-52200750D01*
X99403200Y-52195967D01*
X99356592Y-52102365D01*
X99314673Y-52018179D01*
X99191764Y-51855421D01*
X99191762Y-51855418D01*
X99041041Y-51718019D01*
X99041039Y-51718017D01*
X98867642Y-51610655D01*
X98867635Y-51610651D01*
X98761150Y-51569399D01*
X98677456Y-51536976D01*
X98476976Y-51499500D01*
X98273024Y-51499500D01*
X98072544Y-51536976D01*
X98072541Y-51536976D01*
X98072541Y-51536977D01*
X97882364Y-51610651D01*
X97882357Y-51610655D01*
X97708960Y-51718017D01*
X97708958Y-51718019D01*
X97558237Y-51855418D01*
X97435327Y-52018178D01*
X97344422Y-52200739D01*
X97344417Y-52200752D01*
X97288602Y-52396917D01*
X97269785Y-52599999D01*
X97269785Y-52600000D01*
X97288602Y-52803082D01*
X97344417Y-52999247D01*
X97344422Y-52999260D01*
X97435327Y-53181821D01*
X97558237Y-53344581D01*
X97708958Y-53481980D01*
X97708960Y-53481982D01*
X97750456Y-53507675D01*
X97882363Y-53589348D01*
X97920293Y-53604042D01*
X97975694Y-53646612D01*
X97999286Y-53712378D01*
X97999500Y-53719668D01*
X97999500Y-53793100D01*
X97979815Y-53860139D01*
X97963181Y-53880781D01*
X97505781Y-54338181D01*
X97444458Y-54371666D01*
X97418100Y-54374500D01*
X94176803Y-54374500D01*
X94151358Y-54371861D01*
X94150428Y-54371666D01*
X94140732Y-54369633D01*
X94140731Y-54369633D01*
X94109323Y-54373548D01*
X94093985Y-54374500D01*
X94093886Y-54374500D01*
X94073400Y-54377918D01*
X94068338Y-54378656D01*
X94058699Y-54379857D01*
X94016370Y-54385134D01*
X94008857Y-54387371D01*
X94001386Y-54389936D01*
X93955371Y-54414837D01*
X93950820Y-54417180D01*
X93903792Y-54440171D01*
X93897375Y-54444753D01*
X93891174Y-54449579D01*
X93855718Y-54488094D01*
X93852172Y-54491789D01*
X93587181Y-54756780D01*
X93525858Y-54790265D01*
X93456166Y-54785281D01*
X93400233Y-54743409D01*
X93375816Y-54677945D01*
X93375500Y-54669099D01*
X93375500Y-54008676D01*
X93395185Y-53941637D01*
X93411819Y-53920995D01*
X94195995Y-53136819D01*
X94257318Y-53103334D01*
X94283676Y-53100500D01*
X94610500Y-53100500D01*
X94677539Y-53120185D01*
X94723294Y-53172989D01*
X94734500Y-53224500D01*
X94734500Y-53474678D01*
X94749032Y-53547735D01*
X94749033Y-53547739D01*
X94758806Y-53562365D01*
X94804399Y-53630601D01*
X94887260Y-53685966D01*
X94887264Y-53685967D01*
X94960321Y-53700499D01*
X94960324Y-53700500D01*
X94960326Y-53700500D01*
X96709676Y-53700500D01*
X96709677Y-53700499D01*
X96782740Y-53685966D01*
X96865601Y-53630601D01*
X96920966Y-53547740D01*
X96935500Y-53474674D01*
X96935500Y-51725326D01*
X96935500Y-51725323D01*
X96935499Y-51725321D01*
X96920967Y-51652264D01*
X96920966Y-51652260D01*
X96865601Y-51569399D01*
X96782740Y-51514034D01*
X96782739Y-51514033D01*
X96782735Y-51514032D01*
X96709677Y-51499500D01*
X96709674Y-51499500D01*
X96459500Y-51499500D01*
X96392461Y-51479815D01*
X96346706Y-51427011D01*
X96335500Y-51375500D01*
X96335500Y-51298676D01*
X96355185Y-51231637D01*
X96371819Y-51210995D01*
X96795995Y-50786819D01*
X96857318Y-50753334D01*
X96883676Y-50750500D01*
X99807857Y-50750500D01*
X99834215Y-50753334D01*
X99838927Y-50754359D01*
X99888461Y-50750815D01*
X99897308Y-50750500D01*
X99910799Y-50750500D01*
X99924156Y-50748579D01*
X99932951Y-50747633D01*
X99982483Y-50744091D01*
X99986992Y-50742408D01*
X100012685Y-50735850D01*
X100017457Y-50735165D01*
X100062637Y-50714530D01*
X100070801Y-50711149D01*
X100117331Y-50693796D01*
X100121189Y-50690907D01*
X100143995Y-50677375D01*
X100148373Y-50675377D01*
X100185899Y-50642859D01*
X100192778Y-50637316D01*
X100203593Y-50629221D01*
X100213155Y-50619658D01*
X100219605Y-50613653D01*
X100257143Y-50581128D01*
X100259751Y-50577068D01*
X100276381Y-50556431D01*
X100981431Y-49851381D01*
X101002068Y-49834751D01*
X101006128Y-49832143D01*
X101038653Y-49794605D01*
X101044658Y-49788155D01*
X101054221Y-49778593D01*
X101062316Y-49767778D01*
X101067859Y-49760899D01*
X101100377Y-49723373D01*
X101102375Y-49718995D01*
X101115907Y-49696189D01*
X101118796Y-49692331D01*
X101136149Y-49645801D01*
X101139534Y-49637630D01*
X101160165Y-49592457D01*
X101160850Y-49587685D01*
X101167409Y-49561992D01*
X101169091Y-49557483D01*
X101172633Y-49507951D01*
X101173580Y-49499148D01*
X101175500Y-49485799D01*
X101175500Y-49472308D01*
X101175816Y-49463460D01*
X101179236Y-49415652D01*
X101203654Y-49350188D01*
X101259588Y-49308318D01*
X101302920Y-49300500D01*
X101549676Y-49300500D01*
X101549677Y-49300499D01*
X101622740Y-49285966D01*
X101705601Y-49230601D01*
X101760966Y-49147740D01*
X101775500Y-49074674D01*
X101775500Y-47500005D01*
X108419529Y-47500005D01*
X108439379Y-47739559D01*
X108498389Y-47972589D01*
X108594951Y-48192729D01*
X108716627Y-48378966D01*
X108726429Y-48393969D01*
X108889236Y-48570825D01*
X108889239Y-48570827D01*
X108889242Y-48570830D01*
X109078924Y-48718466D01*
X109078930Y-48718470D01*
X109078933Y-48718472D01*
X109290344Y-48832882D01*
X109290347Y-48832883D01*
X109517699Y-48910933D01*
X109517701Y-48910933D01*
X109517703Y-48910934D01*
X109754808Y-48950500D01*
X109754809Y-48950500D01*
X109995191Y-48950500D01*
X109995192Y-48950500D01*
X110232297Y-48910934D01*
X110459656Y-48832882D01*
X110671067Y-48718472D01*
X110860764Y-48570825D01*
X111023571Y-48393969D01*
X111155049Y-48192728D01*
X111251610Y-47972591D01*
X111310620Y-47739563D01*
X111330471Y-47500000D01*
X111329228Y-47485005D01*
X111315997Y-47325323D01*
X111310620Y-47260437D01*
X111251610Y-47027409D01*
X111155049Y-46807272D01*
X111023571Y-46606031D01*
X110860764Y-46429175D01*
X110860759Y-46429171D01*
X110860757Y-46429169D01*
X110671075Y-46281533D01*
X110671069Y-46281529D01*
X110459657Y-46167118D01*
X110459652Y-46167116D01*
X110232300Y-46089066D01*
X110053602Y-46059247D01*
X109995192Y-46049500D01*
X109754808Y-46049500D01*
X109707387Y-46057413D01*
X109517699Y-46089066D01*
X109290347Y-46167116D01*
X109290342Y-46167118D01*
X109078930Y-46281529D01*
X109078924Y-46281533D01*
X108889242Y-46429169D01*
X108889239Y-46429172D01*
X108726430Y-46606029D01*
X108726427Y-46606033D01*
X108594951Y-46807270D01*
X108498389Y-47027410D01*
X108439379Y-47260440D01*
X108419529Y-47499994D01*
X108419529Y-47500005D01*
X101775500Y-47500005D01*
X101775500Y-47325326D01*
X101775500Y-47325323D01*
X101775499Y-47325321D01*
X101760967Y-47252264D01*
X101760966Y-47252260D01*
X101756407Y-47245437D01*
X101705601Y-47169399D01*
X101622740Y-47114034D01*
X101622739Y-47114033D01*
X101622735Y-47114032D01*
X101549677Y-47099500D01*
X101549674Y-47099500D01*
X101299500Y-47099500D01*
X101232461Y-47079815D01*
X101186706Y-47027011D01*
X101175500Y-46975500D01*
X101175500Y-46713546D01*
X101195185Y-46646507D01*
X101234218Y-46608122D01*
X101341041Y-46541981D01*
X101431474Y-46459539D01*
X101491762Y-46404581D01*
X101491764Y-46404579D01*
X101614673Y-46241821D01*
X101705582Y-46059250D01*
X101761397Y-45863083D01*
X101780215Y-45660000D01*
X101761397Y-45456917D01*
X101705582Y-45260750D01*
X101614673Y-45078179D01*
X101491764Y-44915421D01*
X101491762Y-44915418D01*
X101341041Y-44778019D01*
X101341039Y-44778017D01*
X101167642Y-44670655D01*
X101167635Y-44670651D01*
X101072546Y-44633814D01*
X100977456Y-44596976D01*
X100776976Y-44559500D01*
X100573024Y-44559500D01*
X100372544Y-44596976D01*
X100372541Y-44596976D01*
X100372541Y-44596977D01*
X100182364Y-44670651D01*
X100182357Y-44670655D01*
X100008960Y-44778017D01*
X100008958Y-44778019D01*
X99858237Y-44915418D01*
X99735327Y-45078178D01*
X99644422Y-45260739D01*
X99644417Y-45260752D01*
X99588602Y-45456917D01*
X99569785Y-45659999D01*
X99569785Y-45660000D01*
X99588602Y-45863082D01*
X99644417Y-46059247D01*
X99644422Y-46059260D01*
X99735327Y-46241821D01*
X99858237Y-46404581D01*
X100008955Y-46541978D01*
X100008957Y-46541979D01*
X100008959Y-46541981D01*
X100115779Y-46608121D01*
X100162413Y-46660146D01*
X100174500Y-46713546D01*
X100174500Y-46975500D01*
X100154815Y-47042539D01*
X100102011Y-47088294D01*
X100050500Y-47099500D01*
X99800323Y-47099500D01*
X99727264Y-47114032D01*
X99727260Y-47114033D01*
X99644399Y-47169399D01*
X99589033Y-47252260D01*
X99589032Y-47252264D01*
X99574500Y-47325321D01*
X99574500Y-49074678D01*
X99589032Y-49147735D01*
X99589033Y-49147739D01*
X99589034Y-49147740D01*
X99644399Y-49230601D01*
X99727260Y-49285966D01*
X99727264Y-49285967D01*
X99800321Y-49300499D01*
X99800324Y-49300500D01*
X99800326Y-49300500D01*
X99817324Y-49300500D01*
X99884363Y-49320185D01*
X99930118Y-49372989D01*
X99940062Y-49442147D01*
X99911037Y-49505703D01*
X99905005Y-49512181D01*
X99704005Y-49713181D01*
X99642682Y-49746666D01*
X99616324Y-49749500D01*
X96692143Y-49749500D01*
X96665785Y-49746666D01*
X96661074Y-49745641D01*
X96661070Y-49745641D01*
X96611539Y-49749184D01*
X96602692Y-49749500D01*
X96589200Y-49749500D01*
X96583063Y-49750382D01*
X96575840Y-49751420D01*
X96567054Y-49752365D01*
X96517516Y-49755909D01*
X96517513Y-49755910D01*
X96512986Y-49757598D01*
X96487327Y-49764146D01*
X96482550Y-49764833D01*
X96482543Y-49764835D01*
X96437365Y-49785466D01*
X96429191Y-49788851D01*
X96382675Y-49806200D01*
X96382664Y-49806206D01*
X96378799Y-49809100D01*
X96356020Y-49822615D01*
X96351636Y-49824617D01*
X96351625Y-49824624D01*
X96314108Y-49857132D01*
X96307226Y-49862678D01*
X96296403Y-49870780D01*
X96286854Y-49880329D01*
X96280384Y-49886353D01*
X96242861Y-49918867D01*
X96242854Y-49918876D01*
X96240243Y-49922938D01*
X96223616Y-49943568D01*
X95528568Y-50638616D01*
X95507938Y-50655243D01*
X95503876Y-50657854D01*
X95503867Y-50657861D01*
X95471353Y-50695384D01*
X95465329Y-50701854D01*
X95455780Y-50711403D01*
X95447678Y-50722226D01*
X95442132Y-50729108D01*
X95409624Y-50766625D01*
X95409617Y-50766636D01*
X95407615Y-50771020D01*
X95394100Y-50793799D01*
X95391206Y-50797664D01*
X95391200Y-50797675D01*
X95373851Y-50844191D01*
X95370466Y-50852365D01*
X95349835Y-50897543D01*
X95349833Y-50897550D01*
X95349146Y-50902327D01*
X95342598Y-50927986D01*
X95340910Y-50932513D01*
X95340909Y-50932516D01*
X95337365Y-50982054D01*
X95336420Y-50990845D01*
X95334500Y-51004200D01*
X95334500Y-51017690D01*
X95334184Y-51026537D01*
X95330641Y-51076069D01*
X95330641Y-51076073D01*
X95331666Y-51080785D01*
X95334500Y-51107143D01*
X95334500Y-51375500D01*
X95314815Y-51442539D01*
X95262011Y-51488294D01*
X95210500Y-51499500D01*
X94960323Y-51499500D01*
X94887264Y-51514032D01*
X94887260Y-51514033D01*
X94804399Y-51569399D01*
X94749033Y-51652260D01*
X94749032Y-51652264D01*
X94734500Y-51725321D01*
X94734500Y-51975500D01*
X94714815Y-52042539D01*
X94662011Y-52088294D01*
X94610500Y-52099500D01*
X94092143Y-52099500D01*
X94065785Y-52096666D01*
X94061074Y-52095641D01*
X94061070Y-52095641D01*
X94011539Y-52099184D01*
X94002692Y-52099500D01*
X93989200Y-52099500D01*
X93983063Y-52100382D01*
X93975840Y-52101420D01*
X93967054Y-52102365D01*
X93917516Y-52105909D01*
X93917513Y-52105910D01*
X93912986Y-52107598D01*
X93887327Y-52114146D01*
X93882550Y-52114833D01*
X93882543Y-52114835D01*
X93837365Y-52135466D01*
X93829191Y-52138851D01*
X93782675Y-52156200D01*
X93782664Y-52156206D01*
X93778799Y-52159100D01*
X93756020Y-52172615D01*
X93751636Y-52174617D01*
X93751625Y-52174624D01*
X93714108Y-52207132D01*
X93707226Y-52212678D01*
X93696403Y-52220780D01*
X93686854Y-52230329D01*
X93680384Y-52236353D01*
X93642861Y-52268867D01*
X93642854Y-52268876D01*
X93640243Y-52272938D01*
X93623616Y-52293568D01*
X92568568Y-53348616D01*
X92547938Y-53365243D01*
X92543876Y-53367854D01*
X92543867Y-53367861D01*
X92511353Y-53405384D01*
X92505329Y-53411854D01*
X92495780Y-53421403D01*
X92487678Y-53432226D01*
X92482132Y-53439108D01*
X92449624Y-53476625D01*
X92449617Y-53476636D01*
X92447615Y-53481020D01*
X92434100Y-53503799D01*
X92431206Y-53507664D01*
X92431200Y-53507675D01*
X92413851Y-53554191D01*
X92410466Y-53562365D01*
X92389835Y-53607543D01*
X92389833Y-53607550D01*
X92389146Y-53612327D01*
X92382598Y-53637986D01*
X92380910Y-53642513D01*
X92380909Y-53642516D01*
X92377365Y-53692054D01*
X92376420Y-53700845D01*
X92374500Y-53714200D01*
X92374500Y-53727690D01*
X92374184Y-53736537D01*
X92370641Y-53786069D01*
X92370641Y-53786073D01*
X92371666Y-53790785D01*
X92374500Y-53817143D01*
X92374500Y-71432858D01*
X92371667Y-71459206D01*
X92370641Y-71463927D01*
X92370641Y-71463929D01*
X92370641Y-71463930D01*
X87906567Y-71463930D01*
X87860764Y-71414175D01*
X87860759Y-71414171D01*
X87860757Y-71414169D01*
X87671075Y-71266533D01*
X87671069Y-71266529D01*
X87459657Y-71152118D01*
X87459652Y-71152116D01*
X87232300Y-71074066D01*
X87054468Y-71044391D01*
X86995192Y-71034500D01*
X86754808Y-71034500D01*
X86707387Y-71042413D01*
X86517699Y-71074066D01*
X86290347Y-71152116D01*
X86290342Y-71152118D01*
X86078930Y-71266529D01*
X86078924Y-71266533D01*
X85889242Y-71414169D01*
X85889239Y-71414172D01*
X85726430Y-71591029D01*
X85726427Y-71591033D01*
X85594951Y-71792270D01*
X85498389Y-72012410D01*
X85439379Y-72245440D01*
X85419529Y-72484994D01*
X85419529Y-72485005D01*
X73375500Y-72485005D01*
X73375500Y-68890000D01*
X79769785Y-68890000D01*
X79788602Y-69093082D01*
X79844417Y-69289247D01*
X79844422Y-69289260D01*
X79935327Y-69471821D01*
X80058237Y-69634581D01*
X80208958Y-69771980D01*
X80208960Y-69771982D01*
X80308141Y-69833392D01*
X80382363Y-69879348D01*
X80572544Y-69953024D01*
X80773024Y-69990500D01*
X80773026Y-69990500D01*
X80976974Y-69990500D01*
X80976976Y-69990500D01*
X81177456Y-69953024D01*
X81367637Y-69879348D01*
X81541041Y-69771981D01*
X81691764Y-69634579D01*
X81814673Y-69471821D01*
X81905582Y-69289250D01*
X81961397Y-69093083D01*
X81980215Y-68890000D01*
X81974922Y-68832883D01*
X81961397Y-68686917D01*
X81928366Y-68570827D01*
X81905582Y-68490750D01*
X81814673Y-68308179D01*
X81691764Y-68145421D01*
X81691762Y-68145418D01*
X81541041Y-68008019D01*
X81541039Y-68008017D01*
X81367642Y-67900655D01*
X81367635Y-67900651D01*
X81272546Y-67863814D01*
X81177456Y-67826976D01*
X80976976Y-67789500D01*
X80773024Y-67789500D01*
X80572544Y-67826976D01*
X80572541Y-67826976D01*
X80572541Y-67826977D01*
X80382364Y-67900651D01*
X80382357Y-67900655D01*
X80208960Y-68008017D01*
X80208958Y-68008019D01*
X80058237Y-68145418D01*
X79935327Y-68308178D01*
X79844422Y-68490739D01*
X79844417Y-68490752D01*
X79788602Y-68686917D01*
X79769785Y-68889999D01*
X79769785Y-68890000D01*
X73375500Y-68890000D01*
X73375500Y-67485005D01*
X85419529Y-67485005D01*
X85439379Y-67724559D01*
X85498389Y-67957589D01*
X85594951Y-68177729D01*
X85680179Y-68308179D01*
X85726429Y-68378969D01*
X85889236Y-68555825D01*
X85889239Y-68555827D01*
X85889242Y-68555830D01*
X86078924Y-68703466D01*
X86078930Y-68703470D01*
X86078933Y-68703472D01*
X86290344Y-68817882D01*
X86290347Y-68817883D01*
X86517699Y-68895933D01*
X86517701Y-68895933D01*
X86517703Y-68895934D01*
X86754808Y-68935500D01*
X86754809Y-68935500D01*
X86995191Y-68935500D01*
X86995192Y-68935500D01*
X87232297Y-68895934D01*
X87459656Y-68817882D01*
X87671067Y-68703472D01*
X87860764Y-68555825D01*
X88023571Y-68378969D01*
X88155049Y-68177728D01*
X88251610Y-67957591D01*
X88310620Y-67724563D01*
X88330471Y-67485000D01*
X88327612Y-67450500D01*
X88310620Y-67245440D01*
X88310620Y-67245437D01*
X88251610Y-67012409D01*
X88155049Y-66792272D01*
X88023571Y-66591031D01*
X87860764Y-66414175D01*
X87860759Y-66414171D01*
X87860757Y-66414169D01*
X87671075Y-66266533D01*
X87671069Y-66266529D01*
X87459657Y-66152118D01*
X87459652Y-66152116D01*
X87232300Y-66074066D01*
X87054468Y-66044391D01*
X86995192Y-66034500D01*
X86754808Y-66034500D01*
X86707387Y-66042413D01*
X86517699Y-66074066D01*
X86290347Y-66152116D01*
X86290342Y-66152118D01*
X86078930Y-66266529D01*
X86078924Y-66266533D01*
X85889242Y-66414169D01*
X85889239Y-66414172D01*
X85726430Y-66591029D01*
X85726427Y-66591033D01*
X85594951Y-66792270D01*
X85498389Y-67012410D01*
X85439379Y-67245440D01*
X85419529Y-67484994D01*
X85419529Y-67485005D01*
X73375500Y-67485005D01*
X73375500Y-66350000D01*
X79769785Y-66350000D01*
X79788602Y-66553082D01*
X79844417Y-66749247D01*
X79844422Y-66749260D01*
X79935327Y-66931821D01*
X80058237Y-67094581D01*
X80208958Y-67231980D01*
X80208960Y-67231982D01*
X80230691Y-67245437D01*
X80382363Y-67339348D01*
X80572544Y-67413024D01*
X80773024Y-67450500D01*
X80773026Y-67450500D01*
X80976974Y-67450500D01*
X80976976Y-67450500D01*
X81177456Y-67413024D01*
X81367637Y-67339348D01*
X81541041Y-67231981D01*
X81691764Y-67094579D01*
X81814673Y-66931821D01*
X81905582Y-66749250D01*
X81961397Y-66553083D01*
X81980215Y-66350000D01*
X81961397Y-66146917D01*
X81905582Y-65950750D01*
X81814673Y-65768179D01*
X81691764Y-65605421D01*
X81691762Y-65605418D01*
X81541041Y-65468019D01*
X81541039Y-65468017D01*
X81367642Y-65360655D01*
X81367635Y-65360651D01*
X81272546Y-65323814D01*
X81177456Y-65286976D01*
X80976976Y-65249500D01*
X80773024Y-65249500D01*
X80572544Y-65286976D01*
X80572541Y-65286976D01*
X80572541Y-65286977D01*
X80382364Y-65360651D01*
X80382357Y-65360655D01*
X80208960Y-65468017D01*
X80208958Y-65468019D01*
X80058237Y-65605418D01*
X79935327Y-65768178D01*
X79844422Y-65950739D01*
X79844417Y-65950752D01*
X79788602Y-66146917D01*
X79769785Y-66349999D01*
X79769785Y-66350000D01*
X73375500Y-66350000D01*
X73375500Y-63810000D01*
X79769785Y-63810000D01*
X79788602Y-64013082D01*
X79844417Y-64209247D01*
X79844422Y-64209260D01*
X79935327Y-64391821D01*
X80058237Y-64554581D01*
X80208958Y-64691980D01*
X80208960Y-64691982D01*
X80308141Y-64753392D01*
X80382363Y-64799348D01*
X80572544Y-64873024D01*
X80773024Y-64910500D01*
X80773026Y-64910500D01*
X80976974Y-64910500D01*
X80976976Y-64910500D01*
X81177456Y-64873024D01*
X81367637Y-64799348D01*
X81541041Y-64691981D01*
X81691764Y-64554579D01*
X81814673Y-64391821D01*
X81905582Y-64209250D01*
X81961397Y-64013083D01*
X81980215Y-63810000D01*
X81961397Y-63606917D01*
X81905582Y-63410750D01*
X81814673Y-63228179D01*
X81691764Y-63065421D01*
X81691762Y-63065418D01*
X81541041Y-62928019D01*
X81541039Y-62928017D01*
X81367642Y-62820655D01*
X81367635Y-62820651D01*
X81272546Y-62783814D01*
X81177456Y-62746976D01*
X80976976Y-62709500D01*
X80773024Y-62709500D01*
X80572544Y-62746976D01*
X80572541Y-62746976D01*
X80572541Y-62746977D01*
X80382364Y-62820651D01*
X80382357Y-62820655D01*
X80208960Y-62928017D01*
X80208958Y-62928019D01*
X80058237Y-63065418D01*
X79935327Y-63228178D01*
X79844422Y-63410739D01*
X79844417Y-63410752D01*
X79788602Y-63606917D01*
X79769785Y-63809999D01*
X79769785Y-63810000D01*
X73375500Y-63810000D01*
X73375500Y-62485005D01*
X85419529Y-62485005D01*
X85439379Y-62724559D01*
X85498389Y-62957589D01*
X85594951Y-63177729D01*
X85627912Y-63228179D01*
X85726429Y-63378969D01*
X85889236Y-63555825D01*
X85889239Y-63555827D01*
X85889242Y-63555830D01*
X86078924Y-63703466D01*
X86078930Y-63703470D01*
X86078933Y-63703472D01*
X86106647Y-63718470D01*
X86275777Y-63809999D01*
X86290344Y-63817882D01*
X86290347Y-63817883D01*
X86517699Y-63895933D01*
X86517701Y-63895933D01*
X86517703Y-63895934D01*
X86754808Y-63935500D01*
X86754809Y-63935500D01*
X86995191Y-63935500D01*
X86995192Y-63935500D01*
X87232297Y-63895934D01*
X87459656Y-63817882D01*
X87671067Y-63703472D01*
X87860764Y-63555825D01*
X88023571Y-63378969D01*
X88155049Y-63177728D01*
X88251610Y-62957591D01*
X88310620Y-62724563D01*
X88330471Y-62485000D01*
X88310620Y-62245437D01*
X88251610Y-62012409D01*
X88155049Y-61792272D01*
X88023571Y-61591031D01*
X87860764Y-61414175D01*
X87860759Y-61414171D01*
X87860757Y-61414169D01*
X87671075Y-61266533D01*
X87671069Y-61266529D01*
X87459657Y-61152118D01*
X87459652Y-61152116D01*
X87232300Y-61074066D01*
X87054468Y-61044391D01*
X86995192Y-61034500D01*
X86754808Y-61034500D01*
X86707387Y-61042413D01*
X86517699Y-61074066D01*
X86290347Y-61152116D01*
X86290342Y-61152118D01*
X86078930Y-61266529D01*
X86078924Y-61266533D01*
X85889242Y-61414169D01*
X85889239Y-61414172D01*
X85726430Y-61591029D01*
X85726427Y-61591033D01*
X85594951Y-61792270D01*
X85498389Y-62012410D01*
X85439379Y-62245440D01*
X85419529Y-62484994D01*
X85419529Y-62485005D01*
X73375500Y-62485005D01*
X73375500Y-61270000D01*
X79769785Y-61270000D01*
X79788602Y-61473082D01*
X79844417Y-61669247D01*
X79844422Y-61669260D01*
X79935327Y-61851821D01*
X80058237Y-62014581D01*
X80208958Y-62151980D01*
X80208960Y-62151982D01*
X80308141Y-62213392D01*
X80382363Y-62259348D01*
X80572544Y-62333024D01*
X80773024Y-62370500D01*
X80773026Y-62370500D01*
X80976974Y-62370500D01*
X80976976Y-62370500D01*
X81177456Y-62333024D01*
X81367637Y-62259348D01*
X81541041Y-62151981D01*
X81691764Y-62014579D01*
X81814673Y-61851821D01*
X81905582Y-61669250D01*
X81961397Y-61473083D01*
X81980215Y-61270000D01*
X81961397Y-61066917D01*
X81905582Y-60870750D01*
X81814673Y-60688179D01*
X81691764Y-60525421D01*
X81691762Y-60525418D01*
X81541041Y-60388019D01*
X81541039Y-60388017D01*
X81367642Y-60280655D01*
X81367635Y-60280651D01*
X81272546Y-60243814D01*
X81177456Y-60206976D01*
X80976976Y-60169500D01*
X80773024Y-60169500D01*
X80572544Y-60206976D01*
X80572541Y-60206976D01*
X80572541Y-60206977D01*
X80382364Y-60280651D01*
X80382357Y-60280655D01*
X80208960Y-60388017D01*
X80208958Y-60388019D01*
X80058237Y-60525418D01*
X79935327Y-60688178D01*
X79844422Y-60870739D01*
X79844417Y-60870752D01*
X79788602Y-61066917D01*
X79769785Y-61269999D01*
X79769785Y-61270000D01*
X73375500Y-61270000D01*
X73375500Y-58730000D01*
X79769785Y-58730000D01*
X79788602Y-58933082D01*
X79844417Y-59129247D01*
X79844422Y-59129260D01*
X79935327Y-59311821D01*
X80058237Y-59474581D01*
X80208958Y-59611980D01*
X80208960Y-59611982D01*
X80308141Y-59673392D01*
X80382363Y-59719348D01*
X80572544Y-59793024D01*
X80773024Y-59830500D01*
X80773026Y-59830500D01*
X80976974Y-59830500D01*
X80976976Y-59830500D01*
X81177456Y-59793024D01*
X81367637Y-59719348D01*
X81541041Y-59611981D01*
X81691764Y-59474579D01*
X81814673Y-59311821D01*
X81905582Y-59129250D01*
X81961397Y-58933083D01*
X81980215Y-58730000D01*
X81961397Y-58526917D01*
X81905582Y-58330750D01*
X81880008Y-58279391D01*
X81836856Y-58192729D01*
X81814673Y-58148179D01*
X81691764Y-57985421D01*
X81691762Y-57985418D01*
X81541041Y-57848019D01*
X81541039Y-57848017D01*
X81367642Y-57740655D01*
X81367635Y-57740651D01*
X81272546Y-57703814D01*
X81177456Y-57666976D01*
X80976976Y-57629500D01*
X80773024Y-57629500D01*
X80572544Y-57666976D01*
X80572541Y-57666976D01*
X80572541Y-57666977D01*
X80382364Y-57740651D01*
X80382357Y-57740655D01*
X80208960Y-57848017D01*
X80208958Y-57848019D01*
X80058237Y-57985418D01*
X79935327Y-58148178D01*
X79844422Y-58330739D01*
X79844417Y-58330752D01*
X79788602Y-58526917D01*
X79769785Y-58729999D01*
X79769785Y-58730000D01*
X73375500Y-58730000D01*
X73375500Y-57485005D01*
X85419529Y-57485005D01*
X85439379Y-57724559D01*
X85498389Y-57957589D01*
X85594951Y-58177729D01*
X85694926Y-58330750D01*
X85726429Y-58378969D01*
X85889236Y-58555825D01*
X85889239Y-58555827D01*
X85889242Y-58555830D01*
X86078924Y-58703466D01*
X86078930Y-58703470D01*
X86078933Y-58703472D01*
X86290344Y-58817882D01*
X86290347Y-58817883D01*
X86517699Y-58895933D01*
X86517701Y-58895933D01*
X86517703Y-58895934D01*
X86754808Y-58935500D01*
X86754809Y-58935500D01*
X86995191Y-58935500D01*
X86995192Y-58935500D01*
X87232297Y-58895934D01*
X87459656Y-58817882D01*
X87671067Y-58703472D01*
X87674597Y-58700725D01*
X87734768Y-58653891D01*
X87860764Y-58555825D01*
X88023571Y-58378969D01*
X88155049Y-58177728D01*
X88251610Y-57957591D01*
X88310620Y-57724563D01*
X88330471Y-57485000D01*
X88321585Y-57377769D01*
X88313258Y-57277274D01*
X88310620Y-57245437D01*
X88251610Y-57012409D01*
X88155049Y-56792272D01*
X88154077Y-56790785D01*
X88046098Y-56625511D01*
X88023571Y-56591031D01*
X87860764Y-56414175D01*
X87860759Y-56414171D01*
X87860757Y-56414169D01*
X87671075Y-56266533D01*
X87671069Y-56266529D01*
X87459657Y-56152118D01*
X87459652Y-56152116D01*
X87232300Y-56074066D01*
X87054468Y-56044391D01*
X86995192Y-56034500D01*
X86754808Y-56034500D01*
X86707387Y-56042413D01*
X86517699Y-56074066D01*
X86290347Y-56152116D01*
X86290342Y-56152118D01*
X86078930Y-56266529D01*
X86078924Y-56266533D01*
X85889242Y-56414169D01*
X85889239Y-56414172D01*
X85889236Y-56414174D01*
X85889236Y-56414175D01*
X85866284Y-56439108D01*
X85726430Y-56591029D01*
X85726427Y-56591033D01*
X85594951Y-56792270D01*
X85498389Y-57012410D01*
X85439379Y-57245440D01*
X85419529Y-57484994D01*
X85419529Y-57485005D01*
X73375500Y-57485005D01*
X73375500Y-56190000D01*
X79769785Y-56190000D01*
X79788602Y-56393082D01*
X79844417Y-56589247D01*
X79844422Y-56589260D01*
X79935327Y-56771821D01*
X80058237Y-56934581D01*
X80208958Y-57071980D01*
X80208960Y-57071982D01*
X80308141Y-57133392D01*
X80382363Y-57179348D01*
X80572544Y-57253024D01*
X80773024Y-57290500D01*
X80773026Y-57290500D01*
X80976974Y-57290500D01*
X80976976Y-57290500D01*
X81177456Y-57253024D01*
X81367637Y-57179348D01*
X81541041Y-57071981D01*
X81691764Y-56934579D01*
X81814673Y-56771821D01*
X81905582Y-56589250D01*
X81961397Y-56393083D01*
X81980215Y-56190000D01*
X81969608Y-56075535D01*
X81961397Y-55986917D01*
X81948508Y-55941619D01*
X81905582Y-55790750D01*
X81887636Y-55754710D01*
X81832366Y-55643712D01*
X81814673Y-55608179D01*
X81691764Y-55445421D01*
X81691762Y-55445418D01*
X81541041Y-55308019D01*
X81541039Y-55308017D01*
X81367642Y-55200655D01*
X81367635Y-55200651D01*
X81186209Y-55130367D01*
X81177456Y-55126976D01*
X80976976Y-55089500D01*
X80773024Y-55089500D01*
X80572544Y-55126976D01*
X80572541Y-55126976D01*
X80572541Y-55126977D01*
X80382364Y-55200651D01*
X80382357Y-55200655D01*
X80208960Y-55308017D01*
X80208958Y-55308019D01*
X80058237Y-55445418D01*
X79935327Y-55608178D01*
X79844422Y-55790739D01*
X79844417Y-55790752D01*
X79788602Y-55986917D01*
X79769785Y-56189999D01*
X79769785Y-56190000D01*
X73375500Y-56190000D01*
X73375500Y-53650000D01*
X79769785Y-53650000D01*
X79788602Y-53853082D01*
X79844417Y-54049247D01*
X79844422Y-54049260D01*
X79935327Y-54231821D01*
X80058237Y-54394581D01*
X80208958Y-54531980D01*
X80208960Y-54531982D01*
X80308141Y-54593392D01*
X80382363Y-54639348D01*
X80572544Y-54713024D01*
X80773024Y-54750500D01*
X80773026Y-54750500D01*
X80976974Y-54750500D01*
X80976976Y-54750500D01*
X81177456Y-54713024D01*
X81367637Y-54639348D01*
X81541041Y-54531981D01*
X81691764Y-54394579D01*
X81814673Y-54231821D01*
X81905582Y-54049250D01*
X81961397Y-53853083D01*
X81980215Y-53650000D01*
X81978417Y-53630601D01*
X81961397Y-53446917D01*
X81954139Y-53421407D01*
X81905582Y-53250750D01*
X81814673Y-53068179D01*
X81731161Y-52957591D01*
X81691762Y-52905418D01*
X81541041Y-52768019D01*
X81541039Y-52768017D01*
X81367642Y-52660655D01*
X81367635Y-52660651D01*
X81211072Y-52599999D01*
X81177456Y-52586976D01*
X80976976Y-52549500D01*
X80773024Y-52549500D01*
X80572544Y-52586976D01*
X80572541Y-52586976D01*
X80572541Y-52586977D01*
X80382364Y-52660651D01*
X80382357Y-52660655D01*
X80208960Y-52768017D01*
X80208958Y-52768019D01*
X80058237Y-52905418D01*
X79935327Y-53068178D01*
X79844422Y-53250739D01*
X79844417Y-53250752D01*
X79788602Y-53446917D01*
X79769785Y-53649999D01*
X79769785Y-53650000D01*
X73375500Y-53650000D01*
X73375500Y-52485005D01*
X85419529Y-52485005D01*
X85439379Y-52724559D01*
X85498389Y-52957589D01*
X85594951Y-53177729D01*
X85642660Y-53250752D01*
X85726429Y-53378969D01*
X85889236Y-53555825D01*
X85889239Y-53555827D01*
X85889242Y-53555830D01*
X86078924Y-53703466D01*
X86078930Y-53703470D01*
X86078933Y-53703472D01*
X86290344Y-53817882D01*
X86290347Y-53817883D01*
X86517699Y-53895933D01*
X86517701Y-53895933D01*
X86517703Y-53895934D01*
X86754808Y-53935500D01*
X86754809Y-53935500D01*
X86995191Y-53935500D01*
X86995192Y-53935500D01*
X87232297Y-53895934D01*
X87459656Y-53817882D01*
X87671067Y-53703472D01*
X87674886Y-53700500D01*
X87788170Y-53612327D01*
X87860764Y-53555825D01*
X88023571Y-53378969D01*
X88155049Y-53177728D01*
X88251610Y-52957591D01*
X88310620Y-52724563D01*
X88322021Y-52586976D01*
X88330471Y-52485005D01*
X88330471Y-52484994D01*
X88310620Y-52245440D01*
X88310620Y-52245437D01*
X88251610Y-52012409D01*
X88155049Y-51792272D01*
X88111307Y-51725321D01*
X88033371Y-51606031D01*
X88023571Y-51591031D01*
X87860764Y-51414175D01*
X87860759Y-51414171D01*
X87860757Y-51414169D01*
X87671075Y-51266533D01*
X87671069Y-51266529D01*
X87459657Y-51152118D01*
X87459652Y-51152116D01*
X87232300Y-51074066D01*
X87054468Y-51044391D01*
X86995192Y-51034500D01*
X86754808Y-51034500D01*
X86707387Y-51042413D01*
X86517699Y-51074066D01*
X86290347Y-51152116D01*
X86290342Y-51152118D01*
X86078930Y-51266529D01*
X86078924Y-51266533D01*
X85889242Y-51414169D01*
X85889239Y-51414172D01*
X85726430Y-51591029D01*
X85726427Y-51591033D01*
X85594951Y-51792270D01*
X85498389Y-52012410D01*
X85439379Y-52245440D01*
X85419529Y-52484994D01*
X85419529Y-52485005D01*
X73375500Y-52485005D01*
X73375500Y-51984678D01*
X79774500Y-51984678D01*
X79789032Y-52057735D01*
X79789033Y-52057739D01*
X79789034Y-52057740D01*
X79844399Y-52140601D01*
X79895319Y-52174624D01*
X79927260Y-52195966D01*
X79927264Y-52195967D01*
X80000321Y-52210499D01*
X80000324Y-52210500D01*
X80000326Y-52210500D01*
X81749676Y-52210500D01*
X81749677Y-52210499D01*
X81822740Y-52195966D01*
X81905601Y-52140601D01*
X81960966Y-52057740D01*
X81975500Y-51984674D01*
X81975500Y-50235326D01*
X81975500Y-50235323D01*
X81975499Y-50235321D01*
X81960967Y-50162264D01*
X81960966Y-50162260D01*
X81905601Y-50079399D01*
X81822740Y-50024034D01*
X81822739Y-50024033D01*
X81822735Y-50024032D01*
X81749677Y-50009500D01*
X81749674Y-50009500D01*
X80000326Y-50009500D01*
X80000323Y-50009500D01*
X79927264Y-50024032D01*
X79927260Y-50024033D01*
X79844399Y-50079399D01*
X79789033Y-50162260D01*
X79789032Y-50162264D01*
X79774500Y-50235321D01*
X79774500Y-51984678D01*
X73375500Y-51984678D01*
X73375500Y-49074678D01*
X92374500Y-49074678D01*
X92389032Y-49147735D01*
X92389033Y-49147739D01*
X92389034Y-49147740D01*
X92444399Y-49230601D01*
X92527260Y-49285966D01*
X92527264Y-49285967D01*
X92600321Y-49300499D01*
X92600324Y-49300500D01*
X92600326Y-49300500D01*
X94349676Y-49300500D01*
X94349677Y-49300499D01*
X94422740Y-49285966D01*
X94505601Y-49230601D01*
X94560966Y-49147740D01*
X94575500Y-49074674D01*
X94575500Y-48200000D01*
X94909785Y-48200000D01*
X94928602Y-48403082D01*
X94984417Y-48599247D01*
X94984422Y-48599260D01*
X95075327Y-48781821D01*
X95198237Y-48944581D01*
X95348958Y-49081980D01*
X95348960Y-49081982D01*
X95448141Y-49143392D01*
X95522363Y-49189348D01*
X95712544Y-49263024D01*
X95913024Y-49300500D01*
X95913026Y-49300500D01*
X96116974Y-49300500D01*
X96116976Y-49300500D01*
X96317456Y-49263024D01*
X96507637Y-49189348D01*
X96681041Y-49081981D01*
X96831764Y-48944579D01*
X96954673Y-48781821D01*
X97045582Y-48599250D01*
X97101397Y-48403083D01*
X97120215Y-48200000D01*
X97101397Y-47996917D01*
X97045582Y-47800750D01*
X96954673Y-47618179D01*
X96865432Y-47500005D01*
X96831762Y-47455418D01*
X96681041Y-47318019D01*
X96681039Y-47318017D01*
X96507642Y-47210655D01*
X96507635Y-47210651D01*
X96401150Y-47169399D01*
X96317456Y-47136976D01*
X96116976Y-47099500D01*
X95913024Y-47099500D01*
X95712544Y-47136976D01*
X95712541Y-47136976D01*
X95712541Y-47136977D01*
X95522364Y-47210651D01*
X95522357Y-47210655D01*
X95348960Y-47318017D01*
X95348958Y-47318019D01*
X95198237Y-47455418D01*
X95075327Y-47618178D01*
X94984422Y-47800739D01*
X94984417Y-47800752D01*
X94928602Y-47996917D01*
X94909785Y-48199999D01*
X94909785Y-48200000D01*
X94575500Y-48200000D01*
X94575500Y-47325326D01*
X94575500Y-47325323D01*
X94575499Y-47325321D01*
X94560967Y-47252264D01*
X94560966Y-47252260D01*
X94556407Y-47245437D01*
X94505601Y-47169399D01*
X94422740Y-47114034D01*
X94422739Y-47114033D01*
X94422735Y-47114032D01*
X94349677Y-47099500D01*
X94349674Y-47099500D01*
X92600326Y-47099500D01*
X92600323Y-47099500D01*
X92527264Y-47114032D01*
X92527260Y-47114033D01*
X92444399Y-47169399D01*
X92389033Y-47252260D01*
X92389032Y-47252264D01*
X92374500Y-47325321D01*
X92374500Y-49074678D01*
X73375500Y-49074678D01*
X73375500Y-47485005D01*
X85419529Y-47485005D01*
X85439379Y-47724559D01*
X85498389Y-47957589D01*
X85594951Y-48177729D01*
X85609501Y-48199999D01*
X85726429Y-48378969D01*
X85889236Y-48555825D01*
X85889239Y-48555827D01*
X85889242Y-48555830D01*
X86078924Y-48703466D01*
X86078930Y-48703470D01*
X86078933Y-48703472D01*
X86290344Y-48817882D01*
X86290347Y-48817883D01*
X86517699Y-48895933D01*
X86517701Y-48895933D01*
X86517703Y-48895934D01*
X86754808Y-48935500D01*
X86754809Y-48935500D01*
X86995191Y-48935500D01*
X86995192Y-48935500D01*
X87232297Y-48895934D01*
X87459656Y-48817882D01*
X87671067Y-48703472D01*
X87860764Y-48555825D01*
X88023571Y-48378969D01*
X88155049Y-48177728D01*
X88251610Y-47957591D01*
X88310620Y-47724563D01*
X88330471Y-47485000D01*
X88310620Y-47245437D01*
X88251610Y-47012409D01*
X88155049Y-46792272D01*
X88109805Y-46723022D01*
X88068726Y-46660146D01*
X88023571Y-46591031D01*
X87860764Y-46414175D01*
X87860759Y-46414171D01*
X87860757Y-46414169D01*
X87671075Y-46266533D01*
X87671069Y-46266529D01*
X87459657Y-46152118D01*
X87459652Y-46152116D01*
X87232300Y-46074066D01*
X87054468Y-46044391D01*
X86995192Y-46034500D01*
X86754808Y-46034500D01*
X86707387Y-46042413D01*
X86517699Y-46074066D01*
X86290347Y-46152116D01*
X86290342Y-46152118D01*
X86078930Y-46266529D01*
X86078924Y-46266533D01*
X85889242Y-46414169D01*
X85889239Y-46414172D01*
X85726430Y-46591029D01*
X85726427Y-46591033D01*
X85594951Y-46792270D01*
X85498389Y-47012410D01*
X85439379Y-47245440D01*
X85419529Y-47484994D01*
X85419529Y-47485005D01*
X73375500Y-47485005D01*
X73375500Y-45660000D01*
X92369785Y-45660000D01*
X92388602Y-45863082D01*
X92444417Y-46059247D01*
X92444422Y-46059260D01*
X92535327Y-46241821D01*
X92658237Y-46404581D01*
X92808958Y-46541980D01*
X92808960Y-46541982D01*
X92888174Y-46591029D01*
X92982363Y-46649348D01*
X93172544Y-46723024D01*
X93373024Y-46760500D01*
X93373026Y-46760500D01*
X93576974Y-46760500D01*
X93576976Y-46760500D01*
X93777456Y-46723024D01*
X93967637Y-46649348D01*
X94141041Y-46541981D01*
X94291764Y-46404579D01*
X94414673Y-46241821D01*
X94505582Y-46059250D01*
X94561397Y-45863083D01*
X94580215Y-45660000D01*
X94909785Y-45660000D01*
X94928602Y-45863082D01*
X94984417Y-46059247D01*
X94984422Y-46059260D01*
X95075327Y-46241821D01*
X95198237Y-46404581D01*
X95348958Y-46541980D01*
X95348960Y-46541982D01*
X95428174Y-46591029D01*
X95522363Y-46649348D01*
X95712544Y-46723024D01*
X95913024Y-46760500D01*
X95913026Y-46760500D01*
X96116974Y-46760500D01*
X96116976Y-46760500D01*
X96317456Y-46723024D01*
X96507637Y-46649348D01*
X96681041Y-46541981D01*
X96831764Y-46404579D01*
X96954673Y-46241821D01*
X97045582Y-46059250D01*
X97101397Y-45863083D01*
X97120215Y-45660000D01*
X97101397Y-45456917D01*
X97045582Y-45260750D01*
X96954673Y-45078179D01*
X96831764Y-44915421D01*
X96831762Y-44915418D01*
X96681041Y-44778019D01*
X96681039Y-44778017D01*
X96507642Y-44670655D01*
X96507635Y-44670651D01*
X96412546Y-44633814D01*
X96317456Y-44596976D01*
X96116976Y-44559500D01*
X95913024Y-44559500D01*
X95712544Y-44596976D01*
X95712541Y-44596976D01*
X95712541Y-44596977D01*
X95522364Y-44670651D01*
X95522357Y-44670655D01*
X95348960Y-44778017D01*
X95348958Y-44778019D01*
X95198237Y-44915418D01*
X95075327Y-45078178D01*
X94984422Y-45260739D01*
X94984417Y-45260752D01*
X94928602Y-45456917D01*
X94909785Y-45659999D01*
X94909785Y-45660000D01*
X94580215Y-45660000D01*
X94561397Y-45456917D01*
X94505582Y-45260750D01*
X94414673Y-45078179D01*
X94291764Y-44915421D01*
X94291762Y-44915418D01*
X94141041Y-44778019D01*
X94141039Y-44778017D01*
X93967642Y-44670655D01*
X93967635Y-44670651D01*
X93872546Y-44633814D01*
X93777456Y-44596976D01*
X93576976Y-44559500D01*
X93373024Y-44559500D01*
X93172544Y-44596976D01*
X93172541Y-44596976D01*
X93172541Y-44596977D01*
X92982364Y-44670651D01*
X92982357Y-44670655D01*
X92808960Y-44778017D01*
X92808958Y-44778019D01*
X92658237Y-44915418D01*
X92535327Y-45078178D01*
X92444422Y-45260739D01*
X92444417Y-45260752D01*
X92388602Y-45456917D01*
X92369785Y-45659999D01*
X92369785Y-45660000D01*
X73375500Y-45660000D01*
X73375500Y-42485005D01*
X85419529Y-42485005D01*
X85439379Y-42724559D01*
X85498389Y-42957589D01*
X85594951Y-43177729D01*
X85726427Y-43378966D01*
X85726429Y-43378969D01*
X85889236Y-43555825D01*
X85889239Y-43555827D01*
X85889242Y-43555830D01*
X86078924Y-43703466D01*
X86078930Y-43703470D01*
X86078933Y-43703472D01*
X86290344Y-43817882D01*
X86290347Y-43817883D01*
X86517699Y-43895933D01*
X86517701Y-43895933D01*
X86517703Y-43895934D01*
X86754808Y-43935500D01*
X86754809Y-43935500D01*
X86995191Y-43935500D01*
X86995192Y-43935500D01*
X87232297Y-43895934D01*
X87459656Y-43817882D01*
X87671067Y-43703472D01*
X87860764Y-43555825D01*
X88023571Y-43378969D01*
X88155049Y-43177728D01*
X88251610Y-42957591D01*
X88310620Y-42724563D01*
X88329228Y-42500005D01*
X108419529Y-42500005D01*
X108439379Y-42739559D01*
X108498389Y-42972589D01*
X108594951Y-43192729D01*
X108716627Y-43378966D01*
X108726429Y-43393969D01*
X108889236Y-43570825D01*
X108889239Y-43570827D01*
X108889242Y-43570830D01*
X109078924Y-43718466D01*
X109078930Y-43718470D01*
X109078933Y-43718472D01*
X109290344Y-43832882D01*
X109290347Y-43832883D01*
X109517699Y-43910933D01*
X109517701Y-43910933D01*
X109517703Y-43910934D01*
X109754808Y-43950500D01*
X109754809Y-43950500D01*
X109995191Y-43950500D01*
X109995192Y-43950500D01*
X110232297Y-43910934D01*
X110459656Y-43832882D01*
X110671067Y-43718472D01*
X110860764Y-43570825D01*
X111023571Y-43393969D01*
X111155049Y-43192728D01*
X111251610Y-42972591D01*
X111310620Y-42739563D01*
X111330471Y-42500000D01*
X111329228Y-42485005D01*
X111310620Y-42260440D01*
X111310620Y-42260437D01*
X111251610Y-42027409D01*
X111155049Y-41807272D01*
X111023571Y-41606031D01*
X110860764Y-41429175D01*
X110860759Y-41429171D01*
X110860757Y-41429169D01*
X110671075Y-41281533D01*
X110671069Y-41281529D01*
X110459657Y-41167118D01*
X110459652Y-41167116D01*
X110232300Y-41089066D01*
X110054468Y-41059391D01*
X109995192Y-41049500D01*
X109754808Y-41049500D01*
X109707387Y-41057413D01*
X109517699Y-41089066D01*
X109290347Y-41167116D01*
X109290342Y-41167118D01*
X109078930Y-41281529D01*
X109078924Y-41281533D01*
X108889242Y-41429169D01*
X108889239Y-41429172D01*
X108726430Y-41606029D01*
X108726427Y-41606033D01*
X108594951Y-41807270D01*
X108498389Y-42027410D01*
X108439379Y-42260440D01*
X108419529Y-42499994D01*
X108419529Y-42500005D01*
X88329228Y-42500005D01*
X88330471Y-42485000D01*
X88310620Y-42245437D01*
X88251610Y-42012409D01*
X88155049Y-41792272D01*
X88023571Y-41591031D01*
X87860764Y-41414175D01*
X87860759Y-41414171D01*
X87860757Y-41414169D01*
X87671075Y-41266533D01*
X87671069Y-41266529D01*
X87459657Y-41152118D01*
X87459652Y-41152116D01*
X87232300Y-41074066D01*
X87054468Y-41044391D01*
X86995192Y-41034500D01*
X86754808Y-41034500D01*
X86707387Y-41042413D01*
X86517699Y-41074066D01*
X86290347Y-41152116D01*
X86290342Y-41152118D01*
X86078930Y-41266529D01*
X86078924Y-41266533D01*
X85889242Y-41414169D01*
X85889239Y-41414172D01*
X85726430Y-41591029D01*
X85726427Y-41591033D01*
X85594951Y-41792270D01*
X85498389Y-42012410D01*
X85439379Y-42245440D01*
X85419529Y-42484994D01*
X85419529Y-42485005D01*
X73375500Y-42485005D01*
X73375500Y-35124500D01*
X73395185Y-35057461D01*
X73447989Y-35011706D01*
X73499500Y-35000500D01*
X123250500Y-35000500D01*
X123317539Y-35020185D01*
G37*
%TD.AperFunction*%
%TD*%
M02*
