%TF.GenerationSoftware,KiCad,Pcbnew,7.0.10*%
%TF.CreationDate,2024-04-19T13:43:16-04:00*%
%TF.ProjectId,spst-eval-board,73707374-2d65-4766-916c-2d626f617264,1*%
%TF.SameCoordinates,Original*%
%TF.FileFunction,Paste,Top*%
%TF.FilePolarity,Positive*%
%FSLAX46Y46*%
G04 Gerber Fmt 4.6, Leading zero omitted, Abs format (unit mm)*
G04 Created by KiCad (PCBNEW 7.0.10) date 2024-04-19 13:43:16*
%MOMM*%
%LPD*%
G01*
G04 APERTURE LIST*
G04 Aperture macros list*
%AMRoundRect*
0 Rectangle with rounded corners*
0 $1 Rounding radius*
0 $2 $3 $4 $5 $6 $7 $8 $9 X,Y pos of 4 corners*
0 Add a 4 corners polygon primitive as box body*
4,1,4,$2,$3,$4,$5,$6,$7,$8,$9,$2,$3,0*
0 Add four circle primitives for the rounded corners*
1,1,$1+$1,$2,$3*
1,1,$1+$1,$4,$5*
1,1,$1+$1,$6,$7*
1,1,$1+$1,$8,$9*
0 Add four rect primitives between the rounded corners*
20,1,$1+$1,$2,$3,$4,$5,0*
20,1,$1+$1,$4,$5,$6,$7,0*
20,1,$1+$1,$6,$7,$8,$9,0*
20,1,$1+$1,$8,$9,$2,$3,0*%
G04 Aperture macros list end*
%ADD10R,0.812800X0.203200*%
%ADD11R,0.203200X0.812800*%
%ADD12RoundRect,0.140000X0.170000X-0.140000X0.170000X0.140000X-0.170000X0.140000X-0.170000X-0.140000X0*%
%ADD13RoundRect,0.140000X-0.140000X-0.170000X0.140000X-0.170000X0.140000X0.170000X-0.140000X0.170000X0*%
G04 APERTURE END LIST*
%TO.C,U1*%
G36*
X98258100Y-59900000D02*
G01*
X97111900Y-59900000D01*
X97111900Y-58753800D01*
X98258100Y-58753800D01*
X98258100Y-59900000D01*
G37*
G36*
X98258100Y-61246200D02*
G01*
X97111900Y-61246200D01*
X97111900Y-60100000D01*
X98258100Y-60100000D01*
X98258100Y-61246200D01*
G37*
G36*
X99604300Y-59900000D02*
G01*
X98458100Y-59900000D01*
X98458100Y-58753800D01*
X99604300Y-58753800D01*
X99604300Y-59900000D01*
G37*
G36*
X99604300Y-61246200D02*
G01*
X98458100Y-61246200D01*
X98458100Y-60100000D01*
X99604300Y-60100000D01*
X99604300Y-61246200D01*
G37*
%TD*%
D10*
%TO.C,U1*%
X96415000Y-58800000D03*
X96415000Y-59199999D03*
X96415000Y-59600001D03*
X96415000Y-60000000D03*
X96415000Y-60399999D03*
X96415000Y-60800001D03*
X96415000Y-61200000D03*
D11*
X97158100Y-61943100D03*
X97558099Y-61943100D03*
X97958101Y-61943100D03*
X98358100Y-61943100D03*
X98758099Y-61943100D03*
X99158101Y-61943100D03*
X99558100Y-61943100D03*
D10*
X100301200Y-61200000D03*
X100301200Y-60800001D03*
X100301200Y-60399999D03*
X100301200Y-60000000D03*
X100301200Y-59600001D03*
X100301200Y-59199999D03*
X100301200Y-58800000D03*
D11*
X99558100Y-58056900D03*
X99158101Y-58056900D03*
X98758099Y-58056900D03*
X98358100Y-58056900D03*
X97958101Y-58056900D03*
X97558099Y-58056900D03*
X97158100Y-58056900D03*
%TD*%
D12*
%TO.C,C2*%
X94958100Y-58423100D03*
X94958100Y-57463100D03*
%TD*%
D13*
%TO.C,C1*%
X100125000Y-56643100D03*
X101085000Y-56643100D03*
%TD*%
M02*
