M48
; DRILL file {KiCad 7.0.10} date Friday, April 19, 2024 at 01:43:14 PM
; FORMAT={-:-/ absolute / inch / decimal}
; #@! TF.CreationDate,2024-04-19T13:43:14-04:00
; #@! TF.GenerationSoftware,Kicad,Pcbnew,7.0.10
; #@! TF.FileFunction,Plated,1,4,PTH
FMAT,2
INCH
; #@! TA.AperFunction,Plated,PTH,ViaDrill
T1C0.0118
; #@! TA.AperFunction,Plated,PTH,ViaDrill
T2C0.0157
; #@! TA.AperFunction,Plated,PTH,ComponentDrill
T3C0.0197
; #@! TA.AperFunction,Plated,PTH,ComponentDrill
T4C0.0394
; #@! TA.AperFunction,Plated,PTH,ComponentDrill
T5C0.0630
; #@! TA.AperFunction,Plated,PTH,ComponentDrill
T6C0.1063
%
G90
G05
T1
X3.6959Y-2.3001
X3.8251Y-2.2134
X3.8565Y-2.2121
X3.9419Y-2.185
T2
X3.7385Y-2.2152
X3.8724Y-2.4895
X4.0265Y-2.23
T3
X3.0059Y-1.5748
X3.0059Y-3.1496
X3.0293Y-1.5184
X3.0293Y-1.6312
X3.0293Y-3.0932
X3.0293Y-3.206
X3.0856Y-1.4951
X3.0856Y-1.6545
X3.0856Y-3.0699
X3.0856Y-3.2293
X3.142Y-1.5184
X3.142Y-1.6312
X3.142Y-3.0932
X3.142Y-3.206
X3.1654Y-1.5748
X3.1654Y-3.1496
X4.5807Y-1.5748
X4.5807Y-3.1496
X4.6041Y-1.5184
X4.6041Y-1.6312
X4.6041Y-3.0932
X4.6041Y-3.206
X4.6604Y-1.4951
X4.6604Y-1.6545
X4.6604Y-3.0699
X4.6604Y-3.2293
X4.7168Y-1.5184
X4.7168Y-1.6312
X4.7168Y-3.0932
X4.7168Y-3.206
X4.7402Y-1.5748
X4.7402Y-3.1496
T4
X3.1841Y-2.0122
X3.1841Y-2.1122
X3.1841Y-2.2122
X3.1841Y-2.3122
X3.1841Y-2.4122
X3.1841Y-2.5122
X3.1841Y-2.6122
X3.1841Y-2.7122
X3.6801Y-1.7976
X3.6801Y-1.8976
X3.773Y-2.0709
X3.7801Y-1.7976
X3.7801Y-1.8976
X3.873Y-2.0709
X3.9636Y-1.7976
X3.9636Y-1.8976
X3.973Y-2.0709
X4.0636Y-1.7976
X4.0636Y-1.8976
X4.562Y-2.0122
X4.562Y-2.1122
X4.562Y-2.2122
X4.562Y-2.3122
X4.562Y-2.4122
X4.562Y-2.5122
X4.562Y-2.6122
X4.562Y-2.7122
T5
X3.4203Y-1.6726
X3.4203Y-1.8695
X3.4203Y-2.0663
X3.4203Y-2.2632
X3.4203Y-2.46
X3.4203Y-2.6569
X3.4203Y-2.8537
X3.4203Y-3.0506
X3.7746Y-2.8543
X3.9715Y-2.8543
X4.3258Y-1.6732
X4.3258Y-1.8701
X4.3258Y-2.0669
X4.3258Y-2.2638
X4.3258Y-2.4606
X4.3258Y-2.6575
X4.3258Y-2.8543
X4.3258Y-3.0512
T6
X3.0856Y-1.5748
X3.0856Y-3.1496
X4.6604Y-1.5748
X4.6604Y-3.1496
M30
