%TF.GenerationSoftware,KiCad,Pcbnew,7.0.10*%
%TF.CreationDate,2024-04-19T13:43:16-04:00*%
%TF.ProjectId,spst-eval-board,73707374-2d65-4766-916c-2d626f617264,1*%
%TF.SameCoordinates,Original*%
%TF.FileFunction,Soldermask,Bot*%
%TF.FilePolarity,Negative*%
%FSLAX46Y46*%
G04 Gerber Fmt 4.6, Leading zero omitted, Abs format (unit mm)*
G04 Created by KiCad (PCBNEW 7.0.10) date 2024-04-19 13:43:16*
%MOMM*%
%LPD*%
G01*
G04 APERTURE LIST*
%ADD10C,2.604000*%
%ADD11R,1.700000X1.700000*%
%ADD12O,1.700000X1.700000*%
%ADD13C,0.800000*%
%ADD14C,5.400000*%
G04 APERTURE END LIST*
D10*
%TO.C,TP7*%
X86875000Y-72485000D03*
%TD*%
%TO.C,TP10*%
X109875000Y-47500000D03*
%TD*%
%TO.C,TP5*%
X86875000Y-62485000D03*
%TD*%
%TO.C,TP13*%
X109875000Y-62500000D03*
%TD*%
%TO.C,TP16*%
X109875000Y-77500000D03*
%TD*%
%TO.C,TP15*%
X109875000Y-72500000D03*
%TD*%
%TO.C,TP12*%
X109875000Y-57500000D03*
%TD*%
%TO.C,TP18*%
X95875000Y-72500000D03*
%TD*%
%TO.C,TP4*%
X86875000Y-57485000D03*
%TD*%
%TO.C,TP1*%
X86875000Y-42485000D03*
%TD*%
%TO.C,TP9*%
X109875000Y-42500000D03*
%TD*%
D11*
%TO.C,J1*%
X80875000Y-51110000D03*
D12*
X80875000Y-53650000D03*
X80875000Y-56190000D03*
X80875000Y-58730000D03*
X80875000Y-61270000D03*
X80875000Y-63810000D03*
X80875000Y-66350000D03*
X80875000Y-68890000D03*
%TD*%
D13*
%TO.C,H3*%
X116350000Y-40000000D03*
X116943109Y-38568109D03*
X116943109Y-41431891D03*
X118375000Y-37975000D03*
D14*
X118375000Y-40000000D03*
D13*
X118375000Y-42025000D03*
X119806891Y-38568109D03*
X119806891Y-41431891D03*
X120400000Y-40000000D03*
%TD*%
D11*
%TO.C,J4*%
X100675000Y-48200000D03*
D12*
X100675000Y-45660000D03*
X103215000Y-48200000D03*
X103215000Y-45660000D03*
%TD*%
D11*
%TO.C,J2*%
X115875000Y-51110000D03*
D12*
X115875000Y-53650000D03*
X115875000Y-56190000D03*
X115875000Y-58730000D03*
X115875000Y-61270000D03*
X115875000Y-63810000D03*
X115875000Y-66350000D03*
X115875000Y-68890000D03*
%TD*%
D10*
%TO.C,TP3*%
X86875000Y-52485000D03*
%TD*%
%TO.C,TP6*%
X86875000Y-67485000D03*
%TD*%
%TO.C,TP2*%
X86875000Y-47485000D03*
%TD*%
%TO.C,TP11*%
X109875000Y-52500000D03*
%TD*%
D13*
%TO.C,H4*%
X116350000Y-80000000D03*
X116943109Y-78568109D03*
X116943109Y-81431891D03*
X118375000Y-77975000D03*
D14*
X118375000Y-80000000D03*
D13*
X118375000Y-82025000D03*
X119806891Y-78568109D03*
X119806891Y-81431891D03*
X120400000Y-80000000D03*
%TD*%
D10*
%TO.C,TP14*%
X109875000Y-67500000D03*
%TD*%
D11*
%TO.C,J3*%
X93475000Y-48200000D03*
D12*
X93475000Y-45660000D03*
X96015000Y-48200000D03*
X96015000Y-45660000D03*
%TD*%
D10*
%TO.C,TP19*%
X100875000Y-72500000D03*
%TD*%
D13*
%TO.C,H2*%
X80400000Y-80000000D03*
X79806891Y-81431891D03*
X79806891Y-78568109D03*
X78375000Y-82025000D03*
D14*
X78375000Y-80000000D03*
D13*
X78375000Y-77975000D03*
X76943109Y-81431891D03*
X76943109Y-78568109D03*
X76350000Y-80000000D03*
%TD*%
D10*
%TO.C,TP8*%
X86875000Y-77485000D03*
%TD*%
D11*
%TO.C,JP1*%
X95835000Y-52600000D03*
D12*
X98375000Y-52600000D03*
X100915000Y-52600000D03*
%TD*%
D13*
%TO.C,H1*%
X76350000Y-40000000D03*
X76943109Y-38568109D03*
X76943109Y-41431891D03*
X78375000Y-37975000D03*
D14*
X78375000Y-40000000D03*
D13*
X78375000Y-42025000D03*
X79806891Y-38568109D03*
X79806891Y-41431891D03*
X80400000Y-40000000D03*
%TD*%
M02*
