%TF.GenerationSoftware,KiCad,Pcbnew,7.0.10*%
%TF.CreationDate,2024-04-21T22:28:25-04:00*%
%TF.ProjectId,ltc2666-eval-board,6c746332-3636-4362-9d65-76616c2d626f,1*%
%TF.SameCoordinates,Original*%
%TF.FileFunction,Copper,L5,Inr*%
%TF.FilePolarity,Positive*%
%FSLAX46Y46*%
G04 Gerber Fmt 4.6, Leading zero omitted, Abs format (unit mm)*
G04 Created by KiCad (PCBNEW 7.0.10) date 2024-04-21 22:28:25*
%MOMM*%
%LPD*%
G01*
G04 APERTURE LIST*
%TA.AperFunction,ComponentPad*%
%ADD10C,0.800000*%
%TD*%
%TA.AperFunction,ComponentPad*%
%ADD11C,5.400000*%
%TD*%
%TA.AperFunction,ComponentPad*%
%ADD12R,1.700000X1.700000*%
%TD*%
%TA.AperFunction,ComponentPad*%
%ADD13O,1.700000X1.700000*%
%TD*%
%TA.AperFunction,ComponentPad*%
%ADD14C,2.400000*%
%TD*%
%TA.AperFunction,ComponentPad*%
%ADD15C,2.006600*%
%TD*%
%TA.AperFunction,ComponentPad*%
%ADD16C,1.905000*%
%TD*%
%TA.AperFunction,ViaPad*%
%ADD17C,0.600000*%
%TD*%
%TA.AperFunction,ViaPad*%
%ADD18C,0.800000*%
%TD*%
G04 APERTURE END LIST*
D10*
%TO.N,Earth*%
%TO.C,H3*%
X159175000Y-71875000D03*
X159768109Y-70443109D03*
X159768109Y-73306891D03*
X161200000Y-69850000D03*
D11*
X161200000Y-71875000D03*
D10*
X161200000Y-73900000D03*
X162631891Y-70443109D03*
X162631891Y-73306891D03*
X163225000Y-71875000D03*
%TD*%
D12*
%TO.N,+3.3V*%
%TO.C,JP103*%
X126460000Y-95250000D03*
D13*
%TO.N,Earth*%
X129000000Y-95250000D03*
%TO.N,Net-(JP103-B)*%
X131540000Y-95250000D03*
%TD*%
D12*
%TO.N,/DAC_CHANNEL_3*%
%TO.C,J106*%
X129670000Y-75000000D03*
D13*
%TO.N,/DAC_CHANNEL_2*%
X132210000Y-75000000D03*
%TO.N,/DAC_CHANNEL_1*%
X134750000Y-75000000D03*
%TO.N,/DAC_CHANNEL_0*%
X137290000Y-75000000D03*
%TO.N,/DAC_CHANNEL_7*%
X139830000Y-75000000D03*
%TO.N,/DAC_CHANNEL_6*%
X142370000Y-75000000D03*
%TO.N,/DAC_CHANNEL_5*%
X144910000Y-75000000D03*
%TO.N,/DAC_CHANNEL_4*%
X147450000Y-75000000D03*
%TD*%
D14*
%TO.N,Earth*%
%TO.C,TP102*%
X130500000Y-100000000D03*
%TD*%
D12*
%TO.N,/DAC_CS*%
%TO.C,J105*%
X129950000Y-105250000D03*
D13*
%TO.N,/DAC_SCK*%
X132490000Y-105250000D03*
%TO.N,/DAC_MISO*%
X135030000Y-105250000D03*
%TO.N,/DAC_MOSI*%
X137570000Y-105250000D03*
%TD*%
D12*
%TO.N,+3.3V*%
%TO.C,JP102*%
X126460000Y-90250000D03*
D13*
%TO.N,Earth*%
X129000000Y-90250000D03*
%TO.N,Net-(JP102-B)*%
X131540000Y-90250000D03*
%TD*%
D15*
%TO.N,+5V*%
%TO.C,J103*%
X156550000Y-80150000D03*
D16*
%TO.N,Earth*%
X153997300Y-77597300D03*
X153997300Y-82702700D03*
X159102700Y-77597300D03*
X159102700Y-82702700D03*
%TD*%
D14*
%TO.N,-5V*%
%TO.C,TP105*%
X122000000Y-92125000D03*
%TD*%
D15*
%TO.N,+3.3V*%
%TO.C,J101*%
X156550000Y-103650000D03*
D16*
%TO.N,Earth*%
X153997300Y-101097300D03*
X153997300Y-106202700D03*
X159102700Y-101097300D03*
X159102700Y-106202700D03*
%TD*%
D14*
%TO.N,+5V*%
%TO.C,TP104*%
X122000000Y-82625000D03*
%TD*%
D10*
%TO.N,Earth*%
%TO.C,H4*%
X159175000Y-111875000D03*
X159768109Y-110443109D03*
X159768109Y-113306891D03*
X161200000Y-109850000D03*
D11*
X161200000Y-111875000D03*
D10*
X161200000Y-113900000D03*
X162631891Y-110443109D03*
X162631891Y-113306891D03*
X163225000Y-111875000D03*
%TD*%
%TO.N,Earth*%
%TO.C,H2*%
X123225000Y-111875000D03*
X122631891Y-113306891D03*
X122631891Y-110443109D03*
X121200000Y-113900000D03*
D11*
X121200000Y-111875000D03*
D10*
X121200000Y-109850000D03*
X119768109Y-113306891D03*
X119768109Y-110443109D03*
X119175000Y-111875000D03*
%TD*%
D15*
%TO.N,Earth*%
%TO.C,J102*%
X146052700Y-109000000D03*
D16*
X143500000Y-106447300D03*
X143500000Y-111552700D03*
X148605400Y-106447300D03*
X148605400Y-111552700D03*
%TD*%
D14*
%TO.N,+3.3V*%
%TO.C,TP101*%
X122000000Y-100000000D03*
%TD*%
D15*
%TO.N,-5V*%
%TO.C,J104*%
X156550000Y-91900000D03*
D16*
%TO.N,Earth*%
X153997300Y-89347300D03*
X153997300Y-94452700D03*
X159102700Y-89347300D03*
X159102700Y-94452700D03*
%TD*%
D12*
%TO.N,+3.3V*%
%TO.C,JP101*%
X126460000Y-85250000D03*
D13*
%TO.N,Earth*%
X129000000Y-85250000D03*
%TO.N,Net-(JP101-B)*%
X131540000Y-85250000D03*
%TD*%
D12*
%TO.N,+3.3V*%
%TO.C,J107*%
X129960000Y-110000000D03*
D13*
%TO.N,+5V*%
X132500000Y-110000000D03*
%TO.N,-5V*%
X135040000Y-110000000D03*
%TO.N,Earth*%
X137580000Y-110000000D03*
%TD*%
D10*
%TO.N,Earth*%
%TO.C,H1*%
X119175000Y-71875000D03*
X119768109Y-70443109D03*
X119768109Y-73306891D03*
X121200000Y-69850000D03*
D11*
X121200000Y-71875000D03*
D10*
X121200000Y-73900000D03*
X122631891Y-70443109D03*
X122631891Y-73306891D03*
X123225000Y-71875000D03*
%TD*%
D17*
%TO.N,-5V*%
X138250000Y-95500000D03*
%TO.N,+5V*%
X137650000Y-93000000D03*
%TO.N,Earth*%
X137075000Y-97500000D03*
X135825000Y-97500000D03*
%TO.N,+3.3V*%
X141404611Y-88031227D03*
%TO.N,Earth*%
X142000000Y-85000000D03*
X140750000Y-85000000D03*
%TO.N,+3.3V*%
X144000000Y-89250000D03*
X144473190Y-93970626D03*
X140500000Y-96500000D03*
%TO.N,Earth*%
X142238860Y-88079621D03*
X148000000Y-100250000D03*
X134750000Y-93000000D03*
X138750000Y-96500000D03*
D18*
X137580000Y-111670000D03*
D17*
X140600613Y-88100614D03*
X143250000Y-85000000D03*
X145500000Y-95250000D03*
X139500000Y-96500000D03*
X144500000Y-85000000D03*
D18*
%TO.N,-5V*%
X141150000Y-91900000D03*
X122000000Y-94875000D03*
X156550000Y-94450000D03*
X135040000Y-111710000D03*
X140250000Y-91000000D03*
X142000000Y-91000000D03*
X142000000Y-93000000D03*
X140250000Y-93000000D03*
%TO.N,+5V*%
X132500000Y-111750000D03*
X122000000Y-85375000D03*
X156550000Y-82700000D03*
D17*
%TO.N,Net-(JP101-B)*%
X138000000Y-87750000D03*
%TO.N,Net-(JP102-B)*%
X138000000Y-88699997D03*
%TO.N,Net-(JP103-B)*%
X138000000Y-89500000D03*
%TD*%
M02*
