%TF.GenerationSoftware,KiCad,Pcbnew,7.0.10*%
%TF.CreationDate,2024-04-21T22:28:25-04:00*%
%TF.ProjectId,ltc2666-eval-board,6c746332-3636-4362-9d65-76616c2d626f,1*%
%TF.SameCoordinates,Original*%
%TF.FileFunction,Copper,L3,Inr*%
%TF.FilePolarity,Positive*%
%FSLAX46Y46*%
G04 Gerber Fmt 4.6, Leading zero omitted, Abs format (unit mm)*
G04 Created by KiCad (PCBNEW 7.0.10) date 2024-04-21 22:28:25*
%MOMM*%
%LPD*%
G01*
G04 APERTURE LIST*
%TA.AperFunction,ComponentPad*%
%ADD10C,0.800000*%
%TD*%
%TA.AperFunction,ComponentPad*%
%ADD11C,5.400000*%
%TD*%
%TA.AperFunction,ComponentPad*%
%ADD12R,1.700000X1.700000*%
%TD*%
%TA.AperFunction,ComponentPad*%
%ADD13O,1.700000X1.700000*%
%TD*%
%TA.AperFunction,ComponentPad*%
%ADD14C,2.400000*%
%TD*%
%TA.AperFunction,ComponentPad*%
%ADD15C,2.006600*%
%TD*%
%TA.AperFunction,ComponentPad*%
%ADD16C,1.905000*%
%TD*%
%TA.AperFunction,ViaPad*%
%ADD17C,0.600000*%
%TD*%
%TA.AperFunction,ViaPad*%
%ADD18C,0.800000*%
%TD*%
G04 APERTURE END LIST*
D10*
%TO.N,Earth*%
%TO.C,H3*%
X159175000Y-71875000D03*
X159768109Y-70443109D03*
X159768109Y-73306891D03*
X161200000Y-69850000D03*
D11*
X161200000Y-71875000D03*
D10*
X161200000Y-73900000D03*
X162631891Y-70443109D03*
X162631891Y-73306891D03*
X163225000Y-71875000D03*
%TD*%
D12*
%TO.N,+3.3V*%
%TO.C,JP103*%
X126460000Y-95250000D03*
D13*
%TO.N,Earth*%
X129000000Y-95250000D03*
%TO.N,Net-(JP103-B)*%
X131540000Y-95250000D03*
%TD*%
D12*
%TO.N,/DAC_CHANNEL_3*%
%TO.C,J106*%
X129670000Y-75000000D03*
D13*
%TO.N,/DAC_CHANNEL_2*%
X132210000Y-75000000D03*
%TO.N,/DAC_CHANNEL_1*%
X134750000Y-75000000D03*
%TO.N,/DAC_CHANNEL_0*%
X137290000Y-75000000D03*
%TO.N,/DAC_CHANNEL_7*%
X139830000Y-75000000D03*
%TO.N,/DAC_CHANNEL_6*%
X142370000Y-75000000D03*
%TO.N,/DAC_CHANNEL_5*%
X144910000Y-75000000D03*
%TO.N,/DAC_CHANNEL_4*%
X147450000Y-75000000D03*
%TD*%
D14*
%TO.N,Earth*%
%TO.C,TP102*%
X130500000Y-100000000D03*
%TD*%
D12*
%TO.N,/DAC_CS*%
%TO.C,J105*%
X129950000Y-105250000D03*
D13*
%TO.N,/DAC_SCK*%
X132490000Y-105250000D03*
%TO.N,/DAC_MISO*%
X135030000Y-105250000D03*
%TO.N,/DAC_MOSI*%
X137570000Y-105250000D03*
%TD*%
D12*
%TO.N,+3.3V*%
%TO.C,JP102*%
X126460000Y-90250000D03*
D13*
%TO.N,Earth*%
X129000000Y-90250000D03*
%TO.N,Net-(JP102-B)*%
X131540000Y-90250000D03*
%TD*%
D15*
%TO.N,+5V*%
%TO.C,J103*%
X156550000Y-80150000D03*
D16*
%TO.N,Earth*%
X153997300Y-77597300D03*
X153997300Y-82702700D03*
X159102700Y-77597300D03*
X159102700Y-82702700D03*
%TD*%
D14*
%TO.N,-5V*%
%TO.C,TP105*%
X122000000Y-92125000D03*
%TD*%
D15*
%TO.N,+3.3V*%
%TO.C,J101*%
X156550000Y-103650000D03*
D16*
%TO.N,Earth*%
X153997300Y-101097300D03*
X153997300Y-106202700D03*
X159102700Y-101097300D03*
X159102700Y-106202700D03*
%TD*%
D14*
%TO.N,+5V*%
%TO.C,TP104*%
X122000000Y-82625000D03*
%TD*%
D10*
%TO.N,Earth*%
%TO.C,H4*%
X159175000Y-111875000D03*
X159768109Y-110443109D03*
X159768109Y-113306891D03*
X161200000Y-109850000D03*
D11*
X161200000Y-111875000D03*
D10*
X161200000Y-113900000D03*
X162631891Y-110443109D03*
X162631891Y-113306891D03*
X163225000Y-111875000D03*
%TD*%
%TO.N,Earth*%
%TO.C,H2*%
X123225000Y-111875000D03*
X122631891Y-113306891D03*
X122631891Y-110443109D03*
X121200000Y-113900000D03*
D11*
X121200000Y-111875000D03*
D10*
X121200000Y-109850000D03*
X119768109Y-113306891D03*
X119768109Y-110443109D03*
X119175000Y-111875000D03*
%TD*%
D15*
%TO.N,Earth*%
%TO.C,J102*%
X146052700Y-109000000D03*
D16*
X143500000Y-106447300D03*
X143500000Y-111552700D03*
X148605400Y-106447300D03*
X148605400Y-111552700D03*
%TD*%
D14*
%TO.N,+3.3V*%
%TO.C,TP101*%
X122000000Y-100000000D03*
%TD*%
D15*
%TO.N,-5V*%
%TO.C,J104*%
X156550000Y-91900000D03*
D16*
%TO.N,Earth*%
X153997300Y-89347300D03*
X153997300Y-94452700D03*
X159102700Y-89347300D03*
X159102700Y-94452700D03*
%TD*%
D12*
%TO.N,+3.3V*%
%TO.C,JP101*%
X126460000Y-85250000D03*
D13*
%TO.N,Earth*%
X129000000Y-85250000D03*
%TO.N,Net-(JP101-B)*%
X131540000Y-85250000D03*
%TD*%
D12*
%TO.N,+3.3V*%
%TO.C,J107*%
X129960000Y-110000000D03*
D13*
%TO.N,+5V*%
X132500000Y-110000000D03*
%TO.N,-5V*%
X135040000Y-110000000D03*
%TO.N,Earth*%
X137580000Y-110000000D03*
%TD*%
D10*
%TO.N,Earth*%
%TO.C,H1*%
X119175000Y-71875000D03*
X119768109Y-70443109D03*
X119768109Y-73306891D03*
X121200000Y-69850000D03*
D11*
X121200000Y-71875000D03*
D10*
X121200000Y-73900000D03*
X122631891Y-70443109D03*
X122631891Y-73306891D03*
X123225000Y-71875000D03*
%TD*%
D17*
%TO.N,-5V*%
X138250000Y-95500000D03*
%TO.N,+5V*%
X137650000Y-93000000D03*
%TO.N,Earth*%
X137075000Y-97500000D03*
X135825000Y-97500000D03*
%TO.N,+3.3V*%
X141404611Y-88031227D03*
%TO.N,Earth*%
X142000000Y-85000000D03*
X140750000Y-85000000D03*
%TO.N,+3.3V*%
X144000000Y-89250000D03*
X144473190Y-93970626D03*
X140500000Y-96500000D03*
%TO.N,Earth*%
X142238860Y-88079621D03*
X148000000Y-100250000D03*
X134750000Y-93000000D03*
X138750000Y-96500000D03*
D18*
X137580000Y-111670000D03*
D17*
X140600613Y-88100614D03*
X143250000Y-85000000D03*
X145500000Y-95250000D03*
X139500000Y-96500000D03*
X144500000Y-85000000D03*
D18*
%TO.N,-5V*%
X141150000Y-91900000D03*
X122000000Y-94875000D03*
X156550000Y-94450000D03*
X135040000Y-111710000D03*
X140250000Y-91000000D03*
X142000000Y-91000000D03*
X142000000Y-93000000D03*
X140250000Y-93000000D03*
%TO.N,+5V*%
X132500000Y-111750000D03*
X122000000Y-85375000D03*
X156550000Y-82700000D03*
D17*
%TO.N,Net-(JP101-B)*%
X138000000Y-87750000D03*
%TO.N,Net-(JP102-B)*%
X138000000Y-88699997D03*
%TO.N,Net-(JP103-B)*%
X138000000Y-89500000D03*
%TD*%
%TA.AperFunction,Conductor*%
%TO.N,+5V*%
G36*
X166142539Y-66895185D02*
G01*
X166188294Y-66947989D01*
X166199500Y-66999500D01*
X166199500Y-116750500D01*
X166179815Y-116817539D01*
X166127011Y-116863294D01*
X166075500Y-116874500D01*
X116324500Y-116874500D01*
X116257461Y-116854815D01*
X116211706Y-116802011D01*
X116200500Y-116750500D01*
X116200500Y-111875000D01*
X117994457Y-111875000D01*
X118014612Y-112233902D01*
X118014614Y-112233914D01*
X118074826Y-112588296D01*
X118074828Y-112588305D01*
X118128115Y-112773270D01*
X118174341Y-112933724D01*
X118311906Y-113265833D01*
X118485789Y-113580452D01*
X118693806Y-113873623D01*
X118933339Y-114141661D01*
X119201377Y-114381194D01*
X119494548Y-114589211D01*
X119809167Y-114763094D01*
X120141276Y-114900659D01*
X120486700Y-115000173D01*
X120841093Y-115060387D01*
X121200000Y-115080543D01*
X121558907Y-115060387D01*
X121913300Y-115000173D01*
X122258724Y-114900659D01*
X122590833Y-114763094D01*
X122905452Y-114589211D01*
X123198623Y-114381194D01*
X123466661Y-114141661D01*
X123706194Y-113873623D01*
X123914211Y-113580452D01*
X124088094Y-113265833D01*
X124225659Y-112933724D01*
X124325173Y-112588300D01*
X124385387Y-112233907D01*
X124405543Y-111875000D01*
X124385387Y-111516093D01*
X124325173Y-111161700D01*
X124249166Y-110897870D01*
X128609500Y-110897870D01*
X128609501Y-110897876D01*
X128615908Y-110957483D01*
X128666202Y-111092328D01*
X128666206Y-111092335D01*
X128752452Y-111207544D01*
X128752455Y-111207547D01*
X128867664Y-111293793D01*
X128867671Y-111293797D01*
X129002517Y-111344091D01*
X129002516Y-111344091D01*
X129009444Y-111344835D01*
X129062127Y-111350500D01*
X130857872Y-111350499D01*
X130917483Y-111344091D01*
X131052331Y-111293796D01*
X131167546Y-111207546D01*
X131253796Y-111092331D01*
X131304091Y-110957483D01*
X131310500Y-110897873D01*
X131310499Y-110000000D01*
X133684341Y-110000000D01*
X133704936Y-110235403D01*
X133704938Y-110235413D01*
X133766094Y-110463655D01*
X133766096Y-110463659D01*
X133766097Y-110463663D01*
X133786982Y-110508450D01*
X133865965Y-110677830D01*
X133865967Y-110677834D01*
X133974281Y-110832521D01*
X134001501Y-110871396D01*
X134001506Y-110871402D01*
X134168598Y-111038494D01*
X134231681Y-111082666D01*
X134275306Y-111137243D01*
X134282498Y-111206741D01*
X134267944Y-111246240D01*
X134212821Y-111341715D01*
X134212818Y-111341722D01*
X134156162Y-111516093D01*
X134154326Y-111521744D01*
X134134540Y-111710000D01*
X134154326Y-111898256D01*
X134154327Y-111898259D01*
X134212818Y-112078277D01*
X134212821Y-112078284D01*
X134307467Y-112242216D01*
X134398113Y-112342888D01*
X134434129Y-112382888D01*
X134587265Y-112494148D01*
X134587270Y-112494151D01*
X134760192Y-112571142D01*
X134760197Y-112571144D01*
X134945354Y-112610500D01*
X134945355Y-112610500D01*
X135134644Y-112610500D01*
X135134646Y-112610500D01*
X135319803Y-112571144D01*
X135492730Y-112494151D01*
X135645871Y-112382888D01*
X135772533Y-112242216D01*
X135867179Y-112078284D01*
X135925674Y-111898256D01*
X135945460Y-111710000D01*
X135925674Y-111521744D01*
X135867179Y-111341716D01*
X135812055Y-111246238D01*
X135795583Y-111178338D01*
X135818436Y-111112311D01*
X135848317Y-111082666D01*
X135911401Y-111038495D01*
X136078495Y-110871401D01*
X136208425Y-110685842D01*
X136263002Y-110642217D01*
X136332500Y-110635023D01*
X136394855Y-110666546D01*
X136411575Y-110685842D01*
X136541501Y-110871396D01*
X136541506Y-110871402D01*
X136708598Y-111038494D01*
X136755235Y-111071150D01*
X136798860Y-111125727D01*
X136806052Y-111195225D01*
X136791499Y-111234723D01*
X136752820Y-111301718D01*
X136752818Y-111301722D01*
X136694327Y-111481740D01*
X136694326Y-111481744D01*
X136674540Y-111670000D01*
X136694326Y-111858256D01*
X136694327Y-111858259D01*
X136752818Y-112038277D01*
X136752821Y-112038284D01*
X136847467Y-112202216D01*
X136974129Y-112342888D01*
X137127265Y-112454148D01*
X137127270Y-112454151D01*
X137300192Y-112531142D01*
X137300197Y-112531144D01*
X137485354Y-112570500D01*
X137485355Y-112570500D01*
X137674644Y-112570500D01*
X137674646Y-112570500D01*
X137859803Y-112531144D01*
X138032730Y-112454151D01*
X138185871Y-112342888D01*
X138312533Y-112202216D01*
X138407179Y-112038284D01*
X138465674Y-111858256D01*
X138485460Y-111670000D01*
X138473132Y-111552705D01*
X142042020Y-111552705D01*
X142061904Y-111792672D01*
X142121017Y-112026105D01*
X142212167Y-112233907D01*
X142217745Y-112246622D01*
X142349449Y-112448210D01*
X142512537Y-112625371D01*
X142702561Y-112773272D01*
X142914336Y-112887879D01*
X143032598Y-112928478D01*
X143142083Y-112966065D01*
X143142085Y-112966065D01*
X143142087Y-112966066D01*
X143379601Y-113005700D01*
X143379602Y-113005700D01*
X143620398Y-113005700D01*
X143620399Y-113005700D01*
X143857913Y-112966066D01*
X144085664Y-112887879D01*
X144297439Y-112773272D01*
X144487463Y-112625371D01*
X144650551Y-112448210D01*
X144782255Y-112246622D01*
X144878983Y-112026105D01*
X144938095Y-111792676D01*
X144957980Y-111552705D01*
X147147420Y-111552705D01*
X147167304Y-111792672D01*
X147226417Y-112026105D01*
X147317567Y-112233907D01*
X147323145Y-112246622D01*
X147454849Y-112448210D01*
X147617937Y-112625371D01*
X147807961Y-112773272D01*
X148019736Y-112887879D01*
X148137998Y-112928478D01*
X148247483Y-112966065D01*
X148247485Y-112966065D01*
X148247487Y-112966066D01*
X148485001Y-113005700D01*
X148485002Y-113005700D01*
X148725798Y-113005700D01*
X148725799Y-113005700D01*
X148963313Y-112966066D01*
X149191064Y-112887879D01*
X149402839Y-112773272D01*
X149592863Y-112625371D01*
X149755951Y-112448210D01*
X149887655Y-112246622D01*
X149984383Y-112026105D01*
X150022648Y-111875000D01*
X157994457Y-111875000D01*
X158014612Y-112233902D01*
X158014614Y-112233914D01*
X158074826Y-112588296D01*
X158074828Y-112588305D01*
X158128115Y-112773270D01*
X158174341Y-112933724D01*
X158311906Y-113265833D01*
X158485789Y-113580452D01*
X158693806Y-113873623D01*
X158933339Y-114141661D01*
X159201377Y-114381194D01*
X159494548Y-114589211D01*
X159809167Y-114763094D01*
X160141276Y-114900659D01*
X160486700Y-115000173D01*
X160841093Y-115060387D01*
X161200000Y-115080543D01*
X161558907Y-115060387D01*
X161913300Y-115000173D01*
X162258724Y-114900659D01*
X162590833Y-114763094D01*
X162905452Y-114589211D01*
X163198623Y-114381194D01*
X163466661Y-114141661D01*
X163706194Y-113873623D01*
X163914211Y-113580452D01*
X164088094Y-113265833D01*
X164225659Y-112933724D01*
X164325173Y-112588300D01*
X164385387Y-112233907D01*
X164405543Y-111875000D01*
X164385387Y-111516093D01*
X164325173Y-111161700D01*
X164225659Y-110816276D01*
X164088094Y-110484167D01*
X163914211Y-110169548D01*
X163706194Y-109876377D01*
X163466661Y-109608339D01*
X163198623Y-109368806D01*
X163183088Y-109357783D01*
X162905454Y-109160790D01*
X162590831Y-108986905D01*
X162399527Y-108907664D01*
X162258724Y-108849341D01*
X162258720Y-108849339D01*
X162258718Y-108849339D01*
X161913305Y-108749828D01*
X161913296Y-108749826D01*
X161558914Y-108689614D01*
X161558902Y-108689612D01*
X161200000Y-108669457D01*
X160841097Y-108689612D01*
X160841085Y-108689614D01*
X160486703Y-108749826D01*
X160486694Y-108749828D01*
X160141281Y-108849339D01*
X159809168Y-108986905D01*
X159494545Y-109160790D01*
X159201377Y-109368805D01*
X158933339Y-109608339D01*
X158693805Y-109876377D01*
X158485790Y-110169545D01*
X158311905Y-110484168D01*
X158174339Y-110816281D01*
X158074828Y-111161694D01*
X158074826Y-111161703D01*
X158014614Y-111516085D01*
X158014612Y-111516097D01*
X157994457Y-111875000D01*
X150022648Y-111875000D01*
X150043495Y-111792676D01*
X150063380Y-111552700D01*
X150057500Y-111481744D01*
X150045898Y-111341722D01*
X150043495Y-111312724D01*
X149984383Y-111079295D01*
X149887655Y-110858778D01*
X149755951Y-110657190D01*
X149592863Y-110480029D01*
X149458758Y-110375651D01*
X149402841Y-110332129D01*
X149191065Y-110217521D01*
X149191056Y-110217518D01*
X148963316Y-110139334D01*
X148785177Y-110109608D01*
X148725799Y-110099700D01*
X148485001Y-110099700D01*
X148437498Y-110107626D01*
X148247483Y-110139334D01*
X148019743Y-110217518D01*
X148019734Y-110217521D01*
X147807958Y-110332129D01*
X147676277Y-110434621D01*
X147617937Y-110480029D01*
X147617934Y-110480031D01*
X147617934Y-110480032D01*
X147454849Y-110657190D01*
X147323143Y-110858781D01*
X147226417Y-111079294D01*
X147167304Y-111312727D01*
X147147420Y-111552694D01*
X147147420Y-111552705D01*
X144957980Y-111552705D01*
X144957980Y-111552700D01*
X144952100Y-111481744D01*
X144940498Y-111341722D01*
X144938095Y-111312724D01*
X144878983Y-111079295D01*
X144782255Y-110858778D01*
X144650551Y-110657190D01*
X144487463Y-110480029D01*
X144353358Y-110375651D01*
X144297441Y-110332129D01*
X144085665Y-110217521D01*
X144085656Y-110217518D01*
X143857916Y-110139334D01*
X143679777Y-110109608D01*
X143620399Y-110099700D01*
X143379601Y-110099700D01*
X143332098Y-110107626D01*
X143142083Y-110139334D01*
X142914343Y-110217518D01*
X142914334Y-110217521D01*
X142702558Y-110332129D01*
X142570877Y-110434621D01*
X142512537Y-110480029D01*
X142512534Y-110480031D01*
X142512534Y-110480032D01*
X142349449Y-110657190D01*
X142217743Y-110858781D01*
X142121017Y-111079294D01*
X142061904Y-111312727D01*
X142042020Y-111552694D01*
X142042020Y-111552705D01*
X138473132Y-111552705D01*
X138465674Y-111481744D01*
X138407179Y-111301716D01*
X138368500Y-111234723D01*
X138352028Y-111166824D01*
X138374881Y-111100797D01*
X138404762Y-111071151D01*
X138451401Y-111038495D01*
X138618495Y-110871401D01*
X138754035Y-110677830D01*
X138853903Y-110463663D01*
X138915063Y-110235408D01*
X138935659Y-110000000D01*
X138915063Y-109764592D01*
X138853903Y-109536337D01*
X138754035Y-109322171D01*
X138748425Y-109314158D01*
X138618494Y-109128597D01*
X138489896Y-109000000D01*
X144544250Y-109000000D01*
X144562822Y-109235977D01*
X144618078Y-109466136D01*
X144708660Y-109684822D01*
X144832334Y-109886640D01*
X144832335Y-109886641D01*
X144832336Y-109886643D01*
X144832338Y-109886645D01*
X144986065Y-110066635D01*
X145166055Y-110220362D01*
X145166057Y-110220363D01*
X145166058Y-110220364D01*
X145166059Y-110220365D01*
X145367877Y-110344039D01*
X145586563Y-110434621D01*
X145816726Y-110489878D01*
X146052700Y-110508450D01*
X146288674Y-110489878D01*
X146518837Y-110434621D01*
X146737522Y-110344039D01*
X146939345Y-110220362D01*
X147119335Y-110066635D01*
X147273062Y-109886645D01*
X147396739Y-109684822D01*
X147487321Y-109466137D01*
X147542578Y-109235974D01*
X147561150Y-109000000D01*
X147542578Y-108764026D01*
X147487321Y-108533863D01*
X147396739Y-108315178D01*
X147396739Y-108315177D01*
X147273065Y-108113359D01*
X147273064Y-108113358D01*
X147273063Y-108113357D01*
X147273062Y-108113355D01*
X147119335Y-107933365D01*
X146939345Y-107779638D01*
X146939343Y-107779636D01*
X146939341Y-107779635D01*
X146939340Y-107779634D01*
X146737522Y-107655960D01*
X146518836Y-107565378D01*
X146288677Y-107510122D01*
X146052700Y-107491550D01*
X145816722Y-107510122D01*
X145586563Y-107565378D01*
X145367877Y-107655960D01*
X145166059Y-107779634D01*
X145166058Y-107779635D01*
X144986065Y-107933365D01*
X144832335Y-108113358D01*
X144832334Y-108113359D01*
X144708660Y-108315177D01*
X144618078Y-108533863D01*
X144562822Y-108764022D01*
X144544250Y-109000000D01*
X138489896Y-109000000D01*
X138451402Y-108961506D01*
X138451395Y-108961501D01*
X138257834Y-108825967D01*
X138257830Y-108825965D01*
X138257828Y-108825964D01*
X138043663Y-108726097D01*
X138043659Y-108726096D01*
X138043655Y-108726094D01*
X137815413Y-108664938D01*
X137815403Y-108664936D01*
X137580001Y-108644341D01*
X137579999Y-108644341D01*
X137344596Y-108664936D01*
X137344586Y-108664938D01*
X137116344Y-108726094D01*
X137116335Y-108726098D01*
X136902171Y-108825964D01*
X136902169Y-108825965D01*
X136708597Y-108961505D01*
X136541505Y-109128597D01*
X136411575Y-109314158D01*
X136356998Y-109357783D01*
X136287500Y-109364977D01*
X136225145Y-109333454D01*
X136208425Y-109314158D01*
X136078494Y-109128597D01*
X135911402Y-108961506D01*
X135911395Y-108961501D01*
X135717834Y-108825967D01*
X135717830Y-108825965D01*
X135717828Y-108825964D01*
X135503663Y-108726097D01*
X135503659Y-108726096D01*
X135503655Y-108726094D01*
X135275413Y-108664938D01*
X135275403Y-108664936D01*
X135040001Y-108644341D01*
X135039999Y-108644341D01*
X134804596Y-108664936D01*
X134804586Y-108664938D01*
X134576344Y-108726094D01*
X134576335Y-108726098D01*
X134362171Y-108825964D01*
X134362169Y-108825965D01*
X134168597Y-108961505D01*
X134001505Y-109128597D01*
X133865965Y-109322169D01*
X133865964Y-109322171D01*
X133766098Y-109536335D01*
X133766094Y-109536344D01*
X133704938Y-109764586D01*
X133704936Y-109764596D01*
X133684341Y-109999999D01*
X133684341Y-110000000D01*
X131310499Y-110000000D01*
X131310499Y-109102128D01*
X131304091Y-109042517D01*
X131288233Y-109000000D01*
X131253797Y-108907671D01*
X131253793Y-108907664D01*
X131167547Y-108792455D01*
X131167544Y-108792452D01*
X131052335Y-108706206D01*
X131052328Y-108706202D01*
X130917482Y-108655908D01*
X130917483Y-108655908D01*
X130857883Y-108649501D01*
X130857881Y-108649500D01*
X130857873Y-108649500D01*
X130857864Y-108649500D01*
X129062129Y-108649500D01*
X129062123Y-108649501D01*
X129002516Y-108655908D01*
X128867671Y-108706202D01*
X128867664Y-108706206D01*
X128752455Y-108792452D01*
X128752452Y-108792455D01*
X128666206Y-108907664D01*
X128666202Y-108907671D01*
X128615908Y-109042517D01*
X128609501Y-109102116D01*
X128609501Y-109102123D01*
X128609500Y-109102135D01*
X128609500Y-110897870D01*
X124249166Y-110897870D01*
X124225659Y-110816276D01*
X124088094Y-110484167D01*
X123914211Y-110169548D01*
X123706194Y-109876377D01*
X123466661Y-109608339D01*
X123198623Y-109368806D01*
X123183088Y-109357783D01*
X122905454Y-109160790D01*
X122590831Y-108986905D01*
X122399527Y-108907664D01*
X122258724Y-108849341D01*
X122258720Y-108849339D01*
X122258718Y-108849339D01*
X121913305Y-108749828D01*
X121913296Y-108749826D01*
X121558914Y-108689614D01*
X121558902Y-108689612D01*
X121200000Y-108669457D01*
X120841097Y-108689612D01*
X120841085Y-108689614D01*
X120486703Y-108749826D01*
X120486694Y-108749828D01*
X120141281Y-108849339D01*
X119809168Y-108986905D01*
X119494545Y-109160790D01*
X119201377Y-109368805D01*
X118933339Y-109608339D01*
X118693805Y-109876377D01*
X118485790Y-110169545D01*
X118311905Y-110484168D01*
X118174339Y-110816281D01*
X118074828Y-111161694D01*
X118074826Y-111161703D01*
X118014614Y-111516085D01*
X118014612Y-111516097D01*
X117994457Y-111875000D01*
X116200500Y-111875000D01*
X116200500Y-106147870D01*
X128599500Y-106147870D01*
X128599501Y-106147876D01*
X128605908Y-106207483D01*
X128656202Y-106342328D01*
X128656206Y-106342335D01*
X128742452Y-106457544D01*
X128742455Y-106457547D01*
X128857664Y-106543793D01*
X128857671Y-106543797D01*
X128992517Y-106594091D01*
X128992516Y-106594091D01*
X128999444Y-106594835D01*
X129052127Y-106600500D01*
X130847872Y-106600499D01*
X130907483Y-106594091D01*
X131042331Y-106543796D01*
X131157546Y-106457546D01*
X131243796Y-106342331D01*
X131292810Y-106210916D01*
X131334681Y-106154984D01*
X131400145Y-106130566D01*
X131468418Y-106145417D01*
X131496673Y-106166569D01*
X131618599Y-106288495D01*
X131715384Y-106356265D01*
X131812165Y-106424032D01*
X131812167Y-106424033D01*
X131812170Y-106424035D01*
X132026337Y-106523903D01*
X132254592Y-106585063D01*
X132431034Y-106600500D01*
X132489999Y-106605659D01*
X132490000Y-106605659D01*
X132490001Y-106605659D01*
X132548966Y-106600500D01*
X132725408Y-106585063D01*
X132953663Y-106523903D01*
X133167830Y-106424035D01*
X133361401Y-106288495D01*
X133528495Y-106121401D01*
X133658425Y-105935842D01*
X133713002Y-105892217D01*
X133782500Y-105885023D01*
X133844855Y-105916546D01*
X133861575Y-105935842D01*
X133991500Y-106121395D01*
X133991505Y-106121401D01*
X134158599Y-106288495D01*
X134255384Y-106356265D01*
X134352165Y-106424032D01*
X134352167Y-106424033D01*
X134352170Y-106424035D01*
X134566337Y-106523903D01*
X134794592Y-106585063D01*
X134971034Y-106600500D01*
X135029999Y-106605659D01*
X135030000Y-106605659D01*
X135030001Y-106605659D01*
X135088966Y-106600500D01*
X135265408Y-106585063D01*
X135493663Y-106523903D01*
X135707830Y-106424035D01*
X135901401Y-106288495D01*
X136068495Y-106121401D01*
X136198425Y-105935842D01*
X136253002Y-105892217D01*
X136322500Y-105885023D01*
X136384855Y-105916546D01*
X136401575Y-105935842D01*
X136531500Y-106121395D01*
X136531505Y-106121401D01*
X136698599Y-106288495D01*
X136795384Y-106356265D01*
X136892165Y-106424032D01*
X136892167Y-106424033D01*
X136892170Y-106424035D01*
X137106337Y-106523903D01*
X137334592Y-106585063D01*
X137511034Y-106600500D01*
X137569999Y-106605659D01*
X137570000Y-106605659D01*
X137570001Y-106605659D01*
X137628966Y-106600500D01*
X137805408Y-106585063D01*
X138033663Y-106523903D01*
X138197927Y-106447305D01*
X142042020Y-106447305D01*
X142061904Y-106687272D01*
X142121017Y-106920705D01*
X142198877Y-107098209D01*
X142217745Y-107141222D01*
X142349449Y-107342810D01*
X142512537Y-107519971D01*
X142668908Y-107641679D01*
X142687257Y-107655961D01*
X142702561Y-107667872D01*
X142914336Y-107782479D01*
X143032598Y-107823078D01*
X143142083Y-107860665D01*
X143142085Y-107860665D01*
X143142087Y-107860666D01*
X143379601Y-107900300D01*
X143379602Y-107900300D01*
X143620398Y-107900300D01*
X143620399Y-107900300D01*
X143857913Y-107860666D01*
X144085664Y-107782479D01*
X144297439Y-107667872D01*
X144487463Y-107519971D01*
X144650551Y-107342810D01*
X144782255Y-107141222D01*
X144878983Y-106920705D01*
X144938095Y-106687276D01*
X144951632Y-106523905D01*
X144957980Y-106447305D01*
X147147420Y-106447305D01*
X147167304Y-106687272D01*
X147226417Y-106920705D01*
X147304277Y-107098209D01*
X147323145Y-107141222D01*
X147454849Y-107342810D01*
X147617937Y-107519971D01*
X147774308Y-107641679D01*
X147792657Y-107655961D01*
X147807961Y-107667872D01*
X148019736Y-107782479D01*
X148137998Y-107823078D01*
X148247483Y-107860665D01*
X148247485Y-107860665D01*
X148247487Y-107860666D01*
X148485001Y-107900300D01*
X148485002Y-107900300D01*
X148725798Y-107900300D01*
X148725799Y-107900300D01*
X148963313Y-107860666D01*
X149191064Y-107782479D01*
X149402839Y-107667872D01*
X149592863Y-107519971D01*
X149755951Y-107342810D01*
X149887655Y-107141222D01*
X149984383Y-106920705D01*
X150043495Y-106687276D01*
X150057032Y-106523905D01*
X150063380Y-106447305D01*
X150063380Y-106447294D01*
X150050123Y-106287316D01*
X150043495Y-106207324D01*
X150042325Y-106202705D01*
X152539320Y-106202705D01*
X152559204Y-106442672D01*
X152559204Y-106442675D01*
X152559205Y-106442676D01*
X152618317Y-106676105D01*
X152715045Y-106896622D01*
X152846749Y-107098210D01*
X153009837Y-107275371D01*
X153199861Y-107423272D01*
X153411636Y-107537879D01*
X153491738Y-107565378D01*
X153639383Y-107616065D01*
X153639385Y-107616065D01*
X153639387Y-107616066D01*
X153876901Y-107655700D01*
X153876902Y-107655700D01*
X154117698Y-107655700D01*
X154117699Y-107655700D01*
X154355213Y-107616066D01*
X154582964Y-107537879D01*
X154794739Y-107423272D01*
X154984763Y-107275371D01*
X155147851Y-107098210D01*
X155279555Y-106896622D01*
X155376283Y-106676105D01*
X155435395Y-106442676D01*
X155448171Y-106288493D01*
X155455280Y-106202705D01*
X157644720Y-106202705D01*
X157664604Y-106442672D01*
X157664604Y-106442675D01*
X157664605Y-106442676D01*
X157723717Y-106676105D01*
X157820445Y-106896622D01*
X157952149Y-107098210D01*
X158115237Y-107275371D01*
X158305261Y-107423272D01*
X158517036Y-107537879D01*
X158597138Y-107565378D01*
X158744783Y-107616065D01*
X158744785Y-107616065D01*
X158744787Y-107616066D01*
X158982301Y-107655700D01*
X158982302Y-107655700D01*
X159223098Y-107655700D01*
X159223099Y-107655700D01*
X159460613Y-107616066D01*
X159688364Y-107537879D01*
X159900139Y-107423272D01*
X160090163Y-107275371D01*
X160253251Y-107098210D01*
X160384955Y-106896622D01*
X160481683Y-106676105D01*
X160540795Y-106442676D01*
X160553571Y-106288493D01*
X160560680Y-106202705D01*
X160560680Y-106202694D01*
X160547423Y-106042716D01*
X160540795Y-105962724D01*
X160481683Y-105729295D01*
X160384955Y-105508778D01*
X160253251Y-105307190D01*
X160090163Y-105130029D01*
X159915778Y-104994300D01*
X159900141Y-104982129D01*
X159688365Y-104867521D01*
X159688356Y-104867518D01*
X159460616Y-104789334D01*
X159282477Y-104759608D01*
X159223099Y-104749700D01*
X158982301Y-104749700D01*
X158934798Y-104757626D01*
X158744783Y-104789334D01*
X158517043Y-104867518D01*
X158517034Y-104867521D01*
X158305258Y-104982129D01*
X158238700Y-105033934D01*
X158115237Y-105130029D01*
X158115234Y-105130031D01*
X158115234Y-105130032D01*
X157952149Y-105307190D01*
X157820443Y-105508781D01*
X157723717Y-105729294D01*
X157664604Y-105962727D01*
X157644720Y-106202694D01*
X157644720Y-106202705D01*
X155455280Y-106202705D01*
X155455280Y-106202694D01*
X155442023Y-106042716D01*
X155435395Y-105962724D01*
X155376283Y-105729295D01*
X155279555Y-105508778D01*
X155147851Y-105307190D01*
X154984763Y-105130029D01*
X154810378Y-104994300D01*
X154794741Y-104982129D01*
X154582965Y-104867521D01*
X154582956Y-104867518D01*
X154355216Y-104789334D01*
X154177077Y-104759608D01*
X154117699Y-104749700D01*
X153876901Y-104749700D01*
X153829398Y-104757626D01*
X153639383Y-104789334D01*
X153411643Y-104867518D01*
X153411634Y-104867521D01*
X153199858Y-104982129D01*
X153133300Y-105033934D01*
X153009837Y-105130029D01*
X153009834Y-105130031D01*
X153009834Y-105130032D01*
X152846749Y-105307190D01*
X152715043Y-105508781D01*
X152618317Y-105729294D01*
X152559204Y-105962727D01*
X152539320Y-106202694D01*
X152539320Y-106202705D01*
X150042325Y-106202705D01*
X149984383Y-105973895D01*
X149887655Y-105753378D01*
X149755951Y-105551790D01*
X149592863Y-105374629D01*
X149432738Y-105249999D01*
X149402841Y-105226729D01*
X149191065Y-105112121D01*
X149191056Y-105112118D01*
X148963316Y-105033934D01*
X148785177Y-105004208D01*
X148725799Y-104994300D01*
X148485001Y-104994300D01*
X148437498Y-105002226D01*
X148247483Y-105033934D01*
X148019743Y-105112118D01*
X148019734Y-105112121D01*
X147807958Y-105226729D01*
X147704583Y-105307190D01*
X147617937Y-105374629D01*
X147617934Y-105374631D01*
X147617934Y-105374632D01*
X147454849Y-105551790D01*
X147323143Y-105753381D01*
X147226417Y-105973894D01*
X147167304Y-106207327D01*
X147147420Y-106447294D01*
X147147420Y-106447305D01*
X144957980Y-106447305D01*
X144957980Y-106447294D01*
X144944723Y-106287316D01*
X144938095Y-106207324D01*
X144878983Y-105973895D01*
X144782255Y-105753378D01*
X144650551Y-105551790D01*
X144487463Y-105374629D01*
X144327338Y-105249999D01*
X144297441Y-105226729D01*
X144085665Y-105112121D01*
X144085656Y-105112118D01*
X143857916Y-105033934D01*
X143679777Y-105004208D01*
X143620399Y-104994300D01*
X143379601Y-104994300D01*
X143332098Y-105002226D01*
X143142083Y-105033934D01*
X142914343Y-105112118D01*
X142914334Y-105112121D01*
X142702558Y-105226729D01*
X142599183Y-105307190D01*
X142512537Y-105374629D01*
X142512534Y-105374631D01*
X142512534Y-105374632D01*
X142349449Y-105551790D01*
X142217743Y-105753381D01*
X142121017Y-105973894D01*
X142061904Y-106207327D01*
X142042020Y-106447294D01*
X142042020Y-106447305D01*
X138197927Y-106447305D01*
X138247830Y-106424035D01*
X138441401Y-106288495D01*
X138608495Y-106121401D01*
X138744035Y-105927830D01*
X138843903Y-105713663D01*
X138905063Y-105485408D01*
X138925659Y-105250000D01*
X138905063Y-105014592D01*
X138843903Y-104786337D01*
X138744035Y-104572171D01*
X138738425Y-104564158D01*
X138608494Y-104378597D01*
X138441402Y-104211506D01*
X138441395Y-104211501D01*
X138247834Y-104075967D01*
X138247830Y-104075965D01*
X138247828Y-104075964D01*
X138033663Y-103976097D01*
X138033659Y-103976096D01*
X138033655Y-103976094D01*
X137805413Y-103914938D01*
X137805403Y-103914936D01*
X137570001Y-103894341D01*
X137569999Y-103894341D01*
X137334596Y-103914936D01*
X137334586Y-103914938D01*
X137106344Y-103976094D01*
X137106335Y-103976098D01*
X136892171Y-104075964D01*
X136892169Y-104075965D01*
X136698597Y-104211505D01*
X136531505Y-104378597D01*
X136401575Y-104564158D01*
X136346998Y-104607783D01*
X136277500Y-104614977D01*
X136215145Y-104583454D01*
X136198425Y-104564158D01*
X136068494Y-104378597D01*
X135901402Y-104211506D01*
X135901395Y-104211501D01*
X135707834Y-104075967D01*
X135707830Y-104075965D01*
X135707828Y-104075964D01*
X135493663Y-103976097D01*
X135493659Y-103976096D01*
X135493655Y-103976094D01*
X135265413Y-103914938D01*
X135265403Y-103914936D01*
X135030001Y-103894341D01*
X135029999Y-103894341D01*
X134794596Y-103914936D01*
X134794586Y-103914938D01*
X134566344Y-103976094D01*
X134566335Y-103976098D01*
X134352171Y-104075964D01*
X134352169Y-104075965D01*
X134158597Y-104211505D01*
X133991505Y-104378597D01*
X133861575Y-104564158D01*
X133806998Y-104607783D01*
X133737500Y-104614977D01*
X133675145Y-104583454D01*
X133658425Y-104564158D01*
X133528494Y-104378597D01*
X133361402Y-104211506D01*
X133361395Y-104211501D01*
X133167834Y-104075967D01*
X133167830Y-104075965D01*
X133167828Y-104075964D01*
X132953663Y-103976097D01*
X132953659Y-103976096D01*
X132953655Y-103976094D01*
X132725413Y-103914938D01*
X132725403Y-103914936D01*
X132490001Y-103894341D01*
X132489999Y-103894341D01*
X132254596Y-103914936D01*
X132254586Y-103914938D01*
X132026344Y-103976094D01*
X132026335Y-103976098D01*
X131812171Y-104075964D01*
X131812169Y-104075965D01*
X131618600Y-104211503D01*
X131496673Y-104333430D01*
X131435350Y-104366914D01*
X131365658Y-104361930D01*
X131309725Y-104320058D01*
X131292810Y-104289081D01*
X131243797Y-104157671D01*
X131243793Y-104157664D01*
X131157547Y-104042455D01*
X131157544Y-104042452D01*
X131042335Y-103956206D01*
X131042328Y-103956202D01*
X130907482Y-103905908D01*
X130907483Y-103905908D01*
X130847883Y-103899501D01*
X130847881Y-103899500D01*
X130847873Y-103899500D01*
X130847864Y-103899500D01*
X129052129Y-103899500D01*
X129052123Y-103899501D01*
X128992516Y-103905908D01*
X128857671Y-103956202D01*
X128857664Y-103956206D01*
X128742455Y-104042452D01*
X128742452Y-104042455D01*
X128656206Y-104157664D01*
X128656202Y-104157671D01*
X128605908Y-104292517D01*
X128599501Y-104352116D01*
X128599500Y-104352135D01*
X128599500Y-106147870D01*
X116200500Y-106147870D01*
X116200500Y-103650000D01*
X155041550Y-103650000D01*
X155060122Y-103885977D01*
X155115378Y-104116136D01*
X155205960Y-104334822D01*
X155329634Y-104536640D01*
X155329635Y-104536641D01*
X155329636Y-104536643D01*
X155329638Y-104536645D01*
X155483365Y-104716635D01*
X155663355Y-104870362D01*
X155663357Y-104870363D01*
X155663358Y-104870364D01*
X155663359Y-104870365D01*
X155865177Y-104994039D01*
X155961493Y-105033934D01*
X156083863Y-105084621D01*
X156314026Y-105139878D01*
X156550000Y-105158450D01*
X156785974Y-105139878D01*
X157016137Y-105084621D01*
X157234822Y-104994039D01*
X157436645Y-104870362D01*
X157616635Y-104716635D01*
X157770362Y-104536645D01*
X157894039Y-104334822D01*
X157984621Y-104116137D01*
X158039878Y-103885974D01*
X158058450Y-103650000D01*
X158039878Y-103414026D01*
X157984621Y-103183863D01*
X157894039Y-102965178D01*
X157894039Y-102965177D01*
X157770365Y-102763359D01*
X157770364Y-102763358D01*
X157770363Y-102763357D01*
X157770362Y-102763355D01*
X157616635Y-102583365D01*
X157436645Y-102429638D01*
X157436643Y-102429636D01*
X157436641Y-102429635D01*
X157436640Y-102429634D01*
X157234822Y-102305960D01*
X157016136Y-102215378D01*
X156785977Y-102160122D01*
X156550000Y-102141550D01*
X156314022Y-102160122D01*
X156083863Y-102215378D01*
X155865177Y-102305960D01*
X155663359Y-102429634D01*
X155663358Y-102429635D01*
X155483365Y-102583365D01*
X155329635Y-102763358D01*
X155329634Y-102763359D01*
X155205960Y-102965177D01*
X155115378Y-103183863D01*
X155060122Y-103414022D01*
X155041550Y-103650000D01*
X116200500Y-103650000D01*
X116200500Y-100000004D01*
X120294732Y-100000004D01*
X120313777Y-100254154D01*
X120353742Y-100429254D01*
X120370492Y-100502637D01*
X120463607Y-100739888D01*
X120591041Y-100960612D01*
X120749950Y-101159877D01*
X120936783Y-101333232D01*
X121147366Y-101476805D01*
X121147371Y-101476807D01*
X121147372Y-101476808D01*
X121147373Y-101476809D01*
X121269328Y-101535538D01*
X121376992Y-101587387D01*
X121376993Y-101587387D01*
X121376996Y-101587389D01*
X121620542Y-101662513D01*
X121872565Y-101700500D01*
X122127435Y-101700500D01*
X122379458Y-101662513D01*
X122623004Y-101587389D01*
X122852634Y-101476805D01*
X123063217Y-101333232D01*
X123250050Y-101159877D01*
X123408959Y-100960612D01*
X123536393Y-100739888D01*
X123629508Y-100502637D01*
X123686222Y-100254157D01*
X123703422Y-100024632D01*
X123705268Y-100000004D01*
X128794732Y-100000004D01*
X128813777Y-100254154D01*
X128853742Y-100429254D01*
X128870492Y-100502637D01*
X128963607Y-100739888D01*
X129091041Y-100960612D01*
X129249950Y-101159877D01*
X129436783Y-101333232D01*
X129647366Y-101476805D01*
X129647371Y-101476807D01*
X129647372Y-101476808D01*
X129647373Y-101476809D01*
X129769328Y-101535538D01*
X129876992Y-101587387D01*
X129876993Y-101587387D01*
X129876996Y-101587389D01*
X130120542Y-101662513D01*
X130372565Y-101700500D01*
X130627435Y-101700500D01*
X130879458Y-101662513D01*
X131123004Y-101587389D01*
X131352634Y-101476805D01*
X131563217Y-101333232D01*
X131750050Y-101159877D01*
X131799950Y-101097305D01*
X152539320Y-101097305D01*
X152559204Y-101337272D01*
X152618317Y-101570705D01*
X152675250Y-101700500D01*
X152715045Y-101791222D01*
X152846749Y-101992810D01*
X153009837Y-102169971D01*
X153166208Y-102291679D01*
X153184557Y-102305961D01*
X153199861Y-102317872D01*
X153411636Y-102432479D01*
X153529898Y-102473078D01*
X153639383Y-102510665D01*
X153639385Y-102510665D01*
X153639387Y-102510666D01*
X153876901Y-102550300D01*
X153876902Y-102550300D01*
X154117698Y-102550300D01*
X154117699Y-102550300D01*
X154355213Y-102510666D01*
X154582964Y-102432479D01*
X154794739Y-102317872D01*
X154984763Y-102169971D01*
X155147851Y-101992810D01*
X155279555Y-101791222D01*
X155376283Y-101570705D01*
X155435395Y-101337276D01*
X155455280Y-101097305D01*
X157644720Y-101097305D01*
X157664604Y-101337272D01*
X157723717Y-101570705D01*
X157780650Y-101700500D01*
X157820445Y-101791222D01*
X157952149Y-101992810D01*
X158115237Y-102169971D01*
X158271608Y-102291679D01*
X158289957Y-102305961D01*
X158305261Y-102317872D01*
X158517036Y-102432479D01*
X158635298Y-102473078D01*
X158744783Y-102510665D01*
X158744785Y-102510665D01*
X158744787Y-102510666D01*
X158982301Y-102550300D01*
X158982302Y-102550300D01*
X159223098Y-102550300D01*
X159223099Y-102550300D01*
X159460613Y-102510666D01*
X159688364Y-102432479D01*
X159900139Y-102317872D01*
X160090163Y-102169971D01*
X160253251Y-101992810D01*
X160384955Y-101791222D01*
X160481683Y-101570705D01*
X160540795Y-101337276D01*
X160560680Y-101097300D01*
X160555548Y-101035369D01*
X160542659Y-100879816D01*
X160540795Y-100857324D01*
X160481683Y-100623895D01*
X160384955Y-100403378D01*
X160253251Y-100201790D01*
X160090163Y-100024629D01*
X159930651Y-99900476D01*
X159900141Y-99876729D01*
X159688365Y-99762121D01*
X159688356Y-99762118D01*
X159460616Y-99683934D01*
X159282477Y-99654208D01*
X159223099Y-99644300D01*
X158982301Y-99644300D01*
X158934798Y-99652226D01*
X158744783Y-99683934D01*
X158517043Y-99762118D01*
X158517034Y-99762121D01*
X158305258Y-99876729D01*
X158171156Y-99981105D01*
X158115237Y-100024629D01*
X158115234Y-100024631D01*
X158115234Y-100024632D01*
X157952149Y-100201790D01*
X157820443Y-100403381D01*
X157723717Y-100623894D01*
X157664604Y-100857327D01*
X157644720Y-101097294D01*
X157644720Y-101097305D01*
X155455280Y-101097305D01*
X155455280Y-101097300D01*
X155450148Y-101035369D01*
X155437259Y-100879816D01*
X155435395Y-100857324D01*
X155376283Y-100623895D01*
X155279555Y-100403378D01*
X155147851Y-100201790D01*
X154984763Y-100024629D01*
X154825251Y-99900476D01*
X154794741Y-99876729D01*
X154582965Y-99762121D01*
X154582956Y-99762118D01*
X154355216Y-99683934D01*
X154177077Y-99654208D01*
X154117699Y-99644300D01*
X153876901Y-99644300D01*
X153829398Y-99652226D01*
X153639383Y-99683934D01*
X153411643Y-99762118D01*
X153411634Y-99762121D01*
X153199858Y-99876729D01*
X153065756Y-99981105D01*
X153009837Y-100024629D01*
X153009834Y-100024631D01*
X153009834Y-100024632D01*
X152846749Y-100201790D01*
X152715043Y-100403381D01*
X152618317Y-100623894D01*
X152559204Y-100857327D01*
X152539320Y-101097294D01*
X152539320Y-101097305D01*
X131799950Y-101097305D01*
X131908959Y-100960612D01*
X132036393Y-100739888D01*
X132129508Y-100502637D01*
X132186222Y-100254157D01*
X132186533Y-100250003D01*
X147194435Y-100250003D01*
X147214630Y-100429249D01*
X147214631Y-100429254D01*
X147274211Y-100599523D01*
X147362409Y-100739888D01*
X147370184Y-100752262D01*
X147497738Y-100879816D01*
X147650478Y-100975789D01*
X147820745Y-101035368D01*
X147820750Y-101035369D01*
X147999996Y-101055565D01*
X148000000Y-101055565D01*
X148000004Y-101055565D01*
X148179249Y-101035369D01*
X148179252Y-101035368D01*
X148179255Y-101035368D01*
X148349522Y-100975789D01*
X148502262Y-100879816D01*
X148629816Y-100752262D01*
X148725789Y-100599522D01*
X148785368Y-100429255D01*
X148785369Y-100429249D01*
X148805565Y-100250003D01*
X148805565Y-100249996D01*
X148785369Y-100070750D01*
X148785368Y-100070745D01*
X148760613Y-100000000D01*
X148725789Y-99900478D01*
X148710866Y-99876729D01*
X148638853Y-99762121D01*
X148629816Y-99747738D01*
X148502262Y-99620184D01*
X148349523Y-99524211D01*
X148179254Y-99464631D01*
X148179249Y-99464630D01*
X148000004Y-99444435D01*
X147999996Y-99444435D01*
X147820750Y-99464630D01*
X147820745Y-99464631D01*
X147650476Y-99524211D01*
X147497737Y-99620184D01*
X147370184Y-99747737D01*
X147274211Y-99900476D01*
X147214631Y-100070745D01*
X147214630Y-100070750D01*
X147194435Y-100249996D01*
X147194435Y-100250003D01*
X132186533Y-100250003D01*
X132203422Y-100024632D01*
X132205268Y-100000004D01*
X132205268Y-99999995D01*
X132187442Y-99762121D01*
X132186222Y-99745843D01*
X132129508Y-99497363D01*
X132036393Y-99260112D01*
X131908959Y-99039388D01*
X131750050Y-98840123D01*
X131563217Y-98666768D01*
X131352634Y-98523195D01*
X131352630Y-98523193D01*
X131352627Y-98523191D01*
X131352626Y-98523190D01*
X131123006Y-98412612D01*
X131123008Y-98412612D01*
X130879466Y-98337489D01*
X130879462Y-98337488D01*
X130879458Y-98337487D01*
X130758231Y-98319214D01*
X130627440Y-98299500D01*
X130627435Y-98299500D01*
X130372565Y-98299500D01*
X130372559Y-98299500D01*
X130215609Y-98323157D01*
X130120542Y-98337487D01*
X130120539Y-98337488D01*
X130120533Y-98337489D01*
X129876992Y-98412612D01*
X129647373Y-98523190D01*
X129647372Y-98523191D01*
X129436782Y-98666768D01*
X129249952Y-98840121D01*
X129249950Y-98840123D01*
X129091041Y-99039388D01*
X128963608Y-99260109D01*
X128870492Y-99497362D01*
X128870490Y-99497369D01*
X128813777Y-99745845D01*
X128794732Y-99999995D01*
X128794732Y-100000004D01*
X123705268Y-100000004D01*
X123705268Y-99999995D01*
X123687442Y-99762121D01*
X123686222Y-99745843D01*
X123629508Y-99497363D01*
X123536393Y-99260112D01*
X123408959Y-99039388D01*
X123250050Y-98840123D01*
X123063217Y-98666768D01*
X122852634Y-98523195D01*
X122852630Y-98523193D01*
X122852627Y-98523191D01*
X122852626Y-98523190D01*
X122623006Y-98412612D01*
X122623008Y-98412612D01*
X122379466Y-98337489D01*
X122379462Y-98337488D01*
X122379458Y-98337487D01*
X122258231Y-98319214D01*
X122127440Y-98299500D01*
X122127435Y-98299500D01*
X121872565Y-98299500D01*
X121872559Y-98299500D01*
X121715609Y-98323157D01*
X121620542Y-98337487D01*
X121620539Y-98337488D01*
X121620533Y-98337489D01*
X121376992Y-98412612D01*
X121147373Y-98523190D01*
X121147372Y-98523191D01*
X120936782Y-98666768D01*
X120749952Y-98840121D01*
X120749950Y-98840123D01*
X120591041Y-99039388D01*
X120463608Y-99260109D01*
X120370492Y-99497362D01*
X120370490Y-99497369D01*
X120313777Y-99745845D01*
X120294732Y-99999995D01*
X120294732Y-100000004D01*
X116200500Y-100000004D01*
X116200500Y-97500003D01*
X135019435Y-97500003D01*
X135039630Y-97679249D01*
X135039631Y-97679254D01*
X135099211Y-97849523D01*
X135195184Y-98002262D01*
X135322738Y-98129816D01*
X135475478Y-98225789D01*
X135645745Y-98285368D01*
X135645750Y-98285369D01*
X135824996Y-98305565D01*
X135825000Y-98305565D01*
X135825004Y-98305565D01*
X136004249Y-98285369D01*
X136004252Y-98285368D01*
X136004255Y-98285368D01*
X136174522Y-98225789D01*
X136327262Y-98129816D01*
X136362319Y-98094759D01*
X136423642Y-98061274D01*
X136493334Y-98066258D01*
X136537681Y-98094759D01*
X136572738Y-98129816D01*
X136725478Y-98225789D01*
X136895745Y-98285368D01*
X136895750Y-98285369D01*
X137074996Y-98305565D01*
X137075000Y-98305565D01*
X137075004Y-98305565D01*
X137254249Y-98285369D01*
X137254252Y-98285368D01*
X137254255Y-98285368D01*
X137424522Y-98225789D01*
X137577262Y-98129816D01*
X137704816Y-98002262D01*
X137800789Y-97849522D01*
X137860368Y-97679255D01*
X137880565Y-97500000D01*
X137860368Y-97320745D01*
X137800789Y-97150478D01*
X137704816Y-96997738D01*
X137577262Y-96870184D01*
X137544379Y-96849522D01*
X137424523Y-96774211D01*
X137254254Y-96714631D01*
X137254249Y-96714630D01*
X137075004Y-96694435D01*
X137074996Y-96694435D01*
X136895750Y-96714630D01*
X136895745Y-96714631D01*
X136725476Y-96774211D01*
X136572737Y-96870184D01*
X136537681Y-96905241D01*
X136476358Y-96938726D01*
X136406666Y-96933742D01*
X136362319Y-96905241D01*
X136327262Y-96870184D01*
X136174523Y-96774211D01*
X136004254Y-96714631D01*
X136004249Y-96714630D01*
X135825004Y-96694435D01*
X135824996Y-96694435D01*
X135645750Y-96714630D01*
X135645745Y-96714631D01*
X135475476Y-96774211D01*
X135322737Y-96870184D01*
X135195184Y-96997737D01*
X135099211Y-97150476D01*
X135039631Y-97320745D01*
X135039630Y-97320750D01*
X135019435Y-97499996D01*
X135019435Y-97500003D01*
X116200500Y-97500003D01*
X116200500Y-96147870D01*
X125109500Y-96147870D01*
X125109501Y-96147876D01*
X125115908Y-96207483D01*
X125166202Y-96342328D01*
X125166206Y-96342335D01*
X125252452Y-96457544D01*
X125252455Y-96457547D01*
X125367664Y-96543793D01*
X125367671Y-96543797D01*
X125502517Y-96594091D01*
X125502516Y-96594091D01*
X125509444Y-96594835D01*
X125562127Y-96600500D01*
X127357872Y-96600499D01*
X127417483Y-96594091D01*
X127552331Y-96543796D01*
X127667546Y-96457546D01*
X127753796Y-96342331D01*
X127802810Y-96210916D01*
X127844681Y-96154984D01*
X127910145Y-96130566D01*
X127978418Y-96145417D01*
X128006673Y-96166569D01*
X128128599Y-96288495D01*
X128212347Y-96347136D01*
X128322165Y-96424032D01*
X128322167Y-96424033D01*
X128322170Y-96424035D01*
X128536337Y-96523903D01*
X128764592Y-96585063D01*
X128941034Y-96600500D01*
X128999999Y-96605659D01*
X129000000Y-96605659D01*
X129000001Y-96605659D01*
X129058966Y-96600500D01*
X129235408Y-96585063D01*
X129463663Y-96523903D01*
X129677830Y-96424035D01*
X129871401Y-96288495D01*
X130038495Y-96121401D01*
X130168425Y-95935842D01*
X130223002Y-95892217D01*
X130292500Y-95885023D01*
X130354855Y-95916546D01*
X130371575Y-95935842D01*
X130501500Y-96121395D01*
X130501505Y-96121401D01*
X130668599Y-96288495D01*
X130752347Y-96347136D01*
X130862165Y-96424032D01*
X130862167Y-96424033D01*
X130862170Y-96424035D01*
X131076337Y-96523903D01*
X131304592Y-96585063D01*
X131481034Y-96600500D01*
X131539999Y-96605659D01*
X131540000Y-96605659D01*
X131540001Y-96605659D01*
X131598966Y-96600500D01*
X131775408Y-96585063D01*
X132003663Y-96523903D01*
X132217830Y-96424035D01*
X132411401Y-96288495D01*
X132578495Y-96121401D01*
X132714035Y-95927830D01*
X132813903Y-95713663D01*
X132871152Y-95500003D01*
X137444435Y-95500003D01*
X137464630Y-95679249D01*
X137464631Y-95679254D01*
X137524211Y-95849523D01*
X137603549Y-95975788D01*
X137620184Y-96002262D01*
X137747738Y-96129816D01*
X137787793Y-96154984D01*
X137904409Y-96228259D01*
X137950700Y-96280594D01*
X137961657Y-96347136D01*
X137944435Y-96499995D01*
X137944435Y-96500003D01*
X137964630Y-96679249D01*
X137964631Y-96679254D01*
X138024211Y-96849523D01*
X138114315Y-96992922D01*
X138120184Y-97002262D01*
X138247738Y-97129816D01*
X138400478Y-97225789D01*
X138570739Y-97285366D01*
X138570745Y-97285368D01*
X138570750Y-97285369D01*
X138749996Y-97305565D01*
X138750000Y-97305565D01*
X138750004Y-97305565D01*
X138929249Y-97285369D01*
X138929251Y-97285368D01*
X138929255Y-97285368D01*
X138929258Y-97285366D01*
X138929262Y-97285366D01*
X139084045Y-97231205D01*
X139153824Y-97227643D01*
X139165955Y-97231205D01*
X139320737Y-97285366D01*
X139320743Y-97285367D01*
X139320745Y-97285368D01*
X139320746Y-97285368D01*
X139320750Y-97285369D01*
X139499996Y-97305565D01*
X139500000Y-97305565D01*
X139500004Y-97305565D01*
X139679249Y-97285369D01*
X139679252Y-97285368D01*
X139679255Y-97285368D01*
X139849522Y-97225789D01*
X139934027Y-97172691D01*
X140001264Y-97153690D01*
X140065973Y-97172691D01*
X140150475Y-97225788D01*
X140320745Y-97285368D01*
X140320750Y-97285369D01*
X140499996Y-97305565D01*
X140500000Y-97305565D01*
X140500004Y-97305565D01*
X140679249Y-97285369D01*
X140679252Y-97285368D01*
X140679255Y-97285368D01*
X140849522Y-97225789D01*
X141002262Y-97129816D01*
X141129816Y-97002262D01*
X141225789Y-96849522D01*
X141285368Y-96679255D01*
X141285369Y-96679249D01*
X141305565Y-96500003D01*
X141305565Y-96499996D01*
X141285369Y-96320750D01*
X141285368Y-96320745D01*
X141274083Y-96288495D01*
X141225789Y-96150478D01*
X141224150Y-96147870D01*
X141153461Y-96035369D01*
X141129816Y-95997738D01*
X141002262Y-95870184D01*
X140874999Y-95790219D01*
X140849523Y-95774211D01*
X140679254Y-95714631D01*
X140679249Y-95714630D01*
X140500004Y-95694435D01*
X140499996Y-95694435D01*
X140320750Y-95714630D01*
X140320737Y-95714633D01*
X140150479Y-95774209D01*
X140065971Y-95827309D01*
X139998734Y-95846309D01*
X139934029Y-95827309D01*
X139849520Y-95774209D01*
X139679262Y-95714633D01*
X139679249Y-95714630D01*
X139500004Y-95694435D01*
X139499996Y-95694435D01*
X139320750Y-95714630D01*
X139320742Y-95714632D01*
X139205775Y-95754861D01*
X139135996Y-95758422D01*
X139075369Y-95723693D01*
X139043142Y-95661700D01*
X139041601Y-95623935D01*
X139055565Y-95500002D01*
X139055565Y-95499996D01*
X139035369Y-95320750D01*
X139035368Y-95320745D01*
X138975788Y-95150476D01*
X138936582Y-95088080D01*
X138879816Y-94997738D01*
X138752262Y-94870184D01*
X138669653Y-94818277D01*
X138599523Y-94774211D01*
X138429254Y-94714631D01*
X138429249Y-94714630D01*
X138250004Y-94694435D01*
X138249996Y-94694435D01*
X138070750Y-94714630D01*
X138070745Y-94714631D01*
X137900476Y-94774211D01*
X137747737Y-94870184D01*
X137620184Y-94997737D01*
X137524211Y-95150476D01*
X137464631Y-95320745D01*
X137464630Y-95320750D01*
X137444435Y-95499996D01*
X137444435Y-95500003D01*
X132871152Y-95500003D01*
X132875063Y-95485408D01*
X132895659Y-95250000D01*
X132875063Y-95014592D01*
X132813903Y-94786337D01*
X132714035Y-94572171D01*
X132708425Y-94564158D01*
X132578494Y-94378597D01*
X132411402Y-94211506D01*
X132411395Y-94211501D01*
X132217834Y-94075967D01*
X132217830Y-94075965D01*
X132217828Y-94075964D01*
X132003663Y-93976097D01*
X132003659Y-93976096D01*
X132003655Y-93976094D01*
X131983259Y-93970629D01*
X143667625Y-93970629D01*
X143687820Y-94149875D01*
X143687821Y-94149880D01*
X143747401Y-94320149D01*
X143829428Y-94450693D01*
X143843374Y-94472888D01*
X143970928Y-94600442D01*
X144015848Y-94628667D01*
X144120516Y-94694435D01*
X144123668Y-94696415D01*
X144270338Y-94747737D01*
X144293935Y-94755994D01*
X144293940Y-94755995D01*
X144473186Y-94776191D01*
X144473190Y-94776191D01*
X144473193Y-94776191D01*
X144635735Y-94757877D01*
X144704557Y-94769931D01*
X144755937Y-94817281D01*
X144773561Y-94884891D01*
X144766661Y-94922051D01*
X144714632Y-95070742D01*
X144714630Y-95070750D01*
X144694435Y-95249996D01*
X144694435Y-95250003D01*
X144714630Y-95429249D01*
X144714631Y-95429254D01*
X144774211Y-95599523D01*
X144845931Y-95713664D01*
X144870184Y-95752262D01*
X144997738Y-95879816D01*
X145150478Y-95975789D01*
X145320745Y-96035368D01*
X145320750Y-96035369D01*
X145499996Y-96055565D01*
X145500000Y-96055565D01*
X145500004Y-96055565D01*
X145679249Y-96035369D01*
X145679252Y-96035368D01*
X145679255Y-96035368D01*
X145849522Y-95975789D01*
X146002262Y-95879816D01*
X146129816Y-95752262D01*
X146225789Y-95599522D01*
X146285368Y-95429255D01*
X146285369Y-95429249D01*
X146305565Y-95250003D01*
X146305565Y-95249996D01*
X146285369Y-95070750D01*
X146285368Y-95070745D01*
X146234756Y-94926105D01*
X146225789Y-94900478D01*
X146129816Y-94747738D01*
X146002262Y-94620184D01*
X145970841Y-94600441D01*
X145849523Y-94524211D01*
X145679254Y-94464631D01*
X145679249Y-94464630D01*
X145573406Y-94452705D01*
X152539320Y-94452705D01*
X152559204Y-94692672D01*
X152559204Y-94692675D01*
X152559205Y-94692676D01*
X152618317Y-94926105D01*
X152715045Y-95146622D01*
X152846749Y-95348210D01*
X153009837Y-95525371D01*
X153199861Y-95673272D01*
X153411636Y-95787879D01*
X153526492Y-95827309D01*
X153639383Y-95866065D01*
X153639385Y-95866065D01*
X153639387Y-95866066D01*
X153876901Y-95905700D01*
X153876902Y-95905700D01*
X154117698Y-95905700D01*
X154117699Y-95905700D01*
X154355213Y-95866066D01*
X154582964Y-95787879D01*
X154794739Y-95673272D01*
X154984763Y-95525371D01*
X155147851Y-95348210D01*
X155279555Y-95146622D01*
X155376283Y-94926105D01*
X155435395Y-94692676D01*
X155435395Y-94692670D01*
X155435582Y-94691553D01*
X155435786Y-94691131D01*
X155436654Y-94687704D01*
X155437359Y-94687882D01*
X155466030Y-94628667D01*
X155525644Y-94592225D01*
X155595495Y-94593797D01*
X155653409Y-94632885D01*
X155675823Y-94673640D01*
X155722818Y-94818277D01*
X155722821Y-94818284D01*
X155817467Y-94982216D01*
X155897179Y-95070745D01*
X155944129Y-95122888D01*
X156097265Y-95234148D01*
X156097270Y-95234151D01*
X156270192Y-95311142D01*
X156270197Y-95311144D01*
X156455354Y-95350500D01*
X156455355Y-95350500D01*
X156644644Y-95350500D01*
X156644646Y-95350500D01*
X156829803Y-95311144D01*
X157002730Y-95234151D01*
X157155871Y-95122888D01*
X157282533Y-94982216D01*
X157377179Y-94818284D01*
X157424177Y-94673639D01*
X157463613Y-94615965D01*
X157527971Y-94588766D01*
X157596818Y-94600680D01*
X157648294Y-94647924D01*
X157663027Y-94687784D01*
X157663346Y-94687704D01*
X157664104Y-94690699D01*
X157664413Y-94691534D01*
X157664601Y-94692660D01*
X157664604Y-94692675D01*
X157664605Y-94692676D01*
X157723717Y-94926105D01*
X157820445Y-95146622D01*
X157952149Y-95348210D01*
X158115237Y-95525371D01*
X158305261Y-95673272D01*
X158517036Y-95787879D01*
X158631892Y-95827309D01*
X158744783Y-95866065D01*
X158744785Y-95866065D01*
X158744787Y-95866066D01*
X158982301Y-95905700D01*
X158982302Y-95905700D01*
X159223098Y-95905700D01*
X159223099Y-95905700D01*
X159460613Y-95866066D01*
X159688364Y-95787879D01*
X159900139Y-95673272D01*
X160090163Y-95525371D01*
X160253251Y-95348210D01*
X160384955Y-95146622D01*
X160481683Y-94926105D01*
X160540795Y-94692676D01*
X160551444Y-94564158D01*
X160560680Y-94452705D01*
X160560680Y-94452694D01*
X160545804Y-94273178D01*
X160540795Y-94212724D01*
X160481683Y-93979295D01*
X160384955Y-93758778D01*
X160253251Y-93557190D01*
X160090163Y-93380029D01*
X159916468Y-93244837D01*
X159900141Y-93232129D01*
X159688365Y-93117521D01*
X159688356Y-93117518D01*
X159460616Y-93039334D01*
X159282477Y-93009608D01*
X159223099Y-92999700D01*
X158982301Y-92999700D01*
X158934798Y-93007626D01*
X158744783Y-93039334D01*
X158517043Y-93117518D01*
X158517034Y-93117521D01*
X158305258Y-93232129D01*
X158173577Y-93334621D01*
X158115237Y-93380029D01*
X158115234Y-93380031D01*
X158115234Y-93380032D01*
X157952149Y-93557190D01*
X157820443Y-93758781D01*
X157723717Y-93979294D01*
X157695467Y-94090851D01*
X157664914Y-94211506D01*
X157663346Y-94217696D01*
X157661635Y-94217262D01*
X157634552Y-94273178D01*
X157574933Y-94309611D01*
X157505081Y-94308028D01*
X157447174Y-94268932D01*
X157424772Y-94228191D01*
X157377181Y-94081722D01*
X157377180Y-94081719D01*
X157377179Y-94081716D01*
X157282533Y-93917784D01*
X157155871Y-93777112D01*
X157155870Y-93777111D01*
X157002734Y-93665851D01*
X157002729Y-93665848D01*
X156857810Y-93601325D01*
X156804573Y-93556075D01*
X156784252Y-93489225D01*
X156803298Y-93422002D01*
X156855664Y-93375747D01*
X156879295Y-93367473D01*
X157016137Y-93334621D01*
X157234822Y-93244039D01*
X157436645Y-93120362D01*
X157616635Y-92966635D01*
X157770362Y-92786645D01*
X157894039Y-92584822D01*
X157984621Y-92366137D01*
X158039878Y-92135974D01*
X158058450Y-91900000D01*
X158039878Y-91664026D01*
X157984621Y-91433863D01*
X157964428Y-91385112D01*
X157894039Y-91215177D01*
X157770365Y-91013359D01*
X157770364Y-91013358D01*
X157770363Y-91013357D01*
X157770362Y-91013355D01*
X157616635Y-90833365D01*
X157436645Y-90679638D01*
X157436643Y-90679636D01*
X157436641Y-90679635D01*
X157436640Y-90679634D01*
X157234822Y-90555960D01*
X157016136Y-90465378D01*
X156785977Y-90410122D01*
X156550000Y-90391550D01*
X156314022Y-90410122D01*
X156083863Y-90465378D01*
X155865177Y-90555960D01*
X155663359Y-90679634D01*
X155663358Y-90679635D01*
X155483365Y-90833365D01*
X155329635Y-91013358D01*
X155329634Y-91013359D01*
X155205960Y-91215177D01*
X155115378Y-91433863D01*
X155060122Y-91664022D01*
X155041550Y-91900000D01*
X155060122Y-92135977D01*
X155115378Y-92366136D01*
X155205960Y-92584822D01*
X155329634Y-92786640D01*
X155329635Y-92786641D01*
X155329636Y-92786643D01*
X155329638Y-92786645D01*
X155483365Y-92966635D01*
X155663355Y-93120362D01*
X155663357Y-93120363D01*
X155663358Y-93120364D01*
X155663359Y-93120365D01*
X155865177Y-93244039D01*
X155963770Y-93284877D01*
X156083863Y-93334621D01*
X156220699Y-93367472D01*
X156281292Y-93402262D01*
X156313456Y-93464288D01*
X156306980Y-93533857D01*
X156263921Y-93588882D01*
X156242190Y-93601325D01*
X156097267Y-93665850D01*
X156097265Y-93665851D01*
X155944129Y-93777111D01*
X155817466Y-93917785D01*
X155722821Y-94081715D01*
X155722819Y-94081719D01*
X155675227Y-94228192D01*
X155635789Y-94285867D01*
X155571430Y-94313065D01*
X155502584Y-94301150D01*
X155451108Y-94253906D01*
X155437639Y-94217446D01*
X155436654Y-94217696D01*
X155435395Y-94212724D01*
X155376283Y-93979295D01*
X155279555Y-93758778D01*
X155147851Y-93557190D01*
X154984763Y-93380029D01*
X154811068Y-93244837D01*
X154794741Y-93232129D01*
X154582965Y-93117521D01*
X154582956Y-93117518D01*
X154355216Y-93039334D01*
X154177077Y-93009608D01*
X154117699Y-92999700D01*
X153876901Y-92999700D01*
X153829398Y-93007626D01*
X153639383Y-93039334D01*
X153411643Y-93117518D01*
X153411634Y-93117521D01*
X153199858Y-93232129D01*
X153068177Y-93334621D01*
X153009837Y-93380029D01*
X153009834Y-93380031D01*
X153009834Y-93380032D01*
X152846749Y-93557190D01*
X152715043Y-93758781D01*
X152618317Y-93979294D01*
X152559204Y-94212727D01*
X152539320Y-94452694D01*
X152539320Y-94452705D01*
X145573406Y-94452705D01*
X145500004Y-94444435D01*
X145499996Y-94444435D01*
X145337453Y-94462748D01*
X145268631Y-94450693D01*
X145217252Y-94403344D01*
X145199628Y-94335733D01*
X145206529Y-94298573D01*
X145258557Y-94149886D01*
X145258559Y-94149875D01*
X145278755Y-93970629D01*
X145278755Y-93970622D01*
X145258559Y-93791376D01*
X145258558Y-93791371D01*
X145235610Y-93725789D01*
X145198979Y-93621104D01*
X145103006Y-93468364D01*
X144975452Y-93340810D01*
X144886437Y-93284878D01*
X144822713Y-93244837D01*
X144652444Y-93185257D01*
X144652439Y-93185256D01*
X144473194Y-93165061D01*
X144473186Y-93165061D01*
X144293940Y-93185256D01*
X144293935Y-93185257D01*
X144123666Y-93244837D01*
X143970927Y-93340810D01*
X143843374Y-93468363D01*
X143747401Y-93621102D01*
X143687821Y-93791371D01*
X143687820Y-93791376D01*
X143667625Y-93970622D01*
X143667625Y-93970629D01*
X131983259Y-93970629D01*
X131775413Y-93914938D01*
X131775403Y-93914936D01*
X131540001Y-93894341D01*
X131539999Y-93894341D01*
X131304596Y-93914936D01*
X131304586Y-93914938D01*
X131076344Y-93976094D01*
X131076335Y-93976098D01*
X130862171Y-94075964D01*
X130862169Y-94075965D01*
X130668597Y-94211505D01*
X130501505Y-94378597D01*
X130371575Y-94564158D01*
X130316998Y-94607783D01*
X130247500Y-94614977D01*
X130185145Y-94583454D01*
X130168425Y-94564158D01*
X130038494Y-94378597D01*
X129871402Y-94211506D01*
X129871395Y-94211501D01*
X129677834Y-94075967D01*
X129677830Y-94075965D01*
X129677828Y-94075964D01*
X129463663Y-93976097D01*
X129463659Y-93976096D01*
X129463655Y-93976094D01*
X129235413Y-93914938D01*
X129235403Y-93914936D01*
X129000001Y-93894341D01*
X128999999Y-93894341D01*
X128764596Y-93914936D01*
X128764586Y-93914938D01*
X128536344Y-93976094D01*
X128536335Y-93976098D01*
X128322171Y-94075964D01*
X128322169Y-94075965D01*
X128128600Y-94211503D01*
X128006673Y-94333430D01*
X127945350Y-94366914D01*
X127875658Y-94361930D01*
X127819725Y-94320058D01*
X127802810Y-94289081D01*
X127753797Y-94157671D01*
X127753793Y-94157664D01*
X127667547Y-94042455D01*
X127667544Y-94042452D01*
X127552335Y-93956206D01*
X127552328Y-93956202D01*
X127417482Y-93905908D01*
X127417483Y-93905908D01*
X127357883Y-93899501D01*
X127357881Y-93899500D01*
X127357873Y-93899500D01*
X127357864Y-93899500D01*
X125562129Y-93899500D01*
X125562123Y-93899501D01*
X125502516Y-93905908D01*
X125367671Y-93956202D01*
X125367664Y-93956206D01*
X125252455Y-94042452D01*
X125252452Y-94042455D01*
X125166206Y-94157664D01*
X125166202Y-94157671D01*
X125115908Y-94292517D01*
X125109501Y-94352116D01*
X125109500Y-94352135D01*
X125109500Y-96147870D01*
X116200500Y-96147870D01*
X116200500Y-92125004D01*
X120294732Y-92125004D01*
X120313777Y-92379154D01*
X120360719Y-92584822D01*
X120370492Y-92627637D01*
X120463607Y-92864888D01*
X120591041Y-93085612D01*
X120749950Y-93284877D01*
X120936783Y-93458232D01*
X121147366Y-93601805D01*
X121147371Y-93601807D01*
X121147372Y-93601808D01*
X121147373Y-93601809D01*
X121205529Y-93629815D01*
X121376992Y-93712387D01*
X121376993Y-93712387D01*
X121376996Y-93712389D01*
X121620542Y-93787513D01*
X121655094Y-93792720D01*
X121718450Y-93822176D01*
X121755824Y-93881209D01*
X121755349Y-93951077D01*
X121717176Y-94009597D01*
X121687049Y-94028614D01*
X121547267Y-94090850D01*
X121547265Y-94090851D01*
X121394129Y-94202111D01*
X121267466Y-94342785D01*
X121172821Y-94506715D01*
X121172818Y-94506722D01*
X121118583Y-94673641D01*
X121114326Y-94686744D01*
X121094540Y-94875000D01*
X121114326Y-95063256D01*
X121114327Y-95063259D01*
X121172818Y-95243277D01*
X121172821Y-95243284D01*
X121267467Y-95407216D01*
X121351012Y-95500002D01*
X121394129Y-95547888D01*
X121547265Y-95659148D01*
X121547270Y-95659151D01*
X121720192Y-95736142D01*
X121720197Y-95736144D01*
X121905354Y-95775500D01*
X121905355Y-95775500D01*
X122094644Y-95775500D01*
X122094646Y-95775500D01*
X122279803Y-95736144D01*
X122452730Y-95659151D01*
X122605871Y-95547888D01*
X122732533Y-95407216D01*
X122827179Y-95243284D01*
X122885674Y-95063256D01*
X122905460Y-94875000D01*
X122885674Y-94686744D01*
X122827179Y-94506716D01*
X122732533Y-94342784D01*
X122605871Y-94202112D01*
X122605870Y-94202111D01*
X122452734Y-94090851D01*
X122452729Y-94090848D01*
X122312951Y-94028614D01*
X122259714Y-93983364D01*
X122239393Y-93916514D01*
X122258439Y-93849291D01*
X122310805Y-93803036D01*
X122344901Y-93792721D01*
X122379458Y-93787513D01*
X122623004Y-93712389D01*
X122852634Y-93601805D01*
X123063217Y-93458232D01*
X123250050Y-93284877D01*
X123408959Y-93085612D01*
X123458385Y-93000003D01*
X133944435Y-93000003D01*
X133964630Y-93179249D01*
X133964631Y-93179254D01*
X134024211Y-93349523D01*
X134092517Y-93458231D01*
X134120184Y-93502262D01*
X134247738Y-93629816D01*
X134400478Y-93725789D01*
X134494764Y-93758781D01*
X134570745Y-93785368D01*
X134570750Y-93785369D01*
X134749996Y-93805565D01*
X134750000Y-93805565D01*
X134750004Y-93805565D01*
X134929249Y-93785369D01*
X134929252Y-93785368D01*
X134929255Y-93785368D01*
X135099522Y-93725789D01*
X135252262Y-93629816D01*
X135379816Y-93502262D01*
X135475789Y-93349522D01*
X135535368Y-93179255D01*
X135535369Y-93179249D01*
X135555565Y-93000003D01*
X135555565Y-93000000D01*
X139344540Y-93000000D01*
X139364326Y-93188256D01*
X139364327Y-93188259D01*
X139422818Y-93368277D01*
X139422821Y-93368284D01*
X139517467Y-93532216D01*
X139605346Y-93629815D01*
X139644129Y-93672888D01*
X139797265Y-93784148D01*
X139797270Y-93784151D01*
X139970192Y-93861142D01*
X139970197Y-93861144D01*
X140155354Y-93900500D01*
X140155355Y-93900500D01*
X140344644Y-93900500D01*
X140344646Y-93900500D01*
X140529803Y-93861144D01*
X140702730Y-93784151D01*
X140855871Y-93672888D01*
X140982533Y-93532216D01*
X141017613Y-93471454D01*
X141068179Y-93423240D01*
X141136786Y-93410016D01*
X141201651Y-93435984D01*
X141232385Y-93471453D01*
X141250173Y-93502262D01*
X141267467Y-93532216D01*
X141394129Y-93672888D01*
X141547265Y-93784148D01*
X141547270Y-93784151D01*
X141720192Y-93861142D01*
X141720197Y-93861144D01*
X141905354Y-93900500D01*
X141905355Y-93900500D01*
X142094644Y-93900500D01*
X142094646Y-93900500D01*
X142279803Y-93861144D01*
X142452730Y-93784151D01*
X142605871Y-93672888D01*
X142732533Y-93532216D01*
X142827179Y-93368284D01*
X142885674Y-93188256D01*
X142905460Y-93000000D01*
X142885674Y-92811744D01*
X142827179Y-92631716D01*
X142732533Y-92467784D01*
X142605871Y-92327112D01*
X142605870Y-92327111D01*
X142452734Y-92215851D01*
X142452729Y-92215848D01*
X142279807Y-92138857D01*
X142279800Y-92138855D01*
X142197161Y-92121290D01*
X142135679Y-92088098D01*
X142101902Y-92026935D01*
X142106554Y-91957221D01*
X142148158Y-91901088D01*
X142197161Y-91878710D01*
X142203201Y-91877426D01*
X142279803Y-91861144D01*
X142452730Y-91784151D01*
X142605871Y-91672888D01*
X142732533Y-91532216D01*
X142827179Y-91368284D01*
X142885674Y-91188256D01*
X142905460Y-91000000D01*
X142885674Y-90811744D01*
X142827179Y-90631716D01*
X142732533Y-90467784D01*
X142605871Y-90327112D01*
X142605870Y-90327111D01*
X142452734Y-90215851D01*
X142452729Y-90215848D01*
X142279807Y-90138857D01*
X142279802Y-90138855D01*
X142134001Y-90107865D01*
X142094646Y-90099500D01*
X141905354Y-90099500D01*
X141872897Y-90106398D01*
X141720197Y-90138855D01*
X141720192Y-90138857D01*
X141547270Y-90215848D01*
X141547265Y-90215851D01*
X141394129Y-90327111D01*
X141267466Y-90467785D01*
X141232387Y-90528544D01*
X141181820Y-90576760D01*
X141113213Y-90589983D01*
X141048348Y-90564015D01*
X141017613Y-90528544D01*
X140992705Y-90485403D01*
X140982533Y-90467784D01*
X140855871Y-90327112D01*
X140855870Y-90327111D01*
X140702734Y-90215851D01*
X140702729Y-90215848D01*
X140529807Y-90138857D01*
X140529802Y-90138855D01*
X140384001Y-90107865D01*
X140344646Y-90099500D01*
X140155354Y-90099500D01*
X140122897Y-90106398D01*
X139970197Y-90138855D01*
X139970192Y-90138857D01*
X139797270Y-90215848D01*
X139797265Y-90215851D01*
X139644129Y-90327111D01*
X139517466Y-90467785D01*
X139422821Y-90631715D01*
X139422818Y-90631722D01*
X139368044Y-90800300D01*
X139364326Y-90811744D01*
X139344540Y-91000000D01*
X139364326Y-91188256D01*
X139364327Y-91188259D01*
X139422818Y-91368277D01*
X139422821Y-91368284D01*
X139517467Y-91532216D01*
X139636146Y-91664022D01*
X139644129Y-91672888D01*
X139797265Y-91784148D01*
X139797270Y-91784151D01*
X139970192Y-91861142D01*
X139970197Y-91861144D01*
X140052839Y-91878710D01*
X140114321Y-91911902D01*
X140148097Y-91973065D01*
X140143445Y-92042780D01*
X140101840Y-92098912D01*
X140052839Y-92121290D01*
X139970197Y-92138855D01*
X139970192Y-92138857D01*
X139797270Y-92215848D01*
X139797265Y-92215851D01*
X139644129Y-92327111D01*
X139517466Y-92467785D01*
X139422821Y-92631715D01*
X139422818Y-92631722D01*
X139372481Y-92786645D01*
X139364326Y-92811744D01*
X139344540Y-93000000D01*
X135555565Y-93000000D01*
X135555565Y-92999996D01*
X135535369Y-92820750D01*
X135535368Y-92820745D01*
X135475788Y-92650476D01*
X135379815Y-92497737D01*
X135252262Y-92370184D01*
X135099523Y-92274211D01*
X134929254Y-92214631D01*
X134929249Y-92214630D01*
X134750004Y-92194435D01*
X134749996Y-92194435D01*
X134570750Y-92214630D01*
X134570745Y-92214631D01*
X134400476Y-92274211D01*
X134247737Y-92370184D01*
X134120184Y-92497737D01*
X134024211Y-92650476D01*
X133964631Y-92820745D01*
X133964630Y-92820750D01*
X133944435Y-92999996D01*
X133944435Y-93000003D01*
X123458385Y-93000003D01*
X123536393Y-92864888D01*
X123629508Y-92627637D01*
X123686222Y-92379157D01*
X123704230Y-92138855D01*
X123705268Y-92125004D01*
X123705268Y-92124995D01*
X123688407Y-91900000D01*
X123686222Y-91870843D01*
X123629508Y-91622363D01*
X123536393Y-91385112D01*
X123408959Y-91164388D01*
X123395786Y-91147870D01*
X125109500Y-91147870D01*
X125109501Y-91147876D01*
X125115908Y-91207483D01*
X125166202Y-91342328D01*
X125166206Y-91342335D01*
X125252452Y-91457544D01*
X125252455Y-91457547D01*
X125367664Y-91543793D01*
X125367671Y-91543797D01*
X125502517Y-91594091D01*
X125502516Y-91594091D01*
X125509444Y-91594835D01*
X125562127Y-91600500D01*
X127357872Y-91600499D01*
X127417483Y-91594091D01*
X127552331Y-91543796D01*
X127667546Y-91457546D01*
X127753796Y-91342331D01*
X127802810Y-91210916D01*
X127844681Y-91154984D01*
X127910145Y-91130566D01*
X127978418Y-91145417D01*
X128006673Y-91166569D01*
X128128599Y-91288495D01*
X128225384Y-91356265D01*
X128322165Y-91424032D01*
X128322167Y-91424033D01*
X128322170Y-91424035D01*
X128536337Y-91523903D01*
X128764592Y-91585063D01*
X128941034Y-91600500D01*
X128999999Y-91605659D01*
X129000000Y-91605659D01*
X129000001Y-91605659D01*
X129058966Y-91600500D01*
X129235408Y-91585063D01*
X129463663Y-91523903D01*
X129677830Y-91424035D01*
X129871401Y-91288495D01*
X130038495Y-91121401D01*
X130168425Y-90935842D01*
X130223002Y-90892217D01*
X130292500Y-90885023D01*
X130354855Y-90916546D01*
X130371575Y-90935842D01*
X130501500Y-91121395D01*
X130501505Y-91121401D01*
X130668599Y-91288495D01*
X130765384Y-91356265D01*
X130862165Y-91424032D01*
X130862167Y-91424033D01*
X130862170Y-91424035D01*
X131076337Y-91523903D01*
X131304592Y-91585063D01*
X131481034Y-91600500D01*
X131539999Y-91605659D01*
X131540000Y-91605659D01*
X131540001Y-91605659D01*
X131598966Y-91600500D01*
X131775408Y-91585063D01*
X132003663Y-91523903D01*
X132217830Y-91424035D01*
X132411401Y-91288495D01*
X132578495Y-91121401D01*
X132714035Y-90927830D01*
X132813903Y-90713663D01*
X132875063Y-90485408D01*
X132895659Y-90250000D01*
X132875063Y-90014592D01*
X132813903Y-89786337D01*
X132714035Y-89572171D01*
X132708425Y-89564158D01*
X132663503Y-89500003D01*
X137194435Y-89500003D01*
X137214630Y-89679249D01*
X137214631Y-89679254D01*
X137274211Y-89849523D01*
X137353549Y-89975788D01*
X137370184Y-90002262D01*
X137497738Y-90129816D01*
X137512127Y-90138857D01*
X137634661Y-90215851D01*
X137650478Y-90225789D01*
X137820745Y-90285368D01*
X137820750Y-90285369D01*
X137999996Y-90305565D01*
X138000000Y-90305565D01*
X138000004Y-90305565D01*
X138179249Y-90285369D01*
X138179252Y-90285368D01*
X138179255Y-90285368D01*
X138349522Y-90225789D01*
X138502262Y-90129816D01*
X138629816Y-90002262D01*
X138725789Y-89849522D01*
X138785368Y-89679255D01*
X138785369Y-89679249D01*
X138805565Y-89500003D01*
X138805565Y-89499996D01*
X138785369Y-89320750D01*
X138785368Y-89320745D01*
X138760614Y-89250003D01*
X143194435Y-89250003D01*
X143214630Y-89429249D01*
X143214631Y-89429254D01*
X143274211Y-89599523D01*
X143370184Y-89752262D01*
X143497738Y-89879816D01*
X143650478Y-89975789D01*
X143761371Y-90014592D01*
X143820745Y-90035368D01*
X143820750Y-90035369D01*
X143999996Y-90055565D01*
X144000000Y-90055565D01*
X144000004Y-90055565D01*
X144179249Y-90035369D01*
X144179252Y-90035368D01*
X144179255Y-90035368D01*
X144349522Y-89975789D01*
X144502262Y-89879816D01*
X144629816Y-89752262D01*
X144725789Y-89599522D01*
X144785368Y-89429255D01*
X144792954Y-89361930D01*
X144794602Y-89347305D01*
X152539320Y-89347305D01*
X152559204Y-89587272D01*
X152618317Y-89820705D01*
X152712477Y-90035369D01*
X152715045Y-90041222D01*
X152846749Y-90242810D01*
X153009837Y-90419971D01*
X153149332Y-90528544D01*
X153194905Y-90564015D01*
X153199861Y-90567872D01*
X153411636Y-90682479D01*
X153502449Y-90713655D01*
X153639383Y-90760665D01*
X153639385Y-90760665D01*
X153639387Y-90760666D01*
X153876901Y-90800300D01*
X153876902Y-90800300D01*
X154117698Y-90800300D01*
X154117699Y-90800300D01*
X154355213Y-90760666D01*
X154582964Y-90682479D01*
X154794739Y-90567872D01*
X154984763Y-90419971D01*
X155147851Y-90242810D01*
X155279555Y-90041222D01*
X155376283Y-89820705D01*
X155435395Y-89587276D01*
X155448490Y-89429249D01*
X155455280Y-89347305D01*
X157644720Y-89347305D01*
X157664604Y-89587272D01*
X157723717Y-89820705D01*
X157817877Y-90035369D01*
X157820445Y-90041222D01*
X157952149Y-90242810D01*
X158115237Y-90419971D01*
X158254732Y-90528544D01*
X158300305Y-90564015D01*
X158305261Y-90567872D01*
X158517036Y-90682479D01*
X158607849Y-90713655D01*
X158744783Y-90760665D01*
X158744785Y-90760665D01*
X158744787Y-90760666D01*
X158982301Y-90800300D01*
X158982302Y-90800300D01*
X159223098Y-90800300D01*
X159223099Y-90800300D01*
X159460613Y-90760666D01*
X159688364Y-90682479D01*
X159900139Y-90567872D01*
X160090163Y-90419971D01*
X160253251Y-90242810D01*
X160384955Y-90041222D01*
X160481683Y-89820705D01*
X160540795Y-89587276D01*
X160553890Y-89429249D01*
X160560680Y-89347305D01*
X160560680Y-89347294D01*
X160540795Y-89107327D01*
X160540795Y-89107324D01*
X160481683Y-88873895D01*
X160384955Y-88653378D01*
X160253251Y-88451790D01*
X160090163Y-88274629D01*
X159956058Y-88170251D01*
X159900141Y-88126729D01*
X159688365Y-88012121D01*
X159688356Y-88012118D01*
X159460616Y-87933934D01*
X159282477Y-87904208D01*
X159223099Y-87894300D01*
X158982301Y-87894300D01*
X158934798Y-87902226D01*
X158744783Y-87933934D01*
X158517043Y-88012118D01*
X158517034Y-88012121D01*
X158305258Y-88126729D01*
X158180630Y-88223732D01*
X158115237Y-88274629D01*
X158115234Y-88274631D01*
X158115234Y-88274632D01*
X157952149Y-88451790D01*
X157820443Y-88653381D01*
X157723717Y-88873894D01*
X157664604Y-89107327D01*
X157644720Y-89347294D01*
X157644720Y-89347305D01*
X155455280Y-89347305D01*
X155455280Y-89347294D01*
X155435395Y-89107327D01*
X155435395Y-89107324D01*
X155376283Y-88873895D01*
X155279555Y-88653378D01*
X155147851Y-88451790D01*
X154984763Y-88274629D01*
X154850658Y-88170251D01*
X154794741Y-88126729D01*
X154582965Y-88012121D01*
X154582956Y-88012118D01*
X154355216Y-87933934D01*
X154177077Y-87904208D01*
X154117699Y-87894300D01*
X153876901Y-87894300D01*
X153829398Y-87902226D01*
X153639383Y-87933934D01*
X153411643Y-88012118D01*
X153411634Y-88012121D01*
X153199858Y-88126729D01*
X153075230Y-88223732D01*
X153009837Y-88274629D01*
X153009834Y-88274631D01*
X153009834Y-88274632D01*
X152846749Y-88451790D01*
X152715043Y-88653381D01*
X152618317Y-88873894D01*
X152559204Y-89107327D01*
X152539320Y-89347294D01*
X152539320Y-89347305D01*
X144794602Y-89347305D01*
X144805565Y-89250003D01*
X144805565Y-89249996D01*
X144785369Y-89070750D01*
X144785368Y-89070745D01*
X144775468Y-89042452D01*
X144725789Y-88900478D01*
X144725174Y-88899500D01*
X144685772Y-88836792D01*
X144629816Y-88747738D01*
X144502262Y-88620184D01*
X144474717Y-88602876D01*
X144349523Y-88524211D01*
X144179254Y-88464631D01*
X144179249Y-88464630D01*
X144000004Y-88444435D01*
X143999996Y-88444435D01*
X143820750Y-88464630D01*
X143820745Y-88464631D01*
X143650476Y-88524211D01*
X143497737Y-88620184D01*
X143370184Y-88747737D01*
X143274211Y-88900476D01*
X143214631Y-89070745D01*
X143214630Y-89070750D01*
X143194435Y-89249996D01*
X143194435Y-89250003D01*
X138760614Y-89250003D01*
X138723489Y-89143905D01*
X138725635Y-89143153D01*
X138716037Y-89084854D01*
X138724391Y-89056407D01*
X138723489Y-89056092D01*
X138785366Y-88879259D01*
X138785369Y-88879246D01*
X138805565Y-88700000D01*
X138805565Y-88699993D01*
X138785369Y-88520747D01*
X138785368Y-88520742D01*
X138765734Y-88464631D01*
X138725789Y-88350475D01*
X138688399Y-88290969D01*
X138669399Y-88223732D01*
X138688400Y-88159025D01*
X138725101Y-88100617D01*
X139795048Y-88100617D01*
X139815243Y-88279863D01*
X139815244Y-88279868D01*
X139874824Y-88450137D01*
X139919192Y-88520747D01*
X139970797Y-88602876D01*
X140098351Y-88730430D01*
X140151238Y-88763661D01*
X140235481Y-88816595D01*
X140251091Y-88826403D01*
X140402108Y-88879246D01*
X140421358Y-88885982D01*
X140421363Y-88885983D01*
X140600609Y-88906179D01*
X140600613Y-88906179D01*
X140600617Y-88906179D01*
X140779862Y-88885983D01*
X140779865Y-88885982D01*
X140779868Y-88885982D01*
X140950135Y-88826403D01*
X141008043Y-88790016D01*
X141075277Y-88771016D01*
X141114964Y-88777967D01*
X141225356Y-88816595D01*
X141225362Y-88816595D01*
X141225363Y-88816596D01*
X141404607Y-88836792D01*
X141404611Y-88836792D01*
X141404615Y-88836792D01*
X141583860Y-88816596D01*
X141583863Y-88816595D01*
X141583866Y-88816595D01*
X141583867Y-88816594D01*
X141583870Y-88816594D01*
X141629061Y-88800780D01*
X141735143Y-88763660D01*
X141804919Y-88760098D01*
X141842069Y-88775709D01*
X141889335Y-88805409D01*
X142059605Y-88864989D01*
X142059610Y-88864990D01*
X142238856Y-88885186D01*
X142238860Y-88885186D01*
X142238864Y-88885186D01*
X142418109Y-88864990D01*
X142418112Y-88864989D01*
X142418115Y-88864989D01*
X142588382Y-88805410D01*
X142741122Y-88709437D01*
X142868676Y-88581883D01*
X142964649Y-88429143D01*
X143024228Y-88258876D01*
X143028188Y-88223732D01*
X143044425Y-88079624D01*
X143044425Y-88079617D01*
X143024229Y-87900371D01*
X143024228Y-87900366D01*
X142971994Y-87751090D01*
X142964649Y-87730099D01*
X142868676Y-87577359D01*
X142741122Y-87449805D01*
X142662619Y-87400478D01*
X142588383Y-87353832D01*
X142418114Y-87294252D01*
X142418109Y-87294251D01*
X142238864Y-87274056D01*
X142238856Y-87274056D01*
X142059610Y-87294251D01*
X142059597Y-87294254D01*
X141908329Y-87347186D01*
X141838550Y-87350748D01*
X141801402Y-87335139D01*
X141754134Y-87305438D01*
X141583865Y-87245858D01*
X141583860Y-87245857D01*
X141404615Y-87225662D01*
X141404607Y-87225662D01*
X141225361Y-87245857D01*
X141225348Y-87245860D01*
X141055091Y-87305436D01*
X140997179Y-87341824D01*
X140929942Y-87360823D01*
X140890255Y-87353871D01*
X140779865Y-87315245D01*
X140600617Y-87295049D01*
X140600609Y-87295049D01*
X140421363Y-87315244D01*
X140421358Y-87315245D01*
X140251089Y-87374825D01*
X140098350Y-87470798D01*
X139970797Y-87598351D01*
X139874824Y-87751090D01*
X139815244Y-87921359D01*
X139815243Y-87921364D01*
X139795048Y-88100610D01*
X139795048Y-88100617D01*
X138725101Y-88100617D01*
X138725789Y-88099522D01*
X138785368Y-87929255D01*
X138786258Y-87921359D01*
X138805565Y-87750003D01*
X138805565Y-87749996D01*
X138785369Y-87570750D01*
X138785368Y-87570745D01*
X138725788Y-87400476D01*
X138672234Y-87315246D01*
X138629816Y-87247738D01*
X138502262Y-87120184D01*
X138349523Y-87024211D01*
X138179254Y-86964631D01*
X138179249Y-86964630D01*
X138000004Y-86944435D01*
X137999996Y-86944435D01*
X137820750Y-86964630D01*
X137820745Y-86964631D01*
X137650476Y-87024211D01*
X137497737Y-87120184D01*
X137370184Y-87247737D01*
X137274211Y-87400476D01*
X137214631Y-87570745D01*
X137214630Y-87570750D01*
X137194435Y-87749996D01*
X137194435Y-87750003D01*
X137214630Y-87929249D01*
X137214631Y-87929254D01*
X137274211Y-88099524D01*
X137311599Y-88159025D01*
X137330600Y-88226262D01*
X137311600Y-88290969D01*
X137274209Y-88350476D01*
X137214633Y-88520734D01*
X137214630Y-88520747D01*
X137194435Y-88699993D01*
X137194435Y-88700000D01*
X137214630Y-88879246D01*
X137214633Y-88879259D01*
X137276510Y-89056091D01*
X137274366Y-89056840D01*
X137283960Y-89115158D01*
X137275612Y-89143592D01*
X137276510Y-89143906D01*
X137214633Y-89320737D01*
X137214630Y-89320750D01*
X137194435Y-89499996D01*
X137194435Y-89500003D01*
X132663503Y-89500003D01*
X132578494Y-89378597D01*
X132411402Y-89211506D01*
X132411395Y-89211501D01*
X132217834Y-89075967D01*
X132217830Y-89075965D01*
X132175210Y-89056091D01*
X132003663Y-88976097D01*
X132003659Y-88976096D01*
X132003655Y-88976094D01*
X131775413Y-88914938D01*
X131775403Y-88914936D01*
X131540001Y-88894341D01*
X131539999Y-88894341D01*
X131304596Y-88914936D01*
X131304586Y-88914938D01*
X131076344Y-88976094D01*
X131076335Y-88976098D01*
X130862171Y-89075964D01*
X130862169Y-89075965D01*
X130668597Y-89211505D01*
X130501505Y-89378597D01*
X130371575Y-89564158D01*
X130316998Y-89607783D01*
X130247500Y-89614977D01*
X130185145Y-89583454D01*
X130168425Y-89564158D01*
X130038494Y-89378597D01*
X129871402Y-89211506D01*
X129871395Y-89211501D01*
X129677834Y-89075967D01*
X129677830Y-89075965D01*
X129635210Y-89056091D01*
X129463663Y-88976097D01*
X129463659Y-88976096D01*
X129463655Y-88976094D01*
X129235413Y-88914938D01*
X129235403Y-88914936D01*
X129000001Y-88894341D01*
X128999999Y-88894341D01*
X128764596Y-88914936D01*
X128764586Y-88914938D01*
X128536344Y-88976094D01*
X128536335Y-88976098D01*
X128322171Y-89075964D01*
X128322169Y-89075965D01*
X128128600Y-89211503D01*
X128006673Y-89333430D01*
X127945350Y-89366914D01*
X127875658Y-89361930D01*
X127819725Y-89320058D01*
X127802810Y-89289081D01*
X127753797Y-89157671D01*
X127753793Y-89157664D01*
X127667547Y-89042455D01*
X127667544Y-89042452D01*
X127552335Y-88956206D01*
X127552328Y-88956202D01*
X127417482Y-88905908D01*
X127417483Y-88905908D01*
X127357883Y-88899501D01*
X127357881Y-88899500D01*
X127357873Y-88899500D01*
X127357864Y-88899500D01*
X125562129Y-88899500D01*
X125562123Y-88899501D01*
X125502516Y-88905908D01*
X125367671Y-88956202D01*
X125367664Y-88956206D01*
X125252455Y-89042452D01*
X125252452Y-89042455D01*
X125166206Y-89157664D01*
X125166202Y-89157671D01*
X125115908Y-89292517D01*
X125109501Y-89352116D01*
X125109500Y-89352135D01*
X125109500Y-91147870D01*
X123395786Y-91147870D01*
X123250050Y-90965123D01*
X123063217Y-90791768D01*
X122852634Y-90648195D01*
X122852630Y-90648193D01*
X122852627Y-90648191D01*
X122852626Y-90648190D01*
X122623006Y-90537612D01*
X122623008Y-90537612D01*
X122379466Y-90462489D01*
X122379462Y-90462488D01*
X122379458Y-90462487D01*
X122258231Y-90444214D01*
X122127440Y-90424500D01*
X122127435Y-90424500D01*
X121872565Y-90424500D01*
X121872559Y-90424500D01*
X121715609Y-90448157D01*
X121620542Y-90462487D01*
X121620539Y-90462488D01*
X121620533Y-90462489D01*
X121376992Y-90537612D01*
X121147373Y-90648190D01*
X121147372Y-90648191D01*
X120936782Y-90791768D01*
X120749952Y-90965121D01*
X120749950Y-90965123D01*
X120591041Y-91164388D01*
X120463608Y-91385109D01*
X120370492Y-91622362D01*
X120370490Y-91622369D01*
X120313777Y-91870845D01*
X120294732Y-92124995D01*
X120294732Y-92125004D01*
X116200500Y-92125004D01*
X116200500Y-86147870D01*
X125109500Y-86147870D01*
X125109501Y-86147876D01*
X125115908Y-86207483D01*
X125166202Y-86342328D01*
X125166206Y-86342335D01*
X125252452Y-86457544D01*
X125252455Y-86457547D01*
X125367664Y-86543793D01*
X125367671Y-86543797D01*
X125502517Y-86594091D01*
X125502516Y-86594091D01*
X125509444Y-86594835D01*
X125562127Y-86600500D01*
X127357872Y-86600499D01*
X127417483Y-86594091D01*
X127552331Y-86543796D01*
X127667546Y-86457546D01*
X127753796Y-86342331D01*
X127802810Y-86210916D01*
X127844681Y-86154984D01*
X127910145Y-86130566D01*
X127978418Y-86145417D01*
X128006673Y-86166569D01*
X128128599Y-86288495D01*
X128225384Y-86356265D01*
X128322165Y-86424032D01*
X128322167Y-86424033D01*
X128322170Y-86424035D01*
X128536337Y-86523903D01*
X128764592Y-86585063D01*
X128941034Y-86600500D01*
X128999999Y-86605659D01*
X129000000Y-86605659D01*
X129000001Y-86605659D01*
X129058966Y-86600500D01*
X129235408Y-86585063D01*
X129463663Y-86523903D01*
X129677830Y-86424035D01*
X129871401Y-86288495D01*
X130038495Y-86121401D01*
X130168425Y-85935842D01*
X130223002Y-85892217D01*
X130292500Y-85885023D01*
X130354855Y-85916546D01*
X130371575Y-85935842D01*
X130501500Y-86121395D01*
X130501505Y-86121401D01*
X130668599Y-86288495D01*
X130765384Y-86356265D01*
X130862165Y-86424032D01*
X130862167Y-86424033D01*
X130862170Y-86424035D01*
X131076337Y-86523903D01*
X131304592Y-86585063D01*
X131481034Y-86600500D01*
X131539999Y-86605659D01*
X131540000Y-86605659D01*
X131540001Y-86605659D01*
X131598966Y-86600500D01*
X131775408Y-86585063D01*
X132003663Y-86523903D01*
X132217830Y-86424035D01*
X132411401Y-86288495D01*
X132578495Y-86121401D01*
X132714035Y-85927830D01*
X132813903Y-85713663D01*
X132875063Y-85485408D01*
X132895659Y-85250000D01*
X132875063Y-85014592D01*
X132871154Y-85000003D01*
X139944435Y-85000003D01*
X139964630Y-85179249D01*
X139964631Y-85179254D01*
X140024211Y-85349523D01*
X140109591Y-85485403D01*
X140120184Y-85502262D01*
X140247738Y-85629816D01*
X140338080Y-85686582D01*
X140394498Y-85722032D01*
X140400478Y-85725789D01*
X140570745Y-85785368D01*
X140570750Y-85785369D01*
X140749996Y-85805565D01*
X140750000Y-85805565D01*
X140750004Y-85805565D01*
X140929249Y-85785369D01*
X140929252Y-85785368D01*
X140929255Y-85785368D01*
X141099522Y-85725789D01*
X141252262Y-85629816D01*
X141287319Y-85594759D01*
X141348642Y-85561274D01*
X141418334Y-85566258D01*
X141462681Y-85594759D01*
X141497738Y-85629816D01*
X141588080Y-85686582D01*
X141644498Y-85722032D01*
X141650478Y-85725789D01*
X141820745Y-85785368D01*
X141820750Y-85785369D01*
X141999996Y-85805565D01*
X142000000Y-85805565D01*
X142000004Y-85805565D01*
X142179249Y-85785369D01*
X142179252Y-85785368D01*
X142179255Y-85785368D01*
X142349522Y-85725789D01*
X142502262Y-85629816D01*
X142537319Y-85594759D01*
X142598642Y-85561274D01*
X142668334Y-85566258D01*
X142712681Y-85594759D01*
X142747738Y-85629816D01*
X142838080Y-85686582D01*
X142894498Y-85722032D01*
X142900478Y-85725789D01*
X143070745Y-85785368D01*
X143070750Y-85785369D01*
X143249996Y-85805565D01*
X143250000Y-85805565D01*
X143250004Y-85805565D01*
X143429249Y-85785369D01*
X143429252Y-85785368D01*
X143429255Y-85785368D01*
X143599522Y-85725789D01*
X143752262Y-85629816D01*
X143787319Y-85594759D01*
X143848642Y-85561274D01*
X143918334Y-85566258D01*
X143962681Y-85594759D01*
X143997738Y-85629816D01*
X144088080Y-85686582D01*
X144144498Y-85722032D01*
X144150478Y-85725789D01*
X144320745Y-85785368D01*
X144320750Y-85785369D01*
X144499996Y-85805565D01*
X144500000Y-85805565D01*
X144500004Y-85805565D01*
X144679249Y-85785369D01*
X144679252Y-85785368D01*
X144679255Y-85785368D01*
X144849522Y-85725789D01*
X145002262Y-85629816D01*
X145129816Y-85502262D01*
X145225789Y-85349522D01*
X145285368Y-85179255D01*
X145285369Y-85179249D01*
X145305565Y-85000003D01*
X145305565Y-84999996D01*
X145285369Y-84820750D01*
X145285368Y-84820745D01*
X145225788Y-84650476D01*
X145129815Y-84497737D01*
X145002262Y-84370184D01*
X144849523Y-84274211D01*
X144679254Y-84214631D01*
X144679249Y-84214630D01*
X144500004Y-84194435D01*
X144499996Y-84194435D01*
X144320750Y-84214630D01*
X144320745Y-84214631D01*
X144150476Y-84274211D01*
X143997737Y-84370184D01*
X143962681Y-84405241D01*
X143901358Y-84438726D01*
X143831666Y-84433742D01*
X143787319Y-84405241D01*
X143752262Y-84370184D01*
X143599523Y-84274211D01*
X143429254Y-84214631D01*
X143429249Y-84214630D01*
X143250004Y-84194435D01*
X143249996Y-84194435D01*
X143070750Y-84214630D01*
X143070745Y-84214631D01*
X142900476Y-84274211D01*
X142747737Y-84370184D01*
X142712681Y-84405241D01*
X142651358Y-84438726D01*
X142581666Y-84433742D01*
X142537319Y-84405241D01*
X142502262Y-84370184D01*
X142349523Y-84274211D01*
X142179254Y-84214631D01*
X142179249Y-84214630D01*
X142000004Y-84194435D01*
X141999996Y-84194435D01*
X141820750Y-84214630D01*
X141820745Y-84214631D01*
X141650476Y-84274211D01*
X141497737Y-84370184D01*
X141462681Y-84405241D01*
X141401358Y-84438726D01*
X141331666Y-84433742D01*
X141287319Y-84405241D01*
X141252262Y-84370184D01*
X141099523Y-84274211D01*
X140929254Y-84214631D01*
X140929249Y-84214630D01*
X140750004Y-84194435D01*
X140749996Y-84194435D01*
X140570750Y-84214630D01*
X140570745Y-84214631D01*
X140400476Y-84274211D01*
X140247737Y-84370184D01*
X140120184Y-84497737D01*
X140024211Y-84650476D01*
X139964631Y-84820745D01*
X139964630Y-84820750D01*
X139944435Y-84999996D01*
X139944435Y-85000003D01*
X132871154Y-85000003D01*
X132823124Y-84820750D01*
X132813905Y-84786344D01*
X132813904Y-84786343D01*
X132813903Y-84786337D01*
X132714035Y-84572171D01*
X132708425Y-84564158D01*
X132578494Y-84378597D01*
X132411402Y-84211506D01*
X132411395Y-84211501D01*
X132387022Y-84194435D01*
X132334518Y-84157671D01*
X132217834Y-84075967D01*
X132217830Y-84075965D01*
X132217828Y-84075964D01*
X132003663Y-83976097D01*
X132003659Y-83976096D01*
X132003655Y-83976094D01*
X131775413Y-83914938D01*
X131775403Y-83914936D01*
X131540001Y-83894341D01*
X131539999Y-83894341D01*
X131304596Y-83914936D01*
X131304586Y-83914938D01*
X131076344Y-83976094D01*
X131076335Y-83976098D01*
X130862171Y-84075964D01*
X130862169Y-84075965D01*
X130668597Y-84211505D01*
X130501505Y-84378597D01*
X130371575Y-84564158D01*
X130316998Y-84607783D01*
X130247500Y-84614977D01*
X130185145Y-84583454D01*
X130168425Y-84564158D01*
X130038494Y-84378597D01*
X129871402Y-84211506D01*
X129871395Y-84211501D01*
X129847022Y-84194435D01*
X129794518Y-84157671D01*
X129677834Y-84075967D01*
X129677830Y-84075965D01*
X129677828Y-84075964D01*
X129463663Y-83976097D01*
X129463659Y-83976096D01*
X129463655Y-83976094D01*
X129235413Y-83914938D01*
X129235403Y-83914936D01*
X129000001Y-83894341D01*
X128999999Y-83894341D01*
X128764596Y-83914936D01*
X128764586Y-83914938D01*
X128536344Y-83976094D01*
X128536335Y-83976098D01*
X128322171Y-84075964D01*
X128322169Y-84075965D01*
X128128600Y-84211503D01*
X128006673Y-84333430D01*
X127945350Y-84366914D01*
X127875658Y-84361930D01*
X127819725Y-84320058D01*
X127802810Y-84289081D01*
X127753797Y-84157671D01*
X127753793Y-84157664D01*
X127667547Y-84042455D01*
X127667544Y-84042452D01*
X127552335Y-83956206D01*
X127552328Y-83956202D01*
X127417482Y-83905908D01*
X127417483Y-83905908D01*
X127357883Y-83899501D01*
X127357881Y-83899500D01*
X127357873Y-83899500D01*
X127357864Y-83899500D01*
X125562129Y-83899500D01*
X125562123Y-83899501D01*
X125502516Y-83905908D01*
X125367671Y-83956202D01*
X125367664Y-83956206D01*
X125252455Y-84042452D01*
X125252452Y-84042455D01*
X125166206Y-84157664D01*
X125166202Y-84157671D01*
X125115908Y-84292517D01*
X125109501Y-84352116D01*
X125109500Y-84352135D01*
X125109500Y-86147870D01*
X116200500Y-86147870D01*
X116200500Y-82702705D01*
X152539320Y-82702705D01*
X152559204Y-82942672D01*
X152559204Y-82942675D01*
X152559205Y-82942676D01*
X152618317Y-83176105D01*
X152715045Y-83396622D01*
X152846749Y-83598210D01*
X153009837Y-83775371D01*
X153162690Y-83894341D01*
X153177551Y-83905908D01*
X153199861Y-83923272D01*
X153411636Y-84037879D01*
X153522574Y-84075964D01*
X153639383Y-84116065D01*
X153639385Y-84116065D01*
X153639387Y-84116066D01*
X153876901Y-84155700D01*
X153876902Y-84155700D01*
X154117698Y-84155700D01*
X154117699Y-84155700D01*
X154355213Y-84116066D01*
X154582964Y-84037879D01*
X154794739Y-83923272D01*
X154984763Y-83775371D01*
X155147851Y-83598210D01*
X155279555Y-83396622D01*
X155376283Y-83176105D01*
X155435395Y-82942676D01*
X155455280Y-82702705D01*
X157644720Y-82702705D01*
X157664604Y-82942672D01*
X157664604Y-82942675D01*
X157664605Y-82942676D01*
X157723717Y-83176105D01*
X157820445Y-83396622D01*
X157952149Y-83598210D01*
X158115237Y-83775371D01*
X158268090Y-83894341D01*
X158282951Y-83905908D01*
X158305261Y-83923272D01*
X158517036Y-84037879D01*
X158627974Y-84075964D01*
X158744783Y-84116065D01*
X158744785Y-84116065D01*
X158744787Y-84116066D01*
X158982301Y-84155700D01*
X158982302Y-84155700D01*
X159223098Y-84155700D01*
X159223099Y-84155700D01*
X159460613Y-84116066D01*
X159688364Y-84037879D01*
X159900139Y-83923272D01*
X160090163Y-83775371D01*
X160253251Y-83598210D01*
X160384955Y-83396622D01*
X160481683Y-83176105D01*
X160540795Y-82942676D01*
X160560680Y-82702700D01*
X160540795Y-82462724D01*
X160481683Y-82229295D01*
X160384955Y-82008778D01*
X160253251Y-81807190D01*
X160090163Y-81630029D01*
X159956058Y-81525651D01*
X159900141Y-81482129D01*
X159688365Y-81367521D01*
X159688356Y-81367518D01*
X159460616Y-81289334D01*
X159282477Y-81259608D01*
X159223099Y-81249700D01*
X158982301Y-81249700D01*
X158934798Y-81257626D01*
X158744783Y-81289334D01*
X158517043Y-81367518D01*
X158517034Y-81367521D01*
X158305258Y-81482129D01*
X158171156Y-81586505D01*
X158115237Y-81630029D01*
X158115234Y-81630031D01*
X158115234Y-81630032D01*
X157952149Y-81807190D01*
X157820443Y-82008781D01*
X157723717Y-82229294D01*
X157664604Y-82462727D01*
X157644720Y-82702694D01*
X157644720Y-82702705D01*
X155455280Y-82702705D01*
X155455280Y-82702700D01*
X155435395Y-82462724D01*
X155376283Y-82229295D01*
X155279555Y-82008778D01*
X155147851Y-81807190D01*
X154984763Y-81630029D01*
X154850658Y-81525651D01*
X154794741Y-81482129D01*
X154582965Y-81367521D01*
X154582956Y-81367518D01*
X154355216Y-81289334D01*
X154177077Y-81259608D01*
X154117699Y-81249700D01*
X153876901Y-81249700D01*
X153829398Y-81257626D01*
X153639383Y-81289334D01*
X153411643Y-81367518D01*
X153411634Y-81367521D01*
X153199858Y-81482129D01*
X153065756Y-81586505D01*
X153009837Y-81630029D01*
X153009834Y-81630031D01*
X153009834Y-81630032D01*
X152846749Y-81807190D01*
X152715043Y-82008781D01*
X152618317Y-82229294D01*
X152559204Y-82462727D01*
X152539320Y-82702694D01*
X152539320Y-82702705D01*
X116200500Y-82702705D01*
X116200500Y-77597305D01*
X152539320Y-77597305D01*
X152559204Y-77837272D01*
X152559204Y-77837275D01*
X152559205Y-77837276D01*
X152618317Y-78070705D01*
X152715045Y-78291222D01*
X152846749Y-78492810D01*
X153009837Y-78669971D01*
X153199861Y-78817872D01*
X153411636Y-78932479D01*
X153529898Y-78973078D01*
X153639383Y-79010665D01*
X153639385Y-79010665D01*
X153639387Y-79010666D01*
X153876901Y-79050300D01*
X153876902Y-79050300D01*
X154117698Y-79050300D01*
X154117699Y-79050300D01*
X154355213Y-79010666D01*
X154582964Y-78932479D01*
X154794739Y-78817872D01*
X154984763Y-78669971D01*
X155147851Y-78492810D01*
X155279555Y-78291222D01*
X155376283Y-78070705D01*
X155435395Y-77837276D01*
X155455280Y-77597305D01*
X157644720Y-77597305D01*
X157664604Y-77837272D01*
X157664604Y-77837275D01*
X157664605Y-77837276D01*
X157723717Y-78070705D01*
X157820445Y-78291222D01*
X157952149Y-78492810D01*
X158115237Y-78669971D01*
X158305261Y-78817872D01*
X158517036Y-78932479D01*
X158635298Y-78973078D01*
X158744783Y-79010665D01*
X158744785Y-79010665D01*
X158744787Y-79010666D01*
X158982301Y-79050300D01*
X158982302Y-79050300D01*
X159223098Y-79050300D01*
X159223099Y-79050300D01*
X159460613Y-79010666D01*
X159688364Y-78932479D01*
X159900139Y-78817872D01*
X160090163Y-78669971D01*
X160253251Y-78492810D01*
X160384955Y-78291222D01*
X160481683Y-78070705D01*
X160540795Y-77837276D01*
X160560680Y-77597300D01*
X160540795Y-77357324D01*
X160481683Y-77123895D01*
X160384955Y-76903378D01*
X160253251Y-76701790D01*
X160090163Y-76524629D01*
X159956058Y-76420251D01*
X159900141Y-76376729D01*
X159688365Y-76262121D01*
X159688356Y-76262118D01*
X159460616Y-76183934D01*
X159282477Y-76154208D01*
X159223099Y-76144300D01*
X158982301Y-76144300D01*
X158934798Y-76152226D01*
X158744783Y-76183934D01*
X158517043Y-76262118D01*
X158517034Y-76262121D01*
X158305258Y-76376729D01*
X158171156Y-76481105D01*
X158115237Y-76524629D01*
X158115234Y-76524631D01*
X158115234Y-76524632D01*
X157952149Y-76701790D01*
X157820443Y-76903381D01*
X157723717Y-77123894D01*
X157664604Y-77357327D01*
X157644720Y-77597294D01*
X157644720Y-77597305D01*
X155455280Y-77597305D01*
X155455280Y-77597300D01*
X155435395Y-77357324D01*
X155376283Y-77123895D01*
X155279555Y-76903378D01*
X155147851Y-76701790D01*
X154984763Y-76524629D01*
X154850658Y-76420251D01*
X154794741Y-76376729D01*
X154582965Y-76262121D01*
X154582956Y-76262118D01*
X154355216Y-76183934D01*
X154177077Y-76154208D01*
X154117699Y-76144300D01*
X153876901Y-76144300D01*
X153829398Y-76152226D01*
X153639383Y-76183934D01*
X153411643Y-76262118D01*
X153411634Y-76262121D01*
X153199858Y-76376729D01*
X153065756Y-76481105D01*
X153009837Y-76524629D01*
X153009834Y-76524631D01*
X153009834Y-76524632D01*
X152846749Y-76701790D01*
X152715043Y-76903381D01*
X152618317Y-77123894D01*
X152559204Y-77357327D01*
X152539320Y-77597294D01*
X152539320Y-77597305D01*
X116200500Y-77597305D01*
X116200500Y-75897870D01*
X128319500Y-75897870D01*
X128319501Y-75897876D01*
X128325908Y-75957483D01*
X128376202Y-76092328D01*
X128376206Y-76092335D01*
X128462452Y-76207544D01*
X128462455Y-76207547D01*
X128577664Y-76293793D01*
X128577671Y-76293797D01*
X128712517Y-76344091D01*
X128712516Y-76344091D01*
X128719444Y-76344835D01*
X128772127Y-76350500D01*
X130567872Y-76350499D01*
X130627483Y-76344091D01*
X130762331Y-76293796D01*
X130877546Y-76207546D01*
X130963796Y-76092331D01*
X131012810Y-75960916D01*
X131054681Y-75904984D01*
X131120145Y-75880566D01*
X131188418Y-75895417D01*
X131216673Y-75916569D01*
X131338599Y-76038495D01*
X131435384Y-76106265D01*
X131532165Y-76174032D01*
X131532167Y-76174033D01*
X131532170Y-76174035D01*
X131746337Y-76273903D01*
X131974592Y-76335063D01*
X132151034Y-76350500D01*
X132209999Y-76355659D01*
X132210000Y-76355659D01*
X132210001Y-76355659D01*
X132268966Y-76350500D01*
X132445408Y-76335063D01*
X132673663Y-76273903D01*
X132887830Y-76174035D01*
X133081401Y-76038495D01*
X133248495Y-75871401D01*
X133378425Y-75685842D01*
X133433002Y-75642217D01*
X133502500Y-75635023D01*
X133564855Y-75666546D01*
X133581575Y-75685842D01*
X133711500Y-75871395D01*
X133711505Y-75871401D01*
X133878599Y-76038495D01*
X133975384Y-76106265D01*
X134072165Y-76174032D01*
X134072167Y-76174033D01*
X134072170Y-76174035D01*
X134286337Y-76273903D01*
X134514592Y-76335063D01*
X134691034Y-76350500D01*
X134749999Y-76355659D01*
X134750000Y-76355659D01*
X134750001Y-76355659D01*
X134808966Y-76350500D01*
X134985408Y-76335063D01*
X135213663Y-76273903D01*
X135427830Y-76174035D01*
X135621401Y-76038495D01*
X135788495Y-75871401D01*
X135918425Y-75685842D01*
X135973002Y-75642217D01*
X136042500Y-75635023D01*
X136104855Y-75666546D01*
X136121575Y-75685842D01*
X136251500Y-75871395D01*
X136251505Y-75871401D01*
X136418599Y-76038495D01*
X136515384Y-76106265D01*
X136612165Y-76174032D01*
X136612167Y-76174033D01*
X136612170Y-76174035D01*
X136826337Y-76273903D01*
X137054592Y-76335063D01*
X137231034Y-76350500D01*
X137289999Y-76355659D01*
X137290000Y-76355659D01*
X137290001Y-76355659D01*
X137348966Y-76350500D01*
X137525408Y-76335063D01*
X137753663Y-76273903D01*
X137967830Y-76174035D01*
X138161401Y-76038495D01*
X138328495Y-75871401D01*
X138458425Y-75685842D01*
X138513002Y-75642217D01*
X138582500Y-75635023D01*
X138644855Y-75666546D01*
X138661575Y-75685842D01*
X138791500Y-75871395D01*
X138791505Y-75871401D01*
X138958599Y-76038495D01*
X139055384Y-76106265D01*
X139152165Y-76174032D01*
X139152167Y-76174033D01*
X139152170Y-76174035D01*
X139366337Y-76273903D01*
X139594592Y-76335063D01*
X139771034Y-76350500D01*
X139829999Y-76355659D01*
X139830000Y-76355659D01*
X139830001Y-76355659D01*
X139888966Y-76350500D01*
X140065408Y-76335063D01*
X140293663Y-76273903D01*
X140507830Y-76174035D01*
X140701401Y-76038495D01*
X140868495Y-75871401D01*
X140998425Y-75685842D01*
X141053002Y-75642217D01*
X141122500Y-75635023D01*
X141184855Y-75666546D01*
X141201575Y-75685842D01*
X141331500Y-75871395D01*
X141331505Y-75871401D01*
X141498599Y-76038495D01*
X141595384Y-76106265D01*
X141692165Y-76174032D01*
X141692167Y-76174033D01*
X141692170Y-76174035D01*
X141906337Y-76273903D01*
X142134592Y-76335063D01*
X142311034Y-76350500D01*
X142369999Y-76355659D01*
X142370000Y-76355659D01*
X142370001Y-76355659D01*
X142428966Y-76350500D01*
X142605408Y-76335063D01*
X142833663Y-76273903D01*
X143047830Y-76174035D01*
X143241401Y-76038495D01*
X143408495Y-75871401D01*
X143538425Y-75685842D01*
X143593002Y-75642217D01*
X143662500Y-75635023D01*
X143724855Y-75666546D01*
X143741575Y-75685842D01*
X143871500Y-75871395D01*
X143871505Y-75871401D01*
X144038599Y-76038495D01*
X144135384Y-76106265D01*
X144232165Y-76174032D01*
X144232167Y-76174033D01*
X144232170Y-76174035D01*
X144446337Y-76273903D01*
X144674592Y-76335063D01*
X144851034Y-76350500D01*
X144909999Y-76355659D01*
X144910000Y-76355659D01*
X144910001Y-76355659D01*
X144968966Y-76350500D01*
X145145408Y-76335063D01*
X145373663Y-76273903D01*
X145587830Y-76174035D01*
X145781401Y-76038495D01*
X145948495Y-75871401D01*
X146078425Y-75685842D01*
X146133002Y-75642217D01*
X146202500Y-75635023D01*
X146264855Y-75666546D01*
X146281575Y-75685842D01*
X146411500Y-75871395D01*
X146411505Y-75871401D01*
X146578599Y-76038495D01*
X146675384Y-76106265D01*
X146772165Y-76174032D01*
X146772167Y-76174033D01*
X146772170Y-76174035D01*
X146986337Y-76273903D01*
X147214592Y-76335063D01*
X147391034Y-76350500D01*
X147449999Y-76355659D01*
X147450000Y-76355659D01*
X147450001Y-76355659D01*
X147508966Y-76350500D01*
X147685408Y-76335063D01*
X147913663Y-76273903D01*
X148127830Y-76174035D01*
X148321401Y-76038495D01*
X148488495Y-75871401D01*
X148624035Y-75677830D01*
X148723903Y-75463663D01*
X148785063Y-75235408D01*
X148805659Y-75000000D01*
X148785063Y-74764592D01*
X148723903Y-74536337D01*
X148624035Y-74322171D01*
X148618425Y-74314158D01*
X148488494Y-74128597D01*
X148321402Y-73961506D01*
X148321395Y-73961501D01*
X148127834Y-73825967D01*
X148127830Y-73825965D01*
X148127828Y-73825964D01*
X147913663Y-73726097D01*
X147913659Y-73726096D01*
X147913655Y-73726094D01*
X147685413Y-73664938D01*
X147685403Y-73664936D01*
X147450001Y-73644341D01*
X147449999Y-73644341D01*
X147214596Y-73664936D01*
X147214586Y-73664938D01*
X146986344Y-73726094D01*
X146986335Y-73726098D01*
X146772171Y-73825964D01*
X146772169Y-73825965D01*
X146578597Y-73961505D01*
X146411505Y-74128597D01*
X146281575Y-74314158D01*
X146226998Y-74357783D01*
X146157500Y-74364977D01*
X146095145Y-74333454D01*
X146078425Y-74314158D01*
X145948494Y-74128597D01*
X145781402Y-73961506D01*
X145781395Y-73961501D01*
X145587834Y-73825967D01*
X145587830Y-73825965D01*
X145587828Y-73825964D01*
X145373663Y-73726097D01*
X145373659Y-73726096D01*
X145373655Y-73726094D01*
X145145413Y-73664938D01*
X145145403Y-73664936D01*
X144910001Y-73644341D01*
X144909999Y-73644341D01*
X144674596Y-73664936D01*
X144674586Y-73664938D01*
X144446344Y-73726094D01*
X144446335Y-73726098D01*
X144232171Y-73825964D01*
X144232169Y-73825965D01*
X144038597Y-73961505D01*
X143871505Y-74128597D01*
X143741575Y-74314158D01*
X143686998Y-74357783D01*
X143617500Y-74364977D01*
X143555145Y-74333454D01*
X143538425Y-74314158D01*
X143408494Y-74128597D01*
X143241402Y-73961506D01*
X143241395Y-73961501D01*
X143047834Y-73825967D01*
X143047830Y-73825965D01*
X143047828Y-73825964D01*
X142833663Y-73726097D01*
X142833659Y-73726096D01*
X142833655Y-73726094D01*
X142605413Y-73664938D01*
X142605403Y-73664936D01*
X142370001Y-73644341D01*
X142369999Y-73644341D01*
X142134596Y-73664936D01*
X142134586Y-73664938D01*
X141906344Y-73726094D01*
X141906335Y-73726098D01*
X141692171Y-73825964D01*
X141692169Y-73825965D01*
X141498597Y-73961505D01*
X141331505Y-74128597D01*
X141201575Y-74314158D01*
X141146998Y-74357783D01*
X141077500Y-74364977D01*
X141015145Y-74333454D01*
X140998425Y-74314158D01*
X140868494Y-74128597D01*
X140701402Y-73961506D01*
X140701395Y-73961501D01*
X140507834Y-73825967D01*
X140507830Y-73825965D01*
X140507828Y-73825964D01*
X140293663Y-73726097D01*
X140293659Y-73726096D01*
X140293655Y-73726094D01*
X140065413Y-73664938D01*
X140065403Y-73664936D01*
X139830001Y-73644341D01*
X139829999Y-73644341D01*
X139594596Y-73664936D01*
X139594586Y-73664938D01*
X139366344Y-73726094D01*
X139366335Y-73726098D01*
X139152171Y-73825964D01*
X139152169Y-73825965D01*
X138958597Y-73961505D01*
X138791505Y-74128597D01*
X138661575Y-74314158D01*
X138606998Y-74357783D01*
X138537500Y-74364977D01*
X138475145Y-74333454D01*
X138458425Y-74314158D01*
X138328494Y-74128597D01*
X138161402Y-73961506D01*
X138161395Y-73961501D01*
X137967834Y-73825967D01*
X137967830Y-73825965D01*
X137967828Y-73825964D01*
X137753663Y-73726097D01*
X137753659Y-73726096D01*
X137753655Y-73726094D01*
X137525413Y-73664938D01*
X137525403Y-73664936D01*
X137290001Y-73644341D01*
X137289999Y-73644341D01*
X137054596Y-73664936D01*
X137054586Y-73664938D01*
X136826344Y-73726094D01*
X136826335Y-73726098D01*
X136612171Y-73825964D01*
X136612169Y-73825965D01*
X136418597Y-73961505D01*
X136251505Y-74128597D01*
X136121575Y-74314158D01*
X136066998Y-74357783D01*
X135997500Y-74364977D01*
X135935145Y-74333454D01*
X135918425Y-74314158D01*
X135788494Y-74128597D01*
X135621402Y-73961506D01*
X135621395Y-73961501D01*
X135427834Y-73825967D01*
X135427830Y-73825965D01*
X135427828Y-73825964D01*
X135213663Y-73726097D01*
X135213659Y-73726096D01*
X135213655Y-73726094D01*
X134985413Y-73664938D01*
X134985403Y-73664936D01*
X134750001Y-73644341D01*
X134749999Y-73644341D01*
X134514596Y-73664936D01*
X134514586Y-73664938D01*
X134286344Y-73726094D01*
X134286335Y-73726098D01*
X134072171Y-73825964D01*
X134072169Y-73825965D01*
X133878597Y-73961505D01*
X133711505Y-74128597D01*
X133581575Y-74314158D01*
X133526998Y-74357783D01*
X133457500Y-74364977D01*
X133395145Y-74333454D01*
X133378425Y-74314158D01*
X133248494Y-74128597D01*
X133081402Y-73961506D01*
X133081395Y-73961501D01*
X132887834Y-73825967D01*
X132887830Y-73825965D01*
X132887828Y-73825964D01*
X132673663Y-73726097D01*
X132673659Y-73726096D01*
X132673655Y-73726094D01*
X132445413Y-73664938D01*
X132445403Y-73664936D01*
X132210001Y-73644341D01*
X132209999Y-73644341D01*
X131974596Y-73664936D01*
X131974586Y-73664938D01*
X131746344Y-73726094D01*
X131746335Y-73726098D01*
X131532171Y-73825964D01*
X131532169Y-73825965D01*
X131338600Y-73961503D01*
X131216673Y-74083430D01*
X131155350Y-74116914D01*
X131085658Y-74111930D01*
X131029725Y-74070058D01*
X131012810Y-74039081D01*
X130963797Y-73907671D01*
X130963793Y-73907664D01*
X130877547Y-73792455D01*
X130877544Y-73792452D01*
X130762335Y-73706206D01*
X130762328Y-73706202D01*
X130627482Y-73655908D01*
X130627483Y-73655908D01*
X130567883Y-73649501D01*
X130567881Y-73649500D01*
X130567873Y-73649500D01*
X130567864Y-73649500D01*
X128772129Y-73649500D01*
X128772123Y-73649501D01*
X128712516Y-73655908D01*
X128577671Y-73706202D01*
X128577664Y-73706206D01*
X128462455Y-73792452D01*
X128462452Y-73792455D01*
X128376206Y-73907664D01*
X128376202Y-73907671D01*
X128325908Y-74042517D01*
X128319501Y-74102116D01*
X128319500Y-74102135D01*
X128319500Y-75897870D01*
X116200500Y-75897870D01*
X116200500Y-71875000D01*
X117994457Y-71875000D01*
X118014612Y-72233902D01*
X118014614Y-72233914D01*
X118074826Y-72588296D01*
X118074828Y-72588305D01*
X118174339Y-72933718D01*
X118311905Y-73265831D01*
X118485790Y-73580454D01*
X118659992Y-73825967D01*
X118693806Y-73873623D01*
X118933339Y-74141661D01*
X119201377Y-74381194D01*
X119494548Y-74589211D01*
X119809167Y-74763094D01*
X120141276Y-74900659D01*
X120486700Y-75000173D01*
X120841093Y-75060387D01*
X121200000Y-75080543D01*
X121558907Y-75060387D01*
X121913300Y-75000173D01*
X122258724Y-74900659D01*
X122590833Y-74763094D01*
X122905452Y-74589211D01*
X123198623Y-74381194D01*
X123466661Y-74141661D01*
X123706194Y-73873623D01*
X123914211Y-73580452D01*
X124088094Y-73265833D01*
X124225659Y-72933724D01*
X124325173Y-72588300D01*
X124385387Y-72233907D01*
X124405543Y-71875000D01*
X157994457Y-71875000D01*
X158014612Y-72233902D01*
X158014614Y-72233914D01*
X158074826Y-72588296D01*
X158074828Y-72588305D01*
X158174339Y-72933718D01*
X158311905Y-73265831D01*
X158485790Y-73580454D01*
X158659992Y-73825967D01*
X158693806Y-73873623D01*
X158933339Y-74141661D01*
X159201377Y-74381194D01*
X159494548Y-74589211D01*
X159809167Y-74763094D01*
X160141276Y-74900659D01*
X160486700Y-75000173D01*
X160841093Y-75060387D01*
X161200000Y-75080543D01*
X161558907Y-75060387D01*
X161913300Y-75000173D01*
X162258724Y-74900659D01*
X162590833Y-74763094D01*
X162905452Y-74589211D01*
X163198623Y-74381194D01*
X163466661Y-74141661D01*
X163706194Y-73873623D01*
X163914211Y-73580452D01*
X164088094Y-73265833D01*
X164225659Y-72933724D01*
X164325173Y-72588300D01*
X164385387Y-72233907D01*
X164405543Y-71875000D01*
X164385387Y-71516093D01*
X164325173Y-71161700D01*
X164225659Y-70816276D01*
X164088094Y-70484167D01*
X163914211Y-70169548D01*
X163706194Y-69876377D01*
X163466661Y-69608339D01*
X163198623Y-69368806D01*
X163198622Y-69368805D01*
X162905454Y-69160790D01*
X162590831Y-68986905D01*
X162504086Y-68950974D01*
X162258724Y-68849341D01*
X162258720Y-68849339D01*
X162258718Y-68849339D01*
X161913305Y-68749828D01*
X161913296Y-68749826D01*
X161558914Y-68689614D01*
X161558902Y-68689612D01*
X161200000Y-68669457D01*
X160841097Y-68689612D01*
X160841085Y-68689614D01*
X160486703Y-68749826D01*
X160486694Y-68749828D01*
X160141281Y-68849339D01*
X159809168Y-68986905D01*
X159494545Y-69160790D01*
X159201377Y-69368805D01*
X158933339Y-69608339D01*
X158693805Y-69876377D01*
X158485790Y-70169545D01*
X158311905Y-70484168D01*
X158174339Y-70816281D01*
X158074828Y-71161694D01*
X158074826Y-71161703D01*
X158014614Y-71516085D01*
X158014612Y-71516097D01*
X157994457Y-71875000D01*
X124405543Y-71875000D01*
X124385387Y-71516093D01*
X124325173Y-71161700D01*
X124225659Y-70816276D01*
X124088094Y-70484167D01*
X123914211Y-70169548D01*
X123706194Y-69876377D01*
X123466661Y-69608339D01*
X123198623Y-69368806D01*
X123198622Y-69368805D01*
X122905454Y-69160790D01*
X122590831Y-68986905D01*
X122504086Y-68950974D01*
X122258724Y-68849341D01*
X122258720Y-68849339D01*
X122258718Y-68849339D01*
X121913305Y-68749828D01*
X121913296Y-68749826D01*
X121558914Y-68689614D01*
X121558902Y-68689612D01*
X121200000Y-68669457D01*
X120841097Y-68689612D01*
X120841085Y-68689614D01*
X120486703Y-68749826D01*
X120486694Y-68749828D01*
X120141281Y-68849339D01*
X119809168Y-68986905D01*
X119494545Y-69160790D01*
X119201377Y-69368805D01*
X118933339Y-69608339D01*
X118693805Y-69876377D01*
X118485790Y-70169545D01*
X118311905Y-70484168D01*
X118174339Y-70816281D01*
X118074828Y-71161694D01*
X118074826Y-71161703D01*
X118014614Y-71516085D01*
X118014612Y-71516097D01*
X117994457Y-71875000D01*
X116200500Y-71875000D01*
X116200500Y-66999500D01*
X116220185Y-66932461D01*
X116272989Y-66886706D01*
X116324500Y-66875500D01*
X166075500Y-66875500D01*
X166142539Y-66895185D01*
G37*
%TD.AperFunction*%
%TD*%
M02*
