%TF.GenerationSoftware,KiCad,Pcbnew,7.0.10*%
%TF.CreationDate,2024-04-21T22:28:25-04:00*%
%TF.ProjectId,ltc2666-eval-board,6c746332-3636-4362-9d65-76616c2d626f,1*%
%TF.SameCoordinates,Original*%
%TF.FileFunction,Copper,L2,Inr*%
%TF.FilePolarity,Positive*%
%FSLAX46Y46*%
G04 Gerber Fmt 4.6, Leading zero omitted, Abs format (unit mm)*
G04 Created by KiCad (PCBNEW 7.0.10) date 2024-04-21 22:28:25*
%MOMM*%
%LPD*%
G01*
G04 APERTURE LIST*
%TA.AperFunction,ComponentPad*%
%ADD10C,0.800000*%
%TD*%
%TA.AperFunction,ComponentPad*%
%ADD11C,5.400000*%
%TD*%
%TA.AperFunction,ComponentPad*%
%ADD12R,1.700000X1.700000*%
%TD*%
%TA.AperFunction,ComponentPad*%
%ADD13O,1.700000X1.700000*%
%TD*%
%TA.AperFunction,ComponentPad*%
%ADD14C,2.400000*%
%TD*%
%TA.AperFunction,ComponentPad*%
%ADD15C,2.006600*%
%TD*%
%TA.AperFunction,ComponentPad*%
%ADD16C,1.905000*%
%TD*%
%TA.AperFunction,ViaPad*%
%ADD17C,0.600000*%
%TD*%
%TA.AperFunction,ViaPad*%
%ADD18C,0.800000*%
%TD*%
G04 APERTURE END LIST*
D10*
%TO.N,Earth*%
%TO.C,H3*%
X159175000Y-71875000D03*
X159768109Y-70443109D03*
X159768109Y-73306891D03*
X161200000Y-69850000D03*
D11*
X161200000Y-71875000D03*
D10*
X161200000Y-73900000D03*
X162631891Y-70443109D03*
X162631891Y-73306891D03*
X163225000Y-71875000D03*
%TD*%
D12*
%TO.N,+3.3V*%
%TO.C,JP103*%
X126460000Y-95250000D03*
D13*
%TO.N,Earth*%
X129000000Y-95250000D03*
%TO.N,Net-(JP103-B)*%
X131540000Y-95250000D03*
%TD*%
D12*
%TO.N,/DAC_CHANNEL_3*%
%TO.C,J106*%
X129670000Y-75000000D03*
D13*
%TO.N,/DAC_CHANNEL_2*%
X132210000Y-75000000D03*
%TO.N,/DAC_CHANNEL_1*%
X134750000Y-75000000D03*
%TO.N,/DAC_CHANNEL_0*%
X137290000Y-75000000D03*
%TO.N,/DAC_CHANNEL_7*%
X139830000Y-75000000D03*
%TO.N,/DAC_CHANNEL_6*%
X142370000Y-75000000D03*
%TO.N,/DAC_CHANNEL_5*%
X144910000Y-75000000D03*
%TO.N,/DAC_CHANNEL_4*%
X147450000Y-75000000D03*
%TD*%
D14*
%TO.N,Earth*%
%TO.C,TP102*%
X130500000Y-100000000D03*
%TD*%
D12*
%TO.N,/DAC_CS*%
%TO.C,J105*%
X129950000Y-105250000D03*
D13*
%TO.N,/DAC_SCK*%
X132490000Y-105250000D03*
%TO.N,/DAC_MISO*%
X135030000Y-105250000D03*
%TO.N,/DAC_MOSI*%
X137570000Y-105250000D03*
%TD*%
D12*
%TO.N,+3.3V*%
%TO.C,JP102*%
X126460000Y-90250000D03*
D13*
%TO.N,Earth*%
X129000000Y-90250000D03*
%TO.N,Net-(JP102-B)*%
X131540000Y-90250000D03*
%TD*%
D15*
%TO.N,+5V*%
%TO.C,J103*%
X156550000Y-80150000D03*
D16*
%TO.N,Earth*%
X153997300Y-77597300D03*
X153997300Y-82702700D03*
X159102700Y-77597300D03*
X159102700Y-82702700D03*
%TD*%
D14*
%TO.N,-5V*%
%TO.C,TP105*%
X122000000Y-92125000D03*
%TD*%
D15*
%TO.N,+3.3V*%
%TO.C,J101*%
X156550000Y-103650000D03*
D16*
%TO.N,Earth*%
X153997300Y-101097300D03*
X153997300Y-106202700D03*
X159102700Y-101097300D03*
X159102700Y-106202700D03*
%TD*%
D14*
%TO.N,+5V*%
%TO.C,TP104*%
X122000000Y-82625000D03*
%TD*%
D10*
%TO.N,Earth*%
%TO.C,H4*%
X159175000Y-111875000D03*
X159768109Y-110443109D03*
X159768109Y-113306891D03*
X161200000Y-109850000D03*
D11*
X161200000Y-111875000D03*
D10*
X161200000Y-113900000D03*
X162631891Y-110443109D03*
X162631891Y-113306891D03*
X163225000Y-111875000D03*
%TD*%
%TO.N,Earth*%
%TO.C,H2*%
X123225000Y-111875000D03*
X122631891Y-113306891D03*
X122631891Y-110443109D03*
X121200000Y-113900000D03*
D11*
X121200000Y-111875000D03*
D10*
X121200000Y-109850000D03*
X119768109Y-113306891D03*
X119768109Y-110443109D03*
X119175000Y-111875000D03*
%TD*%
D15*
%TO.N,Earth*%
%TO.C,J102*%
X146052700Y-109000000D03*
D16*
X143500000Y-106447300D03*
X143500000Y-111552700D03*
X148605400Y-106447300D03*
X148605400Y-111552700D03*
%TD*%
D14*
%TO.N,+3.3V*%
%TO.C,TP101*%
X122000000Y-100000000D03*
%TD*%
D15*
%TO.N,-5V*%
%TO.C,J104*%
X156550000Y-91900000D03*
D16*
%TO.N,Earth*%
X153997300Y-89347300D03*
X153997300Y-94452700D03*
X159102700Y-89347300D03*
X159102700Y-94452700D03*
%TD*%
D12*
%TO.N,+3.3V*%
%TO.C,JP101*%
X126460000Y-85250000D03*
D13*
%TO.N,Earth*%
X129000000Y-85250000D03*
%TO.N,Net-(JP101-B)*%
X131540000Y-85250000D03*
%TD*%
D12*
%TO.N,+3.3V*%
%TO.C,J107*%
X129960000Y-110000000D03*
D13*
%TO.N,+5V*%
X132500000Y-110000000D03*
%TO.N,-5V*%
X135040000Y-110000000D03*
%TO.N,Earth*%
X137580000Y-110000000D03*
%TD*%
D10*
%TO.N,Earth*%
%TO.C,H1*%
X119175000Y-71875000D03*
X119768109Y-70443109D03*
X119768109Y-73306891D03*
X121200000Y-69850000D03*
D11*
X121200000Y-71875000D03*
D10*
X121200000Y-73900000D03*
X122631891Y-70443109D03*
X122631891Y-73306891D03*
X123225000Y-71875000D03*
%TD*%
D17*
%TO.N,-5V*%
X138250000Y-95500000D03*
%TO.N,+5V*%
X137650000Y-93000000D03*
%TO.N,Earth*%
X137075000Y-97500000D03*
X135825000Y-97500000D03*
%TO.N,+3.3V*%
X141404611Y-88031227D03*
%TO.N,Earth*%
X142000000Y-85000000D03*
X140750000Y-85000000D03*
%TO.N,+3.3V*%
X144000000Y-89250000D03*
X144473190Y-93970626D03*
X140500000Y-96500000D03*
%TO.N,Earth*%
X142238860Y-88079621D03*
X148000000Y-100250000D03*
X134750000Y-93000000D03*
X138750000Y-96500000D03*
D18*
X137580000Y-111670000D03*
D17*
X140600613Y-88100614D03*
X143250000Y-85000000D03*
X145500000Y-95250000D03*
X139500000Y-96500000D03*
X144500000Y-85000000D03*
D18*
%TO.N,-5V*%
X141150000Y-91900000D03*
X122000000Y-94875000D03*
X156550000Y-94450000D03*
X135040000Y-111710000D03*
X140250000Y-91000000D03*
X142000000Y-91000000D03*
X142000000Y-93000000D03*
X140250000Y-93000000D03*
%TO.N,+5V*%
X132500000Y-111750000D03*
X122000000Y-85375000D03*
X156550000Y-82700000D03*
D17*
%TO.N,Net-(JP101-B)*%
X138000000Y-87750000D03*
%TO.N,Net-(JP102-B)*%
X138000000Y-88699997D03*
%TO.N,Net-(JP103-B)*%
X138000000Y-89500000D03*
%TD*%
%TA.AperFunction,Conductor*%
%TO.N,Earth*%
G36*
X166142539Y-66895185D02*
G01*
X166188294Y-66947989D01*
X166199500Y-66999500D01*
X166199500Y-116750500D01*
X166179815Y-116817539D01*
X166127011Y-116863294D01*
X166075500Y-116874500D01*
X116324500Y-116874500D01*
X116257461Y-116854815D01*
X116211706Y-116802011D01*
X116200500Y-116750500D01*
X116200500Y-110897870D01*
X128609500Y-110897870D01*
X128609501Y-110897876D01*
X128615908Y-110957483D01*
X128666202Y-111092328D01*
X128666206Y-111092335D01*
X128752452Y-111207544D01*
X128752455Y-111207547D01*
X128867664Y-111293793D01*
X128867671Y-111293797D01*
X129002517Y-111344091D01*
X129002516Y-111344091D01*
X129009444Y-111344835D01*
X129062127Y-111350500D01*
X130857872Y-111350499D01*
X130917483Y-111344091D01*
X131052331Y-111293796D01*
X131167546Y-111207546D01*
X131253796Y-111092331D01*
X131302810Y-110960916D01*
X131344681Y-110904984D01*
X131410145Y-110880566D01*
X131478418Y-110895417D01*
X131506670Y-110916566D01*
X131628596Y-111038492D01*
X131628600Y-111038496D01*
X131708125Y-111094180D01*
X131751750Y-111148757D01*
X131758944Y-111218255D01*
X131744390Y-111257754D01*
X131694555Y-111344070D01*
X131672825Y-111381710D01*
X131672820Y-111381718D01*
X131672818Y-111381722D01*
X131614327Y-111561740D01*
X131614326Y-111561744D01*
X131594540Y-111750000D01*
X131614326Y-111938256D01*
X131614327Y-111938259D01*
X131672818Y-112118277D01*
X131672821Y-112118284D01*
X131767467Y-112282216D01*
X131858113Y-112382888D01*
X131894129Y-112422888D01*
X132047265Y-112534148D01*
X132047270Y-112534151D01*
X132220192Y-112611142D01*
X132220197Y-112611144D01*
X132405354Y-112650500D01*
X132405355Y-112650500D01*
X132594644Y-112650500D01*
X132594646Y-112650500D01*
X132779803Y-112611144D01*
X132952730Y-112534151D01*
X133105871Y-112422888D01*
X133232533Y-112282216D01*
X133327179Y-112118284D01*
X133385674Y-111938256D01*
X133405460Y-111750000D01*
X133385674Y-111561744D01*
X133327179Y-111381716D01*
X133327176Y-111381710D01*
X133255610Y-111257753D01*
X133239137Y-111189853D01*
X133261990Y-111123826D01*
X133291870Y-111094182D01*
X133371401Y-111038495D01*
X133538495Y-110871401D01*
X133668425Y-110685842D01*
X133723002Y-110642217D01*
X133792500Y-110635023D01*
X133854855Y-110666546D01*
X133871575Y-110685842D01*
X134001500Y-110871395D01*
X134001505Y-110871401D01*
X134168599Y-111038495D01*
X134196921Y-111058326D01*
X134231681Y-111082666D01*
X134275306Y-111137243D01*
X134282498Y-111206741D01*
X134267944Y-111246240D01*
X134212821Y-111341715D01*
X134212818Y-111341722D01*
X134154327Y-111521740D01*
X134154326Y-111521744D01*
X134134540Y-111710000D01*
X134154326Y-111898256D01*
X134154327Y-111898259D01*
X134212818Y-112078277D01*
X134212821Y-112078284D01*
X134307467Y-112242216D01*
X134434129Y-112382888D01*
X134587265Y-112494148D01*
X134587270Y-112494151D01*
X134760192Y-112571142D01*
X134760197Y-112571144D01*
X134945354Y-112610500D01*
X134945355Y-112610500D01*
X135134644Y-112610500D01*
X135134646Y-112610500D01*
X135319803Y-112571144D01*
X135492730Y-112494151D01*
X135645871Y-112382888D01*
X135772533Y-112242216D01*
X135867179Y-112078284D01*
X135925674Y-111898256D01*
X135945460Y-111710000D01*
X135925674Y-111521744D01*
X135867179Y-111341716D01*
X135812055Y-111246238D01*
X135795583Y-111178338D01*
X135818436Y-111112311D01*
X135848317Y-111082666D01*
X135911401Y-111038495D01*
X136078495Y-110871401D01*
X136214035Y-110677830D01*
X136313903Y-110463663D01*
X136375063Y-110235408D01*
X136395659Y-110000000D01*
X136375063Y-109764592D01*
X136313903Y-109536337D01*
X136214035Y-109322171D01*
X136208425Y-109314158D01*
X136078494Y-109128597D01*
X135911402Y-108961506D01*
X135911395Y-108961501D01*
X135717834Y-108825967D01*
X135717830Y-108825965D01*
X135717828Y-108825964D01*
X135503663Y-108726097D01*
X135503659Y-108726096D01*
X135503655Y-108726094D01*
X135275413Y-108664938D01*
X135275403Y-108664936D01*
X135040001Y-108644341D01*
X135039999Y-108644341D01*
X134804596Y-108664936D01*
X134804586Y-108664938D01*
X134576344Y-108726094D01*
X134576335Y-108726098D01*
X134362171Y-108825964D01*
X134362169Y-108825965D01*
X134168597Y-108961505D01*
X134001505Y-109128597D01*
X133871575Y-109314158D01*
X133816998Y-109357783D01*
X133747500Y-109364977D01*
X133685145Y-109333454D01*
X133668425Y-109314158D01*
X133538494Y-109128597D01*
X133371402Y-108961506D01*
X133371395Y-108961501D01*
X133177834Y-108825967D01*
X133177830Y-108825965D01*
X133177828Y-108825964D01*
X132963663Y-108726097D01*
X132963659Y-108726096D01*
X132963655Y-108726094D01*
X132735413Y-108664938D01*
X132735403Y-108664936D01*
X132500001Y-108644341D01*
X132499999Y-108644341D01*
X132264596Y-108664936D01*
X132264586Y-108664938D01*
X132036344Y-108726094D01*
X132036335Y-108726098D01*
X131822171Y-108825964D01*
X131822169Y-108825965D01*
X131628600Y-108961503D01*
X131506673Y-109083430D01*
X131445350Y-109116914D01*
X131375658Y-109111930D01*
X131319725Y-109070058D01*
X131302810Y-109039081D01*
X131253797Y-108907671D01*
X131253793Y-108907664D01*
X131167547Y-108792455D01*
X131167544Y-108792452D01*
X131052335Y-108706206D01*
X131052328Y-108706202D01*
X130917482Y-108655908D01*
X130917483Y-108655908D01*
X130857883Y-108649501D01*
X130857881Y-108649500D01*
X130857873Y-108649500D01*
X130857864Y-108649500D01*
X129062129Y-108649500D01*
X129062123Y-108649501D01*
X129002516Y-108655908D01*
X128867671Y-108706202D01*
X128867664Y-108706206D01*
X128752455Y-108792452D01*
X128752452Y-108792455D01*
X128666206Y-108907664D01*
X128666202Y-108907671D01*
X128615908Y-109042517D01*
X128609501Y-109102116D01*
X128609500Y-109102135D01*
X128609500Y-110897870D01*
X116200500Y-110897870D01*
X116200500Y-106147870D01*
X128599500Y-106147870D01*
X128599501Y-106147876D01*
X128605908Y-106207483D01*
X128656202Y-106342328D01*
X128656206Y-106342335D01*
X128742452Y-106457544D01*
X128742455Y-106457547D01*
X128857664Y-106543793D01*
X128857671Y-106543797D01*
X128992517Y-106594091D01*
X128992516Y-106594091D01*
X128999444Y-106594835D01*
X129052127Y-106600500D01*
X130847872Y-106600499D01*
X130907483Y-106594091D01*
X131042331Y-106543796D01*
X131157546Y-106457546D01*
X131243796Y-106342331D01*
X131292810Y-106210916D01*
X131334681Y-106154984D01*
X131400145Y-106130566D01*
X131468418Y-106145417D01*
X131496673Y-106166569D01*
X131618599Y-106288495D01*
X131715384Y-106356265D01*
X131812165Y-106424032D01*
X131812167Y-106424033D01*
X131812170Y-106424035D01*
X132026337Y-106523903D01*
X132254592Y-106585063D01*
X132431034Y-106600500D01*
X132489999Y-106605659D01*
X132490000Y-106605659D01*
X132490001Y-106605659D01*
X132548966Y-106600500D01*
X132725408Y-106585063D01*
X132953663Y-106523903D01*
X133167830Y-106424035D01*
X133361401Y-106288495D01*
X133528495Y-106121401D01*
X133658425Y-105935842D01*
X133713002Y-105892217D01*
X133782500Y-105885023D01*
X133844855Y-105916546D01*
X133861575Y-105935842D01*
X133991500Y-106121395D01*
X133991505Y-106121401D01*
X134158599Y-106288495D01*
X134255384Y-106356265D01*
X134352165Y-106424032D01*
X134352167Y-106424033D01*
X134352170Y-106424035D01*
X134566337Y-106523903D01*
X134794592Y-106585063D01*
X134971034Y-106600500D01*
X135029999Y-106605659D01*
X135030000Y-106605659D01*
X135030001Y-106605659D01*
X135088966Y-106600500D01*
X135265408Y-106585063D01*
X135493663Y-106523903D01*
X135707830Y-106424035D01*
X135901401Y-106288495D01*
X136068495Y-106121401D01*
X136198425Y-105935842D01*
X136253002Y-105892217D01*
X136322500Y-105885023D01*
X136384855Y-105916546D01*
X136401575Y-105935842D01*
X136531500Y-106121395D01*
X136531505Y-106121401D01*
X136698599Y-106288495D01*
X136795384Y-106356265D01*
X136892165Y-106424032D01*
X136892167Y-106424033D01*
X136892170Y-106424035D01*
X137106337Y-106523903D01*
X137334592Y-106585063D01*
X137511034Y-106600500D01*
X137569999Y-106605659D01*
X137570000Y-106605659D01*
X137570001Y-106605659D01*
X137628966Y-106600500D01*
X137805408Y-106585063D01*
X138033663Y-106523903D01*
X138247830Y-106424035D01*
X138441401Y-106288495D01*
X138608495Y-106121401D01*
X138744035Y-105927830D01*
X138843903Y-105713663D01*
X138905063Y-105485408D01*
X138925659Y-105250000D01*
X138905063Y-105014592D01*
X138843903Y-104786337D01*
X138744035Y-104572171D01*
X138738425Y-104564158D01*
X138608494Y-104378597D01*
X138441402Y-104211506D01*
X138441395Y-104211501D01*
X138247834Y-104075967D01*
X138247830Y-104075965D01*
X138247828Y-104075964D01*
X138033663Y-103976097D01*
X138033659Y-103976096D01*
X138033655Y-103976094D01*
X137805413Y-103914938D01*
X137805403Y-103914936D01*
X137570001Y-103894341D01*
X137569999Y-103894341D01*
X137334596Y-103914936D01*
X137334586Y-103914938D01*
X137106344Y-103976094D01*
X137106335Y-103976098D01*
X136892171Y-104075964D01*
X136892169Y-104075965D01*
X136698597Y-104211505D01*
X136531505Y-104378597D01*
X136401575Y-104564158D01*
X136346998Y-104607783D01*
X136277500Y-104614977D01*
X136215145Y-104583454D01*
X136198425Y-104564158D01*
X136068494Y-104378597D01*
X135901402Y-104211506D01*
X135901395Y-104211501D01*
X135707834Y-104075967D01*
X135707830Y-104075965D01*
X135707828Y-104075964D01*
X135493663Y-103976097D01*
X135493659Y-103976096D01*
X135493655Y-103976094D01*
X135265413Y-103914938D01*
X135265403Y-103914936D01*
X135030001Y-103894341D01*
X135029999Y-103894341D01*
X134794596Y-103914936D01*
X134794586Y-103914938D01*
X134566344Y-103976094D01*
X134566335Y-103976098D01*
X134352171Y-104075964D01*
X134352169Y-104075965D01*
X134158597Y-104211505D01*
X133991505Y-104378597D01*
X133861575Y-104564158D01*
X133806998Y-104607783D01*
X133737500Y-104614977D01*
X133675145Y-104583454D01*
X133658425Y-104564158D01*
X133528494Y-104378597D01*
X133361402Y-104211506D01*
X133361395Y-104211501D01*
X133167834Y-104075967D01*
X133167830Y-104075965D01*
X133167828Y-104075964D01*
X132953663Y-103976097D01*
X132953659Y-103976096D01*
X132953655Y-103976094D01*
X132725413Y-103914938D01*
X132725403Y-103914936D01*
X132490001Y-103894341D01*
X132489999Y-103894341D01*
X132254596Y-103914936D01*
X132254586Y-103914938D01*
X132026344Y-103976094D01*
X132026335Y-103976098D01*
X131812171Y-104075964D01*
X131812169Y-104075965D01*
X131618600Y-104211503D01*
X131496673Y-104333430D01*
X131435350Y-104366914D01*
X131365658Y-104361930D01*
X131309725Y-104320058D01*
X131292810Y-104289081D01*
X131243797Y-104157671D01*
X131243793Y-104157664D01*
X131157547Y-104042455D01*
X131157544Y-104042452D01*
X131042335Y-103956206D01*
X131042328Y-103956202D01*
X130907482Y-103905908D01*
X130907483Y-103905908D01*
X130847883Y-103899501D01*
X130847881Y-103899500D01*
X130847873Y-103899500D01*
X130847864Y-103899500D01*
X129052129Y-103899500D01*
X129052123Y-103899501D01*
X128992516Y-103905908D01*
X128857671Y-103956202D01*
X128857664Y-103956206D01*
X128742455Y-104042452D01*
X128742452Y-104042455D01*
X128656206Y-104157664D01*
X128656202Y-104157671D01*
X128605908Y-104292517D01*
X128599501Y-104352116D01*
X128599500Y-104352135D01*
X128599500Y-106147870D01*
X116200500Y-106147870D01*
X116200500Y-103650000D01*
X155041550Y-103650000D01*
X155060122Y-103885977D01*
X155115378Y-104116136D01*
X155205960Y-104334822D01*
X155329634Y-104536640D01*
X155329635Y-104536641D01*
X155329636Y-104536643D01*
X155329638Y-104536645D01*
X155483365Y-104716635D01*
X155663355Y-104870362D01*
X155663357Y-104870363D01*
X155663358Y-104870364D01*
X155663359Y-104870365D01*
X155865177Y-104994039D01*
X156083863Y-105084621D01*
X156314026Y-105139878D01*
X156550000Y-105158450D01*
X156785974Y-105139878D01*
X157016137Y-105084621D01*
X157234822Y-104994039D01*
X157436645Y-104870362D01*
X157616635Y-104716635D01*
X157770362Y-104536645D01*
X157894039Y-104334822D01*
X157984621Y-104116137D01*
X158039878Y-103885974D01*
X158058450Y-103650000D01*
X158039878Y-103414026D01*
X157984621Y-103183863D01*
X157894039Y-102965178D01*
X157894039Y-102965177D01*
X157770365Y-102763359D01*
X157770364Y-102763358D01*
X157770363Y-102763357D01*
X157770362Y-102763355D01*
X157616635Y-102583365D01*
X157436645Y-102429638D01*
X157436643Y-102429636D01*
X157436641Y-102429635D01*
X157436640Y-102429634D01*
X157234822Y-102305960D01*
X157016136Y-102215378D01*
X156785977Y-102160122D01*
X156550000Y-102141550D01*
X156314022Y-102160122D01*
X156083863Y-102215378D01*
X155865177Y-102305960D01*
X155663359Y-102429634D01*
X155663358Y-102429635D01*
X155483365Y-102583365D01*
X155329635Y-102763358D01*
X155329634Y-102763359D01*
X155205960Y-102965177D01*
X155115378Y-103183863D01*
X155060122Y-103414022D01*
X155041550Y-103650000D01*
X116200500Y-103650000D01*
X116200500Y-100000004D01*
X120294732Y-100000004D01*
X120313777Y-100254154D01*
X120313778Y-100254157D01*
X120370492Y-100502637D01*
X120463607Y-100739888D01*
X120591041Y-100960612D01*
X120749950Y-101159877D01*
X120936783Y-101333232D01*
X121147366Y-101476805D01*
X121147371Y-101476807D01*
X121147372Y-101476808D01*
X121147373Y-101476809D01*
X121269328Y-101535538D01*
X121376992Y-101587387D01*
X121376993Y-101587387D01*
X121376996Y-101587389D01*
X121620542Y-101662513D01*
X121872565Y-101700500D01*
X122127435Y-101700500D01*
X122379458Y-101662513D01*
X122623004Y-101587389D01*
X122852634Y-101476805D01*
X123063217Y-101333232D01*
X123250050Y-101159877D01*
X123408959Y-100960612D01*
X123536393Y-100739888D01*
X123629508Y-100502637D01*
X123686222Y-100254157D01*
X123705268Y-100000000D01*
X123686222Y-99745843D01*
X123629508Y-99497363D01*
X123536393Y-99260112D01*
X123408959Y-99039388D01*
X123250050Y-98840123D01*
X123063217Y-98666768D01*
X122852634Y-98523195D01*
X122852630Y-98523193D01*
X122852627Y-98523191D01*
X122852626Y-98523190D01*
X122623006Y-98412612D01*
X122623008Y-98412612D01*
X122379466Y-98337489D01*
X122379462Y-98337488D01*
X122379458Y-98337487D01*
X122258231Y-98319214D01*
X122127440Y-98299500D01*
X122127435Y-98299500D01*
X121872565Y-98299500D01*
X121872559Y-98299500D01*
X121715609Y-98323157D01*
X121620542Y-98337487D01*
X121620539Y-98337488D01*
X121620533Y-98337489D01*
X121376992Y-98412612D01*
X121147373Y-98523190D01*
X121147372Y-98523191D01*
X120936782Y-98666768D01*
X120749952Y-98840121D01*
X120749950Y-98840123D01*
X120591041Y-99039388D01*
X120463608Y-99260109D01*
X120370492Y-99497362D01*
X120370490Y-99497369D01*
X120313777Y-99745845D01*
X120294732Y-99999995D01*
X120294732Y-100000004D01*
X116200500Y-100000004D01*
X116200500Y-96147870D01*
X125109500Y-96147870D01*
X125109501Y-96147876D01*
X125115908Y-96207483D01*
X125166202Y-96342328D01*
X125166206Y-96342335D01*
X125252452Y-96457544D01*
X125252455Y-96457547D01*
X125367664Y-96543793D01*
X125367671Y-96543797D01*
X125502517Y-96594091D01*
X125502516Y-96594091D01*
X125509444Y-96594835D01*
X125562127Y-96600500D01*
X127357872Y-96600499D01*
X127417483Y-96594091D01*
X127552331Y-96543796D01*
X127667546Y-96457546D01*
X127753796Y-96342331D01*
X127804091Y-96207483D01*
X127810500Y-96147873D01*
X127810499Y-95250000D01*
X130184341Y-95250000D01*
X130204936Y-95485403D01*
X130204938Y-95485413D01*
X130266094Y-95713655D01*
X130266096Y-95713659D01*
X130266097Y-95713663D01*
X130329449Y-95849522D01*
X130365965Y-95927830D01*
X130365967Y-95927834D01*
X130474281Y-96082521D01*
X130501505Y-96121401D01*
X130668599Y-96288495D01*
X130765384Y-96356265D01*
X130862165Y-96424032D01*
X130862167Y-96424033D01*
X130862170Y-96424035D01*
X131076337Y-96523903D01*
X131304592Y-96585063D01*
X131481034Y-96600500D01*
X131539999Y-96605659D01*
X131540000Y-96605659D01*
X131540001Y-96605659D01*
X131598966Y-96600500D01*
X131775408Y-96585063D01*
X132003663Y-96523903D01*
X132054917Y-96500003D01*
X139694435Y-96500003D01*
X139714630Y-96679249D01*
X139714631Y-96679254D01*
X139774211Y-96849523D01*
X139870184Y-97002262D01*
X139997738Y-97129816D01*
X140150478Y-97225789D01*
X140320745Y-97285368D01*
X140320750Y-97285369D01*
X140499996Y-97305565D01*
X140500000Y-97305565D01*
X140500004Y-97305565D01*
X140679249Y-97285369D01*
X140679252Y-97285368D01*
X140679255Y-97285368D01*
X140849522Y-97225789D01*
X141002262Y-97129816D01*
X141129816Y-97002262D01*
X141225789Y-96849522D01*
X141285368Y-96679255D01*
X141285369Y-96679249D01*
X141305565Y-96500003D01*
X141305565Y-96499996D01*
X141285369Y-96320750D01*
X141285368Y-96320745D01*
X141274083Y-96288495D01*
X141225789Y-96150478D01*
X141224158Y-96147883D01*
X141186582Y-96088080D01*
X141129816Y-95997738D01*
X141002262Y-95870184D01*
X140969379Y-95849522D01*
X140849523Y-95774211D01*
X140679254Y-95714631D01*
X140679249Y-95714630D01*
X140500004Y-95694435D01*
X140499996Y-95694435D01*
X140320750Y-95714630D01*
X140320745Y-95714631D01*
X140150476Y-95774211D01*
X139997737Y-95870184D01*
X139870184Y-95997737D01*
X139774211Y-96150476D01*
X139714631Y-96320745D01*
X139714630Y-96320750D01*
X139694435Y-96499996D01*
X139694435Y-96500003D01*
X132054917Y-96500003D01*
X132217830Y-96424035D01*
X132411401Y-96288495D01*
X132578495Y-96121401D01*
X132714035Y-95927830D01*
X132813903Y-95713663D01*
X132871152Y-95500003D01*
X137444435Y-95500003D01*
X137464630Y-95679249D01*
X137464631Y-95679254D01*
X137524211Y-95849523D01*
X137617341Y-95997737D01*
X137620184Y-96002262D01*
X137747738Y-96129816D01*
X137838080Y-96186582D01*
X137871342Y-96207482D01*
X137900478Y-96225789D01*
X138070745Y-96285368D01*
X138070750Y-96285369D01*
X138249996Y-96305565D01*
X138250000Y-96305565D01*
X138250004Y-96305565D01*
X138429249Y-96285369D01*
X138429252Y-96285368D01*
X138429255Y-96285368D01*
X138599522Y-96225789D01*
X138752262Y-96129816D01*
X138879816Y-96002262D01*
X138975789Y-95849522D01*
X139035368Y-95679255D01*
X139037633Y-95659151D01*
X139055565Y-95500003D01*
X139055565Y-95499996D01*
X139035369Y-95320750D01*
X139035368Y-95320745D01*
X138975788Y-95150476D01*
X138920984Y-95063256D01*
X138879816Y-94997738D01*
X138752262Y-94870184D01*
X138618832Y-94786344D01*
X138599523Y-94774211D01*
X138429254Y-94714631D01*
X138429249Y-94714630D01*
X138250004Y-94694435D01*
X138249996Y-94694435D01*
X138070750Y-94714630D01*
X138070745Y-94714631D01*
X137900476Y-94774211D01*
X137747737Y-94870184D01*
X137620184Y-94997737D01*
X137524211Y-95150476D01*
X137464631Y-95320745D01*
X137464630Y-95320750D01*
X137444435Y-95499996D01*
X137444435Y-95500003D01*
X132871152Y-95500003D01*
X132875063Y-95485408D01*
X132895659Y-95250000D01*
X132875063Y-95014592D01*
X132813903Y-94786337D01*
X132714035Y-94572171D01*
X132668208Y-94506722D01*
X132578494Y-94378597D01*
X132411402Y-94211506D01*
X132411395Y-94211501D01*
X132217834Y-94075967D01*
X132217830Y-94075965D01*
X132217828Y-94075964D01*
X132003663Y-93976097D01*
X132003659Y-93976096D01*
X132003655Y-93976094D01*
X131983259Y-93970629D01*
X143667625Y-93970629D01*
X143687820Y-94149875D01*
X143687821Y-94149880D01*
X143747401Y-94320149D01*
X143843374Y-94472888D01*
X143970928Y-94600442D01*
X144061270Y-94657208D01*
X144120516Y-94694435D01*
X144123668Y-94696415D01*
X144293935Y-94755994D01*
X144293940Y-94755995D01*
X144473186Y-94776191D01*
X144473190Y-94776191D01*
X144473194Y-94776191D01*
X144652439Y-94755995D01*
X144652442Y-94755994D01*
X144652445Y-94755994D01*
X144822712Y-94696415D01*
X144975452Y-94600442D01*
X145103006Y-94472888D01*
X145198979Y-94320148D01*
X145258558Y-94149881D01*
X145265209Y-94090850D01*
X145278755Y-93970629D01*
X145278755Y-93970622D01*
X145258559Y-93791376D01*
X145258558Y-93791371D01*
X145235610Y-93725789D01*
X145198979Y-93621104D01*
X145103006Y-93468364D01*
X144975452Y-93340810D01*
X144886437Y-93284878D01*
X144822713Y-93244837D01*
X144652444Y-93185257D01*
X144652439Y-93185256D01*
X144473194Y-93165061D01*
X144473186Y-93165061D01*
X144293940Y-93185256D01*
X144293935Y-93185257D01*
X144123666Y-93244837D01*
X143970927Y-93340810D01*
X143843374Y-93468363D01*
X143747401Y-93621102D01*
X143687821Y-93791371D01*
X143687820Y-93791376D01*
X143667625Y-93970622D01*
X143667625Y-93970629D01*
X131983259Y-93970629D01*
X131775413Y-93914938D01*
X131775403Y-93914936D01*
X131540001Y-93894341D01*
X131539999Y-93894341D01*
X131304596Y-93914936D01*
X131304586Y-93914938D01*
X131076344Y-93976094D01*
X131076335Y-93976098D01*
X130862171Y-94075964D01*
X130862169Y-94075965D01*
X130668597Y-94211505D01*
X130501505Y-94378597D01*
X130365965Y-94572169D01*
X130365964Y-94572171D01*
X130266098Y-94786335D01*
X130266094Y-94786344D01*
X130204938Y-95014586D01*
X130204936Y-95014596D01*
X130184341Y-95249999D01*
X130184341Y-95250000D01*
X127810499Y-95250000D01*
X127810499Y-94352128D01*
X127804091Y-94292517D01*
X127792613Y-94261744D01*
X127753797Y-94157671D01*
X127753793Y-94157664D01*
X127667547Y-94042455D01*
X127667544Y-94042452D01*
X127552335Y-93956206D01*
X127552328Y-93956202D01*
X127417482Y-93905908D01*
X127417483Y-93905908D01*
X127357883Y-93899501D01*
X127357881Y-93899500D01*
X127357873Y-93899500D01*
X127357864Y-93899500D01*
X125562129Y-93899500D01*
X125562123Y-93899501D01*
X125502516Y-93905908D01*
X125367671Y-93956202D01*
X125367664Y-93956206D01*
X125252455Y-94042452D01*
X125252452Y-94042455D01*
X125166206Y-94157664D01*
X125166202Y-94157671D01*
X125115908Y-94292517D01*
X125110504Y-94342785D01*
X125109501Y-94352123D01*
X125109500Y-94352135D01*
X125109500Y-96147870D01*
X116200500Y-96147870D01*
X116200500Y-92125004D01*
X120294732Y-92125004D01*
X120313777Y-92379154D01*
X120360719Y-92584822D01*
X120370492Y-92627637D01*
X120463607Y-92864888D01*
X120591041Y-93085612D01*
X120749950Y-93284877D01*
X120936783Y-93458232D01*
X121147366Y-93601805D01*
X121147371Y-93601807D01*
X121147372Y-93601808D01*
X121147373Y-93601809D01*
X121205529Y-93629815D01*
X121376992Y-93712387D01*
X121376993Y-93712387D01*
X121376996Y-93712389D01*
X121620542Y-93787513D01*
X121655094Y-93792720D01*
X121718450Y-93822176D01*
X121755824Y-93881209D01*
X121755349Y-93951077D01*
X121717176Y-94009597D01*
X121687049Y-94028614D01*
X121547267Y-94090850D01*
X121547265Y-94090851D01*
X121394129Y-94202111D01*
X121267466Y-94342785D01*
X121172821Y-94506715D01*
X121172818Y-94506722D01*
X121114327Y-94686740D01*
X121114326Y-94686744D01*
X121094540Y-94875000D01*
X121114326Y-95063256D01*
X121114327Y-95063259D01*
X121172818Y-95243277D01*
X121172821Y-95243284D01*
X121267467Y-95407216D01*
X121351013Y-95500003D01*
X121394129Y-95547888D01*
X121547265Y-95659148D01*
X121547270Y-95659151D01*
X121720192Y-95736142D01*
X121720197Y-95736144D01*
X121905354Y-95775500D01*
X121905355Y-95775500D01*
X122094644Y-95775500D01*
X122094646Y-95775500D01*
X122279803Y-95736144D01*
X122452730Y-95659151D01*
X122605871Y-95547888D01*
X122732533Y-95407216D01*
X122827179Y-95243284D01*
X122885674Y-95063256D01*
X122905460Y-94875000D01*
X122885674Y-94686744D01*
X122827179Y-94506716D01*
X122732533Y-94342784D01*
X122605871Y-94202112D01*
X122605870Y-94202111D01*
X122452734Y-94090851D01*
X122452729Y-94090848D01*
X122312951Y-94028614D01*
X122259714Y-93983364D01*
X122239393Y-93916514D01*
X122258439Y-93849291D01*
X122310805Y-93803036D01*
X122344901Y-93792721D01*
X122379458Y-93787513D01*
X122623004Y-93712389D01*
X122852634Y-93601805D01*
X123063217Y-93458232D01*
X123250050Y-93284877D01*
X123408959Y-93085612D01*
X123458385Y-93000003D01*
X136844435Y-93000003D01*
X136864630Y-93179249D01*
X136864631Y-93179254D01*
X136924211Y-93349523D01*
X136992517Y-93458231D01*
X137020184Y-93502262D01*
X137147738Y-93629816D01*
X137300478Y-93725789D01*
X137447148Y-93777111D01*
X137470745Y-93785368D01*
X137470750Y-93785369D01*
X137649996Y-93805565D01*
X137650000Y-93805565D01*
X137650004Y-93805565D01*
X137829249Y-93785369D01*
X137829252Y-93785368D01*
X137829255Y-93785368D01*
X137999522Y-93725789D01*
X138152262Y-93629816D01*
X138279816Y-93502262D01*
X138375789Y-93349522D01*
X138435368Y-93179255D01*
X138435369Y-93179249D01*
X138455565Y-93000003D01*
X138455565Y-93000000D01*
X139344540Y-93000000D01*
X139364326Y-93188256D01*
X139364327Y-93188259D01*
X139422818Y-93368277D01*
X139422821Y-93368284D01*
X139517467Y-93532216D01*
X139605346Y-93629815D01*
X139644129Y-93672888D01*
X139797265Y-93784148D01*
X139797270Y-93784151D01*
X139970192Y-93861142D01*
X139970197Y-93861144D01*
X140155354Y-93900500D01*
X140155355Y-93900500D01*
X140344644Y-93900500D01*
X140344646Y-93900500D01*
X140529803Y-93861144D01*
X140702730Y-93784151D01*
X140855871Y-93672888D01*
X140982533Y-93532216D01*
X141017613Y-93471454D01*
X141068179Y-93423240D01*
X141136786Y-93410016D01*
X141201651Y-93435984D01*
X141232385Y-93471453D01*
X141250173Y-93502262D01*
X141267467Y-93532216D01*
X141394129Y-93672888D01*
X141547265Y-93784148D01*
X141547270Y-93784151D01*
X141720192Y-93861142D01*
X141720197Y-93861144D01*
X141905354Y-93900500D01*
X141905355Y-93900500D01*
X142094644Y-93900500D01*
X142094646Y-93900500D01*
X142279803Y-93861144D01*
X142452730Y-93784151D01*
X142605871Y-93672888D01*
X142732533Y-93532216D01*
X142827179Y-93368284D01*
X142885674Y-93188256D01*
X142905460Y-93000000D01*
X142885674Y-92811744D01*
X142827179Y-92631716D01*
X142732533Y-92467784D01*
X142605871Y-92327112D01*
X142605870Y-92327111D01*
X142452734Y-92215851D01*
X142452729Y-92215848D01*
X142279807Y-92138857D01*
X142279800Y-92138855D01*
X142197161Y-92121290D01*
X142135679Y-92088098D01*
X142101902Y-92026935D01*
X142106554Y-91957221D01*
X142148158Y-91901088D01*
X142150540Y-91900000D01*
X155041550Y-91900000D01*
X155060122Y-92135977D01*
X155115378Y-92366136D01*
X155205960Y-92584822D01*
X155329634Y-92786640D01*
X155329635Y-92786641D01*
X155329636Y-92786643D01*
X155329638Y-92786645D01*
X155483365Y-92966635D01*
X155663355Y-93120362D01*
X155663357Y-93120363D01*
X155663358Y-93120364D01*
X155663359Y-93120365D01*
X155865177Y-93244039D01*
X155963770Y-93284877D01*
X156083863Y-93334621D01*
X156220699Y-93367472D01*
X156281292Y-93402262D01*
X156313456Y-93464288D01*
X156306980Y-93533857D01*
X156263921Y-93588882D01*
X156242190Y-93601325D01*
X156097267Y-93665850D01*
X156097265Y-93665851D01*
X155944129Y-93777111D01*
X155817466Y-93917785D01*
X155722821Y-94081715D01*
X155722818Y-94081722D01*
X155680649Y-94211506D01*
X155664326Y-94261744D01*
X155644540Y-94450000D01*
X155664326Y-94638256D01*
X155664327Y-94638259D01*
X155722818Y-94818277D01*
X155722821Y-94818284D01*
X155817467Y-94982216D01*
X155890436Y-95063256D01*
X155944129Y-95122888D01*
X156097265Y-95234148D01*
X156097270Y-95234151D01*
X156270192Y-95311142D01*
X156270197Y-95311144D01*
X156455354Y-95350500D01*
X156455355Y-95350500D01*
X156644644Y-95350500D01*
X156644646Y-95350500D01*
X156829803Y-95311144D01*
X157002730Y-95234151D01*
X157155871Y-95122888D01*
X157282533Y-94982216D01*
X157377179Y-94818284D01*
X157435674Y-94638256D01*
X157455460Y-94450000D01*
X157435674Y-94261744D01*
X157377179Y-94081716D01*
X157282533Y-93917784D01*
X157155871Y-93777112D01*
X157085231Y-93725789D01*
X157002734Y-93665851D01*
X157002729Y-93665848D01*
X156857810Y-93601325D01*
X156804573Y-93556075D01*
X156784252Y-93489225D01*
X156803298Y-93422002D01*
X156855664Y-93375747D01*
X156879295Y-93367473D01*
X157016137Y-93334621D01*
X157234822Y-93244039D01*
X157436645Y-93120362D01*
X157616635Y-92966635D01*
X157770362Y-92786645D01*
X157894039Y-92584822D01*
X157984621Y-92366137D01*
X158039878Y-92135974D01*
X158058450Y-91900000D01*
X158039878Y-91664026D01*
X157984621Y-91433863D01*
X157964428Y-91385112D01*
X157894039Y-91215177D01*
X157770365Y-91013359D01*
X157770364Y-91013358D01*
X157770363Y-91013357D01*
X157770362Y-91013355D01*
X157616635Y-90833365D01*
X157436645Y-90679638D01*
X157436643Y-90679636D01*
X157436641Y-90679635D01*
X157436640Y-90679634D01*
X157234822Y-90555960D01*
X157016136Y-90465378D01*
X156785977Y-90410122D01*
X156550000Y-90391550D01*
X156314022Y-90410122D01*
X156083863Y-90465378D01*
X155865177Y-90555960D01*
X155663359Y-90679634D01*
X155663358Y-90679635D01*
X155483365Y-90833365D01*
X155329635Y-91013358D01*
X155329634Y-91013359D01*
X155205960Y-91215177D01*
X155115378Y-91433863D01*
X155060122Y-91664022D01*
X155041550Y-91900000D01*
X142150540Y-91900000D01*
X142197161Y-91878710D01*
X142203201Y-91877426D01*
X142279803Y-91861144D01*
X142452730Y-91784151D01*
X142605871Y-91672888D01*
X142732533Y-91532216D01*
X142827179Y-91368284D01*
X142885674Y-91188256D01*
X142905460Y-91000000D01*
X142885674Y-90811744D01*
X142827179Y-90631716D01*
X142732533Y-90467784D01*
X142605871Y-90327112D01*
X142605870Y-90327111D01*
X142452734Y-90215851D01*
X142452729Y-90215848D01*
X142279807Y-90138857D01*
X142279802Y-90138855D01*
X142134001Y-90107865D01*
X142094646Y-90099500D01*
X141905354Y-90099500D01*
X141872897Y-90106398D01*
X141720197Y-90138855D01*
X141720192Y-90138857D01*
X141547270Y-90215848D01*
X141547265Y-90215851D01*
X141394129Y-90327111D01*
X141267466Y-90467785D01*
X141232387Y-90528544D01*
X141181820Y-90576760D01*
X141113213Y-90589983D01*
X141048348Y-90564015D01*
X141017613Y-90528544D01*
X140992705Y-90485403D01*
X140982533Y-90467784D01*
X140855871Y-90327112D01*
X140855870Y-90327111D01*
X140702734Y-90215851D01*
X140702729Y-90215848D01*
X140529807Y-90138857D01*
X140529802Y-90138855D01*
X140384001Y-90107865D01*
X140344646Y-90099500D01*
X140155354Y-90099500D01*
X140122897Y-90106398D01*
X139970197Y-90138855D01*
X139970192Y-90138857D01*
X139797270Y-90215848D01*
X139797265Y-90215851D01*
X139644129Y-90327111D01*
X139517466Y-90467785D01*
X139422821Y-90631715D01*
X139422818Y-90631722D01*
X139364327Y-90811740D01*
X139364326Y-90811744D01*
X139344540Y-91000000D01*
X139364326Y-91188256D01*
X139364327Y-91188259D01*
X139422818Y-91368277D01*
X139422821Y-91368284D01*
X139517467Y-91532216D01*
X139636146Y-91664022D01*
X139644129Y-91672888D01*
X139797265Y-91784148D01*
X139797270Y-91784151D01*
X139970192Y-91861142D01*
X139970197Y-91861144D01*
X140052839Y-91878710D01*
X140114321Y-91911902D01*
X140148097Y-91973065D01*
X140143445Y-92042780D01*
X140101840Y-92098912D01*
X140052839Y-92121290D01*
X139970197Y-92138855D01*
X139970192Y-92138857D01*
X139797270Y-92215848D01*
X139797265Y-92215851D01*
X139644129Y-92327111D01*
X139517466Y-92467785D01*
X139422821Y-92631715D01*
X139422818Y-92631722D01*
X139372481Y-92786645D01*
X139364326Y-92811744D01*
X139344540Y-93000000D01*
X138455565Y-93000000D01*
X138455565Y-92999996D01*
X138435369Y-92820750D01*
X138435368Y-92820745D01*
X138375788Y-92650476D01*
X138279815Y-92497737D01*
X138152262Y-92370184D01*
X137999523Y-92274211D01*
X137829254Y-92214631D01*
X137829249Y-92214630D01*
X137650004Y-92194435D01*
X137649996Y-92194435D01*
X137470750Y-92214630D01*
X137470745Y-92214631D01*
X137300476Y-92274211D01*
X137147737Y-92370184D01*
X137020184Y-92497737D01*
X136924211Y-92650476D01*
X136864631Y-92820745D01*
X136864630Y-92820750D01*
X136844435Y-92999996D01*
X136844435Y-93000003D01*
X123458385Y-93000003D01*
X123536393Y-92864888D01*
X123629508Y-92627637D01*
X123686222Y-92379157D01*
X123704230Y-92138855D01*
X123705268Y-92125004D01*
X123705268Y-92124995D01*
X123688407Y-91900000D01*
X123686222Y-91870843D01*
X123629508Y-91622363D01*
X123536393Y-91385112D01*
X123408959Y-91164388D01*
X123395786Y-91147870D01*
X125109500Y-91147870D01*
X125109501Y-91147876D01*
X125115908Y-91207483D01*
X125166202Y-91342328D01*
X125166206Y-91342335D01*
X125252452Y-91457544D01*
X125252455Y-91457547D01*
X125367664Y-91543793D01*
X125367671Y-91543797D01*
X125502517Y-91594091D01*
X125502516Y-91594091D01*
X125509444Y-91594835D01*
X125562127Y-91600500D01*
X127357872Y-91600499D01*
X127417483Y-91594091D01*
X127552331Y-91543796D01*
X127667546Y-91457546D01*
X127753796Y-91342331D01*
X127804091Y-91207483D01*
X127810500Y-91147873D01*
X127810499Y-90250000D01*
X130184341Y-90250000D01*
X130204936Y-90485403D01*
X130204938Y-90485413D01*
X130266094Y-90713655D01*
X130266096Y-90713659D01*
X130266097Y-90713663D01*
X130302518Y-90791768D01*
X130365965Y-90927830D01*
X130365967Y-90927834D01*
X130416499Y-91000000D01*
X130501505Y-91121401D01*
X130668599Y-91288495D01*
X130765384Y-91356265D01*
X130862165Y-91424032D01*
X130862167Y-91424033D01*
X130862170Y-91424035D01*
X131076337Y-91523903D01*
X131304592Y-91585063D01*
X131481034Y-91600500D01*
X131539999Y-91605659D01*
X131540000Y-91605659D01*
X131540001Y-91605659D01*
X131598966Y-91600500D01*
X131775408Y-91585063D01*
X132003663Y-91523903D01*
X132217830Y-91424035D01*
X132411401Y-91288495D01*
X132578495Y-91121401D01*
X132714035Y-90927830D01*
X132813903Y-90713663D01*
X132875063Y-90485408D01*
X132895659Y-90250000D01*
X132875063Y-90014592D01*
X132813903Y-89786337D01*
X132714035Y-89572171D01*
X132663503Y-89500003D01*
X137194435Y-89500003D01*
X137214630Y-89679249D01*
X137214631Y-89679254D01*
X137274211Y-89849523D01*
X137353549Y-89975788D01*
X137370184Y-90002262D01*
X137497738Y-90129816D01*
X137512127Y-90138857D01*
X137634661Y-90215851D01*
X137650478Y-90225789D01*
X137820745Y-90285368D01*
X137820750Y-90285369D01*
X137999996Y-90305565D01*
X138000000Y-90305565D01*
X138000004Y-90305565D01*
X138179249Y-90285369D01*
X138179252Y-90285368D01*
X138179255Y-90285368D01*
X138349522Y-90225789D01*
X138502262Y-90129816D01*
X138629816Y-90002262D01*
X138725789Y-89849522D01*
X138785368Y-89679255D01*
X138794352Y-89599522D01*
X138805565Y-89500003D01*
X138805565Y-89499996D01*
X138785369Y-89320750D01*
X138785368Y-89320745D01*
X138760614Y-89250003D01*
X143194435Y-89250003D01*
X143214630Y-89429249D01*
X143214631Y-89429254D01*
X143274211Y-89599523D01*
X143370184Y-89752262D01*
X143497738Y-89879816D01*
X143650478Y-89975789D01*
X143761371Y-90014592D01*
X143820745Y-90035368D01*
X143820750Y-90035369D01*
X143999996Y-90055565D01*
X144000000Y-90055565D01*
X144000004Y-90055565D01*
X144179249Y-90035369D01*
X144179252Y-90035368D01*
X144179255Y-90035368D01*
X144349522Y-89975789D01*
X144502262Y-89879816D01*
X144629816Y-89752262D01*
X144725789Y-89599522D01*
X144785368Y-89429255D01*
X144791076Y-89378597D01*
X144805565Y-89250003D01*
X144805565Y-89249996D01*
X144785369Y-89070750D01*
X144785368Y-89070745D01*
X144775468Y-89042452D01*
X144725789Y-88900478D01*
X144725174Y-88899500D01*
X144673082Y-88816595D01*
X144629816Y-88747738D01*
X144502262Y-88620184D01*
X144349523Y-88524211D01*
X144179254Y-88464631D01*
X144179249Y-88464630D01*
X144000004Y-88444435D01*
X143999996Y-88444435D01*
X143820750Y-88464630D01*
X143820745Y-88464631D01*
X143650476Y-88524211D01*
X143497737Y-88620184D01*
X143370184Y-88747737D01*
X143274211Y-88900476D01*
X143214631Y-89070745D01*
X143214630Y-89070750D01*
X143194435Y-89249996D01*
X143194435Y-89250003D01*
X138760614Y-89250003D01*
X138723489Y-89143905D01*
X138725635Y-89143153D01*
X138716037Y-89084854D01*
X138724391Y-89056407D01*
X138723489Y-89056092D01*
X138785366Y-88879259D01*
X138785369Y-88879246D01*
X138805565Y-88700000D01*
X138805565Y-88699993D01*
X138785369Y-88520747D01*
X138785368Y-88520742D01*
X138765734Y-88464631D01*
X138725789Y-88350475D01*
X138688399Y-88290969D01*
X138669399Y-88223732D01*
X138688400Y-88159025D01*
X138725789Y-88099522D01*
X138749685Y-88031230D01*
X140599046Y-88031230D01*
X140619241Y-88210476D01*
X140619242Y-88210481D01*
X140678822Y-88380750D01*
X140766789Y-88520747D01*
X140774795Y-88533489D01*
X140902349Y-88661043D01*
X140964338Y-88699993D01*
X141040321Y-88747737D01*
X141055089Y-88757016D01*
X141225356Y-88816595D01*
X141225361Y-88816596D01*
X141404607Y-88836792D01*
X141404611Y-88836792D01*
X141404615Y-88836792D01*
X141583860Y-88816596D01*
X141583863Y-88816595D01*
X141583866Y-88816595D01*
X141754133Y-88757016D01*
X141906873Y-88661043D01*
X142034427Y-88533489D01*
X142130400Y-88380749D01*
X142189979Y-88210482D01*
X142202481Y-88099522D01*
X142210176Y-88031230D01*
X142210176Y-88031223D01*
X142189980Y-87851977D01*
X142189979Y-87851972D01*
X142130400Y-87681705D01*
X142034427Y-87528965D01*
X141906873Y-87401411D01*
X141905385Y-87400476D01*
X141754134Y-87305438D01*
X141583865Y-87245858D01*
X141583860Y-87245857D01*
X141404615Y-87225662D01*
X141404607Y-87225662D01*
X141225361Y-87245857D01*
X141225356Y-87245858D01*
X141055087Y-87305438D01*
X140902348Y-87401411D01*
X140774795Y-87528964D01*
X140678822Y-87681703D01*
X140619242Y-87851972D01*
X140619241Y-87851977D01*
X140599046Y-88031223D01*
X140599046Y-88031230D01*
X138749685Y-88031230D01*
X138785368Y-87929255D01*
X138805565Y-87750000D01*
X138797870Y-87681705D01*
X138785369Y-87570750D01*
X138785368Y-87570745D01*
X138725789Y-87400478D01*
X138629816Y-87247738D01*
X138502262Y-87120184D01*
X138349523Y-87024211D01*
X138179254Y-86964631D01*
X138179249Y-86964630D01*
X138000004Y-86944435D01*
X137999996Y-86944435D01*
X137820750Y-86964630D01*
X137820745Y-86964631D01*
X137650476Y-87024211D01*
X137497737Y-87120184D01*
X137370184Y-87247737D01*
X137274211Y-87400476D01*
X137214631Y-87570745D01*
X137214630Y-87570750D01*
X137194435Y-87749996D01*
X137194435Y-87750003D01*
X137214630Y-87929249D01*
X137214631Y-87929254D01*
X137274211Y-88099524D01*
X137311599Y-88159025D01*
X137330600Y-88226262D01*
X137311600Y-88290969D01*
X137274209Y-88350476D01*
X137214633Y-88520734D01*
X137214630Y-88520747D01*
X137194435Y-88699993D01*
X137194435Y-88700000D01*
X137214630Y-88879246D01*
X137214633Y-88879259D01*
X137276510Y-89056091D01*
X137274366Y-89056840D01*
X137283960Y-89115158D01*
X137275612Y-89143592D01*
X137276510Y-89143906D01*
X137214633Y-89320737D01*
X137214630Y-89320750D01*
X137194435Y-89499996D01*
X137194435Y-89500003D01*
X132663503Y-89500003D01*
X132613961Y-89429249D01*
X132578494Y-89378597D01*
X132411402Y-89211506D01*
X132411395Y-89211501D01*
X132217834Y-89075967D01*
X132217830Y-89075965D01*
X132175210Y-89056091D01*
X132003663Y-88976097D01*
X132003659Y-88976096D01*
X132003655Y-88976094D01*
X131775413Y-88914938D01*
X131775403Y-88914936D01*
X131540001Y-88894341D01*
X131539999Y-88894341D01*
X131304596Y-88914936D01*
X131304586Y-88914938D01*
X131076344Y-88976094D01*
X131076335Y-88976098D01*
X130862171Y-89075964D01*
X130862169Y-89075965D01*
X130668597Y-89211505D01*
X130501505Y-89378597D01*
X130365965Y-89572169D01*
X130365964Y-89572171D01*
X130266098Y-89786335D01*
X130266094Y-89786344D01*
X130204938Y-90014586D01*
X130204936Y-90014596D01*
X130184341Y-90249999D01*
X130184341Y-90250000D01*
X127810499Y-90250000D01*
X127810499Y-89352128D01*
X127804091Y-89292517D01*
X127788234Y-89250003D01*
X127753797Y-89157671D01*
X127753793Y-89157664D01*
X127667547Y-89042455D01*
X127667544Y-89042452D01*
X127552335Y-88956206D01*
X127552328Y-88956202D01*
X127417482Y-88905908D01*
X127417483Y-88905908D01*
X127357883Y-88899501D01*
X127357881Y-88899500D01*
X127357873Y-88899500D01*
X127357864Y-88899500D01*
X125562129Y-88899500D01*
X125562123Y-88899501D01*
X125502516Y-88905908D01*
X125367671Y-88956202D01*
X125367664Y-88956206D01*
X125252455Y-89042452D01*
X125252452Y-89042455D01*
X125166206Y-89157664D01*
X125166202Y-89157671D01*
X125115908Y-89292517D01*
X125109501Y-89352116D01*
X125109501Y-89352123D01*
X125109500Y-89352135D01*
X125109500Y-91147870D01*
X123395786Y-91147870D01*
X123250050Y-90965123D01*
X123063217Y-90791768D01*
X122852634Y-90648195D01*
X122852630Y-90648193D01*
X122852627Y-90648191D01*
X122852626Y-90648190D01*
X122623006Y-90537612D01*
X122623008Y-90537612D01*
X122379466Y-90462489D01*
X122379462Y-90462488D01*
X122379458Y-90462487D01*
X122258231Y-90444214D01*
X122127440Y-90424500D01*
X122127435Y-90424500D01*
X121872565Y-90424500D01*
X121872559Y-90424500D01*
X121715609Y-90448157D01*
X121620542Y-90462487D01*
X121620539Y-90462488D01*
X121620533Y-90462489D01*
X121376992Y-90537612D01*
X121147373Y-90648190D01*
X121147372Y-90648191D01*
X120936782Y-90791768D01*
X120749952Y-90965121D01*
X120749950Y-90965123D01*
X120591041Y-91164388D01*
X120463608Y-91385109D01*
X120370492Y-91622362D01*
X120370490Y-91622369D01*
X120313777Y-91870845D01*
X120294732Y-92124995D01*
X120294732Y-92125004D01*
X116200500Y-92125004D01*
X116200500Y-82625004D01*
X120294732Y-82625004D01*
X120313777Y-82879154D01*
X120315854Y-82888256D01*
X120370492Y-83127637D01*
X120463607Y-83364888D01*
X120591041Y-83585612D01*
X120749950Y-83784877D01*
X120936783Y-83958232D01*
X121147366Y-84101805D01*
X121147371Y-84101807D01*
X121147372Y-84101808D01*
X121147373Y-84101809D01*
X121263358Y-84157664D01*
X121376992Y-84212387D01*
X121376993Y-84212387D01*
X121376996Y-84212389D01*
X121620542Y-84287513D01*
X121655094Y-84292720D01*
X121718450Y-84322176D01*
X121755824Y-84381209D01*
X121755349Y-84451077D01*
X121717176Y-84509597D01*
X121687049Y-84528614D01*
X121547267Y-84590850D01*
X121547265Y-84590851D01*
X121394129Y-84702111D01*
X121267466Y-84842785D01*
X121172821Y-85006715D01*
X121172818Y-85006722D01*
X121114327Y-85186740D01*
X121114326Y-85186744D01*
X121094540Y-85375000D01*
X121114326Y-85563256D01*
X121114327Y-85563259D01*
X121172818Y-85743277D01*
X121172821Y-85743284D01*
X121267467Y-85907216D01*
X121286032Y-85927834D01*
X121394129Y-86047888D01*
X121547265Y-86159148D01*
X121547270Y-86159151D01*
X121720192Y-86236142D01*
X121720197Y-86236144D01*
X121905354Y-86275500D01*
X121905355Y-86275500D01*
X122094644Y-86275500D01*
X122094646Y-86275500D01*
X122279803Y-86236144D01*
X122452730Y-86159151D01*
X122468257Y-86147870D01*
X125109500Y-86147870D01*
X125109501Y-86147876D01*
X125115908Y-86207483D01*
X125166202Y-86342328D01*
X125166206Y-86342335D01*
X125252452Y-86457544D01*
X125252455Y-86457547D01*
X125367664Y-86543793D01*
X125367671Y-86543797D01*
X125502517Y-86594091D01*
X125502516Y-86594091D01*
X125509444Y-86594835D01*
X125562127Y-86600500D01*
X127357872Y-86600499D01*
X127417483Y-86594091D01*
X127552331Y-86543796D01*
X127667546Y-86457546D01*
X127753796Y-86342331D01*
X127804091Y-86207483D01*
X127810500Y-86147873D01*
X127810499Y-85250000D01*
X130184341Y-85250000D01*
X130204936Y-85485403D01*
X130204938Y-85485413D01*
X130266094Y-85713655D01*
X130266096Y-85713659D01*
X130266097Y-85713663D01*
X130279910Y-85743284D01*
X130365965Y-85927830D01*
X130365967Y-85927834D01*
X130474281Y-86082521D01*
X130501505Y-86121401D01*
X130668599Y-86288495D01*
X130765384Y-86356265D01*
X130862165Y-86424032D01*
X130862167Y-86424033D01*
X130862170Y-86424035D01*
X131076337Y-86523903D01*
X131304592Y-86585063D01*
X131481034Y-86600500D01*
X131539999Y-86605659D01*
X131540000Y-86605659D01*
X131540001Y-86605659D01*
X131598966Y-86600500D01*
X131775408Y-86585063D01*
X132003663Y-86523903D01*
X132217830Y-86424035D01*
X132411401Y-86288495D01*
X132578495Y-86121401D01*
X132714035Y-85927830D01*
X132813903Y-85713663D01*
X132875063Y-85485408D01*
X132895659Y-85250000D01*
X132875063Y-85014592D01*
X132813903Y-84786337D01*
X132714035Y-84572171D01*
X132683537Y-84528614D01*
X132578494Y-84378597D01*
X132411402Y-84211506D01*
X132411395Y-84211501D01*
X132217834Y-84075967D01*
X132217830Y-84075965D01*
X132217828Y-84075964D01*
X132003663Y-83976097D01*
X132003659Y-83976096D01*
X132003655Y-83976094D01*
X131775413Y-83914938D01*
X131775403Y-83914936D01*
X131540001Y-83894341D01*
X131539999Y-83894341D01*
X131304596Y-83914936D01*
X131304586Y-83914938D01*
X131076344Y-83976094D01*
X131076335Y-83976098D01*
X130862171Y-84075964D01*
X130862169Y-84075965D01*
X130668597Y-84211505D01*
X130501505Y-84378597D01*
X130365965Y-84572169D01*
X130365964Y-84572171D01*
X130266098Y-84786335D01*
X130266094Y-84786344D01*
X130204938Y-85014586D01*
X130204936Y-85014596D01*
X130184341Y-85249999D01*
X130184341Y-85250000D01*
X127810499Y-85250000D01*
X127810499Y-84352128D01*
X127804091Y-84292517D01*
X127802224Y-84287512D01*
X127753797Y-84157671D01*
X127753793Y-84157664D01*
X127667547Y-84042455D01*
X127667544Y-84042452D01*
X127552335Y-83956206D01*
X127552328Y-83956202D01*
X127417482Y-83905908D01*
X127417483Y-83905908D01*
X127357883Y-83899501D01*
X127357881Y-83899500D01*
X127357873Y-83899500D01*
X127357864Y-83899500D01*
X125562129Y-83899500D01*
X125562123Y-83899501D01*
X125502516Y-83905908D01*
X125367671Y-83956202D01*
X125367664Y-83956206D01*
X125252455Y-84042452D01*
X125252452Y-84042455D01*
X125166206Y-84157664D01*
X125166202Y-84157671D01*
X125115908Y-84292517D01*
X125109805Y-84349291D01*
X125109501Y-84352123D01*
X125109500Y-84352135D01*
X125109500Y-86147870D01*
X122468257Y-86147870D01*
X122605871Y-86047888D01*
X122732533Y-85907216D01*
X122827179Y-85743284D01*
X122885674Y-85563256D01*
X122905460Y-85375000D01*
X122885674Y-85186744D01*
X122827179Y-85006716D01*
X122732533Y-84842784D01*
X122605871Y-84702112D01*
X122605870Y-84702111D01*
X122452734Y-84590851D01*
X122452729Y-84590848D01*
X122312951Y-84528614D01*
X122259714Y-84483364D01*
X122239393Y-84416514D01*
X122258439Y-84349291D01*
X122310805Y-84303036D01*
X122344901Y-84292721D01*
X122379458Y-84287513D01*
X122623004Y-84212389D01*
X122852634Y-84101805D01*
X123063217Y-83958232D01*
X123250050Y-83784877D01*
X123408959Y-83585612D01*
X123536393Y-83364888D01*
X123629508Y-83127637D01*
X123686222Y-82879157D01*
X123705268Y-82625000D01*
X123686222Y-82370843D01*
X123629508Y-82122363D01*
X123536393Y-81885112D01*
X123408959Y-81664388D01*
X123250050Y-81465123D01*
X123063217Y-81291768D01*
X122852634Y-81148195D01*
X122852630Y-81148193D01*
X122852627Y-81148191D01*
X122852626Y-81148190D01*
X122623006Y-81037612D01*
X122623008Y-81037612D01*
X122379466Y-80962489D01*
X122379462Y-80962488D01*
X122379458Y-80962487D01*
X122258231Y-80944214D01*
X122127440Y-80924500D01*
X122127435Y-80924500D01*
X121872565Y-80924500D01*
X121872559Y-80924500D01*
X121715609Y-80948157D01*
X121620542Y-80962487D01*
X121620539Y-80962488D01*
X121620533Y-80962489D01*
X121376992Y-81037612D01*
X121147373Y-81148190D01*
X121147372Y-81148191D01*
X120936782Y-81291768D01*
X120749952Y-81465121D01*
X120749950Y-81465123D01*
X120591041Y-81664388D01*
X120463608Y-81885109D01*
X120370492Y-82122362D01*
X120370490Y-82122369D01*
X120313777Y-82370845D01*
X120294732Y-82624995D01*
X120294732Y-82625004D01*
X116200500Y-82625004D01*
X116200500Y-80150000D01*
X155041550Y-80150000D01*
X155060122Y-80385977D01*
X155115378Y-80616136D01*
X155205960Y-80834822D01*
X155329634Y-81036640D01*
X155329635Y-81036641D01*
X155329636Y-81036643D01*
X155329638Y-81036645D01*
X155483365Y-81216635D01*
X155663355Y-81370362D01*
X155663357Y-81370363D01*
X155663358Y-81370364D01*
X155663359Y-81370365D01*
X155865177Y-81494039D01*
X155974520Y-81539330D01*
X156083863Y-81584621D01*
X156220699Y-81617472D01*
X156281292Y-81652262D01*
X156313456Y-81714288D01*
X156306980Y-81783857D01*
X156263921Y-81838882D01*
X156242190Y-81851325D01*
X156097267Y-81915850D01*
X156097265Y-81915851D01*
X155944129Y-82027111D01*
X155817466Y-82167785D01*
X155722821Y-82331715D01*
X155722818Y-82331722D01*
X155664327Y-82511740D01*
X155664326Y-82511744D01*
X155644540Y-82700000D01*
X155664326Y-82888256D01*
X155664327Y-82888259D01*
X155722818Y-83068277D01*
X155722821Y-83068284D01*
X155817467Y-83232216D01*
X155936926Y-83364888D01*
X155944129Y-83372888D01*
X156097265Y-83484148D01*
X156097270Y-83484151D01*
X156270192Y-83561142D01*
X156270197Y-83561144D01*
X156455354Y-83600500D01*
X156455355Y-83600500D01*
X156644644Y-83600500D01*
X156644646Y-83600500D01*
X156829803Y-83561144D01*
X157002730Y-83484151D01*
X157155871Y-83372888D01*
X157282533Y-83232216D01*
X157377179Y-83068284D01*
X157435674Y-82888256D01*
X157455460Y-82700000D01*
X157435674Y-82511744D01*
X157377179Y-82331716D01*
X157282533Y-82167784D01*
X157155871Y-82027112D01*
X157155870Y-82027111D01*
X157002734Y-81915851D01*
X157002729Y-81915848D01*
X156857810Y-81851325D01*
X156804573Y-81806075D01*
X156784252Y-81739225D01*
X156803298Y-81672002D01*
X156855664Y-81625747D01*
X156879295Y-81617473D01*
X157016137Y-81584621D01*
X157234822Y-81494039D01*
X157436645Y-81370362D01*
X157616635Y-81216635D01*
X157770362Y-81036645D01*
X157894039Y-80834822D01*
X157984621Y-80616137D01*
X158039878Y-80385974D01*
X158058450Y-80150000D01*
X158039878Y-79914026D01*
X157984621Y-79683863D01*
X157894039Y-79465178D01*
X157894039Y-79465177D01*
X157770365Y-79263359D01*
X157770364Y-79263358D01*
X157770363Y-79263357D01*
X157770362Y-79263355D01*
X157616635Y-79083365D01*
X157436645Y-78929638D01*
X157436643Y-78929636D01*
X157436641Y-78929635D01*
X157436640Y-78929634D01*
X157234822Y-78805960D01*
X157016136Y-78715378D01*
X156785977Y-78660122D01*
X156550000Y-78641550D01*
X156314022Y-78660122D01*
X156083863Y-78715378D01*
X155865177Y-78805960D01*
X155663359Y-78929634D01*
X155663358Y-78929635D01*
X155483365Y-79083365D01*
X155329635Y-79263358D01*
X155329634Y-79263359D01*
X155205960Y-79465177D01*
X155115378Y-79683863D01*
X155060122Y-79914022D01*
X155041550Y-80150000D01*
X116200500Y-80150000D01*
X116200500Y-75897870D01*
X128319500Y-75897870D01*
X128319501Y-75897876D01*
X128325908Y-75957483D01*
X128376202Y-76092328D01*
X128376206Y-76092335D01*
X128462452Y-76207544D01*
X128462455Y-76207547D01*
X128577664Y-76293793D01*
X128577671Y-76293797D01*
X128712517Y-76344091D01*
X128712516Y-76344091D01*
X128719444Y-76344835D01*
X128772127Y-76350500D01*
X130567872Y-76350499D01*
X130627483Y-76344091D01*
X130762331Y-76293796D01*
X130877546Y-76207546D01*
X130963796Y-76092331D01*
X131012810Y-75960916D01*
X131054681Y-75904984D01*
X131120145Y-75880566D01*
X131188418Y-75895417D01*
X131216673Y-75916569D01*
X131338599Y-76038495D01*
X131435384Y-76106265D01*
X131532165Y-76174032D01*
X131532167Y-76174033D01*
X131532170Y-76174035D01*
X131746337Y-76273903D01*
X131974592Y-76335063D01*
X132151034Y-76350500D01*
X132209999Y-76355659D01*
X132210000Y-76355659D01*
X132210001Y-76355659D01*
X132268966Y-76350500D01*
X132445408Y-76335063D01*
X132673663Y-76273903D01*
X132887830Y-76174035D01*
X133081401Y-76038495D01*
X133248495Y-75871401D01*
X133378425Y-75685842D01*
X133433002Y-75642217D01*
X133502500Y-75635023D01*
X133564855Y-75666546D01*
X133581575Y-75685842D01*
X133711500Y-75871395D01*
X133711505Y-75871401D01*
X133878599Y-76038495D01*
X133975384Y-76106265D01*
X134072165Y-76174032D01*
X134072167Y-76174033D01*
X134072170Y-76174035D01*
X134286337Y-76273903D01*
X134514592Y-76335063D01*
X134691034Y-76350500D01*
X134749999Y-76355659D01*
X134750000Y-76355659D01*
X134750001Y-76355659D01*
X134808966Y-76350500D01*
X134985408Y-76335063D01*
X135213663Y-76273903D01*
X135427830Y-76174035D01*
X135621401Y-76038495D01*
X135788495Y-75871401D01*
X135918425Y-75685842D01*
X135973002Y-75642217D01*
X136042500Y-75635023D01*
X136104855Y-75666546D01*
X136121575Y-75685842D01*
X136251500Y-75871395D01*
X136251505Y-75871401D01*
X136418599Y-76038495D01*
X136515384Y-76106265D01*
X136612165Y-76174032D01*
X136612167Y-76174033D01*
X136612170Y-76174035D01*
X136826337Y-76273903D01*
X137054592Y-76335063D01*
X137231034Y-76350500D01*
X137289999Y-76355659D01*
X137290000Y-76355659D01*
X137290001Y-76355659D01*
X137348966Y-76350500D01*
X137525408Y-76335063D01*
X137753663Y-76273903D01*
X137967830Y-76174035D01*
X138161401Y-76038495D01*
X138328495Y-75871401D01*
X138458425Y-75685842D01*
X138513002Y-75642217D01*
X138582500Y-75635023D01*
X138644855Y-75666546D01*
X138661575Y-75685842D01*
X138791500Y-75871395D01*
X138791505Y-75871401D01*
X138958599Y-76038495D01*
X139055384Y-76106265D01*
X139152165Y-76174032D01*
X139152167Y-76174033D01*
X139152170Y-76174035D01*
X139366337Y-76273903D01*
X139594592Y-76335063D01*
X139771034Y-76350500D01*
X139829999Y-76355659D01*
X139830000Y-76355659D01*
X139830001Y-76355659D01*
X139888966Y-76350500D01*
X140065408Y-76335063D01*
X140293663Y-76273903D01*
X140507830Y-76174035D01*
X140701401Y-76038495D01*
X140868495Y-75871401D01*
X140998425Y-75685842D01*
X141053002Y-75642217D01*
X141122500Y-75635023D01*
X141184855Y-75666546D01*
X141201575Y-75685842D01*
X141331500Y-75871395D01*
X141331505Y-75871401D01*
X141498599Y-76038495D01*
X141595384Y-76106265D01*
X141692165Y-76174032D01*
X141692167Y-76174033D01*
X141692170Y-76174035D01*
X141906337Y-76273903D01*
X142134592Y-76335063D01*
X142311034Y-76350500D01*
X142369999Y-76355659D01*
X142370000Y-76355659D01*
X142370001Y-76355659D01*
X142428966Y-76350500D01*
X142605408Y-76335063D01*
X142833663Y-76273903D01*
X143047830Y-76174035D01*
X143241401Y-76038495D01*
X143408495Y-75871401D01*
X143538425Y-75685842D01*
X143593002Y-75642217D01*
X143662500Y-75635023D01*
X143724855Y-75666546D01*
X143741575Y-75685842D01*
X143871500Y-75871395D01*
X143871505Y-75871401D01*
X144038599Y-76038495D01*
X144135384Y-76106265D01*
X144232165Y-76174032D01*
X144232167Y-76174033D01*
X144232170Y-76174035D01*
X144446337Y-76273903D01*
X144674592Y-76335063D01*
X144851034Y-76350500D01*
X144909999Y-76355659D01*
X144910000Y-76355659D01*
X144910001Y-76355659D01*
X144968966Y-76350500D01*
X145145408Y-76335063D01*
X145373663Y-76273903D01*
X145587830Y-76174035D01*
X145781401Y-76038495D01*
X145948495Y-75871401D01*
X146078425Y-75685842D01*
X146133002Y-75642217D01*
X146202500Y-75635023D01*
X146264855Y-75666546D01*
X146281575Y-75685842D01*
X146411500Y-75871395D01*
X146411505Y-75871401D01*
X146578599Y-76038495D01*
X146675384Y-76106265D01*
X146772165Y-76174032D01*
X146772167Y-76174033D01*
X146772170Y-76174035D01*
X146986337Y-76273903D01*
X147214592Y-76335063D01*
X147391034Y-76350500D01*
X147449999Y-76355659D01*
X147450000Y-76355659D01*
X147450001Y-76355659D01*
X147508966Y-76350500D01*
X147685408Y-76335063D01*
X147913663Y-76273903D01*
X148127830Y-76174035D01*
X148321401Y-76038495D01*
X148488495Y-75871401D01*
X148624035Y-75677830D01*
X148723903Y-75463663D01*
X148785063Y-75235408D01*
X148805659Y-75000000D01*
X148785063Y-74764592D01*
X148723903Y-74536337D01*
X148624035Y-74322171D01*
X148618425Y-74314158D01*
X148488494Y-74128597D01*
X148321402Y-73961506D01*
X148321395Y-73961501D01*
X148127834Y-73825967D01*
X148127830Y-73825965D01*
X148127828Y-73825964D01*
X147913663Y-73726097D01*
X147913659Y-73726096D01*
X147913655Y-73726094D01*
X147685413Y-73664938D01*
X147685403Y-73664936D01*
X147450001Y-73644341D01*
X147449999Y-73644341D01*
X147214596Y-73664936D01*
X147214586Y-73664938D01*
X146986344Y-73726094D01*
X146986335Y-73726098D01*
X146772171Y-73825964D01*
X146772169Y-73825965D01*
X146578597Y-73961505D01*
X146411505Y-74128597D01*
X146281575Y-74314158D01*
X146226998Y-74357783D01*
X146157500Y-74364977D01*
X146095145Y-74333454D01*
X146078425Y-74314158D01*
X145948494Y-74128597D01*
X145781402Y-73961506D01*
X145781395Y-73961501D01*
X145587834Y-73825967D01*
X145587830Y-73825965D01*
X145587828Y-73825964D01*
X145373663Y-73726097D01*
X145373659Y-73726096D01*
X145373655Y-73726094D01*
X145145413Y-73664938D01*
X145145403Y-73664936D01*
X144910001Y-73644341D01*
X144909999Y-73644341D01*
X144674596Y-73664936D01*
X144674586Y-73664938D01*
X144446344Y-73726094D01*
X144446335Y-73726098D01*
X144232171Y-73825964D01*
X144232169Y-73825965D01*
X144038597Y-73961505D01*
X143871505Y-74128597D01*
X143741575Y-74314158D01*
X143686998Y-74357783D01*
X143617500Y-74364977D01*
X143555145Y-74333454D01*
X143538425Y-74314158D01*
X143408494Y-74128597D01*
X143241402Y-73961506D01*
X143241395Y-73961501D01*
X143047834Y-73825967D01*
X143047830Y-73825965D01*
X143047828Y-73825964D01*
X142833663Y-73726097D01*
X142833659Y-73726096D01*
X142833655Y-73726094D01*
X142605413Y-73664938D01*
X142605403Y-73664936D01*
X142370001Y-73644341D01*
X142369999Y-73644341D01*
X142134596Y-73664936D01*
X142134586Y-73664938D01*
X141906344Y-73726094D01*
X141906335Y-73726098D01*
X141692171Y-73825964D01*
X141692169Y-73825965D01*
X141498597Y-73961505D01*
X141331505Y-74128597D01*
X141201575Y-74314158D01*
X141146998Y-74357783D01*
X141077500Y-74364977D01*
X141015145Y-74333454D01*
X140998425Y-74314158D01*
X140868494Y-74128597D01*
X140701402Y-73961506D01*
X140701395Y-73961501D01*
X140507834Y-73825967D01*
X140507830Y-73825965D01*
X140507828Y-73825964D01*
X140293663Y-73726097D01*
X140293659Y-73726096D01*
X140293655Y-73726094D01*
X140065413Y-73664938D01*
X140065403Y-73664936D01*
X139830001Y-73644341D01*
X139829999Y-73644341D01*
X139594596Y-73664936D01*
X139594586Y-73664938D01*
X139366344Y-73726094D01*
X139366335Y-73726098D01*
X139152171Y-73825964D01*
X139152169Y-73825965D01*
X138958597Y-73961505D01*
X138791505Y-74128597D01*
X138661575Y-74314158D01*
X138606998Y-74357783D01*
X138537500Y-74364977D01*
X138475145Y-74333454D01*
X138458425Y-74314158D01*
X138328494Y-74128597D01*
X138161402Y-73961506D01*
X138161395Y-73961501D01*
X137967834Y-73825967D01*
X137967830Y-73825965D01*
X137967828Y-73825964D01*
X137753663Y-73726097D01*
X137753659Y-73726096D01*
X137753655Y-73726094D01*
X137525413Y-73664938D01*
X137525403Y-73664936D01*
X137290001Y-73644341D01*
X137289999Y-73644341D01*
X137054596Y-73664936D01*
X137054586Y-73664938D01*
X136826344Y-73726094D01*
X136826335Y-73726098D01*
X136612171Y-73825964D01*
X136612169Y-73825965D01*
X136418597Y-73961505D01*
X136251505Y-74128597D01*
X136121575Y-74314158D01*
X136066998Y-74357783D01*
X135997500Y-74364977D01*
X135935145Y-74333454D01*
X135918425Y-74314158D01*
X135788494Y-74128597D01*
X135621402Y-73961506D01*
X135621395Y-73961501D01*
X135427834Y-73825967D01*
X135427830Y-73825965D01*
X135427828Y-73825964D01*
X135213663Y-73726097D01*
X135213659Y-73726096D01*
X135213655Y-73726094D01*
X134985413Y-73664938D01*
X134985403Y-73664936D01*
X134750001Y-73644341D01*
X134749999Y-73644341D01*
X134514596Y-73664936D01*
X134514586Y-73664938D01*
X134286344Y-73726094D01*
X134286335Y-73726098D01*
X134072171Y-73825964D01*
X134072169Y-73825965D01*
X133878597Y-73961505D01*
X133711505Y-74128597D01*
X133581575Y-74314158D01*
X133526998Y-74357783D01*
X133457500Y-74364977D01*
X133395145Y-74333454D01*
X133378425Y-74314158D01*
X133248494Y-74128597D01*
X133081402Y-73961506D01*
X133081395Y-73961501D01*
X132887834Y-73825967D01*
X132887830Y-73825965D01*
X132887828Y-73825964D01*
X132673663Y-73726097D01*
X132673659Y-73726096D01*
X132673655Y-73726094D01*
X132445413Y-73664938D01*
X132445403Y-73664936D01*
X132210001Y-73644341D01*
X132209999Y-73644341D01*
X131974596Y-73664936D01*
X131974586Y-73664938D01*
X131746344Y-73726094D01*
X131746335Y-73726098D01*
X131532171Y-73825964D01*
X131532169Y-73825965D01*
X131338600Y-73961503D01*
X131216673Y-74083430D01*
X131155350Y-74116914D01*
X131085658Y-74111930D01*
X131029725Y-74070058D01*
X131012810Y-74039081D01*
X130963797Y-73907671D01*
X130963793Y-73907664D01*
X130877547Y-73792455D01*
X130877544Y-73792452D01*
X130762335Y-73706206D01*
X130762328Y-73706202D01*
X130627482Y-73655908D01*
X130627483Y-73655908D01*
X130567883Y-73649501D01*
X130567881Y-73649500D01*
X130567873Y-73649500D01*
X130567864Y-73649500D01*
X128772129Y-73649500D01*
X128772123Y-73649501D01*
X128712516Y-73655908D01*
X128577671Y-73706202D01*
X128577664Y-73706206D01*
X128462455Y-73792452D01*
X128462452Y-73792455D01*
X128376206Y-73907664D01*
X128376202Y-73907671D01*
X128325908Y-74042517D01*
X128319501Y-74102116D01*
X128319500Y-74102135D01*
X128319500Y-75897870D01*
X116200500Y-75897870D01*
X116200500Y-66999500D01*
X116220185Y-66932461D01*
X116272989Y-66886706D01*
X116324500Y-66875500D01*
X166075500Y-66875500D01*
X166142539Y-66895185D01*
G37*
%TD.AperFunction*%
%TD*%
M02*
