%TF.GenerationSoftware,KiCad,Pcbnew,7.0.10*%
%TF.CreationDate,2024-04-21T22:28:26-04:00*%
%TF.ProjectId,ltc2666-eval-board,6c746332-3636-4362-9d65-76616c2d626f,1*%
%TF.SameCoordinates,Original*%
%TF.FileFunction,Paste,Top*%
%TF.FilePolarity,Positive*%
%FSLAX46Y46*%
G04 Gerber Fmt 4.6, Leading zero omitted, Abs format (unit mm)*
G04 Created by KiCad (PCBNEW 7.0.10) date 2024-04-21 22:28:26*
%MOMM*%
%LPD*%
G01*
G04 APERTURE LIST*
G04 Aperture macros list*
%AMRoundRect*
0 Rectangle with rounded corners*
0 $1 Rounding radius*
0 $2 $3 $4 $5 $6 $7 $8 $9 X,Y pos of 4 corners*
0 Add a 4 corners polygon primitive as box body*
4,1,4,$2,$3,$4,$5,$6,$7,$8,$9,$2,$3,0*
0 Add four circle primitives for the rounded corners*
1,1,$1+$1,$2,$3*
1,1,$1+$1,$4,$5*
1,1,$1+$1,$6,$7*
1,1,$1+$1,$8,$9*
0 Add four rect primitives between the rounded corners*
20,1,$1+$1,$2,$3,$4,$5,0*
20,1,$1+$1,$4,$5,$6,$7,0*
20,1,$1+$1,$6,$7,$8,$9,0*
20,1,$1+$1,$8,$9,$2,$3,0*%
G04 Aperture macros list end*
%ADD10RoundRect,0.200000X0.200000X0.275000X-0.200000X0.275000X-0.200000X-0.275000X0.200000X-0.275000X0*%
%ADD11RoundRect,0.140000X0.140000X0.170000X-0.140000X0.170000X-0.140000X-0.170000X0.140000X-0.170000X0*%
%ADD12RoundRect,0.218750X0.218750X0.256250X-0.218750X0.256250X-0.218750X-0.256250X0.218750X-0.256250X0*%
%ADD13RoundRect,0.232500X-0.232500X-0.232500X0.232500X-0.232500X0.232500X0.232500X-0.232500X0.232500X0*%
%ADD14RoundRect,0.062500X-0.375000X-0.062500X0.375000X-0.062500X0.375000X0.062500X-0.375000X0.062500X0*%
%ADD15RoundRect,0.062500X-0.062500X-0.375000X0.062500X-0.375000X0.062500X0.375000X-0.062500X0.375000X0*%
%ADD16RoundRect,0.140000X0.170000X-0.140000X0.170000X0.140000X-0.170000X0.140000X-0.170000X-0.140000X0*%
%ADD17RoundRect,0.140000X-0.170000X0.140000X-0.170000X-0.140000X0.170000X-0.140000X0.170000X0.140000X0*%
G04 APERTURE END LIST*
D10*
%TO.C,R101*%
X146825000Y-102250000D03*
X145175000Y-102250000D03*
%TD*%
D11*
%TO.C,C104*%
X135770000Y-94250000D03*
X136730000Y-94250000D03*
%TD*%
D12*
%TO.C,D101*%
X146787500Y-100250000D03*
X145212500Y-100250000D03*
%TD*%
D13*
%TO.C,U101*%
X140000000Y-90750000D03*
X140000000Y-91900000D03*
X140000000Y-93050000D03*
X141150000Y-90750000D03*
X141150000Y-91900000D03*
X141150000Y-93050000D03*
X142300000Y-90750000D03*
X142300000Y-91900000D03*
X142300000Y-93050000D03*
D14*
X138712500Y-90150000D03*
X138712500Y-90650000D03*
X138712500Y-91150000D03*
X138712500Y-91650000D03*
X138712500Y-92150000D03*
X138712500Y-92650000D03*
X138712500Y-93150000D03*
X138712500Y-93650000D03*
D15*
X139400000Y-94337500D03*
X139900000Y-94337500D03*
X140400000Y-94337500D03*
X140900000Y-94337500D03*
X141400000Y-94337500D03*
X141900000Y-94337500D03*
X142400000Y-94337500D03*
X142900000Y-94337500D03*
D14*
X143587500Y-93650000D03*
X143587500Y-93150000D03*
X143587500Y-92650000D03*
X143587500Y-92150000D03*
X143587500Y-91650000D03*
X143587500Y-91150000D03*
X143587500Y-90650000D03*
X143587500Y-90150000D03*
D15*
X142900000Y-89462500D03*
X142400000Y-89462500D03*
X141900000Y-89462500D03*
X141400000Y-89462500D03*
X140900000Y-89462500D03*
X140400000Y-89462500D03*
X139900000Y-89462500D03*
X139400000Y-89462500D03*
%TD*%
D16*
%TO.C,C108*%
X144500000Y-86980000D03*
X144500000Y-86020000D03*
%TD*%
D17*
%TO.C,C102*%
X145500000Y-93445000D03*
X145500000Y-94405000D03*
%TD*%
D11*
%TO.C,C105*%
X135770000Y-93000000D03*
X136730000Y-93000000D03*
%TD*%
D16*
%TO.C,C109*%
X143250000Y-86980000D03*
X143250000Y-86020000D03*
%TD*%
D17*
%TO.C,C106*%
X137075000Y-95500000D03*
X137075000Y-96460000D03*
%TD*%
D16*
%TO.C,C103*%
X140750000Y-86980000D03*
X140750000Y-86020000D03*
%TD*%
%TO.C,C101*%
X142000000Y-86020000D03*
X142000000Y-86980000D03*
%TD*%
D17*
%TO.C,C107*%
X135825000Y-96460000D03*
X135825000Y-95500000D03*
%TD*%
M02*
