%TF.GenerationSoftware,KiCad,Pcbnew,7.0.10*%
%TF.CreationDate,2024-04-21T22:28:25-04:00*%
%TF.ProjectId,ltc2666-eval-board,6c746332-3636-4362-9d65-76616c2d626f,1*%
%TF.SameCoordinates,Original*%
%TF.FileFunction,Copper,L1,Top*%
%TF.FilePolarity,Positive*%
%FSLAX46Y46*%
G04 Gerber Fmt 4.6, Leading zero omitted, Abs format (unit mm)*
G04 Created by KiCad (PCBNEW 7.0.10) date 2024-04-21 22:28:25*
%MOMM*%
%LPD*%
G01*
G04 APERTURE LIST*
G04 Aperture macros list*
%AMRoundRect*
0 Rectangle with rounded corners*
0 $1 Rounding radius*
0 $2 $3 $4 $5 $6 $7 $8 $9 X,Y pos of 4 corners*
0 Add a 4 corners polygon primitive as box body*
4,1,4,$2,$3,$4,$5,$6,$7,$8,$9,$2,$3,0*
0 Add four circle primitives for the rounded corners*
1,1,$1+$1,$2,$3*
1,1,$1+$1,$4,$5*
1,1,$1+$1,$6,$7*
1,1,$1+$1,$8,$9*
0 Add four rect primitives between the rounded corners*
20,1,$1+$1,$2,$3,$4,$5,0*
20,1,$1+$1,$4,$5,$6,$7,0*
20,1,$1+$1,$6,$7,$8,$9,0*
20,1,$1+$1,$8,$9,$2,$3,0*%
G04 Aperture macros list end*
%TA.AperFunction,ComponentPad*%
%ADD10C,0.800000*%
%TD*%
%TA.AperFunction,ComponentPad*%
%ADD11C,5.400000*%
%TD*%
%TA.AperFunction,ComponentPad*%
%ADD12R,1.700000X1.700000*%
%TD*%
%TA.AperFunction,ComponentPad*%
%ADD13O,1.700000X1.700000*%
%TD*%
%TA.AperFunction,SMDPad,CuDef*%
%ADD14RoundRect,0.200000X0.200000X0.275000X-0.200000X0.275000X-0.200000X-0.275000X0.200000X-0.275000X0*%
%TD*%
%TA.AperFunction,ComponentPad*%
%ADD15C,2.400000*%
%TD*%
%TA.AperFunction,ComponentPad*%
%ADD16C,2.006600*%
%TD*%
%TA.AperFunction,ComponentPad*%
%ADD17C,1.905000*%
%TD*%
%TA.AperFunction,SMDPad,CuDef*%
%ADD18RoundRect,0.140000X0.140000X0.170000X-0.140000X0.170000X-0.140000X-0.170000X0.140000X-0.170000X0*%
%TD*%
%TA.AperFunction,SMDPad,CuDef*%
%ADD19RoundRect,0.218750X0.218750X0.256250X-0.218750X0.256250X-0.218750X-0.256250X0.218750X-0.256250X0*%
%TD*%
%TA.AperFunction,SMDPad,CuDef*%
%ADD20RoundRect,0.062500X-0.375000X-0.062500X0.375000X-0.062500X0.375000X0.062500X-0.375000X0.062500X0*%
%TD*%
%TA.AperFunction,SMDPad,CuDef*%
%ADD21RoundRect,0.062500X-0.062500X-0.375000X0.062500X-0.375000X0.062500X0.375000X-0.062500X0.375000X0*%
%TD*%
%TA.AperFunction,SMDPad,CuDef*%
%ADD22R,3.450000X3.450000*%
%TD*%
%TA.AperFunction,SMDPad,CuDef*%
%ADD23RoundRect,0.140000X0.170000X-0.140000X0.170000X0.140000X-0.170000X0.140000X-0.170000X-0.140000X0*%
%TD*%
%TA.AperFunction,SMDPad,CuDef*%
%ADD24RoundRect,0.140000X-0.170000X0.140000X-0.170000X-0.140000X0.170000X-0.140000X0.170000X0.140000X0*%
%TD*%
%TA.AperFunction,ViaPad*%
%ADD25C,0.600000*%
%TD*%
%TA.AperFunction,ViaPad*%
%ADD26C,0.800000*%
%TD*%
%TA.AperFunction,Conductor*%
%ADD27C,0.500000*%
%TD*%
%TA.AperFunction,Conductor*%
%ADD28C,0.250000*%
%TD*%
%TA.AperFunction,Conductor*%
%ADD29C,1.000000*%
%TD*%
%TA.AperFunction,Conductor*%
%ADD30C,0.750000*%
%TD*%
G04 APERTURE END LIST*
D10*
%TO.P,H3,1,1*%
%TO.N,Earth*%
X159175000Y-71875000D03*
X159768109Y-70443109D03*
X159768109Y-73306891D03*
X161200000Y-69850000D03*
D11*
X161200000Y-71875000D03*
D10*
X161200000Y-73900000D03*
X162631891Y-70443109D03*
X162631891Y-73306891D03*
X163225000Y-71875000D03*
%TD*%
D12*
%TO.P,JP103,1,A*%
%TO.N,+3.3V*%
X126460000Y-95250000D03*
D13*
%TO.P,JP103,2,C*%
%TO.N,Earth*%
X129000000Y-95250000D03*
%TO.P,JP103,3,B*%
%TO.N,Net-(JP103-B)*%
X131540000Y-95250000D03*
%TD*%
D12*
%TO.P,J106,1,Pin_1*%
%TO.N,/DAC_CHANNEL_3*%
X129670000Y-75000000D03*
D13*
%TO.P,J106,2,Pin_2*%
%TO.N,/DAC_CHANNEL_2*%
X132210000Y-75000000D03*
%TO.P,J106,3,Pin_3*%
%TO.N,/DAC_CHANNEL_1*%
X134750000Y-75000000D03*
%TO.P,J106,4,Pin_4*%
%TO.N,/DAC_CHANNEL_0*%
X137290000Y-75000000D03*
%TO.P,J106,5,Pin_5*%
%TO.N,/DAC_CHANNEL_7*%
X139830000Y-75000000D03*
%TO.P,J106,6,Pin_6*%
%TO.N,/DAC_CHANNEL_6*%
X142370000Y-75000000D03*
%TO.P,J106,7,Pin_7*%
%TO.N,/DAC_CHANNEL_5*%
X144910000Y-75000000D03*
%TO.P,J106,8,Pin_8*%
%TO.N,/DAC_CHANNEL_4*%
X147450000Y-75000000D03*
%TD*%
D14*
%TO.P,R101,1*%
%TO.N,+3.3V*%
X146825000Y-102250000D03*
%TO.P,R101,2*%
%TO.N,Net-(D101-A)*%
X145175000Y-102250000D03*
%TD*%
D15*
%TO.P,TP102,1,1*%
%TO.N,Earth*%
X130500000Y-100000000D03*
%TD*%
D12*
%TO.P,J105,1,Pin_1*%
%TO.N,/DAC_CS*%
X129950000Y-105250000D03*
D13*
%TO.P,J105,2,Pin_2*%
%TO.N,/DAC_SCK*%
X132490000Y-105250000D03*
%TO.P,J105,3,Pin_3*%
%TO.N,/DAC_MISO*%
X135030000Y-105250000D03*
%TO.P,J105,4,Pin_4*%
%TO.N,/DAC_MOSI*%
X137570000Y-105250000D03*
%TD*%
D12*
%TO.P,JP102,1,A*%
%TO.N,+3.3V*%
X126460000Y-90250000D03*
D13*
%TO.P,JP102,2,C*%
%TO.N,Earth*%
X129000000Y-90250000D03*
%TO.P,JP102,3,B*%
%TO.N,Net-(JP102-B)*%
X131540000Y-90250000D03*
%TD*%
D16*
%TO.P,J103,1,In*%
%TO.N,+5V*%
X156550000Y-80150000D03*
D17*
%TO.P,J103,2,Ext*%
%TO.N,Earth*%
X153997300Y-77597300D03*
X153997300Y-82702700D03*
X159102700Y-77597300D03*
X159102700Y-82702700D03*
%TD*%
D18*
%TO.P,C104,2*%
%TO.N,Earth*%
X135770000Y-94250000D03*
%TO.P,C104,1*%
%TO.N,+5V*%
X136730000Y-94250000D03*
%TD*%
D15*
%TO.P,TP105,1,1*%
%TO.N,-5V*%
X122000000Y-92125000D03*
%TD*%
D16*
%TO.P,J101,1,In*%
%TO.N,+3.3V*%
X156550000Y-103650000D03*
D17*
%TO.P,J101,2,Ext*%
%TO.N,Earth*%
X153997300Y-101097300D03*
X153997300Y-106202700D03*
X159102700Y-101097300D03*
X159102700Y-106202700D03*
%TD*%
D15*
%TO.P,TP104,1,1*%
%TO.N,+5V*%
X122000000Y-82625000D03*
%TD*%
D19*
%TO.P,D101,1,K*%
%TO.N,Earth*%
X146787500Y-100250000D03*
%TO.P,D101,2,A*%
%TO.N,Net-(D101-A)*%
X145212500Y-100250000D03*
%TD*%
D10*
%TO.P,H4,1,1*%
%TO.N,Earth*%
X159175000Y-111875000D03*
X159768109Y-110443109D03*
X159768109Y-113306891D03*
X161200000Y-109850000D03*
D11*
X161200000Y-111875000D03*
D10*
X161200000Y-113900000D03*
X162631891Y-110443109D03*
X162631891Y-113306891D03*
X163225000Y-111875000D03*
%TD*%
D20*
%TO.P,U101,1,MSP2*%
%TO.N,Net-(JP103-B)*%
X138712500Y-90150000D03*
%TO.P,U101,2,VOUT0*%
%TO.N,/DAC_CHANNEL_0*%
X138712500Y-90650000D03*
%TO.P,U101,3,VOUT1*%
%TO.N,/DAC_CHANNEL_1*%
X138712500Y-91150000D03*
%TO.P,U101,4,VOUT2*%
%TO.N,/DAC_CHANNEL_2*%
X138712500Y-91650000D03*
%TO.P,U101,5,VOUT3*%
%TO.N,/DAC_CHANNEL_3*%
X138712500Y-92150000D03*
%TO.P,U101,6,DNC*%
%TO.N,unconnected-(U101-DNC-Pad6)*%
X138712500Y-92650000D03*
%TO.P,U101,7,V+*%
%TO.N,+5V*%
X138712500Y-93150000D03*
%TO.P,U101,8,V-*%
%TO.N,-5V*%
X138712500Y-93650000D03*
D21*
%TO.P,U101,9,MUXOUT*%
%TO.N,unconnected-(U101-MUXOUT-Pad9)*%
X139400000Y-94337500D03*
%TO.P,U101,10,REFLO*%
%TO.N,Earth*%
X139900000Y-94337500D03*
%TO.P,U101,11,GND*%
X140400000Y-94337500D03*
%TO.P,U101,12,LDAC*%
%TO.N,+3.3V*%
X140900000Y-94337500D03*
%TO.P,U101,13,CS/LD*%
%TO.N,/DAC_CS*%
X141400000Y-94337500D03*
%TO.P,U101,14,SCK*%
%TO.N,/DAC_SCK*%
X141900000Y-94337500D03*
%TO.P,U101,15,SDO*%
%TO.N,/DAC_MISO*%
X142400000Y-94337500D03*
%TO.P,U101,16,SDI*%
%TO.N,/DAC_MOSI*%
X142900000Y-94337500D03*
D20*
%TO.P,U101,17,TGB*%
%TO.N,+3.3V*%
X143587500Y-93650000D03*
%TO.P,U101,18,IOVCC*%
X143587500Y-93150000D03*
%TO.P,U101,19,DNC*%
%TO.N,unconnected-(U101-DNC-Pad19)*%
X143587500Y-92650000D03*
%TO.P,U101,20,VOUT4*%
%TO.N,/DAC_CHANNEL_4*%
X143587500Y-92150000D03*
%TO.P,U101,21,VOUT5*%
%TO.N,/DAC_CHANNEL_5*%
X143587500Y-91650000D03*
%TO.P,U101,22,VOUT6*%
%TO.N,/DAC_CHANNEL_6*%
X143587500Y-91150000D03*
%TO.P,U101,23,VOUT7*%
%TO.N,/DAC_CHANNEL_7*%
X143587500Y-90650000D03*
%TO.P,U101,24,CLR*%
%TO.N,+3.3V*%
X143587500Y-90150000D03*
D21*
%TO.P,U101,25,REF*%
%TO.N,/DAC_REF*%
X142900000Y-89462500D03*
%TO.P,U101,26,REFCOMP*%
%TO.N,/DAC_REFCOMP*%
X142400000Y-89462500D03*
%TO.P,U101,27,REFLO*%
%TO.N,Earth*%
X141900000Y-89462500D03*
%TO.P,U101,28,VCC*%
%TO.N,+3.3V*%
X141400000Y-89462500D03*
%TO.P,U101,29,GND*%
%TO.N,Earth*%
X140900000Y-89462500D03*
%TO.P,U101,30,OVRTMP*%
%TO.N,unconnected-(U101-OVRTMP-Pad30)*%
X140400000Y-89462500D03*
%TO.P,U101,31,MSP0*%
%TO.N,Net-(JP101-B)*%
X139900000Y-89462500D03*
%TO.P,U101,32,MSP1*%
%TO.N,Net-(JP102-B)*%
X139400000Y-89462500D03*
D22*
%TO.P,U101,33,THERMAL_PAD*%
%TO.N,-5V*%
X141150000Y-91900000D03*
%TD*%
D10*
%TO.P,H2,1,1*%
%TO.N,Earth*%
X123225000Y-111875000D03*
X122631891Y-113306891D03*
X122631891Y-110443109D03*
X121200000Y-113900000D03*
D11*
X121200000Y-111875000D03*
D10*
X121200000Y-109850000D03*
X119768109Y-113306891D03*
X119768109Y-110443109D03*
X119175000Y-111875000D03*
%TD*%
D23*
%TO.P,C108,1*%
%TO.N,/DAC_REF*%
X144500000Y-86980000D03*
%TO.P,C108,2*%
%TO.N,Earth*%
X144500000Y-86020000D03*
%TD*%
D24*
%TO.P,C102,1*%
%TO.N,+3.3V*%
X145500000Y-93445000D03*
%TO.P,C102,2*%
%TO.N,Earth*%
X145500000Y-94405000D03*
%TD*%
D16*
%TO.P,J102,1,In*%
%TO.N,Earth*%
X146052700Y-109000000D03*
D17*
%TO.P,J102,2,Ext*%
X143500000Y-106447300D03*
X143500000Y-111552700D03*
X148605400Y-106447300D03*
X148605400Y-111552700D03*
%TD*%
D18*
%TO.P,C105,2*%
%TO.N,Earth*%
X135770000Y-93000000D03*
%TO.P,C105,1*%
%TO.N,+5V*%
X136730000Y-93000000D03*
%TD*%
D15*
%TO.P,TP101,1,1*%
%TO.N,+3.3V*%
X122000000Y-100000000D03*
%TD*%
D16*
%TO.P,J104,1,In*%
%TO.N,-5V*%
X156550000Y-91900000D03*
D17*
%TO.P,J104,2,Ext*%
%TO.N,Earth*%
X153997300Y-89347300D03*
X153997300Y-94452700D03*
X159102700Y-89347300D03*
X159102700Y-94452700D03*
%TD*%
D23*
%TO.P,C109,1*%
%TO.N,/DAC_REFCOMP*%
X143250000Y-86980000D03*
%TO.P,C109,2*%
%TO.N,Earth*%
X143250000Y-86020000D03*
%TD*%
D12*
%TO.P,JP101,1,A*%
%TO.N,+3.3V*%
X126460000Y-85250000D03*
D13*
%TO.P,JP101,2,C*%
%TO.N,Earth*%
X129000000Y-85250000D03*
%TO.P,JP101,3,B*%
%TO.N,Net-(JP101-B)*%
X131540000Y-85250000D03*
%TD*%
D12*
%TO.P,J107,1,Pin_1*%
%TO.N,+3.3V*%
X129960000Y-110000000D03*
D13*
%TO.P,J107,2,Pin_2*%
%TO.N,+5V*%
X132500000Y-110000000D03*
%TO.P,J107,3,Pin_3*%
%TO.N,-5V*%
X135040000Y-110000000D03*
%TO.P,J107,4,Pin_4*%
%TO.N,Earth*%
X137580000Y-110000000D03*
%TD*%
D10*
%TO.P,H1,1,1*%
%TO.N,Earth*%
X119175000Y-71875000D03*
X119768109Y-70443109D03*
X119768109Y-73306891D03*
X121200000Y-69850000D03*
D11*
X121200000Y-71875000D03*
D10*
X121200000Y-73900000D03*
X122631891Y-70443109D03*
X122631891Y-73306891D03*
X123225000Y-71875000D03*
%TD*%
D24*
%TO.P,C106,1*%
%TO.N,-5V*%
X137075000Y-95500000D03*
%TO.P,C106,2*%
%TO.N,Earth*%
X137075000Y-96460000D03*
%TD*%
D23*
%TO.P,C103,1*%
%TO.N,+3.3V*%
X140750000Y-86980000D03*
%TO.P,C103,2*%
%TO.N,Earth*%
X140750000Y-86020000D03*
%TD*%
%TO.P,C101,2*%
%TO.N,Earth*%
X142000000Y-86020000D03*
%TO.P,C101,1*%
%TO.N,+3.3V*%
X142000000Y-86980000D03*
%TD*%
D24*
%TO.P,C107,2*%
%TO.N,Earth*%
X135825000Y-96460000D03*
%TO.P,C107,1*%
%TO.N,-5V*%
X135825000Y-95500000D03*
%TD*%
D25*
%TO.N,-5V*%
X138250000Y-95500000D03*
%TO.N,+5V*%
X137650000Y-93000000D03*
%TO.N,Earth*%
X137075000Y-97500000D03*
X135825000Y-97500000D03*
%TO.N,+3.3V*%
X141404611Y-88031227D03*
%TO.N,Earth*%
X142000000Y-85000000D03*
X140750000Y-85000000D03*
%TO.N,+3.3V*%
X144000000Y-89250000D03*
X144473190Y-93970626D03*
X140500000Y-96500000D03*
%TO.N,Earth*%
X142238860Y-88079621D03*
X148000000Y-100250000D03*
X134750000Y-93000000D03*
X138750000Y-96500000D03*
D26*
X137580000Y-111670000D03*
D25*
X140600613Y-88100614D03*
X143250000Y-85000000D03*
X145500000Y-95250000D03*
X139500000Y-96500000D03*
X144500000Y-85000000D03*
D26*
%TO.N,-5V*%
X141150000Y-91900000D03*
X122000000Y-94875000D03*
X156550000Y-94450000D03*
X135040000Y-111710000D03*
X140250000Y-91000000D03*
X142000000Y-91000000D03*
X142000000Y-93000000D03*
X140250000Y-93000000D03*
%TO.N,+5V*%
X132500000Y-111750000D03*
X122000000Y-85375000D03*
X156550000Y-82700000D03*
D25*
%TO.N,Net-(JP101-B)*%
X138000000Y-87750000D03*
%TO.N,Net-(JP102-B)*%
X138000000Y-88699997D03*
%TO.N,Net-(JP103-B)*%
X138000000Y-89500000D03*
%TD*%
D27*
%TO.N,Earth*%
X144500000Y-86020000D02*
X144500000Y-85000000D01*
X143250000Y-86020000D02*
X143250000Y-85000000D01*
X142000000Y-86020000D02*
X142000000Y-85000000D01*
X140750000Y-86020000D02*
X140750000Y-85000000D01*
D28*
%TO.N,+3.3V*%
X140500000Y-95750000D02*
X140900000Y-95350000D01*
X140900000Y-95350000D02*
X140900000Y-94337500D01*
X140500000Y-96500000D02*
X140500000Y-95750000D01*
%TO.N,-5V*%
X138250000Y-95500000D02*
X137075000Y-95500000D01*
D27*
%TO.N,Earth*%
X137075000Y-96460000D02*
X137075000Y-97500000D01*
X135825000Y-96460000D02*
X135825000Y-97500000D01*
D28*
%TO.N,-5V*%
X138712500Y-93650000D02*
X138712500Y-95037500D01*
X138712500Y-95037500D02*
X138250000Y-95500000D01*
%TO.N,+5V*%
X136730000Y-94250000D02*
X136730000Y-93000000D01*
%TO.N,-5V*%
X135825000Y-95500000D02*
X137075000Y-95500000D01*
%TO.N,/DAC_CHANNEL_1*%
X134750000Y-78250000D02*
X134750000Y-75000000D01*
X136250000Y-90000000D02*
X136250000Y-79750000D01*
X137400000Y-91150000D02*
X136250000Y-90000000D01*
X136250000Y-79750000D02*
X134750000Y-78250000D01*
X138712500Y-91150000D02*
X137400000Y-91150000D01*
%TO.N,/DAC_CHANNEL_2*%
X132210000Y-77960000D02*
X132210000Y-75000000D01*
X135250000Y-81000000D02*
X132210000Y-77960000D01*
X135250000Y-90000000D02*
X135250000Y-81000000D01*
X136900000Y-91650000D02*
X135250000Y-90000000D01*
X138712500Y-91650000D02*
X136900000Y-91650000D01*
%TO.N,/DAC_CHANNEL_3*%
X129670000Y-77670000D02*
X129670000Y-75000000D01*
X134250000Y-82250000D02*
X129670000Y-77670000D01*
X134250000Y-90250000D02*
X134250000Y-82250000D01*
X136150000Y-92150000D02*
X134250000Y-90250000D01*
X138712500Y-92150000D02*
X136150000Y-92150000D01*
%TO.N,/DAC_CHANNEL_0*%
X137250000Y-90000000D02*
X137250000Y-75040000D01*
X137900000Y-90650000D02*
X137250000Y-90000000D01*
X137250000Y-75040000D02*
X137290000Y-75000000D01*
X138712500Y-90650000D02*
X137900000Y-90650000D01*
%TO.N,+5V*%
X136730000Y-93000000D02*
X138075260Y-93000000D01*
X138075260Y-93000000D02*
X138225260Y-93150000D01*
X138225260Y-93150000D02*
X138712500Y-93150000D01*
%TO.N,+3.3V*%
X141404611Y-88031227D02*
X141404611Y-88020728D01*
X140750000Y-87366117D02*
X140750000Y-86980000D01*
X141404611Y-88020728D02*
X140750000Y-87366117D01*
X142000000Y-86980000D02*
X142000000Y-87434597D01*
X142000000Y-87434597D02*
X141400000Y-88034597D01*
X141400000Y-88034597D02*
X141400000Y-89462500D01*
%TO.N,Earth*%
X140600613Y-88100614D02*
X140900000Y-88400001D01*
X140900000Y-88400001D02*
X140900000Y-89462500D01*
X142238860Y-88079621D02*
X141900000Y-88418481D01*
X141900000Y-88418481D02*
X141900000Y-89462500D01*
D29*
%TO.N,+3.3V*%
X129960000Y-110000000D02*
X127750000Y-110000000D01*
D27*
X151275000Y-103250000D02*
X156150000Y-103250000D01*
D28*
X143587500Y-89662500D02*
X144000000Y-89250000D01*
D27*
X148445000Y-93445000D02*
X150250000Y-95250000D01*
D28*
X143587500Y-90150000D02*
X143587500Y-89662500D01*
X144473190Y-93970626D02*
X144152564Y-93650000D01*
X144650000Y-93150000D02*
X143587500Y-93150000D01*
D27*
X150250000Y-102225000D02*
X151275000Y-103250000D01*
X150250000Y-95250000D02*
X150250000Y-102225000D01*
D29*
X122000000Y-100000000D02*
X126460000Y-95540000D01*
X122000000Y-104250000D02*
X122000000Y-100000000D01*
D28*
X145750000Y-93445000D02*
X144945000Y-93445000D01*
X148750000Y-102250000D02*
X150750000Y-104250000D01*
D29*
X126460000Y-95540000D02*
X126460000Y-95250000D01*
X126460000Y-95250000D02*
X126460000Y-85250000D01*
D28*
X155950000Y-104250000D02*
X156550000Y-103650000D01*
X146825000Y-102250000D02*
X148750000Y-102250000D01*
X150750000Y-104250000D02*
X155950000Y-104250000D01*
X143587500Y-93150000D02*
X143587500Y-93650000D01*
X144152564Y-93650000D02*
X143587500Y-93650000D01*
X144945000Y-93445000D02*
X144650000Y-93150000D01*
D29*
X127750000Y-110000000D02*
X122000000Y-104250000D01*
D27*
X145750000Y-93445000D02*
X148445000Y-93445000D01*
D28*
%TO.N,Earth*%
X139500000Y-95500000D02*
X139250000Y-95500000D01*
X138750000Y-96000000D02*
X138750000Y-96500000D01*
X139900000Y-95100000D02*
X139900000Y-94337500D01*
X139250000Y-95500000D02*
X138750000Y-96000000D01*
X139500000Y-96500000D02*
X139500000Y-96025000D01*
X139900000Y-95100000D02*
X139500000Y-95500000D01*
D29*
X137580000Y-111670000D02*
X137580000Y-110000000D01*
D27*
X145500000Y-94405000D02*
X145500000Y-95250000D01*
D30*
X146787500Y-100250000D02*
X148000000Y-100250000D01*
D27*
X135770000Y-93000000D02*
X134750000Y-93000000D01*
D28*
X139500000Y-96025000D02*
X140400000Y-95125000D01*
X140400000Y-95125000D02*
X140400000Y-94337500D01*
%TO.N,/DAC_REF*%
X144500000Y-87750000D02*
X144500000Y-86980000D01*
X144111239Y-88138761D02*
X144500000Y-87750000D01*
X143700000Y-88138761D02*
X144111239Y-88138761D01*
X142900000Y-89462500D02*
X142900000Y-88938761D01*
X142900000Y-88938761D02*
X143700000Y-88138761D01*
%TO.N,/DAC_REFCOMP*%
X142400000Y-88802365D02*
X143250000Y-87952365D01*
X143250000Y-87952365D02*
X143250000Y-87275000D01*
X142400000Y-89462500D02*
X142400000Y-88802365D01*
D29*
%TO.N,-5V*%
X156550000Y-94450000D02*
X156550000Y-91900000D01*
X122000000Y-92125000D02*
X122000000Y-94875000D01*
X135040000Y-111710000D02*
X135040000Y-110000000D01*
%TO.N,+5V*%
X132500000Y-110000000D02*
X132500000Y-111750000D01*
X156550000Y-82700000D02*
X156550000Y-80150000D01*
X122000000Y-82625000D02*
X122000000Y-85375000D01*
D28*
%TO.N,/DAC_SCK*%
X141000000Y-99250000D02*
X142250000Y-98000000D01*
X141900000Y-96150000D02*
X141900000Y-94337500D01*
X137500000Y-99250000D02*
X141000000Y-99250000D01*
X142250000Y-98000000D02*
X142250000Y-96500000D01*
X132490000Y-103510000D02*
X133500000Y-102500000D01*
X133500000Y-102500000D02*
X134250000Y-102500000D01*
X132490000Y-105250000D02*
X132490000Y-103510000D01*
X134250000Y-102500000D02*
X137500000Y-99250000D01*
X142250000Y-96500000D02*
X141900000Y-96150000D01*
%TO.N,/DAC_MISO*%
X142400000Y-96013604D02*
X142700000Y-96313604D01*
X142700000Y-98186396D02*
X141186396Y-99700000D01*
X142400000Y-94337500D02*
X142400000Y-96013604D01*
X141186396Y-99700000D02*
X138550000Y-99700000D01*
X142700000Y-96313604D02*
X142700000Y-98186396D01*
X138550000Y-99700000D02*
X135030000Y-103220000D01*
X135030000Y-103220000D02*
X135030000Y-105250000D01*
%TO.N,/DAC_CS*%
X141800000Y-97813604D02*
X140813604Y-98800000D01*
X132500000Y-101500000D02*
X129950000Y-104050000D01*
X129950000Y-104050000D02*
X129950000Y-105250000D01*
X141400000Y-94337500D02*
X141400000Y-96286396D01*
X141400000Y-96286396D02*
X141800000Y-96686396D01*
X141800000Y-96686396D02*
X141800000Y-97813604D01*
X136450000Y-98800000D02*
X133750000Y-101500000D01*
X133750000Y-101500000D02*
X132500000Y-101500000D01*
X140813604Y-98800000D02*
X136450000Y-98800000D01*
%TO.N,/DAC_MOSI*%
X143150000Y-98372792D02*
X141372792Y-100150000D01*
X143150000Y-96127208D02*
X143150000Y-98372792D01*
X141372792Y-100150000D02*
X139850000Y-100150000D01*
X142900000Y-95877208D02*
X143150000Y-96127208D01*
X137570000Y-102430000D02*
X137570000Y-105250000D01*
X142900000Y-94337500D02*
X142900000Y-95877208D01*
X139850000Y-100150000D02*
X137570000Y-102430000D01*
%TO.N,/DAC_CHANNEL_7*%
X144850000Y-90650000D02*
X146500000Y-89000000D01*
X142500000Y-83250000D02*
X139830000Y-80580000D01*
X145000000Y-83250000D02*
X142500000Y-83250000D01*
X146500000Y-89000000D02*
X146500000Y-84750000D01*
X146500000Y-84750000D02*
X145000000Y-83250000D01*
X139830000Y-80580000D02*
X139830000Y-75000000D01*
X143587500Y-90650000D02*
X144850000Y-90650000D01*
%TO.N,/DAC_CHANNEL_6*%
X147500000Y-89000000D02*
X147500000Y-83250000D01*
X145350000Y-91150000D02*
X147500000Y-89000000D01*
X143750000Y-81750000D02*
X142370000Y-80370000D01*
X143587500Y-91150000D02*
X145350000Y-91150000D01*
X142370000Y-80370000D02*
X142370000Y-75000000D01*
X146000000Y-81750000D02*
X143750000Y-81750000D01*
X147500000Y-83250000D02*
X146000000Y-81750000D01*
%TO.N,/DAC_CHANNEL_5*%
X148500000Y-89000000D02*
X148500000Y-82250000D01*
X148500000Y-82250000D02*
X144910000Y-78660000D01*
X143587500Y-91650000D02*
X145850000Y-91650000D01*
X144910000Y-78660000D02*
X144910000Y-75000000D01*
X145850000Y-91650000D02*
X148500000Y-89000000D01*
%TO.N,/DAC_CHANNEL_4*%
X149500000Y-89250000D02*
X149500000Y-81000000D01*
X143587500Y-92150000D02*
X146600000Y-92150000D01*
X147450000Y-78950000D02*
X147450000Y-75000000D01*
X146600000Y-92150000D02*
X149500000Y-89250000D01*
X149500000Y-81000000D02*
X147450000Y-78950000D01*
%TO.N,Net-(JP101-B)*%
X138500000Y-88250000D02*
X139500000Y-88250000D01*
X139900000Y-88650000D02*
X139900000Y-89462500D01*
X139500000Y-88250000D02*
X139900000Y-88650000D01*
X138000000Y-87750000D02*
X138500000Y-88250000D01*
D27*
%TO.N,Net-(D101-A)*%
X145175000Y-102250000D02*
X145175000Y-100287500D01*
D28*
%TO.N,Net-(JP102-B)*%
X139400000Y-88900000D02*
X139400000Y-89462500D01*
X138000000Y-88699997D02*
X139199997Y-88699997D01*
X139199997Y-88699997D02*
X139400000Y-88900000D01*
%TO.N,Net-(JP103-B)*%
X138500000Y-89500000D02*
X138000000Y-89500000D01*
X138712500Y-90150000D02*
X138712500Y-89712500D01*
X138712500Y-89712500D02*
X138500000Y-89500000D01*
%TD*%
%TA.AperFunction,Conductor*%
%TO.N,Earth*%
G36*
X138644855Y-75666546D02*
G01*
X138661575Y-75685842D01*
X138791500Y-75871395D01*
X138791505Y-75871401D01*
X138958599Y-76038495D01*
X139151624Y-76173653D01*
X139195248Y-76228228D01*
X139204500Y-76275226D01*
X139204500Y-80497255D01*
X139202775Y-80512872D01*
X139203061Y-80512899D01*
X139202326Y-80520665D01*
X139204439Y-80587872D01*
X139204500Y-80591767D01*
X139204500Y-80619357D01*
X139205003Y-80623335D01*
X139205918Y-80634967D01*
X139207290Y-80678624D01*
X139207291Y-80678627D01*
X139212880Y-80697867D01*
X139216824Y-80716911D01*
X139217066Y-80718821D01*
X139219336Y-80736792D01*
X139235414Y-80777403D01*
X139239197Y-80788452D01*
X139251101Y-80829425D01*
X139251382Y-80830390D01*
X139258962Y-80843208D01*
X139261580Y-80847634D01*
X139270138Y-80865103D01*
X139277514Y-80883732D01*
X139303181Y-80919060D01*
X139309593Y-80928821D01*
X139331828Y-80966417D01*
X139331833Y-80966424D01*
X139345990Y-80980580D01*
X139358628Y-80995376D01*
X139370405Y-81011586D01*
X139370406Y-81011587D01*
X139404057Y-81039425D01*
X139412698Y-81047288D01*
X141999197Y-83633788D01*
X142009022Y-83646051D01*
X142009243Y-83645869D01*
X142014211Y-83651874D01*
X142014213Y-83651876D01*
X142014214Y-83651877D01*
X142037300Y-83673556D01*
X142063222Y-83697899D01*
X142066021Y-83700612D01*
X142085522Y-83720114D01*
X142085526Y-83720117D01*
X142085529Y-83720120D01*
X142088702Y-83722581D01*
X142097574Y-83730159D01*
X142129418Y-83760062D01*
X142146976Y-83769714D01*
X142163235Y-83780395D01*
X142179064Y-83792673D01*
X142219155Y-83810021D01*
X142229626Y-83815151D01*
X142252180Y-83827550D01*
X142267902Y-83836194D01*
X142267904Y-83836195D01*
X142267908Y-83836197D01*
X142287316Y-83841180D01*
X142305719Y-83847481D01*
X142324101Y-83855436D01*
X142324102Y-83855436D01*
X142324104Y-83855437D01*
X142367250Y-83862270D01*
X142378672Y-83864636D01*
X142420981Y-83875500D01*
X142441016Y-83875500D01*
X142460414Y-83877026D01*
X142480194Y-83880159D01*
X142480195Y-83880160D01*
X142480195Y-83880159D01*
X142480196Y-83880160D01*
X142523675Y-83876050D01*
X142535344Y-83875500D01*
X144689548Y-83875500D01*
X144756587Y-83895185D01*
X144777229Y-83911819D01*
X145838181Y-84972771D01*
X145871666Y-85034094D01*
X145874500Y-85060452D01*
X145874500Y-88689547D01*
X145854815Y-88756586D01*
X145838181Y-88777228D01*
X144953797Y-89661611D01*
X144892474Y-89695096D01*
X144822782Y-89690112D01*
X144766849Y-89648240D01*
X144742432Y-89582776D01*
X144749075Y-89532975D01*
X144785366Y-89429262D01*
X144785369Y-89429249D01*
X144805565Y-89250003D01*
X144805565Y-89249996D01*
X144785369Y-89070750D01*
X144785368Y-89070745D01*
X144775468Y-89042452D01*
X144725789Y-88900478D01*
X144629816Y-88747738D01*
X144596014Y-88713936D01*
X144562529Y-88652613D01*
X144567513Y-88582921D01*
X144596010Y-88538579D01*
X144883785Y-88250803D01*
X144896041Y-88240987D01*
X144895858Y-88240765D01*
X144901870Y-88235790D01*
X144901877Y-88235786D01*
X144947949Y-88186722D01*
X144950566Y-88184023D01*
X144970120Y-88164471D01*
X144972576Y-88161303D01*
X144980156Y-88152427D01*
X145010062Y-88120582D01*
X145019713Y-88103024D01*
X145030396Y-88086761D01*
X145042673Y-88070936D01*
X145060021Y-88030844D01*
X145065151Y-88020371D01*
X145086197Y-87982092D01*
X145091180Y-87962680D01*
X145097481Y-87944280D01*
X145105437Y-87925896D01*
X145112270Y-87882748D01*
X145114633Y-87871338D01*
X145125500Y-87829019D01*
X145125500Y-87808983D01*
X145127027Y-87789582D01*
X145130160Y-87769804D01*
X145126050Y-87726324D01*
X145125500Y-87714655D01*
X145125500Y-87621666D01*
X145145185Y-87554627D01*
X145161821Y-87533983D01*
X145180117Y-87515687D01*
X145262494Y-87376395D01*
X145307643Y-87220993D01*
X145310500Y-87184690D01*
X145310500Y-86775310D01*
X145307643Y-86739007D01*
X145283320Y-86655289D01*
X145264301Y-86589826D01*
X145262494Y-86583605D01*
X145180117Y-86444313D01*
X145180115Y-86444311D01*
X145180112Y-86444307D01*
X145065692Y-86329887D01*
X145065684Y-86329881D01*
X144977761Y-86277884D01*
X144926395Y-86247506D01*
X144926394Y-86247505D01*
X144926393Y-86247505D01*
X144926390Y-86247504D01*
X144770997Y-86202357D01*
X144770991Y-86202356D01*
X144734697Y-86199500D01*
X144734690Y-86199500D01*
X144265310Y-86199500D01*
X144265302Y-86199500D01*
X144229008Y-86202356D01*
X144229002Y-86202357D01*
X144073609Y-86247504D01*
X144073602Y-86247507D01*
X143938120Y-86327630D01*
X143870396Y-86344813D01*
X143811880Y-86327630D01*
X143676397Y-86247507D01*
X143676390Y-86247504D01*
X143520997Y-86202357D01*
X143520991Y-86202356D01*
X143484697Y-86199500D01*
X143484690Y-86199500D01*
X143015310Y-86199500D01*
X143015302Y-86199500D01*
X142979008Y-86202356D01*
X142979002Y-86202357D01*
X142823609Y-86247504D01*
X142823602Y-86247507D01*
X142688120Y-86327630D01*
X142620396Y-86344813D01*
X142561880Y-86327630D01*
X142426397Y-86247507D01*
X142426390Y-86247504D01*
X142270997Y-86202357D01*
X142270991Y-86202356D01*
X142234697Y-86199500D01*
X142234690Y-86199500D01*
X141765310Y-86199500D01*
X141765302Y-86199500D01*
X141729008Y-86202356D01*
X141729002Y-86202357D01*
X141573609Y-86247504D01*
X141573602Y-86247507D01*
X141438120Y-86327630D01*
X141370396Y-86344813D01*
X141311880Y-86327630D01*
X141176397Y-86247507D01*
X141176390Y-86247504D01*
X141020997Y-86202357D01*
X141020991Y-86202356D01*
X140984697Y-86199500D01*
X140984690Y-86199500D01*
X140515310Y-86199500D01*
X140515302Y-86199500D01*
X140479008Y-86202356D01*
X140479002Y-86202357D01*
X140323609Y-86247504D01*
X140323606Y-86247505D01*
X140184315Y-86329881D01*
X140184307Y-86329887D01*
X140069887Y-86444307D01*
X140069881Y-86444315D01*
X139987505Y-86583606D01*
X139987504Y-86583609D01*
X139942357Y-86739002D01*
X139942356Y-86739008D01*
X139939500Y-86775302D01*
X139939500Y-87184697D01*
X139942356Y-87220991D01*
X139942357Y-87220997D01*
X139987504Y-87376390D01*
X139987505Y-87376393D01*
X139987506Y-87376395D01*
X140069883Y-87515687D01*
X140161288Y-87607092D01*
X140180343Y-87631660D01*
X140181587Y-87633764D01*
X140190138Y-87651222D01*
X140197512Y-87669845D01*
X140197513Y-87669848D01*
X140223181Y-87705177D01*
X140229593Y-87714938D01*
X140251828Y-87752534D01*
X140251833Y-87752541D01*
X140265990Y-87766697D01*
X140278628Y-87781493D01*
X140290405Y-87797703D01*
X140290406Y-87797704D01*
X140324057Y-87825542D01*
X140332698Y-87833405D01*
X140577065Y-88077772D01*
X140610550Y-88139095D01*
X140612604Y-88151568D01*
X140614379Y-88167320D01*
X140602325Y-88236142D01*
X140554977Y-88287522D01*
X140487367Y-88305147D01*
X140420961Y-88283421D01*
X140403478Y-88268886D01*
X140384005Y-88249413D01*
X140371370Y-88234620D01*
X140359593Y-88218412D01*
X140325945Y-88190576D01*
X140317304Y-88182713D01*
X140000803Y-87866212D01*
X139990980Y-87853950D01*
X139990759Y-87854134D01*
X139985786Y-87848122D01*
X139936776Y-87802099D01*
X139933977Y-87799386D01*
X139914477Y-87779885D01*
X139913428Y-87779071D01*
X139911286Y-87777409D01*
X139902434Y-87769848D01*
X139870582Y-87739938D01*
X139870580Y-87739936D01*
X139870577Y-87739935D01*
X139853029Y-87730288D01*
X139836763Y-87719604D01*
X139824491Y-87710085D01*
X139820936Y-87707327D01*
X139820935Y-87707326D01*
X139820932Y-87707324D01*
X139780849Y-87689978D01*
X139770363Y-87684841D01*
X139732094Y-87663803D01*
X139732092Y-87663802D01*
X139712693Y-87658822D01*
X139694281Y-87652518D01*
X139675898Y-87644562D01*
X139675892Y-87644560D01*
X139632760Y-87637729D01*
X139621322Y-87635361D01*
X139579020Y-87624500D01*
X139579019Y-87624500D01*
X139558984Y-87624500D01*
X139539586Y-87622973D01*
X139531333Y-87621666D01*
X139519805Y-87619840D01*
X139519804Y-87619840D01*
X139476325Y-87623950D01*
X139464656Y-87624500D01*
X138892160Y-87624500D01*
X138825121Y-87604815D01*
X138779366Y-87552011D01*
X138775122Y-87541466D01*
X138725789Y-87400478D01*
X138629816Y-87247738D01*
X138502262Y-87120184D01*
X138349523Y-87024211D01*
X138179254Y-86964631D01*
X138179249Y-86964630D01*
X138000004Y-86944435D01*
X137999500Y-86944435D01*
X137999186Y-86944342D01*
X137993081Y-86943655D01*
X137993201Y-86942585D01*
X137932461Y-86924750D01*
X137886706Y-86871946D01*
X137875500Y-86820435D01*
X137875500Y-76296085D01*
X137895185Y-76229046D01*
X137947094Y-76183703D01*
X137967830Y-76174035D01*
X138161401Y-76038495D01*
X138328495Y-75871401D01*
X138458425Y-75685842D01*
X138513002Y-75642217D01*
X138582500Y-75635023D01*
X138644855Y-75666546D01*
G37*
%TD.AperFunction*%
%TA.AperFunction,Conductor*%
G36*
X166142539Y-66895185D02*
G01*
X166188294Y-66947989D01*
X166199500Y-66999500D01*
X166199500Y-116750500D01*
X166179815Y-116817539D01*
X166127011Y-116863294D01*
X166075500Y-116874500D01*
X116324500Y-116874500D01*
X116257461Y-116854815D01*
X116211706Y-116802011D01*
X116200500Y-116750500D01*
X116200500Y-100000004D01*
X120294732Y-100000004D01*
X120313777Y-100254154D01*
X120313778Y-100254157D01*
X120370492Y-100502637D01*
X120463607Y-100739888D01*
X120591041Y-100960612D01*
X120749950Y-101159877D01*
X120749955Y-101159881D01*
X120749958Y-101159885D01*
X120936774Y-101333225D01*
X120936779Y-101333228D01*
X120936783Y-101333232D01*
X120945351Y-101339073D01*
X120989652Y-101393099D01*
X120999500Y-101441527D01*
X120999500Y-104235721D01*
X120999460Y-104238861D01*
X120997243Y-104326362D01*
X120997243Y-104326371D01*
X121007648Y-104384420D01*
X121008956Y-104393748D01*
X121014925Y-104452430D01*
X121014927Y-104452444D01*
X121024033Y-104481468D01*
X121027772Y-104496701D01*
X121033142Y-104526653D01*
X121033142Y-104526655D01*
X121055020Y-104581424D01*
X121058177Y-104590292D01*
X121075841Y-104646588D01*
X121075842Y-104646589D01*
X121075844Y-104646595D01*
X121090603Y-104673185D01*
X121097336Y-104687361D01*
X121108622Y-104715614D01*
X121108627Y-104715624D01*
X121141080Y-104764866D01*
X121145959Y-104772919D01*
X121148762Y-104777967D01*
X121174588Y-104824498D01*
X121174589Y-104824500D01*
X121174591Y-104824502D01*
X121194410Y-104847588D01*
X121203855Y-104860115D01*
X121220599Y-104885521D01*
X121262299Y-104927220D01*
X121268704Y-104934131D01*
X121307130Y-104978892D01*
X121331193Y-104997518D01*
X121342972Y-105007893D01*
X127032431Y-110697351D01*
X127034624Y-110699600D01*
X127094940Y-110763052D01*
X127094948Y-110763058D01*
X127143362Y-110796755D01*
X127150871Y-110802416D01*
X127196593Y-110839698D01*
X127223565Y-110853786D01*
X127236982Y-110861916D01*
X127261951Y-110879295D01*
X127316163Y-110902559D01*
X127324663Y-110906595D01*
X127376951Y-110933909D01*
X127406199Y-110942277D01*
X127420975Y-110947538D01*
X127448942Y-110959540D01*
X127448945Y-110959540D01*
X127448946Y-110959541D01*
X127506713Y-110971412D01*
X127515866Y-110973658D01*
X127572582Y-110989887D01*
X127602914Y-110992196D01*
X127618463Y-110994377D01*
X127648255Y-111000500D01*
X127648259Y-111000500D01*
X127707241Y-111000500D01*
X127716655Y-111000857D01*
X127725009Y-111001494D01*
X127775475Y-111005337D01*
X127775475Y-111005336D01*
X127775476Y-111005337D01*
X127805651Y-111001493D01*
X127821318Y-111000500D01*
X128545859Y-111000500D01*
X128612898Y-111020185D01*
X128658653Y-111072989D01*
X128662030Y-111081140D01*
X128666204Y-111092331D01*
X128666205Y-111092332D01*
X128666206Y-111092335D01*
X128752452Y-111207544D01*
X128752455Y-111207547D01*
X128867664Y-111293793D01*
X128867671Y-111293797D01*
X129002517Y-111344091D01*
X129002516Y-111344091D01*
X129009444Y-111344835D01*
X129062127Y-111350500D01*
X130857872Y-111350499D01*
X130917483Y-111344091D01*
X131052331Y-111293796D01*
X131167546Y-111207546D01*
X131253796Y-111092331D01*
X131259318Y-111077525D01*
X131301188Y-111021593D01*
X131366652Y-110997175D01*
X131434925Y-111012026D01*
X131484331Y-111061430D01*
X131499500Y-111120859D01*
X131499500Y-111800743D01*
X131514925Y-111952439D01*
X131575837Y-112146579D01*
X131575844Y-112146594D01*
X131674589Y-112324499D01*
X131674592Y-112324504D01*
X131807132Y-112478893D01*
X131807134Y-112478895D01*
X131968037Y-112603445D01*
X131968038Y-112603445D01*
X131968042Y-112603448D01*
X132150729Y-112693060D01*
X132347715Y-112744063D01*
X132550936Y-112754369D01*
X132752071Y-112723556D01*
X132942887Y-112652886D01*
X133115571Y-112545252D01*
X133263053Y-112405059D01*
X133379295Y-112238049D01*
X133459540Y-112051058D01*
X133500500Y-111851741D01*
X133500500Y-110960758D01*
X133520185Y-110893719D01*
X133536819Y-110873077D01*
X133538495Y-110871401D01*
X133668425Y-110685842D01*
X133723002Y-110642217D01*
X133792500Y-110635023D01*
X133854855Y-110666546D01*
X133871575Y-110685842D01*
X134001501Y-110871396D01*
X134001506Y-110871402D01*
X134003181Y-110873077D01*
X134003682Y-110873995D01*
X134004982Y-110875544D01*
X134004670Y-110875805D01*
X134036666Y-110934400D01*
X134039500Y-110960758D01*
X134039500Y-111760743D01*
X134054925Y-111912439D01*
X134115837Y-112106579D01*
X134115844Y-112106594D01*
X134214589Y-112284499D01*
X134214592Y-112284504D01*
X134347132Y-112438893D01*
X134347134Y-112438895D01*
X134508037Y-112563445D01*
X134508038Y-112563445D01*
X134508042Y-112563448D01*
X134690729Y-112653060D01*
X134887715Y-112704063D01*
X135090936Y-112714369D01*
X135292071Y-112683556D01*
X135482887Y-112612886D01*
X135655571Y-112505252D01*
X135803053Y-112365059D01*
X135919295Y-112198049D01*
X135999540Y-112011058D01*
X136040500Y-111811741D01*
X136040500Y-110960758D01*
X136060185Y-110893719D01*
X136076819Y-110873077D01*
X136078495Y-110871401D01*
X136214035Y-110677830D01*
X136313903Y-110463663D01*
X136375063Y-110235408D01*
X136395659Y-110000000D01*
X136375063Y-109764592D01*
X136313903Y-109536337D01*
X136214035Y-109322171D01*
X136208425Y-109314158D01*
X136078494Y-109128597D01*
X135911402Y-108961506D01*
X135911395Y-108961501D01*
X135717834Y-108825967D01*
X135717830Y-108825965D01*
X135717828Y-108825964D01*
X135503663Y-108726097D01*
X135503659Y-108726096D01*
X135503655Y-108726094D01*
X135275413Y-108664938D01*
X135275403Y-108664936D01*
X135040001Y-108644341D01*
X135039999Y-108644341D01*
X134804596Y-108664936D01*
X134804586Y-108664938D01*
X134576344Y-108726094D01*
X134576335Y-108726098D01*
X134362171Y-108825964D01*
X134362169Y-108825965D01*
X134168597Y-108961505D01*
X134001505Y-109128597D01*
X133871575Y-109314158D01*
X133816998Y-109357783D01*
X133747500Y-109364977D01*
X133685145Y-109333454D01*
X133668425Y-109314158D01*
X133538494Y-109128597D01*
X133371402Y-108961506D01*
X133371395Y-108961501D01*
X133177834Y-108825967D01*
X133177830Y-108825965D01*
X133177828Y-108825964D01*
X132963663Y-108726097D01*
X132963659Y-108726096D01*
X132963655Y-108726094D01*
X132735413Y-108664938D01*
X132735403Y-108664936D01*
X132500001Y-108644341D01*
X132499999Y-108644341D01*
X132264596Y-108664936D01*
X132264586Y-108664938D01*
X132036344Y-108726094D01*
X132036335Y-108726098D01*
X131822171Y-108825964D01*
X131822169Y-108825965D01*
X131628600Y-108961503D01*
X131506673Y-109083430D01*
X131445350Y-109116914D01*
X131375658Y-109111930D01*
X131319725Y-109070058D01*
X131302810Y-109039081D01*
X131253797Y-108907671D01*
X131253793Y-108907664D01*
X131167547Y-108792455D01*
X131167544Y-108792452D01*
X131052335Y-108706206D01*
X131052328Y-108706202D01*
X130917482Y-108655908D01*
X130917483Y-108655908D01*
X130857883Y-108649501D01*
X130857881Y-108649500D01*
X130857873Y-108649500D01*
X130857864Y-108649500D01*
X129062129Y-108649500D01*
X129062123Y-108649501D01*
X129002516Y-108655908D01*
X128867671Y-108706202D01*
X128867664Y-108706206D01*
X128752455Y-108792452D01*
X128752452Y-108792455D01*
X128666206Y-108907664D01*
X128666204Y-108907668D01*
X128666204Y-108907669D01*
X128662039Y-108918834D01*
X128620171Y-108974766D01*
X128554707Y-108999184D01*
X128545859Y-108999500D01*
X128215783Y-108999500D01*
X128148744Y-108979815D01*
X128128102Y-108963181D01*
X123036819Y-103871898D01*
X123003334Y-103810575D01*
X123000500Y-103784217D01*
X123000500Y-101441527D01*
X123020185Y-101374488D01*
X123054647Y-101339074D01*
X123063217Y-101333232D01*
X123250050Y-101159877D01*
X123408959Y-100960612D01*
X123536393Y-100739888D01*
X123629508Y-100502637D01*
X123686222Y-100254157D01*
X123705268Y-100000000D01*
X123701209Y-99945831D01*
X123689278Y-99786616D01*
X123703898Y-99718293D01*
X123725247Y-99689672D01*
X126778102Y-96636818D01*
X126839425Y-96603333D01*
X126865783Y-96600499D01*
X127357871Y-96600499D01*
X127357872Y-96600499D01*
X127417483Y-96594091D01*
X127552331Y-96543796D01*
X127667546Y-96457546D01*
X127753796Y-96342331D01*
X127804091Y-96207483D01*
X127810500Y-96147873D01*
X127810499Y-95250000D01*
X130184341Y-95250000D01*
X130204936Y-95485403D01*
X130204938Y-95485413D01*
X130266094Y-95713655D01*
X130266096Y-95713659D01*
X130266097Y-95713663D01*
X130342177Y-95876816D01*
X130365965Y-95927830D01*
X130365967Y-95927834D01*
X130431285Y-96021117D01*
X130501505Y-96121401D01*
X130668599Y-96288495D01*
X130765384Y-96356265D01*
X130862165Y-96424032D01*
X130862167Y-96424033D01*
X130862170Y-96424035D01*
X131076337Y-96523903D01*
X131304592Y-96585063D01*
X131492918Y-96601539D01*
X131539999Y-96605659D01*
X131540000Y-96605659D01*
X131540001Y-96605659D01*
X131579234Y-96602226D01*
X131775408Y-96585063D01*
X132003663Y-96523903D01*
X132217830Y-96424035D01*
X132411401Y-96288495D01*
X132578495Y-96121401D01*
X132714035Y-95927830D01*
X132813903Y-95713663D01*
X132875063Y-95485408D01*
X132895659Y-95250000D01*
X132875063Y-95014592D01*
X132813903Y-94786337D01*
X132714035Y-94572171D01*
X132706147Y-94560905D01*
X132578494Y-94378597D01*
X132411402Y-94211506D01*
X132411395Y-94211501D01*
X132388543Y-94195500D01*
X132334518Y-94157671D01*
X132217834Y-94075967D01*
X132217830Y-94075965D01*
X132217828Y-94075964D01*
X132003663Y-93976097D01*
X132003659Y-93976096D01*
X132003655Y-93976094D01*
X131775413Y-93914938D01*
X131775403Y-93914936D01*
X131540001Y-93894341D01*
X131539999Y-93894341D01*
X131304596Y-93914936D01*
X131304586Y-93914938D01*
X131076344Y-93976094D01*
X131076335Y-93976098D01*
X130862171Y-94075964D01*
X130862169Y-94075965D01*
X130668597Y-94211505D01*
X130501505Y-94378597D01*
X130365965Y-94572169D01*
X130365964Y-94572171D01*
X130266098Y-94786335D01*
X130266094Y-94786344D01*
X130204938Y-95014586D01*
X130204936Y-95014596D01*
X130184341Y-95249999D01*
X130184341Y-95250000D01*
X127810499Y-95250000D01*
X127810499Y-94352128D01*
X127804091Y-94292517D01*
X127799134Y-94279227D01*
X127753797Y-94157671D01*
X127753793Y-94157664D01*
X127667547Y-94042455D01*
X127667544Y-94042452D01*
X127552335Y-93956206D01*
X127552332Y-93956205D01*
X127552331Y-93956204D01*
X127541161Y-93952038D01*
X127485231Y-93910166D01*
X127460816Y-93844701D01*
X127460500Y-93835858D01*
X127460500Y-91664141D01*
X127480185Y-91597102D01*
X127532989Y-91551347D01*
X127541149Y-91547966D01*
X127552331Y-91543796D01*
X127667546Y-91457546D01*
X127753796Y-91342331D01*
X127804091Y-91207483D01*
X127810500Y-91147873D01*
X127810499Y-90250000D01*
X130184341Y-90250000D01*
X130204936Y-90485403D01*
X130204938Y-90485413D01*
X130266094Y-90713655D01*
X130266096Y-90713659D01*
X130266097Y-90713663D01*
X130302518Y-90791768D01*
X130365965Y-90927830D01*
X130365967Y-90927834D01*
X130425850Y-91013355D01*
X130501505Y-91121401D01*
X130668599Y-91288495D01*
X130765384Y-91356265D01*
X130862165Y-91424032D01*
X130862167Y-91424033D01*
X130862170Y-91424035D01*
X131076337Y-91523903D01*
X131304592Y-91585063D01*
X131492918Y-91601539D01*
X131539999Y-91605659D01*
X131540000Y-91605659D01*
X131540001Y-91605659D01*
X131579234Y-91602226D01*
X131775408Y-91585063D01*
X132003663Y-91523903D01*
X132217830Y-91424035D01*
X132411401Y-91288495D01*
X132578495Y-91121401D01*
X132714035Y-90927830D01*
X132813903Y-90713663D01*
X132875063Y-90485408D01*
X132895659Y-90250000D01*
X132875063Y-90014592D01*
X132813903Y-89786337D01*
X132714035Y-89572171D01*
X132713171Y-89570936D01*
X132578494Y-89378597D01*
X132411402Y-89211506D01*
X132411395Y-89211501D01*
X132217834Y-89075967D01*
X132217830Y-89075965D01*
X132206636Y-89070745D01*
X132003663Y-88976097D01*
X132003659Y-88976096D01*
X132003655Y-88976094D01*
X131775413Y-88914938D01*
X131775403Y-88914936D01*
X131540001Y-88894341D01*
X131539999Y-88894341D01*
X131304596Y-88914936D01*
X131304586Y-88914938D01*
X131076344Y-88976094D01*
X131076335Y-88976098D01*
X130862171Y-89075964D01*
X130862169Y-89075965D01*
X130668597Y-89211505D01*
X130501505Y-89378597D01*
X130365965Y-89572169D01*
X130365964Y-89572171D01*
X130266098Y-89786335D01*
X130266094Y-89786344D01*
X130204938Y-90014586D01*
X130204936Y-90014596D01*
X130184341Y-90249999D01*
X130184341Y-90250000D01*
X127810499Y-90250000D01*
X127810499Y-89352128D01*
X127804091Y-89292517D01*
X127802996Y-89289582D01*
X127753797Y-89157671D01*
X127753793Y-89157664D01*
X127667547Y-89042455D01*
X127667544Y-89042452D01*
X127552335Y-88956206D01*
X127552332Y-88956205D01*
X127552331Y-88956204D01*
X127541161Y-88952038D01*
X127485231Y-88910166D01*
X127460816Y-88844701D01*
X127460500Y-88835858D01*
X127460500Y-86664141D01*
X127480185Y-86597102D01*
X127532989Y-86551347D01*
X127541149Y-86547966D01*
X127552331Y-86543796D01*
X127667546Y-86457546D01*
X127753796Y-86342331D01*
X127804091Y-86207483D01*
X127810500Y-86147873D01*
X127810499Y-85250000D01*
X130184341Y-85250000D01*
X130204936Y-85485403D01*
X130204938Y-85485413D01*
X130266094Y-85713655D01*
X130266096Y-85713659D01*
X130266097Y-85713663D01*
X130293104Y-85771579D01*
X130365965Y-85927830D01*
X130365967Y-85927834D01*
X130437548Y-86030061D01*
X130501505Y-86121401D01*
X130668599Y-86288495D01*
X130749029Y-86344813D01*
X130862165Y-86424032D01*
X130862167Y-86424033D01*
X130862170Y-86424035D01*
X131076337Y-86523903D01*
X131304592Y-86585063D01*
X131492918Y-86601539D01*
X131539999Y-86605659D01*
X131540000Y-86605659D01*
X131540001Y-86605659D01*
X131579234Y-86602226D01*
X131775408Y-86585063D01*
X132003663Y-86523903D01*
X132217830Y-86424035D01*
X132411401Y-86288495D01*
X132578495Y-86121401D01*
X132714035Y-85927830D01*
X132813903Y-85713663D01*
X132875063Y-85485408D01*
X132895659Y-85250000D01*
X132875063Y-85014592D01*
X132813903Y-84786337D01*
X132714035Y-84572171D01*
X132578495Y-84378599D01*
X132578494Y-84378597D01*
X132411402Y-84211506D01*
X132411395Y-84211501D01*
X132217834Y-84075967D01*
X132217830Y-84075965D01*
X132169313Y-84053341D01*
X132003663Y-83976097D01*
X132003659Y-83976096D01*
X132003655Y-83976094D01*
X131775413Y-83914938D01*
X131775403Y-83914936D01*
X131540001Y-83894341D01*
X131539999Y-83894341D01*
X131304596Y-83914936D01*
X131304586Y-83914938D01*
X131076344Y-83976094D01*
X131076335Y-83976098D01*
X130862171Y-84075964D01*
X130862169Y-84075965D01*
X130668597Y-84211505D01*
X130501505Y-84378597D01*
X130365965Y-84572169D01*
X130365964Y-84572171D01*
X130266098Y-84786335D01*
X130266094Y-84786344D01*
X130204938Y-85014586D01*
X130204936Y-85014596D01*
X130184341Y-85249999D01*
X130184341Y-85250000D01*
X127810499Y-85250000D01*
X127810499Y-84352128D01*
X127804091Y-84292517D01*
X127753796Y-84157669D01*
X127753795Y-84157668D01*
X127753793Y-84157664D01*
X127667547Y-84042455D01*
X127667544Y-84042452D01*
X127552335Y-83956206D01*
X127552328Y-83956202D01*
X127417482Y-83905908D01*
X127417483Y-83905908D01*
X127357883Y-83899501D01*
X127357881Y-83899500D01*
X127357873Y-83899500D01*
X127357864Y-83899500D01*
X125562129Y-83899500D01*
X125562123Y-83899501D01*
X125502516Y-83905908D01*
X125367671Y-83956202D01*
X125367664Y-83956206D01*
X125252455Y-84042452D01*
X125252452Y-84042455D01*
X125166206Y-84157664D01*
X125166202Y-84157671D01*
X125115908Y-84292517D01*
X125109501Y-84352116D01*
X125109501Y-84352123D01*
X125109500Y-84352135D01*
X125109500Y-86147870D01*
X125109501Y-86147876D01*
X125115908Y-86207483D01*
X125166202Y-86342328D01*
X125166206Y-86342335D01*
X125252452Y-86457544D01*
X125252455Y-86457547D01*
X125367665Y-86543794D01*
X125367667Y-86543794D01*
X125367669Y-86543796D01*
X125378830Y-86547958D01*
X125434764Y-86589826D01*
X125459184Y-86655289D01*
X125459500Y-86664141D01*
X125459500Y-88835858D01*
X125439815Y-88902897D01*
X125387011Y-88948652D01*
X125378847Y-88952034D01*
X125367669Y-88956204D01*
X125367664Y-88956206D01*
X125252455Y-89042452D01*
X125252452Y-89042455D01*
X125166206Y-89157664D01*
X125166202Y-89157671D01*
X125115908Y-89292517D01*
X125111984Y-89329019D01*
X125109501Y-89352123D01*
X125109500Y-89352135D01*
X125109500Y-91147870D01*
X125109501Y-91147876D01*
X125115908Y-91207483D01*
X125166202Y-91342328D01*
X125166206Y-91342335D01*
X125252452Y-91457544D01*
X125252455Y-91457547D01*
X125367665Y-91543794D01*
X125367667Y-91543794D01*
X125367669Y-91543796D01*
X125378830Y-91547958D01*
X125434764Y-91589826D01*
X125459184Y-91655289D01*
X125459500Y-91664141D01*
X125459500Y-93835858D01*
X125439815Y-93902897D01*
X125387011Y-93948652D01*
X125378847Y-93952034D01*
X125367669Y-93956204D01*
X125367664Y-93956206D01*
X125252455Y-94042452D01*
X125252452Y-94042455D01*
X125166206Y-94157664D01*
X125166202Y-94157671D01*
X125115908Y-94292517D01*
X125109501Y-94352116D01*
X125109501Y-94352123D01*
X125109500Y-94352135D01*
X125109500Y-95424216D01*
X125089815Y-95491255D01*
X125073181Y-95511897D01*
X122309128Y-98275950D01*
X122247805Y-98309435D01*
X122202966Y-98310884D01*
X122127442Y-98299500D01*
X122127435Y-98299500D01*
X121872565Y-98299500D01*
X121872559Y-98299500D01*
X121717359Y-98322894D01*
X121620542Y-98337487D01*
X121620539Y-98337488D01*
X121620533Y-98337489D01*
X121376992Y-98412612D01*
X121147373Y-98523190D01*
X121147372Y-98523191D01*
X120936782Y-98666768D01*
X120749952Y-98840121D01*
X120749950Y-98840123D01*
X120591041Y-99039388D01*
X120463608Y-99260109D01*
X120370492Y-99497362D01*
X120370490Y-99497369D01*
X120313777Y-99745845D01*
X120294732Y-99999995D01*
X120294732Y-100000004D01*
X116200500Y-100000004D01*
X116200500Y-92125004D01*
X120294732Y-92125004D01*
X120313777Y-92379154D01*
X120370370Y-92627105D01*
X120370492Y-92627637D01*
X120463607Y-92864888D01*
X120591041Y-93085612D01*
X120749950Y-93284877D01*
X120749955Y-93284881D01*
X120749958Y-93284885D01*
X120936774Y-93458225D01*
X120936779Y-93458228D01*
X120936783Y-93458232D01*
X120945351Y-93464073D01*
X120989652Y-93518099D01*
X120999500Y-93566527D01*
X120999500Y-94925743D01*
X121014925Y-95077439D01*
X121075837Y-95271579D01*
X121075844Y-95271594D01*
X121174589Y-95449499D01*
X121174592Y-95449504D01*
X121307132Y-95603893D01*
X121307134Y-95603895D01*
X121468037Y-95728445D01*
X121468038Y-95728445D01*
X121468042Y-95728448D01*
X121650729Y-95818060D01*
X121847715Y-95869063D01*
X122050936Y-95879369D01*
X122252071Y-95848556D01*
X122442887Y-95777886D01*
X122615571Y-95670252D01*
X122763053Y-95530059D01*
X122879295Y-95363049D01*
X122959540Y-95176058D01*
X123000500Y-94976741D01*
X123000500Y-93566527D01*
X123020185Y-93499488D01*
X123054647Y-93464074D01*
X123063217Y-93458232D01*
X123097530Y-93426395D01*
X123250041Y-93284885D01*
X123250050Y-93284877D01*
X123408959Y-93085612D01*
X123536393Y-92864888D01*
X123629508Y-92627637D01*
X123686222Y-92379157D01*
X123694384Y-92270232D01*
X123705268Y-92125004D01*
X123705268Y-92124995D01*
X123686222Y-91870845D01*
X123639043Y-91664141D01*
X123629508Y-91622363D01*
X123536393Y-91385112D01*
X123408959Y-91164388D01*
X123250050Y-90965123D01*
X123063217Y-90791768D01*
X122852634Y-90648195D01*
X122852630Y-90648193D01*
X122852627Y-90648191D01*
X122852626Y-90648190D01*
X122623006Y-90537612D01*
X122623008Y-90537612D01*
X122379466Y-90462489D01*
X122379462Y-90462488D01*
X122379458Y-90462487D01*
X122258231Y-90444214D01*
X122127440Y-90424500D01*
X122127435Y-90424500D01*
X121872565Y-90424500D01*
X121872559Y-90424500D01*
X121720616Y-90447403D01*
X121620542Y-90462487D01*
X121620539Y-90462488D01*
X121620533Y-90462489D01*
X121376992Y-90537612D01*
X121147373Y-90648190D01*
X121147372Y-90648191D01*
X120936782Y-90791768D01*
X120749952Y-90965121D01*
X120749950Y-90965123D01*
X120591041Y-91164388D01*
X120463608Y-91385109D01*
X120370492Y-91622362D01*
X120370490Y-91622369D01*
X120313777Y-91870845D01*
X120294732Y-92124995D01*
X120294732Y-92125004D01*
X116200500Y-92125004D01*
X116200500Y-82625004D01*
X120294732Y-82625004D01*
X120313777Y-82879154D01*
X120363406Y-83096594D01*
X120370492Y-83127637D01*
X120463607Y-83364888D01*
X120591041Y-83585612D01*
X120749950Y-83784877D01*
X120749955Y-83784881D01*
X120749958Y-83784885D01*
X120936774Y-83958225D01*
X120936779Y-83958228D01*
X120936783Y-83958232D01*
X120945351Y-83964073D01*
X120989652Y-84018099D01*
X120999500Y-84066527D01*
X120999500Y-85425743D01*
X121014925Y-85577439D01*
X121075837Y-85771579D01*
X121075844Y-85771594D01*
X121174589Y-85949499D01*
X121174592Y-85949504D01*
X121307132Y-86103893D01*
X121307134Y-86103895D01*
X121468037Y-86228445D01*
X121468038Y-86228445D01*
X121468042Y-86228448D01*
X121650729Y-86318060D01*
X121847715Y-86369063D01*
X122050936Y-86379369D01*
X122252071Y-86348556D01*
X122442887Y-86277886D01*
X122615571Y-86170252D01*
X122763053Y-86030059D01*
X122879295Y-85863049D01*
X122959540Y-85676058D01*
X123000500Y-85476741D01*
X123000500Y-84066527D01*
X123020185Y-83999488D01*
X123054647Y-83964074D01*
X123063217Y-83958232D01*
X123132076Y-83894341D01*
X123220453Y-83812339D01*
X123250050Y-83784877D01*
X123408959Y-83585612D01*
X123536393Y-83364888D01*
X123629508Y-83127637D01*
X123686222Y-82879157D01*
X123702360Y-82663802D01*
X123705268Y-82625004D01*
X123705268Y-82624995D01*
X123688046Y-82395185D01*
X123686222Y-82370843D01*
X123629508Y-82122363D01*
X123536393Y-81885112D01*
X123408959Y-81664388D01*
X123250050Y-81465123D01*
X123063217Y-81291768D01*
X122852634Y-81148195D01*
X122852630Y-81148193D01*
X122852627Y-81148191D01*
X122852626Y-81148190D01*
X122623006Y-81037612D01*
X122623008Y-81037612D01*
X122379466Y-80962489D01*
X122379462Y-80962488D01*
X122379458Y-80962487D01*
X122258231Y-80944214D01*
X122127440Y-80924500D01*
X122127435Y-80924500D01*
X121872565Y-80924500D01*
X121872559Y-80924500D01*
X121736419Y-80945021D01*
X121620542Y-80962487D01*
X121620539Y-80962488D01*
X121620533Y-80962489D01*
X121376992Y-81037612D01*
X121147373Y-81148190D01*
X121147372Y-81148191D01*
X120936782Y-81291768D01*
X120749952Y-81465121D01*
X120749950Y-81465123D01*
X120591041Y-81664388D01*
X120463608Y-81885109D01*
X120370492Y-82122362D01*
X120370490Y-82122369D01*
X120313777Y-82370845D01*
X120294732Y-82624995D01*
X120294732Y-82625004D01*
X116200500Y-82625004D01*
X116200500Y-75897870D01*
X128319500Y-75897870D01*
X128319501Y-75897876D01*
X128325908Y-75957483D01*
X128376202Y-76092328D01*
X128376206Y-76092335D01*
X128462452Y-76207544D01*
X128462455Y-76207547D01*
X128577664Y-76293793D01*
X128577671Y-76293797D01*
X128583806Y-76296085D01*
X128712517Y-76344091D01*
X128772127Y-76350500D01*
X128920500Y-76350499D01*
X128987539Y-76370183D01*
X129033294Y-76422987D01*
X129044500Y-76474499D01*
X129044500Y-77587255D01*
X129042775Y-77602872D01*
X129043061Y-77602899D01*
X129042326Y-77610665D01*
X129044439Y-77677872D01*
X129044500Y-77681767D01*
X129044500Y-77709357D01*
X129045003Y-77713335D01*
X129045918Y-77724967D01*
X129047290Y-77768624D01*
X129047291Y-77768627D01*
X129052880Y-77787867D01*
X129056824Y-77806911D01*
X129059336Y-77826792D01*
X129075414Y-77867403D01*
X129079197Y-77878452D01*
X129091381Y-77920388D01*
X129101580Y-77937634D01*
X129110138Y-77955103D01*
X129117514Y-77973732D01*
X129143181Y-78009060D01*
X129149593Y-78018821D01*
X129171828Y-78056417D01*
X129171833Y-78056424D01*
X129185990Y-78070580D01*
X129198628Y-78085376D01*
X129210405Y-78101586D01*
X129210406Y-78101587D01*
X129244057Y-78129425D01*
X129252698Y-78137288D01*
X133588181Y-82472771D01*
X133621666Y-82534094D01*
X133624500Y-82560452D01*
X133624500Y-90167255D01*
X133622775Y-90182872D01*
X133623061Y-90182899D01*
X133622326Y-90190665D01*
X133624439Y-90257872D01*
X133624500Y-90261767D01*
X133624500Y-90289357D01*
X133625003Y-90293335D01*
X133625918Y-90304967D01*
X133627290Y-90348624D01*
X133627291Y-90348627D01*
X133632880Y-90367867D01*
X133636824Y-90386911D01*
X133637411Y-90391550D01*
X133639336Y-90406792D01*
X133655414Y-90447403D01*
X133659197Y-90458452D01*
X133671381Y-90500388D01*
X133681580Y-90517634D01*
X133690138Y-90535103D01*
X133697514Y-90553732D01*
X133723181Y-90589060D01*
X133729593Y-90598821D01*
X133751828Y-90636417D01*
X133751833Y-90636424D01*
X133765990Y-90650580D01*
X133778628Y-90665376D01*
X133790405Y-90681586D01*
X133790406Y-90681587D01*
X133824057Y-90709425D01*
X133832698Y-90717288D01*
X135649194Y-92533784D01*
X135659019Y-92546048D01*
X135659240Y-92545866D01*
X135664210Y-92551874D01*
X135713239Y-92597915D01*
X135716036Y-92600626D01*
X135735530Y-92620120D01*
X135738695Y-92622575D01*
X135747571Y-92630156D01*
X135779418Y-92660062D01*
X135779422Y-92660064D01*
X135796973Y-92669713D01*
X135813231Y-92680392D01*
X135829064Y-92692674D01*
X135864410Y-92707968D01*
X135869155Y-92710022D01*
X135879634Y-92715155D01*
X135885237Y-92718235D01*
X135934500Y-92767779D01*
X135949500Y-92826897D01*
X135949500Y-93234697D01*
X135952356Y-93270991D01*
X135952357Y-93270997D01*
X135997504Y-93426390D01*
X135997507Y-93426397D01*
X136077630Y-93561880D01*
X136094813Y-93629604D01*
X136077630Y-93688120D01*
X135997507Y-93823602D01*
X135997504Y-93823609D01*
X135952357Y-93979002D01*
X135952356Y-93979008D01*
X135949500Y-94015302D01*
X135949500Y-94484697D01*
X135952356Y-94520991D01*
X135952357Y-94520997D01*
X135963952Y-94560905D01*
X135963753Y-94630775D01*
X135925811Y-94689445D01*
X135862172Y-94718288D01*
X135844876Y-94719500D01*
X135590302Y-94719500D01*
X135554008Y-94722356D01*
X135554002Y-94722357D01*
X135398609Y-94767504D01*
X135398606Y-94767505D01*
X135259315Y-94849881D01*
X135259307Y-94849887D01*
X135144887Y-94964307D01*
X135144881Y-94964315D01*
X135062505Y-95103606D01*
X135062504Y-95103609D01*
X135017357Y-95259002D01*
X135017356Y-95259008D01*
X135014500Y-95295302D01*
X135014500Y-95704697D01*
X135017356Y-95740991D01*
X135017357Y-95740997D01*
X135062504Y-95896390D01*
X135062505Y-95896393D01*
X135062506Y-95896395D01*
X135081097Y-95927830D01*
X135144881Y-96035684D01*
X135144887Y-96035692D01*
X135259307Y-96150112D01*
X135259311Y-96150115D01*
X135259313Y-96150117D01*
X135398605Y-96232494D01*
X135439587Y-96244400D01*
X135554002Y-96277642D01*
X135554005Y-96277642D01*
X135554007Y-96277643D01*
X135590310Y-96280500D01*
X135590318Y-96280500D01*
X136059682Y-96280500D01*
X136059690Y-96280500D01*
X136095993Y-96277643D01*
X136095995Y-96277642D01*
X136095997Y-96277642D01*
X136136975Y-96265736D01*
X136251395Y-96232494D01*
X136386879Y-96152368D01*
X136454603Y-96135186D01*
X136513120Y-96152368D01*
X136648605Y-96232494D01*
X136689587Y-96244400D01*
X136804002Y-96277642D01*
X136804005Y-96277642D01*
X136804007Y-96277643D01*
X136840310Y-96280500D01*
X136840318Y-96280500D01*
X137309682Y-96280500D01*
X137309690Y-96280500D01*
X137345993Y-96277643D01*
X137345995Y-96277642D01*
X137345997Y-96277642D01*
X137386975Y-96265736D01*
X137501395Y-96232494D01*
X137640687Y-96150117D01*
X137640687Y-96150116D01*
X137647401Y-96146146D01*
X137715125Y-96128963D01*
X137776494Y-96147884D01*
X137783631Y-96152369D01*
X137900475Y-96225788D01*
X138070745Y-96285368D01*
X138070750Y-96285369D01*
X138249996Y-96305565D01*
X138250000Y-96305565D01*
X138250004Y-96305565D01*
X138429249Y-96285369D01*
X138429252Y-96285368D01*
X138429255Y-96285368D01*
X138599522Y-96225789D01*
X138752262Y-96129816D01*
X138879816Y-96002262D01*
X138975789Y-95849522D01*
X139035368Y-95679255D01*
X139040672Y-95632173D01*
X139067737Y-95567763D01*
X139076201Y-95558387D01*
X139096286Y-95538302D01*
X139108548Y-95528480D01*
X139108365Y-95528259D01*
X139114368Y-95523291D01*
X139114377Y-95523286D01*
X139160434Y-95474239D01*
X139163082Y-95471506D01*
X139182620Y-95451970D01*
X139185070Y-95448810D01*
X139192654Y-95439929D01*
X139222562Y-95408082D01*
X139232214Y-95390523D01*
X139242889Y-95374272D01*
X139255174Y-95358436D01*
X139258712Y-95350259D01*
X139303394Y-95296551D01*
X139370025Y-95275524D01*
X139372451Y-95275499D01*
X139499400Y-95275499D01*
X139499403Y-95275499D01*
X139609463Y-95261011D01*
X139609467Y-95261009D01*
X139609472Y-95261009D01*
X139746429Y-95204279D01*
X139864036Y-95114036D01*
X139954279Y-94996429D01*
X140011009Y-94859472D01*
X140025500Y-94749401D01*
X140025499Y-94249498D01*
X140045183Y-94182460D01*
X140097987Y-94136705D01*
X140149499Y-94125499D01*
X140150500Y-94125499D01*
X140217539Y-94145184D01*
X140263294Y-94197988D01*
X140274500Y-94249499D01*
X140274500Y-95039545D01*
X140254815Y-95106584D01*
X140238181Y-95127227D01*
X140116205Y-95249202D01*
X140103951Y-95259020D01*
X140104134Y-95259241D01*
X140098122Y-95264214D01*
X140052098Y-95313223D01*
X140049391Y-95316016D01*
X140029889Y-95335517D01*
X140029875Y-95335534D01*
X140027407Y-95338715D01*
X140019843Y-95347570D01*
X139989937Y-95379418D01*
X139989936Y-95379420D01*
X139980284Y-95396976D01*
X139969610Y-95413226D01*
X139957329Y-95429061D01*
X139957324Y-95429068D01*
X139939975Y-95469158D01*
X139934838Y-95479644D01*
X139913803Y-95517906D01*
X139908822Y-95537307D01*
X139902521Y-95555710D01*
X139894562Y-95574102D01*
X139894561Y-95574105D01*
X139887728Y-95617243D01*
X139885360Y-95628674D01*
X139874501Y-95670971D01*
X139874500Y-95670982D01*
X139874500Y-95691016D01*
X139872973Y-95710413D01*
X139869840Y-95730196D01*
X139870861Y-95740993D01*
X139873950Y-95773674D01*
X139874500Y-95785343D01*
X139874500Y-95955145D01*
X139855494Y-96021117D01*
X139774211Y-96150476D01*
X139714631Y-96320745D01*
X139714630Y-96320750D01*
X139694435Y-96499996D01*
X139694435Y-96500003D01*
X139714630Y-96679249D01*
X139714631Y-96679254D01*
X139774211Y-96849523D01*
X139834509Y-96945486D01*
X139870184Y-97002262D01*
X139997738Y-97129816D01*
X140150478Y-97225789D01*
X140208101Y-97245952D01*
X140320745Y-97285368D01*
X140320750Y-97285369D01*
X140499996Y-97305565D01*
X140500000Y-97305565D01*
X140500004Y-97305565D01*
X140679249Y-97285369D01*
X140679252Y-97285368D01*
X140679255Y-97285368D01*
X140849522Y-97225789D01*
X140984528Y-97140958D01*
X141051764Y-97121958D01*
X141118599Y-97142325D01*
X141163814Y-97195593D01*
X141174500Y-97245952D01*
X141174500Y-97503151D01*
X141154815Y-97570190D01*
X141138181Y-97590832D01*
X140590832Y-98138181D01*
X140529509Y-98171666D01*
X140503151Y-98174500D01*
X136532743Y-98174500D01*
X136517122Y-98172775D01*
X136517095Y-98173061D01*
X136509333Y-98172326D01*
X136442113Y-98174439D01*
X136438219Y-98174500D01*
X136410650Y-98174500D01*
X136406673Y-98175002D01*
X136395042Y-98175917D01*
X136351374Y-98177289D01*
X136351368Y-98177290D01*
X136332126Y-98182880D01*
X136313087Y-98186823D01*
X136293217Y-98189334D01*
X136293203Y-98189337D01*
X136252598Y-98205413D01*
X136241554Y-98209194D01*
X136199614Y-98221379D01*
X136199610Y-98221381D01*
X136182366Y-98231579D01*
X136164905Y-98240133D01*
X136146274Y-98247510D01*
X136146262Y-98247517D01*
X136110933Y-98273185D01*
X136101173Y-98279596D01*
X136063580Y-98301829D01*
X136049414Y-98315995D01*
X136034624Y-98328627D01*
X136018414Y-98340404D01*
X136018411Y-98340407D01*
X135990573Y-98374058D01*
X135982711Y-98382697D01*
X133527228Y-100838181D01*
X133465905Y-100871666D01*
X133439547Y-100874500D01*
X132582743Y-100874500D01*
X132567122Y-100872775D01*
X132567095Y-100873061D01*
X132559333Y-100872326D01*
X132492113Y-100874439D01*
X132488219Y-100874500D01*
X132460650Y-100874500D01*
X132456673Y-100875002D01*
X132445042Y-100875917D01*
X132401374Y-100877289D01*
X132401368Y-100877290D01*
X132382126Y-100882880D01*
X132363087Y-100886823D01*
X132343217Y-100889334D01*
X132343203Y-100889337D01*
X132302598Y-100905413D01*
X132291554Y-100909194D01*
X132249614Y-100921379D01*
X132249610Y-100921381D01*
X132232366Y-100931579D01*
X132214905Y-100940133D01*
X132196274Y-100947510D01*
X132196262Y-100947517D01*
X132160933Y-100973185D01*
X132151173Y-100979596D01*
X132113580Y-101001829D01*
X132099414Y-101015995D01*
X132084624Y-101028627D01*
X132068414Y-101040404D01*
X132068411Y-101040407D01*
X132040573Y-101074058D01*
X132032711Y-101082697D01*
X129566208Y-103549199D01*
X129553951Y-103559020D01*
X129554134Y-103559241D01*
X129548122Y-103564214D01*
X129502098Y-103613223D01*
X129499391Y-103616016D01*
X129479889Y-103635517D01*
X129479875Y-103635534D01*
X129477407Y-103638715D01*
X129469843Y-103647570D01*
X129439937Y-103679418D01*
X129439936Y-103679420D01*
X129430284Y-103696976D01*
X129419610Y-103713226D01*
X129407329Y-103729061D01*
X129407324Y-103729068D01*
X129389975Y-103769158D01*
X129384838Y-103779644D01*
X129363804Y-103817905D01*
X129362521Y-103821147D01*
X129360833Y-103823309D01*
X129360045Y-103824744D01*
X129359813Y-103824616D01*
X129319540Y-103876232D01*
X129253601Y-103899336D01*
X129247229Y-103899500D01*
X129052130Y-103899500D01*
X129052123Y-103899501D01*
X128992516Y-103905908D01*
X128857671Y-103956202D01*
X128857664Y-103956206D01*
X128742455Y-104042452D01*
X128742452Y-104042455D01*
X128656206Y-104157664D01*
X128656202Y-104157671D01*
X128605908Y-104292517D01*
X128599501Y-104352116D01*
X128599500Y-104352135D01*
X128599500Y-106147870D01*
X128599501Y-106147876D01*
X128605908Y-106207483D01*
X128656202Y-106342328D01*
X128656206Y-106342335D01*
X128742452Y-106457544D01*
X128742455Y-106457547D01*
X128857664Y-106543793D01*
X128857671Y-106543797D01*
X128992517Y-106594091D01*
X128992516Y-106594091D01*
X128999444Y-106594835D01*
X129052127Y-106600500D01*
X130847872Y-106600499D01*
X130907483Y-106594091D01*
X131042331Y-106543796D01*
X131157546Y-106457546D01*
X131243796Y-106342331D01*
X131292810Y-106210916D01*
X131334681Y-106154984D01*
X131400145Y-106130566D01*
X131468418Y-106145417D01*
X131496673Y-106166569D01*
X131618599Y-106288495D01*
X131715384Y-106356265D01*
X131812165Y-106424032D01*
X131812167Y-106424033D01*
X131812170Y-106424035D01*
X132026337Y-106523903D01*
X132254592Y-106585063D01*
X132431034Y-106600500D01*
X132489999Y-106605659D01*
X132490000Y-106605659D01*
X132490001Y-106605659D01*
X132548966Y-106600500D01*
X132725408Y-106585063D01*
X132953663Y-106523903D01*
X133167830Y-106424035D01*
X133361401Y-106288495D01*
X133528495Y-106121401D01*
X133658425Y-105935842D01*
X133713002Y-105892217D01*
X133782500Y-105885023D01*
X133844855Y-105916546D01*
X133861575Y-105935842D01*
X133991500Y-106121395D01*
X133991505Y-106121401D01*
X134158599Y-106288495D01*
X134255384Y-106356265D01*
X134352165Y-106424032D01*
X134352167Y-106424033D01*
X134352170Y-106424035D01*
X134566337Y-106523903D01*
X134794592Y-106585063D01*
X134971034Y-106600500D01*
X135029999Y-106605659D01*
X135030000Y-106605659D01*
X135030001Y-106605659D01*
X135088966Y-106600500D01*
X135265408Y-106585063D01*
X135493663Y-106523903D01*
X135707830Y-106424035D01*
X135901401Y-106288495D01*
X136068495Y-106121401D01*
X136198425Y-105935842D01*
X136253002Y-105892217D01*
X136322500Y-105885023D01*
X136384855Y-105916546D01*
X136401575Y-105935842D01*
X136531500Y-106121395D01*
X136531505Y-106121401D01*
X136698599Y-106288495D01*
X136795384Y-106356265D01*
X136892165Y-106424032D01*
X136892167Y-106424033D01*
X136892170Y-106424035D01*
X137106337Y-106523903D01*
X137334592Y-106585063D01*
X137511034Y-106600500D01*
X137569999Y-106605659D01*
X137570000Y-106605659D01*
X137570001Y-106605659D01*
X137628966Y-106600500D01*
X137805408Y-106585063D01*
X138033663Y-106523903D01*
X138247830Y-106424035D01*
X138441401Y-106288495D01*
X138608495Y-106121401D01*
X138744035Y-105927830D01*
X138843903Y-105713663D01*
X138905063Y-105485408D01*
X138925659Y-105250000D01*
X138905063Y-105014592D01*
X138845601Y-104792673D01*
X138843905Y-104786344D01*
X138843904Y-104786343D01*
X138843903Y-104786337D01*
X138744035Y-104572171D01*
X138738425Y-104564158D01*
X138608494Y-104378597D01*
X138441402Y-104211506D01*
X138441401Y-104211505D01*
X138248376Y-104076347D01*
X138204751Y-104021770D01*
X138195500Y-103974772D01*
X138195500Y-102740452D01*
X138215185Y-102673413D01*
X138231819Y-102652771D01*
X140072772Y-100811819D01*
X140134095Y-100778334D01*
X140160453Y-100775500D01*
X141290049Y-100775500D01*
X141305669Y-100777224D01*
X141305696Y-100776939D01*
X141313452Y-100777671D01*
X141313459Y-100777673D01*
X141380665Y-100775561D01*
X141384560Y-100775500D01*
X141412138Y-100775500D01*
X141412142Y-100775500D01*
X141416116Y-100774997D01*
X141427755Y-100774080D01*
X141471419Y-100772709D01*
X141490661Y-100767117D01*
X141509704Y-100763174D01*
X141529584Y-100760664D01*
X141570193Y-100744585D01*
X141581236Y-100740803D01*
X141623182Y-100728618D01*
X141640421Y-100718422D01*
X141657895Y-100709862D01*
X141676519Y-100702488D01*
X141676519Y-100702487D01*
X141676524Y-100702486D01*
X141711875Y-100676800D01*
X141721606Y-100670408D01*
X141759212Y-100648170D01*
X141773381Y-100633999D01*
X141788171Y-100621368D01*
X141804379Y-100609594D01*
X141832230Y-100575926D01*
X141840071Y-100567309D01*
X143533786Y-98873594D01*
X143546048Y-98863772D01*
X143545865Y-98863551D01*
X143551868Y-98858583D01*
X143551877Y-98858578D01*
X143597934Y-98809531D01*
X143600582Y-98806798D01*
X143620120Y-98787262D01*
X143622570Y-98784102D01*
X143630154Y-98775221D01*
X143660062Y-98743374D01*
X143669714Y-98725815D01*
X143680389Y-98709564D01*
X143692674Y-98693728D01*
X143710030Y-98653617D01*
X143715161Y-98643146D01*
X143736194Y-98604890D01*
X143736194Y-98604889D01*
X143736197Y-98604884D01*
X143741180Y-98585472D01*
X143747477Y-98567083D01*
X143755438Y-98548687D01*
X143762270Y-98505540D01*
X143764639Y-98494108D01*
X143775499Y-98451814D01*
X143775500Y-98451809D01*
X143775500Y-98431775D01*
X143777027Y-98412374D01*
X143780160Y-98392596D01*
X143776050Y-98349116D01*
X143775500Y-98337447D01*
X143775500Y-96209945D01*
X143777224Y-96194331D01*
X143776938Y-96194304D01*
X143777672Y-96186541D01*
X143775561Y-96119351D01*
X143775500Y-96115457D01*
X143775500Y-96087859D01*
X143775500Y-96087858D01*
X143774997Y-96083878D01*
X143774080Y-96072229D01*
X143772709Y-96028582D01*
X143772709Y-96028580D01*
X143767120Y-96009345D01*
X143763174Y-95990292D01*
X143760664Y-95970416D01*
X143744578Y-95929789D01*
X143740803Y-95918762D01*
X143728617Y-95876818D01*
X143718421Y-95859577D01*
X143709860Y-95842101D01*
X143702486Y-95823477D01*
X143702485Y-95823475D01*
X143698550Y-95818059D01*
X143676809Y-95788134D01*
X143670412Y-95778398D01*
X143648170Y-95740787D01*
X143648167Y-95740784D01*
X143648165Y-95740781D01*
X143634005Y-95726621D01*
X143621370Y-95711828D01*
X143609593Y-95695620D01*
X143575945Y-95667784D01*
X143567304Y-95659921D01*
X143561819Y-95654436D01*
X143528334Y-95593113D01*
X143525500Y-95566755D01*
X143525500Y-94399500D01*
X143545185Y-94332461D01*
X143597989Y-94286706D01*
X143649500Y-94275500D01*
X143650814Y-94275500D01*
X143717853Y-94295185D01*
X143755808Y-94333528D01*
X143843374Y-94472888D01*
X143970928Y-94600442D01*
X144003584Y-94620961D01*
X144110275Y-94688000D01*
X144123668Y-94696415D01*
X144230380Y-94733755D01*
X144293935Y-94755994D01*
X144293940Y-94755995D01*
X144473186Y-94776191D01*
X144473190Y-94776191D01*
X144473194Y-94776191D01*
X144652439Y-94755995D01*
X144652442Y-94755994D01*
X144652445Y-94755994D01*
X144822712Y-94696415D01*
X144975452Y-94600442D01*
X145103006Y-94472888D01*
X145198979Y-94320148D01*
X145199249Y-94319374D01*
X145203040Y-94308544D01*
X145243763Y-94251768D01*
X145308716Y-94226022D01*
X145320081Y-94225500D01*
X145734682Y-94225500D01*
X145734690Y-94225500D01*
X145770993Y-94222643D01*
X145847471Y-94200423D01*
X145882066Y-94195500D01*
X148082770Y-94195500D01*
X148149809Y-94215185D01*
X148170451Y-94231819D01*
X149463181Y-95524548D01*
X149496666Y-95585871D01*
X149499500Y-95612229D01*
X149499500Y-101815547D01*
X149479815Y-101882586D01*
X149427011Y-101928341D01*
X149357853Y-101938285D01*
X149294297Y-101909260D01*
X149287819Y-101903228D01*
X149250803Y-101866212D01*
X149240980Y-101853950D01*
X149240759Y-101854134D01*
X149235786Y-101848122D01*
X149186776Y-101802099D01*
X149183977Y-101799386D01*
X149164477Y-101779885D01*
X149164471Y-101779880D01*
X149161286Y-101777409D01*
X149152434Y-101769848D01*
X149120582Y-101739938D01*
X149120580Y-101739936D01*
X149120577Y-101739935D01*
X149103029Y-101730288D01*
X149086763Y-101719604D01*
X149070932Y-101707324D01*
X149030849Y-101689978D01*
X149020363Y-101684841D01*
X148982094Y-101663803D01*
X148982092Y-101663802D01*
X148962693Y-101658822D01*
X148944281Y-101652518D01*
X148925898Y-101644562D01*
X148925892Y-101644560D01*
X148882760Y-101637729D01*
X148871322Y-101635361D01*
X148829020Y-101624500D01*
X148829019Y-101624500D01*
X148808984Y-101624500D01*
X148789586Y-101622973D01*
X148782162Y-101621797D01*
X148769805Y-101619840D01*
X148769804Y-101619840D01*
X148726325Y-101623950D01*
X148714656Y-101624500D01*
X147701602Y-101624500D01*
X147634563Y-101604815D01*
X147595486Y-101564651D01*
X147580471Y-101539814D01*
X147580468Y-101539810D01*
X147460188Y-101419530D01*
X147327093Y-101339071D01*
X147314606Y-101331522D01*
X147152196Y-101280914D01*
X147152194Y-101280913D01*
X147152192Y-101280913D01*
X147102778Y-101276423D01*
X147081616Y-101274500D01*
X146568384Y-101274500D01*
X146549145Y-101276248D01*
X146497807Y-101280913D01*
X146335393Y-101331522D01*
X146189811Y-101419530D01*
X146189810Y-101419531D01*
X146137181Y-101472161D01*
X146075858Y-101505646D01*
X146006166Y-101500662D01*
X145950233Y-101458790D01*
X145925816Y-101393326D01*
X145925500Y-101384480D01*
X145925500Y-101080534D01*
X145945185Y-101013495D01*
X145961819Y-100992853D01*
X145978050Y-100976622D01*
X145999281Y-100955391D01*
X146087549Y-100812287D01*
X146140436Y-100652685D01*
X146150500Y-100554174D01*
X146150500Y-99945826D01*
X146140436Y-99847315D01*
X146087549Y-99687713D01*
X146087545Y-99687707D01*
X146087544Y-99687704D01*
X145999283Y-99544612D01*
X145999280Y-99544608D01*
X145880391Y-99425719D01*
X145880387Y-99425716D01*
X145737295Y-99337455D01*
X145737289Y-99337452D01*
X145737287Y-99337451D01*
X145577685Y-99284564D01*
X145577683Y-99284563D01*
X145479181Y-99274500D01*
X145479174Y-99274500D01*
X144945826Y-99274500D01*
X144945818Y-99274500D01*
X144847316Y-99284563D01*
X144847315Y-99284564D01*
X144768219Y-99310773D01*
X144687715Y-99337450D01*
X144687704Y-99337455D01*
X144544612Y-99425716D01*
X144544608Y-99425719D01*
X144425719Y-99544608D01*
X144425716Y-99544612D01*
X144337455Y-99687704D01*
X144337450Y-99687715D01*
X144318188Y-99745845D01*
X144284564Y-99847315D01*
X144284564Y-99847316D01*
X144284563Y-99847316D01*
X144274500Y-99945818D01*
X144274500Y-100554181D01*
X144284563Y-100652683D01*
X144284564Y-100652685D01*
X144309725Y-100728617D01*
X144337450Y-100812285D01*
X144337453Y-100812292D01*
X144374484Y-100872326D01*
X144404742Y-100921382D01*
X144406038Y-100923482D01*
X144424500Y-100988580D01*
X144424500Y-101497023D01*
X144406617Y-101561173D01*
X144331522Y-101685393D01*
X144280913Y-101847807D01*
X144275877Y-101903228D01*
X144274887Y-101914132D01*
X144274500Y-101918386D01*
X144274500Y-102581613D01*
X144280913Y-102652192D01*
X144280913Y-102652194D01*
X144280914Y-102652196D01*
X144308415Y-102740452D01*
X144331522Y-102814606D01*
X144419530Y-102960188D01*
X144539811Y-103080469D01*
X144539813Y-103080470D01*
X144539815Y-103080472D01*
X144685394Y-103168478D01*
X144847804Y-103219086D01*
X144918384Y-103225500D01*
X144918387Y-103225500D01*
X145431613Y-103225500D01*
X145431616Y-103225500D01*
X145502196Y-103219086D01*
X145664606Y-103168478D01*
X145810185Y-103080472D01*
X145816022Y-103074635D01*
X145912319Y-102978339D01*
X145973642Y-102944854D01*
X146043334Y-102949838D01*
X146087681Y-102978339D01*
X146189811Y-103080469D01*
X146189813Y-103080470D01*
X146189815Y-103080472D01*
X146335394Y-103168478D01*
X146497804Y-103219086D01*
X146568384Y-103225500D01*
X146568387Y-103225500D01*
X147081613Y-103225500D01*
X147081616Y-103225500D01*
X147152196Y-103219086D01*
X147314606Y-103168478D01*
X147460185Y-103080472D01*
X147580472Y-102960185D01*
X147595486Y-102935349D01*
X147647014Y-102888162D01*
X147701602Y-102875500D01*
X148439548Y-102875500D01*
X148506587Y-102895185D01*
X148527228Y-102911818D01*
X149389923Y-103774514D01*
X150249197Y-104633788D01*
X150259022Y-104646051D01*
X150259243Y-104645869D01*
X150264211Y-104651874D01*
X150264213Y-104651876D01*
X150264214Y-104651877D01*
X150294229Y-104680063D01*
X150313222Y-104697899D01*
X150316021Y-104700612D01*
X150335522Y-104720114D01*
X150335526Y-104720117D01*
X150335529Y-104720120D01*
X150338702Y-104722581D01*
X150347574Y-104730159D01*
X150379418Y-104760062D01*
X150396976Y-104769714D01*
X150413235Y-104780395D01*
X150429064Y-104792673D01*
X150469155Y-104810021D01*
X150479626Y-104815151D01*
X150496628Y-104824498D01*
X150517902Y-104836194D01*
X150517904Y-104836195D01*
X150517908Y-104836197D01*
X150537316Y-104841180D01*
X150555717Y-104847480D01*
X150561874Y-104850144D01*
X150574101Y-104855436D01*
X150574102Y-104855436D01*
X150574104Y-104855437D01*
X150617250Y-104862270D01*
X150628672Y-104864636D01*
X150670981Y-104875500D01*
X150691016Y-104875500D01*
X150710414Y-104877026D01*
X150730194Y-104880159D01*
X150730195Y-104880160D01*
X150730195Y-104880159D01*
X150730196Y-104880160D01*
X150773675Y-104876050D01*
X150785344Y-104875500D01*
X155636766Y-104875500D01*
X155701555Y-104893772D01*
X155795189Y-104951149D01*
X155865178Y-104994039D01*
X156083863Y-105084621D01*
X156314026Y-105139878D01*
X156550000Y-105158450D01*
X156785974Y-105139878D01*
X157016137Y-105084621D01*
X157234822Y-104994039D01*
X157436645Y-104870362D01*
X157616635Y-104716635D01*
X157770362Y-104536645D01*
X157894039Y-104334822D01*
X157984621Y-104116137D01*
X158039878Y-103885974D01*
X158058450Y-103650000D01*
X158039878Y-103414026D01*
X157984621Y-103183863D01*
X157961620Y-103128334D01*
X157894039Y-102965177D01*
X157770365Y-102763359D01*
X157770364Y-102763358D01*
X157770363Y-102763357D01*
X157770362Y-102763355D01*
X157616635Y-102583365D01*
X157436645Y-102429638D01*
X157436643Y-102429636D01*
X157436641Y-102429635D01*
X157436640Y-102429634D01*
X157234822Y-102305960D01*
X157016136Y-102215378D01*
X156785977Y-102160122D01*
X156550000Y-102141550D01*
X156314022Y-102160122D01*
X156083863Y-102215378D01*
X155865177Y-102305960D01*
X155663359Y-102429634D01*
X155663358Y-102429635D01*
X155616344Y-102469790D01*
X155552583Y-102498361D01*
X155535812Y-102499500D01*
X151637229Y-102499500D01*
X151570190Y-102479815D01*
X151549548Y-102463181D01*
X151036819Y-101950451D01*
X151003334Y-101889128D01*
X151000500Y-101862770D01*
X151000500Y-95313705D01*
X151001809Y-95295735D01*
X151004773Y-95275499D01*
X151005289Y-95271977D01*
X151005255Y-95271594D01*
X151000972Y-95222635D01*
X151000500Y-95211826D01*
X151000500Y-95206296D01*
X151000500Y-95206291D01*
X150996898Y-95175478D01*
X150996534Y-95171915D01*
X150989998Y-95097202D01*
X150989995Y-95097195D01*
X150988538Y-95090133D01*
X150988597Y-95090120D01*
X150986967Y-95082764D01*
X150986908Y-95082779D01*
X150985241Y-95075747D01*
X150985241Y-95075745D01*
X150959560Y-95005188D01*
X150958421Y-95001912D01*
X150934813Y-94930665D01*
X150934811Y-94930661D01*
X150931760Y-94924119D01*
X150931815Y-94924092D01*
X150928529Y-94917305D01*
X150928476Y-94917332D01*
X150925237Y-94910881D01*
X150884010Y-94848201D01*
X150882070Y-94845156D01*
X150842711Y-94781344D01*
X150838233Y-94775681D01*
X150838280Y-94775643D01*
X150833519Y-94769799D01*
X150833473Y-94769838D01*
X150828832Y-94764307D01*
X150828830Y-94764304D01*
X150814790Y-94751058D01*
X150774274Y-94712832D01*
X150771688Y-94710320D01*
X149020729Y-92959361D01*
X149008949Y-92945730D01*
X148994610Y-92926470D01*
X148956651Y-92894619D01*
X148948686Y-92887318D01*
X148944780Y-92883411D01*
X148920443Y-92864168D01*
X148917647Y-92861890D01*
X148860214Y-92813698D01*
X148854180Y-92809729D01*
X148854212Y-92809680D01*
X148847853Y-92805628D01*
X148847822Y-92805679D01*
X148841680Y-92801891D01*
X148841678Y-92801890D01*
X148841677Y-92801889D01*
X148773688Y-92770184D01*
X148770447Y-92768615D01*
X148724352Y-92745466D01*
X148703433Y-92734960D01*
X148703431Y-92734959D01*
X148703430Y-92734959D01*
X148696645Y-92732489D01*
X148696665Y-92732433D01*
X148689549Y-92729959D01*
X148689531Y-92730015D01*
X148682674Y-92727743D01*
X148609210Y-92712573D01*
X148605693Y-92711793D01*
X148532718Y-92694499D01*
X148525547Y-92693661D01*
X148525553Y-92693601D01*
X148518055Y-92692835D01*
X148518050Y-92692895D01*
X148510860Y-92692265D01*
X148435870Y-92694448D01*
X148432263Y-92694500D01*
X147239451Y-92694500D01*
X147172412Y-92674815D01*
X147126657Y-92622011D01*
X147116713Y-92552853D01*
X147145738Y-92489297D01*
X147151770Y-92482819D01*
X147734589Y-91900000D01*
X155041550Y-91900000D01*
X155060122Y-92135977D01*
X155115378Y-92366136D01*
X155205960Y-92584822D01*
X155329634Y-92786640D01*
X155329635Y-92786642D01*
X155483363Y-92966634D01*
X155496388Y-92977758D01*
X155506030Y-92985993D01*
X155544224Y-93044498D01*
X155549500Y-93080284D01*
X155549500Y-94500743D01*
X155564925Y-94652439D01*
X155625837Y-94846579D01*
X155625844Y-94846594D01*
X155724589Y-95024499D01*
X155724592Y-95024504D01*
X155857132Y-95178893D01*
X155857134Y-95178895D01*
X156018037Y-95303445D01*
X156018038Y-95303445D01*
X156018042Y-95303448D01*
X156200729Y-95393060D01*
X156397715Y-95444063D01*
X156600936Y-95454369D01*
X156802071Y-95423556D01*
X156992887Y-95352886D01*
X157165571Y-95245252D01*
X157313053Y-95105059D01*
X157429295Y-94938049D01*
X157509540Y-94751058D01*
X157550500Y-94551741D01*
X157550500Y-93080284D01*
X157570185Y-93013245D01*
X157593968Y-92985994D01*
X157616635Y-92966635D01*
X157770362Y-92786645D01*
X157894039Y-92584822D01*
X157984621Y-92366137D01*
X158039878Y-92135974D01*
X158058450Y-91900000D01*
X158039878Y-91664026D01*
X157984621Y-91433863D01*
X157964428Y-91385112D01*
X157894039Y-91215177D01*
X157770365Y-91013359D01*
X157770364Y-91013358D01*
X157770363Y-91013357D01*
X157770362Y-91013355D01*
X157616635Y-90833365D01*
X157436645Y-90679638D01*
X157436643Y-90679636D01*
X157436641Y-90679635D01*
X157436640Y-90679634D01*
X157234822Y-90555960D01*
X157016136Y-90465378D01*
X156785977Y-90410122D01*
X156550000Y-90391550D01*
X156314022Y-90410122D01*
X156083863Y-90465378D01*
X155865177Y-90555960D01*
X155663359Y-90679634D01*
X155663358Y-90679635D01*
X155483365Y-90833365D01*
X155329635Y-91013358D01*
X155329634Y-91013359D01*
X155205960Y-91215177D01*
X155115378Y-91433863D01*
X155060122Y-91664022D01*
X155041550Y-91900000D01*
X147734589Y-91900000D01*
X148470201Y-91164388D01*
X149883788Y-89750801D01*
X149896042Y-89740986D01*
X149895859Y-89740764D01*
X149901868Y-89735791D01*
X149901877Y-89735786D01*
X149947949Y-89686722D01*
X149950566Y-89684023D01*
X149970120Y-89664471D01*
X149972576Y-89661303D01*
X149980156Y-89652427D01*
X150010062Y-89620582D01*
X150019713Y-89603024D01*
X150030396Y-89586761D01*
X150042673Y-89570936D01*
X150060021Y-89530844D01*
X150065151Y-89520371D01*
X150086197Y-89482092D01*
X150091180Y-89462680D01*
X150097481Y-89444280D01*
X150105437Y-89425896D01*
X150112270Y-89382748D01*
X150114633Y-89371338D01*
X150125500Y-89329019D01*
X150125500Y-89308983D01*
X150127027Y-89289582D01*
X150130160Y-89269804D01*
X150126050Y-89226324D01*
X150125500Y-89214655D01*
X150125500Y-81082742D01*
X150127224Y-81067122D01*
X150126939Y-81067096D01*
X150127671Y-81059340D01*
X150127673Y-81059333D01*
X150125561Y-80992126D01*
X150125500Y-80988231D01*
X150125500Y-80960654D01*
X150125500Y-80960650D01*
X150124996Y-80956665D01*
X150124080Y-80945021D01*
X150123571Y-80928821D01*
X150122709Y-80901373D01*
X150117122Y-80882144D01*
X150113174Y-80863084D01*
X150110664Y-80843208D01*
X150110663Y-80843206D01*
X150110663Y-80843204D01*
X150094588Y-80802604D01*
X150090804Y-80791552D01*
X150078618Y-80749609D01*
X150078616Y-80749606D01*
X150068423Y-80732371D01*
X150059861Y-80714894D01*
X150052487Y-80696269D01*
X150039667Y-80678624D01*
X150026811Y-80660930D01*
X150020405Y-80651177D01*
X150002196Y-80620388D01*
X149998172Y-80613583D01*
X149998165Y-80613574D01*
X149984006Y-80599415D01*
X149971368Y-80584619D01*
X149959594Y-80568413D01*
X149958373Y-80567403D01*
X149925940Y-80540572D01*
X149917299Y-80532709D01*
X149534590Y-80150000D01*
X155041550Y-80150000D01*
X155060122Y-80385977D01*
X155115378Y-80616136D01*
X155205960Y-80834822D01*
X155329634Y-81036640D01*
X155329635Y-81036642D01*
X155483363Y-81216634D01*
X155490549Y-81222771D01*
X155506030Y-81235993D01*
X155544224Y-81294498D01*
X155549500Y-81330284D01*
X155549500Y-82750743D01*
X155564925Y-82902439D01*
X155625837Y-83096579D01*
X155625844Y-83096594D01*
X155724589Y-83274499D01*
X155724592Y-83274504D01*
X155857132Y-83428893D01*
X155857134Y-83428895D01*
X156018037Y-83553445D01*
X156018038Y-83553445D01*
X156018042Y-83553448D01*
X156200729Y-83643060D01*
X156397715Y-83694063D01*
X156600936Y-83704369D01*
X156802071Y-83673556D01*
X156992887Y-83602886D01*
X157165571Y-83495252D01*
X157313053Y-83355059D01*
X157429295Y-83188049D01*
X157509540Y-83001058D01*
X157550500Y-82801741D01*
X157550500Y-81330284D01*
X157570185Y-81263245D01*
X157593968Y-81235994D01*
X157616635Y-81216635D01*
X157770362Y-81036645D01*
X157894039Y-80834822D01*
X157984621Y-80616137D01*
X158039878Y-80385974D01*
X158058450Y-80150000D01*
X158039878Y-79914026D01*
X157984621Y-79683863D01*
X157894039Y-79465178D01*
X157894039Y-79465177D01*
X157770365Y-79263359D01*
X157770364Y-79263358D01*
X157770363Y-79263357D01*
X157770362Y-79263355D01*
X157616635Y-79083365D01*
X157436645Y-78929638D01*
X157436643Y-78929636D01*
X157436641Y-78929635D01*
X157436640Y-78929634D01*
X157234822Y-78805960D01*
X157016136Y-78715378D01*
X156785977Y-78660122D01*
X156550000Y-78641550D01*
X156314022Y-78660122D01*
X156083863Y-78715378D01*
X155865177Y-78805960D01*
X155663359Y-78929634D01*
X155663358Y-78929635D01*
X155483365Y-79083365D01*
X155329635Y-79263358D01*
X155329634Y-79263359D01*
X155205960Y-79465177D01*
X155115378Y-79683863D01*
X155060122Y-79914022D01*
X155041550Y-80150000D01*
X149534590Y-80150000D01*
X148111819Y-78727228D01*
X148078334Y-78665905D01*
X148075500Y-78639547D01*
X148075500Y-76275226D01*
X148095185Y-76208187D01*
X148128374Y-76173654D01*
X148321401Y-76038495D01*
X148488495Y-75871401D01*
X148624035Y-75677830D01*
X148723903Y-75463663D01*
X148785063Y-75235408D01*
X148805659Y-75000000D01*
X148785063Y-74764592D01*
X148723903Y-74536337D01*
X148624035Y-74322171D01*
X148618425Y-74314158D01*
X148488494Y-74128597D01*
X148321402Y-73961506D01*
X148321395Y-73961501D01*
X148127834Y-73825967D01*
X148127830Y-73825965D01*
X148127828Y-73825964D01*
X147913663Y-73726097D01*
X147913659Y-73726096D01*
X147913655Y-73726094D01*
X147685413Y-73664938D01*
X147685403Y-73664936D01*
X147450001Y-73644341D01*
X147449999Y-73644341D01*
X147214596Y-73664936D01*
X147214586Y-73664938D01*
X146986344Y-73726094D01*
X146986335Y-73726098D01*
X146772171Y-73825964D01*
X146772169Y-73825965D01*
X146578597Y-73961505D01*
X146411505Y-74128597D01*
X146281575Y-74314158D01*
X146226998Y-74357783D01*
X146157500Y-74364977D01*
X146095145Y-74333454D01*
X146078425Y-74314158D01*
X145948494Y-74128597D01*
X145781402Y-73961506D01*
X145781395Y-73961501D01*
X145587834Y-73825967D01*
X145587830Y-73825965D01*
X145587828Y-73825964D01*
X145373663Y-73726097D01*
X145373659Y-73726096D01*
X145373655Y-73726094D01*
X145145413Y-73664938D01*
X145145403Y-73664936D01*
X144910001Y-73644341D01*
X144909999Y-73644341D01*
X144674596Y-73664936D01*
X144674586Y-73664938D01*
X144446344Y-73726094D01*
X144446335Y-73726098D01*
X144232171Y-73825964D01*
X144232169Y-73825965D01*
X144038597Y-73961505D01*
X143871505Y-74128597D01*
X143741575Y-74314158D01*
X143686998Y-74357783D01*
X143617500Y-74364977D01*
X143555145Y-74333454D01*
X143538425Y-74314158D01*
X143408494Y-74128597D01*
X143241402Y-73961506D01*
X143241395Y-73961501D01*
X143047834Y-73825967D01*
X143047830Y-73825965D01*
X143047828Y-73825964D01*
X142833663Y-73726097D01*
X142833659Y-73726096D01*
X142833655Y-73726094D01*
X142605413Y-73664938D01*
X142605403Y-73664936D01*
X142370001Y-73644341D01*
X142369999Y-73644341D01*
X142134596Y-73664936D01*
X142134586Y-73664938D01*
X141906344Y-73726094D01*
X141906335Y-73726098D01*
X141692171Y-73825964D01*
X141692169Y-73825965D01*
X141498597Y-73961505D01*
X141331505Y-74128597D01*
X141201575Y-74314158D01*
X141146998Y-74357783D01*
X141077500Y-74364977D01*
X141015145Y-74333454D01*
X140998425Y-74314158D01*
X140868494Y-74128597D01*
X140701402Y-73961506D01*
X140701395Y-73961501D01*
X140507834Y-73825967D01*
X140507830Y-73825965D01*
X140507828Y-73825964D01*
X140293663Y-73726097D01*
X140293659Y-73726096D01*
X140293655Y-73726094D01*
X140065413Y-73664938D01*
X140065403Y-73664936D01*
X139830001Y-73644341D01*
X139829999Y-73644341D01*
X139594596Y-73664936D01*
X139594586Y-73664938D01*
X139366344Y-73726094D01*
X139366335Y-73726098D01*
X139152171Y-73825964D01*
X139152169Y-73825965D01*
X138958597Y-73961505D01*
X138791505Y-74128597D01*
X138661575Y-74314158D01*
X138606998Y-74357783D01*
X138537500Y-74364977D01*
X138475145Y-74333454D01*
X138458425Y-74314158D01*
X138328494Y-74128597D01*
X138161402Y-73961506D01*
X138161395Y-73961501D01*
X137967834Y-73825967D01*
X137967830Y-73825965D01*
X137967828Y-73825964D01*
X137753663Y-73726097D01*
X137753659Y-73726096D01*
X137753655Y-73726094D01*
X137525413Y-73664938D01*
X137525403Y-73664936D01*
X137290001Y-73644341D01*
X137289999Y-73644341D01*
X137054596Y-73664936D01*
X137054586Y-73664938D01*
X136826344Y-73726094D01*
X136826335Y-73726098D01*
X136612171Y-73825964D01*
X136612169Y-73825965D01*
X136418597Y-73961505D01*
X136251505Y-74128597D01*
X136121575Y-74314158D01*
X136066998Y-74357783D01*
X135997500Y-74364977D01*
X135935145Y-74333454D01*
X135918425Y-74314158D01*
X135788494Y-74128597D01*
X135621402Y-73961506D01*
X135621395Y-73961501D01*
X135427834Y-73825967D01*
X135427830Y-73825965D01*
X135427828Y-73825964D01*
X135213663Y-73726097D01*
X135213659Y-73726096D01*
X135213655Y-73726094D01*
X134985413Y-73664938D01*
X134985403Y-73664936D01*
X134750001Y-73644341D01*
X134749999Y-73644341D01*
X134514596Y-73664936D01*
X134514586Y-73664938D01*
X134286344Y-73726094D01*
X134286335Y-73726098D01*
X134072171Y-73825964D01*
X134072169Y-73825965D01*
X133878597Y-73961505D01*
X133711505Y-74128597D01*
X133581575Y-74314158D01*
X133526998Y-74357783D01*
X133457500Y-74364977D01*
X133395145Y-74333454D01*
X133378425Y-74314158D01*
X133248494Y-74128597D01*
X133081402Y-73961506D01*
X133081395Y-73961501D01*
X132887834Y-73825967D01*
X132887830Y-73825965D01*
X132887828Y-73825964D01*
X132673663Y-73726097D01*
X132673659Y-73726096D01*
X132673655Y-73726094D01*
X132445413Y-73664938D01*
X132445403Y-73664936D01*
X132210001Y-73644341D01*
X132209999Y-73644341D01*
X131974596Y-73664936D01*
X131974586Y-73664938D01*
X131746344Y-73726094D01*
X131746335Y-73726098D01*
X131532171Y-73825964D01*
X131532169Y-73825965D01*
X131338600Y-73961503D01*
X131216673Y-74083430D01*
X131155350Y-74116914D01*
X131085658Y-74111930D01*
X131029725Y-74070058D01*
X131012810Y-74039081D01*
X130963797Y-73907671D01*
X130963793Y-73907664D01*
X130877547Y-73792455D01*
X130877544Y-73792452D01*
X130762335Y-73706206D01*
X130762328Y-73706202D01*
X130627482Y-73655908D01*
X130627483Y-73655908D01*
X130567883Y-73649501D01*
X130567881Y-73649500D01*
X130567873Y-73649500D01*
X130567864Y-73649500D01*
X128772129Y-73649500D01*
X128772123Y-73649501D01*
X128712516Y-73655908D01*
X128577671Y-73706202D01*
X128577664Y-73706206D01*
X128462455Y-73792452D01*
X128462452Y-73792455D01*
X128376206Y-73907664D01*
X128376202Y-73907671D01*
X128325908Y-74042517D01*
X128319501Y-74102116D01*
X128319500Y-74102135D01*
X128319500Y-75897870D01*
X116200500Y-75897870D01*
X116200500Y-66999500D01*
X116220185Y-66932461D01*
X116272989Y-66886706D01*
X116324500Y-66875500D01*
X166075500Y-66875500D01*
X166142539Y-66895185D01*
G37*
%TD.AperFunction*%
%TD*%
M02*
