M48
; DRILL file {KiCad 7.0.10} date Sunday, April 21, 2024 at 10:28:23 PM
; FORMAT={-:-/ absolute / inch / decimal}
; #@! TF.CreationDate,2024-04-21T22:28:23-04:00
; #@! TF.GenerationSoftware,Kicad,Pcbnew,7.0.10
; #@! TF.FileFunction,Plated,1,6,PTH
FMAT,2
INCH
; #@! TA.AperFunction,Plated,PTH,ViaDrill
T1C0.0118
; #@! TA.AperFunction,Plated,PTH,ViaDrill
T2C0.0157
; #@! TA.AperFunction,Plated,PTH,ComponentDrill
T3C0.0197
; #@! TA.AperFunction,Plated,PTH,ComponentDrill
T4C0.0394
; #@! TA.AperFunction,Plated,PTH,ComponentDrill
T5C0.0550
; #@! TA.AperFunction,Plated,PTH,ComponentDrill
T6C0.0590
; #@! TA.AperFunction,Plated,PTH,ComponentDrill
T7C0.0630
; #@! TA.AperFunction,Plated,PTH,ComponentDrill
T8C0.1063
%
G90
G05
T1
X5.3051Y-3.6614
X5.3474Y-3.8386
X5.3967Y-3.8386
X5.4193Y-3.6614
X5.4331Y-3.4547
X5.4331Y-3.4921
X5.4331Y-3.5236
X5.4429Y-3.7598
X5.4626Y-3.7992
X5.4921Y-3.7992
X5.5315Y-3.7992
X5.5355Y-3.4685
X5.5413Y-3.3465
X5.5671Y-3.4658
X5.5906Y-3.3465
X5.6Y-3.4677
X5.6398Y-3.3465
X5.6693Y-3.5138
X5.6879Y-3.6996
X5.689Y-3.3465
X5.7283Y-3.75
X5.8268Y-3.9469
T2
X4.8031Y-3.3612
X4.8031Y-3.7352
X5.2165Y-4.3996
X5.3165Y-4.398
X5.4165Y-4.3965
X5.5217Y-3.5827
X5.5217Y-3.6614
X5.5571Y-3.6181
X5.5906Y-3.5827
X5.5906Y-3.6614
X6.1634Y-3.2559
X6.1634Y-3.7185
T3
X4.6919Y-2.8297
X4.6919Y-4.4045
X4.7153Y-2.7734
X4.7153Y-2.8861
X4.7153Y-4.3482
X4.7153Y-4.4609
X4.7717Y-2.75
X4.7717Y-2.9094
X4.7717Y-4.3248
X4.7717Y-4.4843
X4.828Y-2.7734
X4.828Y-2.8861
X4.828Y-4.3482
X4.828Y-4.4609
X4.8514Y-2.8297
X4.8514Y-4.4045
X6.2667Y-2.8297
X6.2667Y-4.4045
X6.2901Y-2.7734
X6.2901Y-2.8861
X6.2901Y-4.3482
X6.2901Y-4.4609
X6.3465Y-2.75
X6.3465Y-2.9094
X6.3465Y-4.3248
X6.3465Y-4.4843
X6.4028Y-2.7734
X6.4028Y-2.8861
X6.4028Y-4.3482
X6.4028Y-4.4609
X6.4262Y-2.8297
X6.4262Y-4.4045
T4
X4.9787Y-3.3563
X4.9787Y-3.5531
X4.9787Y-3.75
X5.0787Y-3.3563
X5.0787Y-3.5531
X5.0787Y-3.75
X5.1051Y-2.9528
X5.1161Y-4.1437
X5.1165Y-4.3307
X5.1787Y-3.3563
X5.1787Y-3.5531
X5.1787Y-3.75
X5.2051Y-2.9528
X5.2161Y-4.1437
X5.2165Y-4.3307
X5.3051Y-2.9528
X5.3161Y-4.1437
X5.3165Y-4.3307
X5.4051Y-2.9528
X5.4161Y-4.1437
X5.4165Y-4.3307
X5.5051Y-2.9528
X5.6051Y-2.9528
X5.7051Y-2.9528
X5.8051Y-2.9528
T5
X5.6496Y-4.1908
X5.6496Y-4.3918
X5.8506Y-4.1908
X5.8506Y-4.3918
X6.0629Y-3.055
X6.0629Y-3.256
X6.0629Y-3.5176
X6.0629Y-3.7186
X6.0629Y-3.9802
X6.0629Y-4.1812
X6.2639Y-3.055
X6.2639Y-3.256
X6.2639Y-3.5176
X6.2639Y-3.7186
X6.2639Y-3.9802
X6.2639Y-4.1812
T6
X5.7501Y-4.2913
X6.1634Y-3.1555
X6.1634Y-3.6181
X6.1634Y-4.0807
T7
X4.8031Y-3.253
X4.8031Y-3.627
X4.8031Y-3.937
X5.1378Y-3.937
T8
X4.7717Y-2.8297
X4.7717Y-4.4045
X6.3465Y-2.8297
X6.3465Y-4.4045
M30
