%TF.GenerationSoftware,KiCad,Pcbnew,9.0.0*%
%TF.CreationDate,2025-03-31T13:52:10-04:00*%
%TF.ProjectId,neurophy-card-full,6e657572-6f70-4687-992d-636172642d66,1*%
%TF.SameCoordinates,Original*%
%TF.FileFunction,Copper,L6,Bot*%
%TF.FilePolarity,Positive*%
%FSLAX46Y46*%
G04 Gerber Fmt 4.6, Leading zero omitted, Abs format (unit mm)*
G04 Created by KiCad (PCBNEW 9.0.0) date 2025-03-31 13:52:10*
%MOMM*%
%LPD*%
G01*
G04 APERTURE LIST*
%TA.AperFunction,ComponentPad*%
%ADD10R,1.700000X1.700000*%
%TD*%
%TA.AperFunction,ComponentPad*%
%ADD11O,1.700000X1.700000*%
%TD*%
%TA.AperFunction,ComponentPad*%
%ADD12C,1.755000*%
%TD*%
%TA.AperFunction,ComponentPad*%
%ADD13C,2.550000*%
%TD*%
%TA.AperFunction,ComponentPad*%
%ADD14C,2.050000*%
%TD*%
%TA.AperFunction,ComponentPad*%
%ADD15C,2.250000*%
%TD*%
%TA.AperFunction,Conductor*%
%ADD16C,1.000000*%
%TD*%
%TA.AperFunction,Conductor*%
%ADD17C,0.200000*%
%TD*%
G04 APERTURE END LIST*
D10*
%TO.P,J20,1,Pin_1*%
%TO.N,unconnected-(J20-Pin_1-Pad1)*%
X61500000Y-88125000D03*
D11*
%TO.P,J20,2,Pin_2*%
%TO.N,unconnected-(J20-Pin_2-Pad2)*%
X61500000Y-90665000D03*
%TO.P,J20,3,Pin_3*%
%TO.N,unconnected-(J20-Pin_3-Pad3)*%
X61500000Y-93205000D03*
%TO.P,J20,4,Pin_4*%
%TO.N,unconnected-(J20-Pin_4-Pad4)*%
X61500000Y-95745000D03*
%TO.P,J20,5,Pin_5*%
%TO.N,unconnected-(J20-Pin_5-Pad5)*%
X61500000Y-98285000D03*
%TO.P,J20,6,Pin_6*%
%TO.N,unconnected-(J20-Pin_6-Pad6)*%
X61500000Y-100825000D03*
%TO.P,J20,7,Pin_7*%
%TO.N,unconnected-(J20-Pin_7-Pad7)*%
X61500000Y-103365000D03*
%TO.P,J20,8,Pin_8*%
%TO.N,unconnected-(J20-Pin_8-Pad8)*%
X61500000Y-105905000D03*
%TD*%
D12*
%TO.P,J12,1,In*%
%TO.N,Net-(J12-In)*%
X167000000Y-89500000D03*
D13*
%TO.P,J12,2,Ext*%
%TO.N,Earth*%
X169540000Y-92040000D03*
X169540000Y-86960000D03*
X164460000Y-92040000D03*
X164460000Y-86960000D03*
%TD*%
D12*
%TO.P,J8,1,In*%
%TO.N,Net-(J18-Pin_4)*%
X99250000Y-119495000D03*
D13*
%TO.P,J8,2,Ext*%
%TO.N,Earth*%
X101790000Y-122035000D03*
X101790000Y-116955000D03*
X96710000Y-122035000D03*
X96710000Y-116955000D03*
%TD*%
D12*
%TO.P,J3,1,In*%
%TO.N,Net-(J17-Pin_2)*%
X75750000Y-104495000D03*
D13*
%TO.P,J3,2,Ext*%
%TO.N,Earth*%
X73210000Y-101955000D03*
X73210000Y-107035000D03*
X78290000Y-101955000D03*
X78290000Y-107035000D03*
%TD*%
D12*
%TO.P,J5,1,In*%
%TO.N,Net-(J17-Pin_3)*%
X75750000Y-89495000D03*
D13*
%TO.P,J5,2,Ext*%
%TO.N,Earth*%
X73210000Y-86955000D03*
X73210000Y-92035000D03*
X78290000Y-86955000D03*
X78290000Y-92035000D03*
%TD*%
D10*
%TO.P,J18,1,Pin_1*%
%TO.N,Net-(J18-Pin_1)*%
X180250000Y-88130000D03*
D11*
%TO.P,J18,2,Pin_2*%
%TO.N,Net-(J18-Pin_2)*%
X180250000Y-90670000D03*
%TO.P,J18,3,Pin_3*%
%TO.N,Net-(J18-Pin_3)*%
X180250000Y-93210000D03*
%TO.P,J18,4,Pin_4*%
%TO.N,Net-(J18-Pin_4)*%
X180250000Y-95750000D03*
%TO.P,J18,5,Pin_5*%
%TO.N,Net-(J10-In)*%
X180250000Y-98290000D03*
%TO.P,J18,6,Pin_6*%
%TO.N,Net-(J12-In)*%
X180250000Y-100830000D03*
%TO.P,J18,7,Pin_7*%
%TO.N,Net-(J14-In)*%
X180250000Y-103370000D03*
%TO.P,J18,8,Pin_8*%
%TO.N,Net-(J16-In)*%
X180250000Y-105910000D03*
%TD*%
D12*
%TO.P,J11,1,In*%
%TO.N,Net-(J11-In)*%
X143500000Y-104497500D03*
D13*
%TO.P,J11,2,Ext*%
%TO.N,Earth*%
X140960000Y-101957500D03*
X140960000Y-107037500D03*
X146040000Y-101957500D03*
X146040000Y-107037500D03*
%TD*%
D12*
%TO.P,J2,1,In*%
%TO.N,Net-(J18-Pin_1)*%
X99250000Y-74500000D03*
D13*
%TO.P,J2,2,Ext*%
%TO.N,Earth*%
X101790000Y-77040000D03*
X101790000Y-71960000D03*
X96710000Y-77040000D03*
X96710000Y-71960000D03*
%TD*%
D14*
%TO.P,J21,1,In*%
%TO.N,Earth*%
X116750000Y-107000000D03*
D15*
%TO.P,J21,2,Ext*%
X114210000Y-104460000D03*
X114210000Y-109540000D03*
X119290000Y-104460000D03*
X119290000Y-109540000D03*
%TD*%
D12*
%TO.P,J14,1,In*%
%TO.N,Net-(J14-In)*%
X167000000Y-104500000D03*
D13*
%TO.P,J14,2,Ext*%
%TO.N,Earth*%
X169540000Y-107040000D03*
X169540000Y-101960000D03*
X164460000Y-107040000D03*
X164460000Y-101960000D03*
%TD*%
D12*
%TO.P,J10,1,In*%
%TO.N,Net-(J10-In)*%
X167000000Y-74502500D03*
D13*
%TO.P,J10,2,Ext*%
%TO.N,Earth*%
X169540000Y-77042500D03*
X169540000Y-71962500D03*
X164460000Y-77042500D03*
X164460000Y-71962500D03*
%TD*%
D12*
%TO.P,J1,1,In*%
%TO.N,Net-(J1-In)*%
X75750000Y-119492500D03*
D13*
%TO.P,J1,2,Ext*%
%TO.N,Earth*%
X73210000Y-116952500D03*
X73210000Y-122032500D03*
X78290000Y-116952500D03*
X78290000Y-122032500D03*
%TD*%
D12*
%TO.P,J6,1,In*%
%TO.N,Net-(J18-Pin_3)*%
X99250000Y-104497500D03*
D13*
%TO.P,J6,2,Ext*%
%TO.N,Earth*%
X101790000Y-107037500D03*
X101790000Y-101957500D03*
X96710000Y-107037500D03*
X96710000Y-101957500D03*
%TD*%
D14*
%TO.P,J22,1,In*%
%TO.N,Earth*%
X116750000Y-87000000D03*
D15*
%TO.P,J22,2,Ext*%
X114210000Y-84460000D03*
X114210000Y-89540000D03*
X119290000Y-84460000D03*
X119290000Y-89540000D03*
%TD*%
D12*
%TO.P,J9,1,In*%
%TO.N,Net-(J17-Pin_5)*%
X143500000Y-119495000D03*
D13*
%TO.P,J9,2,Ext*%
%TO.N,Earth*%
X140960000Y-116955000D03*
X140960000Y-122035000D03*
X146040000Y-116955000D03*
X146040000Y-122035000D03*
%TD*%
D12*
%TO.P,J15,1,In*%
%TO.N,Net-(J15-In)*%
X143500000Y-74500000D03*
D13*
%TO.P,J15,2,Ext*%
%TO.N,Earth*%
X140960000Y-71960000D03*
X140960000Y-77040000D03*
X146040000Y-71960000D03*
X146040000Y-77040000D03*
%TD*%
D12*
%TO.P,J16,1,In*%
%TO.N,Net-(J16-In)*%
X167000000Y-119497500D03*
D13*
%TO.P,J16,2,Ext*%
%TO.N,Earth*%
X169540000Y-122037500D03*
X169540000Y-116957500D03*
X164460000Y-122037500D03*
X164460000Y-116957500D03*
%TD*%
D12*
%TO.P,J4,1,In*%
%TO.N,Net-(J18-Pin_2)*%
X99250000Y-89497500D03*
D13*
%TO.P,J4,2,Ext*%
%TO.N,Earth*%
X101790000Y-92037500D03*
X101790000Y-86957500D03*
X96710000Y-92037500D03*
X96710000Y-86957500D03*
%TD*%
D12*
%TO.P,J13,1,In*%
%TO.N,Net-(J13-In)*%
X143500000Y-89497500D03*
D13*
%TO.P,J13,2,Ext*%
%TO.N,Earth*%
X140960000Y-86957500D03*
X140960000Y-92037500D03*
X146040000Y-86957500D03*
X146040000Y-92037500D03*
%TD*%
D12*
%TO.P,J7,1,In*%
%TO.N,Net-(J17-Pin_4)*%
X75750000Y-74497500D03*
D13*
%TO.P,J7,2,Ext*%
%TO.N,Earth*%
X73210000Y-71957500D03*
X73210000Y-77037500D03*
X78290000Y-71957500D03*
X78290000Y-77037500D03*
%TD*%
D10*
%TO.P,J17,1,Pin_1*%
%TO.N,Net-(J1-In)*%
X112470000Y-119495000D03*
D11*
%TO.P,J17,2,Pin_2*%
%TO.N,Net-(J17-Pin_2)*%
X115010000Y-119495000D03*
%TO.P,J17,3,Pin_3*%
%TO.N,Net-(J17-Pin_3)*%
X117550000Y-119495000D03*
%TO.P,J17,4,Pin_4*%
%TO.N,Net-(J17-Pin_4)*%
X120090000Y-119495000D03*
%TO.P,J17,5,Pin_5*%
%TO.N,Net-(J17-Pin_5)*%
X122630000Y-119495000D03*
%TO.P,J17,6,Pin_6*%
%TO.N,Net-(J11-In)*%
X125170000Y-119495000D03*
%TO.P,J17,7,Pin_7*%
%TO.N,Net-(J13-In)*%
X127710000Y-119495000D03*
%TO.P,J17,8,Pin_8*%
%TO.N,Net-(J15-In)*%
X130250000Y-119495000D03*
%TD*%
D10*
%TO.P,J19,1,Pin_1*%
%TO.N,unconnected-(J19-Pin_1-Pad1)*%
X130250000Y-88125000D03*
D11*
%TO.P,J19,2,Pin_2*%
%TO.N,unconnected-(J19-Pin_2-Pad2)*%
X130250000Y-90665000D03*
%TO.P,J19,3,Pin_3*%
%TO.N,unconnected-(J19-Pin_3-Pad3)*%
X130250000Y-93205000D03*
%TO.P,J19,4,Pin_4*%
%TO.N,unconnected-(J19-Pin_4-Pad4)*%
X130250000Y-95745000D03*
%TO.P,J19,5,Pin_5*%
%TO.N,unconnected-(J19-Pin_5-Pad5)*%
X130250000Y-98285000D03*
%TO.P,J19,6,Pin_6*%
%TO.N,unconnected-(J19-Pin_6-Pad6)*%
X130250000Y-100825000D03*
%TO.P,J19,7,Pin_7*%
%TO.N,unconnected-(J19-Pin_7-Pad7)*%
X130250000Y-103365000D03*
%TO.P,J19,8,Pin_8*%
%TO.N,unconnected-(J19-Pin_8-Pad8)*%
X130250000Y-105905000D03*
%TD*%
D16*
%TO.N,Net-(J11-In)*%
X125170000Y-119495000D02*
X125170000Y-116580000D01*
X128500000Y-115000000D02*
X139002500Y-104497500D01*
X125170000Y-116580000D02*
X126750000Y-115000000D01*
X126750000Y-115000000D02*
X128500000Y-115000000D01*
X139002500Y-104497500D02*
X143500000Y-104497500D01*
%TO.N,Net-(J17-Pin_5)*%
X138505000Y-119495000D02*
X143500000Y-119495000D01*
X124750000Y-124500000D02*
X133500000Y-124500000D01*
X122630000Y-122380000D02*
X124750000Y-124500000D01*
X122630000Y-119495000D02*
X122630000Y-122380000D01*
X133500000Y-124500000D02*
X138505000Y-119495000D01*
%TO.N,Net-(J13-In)*%
X127710000Y-121710000D02*
X128500000Y-122500000D01*
X135000000Y-119250000D02*
X135000000Y-116500000D01*
X127710000Y-119495000D02*
X127710000Y-121710000D01*
X149997500Y-89497500D02*
X143500000Y-89497500D01*
X152250000Y-113750000D02*
X154250000Y-111750000D01*
X154250000Y-93750000D02*
X149997500Y-89497500D01*
X154250000Y-111750000D02*
X154250000Y-93750000D01*
X128500000Y-122500000D02*
X131750000Y-122500000D01*
D17*
X127710000Y-119495000D02*
X127750000Y-119455000D01*
D16*
X137750000Y-113750000D02*
X152250000Y-113750000D01*
X135000000Y-116500000D02*
X137750000Y-113750000D01*
X131750000Y-122500000D02*
X135000000Y-119250000D01*
%TO.N,Net-(J15-In)*%
X134500000Y-78250000D02*
X138250000Y-74500000D01*
X134500000Y-94250000D02*
X134500000Y-78250000D01*
X151500000Y-108750000D02*
X151500000Y-99000000D01*
X136000000Y-111250000D02*
X149000000Y-111250000D01*
X149000000Y-111250000D02*
X151500000Y-108750000D01*
X137250000Y-97000000D02*
X134500000Y-94250000D01*
X130250000Y-119495000D02*
X130250000Y-117000000D01*
X149500000Y-97000000D02*
X137250000Y-97000000D01*
X130250000Y-117000000D02*
X136000000Y-111250000D01*
X138250000Y-74500000D02*
X143500000Y-74500000D01*
X151500000Y-99000000D02*
X149500000Y-97000000D01*
%TD*%
%TA.AperFunction,Conductor*%
%TO.N,Earth*%
G36*
X184692539Y-67520185D02*
G01*
X184738294Y-67572989D01*
X184749500Y-67624500D01*
X184749500Y-126375500D01*
X184729815Y-126442539D01*
X184677011Y-126488294D01*
X184625500Y-126499500D01*
X57124500Y-126499500D01*
X57057461Y-126479815D01*
X57011706Y-126427011D01*
X57000500Y-126375500D01*
X57000500Y-119384049D01*
X74372000Y-119384049D01*
X74372000Y-119600950D01*
X74405931Y-119815183D01*
X74472955Y-120021465D01*
X74571428Y-120214728D01*
X74698920Y-120390207D01*
X74852292Y-120543579D01*
X75027771Y-120671071D01*
X75221034Y-120769544D01*
X75280287Y-120788796D01*
X75427318Y-120836569D01*
X75641549Y-120870500D01*
X75641550Y-120870500D01*
X75858450Y-120870500D01*
X75858451Y-120870500D01*
X76072682Y-120836569D01*
X76278968Y-120769543D01*
X76472229Y-120671071D01*
X76647707Y-120543580D01*
X76801080Y-120390207D01*
X76928571Y-120214729D01*
X77027043Y-120021468D01*
X77094069Y-119815182D01*
X77128000Y-119600951D01*
X77128000Y-119386549D01*
X97872000Y-119386549D01*
X97872000Y-119603450D01*
X97905931Y-119817683D01*
X97972955Y-120023965D01*
X98071428Y-120217228D01*
X98073245Y-120219729D01*
X98198920Y-120392707D01*
X98352293Y-120546080D01*
X98527771Y-120673571D01*
X98716127Y-120769544D01*
X98721034Y-120772044D01*
X98824175Y-120805556D01*
X98927318Y-120839069D01*
X99141549Y-120873000D01*
X99141550Y-120873000D01*
X99358450Y-120873000D01*
X99358451Y-120873000D01*
X99572682Y-120839069D01*
X99778968Y-120772043D01*
X99972229Y-120673571D01*
X100147707Y-120546080D01*
X100301080Y-120392707D01*
X100428571Y-120217229D01*
X100527043Y-120023968D01*
X100594069Y-119817682D01*
X100628000Y-119603451D01*
X100628000Y-119386549D01*
X100594069Y-119172318D01*
X100560556Y-119069175D01*
X100527044Y-118966034D01*
X100428571Y-118772771D01*
X100351500Y-118666691D01*
X100301080Y-118597293D01*
X100300922Y-118597135D01*
X111119500Y-118597135D01*
X111119500Y-120392870D01*
X111119501Y-120392876D01*
X111125908Y-120452483D01*
X111176202Y-120587328D01*
X111176206Y-120587335D01*
X111262452Y-120702544D01*
X111262455Y-120702547D01*
X111377664Y-120788793D01*
X111377671Y-120788797D01*
X111512517Y-120839091D01*
X111512516Y-120839091D01*
X111519444Y-120839835D01*
X111572127Y-120845500D01*
X113367872Y-120845499D01*
X113427483Y-120839091D01*
X113562331Y-120788796D01*
X113677546Y-120702546D01*
X113763796Y-120587331D01*
X113812810Y-120455916D01*
X113854681Y-120399984D01*
X113920145Y-120375566D01*
X113988418Y-120390417D01*
X114016673Y-120411569D01*
X114130213Y-120525109D01*
X114302179Y-120650048D01*
X114302181Y-120650049D01*
X114302184Y-120650051D01*
X114491588Y-120746557D01*
X114693757Y-120812246D01*
X114903713Y-120845500D01*
X114903714Y-120845500D01*
X115116286Y-120845500D01*
X115116287Y-120845500D01*
X115326243Y-120812246D01*
X115528412Y-120746557D01*
X115717816Y-120650051D01*
X115804138Y-120587335D01*
X115889786Y-120525109D01*
X115889788Y-120525106D01*
X115889792Y-120525104D01*
X116040104Y-120374792D01*
X116040106Y-120374788D01*
X116040109Y-120374786D01*
X116165048Y-120202820D01*
X116165047Y-120202820D01*
X116165051Y-120202816D01*
X116169514Y-120194054D01*
X116217488Y-120143259D01*
X116285308Y-120126463D01*
X116351444Y-120148999D01*
X116390486Y-120194056D01*
X116394951Y-120202820D01*
X116519890Y-120374786D01*
X116670213Y-120525109D01*
X116842179Y-120650048D01*
X116842181Y-120650049D01*
X116842184Y-120650051D01*
X117031588Y-120746557D01*
X117233757Y-120812246D01*
X117443713Y-120845500D01*
X117443714Y-120845500D01*
X117656286Y-120845500D01*
X117656287Y-120845500D01*
X117866243Y-120812246D01*
X118068412Y-120746557D01*
X118257816Y-120650051D01*
X118344138Y-120587335D01*
X118429786Y-120525109D01*
X118429788Y-120525106D01*
X118429792Y-120525104D01*
X118580104Y-120374792D01*
X118580106Y-120374788D01*
X118580109Y-120374786D01*
X118705048Y-120202820D01*
X118705047Y-120202820D01*
X118705051Y-120202816D01*
X118709514Y-120194054D01*
X118757488Y-120143259D01*
X118825308Y-120126463D01*
X118891444Y-120148999D01*
X118930486Y-120194056D01*
X118934951Y-120202820D01*
X119059890Y-120374786D01*
X119210213Y-120525109D01*
X119382179Y-120650048D01*
X119382181Y-120650049D01*
X119382184Y-120650051D01*
X119571588Y-120746557D01*
X119773757Y-120812246D01*
X119983713Y-120845500D01*
X119983714Y-120845500D01*
X120196286Y-120845500D01*
X120196287Y-120845500D01*
X120406243Y-120812246D01*
X120608412Y-120746557D01*
X120797816Y-120650051D01*
X120884138Y-120587335D01*
X120969786Y-120525109D01*
X120969788Y-120525106D01*
X120969792Y-120525104D01*
X121120104Y-120374792D01*
X121120106Y-120374788D01*
X121120109Y-120374786D01*
X121245048Y-120202820D01*
X121245047Y-120202820D01*
X121245051Y-120202816D01*
X121249514Y-120194054D01*
X121297488Y-120143259D01*
X121365308Y-120126463D01*
X121431444Y-120148999D01*
X121470486Y-120194056D01*
X121474951Y-120202820D01*
X121602759Y-120378734D01*
X121601888Y-120379366D01*
X121628357Y-120438401D01*
X121629500Y-120455199D01*
X121629500Y-122478541D01*
X121629500Y-122478543D01*
X121629499Y-122478543D01*
X121667947Y-122671829D01*
X121667950Y-122671839D01*
X121743364Y-122853907D01*
X121743371Y-122853920D01*
X121852859Y-123017780D01*
X121852860Y-123017781D01*
X121852861Y-123017782D01*
X121992218Y-123157139D01*
X121992219Y-123157139D01*
X121999286Y-123164206D01*
X121999285Y-123164206D01*
X121999288Y-123164208D01*
X123972860Y-125137781D01*
X123972861Y-125137782D01*
X124112218Y-125277139D01*
X124112219Y-125277140D01*
X124276079Y-125386628D01*
X124276092Y-125386635D01*
X124404833Y-125439961D01*
X124447744Y-125457735D01*
X124458164Y-125462051D01*
X124554812Y-125481275D01*
X124603135Y-125490887D01*
X124651458Y-125500500D01*
X124651459Y-125500500D01*
X133598542Y-125500500D01*
X133629566Y-125494328D01*
X133695188Y-125481275D01*
X133791836Y-125462051D01*
X133845165Y-125439961D01*
X133973914Y-125386632D01*
X134137782Y-125277139D01*
X134277139Y-125137782D01*
X134277140Y-125137779D01*
X134284206Y-125130714D01*
X134284208Y-125130710D01*
X138883101Y-120531819D01*
X138944424Y-120498334D01*
X138970782Y-120495500D01*
X142500351Y-120495500D01*
X142567390Y-120515185D01*
X142588032Y-120531819D01*
X142602293Y-120546080D01*
X142777771Y-120673571D01*
X142966127Y-120769544D01*
X142971034Y-120772044D01*
X143074175Y-120805556D01*
X143177318Y-120839069D01*
X143391549Y-120873000D01*
X143391550Y-120873000D01*
X143608450Y-120873000D01*
X143608451Y-120873000D01*
X143822682Y-120839069D01*
X144028968Y-120772043D01*
X144222229Y-120673571D01*
X144397707Y-120546080D01*
X144551080Y-120392707D01*
X144678571Y-120217229D01*
X144777043Y-120023968D01*
X144844069Y-119817682D01*
X144878000Y-119603451D01*
X144878000Y-119389049D01*
X165622000Y-119389049D01*
X165622000Y-119605950D01*
X165655931Y-119820183D01*
X165722955Y-120026465D01*
X165820154Y-120217228D01*
X165821429Y-120219729D01*
X165948920Y-120395207D01*
X166102293Y-120548580D01*
X166277771Y-120676071D01*
X166466127Y-120772044D01*
X166471034Y-120774544D01*
X166574175Y-120808056D01*
X166677318Y-120841569D01*
X166891549Y-120875500D01*
X166891550Y-120875500D01*
X167108450Y-120875500D01*
X167108451Y-120875500D01*
X167322682Y-120841569D01*
X167528968Y-120774543D01*
X167722229Y-120676071D01*
X167897707Y-120548580D01*
X168051080Y-120395207D01*
X168178571Y-120219729D01*
X168277043Y-120026468D01*
X168344069Y-119820182D01*
X168378000Y-119605951D01*
X168378000Y-119389049D01*
X168344069Y-119174818D01*
X168277043Y-118968532D01*
X168178571Y-118775271D01*
X168051080Y-118599793D01*
X167897707Y-118446420D01*
X167837488Y-118402669D01*
X167722228Y-118318928D01*
X167528965Y-118220455D01*
X167322683Y-118153431D01*
X167215566Y-118136465D01*
X167108451Y-118119500D01*
X166891549Y-118119500D01*
X166820138Y-118130810D01*
X166677316Y-118153431D01*
X166471034Y-118220455D01*
X166277771Y-118318928D01*
X166102292Y-118446420D01*
X165948920Y-118599792D01*
X165821428Y-118775271D01*
X165722955Y-118968534D01*
X165655931Y-119174816D01*
X165622000Y-119389049D01*
X144878000Y-119389049D01*
X144878000Y-119386549D01*
X144844069Y-119172318D01*
X144810556Y-119069175D01*
X144777044Y-118966034D01*
X144678571Y-118772771D01*
X144601500Y-118666691D01*
X144551080Y-118597293D01*
X144397707Y-118443920D01*
X144340929Y-118402669D01*
X144222228Y-118316428D01*
X144028965Y-118217955D01*
X143822683Y-118150931D01*
X143715566Y-118133965D01*
X143608451Y-118117000D01*
X143391549Y-118117000D01*
X143375765Y-118119500D01*
X143177316Y-118150931D01*
X142971034Y-118217955D01*
X142777771Y-118316428D01*
X142602292Y-118443920D01*
X142588032Y-118458181D01*
X142526709Y-118491666D01*
X142500351Y-118494500D01*
X138406455Y-118494500D01*
X138309812Y-118513724D01*
X138213167Y-118532947D01*
X138213161Y-118532949D01*
X138159834Y-118555037D01*
X138159834Y-118555038D01*
X138135642Y-118565059D01*
X138031089Y-118608366D01*
X138031079Y-118608371D01*
X137867219Y-118717859D01*
X137814808Y-118770271D01*
X137727861Y-118857218D01*
X137727858Y-118857221D01*
X133121899Y-123463181D01*
X133060576Y-123496666D01*
X133034218Y-123499500D01*
X132463392Y-123499500D01*
X132441892Y-123493186D01*
X132419548Y-123491490D01*
X132409015Y-123483533D01*
X132396353Y-123479815D01*
X132381680Y-123462881D01*
X132363799Y-123449373D01*
X132359240Y-123436984D01*
X132350598Y-123427011D01*
X132347409Y-123404833D01*
X132339670Y-123383802D01*
X132342532Y-123370916D01*
X132340654Y-123357853D01*
X132349962Y-123337470D01*
X132354822Y-123315595D01*
X132366197Y-123301920D01*
X132369679Y-123294297D01*
X132376097Y-123287434D01*
X132383796Y-123279802D01*
X132387782Y-123277139D01*
X132527139Y-123137782D01*
X132527141Y-123137778D01*
X135637778Y-120027141D01*
X135637782Y-120027139D01*
X135777139Y-119887782D01*
X135886632Y-119723914D01*
X135962051Y-119541835D01*
X135974632Y-119478582D01*
X136000500Y-119348543D01*
X136000500Y-116965782D01*
X136020185Y-116898743D01*
X136036819Y-116878101D01*
X138128102Y-114786819D01*
X138189425Y-114753334D01*
X138215783Y-114750500D01*
X152348542Y-114750500D01*
X152379566Y-114744328D01*
X152445188Y-114731275D01*
X152541836Y-114712051D01*
X152595165Y-114689961D01*
X152723914Y-114636632D01*
X152887782Y-114527139D01*
X153027139Y-114387782D01*
X153027140Y-114387779D01*
X153034206Y-114380714D01*
X153034209Y-114380710D01*
X154887778Y-112527141D01*
X154887782Y-112527139D01*
X155027139Y-112387782D01*
X155136632Y-112223914D01*
X155189961Y-112095165D01*
X155212051Y-112041836D01*
X155242694Y-111887782D01*
X155250500Y-111848541D01*
X155250500Y-104391549D01*
X165622000Y-104391549D01*
X165622000Y-104608450D01*
X165655931Y-104822683D01*
X165722955Y-105028965D01*
X165820154Y-105219728D01*
X165821429Y-105222229D01*
X165948920Y-105397707D01*
X166102293Y-105551080D01*
X166277771Y-105678571D01*
X166466127Y-105774544D01*
X166471034Y-105777044D01*
X166553114Y-105803713D01*
X166677318Y-105844069D01*
X166891549Y-105878000D01*
X166891550Y-105878000D01*
X167108450Y-105878000D01*
X167108451Y-105878000D01*
X167322682Y-105844069D01*
X167528968Y-105777043D01*
X167722229Y-105678571D01*
X167897707Y-105551080D01*
X168051080Y-105397707D01*
X168178571Y-105222229D01*
X168277043Y-105028968D01*
X168344069Y-104822682D01*
X168378000Y-104608451D01*
X168378000Y-104391549D01*
X168344069Y-104177318D01*
X168277043Y-103971032D01*
X168178571Y-103777771D01*
X168051080Y-103602293D01*
X167897707Y-103448920D01*
X167722229Y-103321429D01*
X167722230Y-103321429D01*
X167722228Y-103321428D01*
X167528965Y-103222955D01*
X167322683Y-103155931D01*
X167215566Y-103138965D01*
X167108451Y-103122000D01*
X166891549Y-103122000D01*
X166820138Y-103133310D01*
X166677316Y-103155931D01*
X166471034Y-103222955D01*
X166277771Y-103321428D01*
X166102292Y-103448920D01*
X165948920Y-103602292D01*
X165821428Y-103777771D01*
X165722955Y-103971034D01*
X165655931Y-104177316D01*
X165622000Y-104391549D01*
X155250500Y-104391549D01*
X155250500Y-93651459D01*
X155250500Y-93651456D01*
X155212052Y-93458170D01*
X155212051Y-93458169D01*
X155212051Y-93458165D01*
X155153284Y-93316287D01*
X155136635Y-93276092D01*
X155136628Y-93276079D01*
X155027139Y-93112218D01*
X155027136Y-93112214D01*
X154884686Y-92969764D01*
X154884655Y-92969735D01*
X151306469Y-89391549D01*
X165622000Y-89391549D01*
X165622000Y-89608451D01*
X165627538Y-89643418D01*
X165655931Y-89822683D01*
X165722955Y-90028965D01*
X165820154Y-90219728D01*
X165821429Y-90222229D01*
X165948920Y-90397707D01*
X166102293Y-90551080D01*
X166277771Y-90678571D01*
X166466127Y-90774544D01*
X166471034Y-90777044D01*
X166574175Y-90810556D01*
X166677318Y-90844069D01*
X166891549Y-90878000D01*
X166891550Y-90878000D01*
X167108450Y-90878000D01*
X167108451Y-90878000D01*
X167322682Y-90844069D01*
X167528968Y-90777043D01*
X167722229Y-90678571D01*
X167897707Y-90551080D01*
X168051080Y-90397707D01*
X168178571Y-90222229D01*
X168277043Y-90028968D01*
X168344069Y-89822682D01*
X168378000Y-89608451D01*
X168378000Y-89391549D01*
X168344069Y-89177318D01*
X168277043Y-88971032D01*
X168178571Y-88777771D01*
X168051080Y-88602293D01*
X167897707Y-88448920D01*
X167722229Y-88321429D01*
X167722230Y-88321429D01*
X167722228Y-88321428D01*
X167528965Y-88222955D01*
X167322683Y-88155931D01*
X167215566Y-88138965D01*
X167108451Y-88122000D01*
X166891549Y-88122000D01*
X166820138Y-88133310D01*
X166677316Y-88155931D01*
X166471034Y-88222955D01*
X166277771Y-88321428D01*
X166102292Y-88448920D01*
X165948920Y-88602292D01*
X165821428Y-88777771D01*
X165722955Y-88971034D01*
X165655931Y-89177316D01*
X165631345Y-89332546D01*
X165622000Y-89391549D01*
X151306469Y-89391549D01*
X150778979Y-88864059D01*
X150778959Y-88864037D01*
X150635285Y-88720363D01*
X150635281Y-88720360D01*
X150471420Y-88610871D01*
X150471411Y-88610866D01*
X150398815Y-88580796D01*
X150342665Y-88557538D01*
X150289336Y-88535449D01*
X150289332Y-88535448D01*
X150289328Y-88535446D01*
X150192688Y-88516224D01*
X150096044Y-88497000D01*
X150096041Y-88497000D01*
X144499649Y-88497000D01*
X144432610Y-88477315D01*
X144411968Y-88460681D01*
X144397707Y-88446420D01*
X144222228Y-88318928D01*
X144028965Y-88220455D01*
X143822683Y-88153431D01*
X143715566Y-88136465D01*
X143608451Y-88119500D01*
X143391549Y-88119500D01*
X143375765Y-88122000D01*
X143177316Y-88153431D01*
X142971034Y-88220455D01*
X142777771Y-88318928D01*
X142602292Y-88446420D01*
X142448920Y-88599792D01*
X142321428Y-88775271D01*
X142222955Y-88968534D01*
X142155931Y-89174816D01*
X142130949Y-89332546D01*
X142122000Y-89389049D01*
X142122000Y-89605951D01*
X142127376Y-89639896D01*
X142155931Y-89820183D01*
X142222955Y-90026465D01*
X142321428Y-90219728D01*
X142323245Y-90222229D01*
X142448920Y-90395207D01*
X142602293Y-90548580D01*
X142777771Y-90676071D01*
X142966127Y-90772044D01*
X142971034Y-90774544D01*
X143074175Y-90808056D01*
X143177318Y-90841569D01*
X143391549Y-90875500D01*
X143391550Y-90875500D01*
X143608450Y-90875500D01*
X143608451Y-90875500D01*
X143822682Y-90841569D01*
X144021528Y-90776960D01*
X144028965Y-90774544D01*
X144028965Y-90774543D01*
X144028968Y-90774543D01*
X144222229Y-90676071D01*
X144397707Y-90548580D01*
X144411968Y-90534319D01*
X144473291Y-90500834D01*
X144499649Y-90498000D01*
X149531718Y-90498000D01*
X149598757Y-90517685D01*
X149619399Y-90534319D01*
X153213181Y-94128101D01*
X153246666Y-94189424D01*
X153249500Y-94215782D01*
X153249500Y-111284218D01*
X153229815Y-111351257D01*
X153213181Y-111371899D01*
X151871899Y-112713181D01*
X151810576Y-112746666D01*
X151784218Y-112749500D01*
X137651455Y-112749500D01*
X137554812Y-112768724D01*
X137458167Y-112787947D01*
X137458161Y-112787949D01*
X137404834Y-112810037D01*
X137404834Y-112810038D01*
X137359315Y-112828892D01*
X137276089Y-112863366D01*
X137276079Y-112863371D01*
X137112218Y-112972860D01*
X137112214Y-112972863D01*
X134454373Y-115630706D01*
X134362220Y-115722859D01*
X134362218Y-115722861D01*
X134307940Y-115777139D01*
X134222859Y-115862219D01*
X134113371Y-116026079D01*
X134113364Y-116026092D01*
X134037950Y-116208160D01*
X134037947Y-116208170D01*
X133999500Y-116401456D01*
X133999500Y-118784218D01*
X133979815Y-118851257D01*
X133963181Y-118871899D01*
X131371899Y-121463181D01*
X131310576Y-121496666D01*
X131284218Y-121499500D01*
X128965783Y-121499500D01*
X128936342Y-121490855D01*
X128906356Y-121484332D01*
X128901340Y-121480577D01*
X128898744Y-121479815D01*
X128878102Y-121463181D01*
X128746819Y-121331898D01*
X128713334Y-121270575D01*
X128710500Y-121244217D01*
X128710500Y-120455199D01*
X128730185Y-120388160D01*
X128739471Y-120375664D01*
X128865048Y-120202820D01*
X128865047Y-120202820D01*
X128865051Y-120202816D01*
X128869514Y-120194054D01*
X128917488Y-120143259D01*
X128985308Y-120126463D01*
X129051444Y-120148999D01*
X129090486Y-120194056D01*
X129094951Y-120202820D01*
X129219890Y-120374786D01*
X129370213Y-120525109D01*
X129542179Y-120650048D01*
X129542181Y-120650049D01*
X129542184Y-120650051D01*
X129731588Y-120746557D01*
X129933757Y-120812246D01*
X130143713Y-120845500D01*
X130143714Y-120845500D01*
X130356286Y-120845500D01*
X130356287Y-120845500D01*
X130566243Y-120812246D01*
X130768412Y-120746557D01*
X130957816Y-120650051D01*
X131044138Y-120587335D01*
X131129786Y-120525109D01*
X131129788Y-120525106D01*
X131129792Y-120525104D01*
X131280104Y-120374792D01*
X131280106Y-120374788D01*
X131280109Y-120374786D01*
X131405048Y-120202820D01*
X131405047Y-120202820D01*
X131405051Y-120202816D01*
X131501557Y-120013412D01*
X131567246Y-119811243D01*
X131600500Y-119601287D01*
X131600500Y-119388713D01*
X131567246Y-119178757D01*
X131501557Y-118976588D01*
X131405051Y-118787184D01*
X131405049Y-118787181D01*
X131405048Y-118787179D01*
X131277241Y-118611266D01*
X131278108Y-118610635D01*
X131251641Y-118551581D01*
X131250500Y-118534800D01*
X131250500Y-117465782D01*
X131270185Y-117398743D01*
X131286819Y-117378101D01*
X136378101Y-112286819D01*
X136439424Y-112253334D01*
X136465782Y-112250500D01*
X149098542Y-112250500D01*
X149129566Y-112244328D01*
X149195188Y-112231275D01*
X149291836Y-112212051D01*
X149345165Y-112189961D01*
X149473914Y-112136632D01*
X149637782Y-112027139D01*
X149777139Y-111887782D01*
X149777140Y-111887779D01*
X149784206Y-111880714D01*
X149784209Y-111880710D01*
X152137778Y-109527141D01*
X152137782Y-109527139D01*
X152277139Y-109387782D01*
X152386632Y-109223914D01*
X152462051Y-109041835D01*
X152500500Y-108848541D01*
X152500500Y-98901459D01*
X152500500Y-98901456D01*
X152462052Y-98708170D01*
X152462051Y-98708169D01*
X152462051Y-98708165D01*
X152419834Y-98606243D01*
X152386635Y-98526092D01*
X152386628Y-98526079D01*
X152277139Y-98362218D01*
X152277136Y-98362214D01*
X152134686Y-98219764D01*
X152134655Y-98219735D01*
X150281479Y-96366559D01*
X150281459Y-96366537D01*
X150137785Y-96222863D01*
X150137781Y-96222860D01*
X149973920Y-96113371D01*
X149973911Y-96113366D01*
X149901315Y-96083296D01*
X149845165Y-96060038D01*
X149791836Y-96037949D01*
X149791832Y-96037948D01*
X149791828Y-96037946D01*
X149695188Y-96018724D01*
X149598544Y-95999500D01*
X149598541Y-95999500D01*
X137715783Y-95999500D01*
X137648744Y-95979815D01*
X137628102Y-95963181D01*
X135536819Y-93871898D01*
X135503334Y-93810575D01*
X135500500Y-93784217D01*
X135500500Y-87232135D01*
X178899500Y-87232135D01*
X178899500Y-89027870D01*
X178899501Y-89027876D01*
X178905908Y-89087483D01*
X178956202Y-89222328D01*
X178956206Y-89222335D01*
X179042452Y-89337544D01*
X179042455Y-89337547D01*
X179157664Y-89423793D01*
X179157671Y-89423797D01*
X179289082Y-89472810D01*
X179345016Y-89514681D01*
X179369433Y-89580145D01*
X179354582Y-89648418D01*
X179333431Y-89676673D01*
X179219889Y-89790215D01*
X179094951Y-89962179D01*
X178998444Y-90151585D01*
X178932753Y-90353760D01*
X178925793Y-90397707D01*
X178899500Y-90563713D01*
X178899500Y-90776287D01*
X178932754Y-90986243D01*
X178996818Y-91183412D01*
X178998444Y-91188414D01*
X179094951Y-91377820D01*
X179219890Y-91549786D01*
X179370213Y-91700109D01*
X179542182Y-91825050D01*
X179550946Y-91829516D01*
X179601742Y-91877491D01*
X179618536Y-91945312D01*
X179595998Y-92011447D01*
X179550946Y-92050484D01*
X179542182Y-92054949D01*
X179370213Y-92179890D01*
X179219890Y-92330213D01*
X179094951Y-92502179D01*
X178998444Y-92691585D01*
X178932753Y-92893760D01*
X178899500Y-93103713D01*
X178899500Y-93316286D01*
X178921970Y-93458160D01*
X178932754Y-93526243D01*
X178996818Y-93723412D01*
X178998444Y-93728414D01*
X179094951Y-93917820D01*
X179219890Y-94089786D01*
X179370213Y-94240109D01*
X179542182Y-94365050D01*
X179550946Y-94369516D01*
X179601742Y-94417491D01*
X179618536Y-94485312D01*
X179595998Y-94551447D01*
X179550946Y-94590484D01*
X179542182Y-94594949D01*
X179370213Y-94719890D01*
X179219890Y-94870213D01*
X179094951Y-95042179D01*
X178998444Y-95231585D01*
X178932753Y-95433760D01*
X178899500Y-95643713D01*
X178899500Y-95856286D01*
X178928272Y-96037949D01*
X178932754Y-96066243D01*
X178996818Y-96263412D01*
X178998444Y-96268414D01*
X179094951Y-96457820D01*
X179219890Y-96629786D01*
X179370213Y-96780109D01*
X179542182Y-96905050D01*
X179550946Y-96909516D01*
X179601742Y-96957491D01*
X179618536Y-97025312D01*
X179595998Y-97091447D01*
X179550946Y-97130484D01*
X179542182Y-97134949D01*
X179370213Y-97259890D01*
X179219890Y-97410213D01*
X179094951Y-97582179D01*
X178998444Y-97771585D01*
X178998443Y-97771587D01*
X178998443Y-97771588D01*
X178932754Y-97973757D01*
X178899500Y-98183713D01*
X178899500Y-98396287D01*
X178932754Y-98606243D01*
X178996818Y-98803412D01*
X178998444Y-98808414D01*
X179094951Y-98997820D01*
X179219890Y-99169786D01*
X179370213Y-99320109D01*
X179542182Y-99445050D01*
X179550946Y-99449516D01*
X179601742Y-99497491D01*
X179618536Y-99565312D01*
X179595998Y-99631447D01*
X179550946Y-99670484D01*
X179542182Y-99674949D01*
X179370213Y-99799890D01*
X179219890Y-99950213D01*
X179094951Y-100122179D01*
X178998444Y-100311585D01*
X178932753Y-100513760D01*
X178900292Y-100718713D01*
X178899500Y-100723713D01*
X178899500Y-100936287D01*
X178932754Y-101146243D01*
X178996818Y-101343412D01*
X178998444Y-101348414D01*
X179094951Y-101537820D01*
X179219890Y-101709786D01*
X179370213Y-101860109D01*
X179542182Y-101985050D01*
X179550946Y-101989516D01*
X179601742Y-102037491D01*
X179618536Y-102105312D01*
X179595998Y-102171447D01*
X179550946Y-102210484D01*
X179542182Y-102214949D01*
X179370213Y-102339890D01*
X179219890Y-102490213D01*
X179094951Y-102662179D01*
X178998444Y-102851585D01*
X178932753Y-103053760D01*
X178922737Y-103117000D01*
X178899500Y-103263713D01*
X178899500Y-103476287D01*
X178908870Y-103535447D01*
X178919457Y-103602293D01*
X178932754Y-103686243D01*
X178996818Y-103883412D01*
X178998444Y-103888414D01*
X179094951Y-104077820D01*
X179219890Y-104249786D01*
X179370213Y-104400109D01*
X179542182Y-104525050D01*
X179550946Y-104529516D01*
X179601742Y-104577491D01*
X179618536Y-104645312D01*
X179595998Y-104711447D01*
X179550946Y-104750484D01*
X179542182Y-104754949D01*
X179370213Y-104879890D01*
X179219890Y-105030213D01*
X179094951Y-105202179D01*
X178998444Y-105391585D01*
X178932753Y-105593760D01*
X178904516Y-105772043D01*
X178899500Y-105803713D01*
X178899500Y-106016287D01*
X178932754Y-106226243D01*
X178996818Y-106423412D01*
X178998444Y-106428414D01*
X179094951Y-106617820D01*
X179219890Y-106789786D01*
X179370213Y-106940109D01*
X179542179Y-107065048D01*
X179542181Y-107065049D01*
X179542184Y-107065051D01*
X179731588Y-107161557D01*
X179933757Y-107227246D01*
X180143713Y-107260500D01*
X180143714Y-107260500D01*
X180356286Y-107260500D01*
X180356287Y-107260500D01*
X180566243Y-107227246D01*
X180768412Y-107161557D01*
X180957816Y-107065051D01*
X180979789Y-107049086D01*
X181129786Y-106940109D01*
X181129788Y-106940106D01*
X181129792Y-106940104D01*
X181280104Y-106789792D01*
X181280106Y-106789788D01*
X181280109Y-106789786D01*
X181405048Y-106617820D01*
X181405047Y-106617820D01*
X181405051Y-106617816D01*
X181501557Y-106428412D01*
X181567246Y-106226243D01*
X181600500Y-106016287D01*
X181600500Y-105803713D01*
X181567246Y-105593757D01*
X181501557Y-105391588D01*
X181405051Y-105202184D01*
X181405049Y-105202181D01*
X181405048Y-105202179D01*
X181280109Y-105030213D01*
X181129786Y-104879890D01*
X180957820Y-104754951D01*
X180957115Y-104754591D01*
X180949054Y-104750485D01*
X180898259Y-104702512D01*
X180881463Y-104634692D01*
X180903999Y-104568556D01*
X180949054Y-104529515D01*
X180957816Y-104525051D01*
X180979789Y-104509086D01*
X181129786Y-104400109D01*
X181129788Y-104400106D01*
X181129792Y-104400104D01*
X181280104Y-104249792D01*
X181280106Y-104249788D01*
X181280109Y-104249786D01*
X181405048Y-104077820D01*
X181405047Y-104077820D01*
X181405051Y-104077816D01*
X181501557Y-103888412D01*
X181567246Y-103686243D01*
X181600500Y-103476287D01*
X181600500Y-103263713D01*
X181567246Y-103053757D01*
X181501557Y-102851588D01*
X181405051Y-102662184D01*
X181405049Y-102662181D01*
X181405048Y-102662179D01*
X181280109Y-102490213D01*
X181129786Y-102339890D01*
X180957820Y-102214951D01*
X180957115Y-102214591D01*
X180949054Y-102210485D01*
X180898259Y-102162512D01*
X180881463Y-102094692D01*
X180903999Y-102028556D01*
X180949054Y-101989515D01*
X180957816Y-101985051D01*
X180979789Y-101969086D01*
X181129786Y-101860109D01*
X181129788Y-101860106D01*
X181129792Y-101860104D01*
X181280104Y-101709792D01*
X181280106Y-101709788D01*
X181280109Y-101709786D01*
X181405048Y-101537820D01*
X181405047Y-101537820D01*
X181405051Y-101537816D01*
X181501557Y-101348412D01*
X181567246Y-101146243D01*
X181600500Y-100936287D01*
X181600500Y-100723713D01*
X181567246Y-100513757D01*
X181501557Y-100311588D01*
X181405051Y-100122184D01*
X181405049Y-100122181D01*
X181405048Y-100122179D01*
X181280109Y-99950213D01*
X181129786Y-99799890D01*
X180957820Y-99674951D01*
X180957115Y-99674591D01*
X180949054Y-99670485D01*
X180898259Y-99622512D01*
X180881463Y-99554692D01*
X180903999Y-99488556D01*
X180949054Y-99449515D01*
X180957816Y-99445051D01*
X180999976Y-99414420D01*
X181129786Y-99320109D01*
X181129788Y-99320106D01*
X181129792Y-99320104D01*
X181280104Y-99169792D01*
X181280106Y-99169788D01*
X181280109Y-99169786D01*
X181405048Y-98997820D01*
X181405047Y-98997820D01*
X181405051Y-98997816D01*
X181501557Y-98808412D01*
X181567246Y-98606243D01*
X181600500Y-98396287D01*
X181600500Y-98183713D01*
X181567246Y-97973757D01*
X181501557Y-97771588D01*
X181405051Y-97582184D01*
X181405049Y-97582181D01*
X181405048Y-97582179D01*
X181280109Y-97410213D01*
X181129786Y-97259890D01*
X180957820Y-97134951D01*
X180957115Y-97134591D01*
X180949054Y-97130485D01*
X180898259Y-97082512D01*
X180881463Y-97014692D01*
X180903999Y-96948556D01*
X180949054Y-96909515D01*
X180957816Y-96905051D01*
X180979789Y-96889086D01*
X181129786Y-96780109D01*
X181129788Y-96780106D01*
X181129792Y-96780104D01*
X181280104Y-96629792D01*
X181280106Y-96629788D01*
X181280109Y-96629786D01*
X181405048Y-96457820D01*
X181405047Y-96457820D01*
X181405051Y-96457816D01*
X181501557Y-96268412D01*
X181567246Y-96066243D01*
X181600500Y-95856287D01*
X181600500Y-95643713D01*
X181567246Y-95433757D01*
X181501557Y-95231588D01*
X181405051Y-95042184D01*
X181405049Y-95042181D01*
X181405048Y-95042179D01*
X181280109Y-94870213D01*
X181129786Y-94719890D01*
X180957820Y-94594951D01*
X180957115Y-94594591D01*
X180949054Y-94590485D01*
X180898259Y-94542512D01*
X180881463Y-94474692D01*
X180903999Y-94408556D01*
X180949054Y-94369515D01*
X180957816Y-94365051D01*
X180980540Y-94348541D01*
X181129786Y-94240109D01*
X181129788Y-94240106D01*
X181129792Y-94240104D01*
X181280104Y-94089792D01*
X181280106Y-94089788D01*
X181280109Y-94089786D01*
X181405048Y-93917820D01*
X181405047Y-93917820D01*
X181405051Y-93917816D01*
X181501557Y-93728412D01*
X181567246Y-93526243D01*
X181600500Y-93316287D01*
X181600500Y-93103713D01*
X181567246Y-92893757D01*
X181501557Y-92691588D01*
X181405051Y-92502184D01*
X181405049Y-92502181D01*
X181405048Y-92502179D01*
X181280109Y-92330213D01*
X181129786Y-92179890D01*
X180957820Y-92054951D01*
X180957115Y-92054591D01*
X180949054Y-92050485D01*
X180898259Y-92002512D01*
X180881463Y-91934692D01*
X180903999Y-91868556D01*
X180949054Y-91829515D01*
X180957816Y-91825051D01*
X180979789Y-91809086D01*
X181129786Y-91700109D01*
X181129788Y-91700106D01*
X181129792Y-91700104D01*
X181280104Y-91549792D01*
X181280106Y-91549788D01*
X181280109Y-91549786D01*
X181405048Y-91377820D01*
X181405047Y-91377820D01*
X181405051Y-91377816D01*
X181501557Y-91188412D01*
X181567246Y-90986243D01*
X181600500Y-90776287D01*
X181600500Y-90563713D01*
X181567246Y-90353757D01*
X181501557Y-90151588D01*
X181405051Y-89962184D01*
X181405049Y-89962181D01*
X181405048Y-89962179D01*
X181280109Y-89790213D01*
X181166569Y-89676673D01*
X181133084Y-89615350D01*
X181138068Y-89545658D01*
X181179940Y-89489725D01*
X181210915Y-89472810D01*
X181342331Y-89423796D01*
X181457546Y-89337546D01*
X181543796Y-89222331D01*
X181594091Y-89087483D01*
X181600500Y-89027873D01*
X181600499Y-87232128D01*
X181594091Y-87172517D01*
X181543796Y-87037669D01*
X181543795Y-87037668D01*
X181543793Y-87037664D01*
X181457547Y-86922455D01*
X181457544Y-86922452D01*
X181342335Y-86836206D01*
X181342328Y-86836202D01*
X181207482Y-86785908D01*
X181207483Y-86785908D01*
X181147883Y-86779501D01*
X181147881Y-86779500D01*
X181147873Y-86779500D01*
X181147864Y-86779500D01*
X179352129Y-86779500D01*
X179352123Y-86779501D01*
X179292516Y-86785908D01*
X179157671Y-86836202D01*
X179157664Y-86836206D01*
X179042455Y-86922452D01*
X179042452Y-86922455D01*
X178956206Y-87037664D01*
X178956202Y-87037671D01*
X178905908Y-87172517D01*
X178899501Y-87232116D01*
X178899501Y-87232123D01*
X178899500Y-87232135D01*
X135500500Y-87232135D01*
X135500500Y-78715782D01*
X135520185Y-78648743D01*
X135536819Y-78628101D01*
X138628101Y-75536819D01*
X138689424Y-75503334D01*
X138715782Y-75500500D01*
X142500351Y-75500500D01*
X142567390Y-75520185D01*
X142588032Y-75536819D01*
X142602293Y-75551080D01*
X142777771Y-75678571D01*
X142966127Y-75774544D01*
X142971034Y-75777044D01*
X143074175Y-75810556D01*
X143177318Y-75844069D01*
X143391549Y-75878000D01*
X143391550Y-75878000D01*
X143608450Y-75878000D01*
X143608451Y-75878000D01*
X143822682Y-75844069D01*
X144028968Y-75777043D01*
X144222229Y-75678571D01*
X144397707Y-75551080D01*
X144551080Y-75397707D01*
X144678571Y-75222229D01*
X144777043Y-75028968D01*
X144844069Y-74822682D01*
X144878000Y-74608451D01*
X144878000Y-74394049D01*
X165622000Y-74394049D01*
X165622000Y-74610950D01*
X165655931Y-74825183D01*
X165722955Y-75031465D01*
X165820154Y-75222228D01*
X165821429Y-75224729D01*
X165948920Y-75400207D01*
X166102293Y-75553580D01*
X166277771Y-75681071D01*
X166466127Y-75777044D01*
X166471034Y-75779544D01*
X166574175Y-75813056D01*
X166677318Y-75846569D01*
X166891549Y-75880500D01*
X166891550Y-75880500D01*
X167108450Y-75880500D01*
X167108451Y-75880500D01*
X167322682Y-75846569D01*
X167528968Y-75779543D01*
X167722229Y-75681071D01*
X167897707Y-75553580D01*
X168051080Y-75400207D01*
X168178571Y-75224729D01*
X168277043Y-75031468D01*
X168344069Y-74825182D01*
X168378000Y-74610951D01*
X168378000Y-74394049D01*
X168344069Y-74179818D01*
X168277043Y-73973532D01*
X168178571Y-73780271D01*
X168051080Y-73604793D01*
X167897707Y-73451420D01*
X167722229Y-73323929D01*
X167722230Y-73323929D01*
X167722228Y-73323928D01*
X167528965Y-73225455D01*
X167322683Y-73158431D01*
X167215566Y-73141465D01*
X167108451Y-73124500D01*
X166891549Y-73124500D01*
X166820138Y-73135810D01*
X166677316Y-73158431D01*
X166471034Y-73225455D01*
X166277771Y-73323928D01*
X166102292Y-73451420D01*
X165948920Y-73604792D01*
X165821428Y-73780271D01*
X165722955Y-73973534D01*
X165655931Y-74179816D01*
X165622000Y-74394049D01*
X144878000Y-74394049D01*
X144878000Y-74391549D01*
X144844069Y-74177318D01*
X144777856Y-73973534D01*
X144777044Y-73971034D01*
X144678571Y-73777771D01*
X144638675Y-73722859D01*
X144551080Y-73602293D01*
X144397707Y-73448920D01*
X144222229Y-73321429D01*
X144222230Y-73321429D01*
X144222228Y-73321428D01*
X144028965Y-73222955D01*
X143822683Y-73155931D01*
X143715566Y-73138965D01*
X143608451Y-73122000D01*
X143391549Y-73122000D01*
X143375765Y-73124500D01*
X143177316Y-73155931D01*
X142971034Y-73222955D01*
X142777771Y-73321428D01*
X142602292Y-73448920D01*
X142588032Y-73463181D01*
X142526709Y-73496666D01*
X142500351Y-73499500D01*
X138151455Y-73499500D01*
X138054812Y-73518724D01*
X137958167Y-73537947D01*
X137958161Y-73537949D01*
X137904834Y-73560037D01*
X137904834Y-73560038D01*
X137859315Y-73578892D01*
X137776089Y-73613366D01*
X137776079Y-73613371D01*
X137612219Y-73722859D01*
X137559808Y-73775271D01*
X137472861Y-73862218D01*
X137472858Y-73862221D01*
X133862221Y-77472858D01*
X133862218Y-77472861D01*
X133792538Y-77542540D01*
X133722859Y-77612219D01*
X133613371Y-77776079D01*
X133613364Y-77776092D01*
X133537950Y-77958160D01*
X133537947Y-77958170D01*
X133499500Y-78151456D01*
X133499500Y-94348542D01*
X133502784Y-94365050D01*
X133513215Y-94417491D01*
X133515256Y-94427748D01*
X133515257Y-94427755D01*
X133521979Y-94461555D01*
X133537947Y-94541829D01*
X133537949Y-94541837D01*
X133613364Y-94723907D01*
X133613371Y-94723920D01*
X133722859Y-94887780D01*
X133722860Y-94887781D01*
X133722861Y-94887782D01*
X133862218Y-95027139D01*
X133862219Y-95027139D01*
X133869286Y-95034206D01*
X133869285Y-95034206D01*
X133869288Y-95034208D01*
X136472860Y-97637781D01*
X136472861Y-97637782D01*
X136601664Y-97766585D01*
X136612219Y-97777140D01*
X136776079Y-97886628D01*
X136776092Y-97886635D01*
X136904833Y-97939961D01*
X136958159Y-97962049D01*
X136958164Y-97962051D01*
X137017014Y-97973757D01*
X137050625Y-97980442D01*
X137151456Y-98000500D01*
X137151459Y-98000500D01*
X137151460Y-98000500D01*
X137348540Y-98000500D01*
X149034218Y-98000500D01*
X149101257Y-98020185D01*
X149121899Y-98036819D01*
X150463181Y-99378101D01*
X150496666Y-99439424D01*
X150499500Y-99465782D01*
X150499500Y-108284218D01*
X150479815Y-108351257D01*
X150463181Y-108371899D01*
X148621899Y-110213181D01*
X148560576Y-110246666D01*
X148534218Y-110249500D01*
X135901455Y-110249500D01*
X135804812Y-110268724D01*
X135708167Y-110287947D01*
X135708161Y-110287949D01*
X135654834Y-110310037D01*
X135654834Y-110310038D01*
X135609315Y-110328892D01*
X135526089Y-110363366D01*
X135526079Y-110363371D01*
X135362219Y-110472859D01*
X135292540Y-110542538D01*
X135222861Y-110612218D01*
X135222858Y-110612221D01*
X129612221Y-116222858D01*
X129612218Y-116222861D01*
X129546919Y-116288160D01*
X129472859Y-116362219D01*
X129363371Y-116526079D01*
X129363364Y-116526092D01*
X129287950Y-116708160D01*
X129287947Y-116708170D01*
X129249500Y-116901456D01*
X129249500Y-118534800D01*
X129229815Y-118601839D01*
X129220506Y-118614365D01*
X129094949Y-118787182D01*
X129090484Y-118795946D01*
X129042509Y-118846742D01*
X128974688Y-118863536D01*
X128908553Y-118840998D01*
X128869516Y-118795946D01*
X128865050Y-118787182D01*
X128740109Y-118615213D01*
X128589786Y-118464890D01*
X128417820Y-118339951D01*
X128228414Y-118243444D01*
X128228413Y-118243443D01*
X128228412Y-118243443D01*
X128026243Y-118177754D01*
X128026241Y-118177753D01*
X128026240Y-118177753D01*
X127856890Y-118150931D01*
X127816287Y-118144500D01*
X127603713Y-118144500D01*
X127563110Y-118150931D01*
X127393760Y-118177753D01*
X127191585Y-118243444D01*
X127002179Y-118339951D01*
X126830213Y-118464890D01*
X126679890Y-118615213D01*
X126554949Y-118787182D01*
X126550484Y-118795946D01*
X126502509Y-118846742D01*
X126434688Y-118863536D01*
X126368553Y-118840998D01*
X126329516Y-118795946D01*
X126325050Y-118787182D01*
X126197241Y-118611266D01*
X126198108Y-118610635D01*
X126171641Y-118551581D01*
X126170500Y-118534800D01*
X126170500Y-117045782D01*
X126190185Y-116978743D01*
X126206819Y-116958101D01*
X127128102Y-116036819D01*
X127189425Y-116003334D01*
X127215783Y-116000500D01*
X128598542Y-116000500D01*
X128629566Y-115994328D01*
X128695188Y-115981275D01*
X128791836Y-115962051D01*
X128845165Y-115939961D01*
X128973914Y-115886632D01*
X129137782Y-115777139D01*
X129277139Y-115637782D01*
X129277140Y-115637779D01*
X129284206Y-115630714D01*
X129284208Y-115630710D01*
X139380601Y-105534319D01*
X139441924Y-105500834D01*
X139468282Y-105498000D01*
X142500351Y-105498000D01*
X142567390Y-105517685D01*
X142588032Y-105534319D01*
X142602293Y-105548580D01*
X142777771Y-105676071D01*
X142966127Y-105772044D01*
X142971034Y-105774544D01*
X143074175Y-105808056D01*
X143177318Y-105841569D01*
X143391549Y-105875500D01*
X143391550Y-105875500D01*
X143608450Y-105875500D01*
X143608451Y-105875500D01*
X143822682Y-105841569D01*
X144028968Y-105774543D01*
X144222229Y-105676071D01*
X144397707Y-105548580D01*
X144551080Y-105395207D01*
X144678571Y-105219729D01*
X144777043Y-105026468D01*
X144844069Y-104820182D01*
X144878000Y-104605951D01*
X144878000Y-104389049D01*
X144844069Y-104174818D01*
X144777856Y-103971034D01*
X144777044Y-103968534D01*
X144678571Y-103775271D01*
X144610253Y-103681239D01*
X144551080Y-103599793D01*
X144397707Y-103446420D01*
X144222229Y-103318929D01*
X144222230Y-103318929D01*
X144222228Y-103318928D01*
X144028965Y-103220455D01*
X143822683Y-103153431D01*
X143715566Y-103136465D01*
X143608451Y-103119500D01*
X143391549Y-103119500D01*
X143375765Y-103122000D01*
X143177316Y-103153431D01*
X142971034Y-103220455D01*
X142777771Y-103318928D01*
X142602292Y-103446420D01*
X142588032Y-103460681D01*
X142526709Y-103494166D01*
X142500351Y-103497000D01*
X138903955Y-103497000D01*
X138807312Y-103516224D01*
X138710667Y-103535447D01*
X138710661Y-103535449D01*
X138657334Y-103557537D01*
X138657334Y-103557538D01*
X138611815Y-103576392D01*
X138528589Y-103610866D01*
X138528579Y-103610871D01*
X138364719Y-103720359D01*
X138312308Y-103772771D01*
X138225361Y-103859718D01*
X138225358Y-103859721D01*
X128121899Y-113963181D01*
X128060576Y-113996666D01*
X128034218Y-113999500D01*
X126651456Y-113999500D01*
X126458171Y-114037946D01*
X126458167Y-114037948D01*
X126458165Y-114037948D01*
X126458164Y-114037949D01*
X126382745Y-114069188D01*
X126382743Y-114069189D01*
X126276085Y-114113368D01*
X126276085Y-114113369D01*
X126276084Y-114113369D01*
X126112222Y-114222857D01*
X126112214Y-114222863D01*
X124704373Y-115630706D01*
X124532220Y-115802859D01*
X124532218Y-115802861D01*
X124472861Y-115862218D01*
X124392859Y-115942219D01*
X124283371Y-116106079D01*
X124283364Y-116106092D01*
X124207950Y-116288160D01*
X124207947Y-116288170D01*
X124169500Y-116481456D01*
X124169500Y-118534800D01*
X124149815Y-118601839D01*
X124140506Y-118614365D01*
X124014949Y-118787182D01*
X124010484Y-118795946D01*
X123962509Y-118846742D01*
X123894688Y-118863536D01*
X123828553Y-118840998D01*
X123789516Y-118795946D01*
X123785050Y-118787182D01*
X123660109Y-118615213D01*
X123509786Y-118464890D01*
X123337820Y-118339951D01*
X123148414Y-118243444D01*
X123148413Y-118243443D01*
X123148412Y-118243443D01*
X122946243Y-118177754D01*
X122946241Y-118177753D01*
X122946240Y-118177753D01*
X122776890Y-118150931D01*
X122736287Y-118144500D01*
X122523713Y-118144500D01*
X122483110Y-118150931D01*
X122313760Y-118177753D01*
X122111585Y-118243444D01*
X121922179Y-118339951D01*
X121750213Y-118464890D01*
X121599890Y-118615213D01*
X121474949Y-118787182D01*
X121470484Y-118795946D01*
X121422509Y-118846742D01*
X121354688Y-118863536D01*
X121288553Y-118840998D01*
X121249516Y-118795946D01*
X121245050Y-118787182D01*
X121120109Y-118615213D01*
X120969786Y-118464890D01*
X120797820Y-118339951D01*
X120608414Y-118243444D01*
X120608413Y-118243443D01*
X120608412Y-118243443D01*
X120406243Y-118177754D01*
X120406241Y-118177753D01*
X120406240Y-118177753D01*
X120236890Y-118150931D01*
X120196287Y-118144500D01*
X119983713Y-118144500D01*
X119943110Y-118150931D01*
X119773760Y-118177753D01*
X119571585Y-118243444D01*
X119382179Y-118339951D01*
X119210213Y-118464890D01*
X119059890Y-118615213D01*
X118934949Y-118787182D01*
X118930484Y-118795946D01*
X118882509Y-118846742D01*
X118814688Y-118863536D01*
X118748553Y-118840998D01*
X118709516Y-118795946D01*
X118705050Y-118787182D01*
X118580109Y-118615213D01*
X118429786Y-118464890D01*
X118257820Y-118339951D01*
X118068414Y-118243444D01*
X118068413Y-118243443D01*
X118068412Y-118243443D01*
X117866243Y-118177754D01*
X117866241Y-118177753D01*
X117866240Y-118177753D01*
X117696890Y-118150931D01*
X117656287Y-118144500D01*
X117443713Y-118144500D01*
X117403110Y-118150931D01*
X117233760Y-118177753D01*
X117031585Y-118243444D01*
X116842179Y-118339951D01*
X116670213Y-118464890D01*
X116519890Y-118615213D01*
X116394949Y-118787182D01*
X116390484Y-118795946D01*
X116342509Y-118846742D01*
X116274688Y-118863536D01*
X116208553Y-118840998D01*
X116169516Y-118795946D01*
X116165050Y-118787182D01*
X116040109Y-118615213D01*
X115889786Y-118464890D01*
X115717820Y-118339951D01*
X115528414Y-118243444D01*
X115528413Y-118243443D01*
X115528412Y-118243443D01*
X115326243Y-118177754D01*
X115326241Y-118177753D01*
X115326240Y-118177753D01*
X115156890Y-118150931D01*
X115116287Y-118144500D01*
X114903713Y-118144500D01*
X114863110Y-118150931D01*
X114693760Y-118177753D01*
X114491585Y-118243444D01*
X114302179Y-118339951D01*
X114130215Y-118464889D01*
X114016673Y-118578431D01*
X113955350Y-118611915D01*
X113885658Y-118606931D01*
X113829725Y-118565059D01*
X113812810Y-118534082D01*
X113763797Y-118402671D01*
X113763793Y-118402664D01*
X113677547Y-118287455D01*
X113677544Y-118287452D01*
X113562335Y-118201206D01*
X113562328Y-118201202D01*
X113427482Y-118150908D01*
X113427483Y-118150908D01*
X113367883Y-118144501D01*
X113367881Y-118144500D01*
X113367873Y-118144500D01*
X113367864Y-118144500D01*
X111572129Y-118144500D01*
X111572123Y-118144501D01*
X111512516Y-118150908D01*
X111377671Y-118201202D01*
X111377664Y-118201206D01*
X111262455Y-118287452D01*
X111262452Y-118287455D01*
X111176206Y-118402664D01*
X111176202Y-118402671D01*
X111125908Y-118537517D01*
X111119501Y-118597116D01*
X111119500Y-118597135D01*
X100300922Y-118597135D01*
X100147707Y-118443920D01*
X100090929Y-118402669D01*
X99972228Y-118316428D01*
X99778965Y-118217955D01*
X99572683Y-118150931D01*
X99465566Y-118133965D01*
X99358451Y-118117000D01*
X99141549Y-118117000D01*
X99125765Y-118119500D01*
X98927316Y-118150931D01*
X98721034Y-118217955D01*
X98527771Y-118316428D01*
X98352292Y-118443920D01*
X98198920Y-118597292D01*
X98071428Y-118772771D01*
X97972955Y-118966034D01*
X97905931Y-119172316D01*
X97872000Y-119386549D01*
X77128000Y-119386549D01*
X77128000Y-119384049D01*
X77094069Y-119169818D01*
X77031284Y-118976585D01*
X77027044Y-118963534D01*
X76928571Y-118770271D01*
X76815300Y-118614365D01*
X76801080Y-118594793D01*
X76647707Y-118441420D01*
X76594370Y-118402669D01*
X76472228Y-118313928D01*
X76278965Y-118215455D01*
X76072683Y-118148431D01*
X75965566Y-118131465D01*
X75858451Y-118114500D01*
X75641549Y-118114500D01*
X75570138Y-118125810D01*
X75427316Y-118148431D01*
X75221034Y-118215455D01*
X75027771Y-118313928D01*
X74852292Y-118441420D01*
X74698920Y-118594792D01*
X74571428Y-118770271D01*
X74472955Y-118963534D01*
X74405931Y-119169816D01*
X74372000Y-119384049D01*
X57000500Y-119384049D01*
X57000500Y-87227135D01*
X60149500Y-87227135D01*
X60149500Y-89022870D01*
X60149501Y-89022876D01*
X60155908Y-89082483D01*
X60206202Y-89217328D01*
X60206206Y-89217335D01*
X60292452Y-89332544D01*
X60292455Y-89332547D01*
X60407664Y-89418793D01*
X60407671Y-89418797D01*
X60539082Y-89467810D01*
X60595016Y-89509681D01*
X60619433Y-89575145D01*
X60604582Y-89643418D01*
X60583431Y-89671673D01*
X60469889Y-89785215D01*
X60344951Y-89957179D01*
X60248444Y-90146585D01*
X60182753Y-90348760D01*
X60175793Y-90392707D01*
X60149500Y-90558713D01*
X60149500Y-90771287D01*
X60182754Y-90981243D01*
X60184377Y-90986239D01*
X60248444Y-91183414D01*
X60344951Y-91372820D01*
X60469890Y-91544786D01*
X60620213Y-91695109D01*
X60792182Y-91820050D01*
X60800946Y-91824516D01*
X60851742Y-91872491D01*
X60868536Y-91940312D01*
X60845998Y-92006447D01*
X60800946Y-92045484D01*
X60792182Y-92049949D01*
X60620213Y-92174890D01*
X60469890Y-92325213D01*
X60344951Y-92497179D01*
X60248444Y-92686585D01*
X60182753Y-92888760D01*
X60149500Y-93098713D01*
X60149500Y-93311286D01*
X60172762Y-93458160D01*
X60182754Y-93521243D01*
X60184377Y-93526239D01*
X60248444Y-93723414D01*
X60344951Y-93912820D01*
X60469890Y-94084786D01*
X60620213Y-94235109D01*
X60792182Y-94360050D01*
X60800946Y-94364516D01*
X60851742Y-94412491D01*
X60868536Y-94480312D01*
X60845998Y-94546447D01*
X60800946Y-94585484D01*
X60792182Y-94589949D01*
X60620213Y-94714890D01*
X60469890Y-94865213D01*
X60344951Y-95037179D01*
X60248444Y-95226585D01*
X60182753Y-95428760D01*
X60149500Y-95638713D01*
X60149500Y-95851286D01*
X60179064Y-96037949D01*
X60182754Y-96061243D01*
X60199691Y-96113371D01*
X60248444Y-96263414D01*
X60344951Y-96452820D01*
X60469890Y-96624786D01*
X60620213Y-96775109D01*
X60792182Y-96900050D01*
X60800946Y-96904516D01*
X60851742Y-96952491D01*
X60868536Y-97020312D01*
X60845998Y-97086447D01*
X60800946Y-97125484D01*
X60792182Y-97129949D01*
X60620213Y-97254890D01*
X60469890Y-97405213D01*
X60344951Y-97577179D01*
X60248444Y-97766585D01*
X60182753Y-97968760D01*
X60171974Y-98036819D01*
X60149500Y-98178713D01*
X60149500Y-98391287D01*
X60182754Y-98601243D01*
X60217495Y-98708165D01*
X60248444Y-98803414D01*
X60344951Y-98992820D01*
X60469890Y-99164786D01*
X60620213Y-99315109D01*
X60792182Y-99440050D01*
X60800946Y-99444516D01*
X60851742Y-99492491D01*
X60868536Y-99560312D01*
X60845998Y-99626447D01*
X60800946Y-99665484D01*
X60792182Y-99669949D01*
X60620213Y-99794890D01*
X60469890Y-99945213D01*
X60344951Y-100117179D01*
X60248444Y-100306585D01*
X60182753Y-100508760D01*
X60149500Y-100718713D01*
X60149500Y-100931287D01*
X60182754Y-101141243D01*
X60184377Y-101146239D01*
X60248444Y-101343414D01*
X60344951Y-101532820D01*
X60469890Y-101704786D01*
X60620213Y-101855109D01*
X60792182Y-101980050D01*
X60800946Y-101984516D01*
X60851742Y-102032491D01*
X60868536Y-102100312D01*
X60845998Y-102166447D01*
X60800946Y-102205484D01*
X60792182Y-102209949D01*
X60620213Y-102334890D01*
X60469890Y-102485213D01*
X60344951Y-102657179D01*
X60248444Y-102846585D01*
X60182753Y-103048760D01*
X60149500Y-103258713D01*
X60149500Y-103471286D01*
X60171607Y-103610868D01*
X60182754Y-103681243D01*
X60240745Y-103859721D01*
X60248444Y-103883414D01*
X60344951Y-104072820D01*
X60469890Y-104244786D01*
X60620213Y-104395109D01*
X60792182Y-104520050D01*
X60800946Y-104524516D01*
X60851742Y-104572491D01*
X60868536Y-104640312D01*
X60845998Y-104706447D01*
X60800946Y-104745484D01*
X60792182Y-104749949D01*
X60620213Y-104874890D01*
X60469890Y-105025213D01*
X60344951Y-105197179D01*
X60248444Y-105386585D01*
X60182753Y-105588760D01*
X60153724Y-105772043D01*
X60149500Y-105798713D01*
X60149500Y-106011287D01*
X60182754Y-106221243D01*
X60184377Y-106226239D01*
X60248444Y-106423414D01*
X60344951Y-106612820D01*
X60469890Y-106784786D01*
X60620213Y-106935109D01*
X60792179Y-107060048D01*
X60792181Y-107060049D01*
X60792184Y-107060051D01*
X60981588Y-107156557D01*
X61183757Y-107222246D01*
X61393713Y-107255500D01*
X61393714Y-107255500D01*
X61606286Y-107255500D01*
X61606287Y-107255500D01*
X61816243Y-107222246D01*
X62018412Y-107156557D01*
X62207816Y-107060051D01*
X62229789Y-107044086D01*
X62379786Y-106935109D01*
X62379788Y-106935106D01*
X62379792Y-106935104D01*
X62530104Y-106784792D01*
X62530106Y-106784788D01*
X62530109Y-106784786D01*
X62655048Y-106612820D01*
X62655047Y-106612820D01*
X62655051Y-106612816D01*
X62751557Y-106423412D01*
X62817246Y-106221243D01*
X62850500Y-106011287D01*
X62850500Y-105798713D01*
X62817246Y-105588757D01*
X62751557Y-105386588D01*
X62655051Y-105197184D01*
X62655049Y-105197181D01*
X62655048Y-105197179D01*
X62530109Y-105025213D01*
X62379786Y-104874890D01*
X62207820Y-104749951D01*
X62207115Y-104749591D01*
X62199054Y-104745485D01*
X62148259Y-104697512D01*
X62131463Y-104629692D01*
X62153999Y-104563556D01*
X62199054Y-104524515D01*
X62207816Y-104520051D01*
X62229789Y-104504086D01*
X62379786Y-104395109D01*
X62379788Y-104395106D01*
X62379792Y-104395104D01*
X62388347Y-104386549D01*
X74372000Y-104386549D01*
X74372000Y-104603450D01*
X74405931Y-104817683D01*
X74472955Y-105023965D01*
X74571428Y-105217228D01*
X74694472Y-105386585D01*
X74698920Y-105392707D01*
X74852293Y-105546080D01*
X74917920Y-105593760D01*
X75027771Y-105673571D01*
X75221034Y-105772044D01*
X75303114Y-105798713D01*
X75427318Y-105839069D01*
X75641549Y-105873000D01*
X75641550Y-105873000D01*
X75858450Y-105873000D01*
X75858451Y-105873000D01*
X76072682Y-105839069D01*
X76278968Y-105772043D01*
X76472229Y-105673571D01*
X76647707Y-105546080D01*
X76801080Y-105392707D01*
X76928571Y-105217229D01*
X77027043Y-105023968D01*
X77094069Y-104817682D01*
X77128000Y-104603451D01*
X77128000Y-104389049D01*
X97872000Y-104389049D01*
X97872000Y-104605950D01*
X97905931Y-104820183D01*
X97972955Y-105026465D01*
X98071428Y-105219728D01*
X98073245Y-105222229D01*
X98198920Y-105395207D01*
X98352293Y-105548580D01*
X98527771Y-105676071D01*
X98716127Y-105772044D01*
X98721034Y-105774544D01*
X98824175Y-105808056D01*
X98927318Y-105841569D01*
X99141549Y-105875500D01*
X99141550Y-105875500D01*
X99358450Y-105875500D01*
X99358451Y-105875500D01*
X99572682Y-105841569D01*
X99778968Y-105774543D01*
X99972229Y-105676071D01*
X100147707Y-105548580D01*
X100301080Y-105395207D01*
X100428571Y-105219729D01*
X100527043Y-105026468D01*
X100594069Y-104820182D01*
X100628000Y-104605951D01*
X100628000Y-104389049D01*
X100594069Y-104174818D01*
X100527856Y-103971034D01*
X100527044Y-103968534D01*
X100428571Y-103775271D01*
X100360253Y-103681239D01*
X100301080Y-103599793D01*
X100147707Y-103446420D01*
X99972229Y-103318929D01*
X99972230Y-103318929D01*
X99972228Y-103318928D01*
X99778965Y-103220455D01*
X99572683Y-103153431D01*
X99465566Y-103136465D01*
X99358451Y-103119500D01*
X99141549Y-103119500D01*
X99125765Y-103122000D01*
X98927316Y-103153431D01*
X98721034Y-103220455D01*
X98527771Y-103318928D01*
X98352292Y-103446420D01*
X98198920Y-103599792D01*
X98071428Y-103775271D01*
X97972955Y-103968534D01*
X97905931Y-104174816D01*
X97872000Y-104389049D01*
X77128000Y-104389049D01*
X77128000Y-104386549D01*
X77094069Y-104172318D01*
X77060556Y-104069175D01*
X77027044Y-103966034D01*
X76928571Y-103772771D01*
X76810945Y-103610871D01*
X76801080Y-103597293D01*
X76647707Y-103443920D01*
X76472229Y-103316429D01*
X76472230Y-103316429D01*
X76472228Y-103316428D01*
X76278965Y-103217955D01*
X76072683Y-103150931D01*
X75965566Y-103133965D01*
X75858451Y-103117000D01*
X75641549Y-103117000D01*
X75570138Y-103128310D01*
X75427316Y-103150931D01*
X75221034Y-103217955D01*
X75027771Y-103316428D01*
X74852292Y-103443920D01*
X74698920Y-103597292D01*
X74571428Y-103772771D01*
X74472955Y-103966034D01*
X74405931Y-104172316D01*
X74372000Y-104386549D01*
X62388347Y-104386549D01*
X62530104Y-104244792D01*
X62530106Y-104244788D01*
X62530109Y-104244786D01*
X62655048Y-104072820D01*
X62655047Y-104072820D01*
X62655051Y-104072816D01*
X62751557Y-103883412D01*
X62817246Y-103681243D01*
X62850500Y-103471287D01*
X62850500Y-103258713D01*
X62817246Y-103048757D01*
X62751557Y-102846588D01*
X62655051Y-102657184D01*
X62655049Y-102657181D01*
X62655048Y-102657179D01*
X62530109Y-102485213D01*
X62379786Y-102334890D01*
X62207820Y-102209951D01*
X62207115Y-102209591D01*
X62199054Y-102205485D01*
X62148259Y-102157512D01*
X62131463Y-102089692D01*
X62153999Y-102023556D01*
X62199054Y-101984515D01*
X62207816Y-101980051D01*
X62229789Y-101964086D01*
X62379786Y-101855109D01*
X62379788Y-101855106D01*
X62379792Y-101855104D01*
X62530104Y-101704792D01*
X62530106Y-101704788D01*
X62530109Y-101704786D01*
X62655048Y-101532820D01*
X62655047Y-101532820D01*
X62655051Y-101532816D01*
X62751557Y-101343412D01*
X62817246Y-101141243D01*
X62850500Y-100931287D01*
X62850500Y-100718713D01*
X62817246Y-100508757D01*
X62751557Y-100306588D01*
X62655051Y-100117184D01*
X62655049Y-100117181D01*
X62655048Y-100117179D01*
X62530109Y-99945213D01*
X62379786Y-99794890D01*
X62207820Y-99669951D01*
X62207115Y-99669591D01*
X62199054Y-99665485D01*
X62148259Y-99617512D01*
X62131463Y-99549692D01*
X62153999Y-99483556D01*
X62199054Y-99444515D01*
X62207816Y-99440051D01*
X62243094Y-99414420D01*
X62379786Y-99315109D01*
X62379788Y-99315106D01*
X62379792Y-99315104D01*
X62530104Y-99164792D01*
X62530106Y-99164788D01*
X62530109Y-99164786D01*
X62655048Y-98992820D01*
X62655047Y-98992820D01*
X62655051Y-98992816D01*
X62751557Y-98803412D01*
X62817246Y-98601243D01*
X62850500Y-98391287D01*
X62850500Y-98178713D01*
X62817246Y-97968757D01*
X62751557Y-97766588D01*
X62655051Y-97577184D01*
X62655049Y-97577181D01*
X62655048Y-97577179D01*
X62530109Y-97405213D01*
X62379786Y-97254890D01*
X62207820Y-97129951D01*
X62207115Y-97129591D01*
X62199054Y-97125485D01*
X62148259Y-97077512D01*
X62131463Y-97009692D01*
X62153999Y-96943556D01*
X62199054Y-96904515D01*
X62207816Y-96900051D01*
X62229789Y-96884086D01*
X62379786Y-96775109D01*
X62379788Y-96775106D01*
X62379792Y-96775104D01*
X62530104Y-96624792D01*
X62530106Y-96624788D01*
X62530109Y-96624786D01*
X62655048Y-96452820D01*
X62655047Y-96452820D01*
X62655051Y-96452816D01*
X62751557Y-96263412D01*
X62817246Y-96061243D01*
X62850500Y-95851287D01*
X62850500Y-95638713D01*
X62817246Y-95428757D01*
X62751557Y-95226588D01*
X62655051Y-95037184D01*
X62655049Y-95037181D01*
X62655048Y-95037179D01*
X62530109Y-94865213D01*
X62379786Y-94714890D01*
X62207820Y-94589951D01*
X62207115Y-94589591D01*
X62199054Y-94585485D01*
X62148259Y-94537512D01*
X62131463Y-94469692D01*
X62153999Y-94403556D01*
X62199054Y-94364515D01*
X62207816Y-94360051D01*
X62229789Y-94344086D01*
X62379786Y-94235109D01*
X62379788Y-94235106D01*
X62379792Y-94235104D01*
X62530104Y-94084792D01*
X62530106Y-94084788D01*
X62530109Y-94084786D01*
X62655048Y-93912820D01*
X62655047Y-93912820D01*
X62655051Y-93912816D01*
X62751557Y-93723412D01*
X62817246Y-93521243D01*
X62850500Y-93311287D01*
X62850500Y-93098713D01*
X62817246Y-92888757D01*
X62751557Y-92686588D01*
X62655051Y-92497184D01*
X62655049Y-92497181D01*
X62655048Y-92497179D01*
X62530109Y-92325213D01*
X62379786Y-92174890D01*
X62207820Y-92049951D01*
X62207115Y-92049591D01*
X62199054Y-92045485D01*
X62148259Y-91997512D01*
X62131463Y-91929692D01*
X62153999Y-91863556D01*
X62199054Y-91824515D01*
X62207816Y-91820051D01*
X62229789Y-91804086D01*
X62379786Y-91695109D01*
X62379788Y-91695106D01*
X62379792Y-91695104D01*
X62530104Y-91544792D01*
X62530106Y-91544788D01*
X62530109Y-91544786D01*
X62655048Y-91372820D01*
X62655047Y-91372820D01*
X62655051Y-91372816D01*
X62751557Y-91183412D01*
X62817246Y-90981243D01*
X62850500Y-90771287D01*
X62850500Y-90558713D01*
X62817246Y-90348757D01*
X62751557Y-90146588D01*
X62655051Y-89957184D01*
X62655049Y-89957181D01*
X62655048Y-89957179D01*
X62530109Y-89785213D01*
X62416569Y-89671673D01*
X62383084Y-89610350D01*
X62388068Y-89540658D01*
X62429940Y-89484725D01*
X62460915Y-89467810D01*
X62592331Y-89418796D01*
X62635407Y-89386549D01*
X74372000Y-89386549D01*
X74372000Y-89603451D01*
X74377772Y-89639896D01*
X74405931Y-89817683D01*
X74472955Y-90023965D01*
X74571428Y-90217228D01*
X74698920Y-90392707D01*
X74852292Y-90546079D01*
X75027771Y-90673571D01*
X75221034Y-90772044D01*
X75324175Y-90805556D01*
X75427318Y-90839069D01*
X75641549Y-90873000D01*
X75641550Y-90873000D01*
X75858450Y-90873000D01*
X75858451Y-90873000D01*
X76072682Y-90839069D01*
X76278968Y-90772043D01*
X76472229Y-90673571D01*
X76647707Y-90546080D01*
X76801080Y-90392707D01*
X76928571Y-90217229D01*
X77027043Y-90023968D01*
X77094069Y-89817682D01*
X77128000Y-89603451D01*
X77128000Y-89389049D01*
X97872000Y-89389049D01*
X97872000Y-89605951D01*
X97877376Y-89639896D01*
X97905931Y-89820183D01*
X97972955Y-90026465D01*
X98071428Y-90219728D01*
X98073245Y-90222229D01*
X98198920Y-90395207D01*
X98352293Y-90548580D01*
X98527771Y-90676071D01*
X98716127Y-90772044D01*
X98721034Y-90774544D01*
X98824175Y-90808056D01*
X98927318Y-90841569D01*
X99141549Y-90875500D01*
X99141550Y-90875500D01*
X99358450Y-90875500D01*
X99358451Y-90875500D01*
X99572682Y-90841569D01*
X99771528Y-90776960D01*
X99778965Y-90774544D01*
X99778965Y-90774543D01*
X99778968Y-90774543D01*
X99972229Y-90676071D01*
X100147707Y-90548580D01*
X100301080Y-90395207D01*
X100428571Y-90219729D01*
X100527043Y-90026468D01*
X100594069Y-89820182D01*
X100628000Y-89605951D01*
X100628000Y-89389049D01*
X100594069Y-89174818D01*
X100544703Y-89022883D01*
X100527044Y-88968534D01*
X100428571Y-88775271D01*
X100388676Y-88720360D01*
X100301080Y-88599793D01*
X100147707Y-88446420D01*
X99972229Y-88318929D01*
X99972230Y-88318929D01*
X99972228Y-88318928D01*
X99778965Y-88220455D01*
X99572683Y-88153431D01*
X99465566Y-88136465D01*
X99358451Y-88119500D01*
X99141549Y-88119500D01*
X99125765Y-88122000D01*
X98927316Y-88153431D01*
X98721034Y-88220455D01*
X98527771Y-88318928D01*
X98352292Y-88446420D01*
X98198920Y-88599792D01*
X98071428Y-88775271D01*
X97972955Y-88968534D01*
X97905931Y-89174816D01*
X97880949Y-89332546D01*
X97872000Y-89389049D01*
X77128000Y-89389049D01*
X77128000Y-89386549D01*
X77094069Y-89172318D01*
X77060556Y-89069175D01*
X77027044Y-88966034D01*
X76928571Y-88772771D01*
X76890493Y-88720361D01*
X76801080Y-88597293D01*
X76647707Y-88443920D01*
X76472229Y-88316429D01*
X76472230Y-88316429D01*
X76472228Y-88316428D01*
X76278965Y-88217955D01*
X76072683Y-88150931D01*
X75965566Y-88133965D01*
X75858451Y-88117000D01*
X75641549Y-88117000D01*
X75570138Y-88128310D01*
X75427316Y-88150931D01*
X75221034Y-88217955D01*
X75027771Y-88316428D01*
X74852292Y-88443920D01*
X74698920Y-88597292D01*
X74571428Y-88772771D01*
X74472955Y-88966034D01*
X74405931Y-89172316D01*
X74384541Y-89307366D01*
X74372000Y-89386549D01*
X62635407Y-89386549D01*
X62707546Y-89332546D01*
X62793796Y-89217331D01*
X62844091Y-89082483D01*
X62850500Y-89022873D01*
X62850499Y-87227135D01*
X128899500Y-87227135D01*
X128899500Y-89022870D01*
X128899501Y-89022876D01*
X128905908Y-89082483D01*
X128956202Y-89217328D01*
X128956206Y-89217335D01*
X129042452Y-89332544D01*
X129042455Y-89332547D01*
X129157664Y-89418793D01*
X129157671Y-89418797D01*
X129289082Y-89467810D01*
X129345016Y-89509681D01*
X129369433Y-89575145D01*
X129354582Y-89643418D01*
X129333431Y-89671673D01*
X129219889Y-89785215D01*
X129094951Y-89957179D01*
X128998444Y-90146585D01*
X128932753Y-90348760D01*
X128925793Y-90392707D01*
X128899500Y-90558713D01*
X128899500Y-90771287D01*
X128932754Y-90981243D01*
X128934377Y-90986239D01*
X128998444Y-91183414D01*
X129094951Y-91372820D01*
X129219890Y-91544786D01*
X129370213Y-91695109D01*
X129542182Y-91820050D01*
X129550946Y-91824516D01*
X129601742Y-91872491D01*
X129618536Y-91940312D01*
X129595998Y-92006447D01*
X129550946Y-92045484D01*
X129542182Y-92049949D01*
X129370213Y-92174890D01*
X129219890Y-92325213D01*
X129094951Y-92497179D01*
X128998444Y-92686585D01*
X128932753Y-92888760D01*
X128899500Y-93098713D01*
X128899500Y-93311286D01*
X128922762Y-93458160D01*
X128932754Y-93521243D01*
X128934377Y-93526239D01*
X128998444Y-93723414D01*
X129094951Y-93912820D01*
X129219890Y-94084786D01*
X129370213Y-94235109D01*
X129542182Y-94360050D01*
X129550946Y-94364516D01*
X129601742Y-94412491D01*
X129618536Y-94480312D01*
X129595998Y-94546447D01*
X129550946Y-94585484D01*
X129542182Y-94589949D01*
X129370213Y-94714890D01*
X129219890Y-94865213D01*
X129094951Y-95037179D01*
X128998444Y-95226585D01*
X128932753Y-95428760D01*
X128899500Y-95638713D01*
X128899500Y-95851286D01*
X128929064Y-96037949D01*
X128932754Y-96061243D01*
X128949691Y-96113371D01*
X128998444Y-96263414D01*
X129094951Y-96452820D01*
X129219890Y-96624786D01*
X129370213Y-96775109D01*
X129542182Y-96900050D01*
X129550946Y-96904516D01*
X129601742Y-96952491D01*
X129618536Y-97020312D01*
X129595998Y-97086447D01*
X129550946Y-97125484D01*
X129542182Y-97129949D01*
X129370213Y-97254890D01*
X129219890Y-97405213D01*
X129094951Y-97577179D01*
X128998444Y-97766585D01*
X128932753Y-97968760D01*
X128921974Y-98036819D01*
X128899500Y-98178713D01*
X128899500Y-98391287D01*
X128932754Y-98601243D01*
X128967495Y-98708165D01*
X128998444Y-98803414D01*
X129094951Y-98992820D01*
X129219890Y-99164786D01*
X129370213Y-99315109D01*
X129542182Y-99440050D01*
X129550946Y-99444516D01*
X129601742Y-99492491D01*
X129618536Y-99560312D01*
X129595998Y-99626447D01*
X129550946Y-99665484D01*
X129542182Y-99669949D01*
X129370213Y-99794890D01*
X129219890Y-99945213D01*
X129094951Y-100117179D01*
X128998444Y-100306585D01*
X128932753Y-100508760D01*
X128899500Y-100718713D01*
X128899500Y-100931287D01*
X128932754Y-101141243D01*
X128934377Y-101146239D01*
X128998444Y-101343414D01*
X129094951Y-101532820D01*
X129219890Y-101704786D01*
X129370213Y-101855109D01*
X129542182Y-101980050D01*
X129550946Y-101984516D01*
X129601742Y-102032491D01*
X129618536Y-102100312D01*
X129595998Y-102166447D01*
X129550946Y-102205484D01*
X129542182Y-102209949D01*
X129370213Y-102334890D01*
X129219890Y-102485213D01*
X129094951Y-102657179D01*
X128998444Y-102846585D01*
X128932753Y-103048760D01*
X128899500Y-103258713D01*
X128899500Y-103471286D01*
X128921607Y-103610868D01*
X128932754Y-103681243D01*
X128990745Y-103859721D01*
X128998444Y-103883414D01*
X129094951Y-104072820D01*
X129219890Y-104244786D01*
X129370213Y-104395109D01*
X129542182Y-104520050D01*
X129550946Y-104524516D01*
X129601742Y-104572491D01*
X129618536Y-104640312D01*
X129595998Y-104706447D01*
X129550946Y-104745484D01*
X129542182Y-104749949D01*
X129370213Y-104874890D01*
X129219890Y-105025213D01*
X129094951Y-105197179D01*
X128998444Y-105386585D01*
X128932753Y-105588760D01*
X128903724Y-105772043D01*
X128899500Y-105798713D01*
X128899500Y-106011287D01*
X128932754Y-106221243D01*
X128934377Y-106226239D01*
X128998444Y-106423414D01*
X129094951Y-106612820D01*
X129219890Y-106784786D01*
X129370213Y-106935109D01*
X129542179Y-107060048D01*
X129542181Y-107060049D01*
X129542184Y-107060051D01*
X129731588Y-107156557D01*
X129933757Y-107222246D01*
X130143713Y-107255500D01*
X130143714Y-107255500D01*
X130356286Y-107255500D01*
X130356287Y-107255500D01*
X130566243Y-107222246D01*
X130768412Y-107156557D01*
X130957816Y-107060051D01*
X130979789Y-107044086D01*
X131129786Y-106935109D01*
X131129788Y-106935106D01*
X131129792Y-106935104D01*
X131280104Y-106784792D01*
X131280106Y-106784788D01*
X131280109Y-106784786D01*
X131405048Y-106612820D01*
X131405047Y-106612820D01*
X131405051Y-106612816D01*
X131501557Y-106423412D01*
X131567246Y-106221243D01*
X131600500Y-106011287D01*
X131600500Y-105798713D01*
X131567246Y-105588757D01*
X131501557Y-105386588D01*
X131405051Y-105197184D01*
X131405049Y-105197181D01*
X131405048Y-105197179D01*
X131280109Y-105025213D01*
X131129786Y-104874890D01*
X130957820Y-104749951D01*
X130957115Y-104749591D01*
X130949054Y-104745485D01*
X130898259Y-104697512D01*
X130881463Y-104629692D01*
X130903999Y-104563556D01*
X130949054Y-104524515D01*
X130957816Y-104520051D01*
X130979789Y-104504086D01*
X131129786Y-104395109D01*
X131129788Y-104395106D01*
X131129792Y-104395104D01*
X131280104Y-104244792D01*
X131280106Y-104244788D01*
X131280109Y-104244786D01*
X131405048Y-104072820D01*
X131405047Y-104072820D01*
X131405051Y-104072816D01*
X131501557Y-103883412D01*
X131567246Y-103681243D01*
X131600500Y-103471287D01*
X131600500Y-103258713D01*
X131567246Y-103048757D01*
X131501557Y-102846588D01*
X131405051Y-102657184D01*
X131405049Y-102657181D01*
X131405048Y-102657179D01*
X131280109Y-102485213D01*
X131129786Y-102334890D01*
X130957820Y-102209951D01*
X130957115Y-102209591D01*
X130949054Y-102205485D01*
X130898259Y-102157512D01*
X130881463Y-102089692D01*
X130903999Y-102023556D01*
X130949054Y-101984515D01*
X130957816Y-101980051D01*
X130979789Y-101964086D01*
X131129786Y-101855109D01*
X131129788Y-101855106D01*
X131129792Y-101855104D01*
X131280104Y-101704792D01*
X131280106Y-101704788D01*
X131280109Y-101704786D01*
X131405048Y-101532820D01*
X131405047Y-101532820D01*
X131405051Y-101532816D01*
X131501557Y-101343412D01*
X131567246Y-101141243D01*
X131600500Y-100931287D01*
X131600500Y-100718713D01*
X131567246Y-100508757D01*
X131501557Y-100306588D01*
X131405051Y-100117184D01*
X131405049Y-100117181D01*
X131405048Y-100117179D01*
X131280109Y-99945213D01*
X131129786Y-99794890D01*
X130957820Y-99669951D01*
X130957115Y-99669591D01*
X130949054Y-99665485D01*
X130898259Y-99617512D01*
X130881463Y-99549692D01*
X130903999Y-99483556D01*
X130949054Y-99444515D01*
X130957816Y-99440051D01*
X130993094Y-99414420D01*
X131129786Y-99315109D01*
X131129788Y-99315106D01*
X131129792Y-99315104D01*
X131280104Y-99164792D01*
X131280106Y-99164788D01*
X131280109Y-99164786D01*
X131405048Y-98992820D01*
X131405047Y-98992820D01*
X131405051Y-98992816D01*
X131501557Y-98803412D01*
X131567246Y-98601243D01*
X131600500Y-98391287D01*
X131600500Y-98178713D01*
X131567246Y-97968757D01*
X131501557Y-97766588D01*
X131405051Y-97577184D01*
X131405049Y-97577181D01*
X131405048Y-97577179D01*
X131280109Y-97405213D01*
X131129786Y-97254890D01*
X130957820Y-97129951D01*
X130957115Y-97129591D01*
X130949054Y-97125485D01*
X130898259Y-97077512D01*
X130881463Y-97009692D01*
X130903999Y-96943556D01*
X130949054Y-96904515D01*
X130957816Y-96900051D01*
X130979789Y-96884086D01*
X131129786Y-96775109D01*
X131129788Y-96775106D01*
X131129792Y-96775104D01*
X131280104Y-96624792D01*
X131280106Y-96624788D01*
X131280109Y-96624786D01*
X131405048Y-96452820D01*
X131405047Y-96452820D01*
X131405051Y-96452816D01*
X131501557Y-96263412D01*
X131567246Y-96061243D01*
X131600500Y-95851287D01*
X131600500Y-95638713D01*
X131567246Y-95428757D01*
X131501557Y-95226588D01*
X131405051Y-95037184D01*
X131405049Y-95037181D01*
X131405048Y-95037179D01*
X131280109Y-94865213D01*
X131129786Y-94714890D01*
X130957820Y-94589951D01*
X130957115Y-94589591D01*
X130949054Y-94585485D01*
X130898259Y-94537512D01*
X130881463Y-94469692D01*
X130903999Y-94403556D01*
X130949054Y-94364515D01*
X130957816Y-94360051D01*
X130979789Y-94344086D01*
X131129786Y-94235109D01*
X131129788Y-94235106D01*
X131129792Y-94235104D01*
X131280104Y-94084792D01*
X131280106Y-94084788D01*
X131280109Y-94084786D01*
X131405048Y-93912820D01*
X131405047Y-93912820D01*
X131405051Y-93912816D01*
X131501557Y-93723412D01*
X131567246Y-93521243D01*
X131600500Y-93311287D01*
X131600500Y-93098713D01*
X131567246Y-92888757D01*
X131501557Y-92686588D01*
X131405051Y-92497184D01*
X131405049Y-92497181D01*
X131405048Y-92497179D01*
X131280109Y-92325213D01*
X131129786Y-92174890D01*
X130957820Y-92049951D01*
X130957115Y-92049591D01*
X130949054Y-92045485D01*
X130898259Y-91997512D01*
X130881463Y-91929692D01*
X130903999Y-91863556D01*
X130949054Y-91824515D01*
X130957816Y-91820051D01*
X130979789Y-91804086D01*
X131129786Y-91695109D01*
X131129788Y-91695106D01*
X131129792Y-91695104D01*
X131280104Y-91544792D01*
X131280106Y-91544788D01*
X131280109Y-91544786D01*
X131405048Y-91372820D01*
X131405047Y-91372820D01*
X131405051Y-91372816D01*
X131501557Y-91183412D01*
X131567246Y-90981243D01*
X131600500Y-90771287D01*
X131600500Y-90558713D01*
X131567246Y-90348757D01*
X131501557Y-90146588D01*
X131405051Y-89957184D01*
X131405049Y-89957181D01*
X131405048Y-89957179D01*
X131280109Y-89785213D01*
X131166569Y-89671673D01*
X131133084Y-89610350D01*
X131138068Y-89540658D01*
X131179940Y-89484725D01*
X131210915Y-89467810D01*
X131342331Y-89418796D01*
X131457546Y-89332546D01*
X131543796Y-89217331D01*
X131594091Y-89082483D01*
X131600500Y-89022873D01*
X131600499Y-87227128D01*
X131595299Y-87178757D01*
X131594091Y-87167516D01*
X131543797Y-87032671D01*
X131543793Y-87032664D01*
X131457547Y-86917455D01*
X131457544Y-86917452D01*
X131342335Y-86831206D01*
X131342328Y-86831202D01*
X131207482Y-86780908D01*
X131207483Y-86780908D01*
X131147883Y-86774501D01*
X131147881Y-86774500D01*
X131147873Y-86774500D01*
X131147864Y-86774500D01*
X129352129Y-86774500D01*
X129352123Y-86774501D01*
X129292516Y-86780908D01*
X129157671Y-86831202D01*
X129157664Y-86831206D01*
X129042455Y-86917452D01*
X129042452Y-86917455D01*
X128956206Y-87032664D01*
X128956202Y-87032671D01*
X128905908Y-87167517D01*
X128899501Y-87227116D01*
X128899501Y-87227123D01*
X128899500Y-87227135D01*
X62850499Y-87227135D01*
X62850499Y-87227128D01*
X62845580Y-87181369D01*
X62844091Y-87167516D01*
X62793797Y-87032671D01*
X62793793Y-87032664D01*
X62707547Y-86917455D01*
X62707544Y-86917452D01*
X62592335Y-86831206D01*
X62592328Y-86831202D01*
X62457482Y-86780908D01*
X62457483Y-86780908D01*
X62397883Y-86774501D01*
X62397881Y-86774500D01*
X62397873Y-86774500D01*
X62397864Y-86774500D01*
X60602129Y-86774500D01*
X60602123Y-86774501D01*
X60542516Y-86780908D01*
X60407671Y-86831202D01*
X60407664Y-86831206D01*
X60292455Y-86917452D01*
X60292452Y-86917455D01*
X60206206Y-87032664D01*
X60206202Y-87032671D01*
X60155908Y-87167517D01*
X60149501Y-87227116D01*
X60149501Y-87227123D01*
X60149500Y-87227135D01*
X57000500Y-87227135D01*
X57000500Y-74389049D01*
X74372000Y-74389049D01*
X74372000Y-74605950D01*
X74405931Y-74820183D01*
X74472955Y-75026465D01*
X74571428Y-75219728D01*
X74698920Y-75395207D01*
X74852292Y-75548579D01*
X75027771Y-75676071D01*
X75221034Y-75774544D01*
X75324175Y-75808056D01*
X75427318Y-75841569D01*
X75641549Y-75875500D01*
X75641550Y-75875500D01*
X75858450Y-75875500D01*
X75858451Y-75875500D01*
X76072682Y-75841569D01*
X76278968Y-75774543D01*
X76472229Y-75676071D01*
X76647707Y-75548580D01*
X76801080Y-75395207D01*
X76928571Y-75219729D01*
X77027043Y-75026468D01*
X77094069Y-74820182D01*
X77128000Y-74605951D01*
X77128000Y-74391549D01*
X97872000Y-74391549D01*
X97872000Y-74608450D01*
X97905931Y-74822683D01*
X97972955Y-75028965D01*
X98071428Y-75222228D01*
X98073245Y-75224729D01*
X98198920Y-75397707D01*
X98352293Y-75551080D01*
X98527771Y-75678571D01*
X98716127Y-75774544D01*
X98721034Y-75777044D01*
X98824175Y-75810556D01*
X98927318Y-75844069D01*
X99141549Y-75878000D01*
X99141550Y-75878000D01*
X99358450Y-75878000D01*
X99358451Y-75878000D01*
X99572682Y-75844069D01*
X99778968Y-75777043D01*
X99972229Y-75678571D01*
X100147707Y-75551080D01*
X100301080Y-75397707D01*
X100428571Y-75222229D01*
X100527043Y-75028968D01*
X100594069Y-74822682D01*
X100628000Y-74608451D01*
X100628000Y-74391549D01*
X100594069Y-74177318D01*
X100527856Y-73973534D01*
X100527044Y-73971034D01*
X100428571Y-73777771D01*
X100388675Y-73722859D01*
X100301080Y-73602293D01*
X100147707Y-73448920D01*
X99972229Y-73321429D01*
X99972230Y-73321429D01*
X99972228Y-73321428D01*
X99778965Y-73222955D01*
X99572683Y-73155931D01*
X99465566Y-73138965D01*
X99358451Y-73122000D01*
X99141549Y-73122000D01*
X99125765Y-73124500D01*
X98927316Y-73155931D01*
X98721034Y-73222955D01*
X98527771Y-73321428D01*
X98352292Y-73448920D01*
X98198920Y-73602292D01*
X98071428Y-73777771D01*
X97972955Y-73971034D01*
X97905931Y-74177316D01*
X97872000Y-74391549D01*
X77128000Y-74391549D01*
X77128000Y-74389049D01*
X77094069Y-74174818D01*
X77060556Y-74071675D01*
X77027044Y-73968534D01*
X76928571Y-73775271D01*
X76810945Y-73613371D01*
X76801080Y-73599793D01*
X76647707Y-73446420D01*
X76472229Y-73318929D01*
X76472230Y-73318929D01*
X76472228Y-73318928D01*
X76278965Y-73220455D01*
X76072683Y-73153431D01*
X75965566Y-73136465D01*
X75858451Y-73119500D01*
X75641549Y-73119500D01*
X75570138Y-73130810D01*
X75427316Y-73153431D01*
X75221034Y-73220455D01*
X75027771Y-73318928D01*
X74852292Y-73446420D01*
X74698920Y-73599792D01*
X74571428Y-73775271D01*
X74472955Y-73968534D01*
X74405931Y-74174816D01*
X74372000Y-74389049D01*
X57000500Y-74389049D01*
X57000500Y-67624500D01*
X57020185Y-67557461D01*
X57072989Y-67511706D01*
X57124500Y-67500500D01*
X125184108Y-67500500D01*
X135184108Y-67500500D01*
X140184108Y-67500500D01*
X170184108Y-67500500D01*
X175184108Y-67500500D01*
X184625500Y-67500500D01*
X184692539Y-67520185D01*
G37*
%TD.AperFunction*%
%TD*%
M02*
