%TF.GenerationSoftware,KiCad,Pcbnew,9.0.0*%
%TF.CreationDate,2025-03-31T13:52:10-04:00*%
%TF.ProjectId,neurophy-card-full,6e657572-6f70-4687-992d-636172642d66,1*%
%TF.SameCoordinates,Original*%
%TF.FileFunction,Copper,L1,Top*%
%TF.FilePolarity,Positive*%
%FSLAX46Y46*%
G04 Gerber Fmt 4.6, Leading zero omitted, Abs format (unit mm)*
G04 Created by KiCad (PCBNEW 9.0.0) date 2025-03-31 13:52:10*
%MOMM*%
%LPD*%
G01*
G04 APERTURE LIST*
%TA.AperFunction,ComponentPad*%
%ADD10R,1.700000X1.700000*%
%TD*%
%TA.AperFunction,ComponentPad*%
%ADD11O,1.700000X1.700000*%
%TD*%
%TA.AperFunction,ComponentPad*%
%ADD12C,1.755000*%
%TD*%
%TA.AperFunction,ComponentPad*%
%ADD13C,2.550000*%
%TD*%
%TA.AperFunction,ComponentPad*%
%ADD14C,2.050000*%
%TD*%
%TA.AperFunction,ComponentPad*%
%ADD15C,2.250000*%
%TD*%
%TA.AperFunction,Conductor*%
%ADD16C,1.000000*%
%TD*%
G04 APERTURE END LIST*
D10*
%TO.P,J20,1,Pin_1*%
%TO.N,unconnected-(J20-Pin_1-Pad1)*%
X61500000Y-88125000D03*
D11*
%TO.P,J20,2,Pin_2*%
%TO.N,unconnected-(J20-Pin_2-Pad2)*%
X61500000Y-90665000D03*
%TO.P,J20,3,Pin_3*%
%TO.N,unconnected-(J20-Pin_3-Pad3)*%
X61500000Y-93205000D03*
%TO.P,J20,4,Pin_4*%
%TO.N,unconnected-(J20-Pin_4-Pad4)*%
X61500000Y-95745000D03*
%TO.P,J20,5,Pin_5*%
%TO.N,unconnected-(J20-Pin_5-Pad5)*%
X61500000Y-98285000D03*
%TO.P,J20,6,Pin_6*%
%TO.N,unconnected-(J20-Pin_6-Pad6)*%
X61500000Y-100825000D03*
%TO.P,J20,7,Pin_7*%
%TO.N,unconnected-(J20-Pin_7-Pad7)*%
X61500000Y-103365000D03*
%TO.P,J20,8,Pin_8*%
%TO.N,unconnected-(J20-Pin_8-Pad8)*%
X61500000Y-105905000D03*
%TD*%
D12*
%TO.P,J12,1,In*%
%TO.N,Net-(J12-In)*%
X167000000Y-89500000D03*
D13*
%TO.P,J12,2,Ext*%
%TO.N,Earth*%
X169540000Y-92040000D03*
X169540000Y-86960000D03*
X164460000Y-92040000D03*
X164460000Y-86960000D03*
%TD*%
D12*
%TO.P,J8,1,In*%
%TO.N,Net-(J18-Pin_4)*%
X99250000Y-119495000D03*
D13*
%TO.P,J8,2,Ext*%
%TO.N,Earth*%
X101790000Y-122035000D03*
X101790000Y-116955000D03*
X96710000Y-122035000D03*
X96710000Y-116955000D03*
%TD*%
D12*
%TO.P,J3,1,In*%
%TO.N,Net-(J17-Pin_2)*%
X75750000Y-104495000D03*
D13*
%TO.P,J3,2,Ext*%
%TO.N,Earth*%
X73210000Y-101955000D03*
X73210000Y-107035000D03*
X78290000Y-101955000D03*
X78290000Y-107035000D03*
%TD*%
D12*
%TO.P,J5,1,In*%
%TO.N,Net-(J17-Pin_3)*%
X75750000Y-89495000D03*
D13*
%TO.P,J5,2,Ext*%
%TO.N,Earth*%
X73210000Y-86955000D03*
X73210000Y-92035000D03*
X78290000Y-86955000D03*
X78290000Y-92035000D03*
%TD*%
D10*
%TO.P,J18,1,Pin_1*%
%TO.N,Net-(J18-Pin_1)*%
X180250000Y-88130000D03*
D11*
%TO.P,J18,2,Pin_2*%
%TO.N,Net-(J18-Pin_2)*%
X180250000Y-90670000D03*
%TO.P,J18,3,Pin_3*%
%TO.N,Net-(J18-Pin_3)*%
X180250000Y-93210000D03*
%TO.P,J18,4,Pin_4*%
%TO.N,Net-(J18-Pin_4)*%
X180250000Y-95750000D03*
%TO.P,J18,5,Pin_5*%
%TO.N,Net-(J10-In)*%
X180250000Y-98290000D03*
%TO.P,J18,6,Pin_6*%
%TO.N,Net-(J12-In)*%
X180250000Y-100830000D03*
%TO.P,J18,7,Pin_7*%
%TO.N,Net-(J14-In)*%
X180250000Y-103370000D03*
%TO.P,J18,8,Pin_8*%
%TO.N,Net-(J16-In)*%
X180250000Y-105910000D03*
%TD*%
D12*
%TO.P,J11,1,In*%
%TO.N,Net-(J11-In)*%
X143500000Y-104497500D03*
D13*
%TO.P,J11,2,Ext*%
%TO.N,Earth*%
X140960000Y-101957500D03*
X140960000Y-107037500D03*
X146040000Y-101957500D03*
X146040000Y-107037500D03*
%TD*%
D12*
%TO.P,J2,1,In*%
%TO.N,Net-(J18-Pin_1)*%
X99250000Y-74500000D03*
D13*
%TO.P,J2,2,Ext*%
%TO.N,Earth*%
X101790000Y-77040000D03*
X101790000Y-71960000D03*
X96710000Y-77040000D03*
X96710000Y-71960000D03*
%TD*%
D14*
%TO.P,J21,1,In*%
%TO.N,Earth*%
X116750000Y-107000000D03*
D15*
%TO.P,J21,2,Ext*%
X114210000Y-104460000D03*
X114210000Y-109540000D03*
X119290000Y-104460000D03*
X119290000Y-109540000D03*
%TD*%
D12*
%TO.P,J14,1,In*%
%TO.N,Net-(J14-In)*%
X167000000Y-104500000D03*
D13*
%TO.P,J14,2,Ext*%
%TO.N,Earth*%
X169540000Y-107040000D03*
X169540000Y-101960000D03*
X164460000Y-107040000D03*
X164460000Y-101960000D03*
%TD*%
D12*
%TO.P,J10,1,In*%
%TO.N,Net-(J10-In)*%
X167000000Y-74502500D03*
D13*
%TO.P,J10,2,Ext*%
%TO.N,Earth*%
X169540000Y-77042500D03*
X169540000Y-71962500D03*
X164460000Y-77042500D03*
X164460000Y-71962500D03*
%TD*%
D12*
%TO.P,J1,1,In*%
%TO.N,Net-(J1-In)*%
X75750000Y-119492500D03*
D13*
%TO.P,J1,2,Ext*%
%TO.N,Earth*%
X73210000Y-116952500D03*
X73210000Y-122032500D03*
X78290000Y-116952500D03*
X78290000Y-122032500D03*
%TD*%
D12*
%TO.P,J6,1,In*%
%TO.N,Net-(J18-Pin_3)*%
X99250000Y-104497500D03*
D13*
%TO.P,J6,2,Ext*%
%TO.N,Earth*%
X101790000Y-107037500D03*
X101790000Y-101957500D03*
X96710000Y-107037500D03*
X96710000Y-101957500D03*
%TD*%
D14*
%TO.P,J22,1,In*%
%TO.N,Earth*%
X116750000Y-87000000D03*
D15*
%TO.P,J22,2,Ext*%
X114210000Y-84460000D03*
X114210000Y-89540000D03*
X119290000Y-84460000D03*
X119290000Y-89540000D03*
%TD*%
D12*
%TO.P,J9,1,In*%
%TO.N,Net-(J17-Pin_5)*%
X143500000Y-119495000D03*
D13*
%TO.P,J9,2,Ext*%
%TO.N,Earth*%
X140960000Y-116955000D03*
X140960000Y-122035000D03*
X146040000Y-116955000D03*
X146040000Y-122035000D03*
%TD*%
D12*
%TO.P,J15,1,In*%
%TO.N,Net-(J15-In)*%
X143500000Y-74500000D03*
D13*
%TO.P,J15,2,Ext*%
%TO.N,Earth*%
X140960000Y-71960000D03*
X140960000Y-77040000D03*
X146040000Y-71960000D03*
X146040000Y-77040000D03*
%TD*%
D12*
%TO.P,J16,1,In*%
%TO.N,Net-(J16-In)*%
X167000000Y-119497500D03*
D13*
%TO.P,J16,2,Ext*%
%TO.N,Earth*%
X169540000Y-122037500D03*
X169540000Y-116957500D03*
X164460000Y-122037500D03*
X164460000Y-116957500D03*
%TD*%
D12*
%TO.P,J4,1,In*%
%TO.N,Net-(J18-Pin_2)*%
X99250000Y-89497500D03*
D13*
%TO.P,J4,2,Ext*%
%TO.N,Earth*%
X101790000Y-92037500D03*
X101790000Y-86957500D03*
X96710000Y-92037500D03*
X96710000Y-86957500D03*
%TD*%
D12*
%TO.P,J13,1,In*%
%TO.N,Net-(J13-In)*%
X143500000Y-89497500D03*
D13*
%TO.P,J13,2,Ext*%
%TO.N,Earth*%
X140960000Y-86957500D03*
X140960000Y-92037500D03*
X146040000Y-86957500D03*
X146040000Y-92037500D03*
%TD*%
D12*
%TO.P,J7,1,In*%
%TO.N,Net-(J17-Pin_4)*%
X75750000Y-74497500D03*
D13*
%TO.P,J7,2,Ext*%
%TO.N,Earth*%
X73210000Y-71957500D03*
X73210000Y-77037500D03*
X78290000Y-71957500D03*
X78290000Y-77037500D03*
%TD*%
D10*
%TO.P,J17,1,Pin_1*%
%TO.N,Net-(J1-In)*%
X112470000Y-119495000D03*
D11*
%TO.P,J17,2,Pin_2*%
%TO.N,Net-(J17-Pin_2)*%
X115010000Y-119495000D03*
%TO.P,J17,3,Pin_3*%
%TO.N,Net-(J17-Pin_3)*%
X117550000Y-119495000D03*
%TO.P,J17,4,Pin_4*%
%TO.N,Net-(J17-Pin_4)*%
X120090000Y-119495000D03*
%TO.P,J17,5,Pin_5*%
%TO.N,Net-(J17-Pin_5)*%
X122630000Y-119495000D03*
%TO.P,J17,6,Pin_6*%
%TO.N,Net-(J11-In)*%
X125170000Y-119495000D03*
%TO.P,J17,7,Pin_7*%
%TO.N,Net-(J13-In)*%
X127710000Y-119495000D03*
%TO.P,J17,8,Pin_8*%
%TO.N,Net-(J15-In)*%
X130250000Y-119495000D03*
%TD*%
D10*
%TO.P,J19,1,Pin_1*%
%TO.N,unconnected-(J19-Pin_1-Pad1)*%
X130250000Y-88125000D03*
D11*
%TO.P,J19,2,Pin_2*%
%TO.N,unconnected-(J19-Pin_2-Pad2)*%
X130250000Y-90665000D03*
%TO.P,J19,3,Pin_3*%
%TO.N,unconnected-(J19-Pin_3-Pad3)*%
X130250000Y-93205000D03*
%TO.P,J19,4,Pin_4*%
%TO.N,unconnected-(J19-Pin_4-Pad4)*%
X130250000Y-95745000D03*
%TO.P,J19,5,Pin_5*%
%TO.N,unconnected-(J19-Pin_5-Pad5)*%
X130250000Y-98285000D03*
%TO.P,J19,6,Pin_6*%
%TO.N,unconnected-(J19-Pin_6-Pad6)*%
X130250000Y-100825000D03*
%TO.P,J19,7,Pin_7*%
%TO.N,unconnected-(J19-Pin_7-Pad7)*%
X130250000Y-103365000D03*
%TO.P,J19,8,Pin_8*%
%TO.N,unconnected-(J19-Pin_8-Pad8)*%
X130250000Y-105905000D03*
%TD*%
D16*
%TO.N,Net-(J1-In)*%
X112470000Y-122030000D02*
X109500000Y-125000000D01*
X88000000Y-125000000D02*
X82492500Y-119492500D01*
X112470000Y-119495000D02*
X112470000Y-122030000D01*
X109500000Y-125000000D02*
X88000000Y-125000000D01*
X82492500Y-119492500D02*
X75750000Y-119492500D01*
%TO.N,Net-(J17-Pin_2)*%
X104500000Y-112000000D02*
X79000000Y-112000000D01*
X79000000Y-112000000D02*
X75750000Y-108750000D01*
X75750000Y-108750000D02*
X75750000Y-104495000D01*
X115010000Y-119495000D02*
X115010000Y-118260000D01*
X108750000Y-116250000D02*
X104500000Y-112000000D01*
X115010000Y-118260000D02*
X113000000Y-116250000D01*
X113000000Y-116250000D02*
X108750000Y-116250000D01*
%TO.N,Net-(J17-Pin_3)*%
X114500000Y-114250000D02*
X110500000Y-114250000D01*
X107000000Y-99250000D02*
X104750000Y-97000000D01*
X75750000Y-94000000D02*
X75750000Y-89495000D01*
X78750000Y-97000000D02*
X75750000Y-94000000D01*
X110500000Y-114250000D02*
X107000000Y-110750000D01*
X117550000Y-117300000D02*
X114500000Y-114250000D01*
X104750000Y-97000000D02*
X78750000Y-97000000D01*
X117550000Y-119495000D02*
X117550000Y-117300000D01*
X107000000Y-110750000D02*
X107000000Y-99250000D01*
%TO.N,Net-(J17-Pin_4)*%
X78500000Y-82000000D02*
X75750000Y-79250000D01*
X109500000Y-85750000D02*
X105750000Y-82000000D01*
X116000000Y-112250000D02*
X112500000Y-112250000D01*
X120090000Y-116340000D02*
X116000000Y-112250000D01*
X109500000Y-109250000D02*
X109500000Y-85750000D01*
X120090000Y-119495000D02*
X120090000Y-116340000D01*
X112500000Y-112250000D02*
X109500000Y-109250000D01*
X105750000Y-82000000D02*
X78500000Y-82000000D01*
X75750000Y-79250000D02*
X75750000Y-74497500D01*
%TD*%
%TA.AperFunction,Conductor*%
%TO.N,Earth*%
G36*
X184692539Y-67520185D02*
G01*
X184738294Y-67572989D01*
X184749500Y-67624500D01*
X184749500Y-126375500D01*
X184729815Y-126442539D01*
X184677011Y-126488294D01*
X184625500Y-126499500D01*
X57124500Y-126499500D01*
X57057461Y-126479815D01*
X57011706Y-126427011D01*
X57000500Y-126375500D01*
X57000500Y-87227135D01*
X60149500Y-87227135D01*
X60149500Y-89022870D01*
X60149501Y-89022876D01*
X60155908Y-89082483D01*
X60206202Y-89217328D01*
X60206206Y-89217335D01*
X60292452Y-89332544D01*
X60292455Y-89332547D01*
X60407664Y-89418793D01*
X60407671Y-89418797D01*
X60539082Y-89467810D01*
X60595016Y-89509681D01*
X60619433Y-89575145D01*
X60604582Y-89643418D01*
X60583431Y-89671673D01*
X60469889Y-89785215D01*
X60344951Y-89957179D01*
X60248444Y-90146585D01*
X60182753Y-90348760D01*
X60159647Y-90494649D01*
X60149500Y-90558713D01*
X60149500Y-90771287D01*
X60182754Y-90981243D01*
X60184377Y-90986239D01*
X60248444Y-91183414D01*
X60344951Y-91372820D01*
X60469890Y-91544786D01*
X60620213Y-91695109D01*
X60792182Y-91820050D01*
X60800946Y-91824516D01*
X60851742Y-91872491D01*
X60868536Y-91940312D01*
X60845998Y-92006447D01*
X60800946Y-92045484D01*
X60792182Y-92049949D01*
X60620213Y-92174890D01*
X60469890Y-92325213D01*
X60344951Y-92497179D01*
X60248444Y-92686585D01*
X60182753Y-92888760D01*
X60149500Y-93098713D01*
X60149500Y-93311287D01*
X60182754Y-93521243D01*
X60184377Y-93526239D01*
X60248444Y-93723414D01*
X60344951Y-93912820D01*
X60469890Y-94084786D01*
X60620213Y-94235109D01*
X60792182Y-94360050D01*
X60800946Y-94364516D01*
X60851742Y-94412491D01*
X60868536Y-94480312D01*
X60845998Y-94546447D01*
X60800946Y-94585484D01*
X60792182Y-94589949D01*
X60620213Y-94714890D01*
X60469890Y-94865213D01*
X60344951Y-95037179D01*
X60248444Y-95226585D01*
X60182753Y-95428760D01*
X60149500Y-95638713D01*
X60149500Y-95851286D01*
X60179064Y-96037949D01*
X60182754Y-96061243D01*
X60235266Y-96222859D01*
X60248444Y-96263414D01*
X60344951Y-96452820D01*
X60469890Y-96624786D01*
X60620213Y-96775109D01*
X60792182Y-96900050D01*
X60800946Y-96904516D01*
X60851742Y-96952491D01*
X60868536Y-97020312D01*
X60845998Y-97086447D01*
X60800946Y-97125484D01*
X60792182Y-97129949D01*
X60620213Y-97254890D01*
X60469890Y-97405213D01*
X60344951Y-97577179D01*
X60248444Y-97766585D01*
X60182753Y-97968760D01*
X60171974Y-98036819D01*
X60149500Y-98178713D01*
X60149500Y-98391287D01*
X60182754Y-98601243D01*
X60239564Y-98776086D01*
X60248444Y-98803414D01*
X60344951Y-98992820D01*
X60469890Y-99164786D01*
X60620213Y-99315109D01*
X60792182Y-99440050D01*
X60800946Y-99444516D01*
X60851742Y-99492491D01*
X60868536Y-99560312D01*
X60845998Y-99626447D01*
X60800946Y-99665484D01*
X60792182Y-99669949D01*
X60620213Y-99794890D01*
X60469890Y-99945213D01*
X60344951Y-100117179D01*
X60248444Y-100306585D01*
X60182753Y-100508760D01*
X60149500Y-100718713D01*
X60149500Y-100931287D01*
X60182754Y-101141243D01*
X60184377Y-101146239D01*
X60248444Y-101343414D01*
X60344951Y-101532820D01*
X60469890Y-101704786D01*
X60620213Y-101855109D01*
X60792182Y-101980050D01*
X60800946Y-101984516D01*
X60851742Y-102032491D01*
X60868536Y-102100312D01*
X60845998Y-102166447D01*
X60800946Y-102205484D01*
X60792182Y-102209949D01*
X60620213Y-102334890D01*
X60469890Y-102485213D01*
X60344951Y-102657179D01*
X60248444Y-102846585D01*
X60182753Y-103048760D01*
X60149500Y-103258713D01*
X60149500Y-103471286D01*
X60169457Y-103597293D01*
X60182754Y-103681243D01*
X60212493Y-103772771D01*
X60248444Y-103883414D01*
X60344951Y-104072820D01*
X60469890Y-104244786D01*
X60620213Y-104395109D01*
X60792182Y-104520050D01*
X60800946Y-104524516D01*
X60851742Y-104572491D01*
X60868536Y-104640312D01*
X60845998Y-104706447D01*
X60800946Y-104745484D01*
X60792182Y-104749949D01*
X60620213Y-104874890D01*
X60469890Y-105025213D01*
X60344951Y-105197179D01*
X60248444Y-105386585D01*
X60182753Y-105588760D01*
X60153328Y-105774543D01*
X60149500Y-105798713D01*
X60149500Y-106011287D01*
X60182754Y-106221243D01*
X60184377Y-106226239D01*
X60248444Y-106423414D01*
X60344951Y-106612820D01*
X60469890Y-106784786D01*
X60620213Y-106935109D01*
X60792179Y-107060048D01*
X60792181Y-107060049D01*
X60792184Y-107060051D01*
X60981588Y-107156557D01*
X61183757Y-107222246D01*
X61393713Y-107255500D01*
X61393714Y-107255500D01*
X61606286Y-107255500D01*
X61606287Y-107255500D01*
X61816243Y-107222246D01*
X62018412Y-107156557D01*
X62207816Y-107060051D01*
X62229789Y-107044086D01*
X62379786Y-106935109D01*
X62379788Y-106935106D01*
X62379792Y-106935104D01*
X62530104Y-106784792D01*
X62530106Y-106784788D01*
X62530109Y-106784786D01*
X62655048Y-106612820D01*
X62655047Y-106612820D01*
X62655051Y-106612816D01*
X62751557Y-106423412D01*
X62817246Y-106221243D01*
X62850500Y-106011287D01*
X62850500Y-105798713D01*
X62817246Y-105588757D01*
X62751557Y-105386588D01*
X62655051Y-105197184D01*
X62655049Y-105197181D01*
X62655048Y-105197179D01*
X62530109Y-105025213D01*
X62379786Y-104874890D01*
X62207820Y-104749951D01*
X62207115Y-104749591D01*
X62199054Y-104745485D01*
X62148259Y-104697512D01*
X62131463Y-104629692D01*
X62153999Y-104563556D01*
X62199054Y-104524515D01*
X62207816Y-104520051D01*
X62229789Y-104504086D01*
X62379786Y-104395109D01*
X62379788Y-104395106D01*
X62379792Y-104395104D01*
X62530104Y-104244792D01*
X62530106Y-104244788D01*
X62530109Y-104244786D01*
X62655048Y-104072820D01*
X62655047Y-104072820D01*
X62655051Y-104072816D01*
X62751557Y-103883412D01*
X62817246Y-103681243D01*
X62850500Y-103471287D01*
X62850500Y-103258713D01*
X62817246Y-103048757D01*
X62751557Y-102846588D01*
X62655051Y-102657184D01*
X62655049Y-102657181D01*
X62655048Y-102657179D01*
X62530109Y-102485213D01*
X62379786Y-102334890D01*
X62207820Y-102209951D01*
X62207115Y-102209591D01*
X62199054Y-102205485D01*
X62148259Y-102157512D01*
X62131463Y-102089692D01*
X62153999Y-102023556D01*
X62199054Y-101984515D01*
X62207816Y-101980051D01*
X62229789Y-101964086D01*
X62379786Y-101855109D01*
X62379788Y-101855106D01*
X62379792Y-101855104D01*
X62530104Y-101704792D01*
X62530106Y-101704788D01*
X62530109Y-101704786D01*
X62655048Y-101532820D01*
X62655047Y-101532820D01*
X62655051Y-101532816D01*
X62751557Y-101343412D01*
X62817246Y-101141243D01*
X62850500Y-100931287D01*
X62850500Y-100718713D01*
X62817246Y-100508757D01*
X62751557Y-100306588D01*
X62655051Y-100117184D01*
X62655049Y-100117181D01*
X62655048Y-100117179D01*
X62530109Y-99945213D01*
X62379786Y-99794890D01*
X62207820Y-99669951D01*
X62207115Y-99669591D01*
X62199054Y-99665485D01*
X62148259Y-99617512D01*
X62131463Y-99549692D01*
X62153999Y-99483556D01*
X62199054Y-99444515D01*
X62207816Y-99440051D01*
X62333770Y-99348541D01*
X62379786Y-99315109D01*
X62379788Y-99315106D01*
X62379792Y-99315104D01*
X62530104Y-99164792D01*
X62530106Y-99164788D01*
X62530109Y-99164786D01*
X62655048Y-98992820D01*
X62655047Y-98992820D01*
X62655051Y-98992816D01*
X62751557Y-98803412D01*
X62817246Y-98601243D01*
X62850500Y-98391287D01*
X62850500Y-98178713D01*
X62817246Y-97968757D01*
X62751557Y-97766588D01*
X62655051Y-97577184D01*
X62655049Y-97577181D01*
X62655048Y-97577179D01*
X62530109Y-97405213D01*
X62379786Y-97254890D01*
X62207820Y-97129951D01*
X62207115Y-97129591D01*
X62199054Y-97125485D01*
X62148259Y-97077512D01*
X62131463Y-97009692D01*
X62153999Y-96943556D01*
X62199054Y-96904515D01*
X62207816Y-96900051D01*
X62229789Y-96884086D01*
X62379786Y-96775109D01*
X62379788Y-96775106D01*
X62379792Y-96775104D01*
X62530104Y-96624792D01*
X62530106Y-96624788D01*
X62530109Y-96624786D01*
X62655048Y-96452820D01*
X62655047Y-96452820D01*
X62655051Y-96452816D01*
X62751557Y-96263412D01*
X62817246Y-96061243D01*
X62850500Y-95851287D01*
X62850500Y-95638713D01*
X62817246Y-95428757D01*
X62751557Y-95226588D01*
X62655051Y-95037184D01*
X62655049Y-95037181D01*
X62655048Y-95037179D01*
X62530109Y-94865213D01*
X62379786Y-94714890D01*
X62207820Y-94589951D01*
X62207115Y-94589591D01*
X62199054Y-94585485D01*
X62148259Y-94537512D01*
X62131463Y-94469692D01*
X62153999Y-94403556D01*
X62199054Y-94364515D01*
X62207816Y-94360051D01*
X62229789Y-94344086D01*
X62379786Y-94235109D01*
X62379788Y-94235106D01*
X62379792Y-94235104D01*
X62530104Y-94084792D01*
X62530106Y-94084788D01*
X62530109Y-94084786D01*
X62655048Y-93912820D01*
X62655047Y-93912820D01*
X62655051Y-93912816D01*
X62751557Y-93723412D01*
X62817246Y-93521243D01*
X62850500Y-93311287D01*
X62850500Y-93098713D01*
X62817246Y-92888757D01*
X62751557Y-92686588D01*
X62655051Y-92497184D01*
X62655049Y-92497181D01*
X62655048Y-92497179D01*
X62530109Y-92325213D01*
X62379786Y-92174890D01*
X62207820Y-92049951D01*
X62207115Y-92049591D01*
X62199054Y-92045485D01*
X62148259Y-91997512D01*
X62131463Y-91929692D01*
X62153999Y-91863556D01*
X62199054Y-91824515D01*
X62207816Y-91820051D01*
X62229789Y-91804086D01*
X62379786Y-91695109D01*
X62379788Y-91695106D01*
X62379792Y-91695104D01*
X62530104Y-91544792D01*
X62530106Y-91544788D01*
X62530109Y-91544786D01*
X62655048Y-91372820D01*
X62655047Y-91372820D01*
X62655051Y-91372816D01*
X62751557Y-91183412D01*
X62817246Y-90981243D01*
X62850500Y-90771287D01*
X62850500Y-90558713D01*
X62817246Y-90348757D01*
X62751557Y-90146588D01*
X62655051Y-89957184D01*
X62655049Y-89957181D01*
X62655048Y-89957179D01*
X62530109Y-89785213D01*
X62416569Y-89671673D01*
X62383084Y-89610350D01*
X62388068Y-89540658D01*
X62429940Y-89484725D01*
X62460915Y-89467810D01*
X62592331Y-89418796D01*
X62707546Y-89332546D01*
X62793796Y-89217331D01*
X62844091Y-89082483D01*
X62850500Y-89022873D01*
X62850499Y-87227128D01*
X62845299Y-87178757D01*
X62844091Y-87167516D01*
X62793797Y-87032671D01*
X62793793Y-87032664D01*
X62707547Y-86917455D01*
X62707544Y-86917452D01*
X62592335Y-86831206D01*
X62592328Y-86831202D01*
X62457482Y-86780908D01*
X62457483Y-86780908D01*
X62397883Y-86774501D01*
X62397881Y-86774500D01*
X62397873Y-86774500D01*
X62397864Y-86774500D01*
X60602129Y-86774500D01*
X60602123Y-86774501D01*
X60542516Y-86780908D01*
X60407671Y-86831202D01*
X60407664Y-86831206D01*
X60292455Y-86917452D01*
X60292452Y-86917455D01*
X60206206Y-87032664D01*
X60206202Y-87032671D01*
X60155908Y-87167517D01*
X60149501Y-87227116D01*
X60149501Y-87227123D01*
X60149500Y-87227135D01*
X57000500Y-87227135D01*
X57000500Y-74389049D01*
X74372000Y-74389049D01*
X74372000Y-74605950D01*
X74405931Y-74820183D01*
X74472955Y-75026465D01*
X74571428Y-75219728D01*
X74698920Y-75395207D01*
X74713181Y-75409468D01*
X74746666Y-75470791D01*
X74749500Y-75497149D01*
X74749500Y-79348541D01*
X74749500Y-79348543D01*
X74749499Y-79348543D01*
X74787947Y-79541829D01*
X74787950Y-79541839D01*
X74863364Y-79723907D01*
X74863371Y-79723920D01*
X74972859Y-79887780D01*
X74972860Y-79887781D01*
X74972861Y-79887782D01*
X75112218Y-80027139D01*
X75112219Y-80027139D01*
X75119286Y-80034206D01*
X75119285Y-80034206D01*
X75119288Y-80034208D01*
X77722860Y-82637781D01*
X77722861Y-82637782D01*
X77862218Y-82777139D01*
X77862219Y-82777140D01*
X78026079Y-82886628D01*
X78026092Y-82886635D01*
X78154833Y-82939961D01*
X78197744Y-82957735D01*
X78208164Y-82962051D01*
X78304812Y-82981275D01*
X78353135Y-82990887D01*
X78401458Y-83000500D01*
X78401459Y-83000500D01*
X78401460Y-83000500D01*
X78598540Y-83000500D01*
X105284218Y-83000500D01*
X105351257Y-83020185D01*
X105371899Y-83036819D01*
X108463181Y-86128101D01*
X108496666Y-86189424D01*
X108499500Y-86215782D01*
X108499500Y-109348541D01*
X108499500Y-109348543D01*
X108499499Y-109348543D01*
X108537947Y-109541829D01*
X108537950Y-109541839D01*
X108613364Y-109723907D01*
X108613371Y-109723920D01*
X108722859Y-109887780D01*
X108722860Y-109887781D01*
X108722861Y-109887782D01*
X108862218Y-110027139D01*
X108862219Y-110027139D01*
X108869286Y-110034206D01*
X108869285Y-110034206D01*
X108869289Y-110034209D01*
X111862216Y-113027138D01*
X111865273Y-113029647D01*
X111866443Y-113031365D01*
X111866526Y-113031448D01*
X111866510Y-113031463D01*
X111904607Y-113087393D01*
X111906478Y-113157238D01*
X111870290Y-113217006D01*
X111807534Y-113247722D01*
X111786608Y-113249500D01*
X110965783Y-113249500D01*
X110898744Y-113229815D01*
X110878102Y-113213181D01*
X108036819Y-110371898D01*
X108003334Y-110310575D01*
X108000500Y-110284217D01*
X108000500Y-99354675D01*
X108000501Y-99354654D01*
X108000501Y-99151457D01*
X108000500Y-99151455D01*
X107968945Y-98992820D01*
X107962052Y-98958165D01*
X107886632Y-98776086D01*
X107886631Y-98776085D01*
X107886628Y-98776079D01*
X107777140Y-98612219D01*
X107777137Y-98612215D01*
X105534209Y-96369289D01*
X105534206Y-96369285D01*
X105534206Y-96369286D01*
X105527139Y-96362219D01*
X105527139Y-96362218D01*
X105387782Y-96222861D01*
X105387781Y-96222860D01*
X105387780Y-96222859D01*
X105223920Y-96113371D01*
X105223911Y-96113366D01*
X105151315Y-96083296D01*
X105095165Y-96060038D01*
X105041836Y-96037949D01*
X105041832Y-96037948D01*
X105041828Y-96037946D01*
X104945188Y-96018724D01*
X104848544Y-95999500D01*
X104848541Y-95999500D01*
X79215783Y-95999500D01*
X79148744Y-95979815D01*
X79128102Y-95963181D01*
X76786819Y-93621898D01*
X76753334Y-93560575D01*
X76750500Y-93534217D01*
X76750500Y-90494649D01*
X76770185Y-90427610D01*
X76786819Y-90406968D01*
X76801080Y-90392707D01*
X76928571Y-90217229D01*
X77027043Y-90023968D01*
X77094069Y-89817682D01*
X77128000Y-89603451D01*
X77128000Y-89389049D01*
X97872000Y-89389049D01*
X97872000Y-89605951D01*
X97877376Y-89639896D01*
X97905931Y-89820183D01*
X97972955Y-90026465D01*
X98071428Y-90219728D01*
X98198920Y-90395207D01*
X98352292Y-90548579D01*
X98527771Y-90676071D01*
X98721034Y-90774544D01*
X98824175Y-90808056D01*
X98927318Y-90841569D01*
X99141549Y-90875500D01*
X99141550Y-90875500D01*
X99358450Y-90875500D01*
X99358451Y-90875500D01*
X99572682Y-90841569D01*
X99771528Y-90776960D01*
X99778965Y-90774544D01*
X99778965Y-90774543D01*
X99778968Y-90774543D01*
X99972229Y-90676071D01*
X100147707Y-90548580D01*
X100301080Y-90395207D01*
X100428571Y-90219729D01*
X100527043Y-90026468D01*
X100594069Y-89820182D01*
X100628000Y-89605951D01*
X100628000Y-89389049D01*
X100594069Y-89174818D01*
X100544703Y-89022883D01*
X100527044Y-88968534D01*
X100428571Y-88775271D01*
X100302896Y-88602293D01*
X100301080Y-88599793D01*
X100147707Y-88446420D01*
X99972229Y-88318929D01*
X99972230Y-88318929D01*
X99972228Y-88318928D01*
X99778965Y-88220455D01*
X99572683Y-88153431D01*
X99465566Y-88136465D01*
X99358451Y-88119500D01*
X99141549Y-88119500D01*
X99125765Y-88122000D01*
X98927316Y-88153431D01*
X98721034Y-88220455D01*
X98527771Y-88318928D01*
X98352292Y-88446420D01*
X98198920Y-88599792D01*
X98071428Y-88775271D01*
X97972955Y-88968534D01*
X97905931Y-89174816D01*
X97880949Y-89332546D01*
X97872000Y-89389049D01*
X77128000Y-89389049D01*
X77128000Y-89386549D01*
X77094069Y-89172318D01*
X77060556Y-89069175D01*
X77027044Y-88966034D01*
X76928571Y-88772771D01*
X76801080Y-88597293D01*
X76647707Y-88443920D01*
X76472229Y-88316429D01*
X76472230Y-88316429D01*
X76472228Y-88316428D01*
X76278965Y-88217955D01*
X76072683Y-88150931D01*
X75965566Y-88133965D01*
X75858451Y-88117000D01*
X75641549Y-88117000D01*
X75570138Y-88128310D01*
X75427316Y-88150931D01*
X75221034Y-88217955D01*
X75027771Y-88316428D01*
X74852292Y-88443920D01*
X74698920Y-88597292D01*
X74571428Y-88772771D01*
X74472955Y-88966034D01*
X74405931Y-89172316D01*
X74380554Y-89332544D01*
X74372000Y-89386549D01*
X74372000Y-89603451D01*
X74377772Y-89639896D01*
X74405931Y-89817683D01*
X74472955Y-90023965D01*
X74571428Y-90217228D01*
X74698920Y-90392707D01*
X74713181Y-90406968D01*
X74746666Y-90468291D01*
X74749500Y-90494649D01*
X74749500Y-94098541D01*
X74749500Y-94098543D01*
X74749499Y-94098543D01*
X74787947Y-94291829D01*
X74787950Y-94291839D01*
X74863364Y-94473907D01*
X74863371Y-94473920D01*
X74972859Y-94637780D01*
X74972860Y-94637781D01*
X74972861Y-94637782D01*
X75112218Y-94777139D01*
X75112219Y-94777139D01*
X75119286Y-94784206D01*
X75119285Y-94784206D01*
X75119289Y-94784209D01*
X78112215Y-97777137D01*
X78112219Y-97777140D01*
X78276079Y-97886628D01*
X78276085Y-97886631D01*
X78276086Y-97886632D01*
X78458165Y-97962052D01*
X78614584Y-97993165D01*
X78639167Y-97998055D01*
X78651458Y-98000500D01*
X78651459Y-98000500D01*
X78651460Y-98000500D01*
X78848541Y-98000500D01*
X104284218Y-98000500D01*
X104351257Y-98020185D01*
X104371899Y-98036819D01*
X105963181Y-99628101D01*
X105996666Y-99689424D01*
X105999500Y-99715782D01*
X105999500Y-110848541D01*
X105999500Y-110848543D01*
X105999499Y-110848543D01*
X106037947Y-111041829D01*
X106037950Y-111041839D01*
X106113364Y-111223907D01*
X106113371Y-111223920D01*
X106222859Y-111387780D01*
X106222860Y-111387781D01*
X106222861Y-111387782D01*
X106362218Y-111527139D01*
X106362219Y-111527139D01*
X106369286Y-111534206D01*
X106369285Y-111534206D01*
X106369288Y-111534208D01*
X109722860Y-114887781D01*
X109722861Y-114887782D01*
X109862218Y-115027139D01*
X109866194Y-115029795D01*
X109873884Y-115037415D01*
X109888076Y-115063123D01*
X109904608Y-115087395D01*
X109904767Y-115093359D01*
X109907651Y-115098583D01*
X109905691Y-115127880D01*
X109906477Y-115157239D01*
X109903386Y-115162343D01*
X109902988Y-115168297D01*
X109885499Y-115191885D01*
X109870289Y-115217007D01*
X109864929Y-115219630D01*
X109861376Y-115224423D01*
X109833908Y-115234812D01*
X109807532Y-115247722D01*
X109797532Y-115248571D01*
X109796025Y-115249142D01*
X109794539Y-115248826D01*
X109786608Y-115249500D01*
X109215783Y-115249500D01*
X109148744Y-115229815D01*
X109128102Y-115213181D01*
X105284209Y-111369289D01*
X105284206Y-111369285D01*
X105284206Y-111369286D01*
X105277139Y-111362219D01*
X105277139Y-111362218D01*
X105137782Y-111222861D01*
X105137781Y-111222860D01*
X105137780Y-111222859D01*
X104973920Y-111113371D01*
X104973911Y-111113366D01*
X104901315Y-111083296D01*
X104845165Y-111060038D01*
X104791836Y-111037949D01*
X104791832Y-111037948D01*
X104791828Y-111037946D01*
X104695188Y-111018724D01*
X104598544Y-110999500D01*
X104598541Y-110999500D01*
X79465782Y-110999500D01*
X79398743Y-110979815D01*
X79378101Y-110963181D01*
X76786819Y-108371899D01*
X76753334Y-108310576D01*
X76750500Y-108284218D01*
X76750500Y-105494649D01*
X76770185Y-105427610D01*
X76786819Y-105406968D01*
X76801080Y-105392707D01*
X76928571Y-105217229D01*
X77027043Y-105023968D01*
X77094069Y-104817682D01*
X77128000Y-104603451D01*
X77128000Y-104389049D01*
X97872000Y-104389049D01*
X97872000Y-104605950D01*
X97905931Y-104820183D01*
X97972955Y-105026465D01*
X98071428Y-105219728D01*
X98073245Y-105222229D01*
X98198920Y-105395207D01*
X98352293Y-105548580D01*
X98414479Y-105593760D01*
X98527771Y-105676071D01*
X98721034Y-105774544D01*
X98824175Y-105808056D01*
X98927318Y-105841569D01*
X99141549Y-105875500D01*
X99141550Y-105875500D01*
X99358450Y-105875500D01*
X99358451Y-105875500D01*
X99572682Y-105841569D01*
X99778968Y-105774543D01*
X99972229Y-105676071D01*
X100147707Y-105548580D01*
X100301080Y-105395207D01*
X100428571Y-105219729D01*
X100527043Y-105026468D01*
X100594069Y-104820182D01*
X100628000Y-104605951D01*
X100628000Y-104389049D01*
X100594069Y-104174818D01*
X100527856Y-103971034D01*
X100527044Y-103968534D01*
X100428571Y-103775271D01*
X100302896Y-103602293D01*
X100301080Y-103599793D01*
X100147707Y-103446420D01*
X99972229Y-103318929D01*
X99972230Y-103318929D01*
X99972228Y-103318928D01*
X99778965Y-103220455D01*
X99572683Y-103153431D01*
X99465566Y-103136465D01*
X99358451Y-103119500D01*
X99141549Y-103119500D01*
X99125765Y-103122000D01*
X98927316Y-103153431D01*
X98721034Y-103220455D01*
X98527771Y-103318928D01*
X98352292Y-103446420D01*
X98198920Y-103599792D01*
X98071428Y-103775271D01*
X97972955Y-103968534D01*
X97905931Y-104174816D01*
X97872000Y-104389049D01*
X77128000Y-104389049D01*
X77128000Y-104386549D01*
X77094069Y-104172318D01*
X77060556Y-104069175D01*
X77027044Y-103966034D01*
X76928571Y-103772771D01*
X76862070Y-103681239D01*
X76801080Y-103597293D01*
X76647707Y-103443920D01*
X76472229Y-103316429D01*
X76472230Y-103316429D01*
X76472228Y-103316428D01*
X76278965Y-103217955D01*
X76072683Y-103150931D01*
X75965566Y-103133965D01*
X75858451Y-103117000D01*
X75641549Y-103117000D01*
X75570138Y-103128310D01*
X75427316Y-103150931D01*
X75221034Y-103217955D01*
X75027771Y-103316428D01*
X74852292Y-103443920D01*
X74698920Y-103597292D01*
X74571428Y-103772771D01*
X74472955Y-103966034D01*
X74405931Y-104172316D01*
X74372000Y-104386549D01*
X74372000Y-104603450D01*
X74405931Y-104817683D01*
X74472955Y-105023965D01*
X74571428Y-105217228D01*
X74698920Y-105392707D01*
X74713181Y-105406968D01*
X74746666Y-105468291D01*
X74749500Y-105494649D01*
X74749500Y-108848541D01*
X74749500Y-108848543D01*
X74749499Y-108848543D01*
X74787947Y-109041829D01*
X74787950Y-109041839D01*
X74863364Y-109223907D01*
X74863371Y-109223920D01*
X74972860Y-109387781D01*
X74972863Y-109387785D01*
X75116537Y-109531459D01*
X75116559Y-109531479D01*
X78219735Y-112634655D01*
X78219764Y-112634686D01*
X78362214Y-112777136D01*
X78362218Y-112777139D01*
X78526079Y-112886628D01*
X78526092Y-112886635D01*
X78654833Y-112939961D01*
X78697744Y-112957735D01*
X78708164Y-112962051D01*
X78804812Y-112981275D01*
X78853135Y-112990887D01*
X78901458Y-113000500D01*
X78901459Y-113000500D01*
X78901460Y-113000500D01*
X79098540Y-113000500D01*
X104034218Y-113000500D01*
X104101257Y-113020185D01*
X104121899Y-113036819D01*
X108112215Y-117027137D01*
X108112219Y-117027140D01*
X108276079Y-117136628D01*
X108276085Y-117136631D01*
X108276086Y-117136632D01*
X108458165Y-117212052D01*
X108619389Y-117244121D01*
X108651457Y-117250499D01*
X108651458Y-117250500D01*
X108651459Y-117250500D01*
X108651460Y-117250500D01*
X108848541Y-117250500D01*
X112534218Y-117250500D01*
X112601257Y-117270185D01*
X112621899Y-117286819D01*
X113267899Y-117932819D01*
X113301384Y-117994142D01*
X113296400Y-118063834D01*
X113254528Y-118119767D01*
X113189064Y-118144184D01*
X113180218Y-118144500D01*
X111572129Y-118144500D01*
X111572123Y-118144501D01*
X111512516Y-118150908D01*
X111377671Y-118201202D01*
X111377664Y-118201206D01*
X111262455Y-118287452D01*
X111262452Y-118287455D01*
X111176206Y-118402664D01*
X111176202Y-118402671D01*
X111125908Y-118537517D01*
X111119501Y-118597116D01*
X111119500Y-118597135D01*
X111119500Y-120392870D01*
X111119501Y-120392876D01*
X111125908Y-120452483D01*
X111176202Y-120587328D01*
X111176206Y-120587335D01*
X111262452Y-120702544D01*
X111262455Y-120702547D01*
X111377665Y-120788794D01*
X111377667Y-120788794D01*
X111377669Y-120788796D01*
X111388830Y-120792958D01*
X111444764Y-120834826D01*
X111469184Y-120900289D01*
X111469500Y-120909141D01*
X111469500Y-121564217D01*
X111449815Y-121631256D01*
X111433181Y-121651898D01*
X109121899Y-123963181D01*
X109060576Y-123996666D01*
X109034218Y-123999500D01*
X88465782Y-123999500D01*
X88398743Y-123979815D01*
X88378101Y-123963181D01*
X83801469Y-119386549D01*
X97872000Y-119386549D01*
X97872000Y-119603450D01*
X97905931Y-119817683D01*
X97972955Y-120023965D01*
X98071428Y-120217228D01*
X98073245Y-120219729D01*
X98198920Y-120392707D01*
X98352293Y-120546080D01*
X98527771Y-120673571D01*
X98716127Y-120769544D01*
X98721034Y-120772044D01*
X98785399Y-120792957D01*
X98927318Y-120839069D01*
X99141549Y-120873000D01*
X99141550Y-120873000D01*
X99358450Y-120873000D01*
X99358451Y-120873000D01*
X99572682Y-120839069D01*
X99778968Y-120772043D01*
X99972229Y-120673571D01*
X100147707Y-120546080D01*
X100301080Y-120392707D01*
X100428571Y-120217229D01*
X100527043Y-120023968D01*
X100594069Y-119817682D01*
X100628000Y-119603451D01*
X100628000Y-119386549D01*
X100594069Y-119172318D01*
X100560556Y-119069175D01*
X100527044Y-118966034D01*
X100428571Y-118772771D01*
X100326555Y-118632357D01*
X100301080Y-118597293D01*
X100147707Y-118443920D01*
X100090929Y-118402669D01*
X99972228Y-118316428D01*
X99778965Y-118217955D01*
X99572683Y-118150931D01*
X99465566Y-118133965D01*
X99358451Y-118117000D01*
X99141549Y-118117000D01*
X99070138Y-118128310D01*
X98927316Y-118150931D01*
X98721034Y-118217955D01*
X98527771Y-118316428D01*
X98352292Y-118443920D01*
X98198920Y-118597292D01*
X98071428Y-118772771D01*
X97972955Y-118966034D01*
X97905931Y-119172316D01*
X97872000Y-119386549D01*
X83801469Y-119386549D01*
X83273979Y-118859059D01*
X83273959Y-118859037D01*
X83130285Y-118715363D01*
X83130281Y-118715360D01*
X82966420Y-118605871D01*
X82966407Y-118605864D01*
X82800024Y-118536947D01*
X82800021Y-118536946D01*
X82790371Y-118532949D01*
X82784336Y-118530449D01*
X82687688Y-118511224D01*
X82685950Y-118510878D01*
X82685940Y-118510876D01*
X82591044Y-118492000D01*
X82591041Y-118492000D01*
X76749649Y-118492000D01*
X76682610Y-118472315D01*
X76661968Y-118455681D01*
X76647707Y-118441420D01*
X76472228Y-118313928D01*
X76278965Y-118215455D01*
X76072683Y-118148431D01*
X75891705Y-118119767D01*
X75858451Y-118114500D01*
X75641549Y-118114500D01*
X75608295Y-118119767D01*
X75427316Y-118148431D01*
X75221034Y-118215455D01*
X75027771Y-118313928D01*
X74852292Y-118441420D01*
X74698920Y-118594792D01*
X74571428Y-118770271D01*
X74472955Y-118963534D01*
X74405931Y-119169816D01*
X74372000Y-119384049D01*
X74372000Y-119600950D01*
X74405931Y-119815183D01*
X74472955Y-120021465D01*
X74571428Y-120214728D01*
X74698920Y-120390207D01*
X74852292Y-120543579D01*
X75027771Y-120671071D01*
X75221034Y-120769544D01*
X75324175Y-120803056D01*
X75427318Y-120836569D01*
X75641549Y-120870500D01*
X75641550Y-120870500D01*
X75858450Y-120870500D01*
X75858451Y-120870500D01*
X76072682Y-120836569D01*
X76278968Y-120769543D01*
X76472229Y-120671071D01*
X76647707Y-120543580D01*
X76661968Y-120529319D01*
X76723291Y-120495834D01*
X76749649Y-120493000D01*
X82026718Y-120493000D01*
X82093757Y-120512685D01*
X82114399Y-120529319D01*
X87219735Y-125634655D01*
X87219764Y-125634686D01*
X87362214Y-125777136D01*
X87362218Y-125777139D01*
X87526079Y-125886628D01*
X87526092Y-125886635D01*
X87654833Y-125939961D01*
X87697744Y-125957735D01*
X87708164Y-125962051D01*
X87804812Y-125981275D01*
X87853135Y-125990887D01*
X87901458Y-126000500D01*
X87901459Y-126000500D01*
X109598542Y-126000500D01*
X109629566Y-125994328D01*
X109695188Y-125981275D01*
X109791836Y-125962051D01*
X109845165Y-125939961D01*
X109973914Y-125886632D01*
X110137782Y-125777139D01*
X110277139Y-125637782D01*
X110277139Y-125637780D01*
X110287347Y-125627573D01*
X110287348Y-125627570D01*
X113247139Y-122667782D01*
X113356632Y-122503914D01*
X113432051Y-122321835D01*
X113470500Y-122128541D01*
X113470500Y-120909141D01*
X113490185Y-120842102D01*
X113542989Y-120796347D01*
X113551149Y-120792966D01*
X113562331Y-120788796D01*
X113677546Y-120702546D01*
X113763796Y-120587331D01*
X113812810Y-120455916D01*
X113854681Y-120399984D01*
X113920145Y-120375566D01*
X113988418Y-120390417D01*
X114016673Y-120411569D01*
X114130213Y-120525109D01*
X114302179Y-120650048D01*
X114302181Y-120650049D01*
X114302184Y-120650051D01*
X114491588Y-120746557D01*
X114693757Y-120812246D01*
X114903713Y-120845500D01*
X114903714Y-120845500D01*
X115116286Y-120845500D01*
X115116287Y-120845500D01*
X115326243Y-120812246D01*
X115528412Y-120746557D01*
X115717816Y-120650051D01*
X115804138Y-120587335D01*
X115889786Y-120525109D01*
X115889788Y-120525106D01*
X115889792Y-120525104D01*
X116040104Y-120374792D01*
X116040106Y-120374788D01*
X116040109Y-120374786D01*
X116165048Y-120202820D01*
X116165047Y-120202820D01*
X116165051Y-120202816D01*
X116169514Y-120194054D01*
X116217488Y-120143259D01*
X116285308Y-120126463D01*
X116351444Y-120148999D01*
X116390486Y-120194056D01*
X116394951Y-120202820D01*
X116519890Y-120374786D01*
X116670213Y-120525109D01*
X116842179Y-120650048D01*
X116842181Y-120650049D01*
X116842184Y-120650051D01*
X117031588Y-120746557D01*
X117233757Y-120812246D01*
X117443713Y-120845500D01*
X117443714Y-120845500D01*
X117656286Y-120845500D01*
X117656287Y-120845500D01*
X117866243Y-120812246D01*
X118068412Y-120746557D01*
X118257816Y-120650051D01*
X118344138Y-120587335D01*
X118429786Y-120525109D01*
X118429788Y-120525106D01*
X118429792Y-120525104D01*
X118580104Y-120374792D01*
X118580106Y-120374788D01*
X118580109Y-120374786D01*
X118705048Y-120202820D01*
X118705047Y-120202820D01*
X118705051Y-120202816D01*
X118709514Y-120194054D01*
X118757488Y-120143259D01*
X118825308Y-120126463D01*
X118891444Y-120148999D01*
X118930486Y-120194056D01*
X118934951Y-120202820D01*
X119059890Y-120374786D01*
X119210213Y-120525109D01*
X119382179Y-120650048D01*
X119382181Y-120650049D01*
X119382184Y-120650051D01*
X119571588Y-120746557D01*
X119773757Y-120812246D01*
X119983713Y-120845500D01*
X119983714Y-120845500D01*
X120196286Y-120845500D01*
X120196287Y-120845500D01*
X120406243Y-120812246D01*
X120608412Y-120746557D01*
X120797816Y-120650051D01*
X120884138Y-120587335D01*
X120969786Y-120525109D01*
X120969788Y-120525106D01*
X120969792Y-120525104D01*
X121120104Y-120374792D01*
X121120106Y-120374788D01*
X121120109Y-120374786D01*
X121245048Y-120202820D01*
X121245047Y-120202820D01*
X121245051Y-120202816D01*
X121249514Y-120194054D01*
X121297488Y-120143259D01*
X121365308Y-120126463D01*
X121431444Y-120148999D01*
X121470486Y-120194056D01*
X121474951Y-120202820D01*
X121599890Y-120374786D01*
X121750213Y-120525109D01*
X121922179Y-120650048D01*
X121922181Y-120650049D01*
X121922184Y-120650051D01*
X122111588Y-120746557D01*
X122313757Y-120812246D01*
X122523713Y-120845500D01*
X122523714Y-120845500D01*
X122736286Y-120845500D01*
X122736287Y-120845500D01*
X122946243Y-120812246D01*
X123148412Y-120746557D01*
X123337816Y-120650051D01*
X123424138Y-120587335D01*
X123509786Y-120525109D01*
X123509788Y-120525106D01*
X123509792Y-120525104D01*
X123660104Y-120374792D01*
X123660106Y-120374788D01*
X123660109Y-120374786D01*
X123785048Y-120202820D01*
X123785047Y-120202820D01*
X123785051Y-120202816D01*
X123789514Y-120194054D01*
X123837488Y-120143259D01*
X123905308Y-120126463D01*
X123971444Y-120148999D01*
X124010486Y-120194056D01*
X124014951Y-120202820D01*
X124139890Y-120374786D01*
X124290213Y-120525109D01*
X124462179Y-120650048D01*
X124462181Y-120650049D01*
X124462184Y-120650051D01*
X124651588Y-120746557D01*
X124853757Y-120812246D01*
X125063713Y-120845500D01*
X125063714Y-120845500D01*
X125276286Y-120845500D01*
X125276287Y-120845500D01*
X125486243Y-120812246D01*
X125688412Y-120746557D01*
X125877816Y-120650051D01*
X125964138Y-120587335D01*
X126049786Y-120525109D01*
X126049788Y-120525106D01*
X126049792Y-120525104D01*
X126200104Y-120374792D01*
X126200106Y-120374788D01*
X126200109Y-120374786D01*
X126325048Y-120202820D01*
X126325047Y-120202820D01*
X126325051Y-120202816D01*
X126329514Y-120194054D01*
X126377488Y-120143259D01*
X126445308Y-120126463D01*
X126511444Y-120148999D01*
X126550486Y-120194056D01*
X126554951Y-120202820D01*
X126679890Y-120374786D01*
X126830213Y-120525109D01*
X127002179Y-120650048D01*
X127002181Y-120650049D01*
X127002184Y-120650051D01*
X127191588Y-120746557D01*
X127393757Y-120812246D01*
X127603713Y-120845500D01*
X127603714Y-120845500D01*
X127816286Y-120845500D01*
X127816287Y-120845500D01*
X128026243Y-120812246D01*
X128228412Y-120746557D01*
X128417816Y-120650051D01*
X128504138Y-120587335D01*
X128589786Y-120525109D01*
X128589788Y-120525106D01*
X128589792Y-120525104D01*
X128740104Y-120374792D01*
X128740106Y-120374788D01*
X128740109Y-120374786D01*
X128865048Y-120202820D01*
X128865047Y-120202820D01*
X128865051Y-120202816D01*
X128869514Y-120194054D01*
X128917488Y-120143259D01*
X128985308Y-120126463D01*
X129051444Y-120148999D01*
X129090486Y-120194056D01*
X129094951Y-120202820D01*
X129219890Y-120374786D01*
X129370213Y-120525109D01*
X129542179Y-120650048D01*
X129542181Y-120650049D01*
X129542184Y-120650051D01*
X129731588Y-120746557D01*
X129933757Y-120812246D01*
X130143713Y-120845500D01*
X130143714Y-120845500D01*
X130356286Y-120845500D01*
X130356287Y-120845500D01*
X130566243Y-120812246D01*
X130768412Y-120746557D01*
X130957816Y-120650051D01*
X131044138Y-120587335D01*
X131129786Y-120525109D01*
X131129788Y-120525106D01*
X131129792Y-120525104D01*
X131280104Y-120374792D01*
X131280106Y-120374788D01*
X131280109Y-120374786D01*
X131405048Y-120202820D01*
X131405047Y-120202820D01*
X131405051Y-120202816D01*
X131501557Y-120013412D01*
X131567246Y-119811243D01*
X131600500Y-119601287D01*
X131600500Y-119388713D01*
X131600157Y-119386549D01*
X142122000Y-119386549D01*
X142122000Y-119603450D01*
X142155931Y-119817683D01*
X142222955Y-120023965D01*
X142321428Y-120217228D01*
X142323245Y-120219729D01*
X142448920Y-120392707D01*
X142602293Y-120546080D01*
X142777771Y-120673571D01*
X142966127Y-120769544D01*
X142971034Y-120772044D01*
X143035399Y-120792957D01*
X143177318Y-120839069D01*
X143391549Y-120873000D01*
X143391550Y-120873000D01*
X143608450Y-120873000D01*
X143608451Y-120873000D01*
X143822682Y-120839069D01*
X144028968Y-120772043D01*
X144222229Y-120673571D01*
X144397707Y-120546080D01*
X144551080Y-120392707D01*
X144678571Y-120217229D01*
X144777043Y-120023968D01*
X144844069Y-119817682D01*
X144878000Y-119603451D01*
X144878000Y-119389049D01*
X165622000Y-119389049D01*
X165622000Y-119605950D01*
X165655931Y-119820183D01*
X165722955Y-120026465D01*
X165820154Y-120217228D01*
X165821429Y-120219729D01*
X165948920Y-120395207D01*
X166102293Y-120548580D01*
X166277771Y-120676071D01*
X166466127Y-120772044D01*
X166471034Y-120774544D01*
X166538138Y-120796347D01*
X166677318Y-120841569D01*
X166891549Y-120875500D01*
X166891550Y-120875500D01*
X167108450Y-120875500D01*
X167108451Y-120875500D01*
X167322682Y-120841569D01*
X167528968Y-120774543D01*
X167722229Y-120676071D01*
X167897707Y-120548580D01*
X168051080Y-120395207D01*
X168178571Y-120219729D01*
X168277043Y-120026468D01*
X168344069Y-119820182D01*
X168378000Y-119605951D01*
X168378000Y-119389049D01*
X168344069Y-119174818D01*
X168277043Y-118968532D01*
X168178571Y-118775271D01*
X168051080Y-118599793D01*
X167897707Y-118446420D01*
X167837488Y-118402669D01*
X167722228Y-118318928D01*
X167528965Y-118220455D01*
X167322683Y-118153431D01*
X167215566Y-118136465D01*
X167108451Y-118119500D01*
X166891549Y-118119500D01*
X166820138Y-118130810D01*
X166677316Y-118153431D01*
X166471034Y-118220455D01*
X166277771Y-118318928D01*
X166102292Y-118446420D01*
X165948920Y-118599792D01*
X165821428Y-118775271D01*
X165722955Y-118968534D01*
X165655931Y-119174816D01*
X165622000Y-119389049D01*
X144878000Y-119389049D01*
X144878000Y-119386549D01*
X144844069Y-119172318D01*
X144810556Y-119069175D01*
X144777044Y-118966034D01*
X144678571Y-118772771D01*
X144576555Y-118632357D01*
X144551080Y-118597293D01*
X144397707Y-118443920D01*
X144340929Y-118402669D01*
X144222228Y-118316428D01*
X144028965Y-118217955D01*
X143822683Y-118150931D01*
X143715566Y-118133965D01*
X143608451Y-118117000D01*
X143391549Y-118117000D01*
X143320138Y-118128310D01*
X143177316Y-118150931D01*
X142971034Y-118217955D01*
X142777771Y-118316428D01*
X142602292Y-118443920D01*
X142448920Y-118597292D01*
X142321428Y-118772771D01*
X142222955Y-118966034D01*
X142155931Y-119172316D01*
X142122000Y-119386549D01*
X131600157Y-119386549D01*
X131567246Y-119178757D01*
X131501557Y-118976588D01*
X131405051Y-118787184D01*
X131405049Y-118787181D01*
X131405048Y-118787179D01*
X131280109Y-118615213D01*
X131129786Y-118464890D01*
X130957820Y-118339951D01*
X130768414Y-118243444D01*
X130768413Y-118243443D01*
X130768412Y-118243443D01*
X130566243Y-118177754D01*
X130566241Y-118177753D01*
X130566240Y-118177753D01*
X130396890Y-118150931D01*
X130356287Y-118144500D01*
X130143713Y-118144500D01*
X130103110Y-118150931D01*
X129933760Y-118177753D01*
X129731585Y-118243444D01*
X129542179Y-118339951D01*
X129370213Y-118464890D01*
X129219890Y-118615213D01*
X129094949Y-118787182D01*
X129090484Y-118795946D01*
X129042509Y-118846742D01*
X128974688Y-118863536D01*
X128908553Y-118840998D01*
X128869516Y-118795946D01*
X128865050Y-118787182D01*
X128740109Y-118615213D01*
X128589786Y-118464890D01*
X128417820Y-118339951D01*
X128228414Y-118243444D01*
X128228413Y-118243443D01*
X128228412Y-118243443D01*
X128026243Y-118177754D01*
X128026241Y-118177753D01*
X128026240Y-118177753D01*
X127856890Y-118150931D01*
X127816287Y-118144500D01*
X127603713Y-118144500D01*
X127563110Y-118150931D01*
X127393760Y-118177753D01*
X127191585Y-118243444D01*
X127002179Y-118339951D01*
X126830213Y-118464890D01*
X126679890Y-118615213D01*
X126554949Y-118787182D01*
X126550484Y-118795946D01*
X126502509Y-118846742D01*
X126434688Y-118863536D01*
X126368553Y-118840998D01*
X126329516Y-118795946D01*
X126325050Y-118787182D01*
X126200109Y-118615213D01*
X126049786Y-118464890D01*
X125877820Y-118339951D01*
X125688414Y-118243444D01*
X125688413Y-118243443D01*
X125688412Y-118243443D01*
X125486243Y-118177754D01*
X125486241Y-118177753D01*
X125486240Y-118177753D01*
X125316890Y-118150931D01*
X125276287Y-118144500D01*
X125063713Y-118144500D01*
X125023110Y-118150931D01*
X124853760Y-118177753D01*
X124651585Y-118243444D01*
X124462179Y-118339951D01*
X124290213Y-118464890D01*
X124139890Y-118615213D01*
X124014949Y-118787182D01*
X124010484Y-118795946D01*
X123962509Y-118846742D01*
X123894688Y-118863536D01*
X123828553Y-118840998D01*
X123789516Y-118795946D01*
X123785050Y-118787182D01*
X123660109Y-118615213D01*
X123509786Y-118464890D01*
X123337820Y-118339951D01*
X123148414Y-118243444D01*
X123148413Y-118243443D01*
X123148412Y-118243443D01*
X122946243Y-118177754D01*
X122946241Y-118177753D01*
X122946240Y-118177753D01*
X122776890Y-118150931D01*
X122736287Y-118144500D01*
X122523713Y-118144500D01*
X122483110Y-118150931D01*
X122313760Y-118177753D01*
X122111585Y-118243444D01*
X121922179Y-118339951D01*
X121750213Y-118464890D01*
X121599890Y-118615213D01*
X121474949Y-118787182D01*
X121470484Y-118795946D01*
X121422509Y-118846742D01*
X121354688Y-118863536D01*
X121288553Y-118840998D01*
X121249516Y-118795946D01*
X121245050Y-118787182D01*
X121117241Y-118611266D01*
X121118108Y-118610635D01*
X121091641Y-118551581D01*
X121090500Y-118534800D01*
X121090500Y-116241456D01*
X121052052Y-116048170D01*
X121052051Y-116048169D01*
X121052051Y-116048165D01*
X121052049Y-116048160D01*
X120976635Y-115866092D01*
X120976628Y-115866079D01*
X120867140Y-115702219D01*
X120867139Y-115702218D01*
X120727782Y-115562861D01*
X120727781Y-115562860D01*
X116784208Y-111619288D01*
X116784206Y-111619285D01*
X116784206Y-111619286D01*
X116777139Y-111612219D01*
X116777139Y-111612218D01*
X116637782Y-111472861D01*
X116637781Y-111472860D01*
X116637780Y-111472859D01*
X116473920Y-111363371D01*
X116473911Y-111363366D01*
X116401315Y-111333296D01*
X116345165Y-111310038D01*
X116291836Y-111287949D01*
X116291832Y-111287948D01*
X116291828Y-111287946D01*
X116195188Y-111268724D01*
X116098544Y-111249500D01*
X116098541Y-111249500D01*
X112965783Y-111249500D01*
X112898744Y-111229815D01*
X112878102Y-111213181D01*
X110536819Y-108871898D01*
X110503334Y-108810575D01*
X110500500Y-108784217D01*
X110500500Y-87227135D01*
X128899500Y-87227135D01*
X128899500Y-89022870D01*
X128899501Y-89022876D01*
X128905908Y-89082483D01*
X128956202Y-89217328D01*
X128956206Y-89217335D01*
X129042452Y-89332544D01*
X129042455Y-89332547D01*
X129157664Y-89418793D01*
X129157671Y-89418797D01*
X129289082Y-89467810D01*
X129345016Y-89509681D01*
X129369433Y-89575145D01*
X129354582Y-89643418D01*
X129333431Y-89671673D01*
X129219889Y-89785215D01*
X129094951Y-89957179D01*
X128998444Y-90146585D01*
X128932753Y-90348760D01*
X128909647Y-90494649D01*
X128899500Y-90558713D01*
X128899500Y-90771287D01*
X128932754Y-90981243D01*
X128934377Y-90986239D01*
X128998444Y-91183414D01*
X129094951Y-91372820D01*
X129219890Y-91544786D01*
X129370213Y-91695109D01*
X129542182Y-91820050D01*
X129550946Y-91824516D01*
X129601742Y-91872491D01*
X129618536Y-91940312D01*
X129595998Y-92006447D01*
X129550946Y-92045484D01*
X129542182Y-92049949D01*
X129370213Y-92174890D01*
X129219890Y-92325213D01*
X129094951Y-92497179D01*
X128998444Y-92686585D01*
X128932753Y-92888760D01*
X128899500Y-93098713D01*
X128899500Y-93311287D01*
X128932754Y-93521243D01*
X128934377Y-93526239D01*
X128998444Y-93723414D01*
X129094951Y-93912820D01*
X129219890Y-94084786D01*
X129370213Y-94235109D01*
X129542182Y-94360050D01*
X129550946Y-94364516D01*
X129601742Y-94412491D01*
X129618536Y-94480312D01*
X129595998Y-94546447D01*
X129550946Y-94585484D01*
X129542182Y-94589949D01*
X129370213Y-94714890D01*
X129219890Y-94865213D01*
X129094951Y-95037179D01*
X128998444Y-95226585D01*
X128932753Y-95428760D01*
X128899500Y-95638713D01*
X128899500Y-95851286D01*
X128929064Y-96037949D01*
X128932754Y-96061243D01*
X128985266Y-96222859D01*
X128998444Y-96263414D01*
X129094951Y-96452820D01*
X129219890Y-96624786D01*
X129370213Y-96775109D01*
X129542182Y-96900050D01*
X129550946Y-96904516D01*
X129601742Y-96952491D01*
X129618536Y-97020312D01*
X129595998Y-97086447D01*
X129550946Y-97125484D01*
X129542182Y-97129949D01*
X129370213Y-97254890D01*
X129219890Y-97405213D01*
X129094951Y-97577179D01*
X128998444Y-97766585D01*
X128932753Y-97968760D01*
X128921974Y-98036819D01*
X128899500Y-98178713D01*
X128899500Y-98391287D01*
X128932754Y-98601243D01*
X128989564Y-98776086D01*
X128998444Y-98803414D01*
X129094951Y-98992820D01*
X129219890Y-99164786D01*
X129370213Y-99315109D01*
X129542182Y-99440050D01*
X129550946Y-99444516D01*
X129601742Y-99492491D01*
X129618536Y-99560312D01*
X129595998Y-99626447D01*
X129550946Y-99665484D01*
X129542182Y-99669949D01*
X129370213Y-99794890D01*
X129219890Y-99945213D01*
X129094951Y-100117179D01*
X128998444Y-100306585D01*
X128932753Y-100508760D01*
X128899500Y-100718713D01*
X128899500Y-100931287D01*
X128932754Y-101141243D01*
X128934377Y-101146239D01*
X128998444Y-101343414D01*
X129094951Y-101532820D01*
X129219890Y-101704786D01*
X129370213Y-101855109D01*
X129542182Y-101980050D01*
X129550946Y-101984516D01*
X129601742Y-102032491D01*
X129618536Y-102100312D01*
X129595998Y-102166447D01*
X129550946Y-102205484D01*
X129542182Y-102209949D01*
X129370213Y-102334890D01*
X129219890Y-102485213D01*
X129094951Y-102657179D01*
X128998444Y-102846585D01*
X128932753Y-103048760D01*
X128899500Y-103258713D01*
X128899500Y-103471286D01*
X128919457Y-103597293D01*
X128932754Y-103681243D01*
X128962493Y-103772771D01*
X128998444Y-103883414D01*
X129094951Y-104072820D01*
X129219890Y-104244786D01*
X129370213Y-104395109D01*
X129542182Y-104520050D01*
X129550946Y-104524516D01*
X129601742Y-104572491D01*
X129618536Y-104640312D01*
X129595998Y-104706447D01*
X129550946Y-104745484D01*
X129542182Y-104749949D01*
X129370213Y-104874890D01*
X129219890Y-105025213D01*
X129094951Y-105197179D01*
X128998444Y-105386585D01*
X128932753Y-105588760D01*
X128903328Y-105774543D01*
X128899500Y-105798713D01*
X128899500Y-106011287D01*
X128932754Y-106221243D01*
X128934377Y-106226239D01*
X128998444Y-106423414D01*
X129094951Y-106612820D01*
X129219890Y-106784786D01*
X129370213Y-106935109D01*
X129542179Y-107060048D01*
X129542181Y-107060049D01*
X129542184Y-107060051D01*
X129731588Y-107156557D01*
X129933757Y-107222246D01*
X130143713Y-107255500D01*
X130143714Y-107255500D01*
X130356286Y-107255500D01*
X130356287Y-107255500D01*
X130566243Y-107222246D01*
X130768412Y-107156557D01*
X130957816Y-107060051D01*
X130979789Y-107044086D01*
X131129786Y-106935109D01*
X131129788Y-106935106D01*
X131129792Y-106935104D01*
X131280104Y-106784792D01*
X131280106Y-106784788D01*
X131280109Y-106784786D01*
X131405048Y-106612820D01*
X131405047Y-106612820D01*
X131405051Y-106612816D01*
X131501557Y-106423412D01*
X131567246Y-106221243D01*
X131600500Y-106011287D01*
X131600500Y-105798713D01*
X131567246Y-105588757D01*
X131501557Y-105386588D01*
X131405051Y-105197184D01*
X131405049Y-105197181D01*
X131405048Y-105197179D01*
X131280109Y-105025213D01*
X131129786Y-104874890D01*
X130957820Y-104749951D01*
X130957115Y-104749591D01*
X130949054Y-104745485D01*
X130898259Y-104697512D01*
X130881463Y-104629692D01*
X130903999Y-104563556D01*
X130949054Y-104524515D01*
X130957816Y-104520051D01*
X130979789Y-104504086D01*
X131129786Y-104395109D01*
X131129788Y-104395106D01*
X131129792Y-104395104D01*
X131135847Y-104389049D01*
X142122000Y-104389049D01*
X142122000Y-104605950D01*
X142155931Y-104820183D01*
X142222955Y-105026465D01*
X142321428Y-105219728D01*
X142323245Y-105222229D01*
X142448920Y-105395207D01*
X142602293Y-105548580D01*
X142664479Y-105593760D01*
X142777771Y-105676071D01*
X142971034Y-105774544D01*
X143074175Y-105808056D01*
X143177318Y-105841569D01*
X143391549Y-105875500D01*
X143391550Y-105875500D01*
X143608450Y-105875500D01*
X143608451Y-105875500D01*
X143822682Y-105841569D01*
X144028968Y-105774543D01*
X144222229Y-105676071D01*
X144397707Y-105548580D01*
X144551080Y-105395207D01*
X144678571Y-105219729D01*
X144777043Y-105026468D01*
X144844069Y-104820182D01*
X144878000Y-104605951D01*
X144878000Y-104391549D01*
X165622000Y-104391549D01*
X165622000Y-104608450D01*
X165655931Y-104822683D01*
X165722955Y-105028965D01*
X165820154Y-105219728D01*
X165821429Y-105222229D01*
X165948920Y-105397707D01*
X166102293Y-105551080D01*
X166277771Y-105678571D01*
X166466127Y-105774544D01*
X166471034Y-105777044D01*
X166553114Y-105803713D01*
X166677318Y-105844069D01*
X166891549Y-105878000D01*
X166891550Y-105878000D01*
X167108450Y-105878000D01*
X167108451Y-105878000D01*
X167322682Y-105844069D01*
X167528968Y-105777043D01*
X167722229Y-105678571D01*
X167897707Y-105551080D01*
X168051080Y-105397707D01*
X168178571Y-105222229D01*
X168277043Y-105028968D01*
X168344069Y-104822682D01*
X168378000Y-104608451D01*
X168378000Y-104391549D01*
X168344069Y-104177318D01*
X168277043Y-103971032D01*
X168178571Y-103777771D01*
X168051080Y-103602293D01*
X167897707Y-103448920D01*
X167722229Y-103321429D01*
X167722230Y-103321429D01*
X167722228Y-103321428D01*
X167528965Y-103222955D01*
X167322683Y-103155931D01*
X167215566Y-103138965D01*
X167108451Y-103122000D01*
X166891549Y-103122000D01*
X166820138Y-103133310D01*
X166677316Y-103155931D01*
X166471034Y-103222955D01*
X166277771Y-103321428D01*
X166102292Y-103448920D01*
X165948920Y-103602292D01*
X165821428Y-103777771D01*
X165722955Y-103971034D01*
X165655931Y-104177316D01*
X165622000Y-104391549D01*
X144878000Y-104391549D01*
X144878000Y-104389049D01*
X144844069Y-104174818D01*
X144777856Y-103971034D01*
X144777044Y-103968534D01*
X144678571Y-103775271D01*
X144552896Y-103602293D01*
X144551080Y-103599793D01*
X144397707Y-103446420D01*
X144222229Y-103318929D01*
X144222230Y-103318929D01*
X144222228Y-103318928D01*
X144028965Y-103220455D01*
X143822683Y-103153431D01*
X143715566Y-103136465D01*
X143608451Y-103119500D01*
X143391549Y-103119500D01*
X143375765Y-103122000D01*
X143177316Y-103153431D01*
X142971034Y-103220455D01*
X142777771Y-103318928D01*
X142602292Y-103446420D01*
X142448920Y-103599792D01*
X142321428Y-103775271D01*
X142222955Y-103968534D01*
X142155931Y-104174816D01*
X142122000Y-104389049D01*
X131135847Y-104389049D01*
X131280104Y-104244792D01*
X131280106Y-104244788D01*
X131280109Y-104244786D01*
X131405048Y-104072820D01*
X131405047Y-104072820D01*
X131405051Y-104072816D01*
X131501557Y-103883412D01*
X131567246Y-103681243D01*
X131600500Y-103471287D01*
X131600500Y-103258713D01*
X131567246Y-103048757D01*
X131501557Y-102846588D01*
X131405051Y-102657184D01*
X131405049Y-102657181D01*
X131405048Y-102657179D01*
X131280109Y-102485213D01*
X131129786Y-102334890D01*
X130957820Y-102209951D01*
X130957115Y-102209591D01*
X130949054Y-102205485D01*
X130898259Y-102157512D01*
X130881463Y-102089692D01*
X130903999Y-102023556D01*
X130949054Y-101984515D01*
X130957816Y-101980051D01*
X130979789Y-101964086D01*
X131129786Y-101855109D01*
X131129788Y-101855106D01*
X131129792Y-101855104D01*
X131280104Y-101704792D01*
X131280106Y-101704788D01*
X131280109Y-101704786D01*
X131405048Y-101532820D01*
X131405047Y-101532820D01*
X131405051Y-101532816D01*
X131501557Y-101343412D01*
X131567246Y-101141243D01*
X131600500Y-100931287D01*
X131600500Y-100718713D01*
X131567246Y-100508757D01*
X131501557Y-100306588D01*
X131405051Y-100117184D01*
X131405049Y-100117181D01*
X131405048Y-100117179D01*
X131280109Y-99945213D01*
X131129786Y-99794890D01*
X130957820Y-99669951D01*
X130957115Y-99669591D01*
X130949054Y-99665485D01*
X130898259Y-99617512D01*
X130881463Y-99549692D01*
X130903999Y-99483556D01*
X130949054Y-99444515D01*
X130957816Y-99440051D01*
X131083770Y-99348541D01*
X131129786Y-99315109D01*
X131129788Y-99315106D01*
X131129792Y-99315104D01*
X131280104Y-99164792D01*
X131280106Y-99164788D01*
X131280109Y-99164786D01*
X131405048Y-98992820D01*
X131405047Y-98992820D01*
X131405051Y-98992816D01*
X131501557Y-98803412D01*
X131567246Y-98601243D01*
X131600500Y-98391287D01*
X131600500Y-98178713D01*
X131567246Y-97968757D01*
X131501557Y-97766588D01*
X131405051Y-97577184D01*
X131405049Y-97577181D01*
X131405048Y-97577179D01*
X131280109Y-97405213D01*
X131129786Y-97254890D01*
X130957820Y-97129951D01*
X130957115Y-97129591D01*
X130949054Y-97125485D01*
X130898259Y-97077512D01*
X130881463Y-97009692D01*
X130903999Y-96943556D01*
X130949054Y-96904515D01*
X130957816Y-96900051D01*
X130979789Y-96884086D01*
X131129786Y-96775109D01*
X131129788Y-96775106D01*
X131129792Y-96775104D01*
X131280104Y-96624792D01*
X131280106Y-96624788D01*
X131280109Y-96624786D01*
X131405048Y-96452820D01*
X131405047Y-96452820D01*
X131405051Y-96452816D01*
X131501557Y-96263412D01*
X131567246Y-96061243D01*
X131600500Y-95851287D01*
X131600500Y-95638713D01*
X131567246Y-95428757D01*
X131501557Y-95226588D01*
X131405051Y-95037184D01*
X131405049Y-95037181D01*
X131405048Y-95037179D01*
X131280109Y-94865213D01*
X131129786Y-94714890D01*
X130957820Y-94589951D01*
X130957115Y-94589591D01*
X130949054Y-94585485D01*
X130898259Y-94537512D01*
X130881463Y-94469692D01*
X130903999Y-94403556D01*
X130949054Y-94364515D01*
X130957816Y-94360051D01*
X130979789Y-94344086D01*
X131129786Y-94235109D01*
X131129788Y-94235106D01*
X131129792Y-94235104D01*
X131280104Y-94084792D01*
X131280106Y-94084788D01*
X131280109Y-94084786D01*
X131405048Y-93912820D01*
X131405047Y-93912820D01*
X131405051Y-93912816D01*
X131501557Y-93723412D01*
X131567246Y-93521243D01*
X131600500Y-93311287D01*
X131600500Y-93098713D01*
X131567246Y-92888757D01*
X131501557Y-92686588D01*
X131405051Y-92497184D01*
X131405049Y-92497181D01*
X131405048Y-92497179D01*
X131280109Y-92325213D01*
X131129786Y-92174890D01*
X130957820Y-92049951D01*
X130957115Y-92049591D01*
X130949054Y-92045485D01*
X130898259Y-91997512D01*
X130881463Y-91929692D01*
X130903999Y-91863556D01*
X130949054Y-91824515D01*
X130957816Y-91820051D01*
X130979789Y-91804086D01*
X131129786Y-91695109D01*
X131129788Y-91695106D01*
X131129792Y-91695104D01*
X131280104Y-91544792D01*
X131280106Y-91544788D01*
X131280109Y-91544786D01*
X131405048Y-91372820D01*
X131405047Y-91372820D01*
X131405051Y-91372816D01*
X131501557Y-91183412D01*
X131567246Y-90981243D01*
X131600500Y-90771287D01*
X131600500Y-90558713D01*
X131567246Y-90348757D01*
X131501557Y-90146588D01*
X131405051Y-89957184D01*
X131405049Y-89957181D01*
X131405048Y-89957179D01*
X131280109Y-89785213D01*
X131166569Y-89671673D01*
X131133084Y-89610350D01*
X131138068Y-89540658D01*
X131179940Y-89484725D01*
X131210915Y-89467810D01*
X131342331Y-89418796D01*
X131382068Y-89389049D01*
X142122000Y-89389049D01*
X142122000Y-89605951D01*
X142127376Y-89639896D01*
X142155931Y-89820183D01*
X142222955Y-90026465D01*
X142321428Y-90219728D01*
X142448920Y-90395207D01*
X142602292Y-90548579D01*
X142777771Y-90676071D01*
X142971034Y-90774544D01*
X143074175Y-90808056D01*
X143177318Y-90841569D01*
X143391549Y-90875500D01*
X143391550Y-90875500D01*
X143608450Y-90875500D01*
X143608451Y-90875500D01*
X143822682Y-90841569D01*
X144021528Y-90776960D01*
X144028965Y-90774544D01*
X144028965Y-90774543D01*
X144028968Y-90774543D01*
X144222229Y-90676071D01*
X144397707Y-90548580D01*
X144551080Y-90395207D01*
X144678571Y-90219729D01*
X144777043Y-90026468D01*
X144844069Y-89820182D01*
X144878000Y-89605951D01*
X144878000Y-89391549D01*
X165622000Y-89391549D01*
X165622000Y-89608451D01*
X165627538Y-89643418D01*
X165655931Y-89822683D01*
X165722955Y-90028965D01*
X165820154Y-90219728D01*
X165821429Y-90222229D01*
X165948920Y-90397707D01*
X166102293Y-90551080D01*
X166277771Y-90678571D01*
X166466127Y-90774544D01*
X166471034Y-90777044D01*
X166574175Y-90810556D01*
X166677318Y-90844069D01*
X166891549Y-90878000D01*
X166891550Y-90878000D01*
X167108450Y-90878000D01*
X167108451Y-90878000D01*
X167322682Y-90844069D01*
X167528968Y-90777043D01*
X167722229Y-90678571D01*
X167897707Y-90551080D01*
X168051080Y-90397707D01*
X168178571Y-90222229D01*
X168277043Y-90028968D01*
X168344069Y-89822682D01*
X168378000Y-89608451D01*
X168378000Y-89391549D01*
X168344069Y-89177318D01*
X168277043Y-88971032D01*
X168178571Y-88777771D01*
X168051080Y-88602293D01*
X167897707Y-88448920D01*
X167722229Y-88321429D01*
X167722230Y-88321429D01*
X167722228Y-88321428D01*
X167528965Y-88222955D01*
X167322683Y-88155931D01*
X167215566Y-88138965D01*
X167108451Y-88122000D01*
X166891549Y-88122000D01*
X166820138Y-88133310D01*
X166677316Y-88155931D01*
X166471034Y-88222955D01*
X166277771Y-88321428D01*
X166102292Y-88448920D01*
X165948920Y-88602292D01*
X165821428Y-88777771D01*
X165722955Y-88971034D01*
X165655931Y-89177316D01*
X165631345Y-89332546D01*
X165622000Y-89391549D01*
X144878000Y-89391549D01*
X144878000Y-89389049D01*
X144844069Y-89174818D01*
X144794703Y-89022883D01*
X144777044Y-88968534D01*
X144678571Y-88775271D01*
X144552896Y-88602293D01*
X144551080Y-88599793D01*
X144397707Y-88446420D01*
X144222229Y-88318929D01*
X144222230Y-88318929D01*
X144222228Y-88318928D01*
X144028965Y-88220455D01*
X143822683Y-88153431D01*
X143715566Y-88136465D01*
X143608451Y-88119500D01*
X143391549Y-88119500D01*
X143375765Y-88122000D01*
X143177316Y-88153431D01*
X142971034Y-88220455D01*
X142777771Y-88318928D01*
X142602292Y-88446420D01*
X142448920Y-88599792D01*
X142321428Y-88775271D01*
X142222955Y-88968534D01*
X142155931Y-89174816D01*
X142130949Y-89332546D01*
X142122000Y-89389049D01*
X131382068Y-89389049D01*
X131457546Y-89332546D01*
X131543796Y-89217331D01*
X131594091Y-89082483D01*
X131600500Y-89022873D01*
X131600499Y-87232135D01*
X178899500Y-87232135D01*
X178899500Y-89027870D01*
X178899501Y-89027876D01*
X178905908Y-89087483D01*
X178956202Y-89222328D01*
X178956206Y-89222335D01*
X179042452Y-89337544D01*
X179042455Y-89337547D01*
X179157664Y-89423793D01*
X179157671Y-89423797D01*
X179289082Y-89472810D01*
X179345016Y-89514681D01*
X179369433Y-89580145D01*
X179354582Y-89648418D01*
X179333431Y-89676673D01*
X179219889Y-89790215D01*
X179094951Y-89962179D01*
X178998444Y-90151585D01*
X178932753Y-90353760D01*
X178914613Y-90468291D01*
X178899500Y-90563713D01*
X178899500Y-90776287D01*
X178932754Y-90986243D01*
X178996818Y-91183412D01*
X178998444Y-91188414D01*
X179094951Y-91377820D01*
X179219890Y-91549786D01*
X179370213Y-91700109D01*
X179542182Y-91825050D01*
X179550946Y-91829516D01*
X179601742Y-91877491D01*
X179618536Y-91945312D01*
X179595998Y-92011447D01*
X179550946Y-92050484D01*
X179542182Y-92054949D01*
X179370213Y-92179890D01*
X179219890Y-92330213D01*
X179094951Y-92502179D01*
X178998444Y-92691585D01*
X178932753Y-92893760D01*
X178900292Y-93098713D01*
X178899500Y-93103713D01*
X178899500Y-93316287D01*
X178932754Y-93526243D01*
X178996818Y-93723412D01*
X178998444Y-93728414D01*
X179094951Y-93917820D01*
X179219890Y-94089786D01*
X179370213Y-94240109D01*
X179542182Y-94365050D01*
X179550946Y-94369516D01*
X179601742Y-94417491D01*
X179618536Y-94485312D01*
X179595998Y-94551447D01*
X179550946Y-94590484D01*
X179542182Y-94594949D01*
X179370213Y-94719890D01*
X179219890Y-94870213D01*
X179094951Y-95042179D01*
X178998444Y-95231585D01*
X178932753Y-95433760D01*
X178899500Y-95643713D01*
X178899500Y-95856286D01*
X178928272Y-96037949D01*
X178932754Y-96066243D01*
X178996818Y-96263412D01*
X178998444Y-96268414D01*
X179094951Y-96457820D01*
X179219890Y-96629786D01*
X179370213Y-96780109D01*
X179542182Y-96905050D01*
X179550946Y-96909516D01*
X179601742Y-96957491D01*
X179618536Y-97025312D01*
X179595998Y-97091447D01*
X179550946Y-97130484D01*
X179542182Y-97134949D01*
X179370213Y-97259890D01*
X179219890Y-97410213D01*
X179094951Y-97582179D01*
X178998444Y-97771585D01*
X178932753Y-97973760D01*
X178929680Y-97993163D01*
X178899500Y-98183713D01*
X178899500Y-98396287D01*
X178932754Y-98606243D01*
X178996818Y-98803412D01*
X178998444Y-98808414D01*
X179094951Y-98997820D01*
X179219890Y-99169786D01*
X179370213Y-99320109D01*
X179542182Y-99445050D01*
X179550946Y-99449516D01*
X179601742Y-99497491D01*
X179618536Y-99565312D01*
X179595998Y-99631447D01*
X179550946Y-99670484D01*
X179542182Y-99674949D01*
X179370213Y-99799890D01*
X179219890Y-99950213D01*
X179094951Y-100122179D01*
X178998444Y-100311585D01*
X178932753Y-100513760D01*
X178900292Y-100718713D01*
X178899500Y-100723713D01*
X178899500Y-100936287D01*
X178932754Y-101146243D01*
X178996818Y-101343412D01*
X178998444Y-101348414D01*
X179094951Y-101537820D01*
X179219890Y-101709786D01*
X179370213Y-101860109D01*
X179542182Y-101985050D01*
X179550946Y-101989516D01*
X179601742Y-102037491D01*
X179618536Y-102105312D01*
X179595998Y-102171447D01*
X179550946Y-102210484D01*
X179542182Y-102214949D01*
X179370213Y-102339890D01*
X179219890Y-102490213D01*
X179094951Y-102662179D01*
X178998444Y-102851585D01*
X178932753Y-103053760D01*
X178899500Y-103263713D01*
X178899500Y-103476286D01*
X178919457Y-103602293D01*
X178932754Y-103686243D01*
X178996818Y-103883412D01*
X178998444Y-103888414D01*
X179094951Y-104077820D01*
X179219890Y-104249786D01*
X179370213Y-104400109D01*
X179542182Y-104525050D01*
X179550946Y-104529516D01*
X179601742Y-104577491D01*
X179618536Y-104645312D01*
X179595998Y-104711447D01*
X179550946Y-104750484D01*
X179542182Y-104754949D01*
X179370213Y-104879890D01*
X179219890Y-105030213D01*
X179094951Y-105202179D01*
X178998444Y-105391585D01*
X178932753Y-105593760D01*
X178904120Y-105774543D01*
X178899500Y-105803713D01*
X178899500Y-106016287D01*
X178932754Y-106226243D01*
X178996818Y-106423412D01*
X178998444Y-106428414D01*
X179094951Y-106617820D01*
X179219890Y-106789786D01*
X179370213Y-106940109D01*
X179542179Y-107065048D01*
X179542181Y-107065049D01*
X179542184Y-107065051D01*
X179731588Y-107161557D01*
X179933757Y-107227246D01*
X180143713Y-107260500D01*
X180143714Y-107260500D01*
X180356286Y-107260500D01*
X180356287Y-107260500D01*
X180566243Y-107227246D01*
X180768412Y-107161557D01*
X180957816Y-107065051D01*
X180979789Y-107049086D01*
X181129786Y-106940109D01*
X181129788Y-106940106D01*
X181129792Y-106940104D01*
X181280104Y-106789792D01*
X181280106Y-106789788D01*
X181280109Y-106789786D01*
X181405048Y-106617820D01*
X181405047Y-106617820D01*
X181405051Y-106617816D01*
X181501557Y-106428412D01*
X181567246Y-106226243D01*
X181600500Y-106016287D01*
X181600500Y-105803713D01*
X181567246Y-105593757D01*
X181501557Y-105391588D01*
X181405051Y-105202184D01*
X181405049Y-105202181D01*
X181405048Y-105202179D01*
X181280109Y-105030213D01*
X181129786Y-104879890D01*
X180957820Y-104754951D01*
X180957115Y-104754591D01*
X180949054Y-104750485D01*
X180898259Y-104702512D01*
X180881463Y-104634692D01*
X180903999Y-104568556D01*
X180949054Y-104529515D01*
X180957816Y-104525051D01*
X180979789Y-104509086D01*
X181129786Y-104400109D01*
X181129788Y-104400106D01*
X181129792Y-104400104D01*
X181280104Y-104249792D01*
X181280106Y-104249788D01*
X181280109Y-104249786D01*
X181405048Y-104077820D01*
X181405047Y-104077820D01*
X181405051Y-104077816D01*
X181501557Y-103888412D01*
X181567246Y-103686243D01*
X181600500Y-103476287D01*
X181600500Y-103263713D01*
X181567246Y-103053757D01*
X181501557Y-102851588D01*
X181405051Y-102662184D01*
X181405049Y-102662181D01*
X181405048Y-102662179D01*
X181280109Y-102490213D01*
X181129786Y-102339890D01*
X180957820Y-102214951D01*
X180957115Y-102214591D01*
X180949054Y-102210485D01*
X180898259Y-102162512D01*
X180881463Y-102094692D01*
X180903999Y-102028556D01*
X180949054Y-101989515D01*
X180957816Y-101985051D01*
X180979789Y-101969086D01*
X181129786Y-101860109D01*
X181129788Y-101860106D01*
X181129792Y-101860104D01*
X181280104Y-101709792D01*
X181280106Y-101709788D01*
X181280109Y-101709786D01*
X181405048Y-101537820D01*
X181405047Y-101537820D01*
X181405051Y-101537816D01*
X181501557Y-101348412D01*
X181567246Y-101146243D01*
X181600500Y-100936287D01*
X181600500Y-100723713D01*
X181567246Y-100513757D01*
X181501557Y-100311588D01*
X181405051Y-100122184D01*
X181405049Y-100122181D01*
X181405048Y-100122179D01*
X181280109Y-99950213D01*
X181129786Y-99799890D01*
X180957820Y-99674951D01*
X180957115Y-99674591D01*
X180949054Y-99670485D01*
X180898259Y-99622512D01*
X180881463Y-99554692D01*
X180903999Y-99488556D01*
X180949054Y-99449515D01*
X180957816Y-99445051D01*
X181090652Y-99348541D01*
X181129786Y-99320109D01*
X181129788Y-99320106D01*
X181129792Y-99320104D01*
X181280104Y-99169792D01*
X181280106Y-99169788D01*
X181280109Y-99169786D01*
X181405048Y-98997820D01*
X181405047Y-98997820D01*
X181405051Y-98997816D01*
X181501557Y-98808412D01*
X181567246Y-98606243D01*
X181600500Y-98396287D01*
X181600500Y-98183713D01*
X181567246Y-97973757D01*
X181501557Y-97771588D01*
X181405051Y-97582184D01*
X181405049Y-97582181D01*
X181405048Y-97582179D01*
X181280109Y-97410213D01*
X181129786Y-97259890D01*
X180957820Y-97134951D01*
X180957115Y-97134591D01*
X180949054Y-97130485D01*
X180898259Y-97082512D01*
X180881463Y-97014692D01*
X180903999Y-96948556D01*
X180949054Y-96909515D01*
X180957816Y-96905051D01*
X180979789Y-96889086D01*
X181129786Y-96780109D01*
X181129788Y-96780106D01*
X181129792Y-96780104D01*
X181280104Y-96629792D01*
X181280106Y-96629788D01*
X181280109Y-96629786D01*
X181405048Y-96457820D01*
X181405047Y-96457820D01*
X181405051Y-96457816D01*
X181501557Y-96268412D01*
X181567246Y-96066243D01*
X181600500Y-95856287D01*
X181600500Y-95643713D01*
X181567246Y-95433757D01*
X181501557Y-95231588D01*
X181405051Y-95042184D01*
X181405049Y-95042181D01*
X181405048Y-95042179D01*
X181280109Y-94870213D01*
X181129786Y-94719890D01*
X180957820Y-94594951D01*
X180957115Y-94594591D01*
X180949054Y-94590485D01*
X180898259Y-94542512D01*
X180881463Y-94474692D01*
X180903999Y-94408556D01*
X180949054Y-94369515D01*
X180957816Y-94365051D01*
X180979789Y-94349086D01*
X181129786Y-94240109D01*
X181129788Y-94240106D01*
X181129792Y-94240104D01*
X181280104Y-94089792D01*
X181280106Y-94089788D01*
X181280109Y-94089786D01*
X181405048Y-93917820D01*
X181405047Y-93917820D01*
X181405051Y-93917816D01*
X181501557Y-93728412D01*
X181567246Y-93526243D01*
X181600500Y-93316287D01*
X181600500Y-93103713D01*
X181567246Y-92893757D01*
X181501557Y-92691588D01*
X181405051Y-92502184D01*
X181405049Y-92502181D01*
X181405048Y-92502179D01*
X181280109Y-92330213D01*
X181129786Y-92179890D01*
X180957820Y-92054951D01*
X180957115Y-92054591D01*
X180949054Y-92050485D01*
X180898259Y-92002512D01*
X180881463Y-91934692D01*
X180903999Y-91868556D01*
X180949054Y-91829515D01*
X180957816Y-91825051D01*
X180979789Y-91809086D01*
X181129786Y-91700109D01*
X181129788Y-91700106D01*
X181129792Y-91700104D01*
X181280104Y-91549792D01*
X181280106Y-91549788D01*
X181280109Y-91549786D01*
X181405048Y-91377820D01*
X181405047Y-91377820D01*
X181405051Y-91377816D01*
X181501557Y-91188412D01*
X181567246Y-90986243D01*
X181600500Y-90776287D01*
X181600500Y-90563713D01*
X181567246Y-90353757D01*
X181501557Y-90151588D01*
X181405051Y-89962184D01*
X181405049Y-89962181D01*
X181405048Y-89962179D01*
X181280109Y-89790213D01*
X181166569Y-89676673D01*
X181133084Y-89615350D01*
X181138068Y-89545658D01*
X181179940Y-89489725D01*
X181210915Y-89472810D01*
X181342331Y-89423796D01*
X181457546Y-89337546D01*
X181543796Y-89222331D01*
X181594091Y-89087483D01*
X181600500Y-89027873D01*
X181600499Y-87232128D01*
X181594091Y-87172517D01*
X181543796Y-87037669D01*
X181543795Y-87037668D01*
X181543793Y-87037664D01*
X181457547Y-86922455D01*
X181457544Y-86922452D01*
X181342335Y-86836206D01*
X181342328Y-86836202D01*
X181207482Y-86785908D01*
X181207483Y-86785908D01*
X181147883Y-86779501D01*
X181147881Y-86779500D01*
X181147873Y-86779500D01*
X181147864Y-86779500D01*
X179352129Y-86779500D01*
X179352123Y-86779501D01*
X179292516Y-86785908D01*
X179157671Y-86836202D01*
X179157664Y-86836206D01*
X179042455Y-86922452D01*
X179042452Y-86922455D01*
X178956206Y-87037664D01*
X178956202Y-87037671D01*
X178905908Y-87172517D01*
X178899501Y-87232116D01*
X178899501Y-87232123D01*
X178899500Y-87232135D01*
X131600499Y-87232135D01*
X131600499Y-87227128D01*
X131595299Y-87178757D01*
X131594091Y-87167516D01*
X131543797Y-87032671D01*
X131543793Y-87032664D01*
X131457547Y-86917455D01*
X131457544Y-86917452D01*
X131342335Y-86831206D01*
X131342328Y-86831202D01*
X131207482Y-86780908D01*
X131207483Y-86780908D01*
X131147883Y-86774501D01*
X131147881Y-86774500D01*
X131147873Y-86774500D01*
X131147864Y-86774500D01*
X129352129Y-86774500D01*
X129352123Y-86774501D01*
X129292516Y-86780908D01*
X129157671Y-86831202D01*
X129157664Y-86831206D01*
X129042455Y-86917452D01*
X129042452Y-86917455D01*
X128956206Y-87032664D01*
X128956202Y-87032671D01*
X128905908Y-87167517D01*
X128899501Y-87227116D01*
X128899501Y-87227123D01*
X128899500Y-87227135D01*
X110500500Y-87227135D01*
X110500500Y-85651456D01*
X110462052Y-85458170D01*
X110462051Y-85458169D01*
X110462051Y-85458165D01*
X110462049Y-85458160D01*
X110386635Y-85276092D01*
X110386628Y-85276079D01*
X110277139Y-85112218D01*
X110277136Y-85112214D01*
X110134686Y-84969764D01*
X110134655Y-84969735D01*
X106531479Y-81366559D01*
X106531459Y-81366537D01*
X106387785Y-81222863D01*
X106387781Y-81222860D01*
X106223920Y-81113371D01*
X106223911Y-81113366D01*
X106151315Y-81083296D01*
X106095165Y-81060038D01*
X106041836Y-81037949D01*
X106041832Y-81037948D01*
X106041828Y-81037946D01*
X105945188Y-81018724D01*
X105848544Y-80999500D01*
X105848541Y-80999500D01*
X78965783Y-80999500D01*
X78898744Y-80979815D01*
X78878102Y-80963181D01*
X76786819Y-78871898D01*
X76753334Y-78810575D01*
X76750500Y-78784217D01*
X76750500Y-75497149D01*
X76770185Y-75430110D01*
X76786819Y-75409468D01*
X76801080Y-75395207D01*
X76928571Y-75219729D01*
X77027043Y-75026468D01*
X77094069Y-74820182D01*
X77128000Y-74605951D01*
X77128000Y-74391549D01*
X97872000Y-74391549D01*
X97872000Y-74608450D01*
X97905931Y-74822683D01*
X97972955Y-75028965D01*
X98071428Y-75222228D01*
X98198920Y-75397707D01*
X98352292Y-75551079D01*
X98527771Y-75678571D01*
X98721034Y-75777044D01*
X98824175Y-75810556D01*
X98927318Y-75844069D01*
X99141549Y-75878000D01*
X99141550Y-75878000D01*
X99358450Y-75878000D01*
X99358451Y-75878000D01*
X99572682Y-75844069D01*
X99778968Y-75777043D01*
X99972229Y-75678571D01*
X100147707Y-75551080D01*
X100301080Y-75397707D01*
X100428571Y-75222229D01*
X100527043Y-75028968D01*
X100594069Y-74822682D01*
X100628000Y-74608451D01*
X100628000Y-74391549D01*
X142122000Y-74391549D01*
X142122000Y-74608450D01*
X142155931Y-74822683D01*
X142222955Y-75028965D01*
X142321428Y-75222228D01*
X142448920Y-75397707D01*
X142602292Y-75551079D01*
X142777771Y-75678571D01*
X142971034Y-75777044D01*
X143074175Y-75810556D01*
X143177318Y-75844069D01*
X143391549Y-75878000D01*
X143391550Y-75878000D01*
X143608450Y-75878000D01*
X143608451Y-75878000D01*
X143822682Y-75844069D01*
X144028968Y-75777043D01*
X144222229Y-75678571D01*
X144397707Y-75551080D01*
X144551080Y-75397707D01*
X144678571Y-75222229D01*
X144777043Y-75028968D01*
X144844069Y-74822682D01*
X144878000Y-74608451D01*
X144878000Y-74394049D01*
X165622000Y-74394049D01*
X165622000Y-74610950D01*
X165655931Y-74825183D01*
X165722955Y-75031465D01*
X165820154Y-75222228D01*
X165821429Y-75224729D01*
X165948920Y-75400207D01*
X166102293Y-75553580D01*
X166277771Y-75681071D01*
X166466127Y-75777044D01*
X166471034Y-75779544D01*
X166574175Y-75813056D01*
X166677318Y-75846569D01*
X166891549Y-75880500D01*
X166891550Y-75880500D01*
X167108450Y-75880500D01*
X167108451Y-75880500D01*
X167322682Y-75846569D01*
X167528968Y-75779543D01*
X167722229Y-75681071D01*
X167897707Y-75553580D01*
X168051080Y-75400207D01*
X168178571Y-75224729D01*
X168277043Y-75031468D01*
X168344069Y-74825182D01*
X168378000Y-74610951D01*
X168378000Y-74394049D01*
X168344069Y-74179818D01*
X168277043Y-73973532D01*
X168178571Y-73780271D01*
X168051080Y-73604793D01*
X167897707Y-73451420D01*
X167722229Y-73323929D01*
X167722230Y-73323929D01*
X167722228Y-73323928D01*
X167528965Y-73225455D01*
X167322683Y-73158431D01*
X167215566Y-73141465D01*
X167108451Y-73124500D01*
X166891549Y-73124500D01*
X166820138Y-73135810D01*
X166677316Y-73158431D01*
X166471034Y-73225455D01*
X166277771Y-73323928D01*
X166102292Y-73451420D01*
X165948920Y-73604792D01*
X165821428Y-73780271D01*
X165722955Y-73973534D01*
X165655931Y-74179816D01*
X165622000Y-74394049D01*
X144878000Y-74394049D01*
X144878000Y-74391549D01*
X144844069Y-74177318D01*
X144777856Y-73973534D01*
X144777044Y-73971034D01*
X144678571Y-73777771D01*
X144552896Y-73604793D01*
X144551080Y-73602293D01*
X144397707Y-73448920D01*
X144222229Y-73321429D01*
X144222230Y-73321429D01*
X144222228Y-73321428D01*
X144028965Y-73222955D01*
X143822683Y-73155931D01*
X143715566Y-73138965D01*
X143608451Y-73122000D01*
X143391549Y-73122000D01*
X143375765Y-73124500D01*
X143177316Y-73155931D01*
X142971034Y-73222955D01*
X142777771Y-73321428D01*
X142602292Y-73448920D01*
X142448920Y-73602292D01*
X142321428Y-73777771D01*
X142222955Y-73971034D01*
X142155931Y-74177316D01*
X142122000Y-74391549D01*
X100628000Y-74391549D01*
X100594069Y-74177318D01*
X100527856Y-73973534D01*
X100527044Y-73971034D01*
X100428571Y-73777771D01*
X100302896Y-73604793D01*
X100301080Y-73602293D01*
X100147707Y-73448920D01*
X99972229Y-73321429D01*
X99972230Y-73321429D01*
X99972228Y-73321428D01*
X99778965Y-73222955D01*
X99572683Y-73155931D01*
X99465566Y-73138965D01*
X99358451Y-73122000D01*
X99141549Y-73122000D01*
X99125765Y-73124500D01*
X98927316Y-73155931D01*
X98721034Y-73222955D01*
X98527771Y-73321428D01*
X98352292Y-73448920D01*
X98198920Y-73602292D01*
X98071428Y-73777771D01*
X97972955Y-73971034D01*
X97905931Y-74177316D01*
X97872000Y-74391549D01*
X77128000Y-74391549D01*
X77128000Y-74389049D01*
X77094069Y-74174818D01*
X77060556Y-74071675D01*
X77027044Y-73968534D01*
X76928571Y-73775271D01*
X76801080Y-73599793D01*
X76647707Y-73446420D01*
X76472229Y-73318929D01*
X76472230Y-73318929D01*
X76472228Y-73318928D01*
X76278965Y-73220455D01*
X76072683Y-73153431D01*
X75965566Y-73136465D01*
X75858451Y-73119500D01*
X75641549Y-73119500D01*
X75570138Y-73130810D01*
X75427316Y-73153431D01*
X75221034Y-73220455D01*
X75027771Y-73318928D01*
X74852292Y-73446420D01*
X74698920Y-73599792D01*
X74571428Y-73775271D01*
X74472955Y-73968534D01*
X74405931Y-74174816D01*
X74372000Y-74389049D01*
X57000500Y-74389049D01*
X57000500Y-67624500D01*
X57020185Y-67557461D01*
X57072989Y-67511706D01*
X57124500Y-67500500D01*
X125184108Y-67500500D01*
X135184108Y-67500500D01*
X140184108Y-67500500D01*
X170184108Y-67500500D01*
X175184108Y-67500500D01*
X184625500Y-67500500D01*
X184692539Y-67520185D01*
G37*
%TD.AperFunction*%
%TD*%
M02*
