%TF.GenerationSoftware,KiCad,Pcbnew,9.0.0*%
%TF.CreationDate,2025-03-31T13:52:10-04:00*%
%TF.ProjectId,neurophy-card-full,6e657572-6f70-4687-992d-636172642d66,1*%
%TF.SameCoordinates,Original*%
%TF.FileFunction,Soldermask,Bot*%
%TF.FilePolarity,Negative*%
%FSLAX46Y46*%
G04 Gerber Fmt 4.6, Leading zero omitted, Abs format (unit mm)*
G04 Created by KiCad (PCBNEW 9.0.0) date 2025-03-31 13:52:10*
%MOMM*%
%LPD*%
G01*
G04 APERTURE LIST*
%ADD10R,1.700000X1.700000*%
%ADD11O,1.700000X1.700000*%
%ADD12C,1.755000*%
%ADD13C,2.550000*%
%ADD14C,2.050000*%
%ADD15C,2.250000*%
G04 APERTURE END LIST*
D10*
%TO.C,J20*%
X61500000Y-88125000D03*
D11*
X61500000Y-90665000D03*
X61500000Y-93205000D03*
X61500000Y-95745000D03*
X61500000Y-98285000D03*
X61500000Y-100825000D03*
X61500000Y-103365000D03*
X61500000Y-105905000D03*
%TD*%
D12*
%TO.C,J12*%
X167000000Y-89500000D03*
D13*
X169540000Y-92040000D03*
X169540000Y-86960000D03*
X164460000Y-92040000D03*
X164460000Y-86960000D03*
%TD*%
D12*
%TO.C,J8*%
X99250000Y-119495000D03*
D13*
X101790000Y-122035000D03*
X101790000Y-116955000D03*
X96710000Y-122035000D03*
X96710000Y-116955000D03*
%TD*%
D12*
%TO.C,J3*%
X75750000Y-104495000D03*
D13*
X73210000Y-101955000D03*
X73210000Y-107035000D03*
X78290000Y-101955000D03*
X78290000Y-107035000D03*
%TD*%
D12*
%TO.C,J5*%
X75750000Y-89495000D03*
D13*
X73210000Y-86955000D03*
X73210000Y-92035000D03*
X78290000Y-86955000D03*
X78290000Y-92035000D03*
%TD*%
D10*
%TO.C,J18*%
X180250000Y-88130000D03*
D11*
X180250000Y-90670000D03*
X180250000Y-93210000D03*
X180250000Y-95750000D03*
X180250000Y-98290000D03*
X180250000Y-100830000D03*
X180250000Y-103370000D03*
X180250000Y-105910000D03*
%TD*%
D12*
%TO.C,J11*%
X143500000Y-104497500D03*
D13*
X140960000Y-101957500D03*
X140960000Y-107037500D03*
X146040000Y-101957500D03*
X146040000Y-107037500D03*
%TD*%
D12*
%TO.C,J2*%
X99250000Y-74500000D03*
D13*
X101790000Y-77040000D03*
X101790000Y-71960000D03*
X96710000Y-77040000D03*
X96710000Y-71960000D03*
%TD*%
D14*
%TO.C,J21*%
X116750000Y-107000000D03*
D15*
X114210000Y-104460000D03*
X114210000Y-109540000D03*
X119290000Y-104460000D03*
X119290000Y-109540000D03*
%TD*%
D12*
%TO.C,J14*%
X167000000Y-104500000D03*
D13*
X169540000Y-107040000D03*
X169540000Y-101960000D03*
X164460000Y-107040000D03*
X164460000Y-101960000D03*
%TD*%
D12*
%TO.C,J10*%
X167000000Y-74502500D03*
D13*
X169540000Y-77042500D03*
X169540000Y-71962500D03*
X164460000Y-77042500D03*
X164460000Y-71962500D03*
%TD*%
D12*
%TO.C,J1*%
X75750000Y-119492500D03*
D13*
X73210000Y-116952500D03*
X73210000Y-122032500D03*
X78290000Y-116952500D03*
X78290000Y-122032500D03*
%TD*%
D12*
%TO.C,J6*%
X99250000Y-104497500D03*
D13*
X101790000Y-107037500D03*
X101790000Y-101957500D03*
X96710000Y-107037500D03*
X96710000Y-101957500D03*
%TD*%
D14*
%TO.C,J22*%
X116750000Y-87000000D03*
D15*
X114210000Y-84460000D03*
X114210000Y-89540000D03*
X119290000Y-84460000D03*
X119290000Y-89540000D03*
%TD*%
D12*
%TO.C,J9*%
X143500000Y-119495000D03*
D13*
X140960000Y-116955000D03*
X140960000Y-122035000D03*
X146040000Y-116955000D03*
X146040000Y-122035000D03*
%TD*%
D12*
%TO.C,J15*%
X143500000Y-74500000D03*
D13*
X140960000Y-71960000D03*
X140960000Y-77040000D03*
X146040000Y-71960000D03*
X146040000Y-77040000D03*
%TD*%
D12*
%TO.C,J16*%
X167000000Y-119497500D03*
D13*
X169540000Y-122037500D03*
X169540000Y-116957500D03*
X164460000Y-122037500D03*
X164460000Y-116957500D03*
%TD*%
D12*
%TO.C,J4*%
X99250000Y-89497500D03*
D13*
X101790000Y-92037500D03*
X101790000Y-86957500D03*
X96710000Y-92037500D03*
X96710000Y-86957500D03*
%TD*%
D12*
%TO.C,J13*%
X143500000Y-89497500D03*
D13*
X140960000Y-86957500D03*
X140960000Y-92037500D03*
X146040000Y-86957500D03*
X146040000Y-92037500D03*
%TD*%
D12*
%TO.C,J7*%
X75750000Y-74497500D03*
D13*
X73210000Y-71957500D03*
X73210000Y-77037500D03*
X78290000Y-71957500D03*
X78290000Y-77037500D03*
%TD*%
D10*
%TO.C,J17*%
X112470000Y-119495000D03*
D11*
X115010000Y-119495000D03*
X117550000Y-119495000D03*
X120090000Y-119495000D03*
X122630000Y-119495000D03*
X125170000Y-119495000D03*
X127710000Y-119495000D03*
X130250000Y-119495000D03*
%TD*%
D10*
%TO.C,J19*%
X130250000Y-88125000D03*
D11*
X130250000Y-90665000D03*
X130250000Y-93205000D03*
X130250000Y-95745000D03*
X130250000Y-98285000D03*
X130250000Y-100825000D03*
X130250000Y-103365000D03*
X130250000Y-105905000D03*
%TD*%
M02*
