M48
; DRILL file {KiCad 9.0.0} date 2025-03-31T13:52:05-0400
; FORMAT={-:-/ absolute / metric / decimal}
; #@! TF.CreationDate,2025-03-31T13:52:05-04:00
; #@! TF.GenerationSoftware,Kicad,Pcbnew,9.0.0
; #@! TF.FileFunction,Plated,1,6,PTH
FMAT,2
METRIC
; #@! TA.AperFunction,Plated,PTH,ComponentDrill
T1C1.000
; #@! TA.AperFunction,Plated,PTH,ComponentDrill
T2C1.170
; #@! TA.AperFunction,Plated,PTH,ComponentDrill
T3C1.500
; #@! TA.AperFunction,Plated,PTH,ComponentDrill
T4C1.700
%
G90
G05
T1
X61.5Y-88.125
X61.5Y-90.665
X61.5Y-93.205
X61.5Y-95.745
X61.5Y-98.285
X61.5Y-100.825
X61.5Y-103.365
X61.5Y-105.905
X112.47Y-119.495
X115.01Y-119.495
X117.55Y-119.495
X120.09Y-119.495
X122.63Y-119.495
X125.17Y-119.495
X127.71Y-119.495
X130.25Y-88.125
X130.25Y-90.665
X130.25Y-93.205
X130.25Y-95.745
X130.25Y-98.285
X130.25Y-100.825
X130.25Y-103.365
X130.25Y-105.905
X130.25Y-119.495
X180.25Y-88.13
X180.25Y-90.67
X180.25Y-93.21
X180.25Y-95.75
X180.25Y-98.29
X180.25Y-100.83
X180.25Y-103.37
X180.25Y-105.91
T2
X75.75Y-74.498
X75.75Y-89.495
X75.75Y-104.495
X75.75Y-119.492
X99.25Y-74.5
X99.25Y-89.498
X99.25Y-104.498
X99.25Y-119.495
X143.5Y-74.5
X143.5Y-89.498
X143.5Y-104.498
X143.5Y-119.495
X167.0Y-74.502
X167.0Y-89.5
X167.0Y-104.5
X167.0Y-119.497
T3
X116.75Y-87.0
X116.75Y-107.0
T4
X73.21Y-71.957
X73.21Y-77.037
X73.21Y-86.955
X73.21Y-92.035
X73.21Y-101.955
X73.21Y-107.035
X73.21Y-116.953
X73.21Y-122.032
X78.29Y-71.957
X78.29Y-77.037
X78.29Y-86.955
X78.29Y-92.035
X78.29Y-101.955
X78.29Y-107.035
X78.29Y-116.953
X78.29Y-122.032
X96.71Y-71.96
X96.71Y-77.04
X96.71Y-86.957
X96.71Y-92.037
X96.71Y-101.957
X96.71Y-107.037
X96.71Y-116.955
X96.71Y-122.035
X101.79Y-71.96
X101.79Y-77.04
X101.79Y-86.957
X101.79Y-92.037
X101.79Y-101.957
X101.79Y-107.037
X101.79Y-116.955
X101.79Y-122.035
X114.21Y-84.46
X114.21Y-89.54
X114.21Y-104.46
X114.21Y-109.54
X119.29Y-84.46
X119.29Y-89.54
X119.29Y-104.46
X119.29Y-109.54
X140.96Y-71.96
X140.96Y-77.04
X140.96Y-86.957
X140.96Y-92.037
X140.96Y-101.957
X140.96Y-107.037
X140.96Y-116.955
X140.96Y-122.035
X146.04Y-71.96
X146.04Y-77.04
X146.04Y-86.957
X146.04Y-92.037
X146.04Y-101.957
X146.04Y-107.037
X146.04Y-116.955
X146.04Y-122.035
X164.46Y-71.962
X164.46Y-77.042
X164.46Y-86.96
X164.46Y-92.04
X164.46Y-101.96
X164.46Y-107.04
X164.46Y-116.957
X164.46Y-122.037
X169.54Y-71.962
X169.54Y-77.042
X169.54Y-86.96
X169.54Y-92.04
X169.54Y-101.96
X169.54Y-107.04
X169.54Y-116.957
X169.54Y-122.037
M30
