%TF.GenerationSoftware,KiCad,Pcbnew,7.0.10*%
%TF.CreationDate,2024-09-26T18:02:22-04:00*%
%TF.ProjectId,neurophy-adaptor,6e657572-6f70-4687-992d-61646170746f,1*%
%TF.SameCoordinates,Original*%
%TF.FileFunction,Legend,Bot*%
%TF.FilePolarity,Positive*%
%FSLAX46Y46*%
G04 Gerber Fmt 4.6, Leading zero omitted, Abs format (unit mm)*
G04 Created by KiCad (PCBNEW 7.0.10) date 2024-09-26 18:02:22*
%MOMM*%
%LPD*%
G01*
G04 APERTURE LIST*
%ADD10C,0.120000*%
G04 APERTURE END LIST*
D10*
%TO.C,J2*%
X117080000Y-100985000D02*
X114420000Y-100985000D01*
X117080000Y-83145000D02*
X117080000Y-100985000D01*
X117080000Y-83145000D02*
X114420000Y-83145000D01*
X117080000Y-81875000D02*
X117080000Y-80545000D01*
X117080000Y-80545000D02*
X115750000Y-80545000D01*
X114420000Y-83145000D02*
X114420000Y-100985000D01*
%TO.C,J4*%
X164420000Y-80515000D02*
X167080000Y-80515000D01*
X164420000Y-98355000D02*
X164420000Y-80515000D01*
X164420000Y-98355000D02*
X167080000Y-98355000D01*
X164420000Y-99625000D02*
X164420000Y-100955000D01*
X164420000Y-100955000D02*
X165750000Y-100955000D01*
X167080000Y-98355000D02*
X167080000Y-80515000D01*
%TO.C,J1*%
X150985000Y-114420000D02*
X150985000Y-117080000D01*
X133145000Y-114420000D02*
X150985000Y-114420000D01*
X133145000Y-114420000D02*
X133145000Y-117080000D01*
X131875000Y-114420000D02*
X130545000Y-114420000D01*
X130545000Y-114420000D02*
X130545000Y-115750000D01*
X133145000Y-117080000D02*
X150985000Y-117080000D01*
%TO.C,J3*%
X130515000Y-67080000D02*
X130515000Y-64420000D01*
X148355000Y-67080000D02*
X130515000Y-67080000D01*
X148355000Y-67080000D02*
X148355000Y-64420000D01*
X149625000Y-67080000D02*
X150955000Y-67080000D01*
X150955000Y-67080000D02*
X150955000Y-65750000D01*
X148355000Y-64420000D02*
X130515000Y-64420000D01*
%TD*%
M02*
