M48
; DRILL file {KiCad 7.0.10} date Thursday, September 26, 2024 at 06:02:21 PM
; FORMAT={-:-/ absolute / inch / decimal}
; #@! TF.CreationDate,2024-09-26T18:02:21-04:00
; #@! TF.GenerationSoftware,Kicad,Pcbnew,7.0.10
; #@! TF.FileFunction,Plated,1,2,PTH
FMAT,2
INCH
; #@! TA.AperFunction,Plated,PTH,ViaDrill
T1C0.0157
; #@! TA.AperFunction,Plated,PTH,ComponentDrill
T2C0.0394
%
G90
G05
T1
X5.0787Y-3.376
X5.6201Y-2.9823
X5.8661Y-3.376
X6.2598Y-2.9823
X6.2598Y-3.376
X6.2598Y-3.7697
X6.2598Y-4.1634
T2
X4.5571Y-3.2234
X4.5571Y-3.3234
X4.5571Y-3.4234
X4.5571Y-3.5234
X4.5571Y-3.6234
X4.5571Y-3.7234
X4.5571Y-3.8234
X4.5571Y-3.9234
X5.1907Y-2.5886
X5.1919Y-4.5571
X5.2907Y-2.5886
X5.2919Y-4.5571
X5.3907Y-2.5886
X5.3919Y-4.5571
X5.4907Y-2.5886
X5.4919Y-4.5571
X5.5907Y-2.5886
X5.5919Y-4.5571
X5.6907Y-2.5886
X5.6919Y-4.5571
X5.7907Y-2.5886
X5.7919Y-4.5571
X5.8907Y-2.5886
X5.8919Y-4.5571
X6.5256Y-3.2222
X6.5256Y-3.3222
X6.5256Y-3.4222
X6.5256Y-3.5222
X6.5256Y-3.6222
X6.5256Y-3.7222
X6.5256Y-3.8222
X6.5256Y-3.9222
M30
