%TF.GenerationSoftware,KiCad,Pcbnew,7.0.10*%
%TF.CreationDate,2024-09-26T18:02:22-04:00*%
%TF.ProjectId,neurophy-adaptor,6e657572-6f70-4687-992d-61646170746f,1*%
%TF.SameCoordinates,Original*%
%TF.FileFunction,Copper,L2,Bot*%
%TF.FilePolarity,Positive*%
%FSLAX46Y46*%
G04 Gerber Fmt 4.6, Leading zero omitted, Abs format (unit mm)*
G04 Created by KiCad (PCBNEW 7.0.10) date 2024-09-26 18:02:22*
%MOMM*%
%LPD*%
G01*
G04 APERTURE LIST*
%TA.AperFunction,ComponentPad*%
%ADD10R,1.700000X1.700000*%
%TD*%
%TA.AperFunction,ComponentPad*%
%ADD11O,1.700000X1.700000*%
%TD*%
%TA.AperFunction,ViaPad*%
%ADD12C,0.800000*%
%TD*%
%TA.AperFunction,Conductor*%
%ADD13C,0.250000*%
%TD*%
G04 APERTURE END LIST*
D10*
%TO.P,J2,1,Pin_1*%
%TO.N,unconnected-(J2-Pin_1-Pad1)*%
X115750000Y-81875000D03*
D11*
%TO.P,J2,2,Pin_2*%
%TO.N,unconnected-(J2-Pin_2-Pad2)*%
X115750000Y-84415000D03*
%TO.P,J2,3,Pin_3*%
%TO.N,unconnected-(J2-Pin_3-Pad3)*%
X115750000Y-86955000D03*
%TO.P,J2,4,Pin_4*%
%TO.N,unconnected-(J2-Pin_4-Pad4)*%
X115750000Y-89495000D03*
%TO.P,J2,5,Pin_5*%
%TO.N,unconnected-(J2-Pin_5-Pad5)*%
X115750000Y-92035000D03*
%TO.P,J2,6,Pin_6*%
%TO.N,unconnected-(J2-Pin_6-Pad6)*%
X115750000Y-94575000D03*
%TO.P,J2,7,Pin_7*%
%TO.N,unconnected-(J2-Pin_7-Pad7)*%
X115750000Y-97115000D03*
%TO.P,J2,8,Pin_8*%
%TO.N,unconnected-(J2-Pin_8-Pad8)*%
X115750000Y-99655000D03*
%TD*%
D10*
%TO.P,J4,1,Pin_1*%
%TO.N,Net-(J4-Pin_1)*%
X165750000Y-99625000D03*
D11*
%TO.P,J4,2,Pin_2*%
%TO.N,Net-(J4-Pin_2)*%
X165750000Y-97085000D03*
%TO.P,J4,3,Pin_3*%
%TO.N,Net-(J4-Pin_3)*%
X165750000Y-94545000D03*
%TO.P,J4,4,Pin_4*%
%TO.N,Net-(J4-Pin_4)*%
X165750000Y-92005000D03*
%TO.P,J4,5,Pin_5*%
%TO.N,Net-(J4-Pin_5)*%
X165750000Y-89465000D03*
%TO.P,J4,6,Pin_6*%
%TO.N,Net-(J4-Pin_6)*%
X165750000Y-86925000D03*
%TO.P,J4,7,Pin_7*%
%TO.N,Net-(J4-Pin_7)*%
X165750000Y-84385000D03*
%TO.P,J4,8,Pin_8*%
%TO.N,Net-(J4-Pin_8)*%
X165750000Y-81845000D03*
%TD*%
D10*
%TO.P,J1,1,Pin_1*%
%TO.N,Net-(J1-Pin_1)*%
X131875000Y-115750000D03*
D11*
%TO.P,J1,2,Pin_2*%
%TO.N,Net-(J1-Pin_2)*%
X134415000Y-115750000D03*
%TO.P,J1,3,Pin_3*%
%TO.N,Net-(J1-Pin_3)*%
X136955000Y-115750000D03*
%TO.P,J1,4,Pin_4*%
%TO.N,Net-(J1-Pin_4)*%
X139495000Y-115750000D03*
%TO.P,J1,5,Pin_5*%
%TO.N,Net-(J1-Pin_5)*%
X142035000Y-115750000D03*
%TO.P,J1,6,Pin_6*%
%TO.N,Net-(J1-Pin_6)*%
X144575000Y-115750000D03*
%TO.P,J1,7,Pin_7*%
%TO.N,Net-(J1-Pin_7)*%
X147115000Y-115750000D03*
%TO.P,J1,8,Pin_8*%
%TO.N,Net-(J1-Pin_8)*%
X149655000Y-115750000D03*
%TD*%
D10*
%TO.P,J3,1,Pin_1*%
%TO.N,unconnected-(J3-Pin_1-Pad1)*%
X149625000Y-65750000D03*
D11*
%TO.P,J3,2,Pin_2*%
%TO.N,unconnected-(J3-Pin_2-Pad2)*%
X147085000Y-65750000D03*
%TO.P,J3,3,Pin_3*%
%TO.N,unconnected-(J3-Pin_3-Pad3)*%
X144545000Y-65750000D03*
%TO.P,J3,4,Pin_4*%
%TO.N,unconnected-(J3-Pin_4-Pad4)*%
X142005000Y-65750000D03*
%TO.P,J3,5,Pin_5*%
%TO.N,unconnected-(J3-Pin_5-Pad5)*%
X139465000Y-65750000D03*
%TO.P,J3,6,Pin_6*%
%TO.N,unconnected-(J3-Pin_6-Pad6)*%
X136925000Y-65750000D03*
%TO.P,J3,7,Pin_7*%
%TO.N,unconnected-(J3-Pin_7-Pad7)*%
X134385000Y-65750000D03*
%TO.P,J3,8,Pin_8*%
%TO.N,unconnected-(J3-Pin_8-Pad8)*%
X131845000Y-65750000D03*
%TD*%
D12*
%TO.N,Net-(J4-Pin_1)*%
X159000000Y-105750000D03*
%TO.N,Net-(J1-Pin_2)*%
X129000000Y-85750000D03*
%TO.N,Net-(J1-Pin_5)*%
X142750000Y-75750000D03*
%TO.N,Net-(J1-Pin_6)*%
X149000000Y-85750000D03*
%TO.N,Net-(J4-Pin_2)*%
X159000000Y-95750000D03*
%TO.N,Net-(J4-Pin_3)*%
X159000000Y-85750000D03*
%TO.N,Net-(J4-Pin_4)*%
X159000000Y-75750000D03*
%TD*%
D13*
%TO.N,Net-(J4-Pin_1)*%
X159000000Y-105750000D02*
X160750000Y-105750000D01*
X164125000Y-99625000D02*
X165750000Y-99625000D01*
X162500000Y-101250000D02*
X164125000Y-99625000D01*
X160750000Y-105750000D02*
X162500000Y-104000000D01*
X162500000Y-104000000D02*
X162500000Y-101250000D01*
%TO.N,Net-(J1-Pin_2)*%
X134415000Y-112665000D02*
X134415000Y-115750000D01*
X129000000Y-85750000D02*
X130250000Y-85750000D01*
X131250000Y-109500000D02*
X134415000Y-112665000D01*
X131250000Y-86750000D02*
X131250000Y-109500000D01*
X130250000Y-85750000D02*
X131250000Y-86750000D01*
%TO.N,Net-(J1-Pin_5)*%
X142035000Y-112785000D02*
X142035000Y-115750000D01*
X141000000Y-111750000D02*
X142035000Y-112785000D01*
X142750000Y-75750000D02*
X141500000Y-75750000D01*
X141000000Y-76250000D02*
X141000000Y-111750000D01*
X141500000Y-75750000D02*
X141000000Y-76250000D01*
%TO.N,Net-(J1-Pin_6)*%
X149000000Y-85750000D02*
X150250000Y-85750000D01*
X150250000Y-85750000D02*
X150750000Y-86250000D01*
X144575000Y-113925000D02*
X144575000Y-115750000D01*
X150750000Y-109250000D02*
X148500000Y-111500000D01*
X150750000Y-86250000D02*
X150750000Y-109250000D01*
X148500000Y-111500000D02*
X147000000Y-111500000D01*
X147000000Y-111500000D02*
X144575000Y-113925000D01*
%TO.N,Net-(J4-Pin_2)*%
X160750000Y-95750000D02*
X162085000Y-97085000D01*
X159000000Y-95750000D02*
X160750000Y-95750000D01*
X162085000Y-97085000D02*
X165750000Y-97085000D01*
%TO.N,Net-(J4-Pin_3)*%
X159000000Y-85750000D02*
X160250000Y-85750000D01*
X161500000Y-93000000D02*
X163045000Y-94545000D01*
X161500000Y-87000000D02*
X161500000Y-93000000D01*
X160250000Y-85750000D02*
X161500000Y-87000000D01*
X163045000Y-94545000D02*
X165750000Y-94545000D01*
%TO.N,Net-(J4-Pin_4)*%
X164255000Y-92005000D02*
X165750000Y-92005000D01*
X163000000Y-90750000D02*
X164255000Y-92005000D01*
X159000000Y-75750000D02*
X161750000Y-75750000D01*
X161750000Y-75750000D02*
X163000000Y-77000000D01*
X163000000Y-77000000D02*
X163000000Y-90750000D01*
%TD*%
M02*
