%TF.GenerationSoftware,KiCad,Pcbnew,7.0.10*%
%TF.CreationDate,2024-04-22T13:50:55-04:00*%
%TF.ProjectId,daq-eval-board,6461712d-6576-4616-9c2d-626f6172642e,1*%
%TF.SameCoordinates,Original*%
%TF.FileFunction,Soldermask,Bot*%
%TF.FilePolarity,Negative*%
%FSLAX46Y46*%
G04 Gerber Fmt 4.6, Leading zero omitted, Abs format (unit mm)*
G04 Created by KiCad (PCBNEW 7.0.10) date 2024-04-22 13:50:55*
%MOMM*%
%LPD*%
G01*
G04 APERTURE LIST*
G04 Aperture macros list*
%AMRoundRect*
0 Rectangle with rounded corners*
0 $1 Rounding radius*
0 $2 $3 $4 $5 $6 $7 $8 $9 X,Y pos of 4 corners*
0 Add a 4 corners polygon primitive as box body*
4,1,4,$2,$3,$4,$5,$6,$7,$8,$9,$2,$3,0*
0 Add four circle primitives for the rounded corners*
1,1,$1+$1,$2,$3*
1,1,$1+$1,$4,$5*
1,1,$1+$1,$6,$7*
1,1,$1+$1,$8,$9*
0 Add four rect primitives between the rounded corners*
20,1,$1+$1,$2,$3,$4,$5,0*
20,1,$1+$1,$4,$5,$6,$7,0*
20,1,$1+$1,$6,$7,$8,$9,0*
20,1,$1+$1,$8,$9,$2,$3,0*%
G04 Aperture macros list end*
%ADD10C,2.604000*%
%ADD11R,1.700000X1.700000*%
%ADD12O,1.700000X1.700000*%
%ADD13C,2.006600*%
%ADD14C,1.905000*%
%ADD15C,3.000000*%
%ADD16C,0.900000*%
%ADD17C,8.600000*%
%ADD18RoundRect,0.140000X0.140000X0.170000X-0.140000X0.170000X-0.140000X-0.170000X0.140000X-0.170000X0*%
%ADD19RoundRect,0.140000X-0.140000X-0.170000X0.140000X-0.170000X0.140000X0.170000X-0.140000X0.170000X0*%
%ADD20RoundRect,0.140000X0.170000X-0.140000X0.170000X0.140000X-0.170000X0.140000X-0.170000X-0.140000X0*%
%ADD21RoundRect,0.140000X-0.170000X0.140000X-0.170000X-0.140000X0.170000X-0.140000X0.170000X0.140000X0*%
%ADD22RoundRect,0.225000X0.250000X-0.225000X0.250000X0.225000X-0.250000X0.225000X-0.250000X-0.225000X0*%
%ADD23RoundRect,0.225000X-0.250000X0.225000X-0.250000X-0.225000X0.250000X-0.225000X0.250000X0.225000X0*%
G04 APERTURE END LIST*
D10*
%TO.C,TP603*%
X185250000Y-113250000D03*
%TD*%
%TO.C,TP106*%
X203735000Y-110985000D03*
%TD*%
D11*
%TO.C,JP502*%
X82500000Y-131125000D03*
D12*
X79960000Y-131125000D03*
%TD*%
D13*
%TO.C,J501*%
X90000000Y-119375000D03*
D14*
X87447300Y-116822300D03*
X87447300Y-121927700D03*
X92552700Y-116822300D03*
X92552700Y-121927700D03*
%TD*%
D10*
%TO.C,TP607*%
X185250000Y-128250000D03*
%TD*%
%TO.C,TP601*%
X165250000Y-113250000D03*
%TD*%
D15*
%TO.C,TP402*%
X71500000Y-101250000D03*
%TD*%
D10*
%TO.C,TP104*%
X178750000Y-52250000D03*
%TD*%
%TO.C,TP605*%
X175250000Y-128250000D03*
%TD*%
%TO.C,TP103*%
X165250000Y-52250000D03*
%TD*%
%TO.C,TP609*%
X195250000Y-128250000D03*
%TD*%
D11*
%TO.C,JP301*%
X82500000Y-72375000D03*
D12*
X79960000Y-72375000D03*
%TD*%
D13*
%TO.C,J402*%
X90000000Y-107625000D03*
D14*
X87447300Y-105072300D03*
X87447300Y-110177700D03*
X92552700Y-105072300D03*
X92552700Y-110177700D03*
%TD*%
D13*
%TO.C,J401*%
X90000000Y-95875000D03*
D14*
X87447300Y-93322300D03*
X87447300Y-98427700D03*
X92552700Y-93322300D03*
X92552700Y-98427700D03*
%TD*%
D11*
%TO.C,J105*%
X199987360Y-74500000D03*
D12*
X202527360Y-74500000D03*
X205067360Y-74500000D03*
%TD*%
D16*
%TO.C,H4*%
X65773660Y-47501340D03*
X66718241Y-45220921D03*
X66718241Y-49781759D03*
X68998660Y-44276340D03*
D17*
X68998660Y-47501340D03*
D16*
X68998660Y-50726340D03*
X71279079Y-45220921D03*
X71279079Y-49781759D03*
X72223660Y-47501340D03*
%TD*%
D11*
%TO.C,JP202*%
X82500000Y-60625000D03*
D12*
X79960000Y-60625000D03*
%TD*%
D13*
%TO.C,J101*%
X192998660Y-61948640D03*
D14*
X190445960Y-59395940D03*
X190445960Y-64501340D03*
X195551360Y-59395940D03*
X195551360Y-64501340D03*
%TD*%
D10*
%TO.C,TP608*%
X170250000Y-52250000D03*
%TD*%
D15*
%TO.C,TP502*%
X71500000Y-116250000D03*
%TD*%
%TO.C,TP301*%
X71500000Y-78750000D03*
%TD*%
D16*
%TO.C,H2*%
X215773660Y-132501340D03*
X216718241Y-130220921D03*
X216718241Y-134781759D03*
X218998660Y-129276340D03*
D17*
X218998660Y-132501340D03*
D16*
X218998660Y-135726340D03*
X221279079Y-130220921D03*
X221279079Y-134781759D03*
X222223660Y-132501340D03*
%TD*%
%TO.C,H1*%
X215773660Y-47501340D03*
X216718241Y-45220921D03*
X216718241Y-49781759D03*
X218998660Y-44276340D03*
D17*
X218998660Y-47501340D03*
D16*
X218998660Y-50726340D03*
X221279079Y-45220921D03*
X221279079Y-49781759D03*
X222223660Y-47501340D03*
%TD*%
D10*
%TO.C,TP604*%
X195250000Y-113250000D03*
%TD*%
%TO.C,TP101*%
X192998660Y-69000000D03*
%TD*%
D15*
%TO.C,TP201*%
X71500000Y-63750000D03*
%TD*%
%TO.C,TP202*%
X71500000Y-71250000D03*
%TD*%
D11*
%TO.C,J603*%
X183975000Y-122025000D03*
D12*
X183975000Y-119485000D03*
X186515000Y-122025000D03*
X186515000Y-119485000D03*
%TD*%
D11*
%TO.C,J604*%
X193975000Y-122025000D03*
D12*
X193975000Y-119485000D03*
X196515000Y-122025000D03*
X196515000Y-119485000D03*
%TD*%
D11*
%TO.C,JP501*%
X82500000Y-119375000D03*
D12*
X79960000Y-119375000D03*
%TD*%
D13*
%TO.C,J202*%
X90000000Y-60625000D03*
D14*
X87447300Y-58072300D03*
X87447300Y-63177700D03*
X92552700Y-58072300D03*
X92552700Y-63177700D03*
%TD*%
D11*
%TO.C,JP101*%
X200998660Y-106276340D03*
D12*
X200998660Y-103736340D03*
%TD*%
D13*
%TO.C,J301*%
X90000000Y-72375000D03*
D14*
X87447300Y-69822300D03*
X87447300Y-74927700D03*
X92552700Y-69822300D03*
X92552700Y-74927700D03*
%TD*%
D16*
%TO.C,H3*%
X65773660Y-132501340D03*
X66718241Y-130220921D03*
X66718241Y-134781759D03*
X68998660Y-129276340D03*
D17*
X68998660Y-132501340D03*
D16*
X68998660Y-135726340D03*
X71279079Y-130220921D03*
X71279079Y-134781759D03*
X72223660Y-132501340D03*
%TD*%
D10*
%TO.C,TP606*%
X165250000Y-128250000D03*
%TD*%
D13*
%TO.C,J201*%
X90000000Y-48875000D03*
D14*
X87447300Y-46322300D03*
X87447300Y-51427700D03*
X92552700Y-46322300D03*
X92552700Y-51427700D03*
%TD*%
D10*
%TO.C,TP602*%
X175250000Y-113250000D03*
%TD*%
D15*
%TO.C,TP302*%
X71500000Y-86250000D03*
%TD*%
D10*
%TO.C,TP105*%
X184500000Y-52250000D03*
%TD*%
D11*
%TO.C,J107*%
X209748660Y-106975000D03*
D12*
X209748660Y-109515000D03*
X209748660Y-112055000D03*
%TD*%
D11*
%TO.C,JP402*%
X82500000Y-107625000D03*
D12*
X79960000Y-107625000D03*
%TD*%
D10*
%TO.C,TP102*%
X204748660Y-69000000D03*
%TD*%
D11*
%TO.C,JP302*%
X82500000Y-84125000D03*
D12*
X79960000Y-84125000D03*
%TD*%
D13*
%TO.C,J302*%
X90000000Y-84125000D03*
D14*
X87447300Y-81572300D03*
X87447300Y-86677700D03*
X92552700Y-81572300D03*
X92552700Y-86677700D03*
%TD*%
D11*
%TO.C,JP201*%
X82500000Y-48875000D03*
D12*
X79960000Y-48875000D03*
%TD*%
D13*
%TO.C,J502*%
X90000000Y-131125000D03*
D14*
X87447300Y-128572300D03*
X87447300Y-133677700D03*
X92552700Y-128572300D03*
X92552700Y-133677700D03*
%TD*%
D11*
%TO.C,JP401*%
X82500000Y-95875000D03*
D12*
X79960000Y-95875000D03*
%TD*%
D13*
%TO.C,J102*%
X204748660Y-61948640D03*
D14*
X202195960Y-59395940D03*
X202195960Y-64501340D03*
X207301360Y-59395940D03*
X207301360Y-64501340D03*
%TD*%
D11*
%TO.C,J602*%
X173975000Y-122025000D03*
D12*
X173975000Y-119485000D03*
X176515000Y-122025000D03*
X176515000Y-119485000D03*
%TD*%
D11*
%TO.C,J601*%
X163975000Y-122025000D03*
D12*
X163975000Y-119485000D03*
X166515000Y-122025000D03*
X166515000Y-119485000D03*
%TD*%
D15*
%TO.C,TP501*%
X71500000Y-108750000D03*
%TD*%
D11*
%TO.C,J106*%
X212214067Y-101664293D03*
D12*
X209674067Y-101664293D03*
X212214067Y-99124293D03*
X209674067Y-99124293D03*
X212214067Y-96584293D03*
X209674067Y-96584293D03*
X212214067Y-94044293D03*
X209674067Y-94044293D03*
X212214067Y-91504293D03*
X209674067Y-91504293D03*
X212214067Y-88964293D03*
X209674067Y-88964293D03*
X212214067Y-86424293D03*
X209674067Y-86424293D03*
X212214067Y-83884293D03*
X209674067Y-83884293D03*
X212214067Y-81344293D03*
X209674067Y-81344293D03*
X212214067Y-78804293D03*
X209674067Y-78804293D03*
%TD*%
D13*
%TO.C,J104*%
X204748660Y-50198640D03*
D14*
X207301360Y-47645940D03*
X202195960Y-47645940D03*
X207301360Y-52751340D03*
X202195960Y-52751340D03*
%TD*%
D15*
%TO.C,TP401*%
X71500000Y-93750000D03*
%TD*%
D13*
%TO.C,J103*%
X192998660Y-50198640D03*
D14*
X195551360Y-47645940D03*
X190445960Y-47645940D03*
X195551360Y-52751340D03*
X190445960Y-52751340D03*
%TD*%
D18*
%TO.C,C110*%
X195148360Y-89720000D03*
X194188360Y-89720000D03*
%TD*%
D19*
%TO.C,C107*%
X186948360Y-87220000D03*
X187908360Y-87220000D03*
%TD*%
%TO.C,C108*%
X186968360Y-92720000D03*
X187928360Y-92720000D03*
%TD*%
D20*
%TO.C,C109*%
X189698360Y-94270000D03*
X189698360Y-93310000D03*
%TD*%
D21*
%TO.C,C111*%
X191698360Y-85790000D03*
X191698360Y-86750000D03*
%TD*%
%TO.C,C106*%
X189698360Y-85790000D03*
X189698360Y-86750000D03*
%TD*%
D22*
%TO.C,C105*%
X189698360Y-83295000D03*
X189698360Y-81745000D03*
%TD*%
D23*
%TO.C,C113*%
X191698360Y-96745000D03*
X191698360Y-98295000D03*
%TD*%
D20*
%TO.C,C112*%
X191698360Y-94270000D03*
X191698360Y-93310000D03*
%TD*%
M02*
