M48
; DRILL file {KiCad 7.0.10} date Monday, April 22, 2024 at 01:50:50 PM
; FORMAT={-:-/ absolute / inch / decimal}
; #@! TF.CreationDate,2024-04-22T13:50:50-04:00
; #@! TF.GenerationSoftware,Kicad,Pcbnew,7.0.10
; #@! TF.FileFunction,Plated,1,6,PTH
FMAT,2
INCH
; #@! TA.AperFunction,Plated,PTH,ViaDrill
T1C0.0118
; #@! TA.AperFunction,Plated,PTH,ViaDrill
T2C0.0157
; #@! TA.AperFunction,Plated,PTH,ComponentDrill
T3C0.0236
; #@! TA.AperFunction,Plated,PTH,ComponentDrill
T4C0.0394
; #@! TA.AperFunction,Plated,PTH,ComponentDrill
T5C0.0550
; #@! TA.AperFunction,Plated,PTH,ComponentDrill
T6C0.0590
; #@! TA.AperFunction,Plated,PTH,ComponentDrill
T7C0.0630
; #@! TA.AperFunction,Plated,PTH,ComponentDrill
T8C0.0787
; #@! TA.AperFunction,Plated,PTH,ComponentDrill
T9C0.1693
%
G90
G05
T1
X3.3071Y-1.8848
X3.3071Y-1.9636
X3.3071Y-2.3474
X3.3071Y-2.4262
X3.3071Y-2.81
X3.3071Y-2.8888
X3.3071Y-3.2726
X3.3071Y-3.3514
X3.3071Y-3.7352
X3.3071Y-3.814
X3.3071Y-4.1978
X3.3071Y-4.2766
X3.3071Y-4.6604
X3.3071Y-4.7392
X3.3071Y-5.123
X3.3071Y-5.2018
X3.3661Y-1.8848
X3.3661Y-1.9636
X3.3661Y-2.3474
X3.3661Y-2.4262
X3.3661Y-2.81
X3.3661Y-2.8888
X3.3661Y-3.2726
X3.3661Y-3.3514
X3.3661Y-3.7352
X3.3661Y-3.814
X3.3661Y-4.1978
X3.3661Y-4.2766
X3.3661Y-4.6604
X3.3661Y-4.7392
X3.3661Y-5.123
X3.3661Y-5.2018
X3.4252Y-1.8848
X3.4252Y-1.9636
X3.4252Y-2.3474
X3.4252Y-2.4262
X3.4252Y-2.81
X3.4252Y-2.8888
X3.4252Y-3.2726
X3.4252Y-3.3514
X3.4252Y-3.7352
X3.4252Y-3.814
X3.4252Y-4.1978
X3.4252Y-4.2766
X3.4252Y-4.6604
X3.4252Y-4.7392
X3.4252Y-5.123
X3.4252Y-5.2018
X3.4843Y-1.8848
X3.4843Y-1.9636
X3.4843Y-2.3474
X3.4843Y-2.4262
X3.4843Y-2.81
X3.4843Y-2.8888
X3.4843Y-3.2726
X3.4843Y-3.3514
X3.4843Y-3.7352
X3.4843Y-3.814
X3.4843Y-4.1978
X3.4843Y-4.2766
X3.4843Y-4.6604
X3.4843Y-4.7392
X3.4843Y-5.123
X3.4843Y-5.2018
X3.6213Y-1.8848
X3.6213Y-2.3474
X3.6213Y-2.81
X3.6213Y-3.2726
X3.6213Y-3.7352
X3.6213Y-4.1978
X3.6213Y-4.6604
X3.6213Y-5.123
X3.6306Y-1.9636
X3.6306Y-2.4262
X3.6306Y-2.8888
X3.6306Y-3.3514
X3.6306Y-3.814
X3.6306Y-4.2766
X3.6306Y-4.7392
X3.6306Y-5.2018
X3.6992Y-1.8848
X3.6992Y-2.3474
X3.6992Y-2.81
X3.6992Y-3.2726
X3.6992Y-3.7352
X3.6992Y-4.1978
X3.6992Y-4.6604
X3.6992Y-5.123
X3.718Y-1.9635
X3.718Y-2.4261
X3.718Y-2.8887
X3.718Y-3.3513
X3.718Y-3.8139
X3.718Y-4.2765
X3.718Y-4.7391
X3.718Y-5.2017
X3.7664Y-1.8378
X3.7664Y-2.3004
X3.7664Y-2.763
X3.7664Y-3.2256
X3.7664Y-3.6882
X3.7664Y-4.1507
X3.7664Y-4.6133
X3.7664Y-5.0759
X3.7789Y-1.9165
X3.7789Y-2.3791
X3.7789Y-2.8417
X3.7789Y-3.3043
X3.7789Y-3.7669
X3.7789Y-4.2295
X3.7789Y-4.6921
X3.7789Y-5.1547
X3.8514Y-1.8378
X3.8514Y-1.9165
X3.8514Y-2.3004
X3.8514Y-2.3791
X3.8514Y-2.763
X3.8514Y-2.8417
X3.8514Y-3.2256
X3.8514Y-3.3043
X3.8514Y-3.6882
X3.8514Y-3.7669
X3.8514Y-4.1507
X3.8514Y-4.2295
X3.8514Y-4.6133
X3.8514Y-4.6921
X3.8514Y-5.0759
X3.8514Y-5.1547
X3.9164Y-1.8378
X3.9164Y-1.9165
X3.9164Y-2.3004
X3.9164Y-2.3791
X3.9164Y-2.763
X3.9164Y-2.8417
X3.9164Y-3.2256
X3.9164Y-3.3043
X3.9164Y-3.6882
X3.9164Y-3.7669
X3.9164Y-4.1507
X3.9164Y-4.2295
X3.9164Y-4.6133
X3.9164Y-4.6921
X3.9164Y-5.0759
X3.9164Y-5.1547
X3.9821Y-1.8378
X3.9821Y-1.9165
X3.9821Y-2.3004
X3.9821Y-2.3791
X3.9821Y-2.763
X3.9821Y-2.8417
X3.9821Y-3.2256
X3.9821Y-3.3043
X3.9821Y-3.6882
X3.9821Y-3.7669
X3.9821Y-4.1507
X3.9821Y-4.2295
X3.9821Y-4.6133
X3.9821Y-4.6921
X3.9821Y-5.0759
X3.9821Y-5.1547
X4.0478Y-1.8378
X4.0478Y-1.9165
X4.0478Y-2.3004
X4.0478Y-2.3791
X4.0478Y-2.763
X4.0478Y-2.8417
X4.0478Y-3.2256
X4.0478Y-3.3043
X4.0478Y-3.6882
X4.0478Y-3.7669
X4.0478Y-4.1507
X4.0478Y-4.2295
X4.0478Y-4.6133
X4.0478Y-4.6921
X4.0478Y-5.0759
X4.0478Y-5.1547
X4.1135Y-1.8378
X4.1135Y-1.9165
X4.1135Y-2.3004
X4.1135Y-2.3791
X4.1135Y-2.763
X4.1135Y-2.8417
X4.1135Y-3.2256
X4.1135Y-3.3043
X4.1135Y-3.6882
X4.1135Y-3.7669
X4.1135Y-4.1507
X4.1135Y-4.2295
X4.1135Y-4.6133
X4.1135Y-4.6921
X4.1135Y-5.0759
X4.1135Y-5.1547
X4.2312Y-1.9933
X4.2312Y-2.4559
X4.2312Y-2.9185
X4.2312Y-3.3811
X4.2312Y-3.8437
X4.2312Y-4.3063
X4.2312Y-4.7689
X4.2312Y-5.2315
X4.269Y-1.9933
X4.269Y-2.4559
X4.269Y-2.9185
X4.269Y-3.3811
X4.269Y-3.8437
X4.269Y-4.3063
X4.269Y-4.7689
X4.269Y-5.2315
X4.5314Y-1.9167
X4.5314Y-2.3793
X4.5314Y-2.8419
X4.5314Y-3.3045
X4.5314Y-3.7671
X4.5314Y-4.2297
X4.5314Y-4.6923
X4.5314Y-5.1549
X4.5315Y-1.8791
X4.5315Y-2.3417
X4.5315Y-2.8043
X4.5315Y-3.2669
X4.5315Y-3.7295
X4.5315Y-4.1921
X4.5315Y-4.6547
X4.5315Y-5.1173
X4.6327Y-1.9826
X4.6327Y-2.4452
X4.6327Y-2.9078
X4.6327Y-3.3704
X4.6327Y-3.833
X4.6327Y-4.2956
X4.6327Y-4.7582
X4.6327Y-5.2208
X4.6705Y-1.9826
X4.6705Y-2.4452
X4.6705Y-2.9078
X4.6705Y-3.3704
X4.6705Y-3.833
X4.6705Y-4.2956
X4.6705Y-4.7582
X4.6705Y-5.2208
X4.7599Y-1.8161
X4.7599Y-2.2787
X4.7599Y-2.7413
X4.7599Y-3.2039
X4.7599Y-3.6665
X4.7599Y-4.1291
X4.7599Y-4.5917
X4.7599Y-5.0543
X4.8977Y-1.8259
X4.8977Y-2.2885
X4.8977Y-2.7511
X4.8977Y-3.2137
X4.8977Y-3.6763
X4.8977Y-4.1389
X4.8977Y-4.6015
X4.8977Y-5.0641
X4.9365Y-1.8933
X4.9365Y-2.3559
X4.9365Y-2.8185
X4.9365Y-3.2811
X4.9365Y-3.7437
X4.9365Y-4.2063
X4.9365Y-4.6689
X4.9365Y-5.1315
X5.0471Y-2.3752
X5.0471Y-2.4539
X5.0489Y-4.6882
X5.0489Y-4.7669
X5.0489Y-5.1507
X5.0489Y-5.2295
X5.0507Y-3.3004
X5.0507Y-3.3791
X5.0509Y-1.9126
X5.0509Y-1.9913
X5.0534Y-3.763
X5.0534Y-3.8417
X5.0569Y-2.8378
X5.0569Y-2.9165
X5.062Y-4.2256
X5.062Y-4.3043
X5.1079Y-2.3752
X5.1079Y-2.4539
X5.1115Y-4.6882
X5.1115Y-4.7669
X5.1115Y-5.1507
X5.1115Y-5.2295
X5.1151Y-3.3004
X5.1151Y-3.3791
X5.1156Y-1.9126
X5.1156Y-1.9913
X5.1204Y-3.763
X5.1204Y-3.8417
X5.1276Y-2.8378
X5.1276Y-2.9165
X5.1377Y-4.2256
X5.1377Y-4.3043
X5.1687Y-2.3752
X5.1687Y-2.4539
X5.1731Y-5.1508
X5.1741Y-4.6882
X5.1741Y-4.7669
X5.175Y-5.2295
X5.1793Y-1.9913
X5.1795Y-3.3004
X5.1795Y-3.3791
X5.1803Y-1.9126
X5.1875Y-3.763
X5.1875Y-3.8417
X5.1982Y-2.8378
X5.1982Y-2.9165
X5.2134Y-4.2256
X5.2134Y-4.3043
X5.2285Y-2.4539
X5.2305Y-2.3752
X5.2439Y-3.3004
X5.2439Y-3.3791
X5.246Y-4.7573
X5.246Y-5.2199
X5.2499Y-4.673
X5.2499Y-5.1356
X5.2523Y-1.9221
X5.2546Y-3.763
X5.2546Y-3.8417
X5.2561Y-2.0064
X5.2679Y-2.9165
X5.2698Y-2.8378
X5.2854Y-4.2947
X5.2893Y-4.2105
X5.3015Y-2.3847
X5.3054Y-2.469
X5.3084Y-3.3004
X5.3084Y-3.3791
X5.3122Y-4.7299
X5.3122Y-5.1925
X5.3149Y-4.6294
X5.3149Y-5.092
X5.3185Y-1.9496
X5.3207Y-3.763
X5.3212Y-2.05
X5.3227Y-3.8417
X5.3408Y-2.8473
X5.3447Y-2.9316
X5.3516Y-4.2673
X5.3543Y-4.1668
X5.3563Y-5.0506
X5.3583Y-4.586
X5.3637Y-2.0926
X5.3677Y-2.4122
X5.3692Y-4.6864
X5.3692Y-5.149
X5.3704Y-2.5126
X5.3718Y-3.3791
X5.3728Y-3.3004
X5.3761Y-1.9937
X5.3937Y-3.8321
X5.3976Y-3.7479
X5.3984Y-5.0085
X5.3986Y-4.1225
X5.4024Y-4.5419
X5.407Y-2.1359
X5.407Y-2.8748
X5.4086Y-4.2238
X5.4097Y-2.9752
X5.412Y-5.1063
X5.4131Y-2.5554
X5.414Y-4.6417
X5.4194Y-2.037
X5.4254Y-2.4563
X5.4405Y-4.9664
X5.4437Y-4.0774
X5.4448Y-3.3099
X5.4465Y-4.4978
X5.4486Y-3.3942
X5.4503Y-2.1792
X5.4528Y-3.0183
X5.4541Y-5.0642
X5.4543Y-4.1781
X5.4565Y-2.5988
X5.4581Y-4.5976
X5.4599Y-3.8047
X5.4626Y-3.7042
X5.4627Y-2.0803
X5.464Y-2.9182
X5.4687Y-2.4997
X5.4826Y-4.9243
X5.4887Y-4.0324
X5.4906Y-4.4537
X5.4936Y-2.2225
X5.4962Y-5.0221
X5.4965Y-3.062
X5.4993Y-4.1331
X5.4999Y-2.6421
X5.5022Y-4.5535
X5.506Y-2.1235
X5.5084Y-2.9626
X5.511Y-3.3374
X5.5121Y-2.5431
X5.5169Y-3.7612
X5.5183Y-3.4425
X5.5226Y-3.6441
X5.5247Y-4.8823
X5.5337Y-3.9874
X5.5347Y-4.4096
X5.5369Y-2.2658
X5.5383Y-4.98
X5.5402Y-3.1057
X5.5433Y-2.6855
X5.5444Y-4.0881
X5.5463Y-4.5094
X5.5493Y-2.1668
X5.5522Y-3.0063
X5.5555Y-2.5865
X5.5668Y-4.8402
X5.574Y-3.3868
X5.576Y-3.4866
X5.5764Y-3.6022
X5.5776Y-3.7005
X5.5787Y-3.9423
X5.5789Y-4.3655
X5.5802Y-2.3091
X5.5803Y-4.9379
X5.584Y-3.1495
X5.5866Y-2.7289
X5.5894Y-4.0431
X5.5904Y-4.4652
X5.5926Y-2.2101
X5.5959Y-3.0501
X5.5989Y-2.6299
X5.6088Y-4.7981
X5.6224Y-4.8958
X5.623Y-4.3214
X5.6234Y-2.3523
X5.6238Y-3.8973
X5.6277Y-3.1932
X5.63Y-2.7723
X5.6344Y-3.998
X5.6345Y-4.4211
X5.6358Y-2.2534
X5.6379Y-3.575
X5.6383Y-3.4298
X5.6396Y-3.0938
X5.6422Y-3.514
X5.6423Y-2.6733
X5.6426Y-3.6568
X5.6509Y-4.756
X5.6645Y-4.8538
X5.6667Y-2.3956
X5.6671Y-4.2773
X5.6688Y-3.8523
X5.6714Y-3.2369
X5.6734Y-2.8157
X5.6786Y-4.377
X5.6791Y-2.2967
X5.6795Y-3.953
X5.6834Y-3.1375
X5.6857Y-2.7167
X5.693Y-4.7139
X5.7066Y-4.8117
X5.71Y-2.4389
X5.7112Y-4.2332
X5.7132Y-3.5236
X5.7138Y-3.8073
X5.7151Y-3.4449
X5.7151Y-3.2807
X5.7168Y-2.8591
X5.7185Y-3.563
X5.7195Y-3.6417
X5.7224Y-2.34
X5.7227Y-4.3329
X5.7245Y-3.908
X5.7271Y-3.1813
X5.7291Y-2.76
X5.7351Y-4.6718
X5.7487Y-4.7696
X5.7533Y-2.4822
X5.7553Y-4.1891
X5.7589Y-3.7622
X5.7596Y-3.3251
X5.7602Y-2.9025
X5.7657Y-2.3832
X5.7668Y-4.2888
X5.7695Y-3.8629
X5.7708Y-3.225
X5.7725Y-2.8034
X5.7735Y-3.4449
X5.7735Y-3.5236
X5.7772Y-4.6297
X5.7777Y-3.563
X5.7777Y-3.6417
X5.7908Y-4.7275
X5.7966Y-2.5255
X5.7994Y-4.145
X5.8036Y-2.9459
X5.809Y-2.4265
X5.8109Y-4.2447
X5.8126Y-3.7203
X5.8138Y-3.268
X5.8138Y-3.8186
X5.8159Y-2.8468
X5.8165Y-3.3685
X5.8193Y-4.5877
X5.8329Y-4.6854
X5.8329Y-3.4449
X5.8329Y-3.5236
X5.8368Y-3.563
X5.8368Y-3.6417
X5.8399Y-2.5688
X5.8435Y-4.1009
X5.847Y-2.9893
X5.8523Y-2.4698
X5.855Y-4.2006
X5.8593Y-2.8902
X5.8614Y-4.5456
X5.8741Y-3.6931
X5.8749Y-4.6433
X5.8789Y-3.3117
X5.8789Y-3.7749
X5.8827Y-3.3959
X5.8831Y-2.612
X5.8876Y-4.0568
X5.8904Y-3.0327
X5.8923Y-3.4449
X5.8923Y-3.5236
X5.8955Y-2.5131
X5.896Y-3.563
X5.896Y-3.6417
X5.8991Y-4.1565
X5.9027Y-2.9336
X5.9034Y-4.5035
X5.917Y-4.6012
X5.9264Y-2.6553
X5.9317Y-4.0126
X5.9338Y-3.0761
X5.9388Y-2.5564
X5.9432Y-4.1124
X5.9455Y-4.4614
X5.9461Y-2.977
X5.9517Y-3.4449
X5.9517Y-3.5236
X5.9538Y-3.4055
X5.9538Y-3.6811
X5.9551Y-3.563
X5.9551Y-3.6417
X5.9557Y-3.3268
X5.9557Y-3.7598
X5.9591Y-4.5592
X5.9697Y-2.6986
X5.9758Y-3.9685
X5.9772Y-3.1195
X5.9821Y-2.5997
X5.9874Y-4.0683
X5.9876Y-4.4193
X5.9895Y-3.0204
X6.0012Y-4.5171
X6.0111Y-3.4449
X6.0111Y-3.5236
X6.013Y-2.7419
X6.0139Y-3.3268
X6.0139Y-3.4055
X6.0139Y-3.6811
X6.0139Y-3.7598
X6.0143Y-3.563
X6.0143Y-3.6417
X6.0199Y-3.9244
X6.0206Y-3.1629
X6.0254Y-2.6429
X6.0297Y-4.3772
X6.0315Y-4.0242
X6.0329Y-3.0638
X6.0433Y-4.475
X6.0563Y-2.7852
X6.0647Y-3.8797
X6.0647Y-3.2069
X6.0687Y-2.6862
X6.0705Y-3.4449
X6.0705Y-3.5236
X6.0718Y-4.3351
X6.0731Y-3.3268
X6.0731Y-3.4055
X6.0731Y-3.6811
X6.0731Y-3.7598
X6.0734Y-3.563
X6.0734Y-3.6417
X6.0756Y-3.9801
X6.0763Y-3.1072
X6.0854Y-4.4329
X6.0996Y-2.8285
X6.112Y-2.7295
X6.1139Y-4.2931
X6.1178Y-3.8384
X6.119Y-3.1499
X6.119Y-3.9367
X6.1217Y-3.2504
X6.1275Y-4.3908
X6.1298Y-3.4449
X6.1298Y-3.5236
X6.1323Y-3.3268
X6.1323Y-3.4055
X6.1323Y-3.6811
X6.1323Y-3.7598
X6.1326Y-3.563
X6.1326Y-3.6417
X6.1428Y-2.8717
X6.1552Y-2.7728
X6.156Y-4.251
X6.1695Y-4.3487
X6.1792Y-3.8112
X6.184Y-3.1936
X6.184Y-3.8931
X6.1861Y-2.915
X6.1879Y-3.2778
X6.1892Y-3.4449
X6.1892Y-3.5236
X6.1915Y-3.3268
X6.1915Y-3.4055
X6.1915Y-3.6811
X6.1915Y-3.7598
X6.1917Y-3.563
X6.1917Y-3.6417
X6.198Y-4.2089
X6.1985Y-2.8161
X6.2116Y-4.3066
X6.2294Y-2.9583
X6.2401Y-4.1668
X6.2418Y-2.8594
X6.2486Y-3.4449
X6.2486Y-3.5236
X6.2506Y-3.3268
X6.2506Y-3.4055
X6.2506Y-3.6811
X6.2506Y-3.7598
X6.2509Y-3.563
X6.2509Y-3.6417
X6.2537Y-4.2646
X6.2589Y-3.2874
X6.2589Y-3.7992
X6.2608Y-3.2087
X6.2608Y-3.8779
X6.2727Y-3.0016
X6.2822Y-4.1247
X6.2851Y-2.9026
X6.2958Y-4.2225
X6.308Y-3.4449
X6.308Y-3.5236
X6.3098Y-3.3268
X6.3098Y-3.4055
X6.3098Y-3.6811
X6.3098Y-3.7598
X6.3101Y-3.563
X6.3101Y-3.6417
X6.316Y-3.0449
X6.3243Y-4.0826
X6.3246Y-3.2087
X6.3246Y-3.2874
X6.3246Y-3.7992
X6.3246Y-3.878
X6.3284Y-2.9459
X6.3379Y-4.1804
X6.3599Y-3.0888
X6.3664Y-4.0405
X6.3674Y-3.4449
X6.3674Y-3.5236
X6.369Y-3.3268
X6.369Y-3.4055
X6.369Y-3.6811
X6.369Y-3.7598
X6.3692Y-3.563
X6.3692Y-3.6417
X6.3717Y-2.9892
X6.38Y-4.1383
X6.3893Y-3.2087
X6.3893Y-3.2874
X6.3893Y-3.7992
X6.3893Y-3.878
X6.4085Y-3.9985
X6.4142Y-3.0318
X6.4169Y-3.1323
X6.4221Y-4.0962
X6.4268Y-3.4449
X6.4268Y-3.5236
X6.4282Y-3.3268
X6.4282Y-3.4055
X6.4282Y-3.6811
X6.4282Y-3.7598
X6.4284Y-3.563
X6.4284Y-3.6417
X6.454Y-3.2087
X6.454Y-3.2874
X6.454Y-3.7992
X6.454Y-3.878
X6.4622Y-3.9565
X6.4641Y-4.0541
X6.4793Y-3.0754
X6.4831Y-3.1597
X6.4861Y-3.4449
X6.4861Y-3.5236
X6.4874Y-3.3268
X6.4874Y-3.4055
X6.4874Y-3.6811
X6.4874Y-3.7598
X6.4875Y-3.563
X6.4875Y-3.6417
X6.5188Y-3.2087
X6.5188Y-3.2874
X6.5188Y-3.7992
X6.5188Y-3.878
X6.5237Y-3.9293
X6.5285Y-4.0112
X6.5455Y-3.4449
X6.5455Y-3.5236
X6.5465Y-3.3268
X6.5465Y-3.4055
X6.5465Y-3.6811
X6.5465Y-3.7598
X6.5467Y-3.563
X6.5467Y-3.6417
X6.5542Y-3.1693
X6.5561Y-3.0906
X6.565Y-4.5965
X6.5835Y-3.2087
X6.5835Y-3.2874
X6.5835Y-3.7992
X6.5835Y-3.878
X6.6034Y-3.9173
X6.6049Y-3.4449
X6.6049Y-3.5236
X6.6053Y-3.9961
X6.6057Y-3.3268
X6.6057Y-3.4055
X6.6057Y-3.6811
X6.6057Y-3.7598
X6.6058Y-3.563
X6.6058Y-3.6417
X6.627Y-3.0906
X6.627Y-3.1693
X6.6483Y-3.2087
X6.6483Y-3.2874
X6.6483Y-3.7992
X6.6483Y-3.878
X6.6639Y-3.9173
X6.6639Y-3.9961
X6.6643Y-3.4449
X6.6643Y-3.5236
X6.6649Y-3.3268
X6.6649Y-3.4055
X6.6649Y-3.6811
X6.6649Y-3.7598
X6.665Y-3.563
X6.665Y-3.6417
X6.6988Y-3.0906
X6.6988Y-3.1693
X6.713Y-3.2087
X6.713Y-3.2874
X6.713Y-3.7992
X6.713Y-3.878
X6.7234Y-3.9173
X6.7234Y-3.9961
X6.7237Y-3.4449
X6.7237Y-3.5236
X6.7241Y-3.3268
X6.7241Y-3.4055
X6.7241Y-3.6811
X6.7241Y-3.7598
X6.7241Y-3.563
X6.7241Y-3.6417
X6.7706Y-3.0906
X6.7706Y-3.1693
X6.7777Y-3.2087
X6.7777Y-3.2874
X6.7777Y-3.7992
X6.7777Y-3.878
X6.7829Y-3.9173
X6.7829Y-3.9961
X6.7831Y-3.4449
X6.7831Y-3.5236
X6.7833Y-3.3268
X6.7833Y-3.4055
X6.7833Y-3.6811
X6.7833Y-3.7598
X6.7833Y-3.563
X6.7833Y-3.6417
X6.8425Y-3.0906
X6.8425Y-3.1693
X6.8425Y-3.2087
X6.8425Y-3.2874
X6.8425Y-3.3268
X6.8425Y-3.4055
X6.8425Y-3.4449
X6.8425Y-3.5236
X6.8425Y-3.563
X6.8425Y-3.6417
X6.8425Y-3.6811
X6.8425Y-3.7598
X6.8425Y-3.7992
X6.8425Y-3.878
X6.8425Y-3.9173
X6.8425Y-3.9961
X6.9587Y-4.5959
X7.2893Y-3.5244
X7.2893Y-3.5638
X7.3188Y-3.4161
X7.3188Y-3.672
X7.3524Y-4.5965
X7.3779Y-3.3472
X7.3799Y-3.7411
X7.4003Y-3.3281
X7.4025Y-3.7601
X7.4684Y-3.3374
X7.4684Y-3.7508
X7.5078Y-3.3374
X7.5078Y-3.7508
X7.5472Y-3.336
X7.5472Y-3.7508
X7.5591Y-4.0354
X7.5795Y-2.1417
X7.5795Y-2.2736
X7.5846Y-4.1634
X7.5846Y-4.2717
X7.5984Y-3.9862
X7.6173Y-2.1417
X7.6173Y-2.2736
X7.6811Y-3.9606
X7.687Y-4.0846
X7.7215Y-4.0059
X7.7244Y-4.0846
X7.7333Y-3.5335
X7.7461Y-3.9272
X7.7461Y-4.5965
X7.7953Y-1.9291
X7.7953Y-2.0276
X7.8245Y-4.0646
X7.83Y-4.2375
X7.8642Y-1.9291
X7.8642Y-2.0276
X8.0373Y-4.1437
X8.0413Y-2.2736
X8.0421Y-2.1417
X8.0791Y-2.2736
X8.0799Y-2.1417
T2
X2.4705Y-1.624
X2.4705Y-1.7224
X2.4705Y-1.8209
X2.4705Y-1.9193
X2.4705Y-2.0177
X2.4705Y-2.1161
X2.4705Y-2.2146
X2.4705Y-2.313
X2.4705Y-2.4114
X2.4705Y-2.5098
X2.4705Y-2.6083
X2.4705Y-2.7067
X2.4705Y-2.8051
X2.4705Y-2.9035
X2.4705Y-3.002
X2.4705Y-3.1004
X2.4705Y-3.1988
X2.4705Y-3.2972
X2.4705Y-3.3957
X2.4705Y-3.4941
X2.4705Y-3.5925
X2.4705Y-3.6909
X2.4705Y-3.7894
X2.4705Y-3.8878
X2.4705Y-3.9862
X2.4705Y-4.0846
X2.4705Y-4.1831
X2.4705Y-4.2815
X2.4705Y-4.3799
X2.4705Y-4.4783
X2.4705Y-4.5768
X2.4705Y-4.6752
X2.4705Y-4.7736
X2.4705Y-4.872
X2.4705Y-4.9705
X2.4705Y-5.0689
X2.4705Y-5.1673
X2.4705Y-5.2657
X2.4705Y-5.3642
X2.4705Y-5.4626
X2.5689Y-1.624
X2.5689Y-5.4626
X2.6673Y-1.624
X2.6673Y-5.4626
X2.7657Y-1.624
X2.7657Y-5.4626
X2.8642Y-1.624
X2.8642Y-5.4626
X2.9626Y-1.624
X2.9626Y-5.4626
X3.0413Y-4.6998
X3.0413Y-5.1624
X3.0463Y-2.8494
X3.0463Y-3.312
X3.0463Y-3.7746
X3.0463Y-4.2372
X3.0512Y-1.9242
X3.0512Y-2.3868
X3.061Y-1.624
X3.061Y-5.4626
X3.1594Y-1.624
X3.1594Y-5.4626
X3.2579Y-1.624
X3.2579Y-5.4626
X3.3563Y-1.624
X3.3563Y-5.4626
X3.4547Y-1.624
X3.4547Y-5.4626
X3.5531Y-1.624
X3.5531Y-5.4626
X3.6516Y-1.624
X3.6516Y-5.4626
X3.75Y-1.624
X3.75Y-5.4626
X3.8484Y-1.624
X3.8484Y-5.4626
X3.9469Y-1.624
X3.9469Y-5.4626
X4.0453Y-1.624
X4.0453Y-5.4626
X4.1437Y-1.624
X4.1437Y-5.4626
X4.2421Y-1.624
X4.2421Y-5.4626
X4.3406Y-1.624
X4.3406Y-5.4626
X4.439Y-1.624
X4.439Y-5.4626
X4.5374Y-1.624
X4.5374Y-5.4626
X4.6358Y-1.624
X4.6358Y-5.4626
X4.7343Y-1.624
X4.7343Y-5.4626
X4.8327Y-1.624
X4.8327Y-5.4626
X4.9311Y-1.624
X4.9311Y-5.4626
X5.0295Y-1.624
X5.0295Y-5.4626
X5.128Y-1.624
X5.128Y-5.4626
X5.2264Y-1.624
X5.2264Y-5.4626
X5.3248Y-1.624
X5.3248Y-5.4626
X5.4232Y-1.624
X5.4232Y-5.4626
X5.5217Y-1.624
X5.5217Y-5.4626
X5.6201Y-1.624
X5.6201Y-5.4626
X5.7185Y-1.624
X5.7185Y-5.4626
X5.8169Y-1.624
X5.8169Y-5.4626
X5.9154Y-1.624
X5.9154Y-5.4626
X6.0138Y-1.624
X6.0138Y-5.4626
X6.1122Y-1.624
X6.1122Y-5.4626
X6.2106Y-1.624
X6.2106Y-5.4626
X6.3091Y-1.624
X6.3091Y-5.4626
X6.4075Y-1.624
X6.4075Y-5.4626
X6.5059Y-1.624
X6.5059Y-5.4626
X6.565Y-4.9114
X6.5846Y-2.2835
X6.6043Y-1.624
X6.6043Y-5.4626
X6.7021Y-2.5098
X6.7028Y-1.624
X6.7028Y-5.4626
X6.7913Y-2.5
X6.8012Y-1.624
X6.8012Y-5.4626
X6.8696Y-2.343
X6.8697Y-2.293
X6.8996Y-1.624
X6.8996Y-5.4626
X6.9587Y-4.9114
X6.998Y-1.624
X6.998Y-5.4626
X7.0043Y-2.228
X7.0965Y-1.624
X7.0965Y-5.4626
X7.1544Y-2.2354
X7.1949Y-1.624
X7.1949Y-5.4626
X7.2047Y-2.3581
X7.2047Y-2.4409
X7.2933Y-1.624
X7.2933Y-5.4626
X7.3524Y-4.9114
X7.3917Y-1.624
X7.3917Y-5.4626
X7.4211Y-3.2183
X7.4902Y-1.624
X7.4902Y-5.4626
X7.4982Y-3.8699
X7.5078Y-3.1123
X7.5078Y-3.9743
X7.5886Y-1.624
X7.5886Y-5.4626
X7.687Y-1.624
X7.687Y-5.4626
X7.7461Y-4.9114
X7.7854Y-1.624
X7.7854Y-5.4626
X7.8839Y-1.624
X7.8839Y-5.4626
X7.9823Y-1.624
X7.9823Y-5.4626
X8.0807Y-1.624
X8.0807Y-5.4626
X8.1791Y-1.624
X8.1791Y-5.4626
X8.2776Y-1.624
X8.2776Y-5.4626
X8.376Y-1.624
X8.376Y-5.4626
X8.4744Y-1.624
X8.4744Y-5.4626
X8.5728Y-1.624
X8.5728Y-5.4626
X8.6713Y-1.624
X8.6713Y-5.4626
X8.7697Y-1.624
X8.7697Y-5.4626
X8.8681Y-1.624
X8.8681Y-1.7224
X8.8681Y-1.8209
X8.8681Y-1.9193
X8.8681Y-2.0177
X8.8681Y-2.1161
X8.8681Y-2.2146
X8.8681Y-2.313
X8.8681Y-2.4114
X8.8681Y-2.5098
X8.8681Y-2.6083
X8.8681Y-2.7067
X8.8681Y-2.8051
X8.8681Y-2.9035
X8.8681Y-3.002
X8.8681Y-3.1004
X8.8681Y-3.1988
X8.8681Y-3.2972
X8.8681Y-3.3957
X8.8681Y-3.4941
X8.8681Y-3.5925
X8.8681Y-3.6909
X8.8681Y-3.7894
X8.8681Y-3.8878
X8.8681Y-3.9862
X8.8681Y-4.0846
X8.8681Y-4.1831
X8.8681Y-4.2815
X8.8681Y-4.3799
X8.8681Y-4.4783
X8.8681Y-4.5768
X8.8681Y-4.6752
X8.8681Y-4.7736
X8.8681Y-4.872
X8.8681Y-4.9705
X8.8681Y-5.0689
X8.8681Y-5.1673
X8.8681Y-5.2657
X8.8681Y-5.3642
X8.8681Y-5.4626
T3
X2.5895Y-1.8701
X2.5895Y-5.2166
X2.6267Y-1.7804
X2.6267Y-1.9599
X2.6267Y-5.1268
X2.6267Y-5.3064
X2.7165Y-1.7432
X2.7165Y-1.9971
X2.7165Y-5.0896
X2.7165Y-5.3436
X2.8063Y-1.7804
X2.8063Y-1.9599
X2.8063Y-5.1268
X2.8063Y-5.3064
X2.8435Y-1.8701
X2.8435Y-5.2166
X8.495Y-1.8701
X8.495Y-5.2166
X8.5322Y-1.7804
X8.5322Y-1.9599
X8.5322Y-5.1268
X8.5322Y-5.3064
X8.622Y-1.7432
X8.622Y-1.9971
X8.622Y-5.0896
X8.622Y-5.3436
X8.7118Y-1.7804
X8.7118Y-1.9599
X8.7118Y-5.1268
X8.7118Y-5.3064
X8.749Y-1.8701
X8.749Y-5.2166
T4
X3.148Y-1.9242
X3.148Y-2.3868
X3.148Y-2.8494
X3.148Y-3.312
X3.148Y-3.7746
X3.148Y-4.2372
X3.148Y-4.6998
X3.148Y-5.1624
X3.248Y-1.9242
X3.248Y-2.3868
X3.248Y-2.8494
X3.248Y-3.312
X3.248Y-3.7746
X3.248Y-4.2372
X3.248Y-4.6998
X3.248Y-5.1624
X6.4557Y-4.7041
X6.4557Y-4.8041
X6.5557Y-4.7041
X6.5557Y-4.8041
X6.8494Y-4.7041
X6.8494Y-4.8041
X6.9494Y-4.7041
X6.9494Y-4.8041
X7.2431Y-4.7041
X7.2431Y-4.8041
X7.3431Y-4.7041
X7.3431Y-4.8041
X7.6368Y-4.7041
X7.6368Y-4.8041
X7.7368Y-4.7041
X7.7368Y-4.8041
X7.8735Y-2.9331
X7.9133Y-4.0841
X7.9133Y-4.1841
X7.9735Y-2.9331
X8.0735Y-2.9331
X8.2549Y-3.1025
X8.2549Y-3.2025
X8.2549Y-3.3025
X8.2549Y-3.4025
X8.2549Y-3.5025
X8.2549Y-3.6025
X8.2549Y-3.7025
X8.2549Y-3.8025
X8.2549Y-3.9025
X8.2549Y-4.0025
X8.2578Y-4.2116
X8.2578Y-4.3116
X8.2578Y-4.4116
X8.3549Y-3.1025
X8.3549Y-3.2025
X8.3549Y-3.3025
X8.3549Y-3.4025
X8.3549Y-3.5025
X8.3549Y-3.6025
X8.3549Y-3.7025
X8.3549Y-3.8025
X8.3549Y-3.9025
X8.3549Y-4.0025
T5
X3.4428Y-1.8237
X3.4428Y-2.0247
X3.4428Y-2.2863
X3.4428Y-2.4873
X3.4428Y-2.7489
X3.4428Y-2.9499
X3.4428Y-3.2115
X3.4428Y-3.4125
X3.4428Y-3.6741
X3.4428Y-3.8751
X3.4428Y-4.1367
X3.4428Y-4.3377
X3.4428Y-4.5993
X3.4428Y-4.8003
X3.4428Y-5.0619
X3.4428Y-5.2629
X3.6438Y-1.8237
X3.6438Y-2.0247
X3.6438Y-2.2863
X3.6438Y-2.4873
X3.6438Y-2.7489
X3.6438Y-2.9499
X3.6438Y-3.2115
X3.6438Y-3.4125
X3.6438Y-3.6741
X3.6438Y-3.8751
X3.6438Y-4.1367
X3.6438Y-4.3377
X3.6438Y-4.5993
X3.6438Y-4.8003
X3.6438Y-5.0619
X3.6438Y-5.2629
X7.4979Y-1.8758
X7.4979Y-2.0768
X7.4979Y-2.3384
X7.4979Y-2.5394
X7.6989Y-1.8758
X7.6989Y-2.0768
X7.6989Y-2.3384
X7.6989Y-2.5394
X7.9605Y-1.8758
X7.9605Y-2.0768
X7.9605Y-2.3384
X7.9605Y-2.5394
X8.1615Y-1.8758
X8.1615Y-2.0768
X8.1615Y-2.3384
X8.1615Y-2.5394
T6
X3.5433Y-1.9242
X3.5433Y-2.3868
X3.5433Y-2.8494
X3.5433Y-3.312
X3.5433Y-3.7746
X3.5433Y-4.2372
X3.5433Y-4.6998
X3.5433Y-5.1624
X7.5984Y-1.9763
X7.5984Y-2.4389
X8.061Y-1.9763
X8.061Y-2.4389
T7
X6.5059Y-2.0571
X6.5059Y-4.4587
X6.5059Y-5.0492
X6.7028Y-2.0571
X6.8996Y-4.4587
X6.8996Y-5.0492
X7.0374Y-2.0571
X7.2638Y-2.0571
X7.2933Y-4.4587
X7.2933Y-5.0492
X7.5984Y-2.7165
X7.687Y-4.4587
X7.687Y-5.0492
X8.0211Y-4.3695
X8.061Y-2.7165
T8
X2.815Y-2.5098
X2.815Y-2.8051
X2.815Y-3.1004
X2.815Y-3.3957
X2.815Y-3.6909
X2.815Y-3.9862
X2.815Y-4.2815
X2.815Y-4.5768
T9
X2.7165Y-1.8701
X2.7165Y-5.2166
X8.622Y-1.8701
X8.622Y-5.2166
M30
