M48
; DRILL file {KiCad 9.0.0} date 2025-03-03T21:18:53-0500
; FORMAT={-:-/ absolute / metric / decimal}
; #@! TF.CreationDate,2025-03-03T21:18:53-05:00
; #@! TF.GenerationSoftware,Kicad,Pcbnew,9.0.0
; #@! TF.FileFunction,Plated,1,2,PTH
FMAT,2
METRIC
; #@! TA.AperFunction,Plated,PTH,ComponentDrill
T1C1.000
; #@! TA.AperFunction,Plated,PTH,ComponentDrill
T2C1.170
; #@! TA.AperFunction,Plated,PTH,ComponentDrill
T3C1.500
; #@! TA.AperFunction,Plated,PTH,ComponentDrill
T4C1.700
%
G90
G05
T1
X97.97Y-113.245
X100.51Y-113.245
X103.05Y-113.245
X105.59Y-113.245
X108.13Y-113.245
X110.67Y-113.245
X113.21Y-113.245
X115.75Y-81.875
X115.75Y-84.415
X115.75Y-86.955
X115.75Y-89.495
X115.75Y-92.035
X115.75Y-94.575
X115.75Y-97.115
X115.75Y-99.655
X115.75Y-113.245
X165.75Y-81.84
X165.75Y-84.38
X165.75Y-86.92
X165.75Y-89.46
X165.75Y-92.0
X165.75Y-94.54
X165.75Y-97.08
X165.75Y-99.62
T2
X129.0Y-68.25
X129.0Y-83.248
X129.0Y-98.248
X129.0Y-113.245
X152.5Y-68.252
X152.5Y-83.25
X152.5Y-98.25
X152.5Y-113.247
T3
X102.25Y-80.75
X102.25Y-100.75
T4
X99.71Y-78.21
X99.71Y-83.29
X99.71Y-98.21
X99.71Y-103.29
X104.79Y-78.21
X104.79Y-83.29
X104.79Y-98.21
X104.79Y-103.29
X126.46Y-65.71
X126.46Y-70.79
X126.46Y-80.707
X126.46Y-85.787
X126.46Y-95.707
X126.46Y-100.787
X126.46Y-110.705
X126.46Y-115.785
X131.54Y-65.71
X131.54Y-70.79
X131.54Y-80.707
X131.54Y-85.787
X131.54Y-95.707
X131.54Y-100.787
X131.54Y-110.705
X131.54Y-115.785
X149.96Y-65.712
X149.96Y-70.792
X149.96Y-80.71
X149.96Y-85.79
X149.96Y-95.71
X149.96Y-100.79
X149.96Y-110.707
X149.96Y-115.787
X155.04Y-65.712
X155.04Y-70.792
X155.04Y-80.71
X155.04Y-85.79
X155.04Y-95.71
X155.04Y-100.79
X155.04Y-110.707
X155.04Y-115.787
M30
