%TF.GenerationSoftware,KiCad,Pcbnew,9.0.0*%
%TF.CreationDate,2025-03-03T21:18:55-05:00*%
%TF.ProjectId,neurophy-adaptor,6e657572-6f70-4687-992d-61646170746f,1*%
%TF.SameCoordinates,Original*%
%TF.FileFunction,Soldermask,Bot*%
%TF.FilePolarity,Negative*%
%FSLAX46Y46*%
G04 Gerber Fmt 4.6, Leading zero omitted, Abs format (unit mm)*
G04 Created by KiCad (PCBNEW 9.0.0) date 2025-03-03 21:18:55*
%MOMM*%
%LPD*%
G01*
G04 APERTURE LIST*
%ADD10O,1.700000X1.700000*%
%ADD11R,1.700000X1.700000*%
%ADD12C,2.550000*%
%ADD13C,1.755000*%
%ADD14C,2.250000*%
%ADD15C,2.050000*%
G04 APERTURE END LIST*
D10*
%TO.C,J1*%
X115750000Y-113245000D03*
X113210000Y-113245000D03*
X110670000Y-113245000D03*
X108130000Y-113245000D03*
X105590000Y-113245000D03*
X103050000Y-113245000D03*
X100510000Y-113245000D03*
D11*
X97970000Y-113245000D03*
%TD*%
D12*
%TO.C,J8*%
X149960000Y-80710000D03*
X149960000Y-85790000D03*
X155040000Y-80710000D03*
X155040000Y-85790000D03*
D13*
X152500000Y-83250000D03*
%TD*%
D12*
%TO.C,J9*%
X131540000Y-85787500D03*
X131540000Y-80707500D03*
X126460000Y-85787500D03*
X126460000Y-80707500D03*
D13*
X129000000Y-83247500D03*
%TD*%
D11*
%TO.C,J4*%
X165750000Y-81840000D03*
D10*
X165750000Y-84380000D03*
X165750000Y-86920000D03*
X165750000Y-89460000D03*
X165750000Y-92000000D03*
X165750000Y-94540000D03*
X165750000Y-97080000D03*
X165750000Y-99620000D03*
%TD*%
D12*
%TO.C,J5*%
X131540000Y-115785000D03*
X131540000Y-110705000D03*
X126460000Y-115785000D03*
X126460000Y-110705000D03*
D13*
X129000000Y-113245000D03*
%TD*%
%TO.C,J6*%
X152500000Y-68252500D03*
D12*
X155040000Y-70792500D03*
X155040000Y-65712500D03*
X149960000Y-70792500D03*
X149960000Y-65712500D03*
%TD*%
D13*
%TO.C,J10*%
X129000000Y-68250000D03*
D12*
X126460000Y-65710000D03*
X126460000Y-70790000D03*
X131540000Y-65710000D03*
X131540000Y-70790000D03*
%TD*%
D13*
%TO.C,J11*%
X152500000Y-98250000D03*
D12*
X155040000Y-100790000D03*
X155040000Y-95710000D03*
X149960000Y-100790000D03*
X149960000Y-95710000D03*
%TD*%
%TO.C,J12*%
X149960000Y-110707500D03*
X149960000Y-115787500D03*
X155040000Y-110707500D03*
X155040000Y-115787500D03*
D13*
X152500000Y-113247500D03*
%TD*%
%TO.C,J7*%
X129000000Y-98247500D03*
D12*
X126460000Y-95707500D03*
X126460000Y-100787500D03*
X131540000Y-95707500D03*
X131540000Y-100787500D03*
%TD*%
D14*
%TO.C,J13*%
X104790000Y-83290000D03*
X104790000Y-78210000D03*
X99710000Y-83290000D03*
X99710000Y-78210000D03*
D15*
X102250000Y-80750000D03*
%TD*%
D14*
%TO.C,J14*%
X104790000Y-103290000D03*
X104790000Y-98210000D03*
X99710000Y-103290000D03*
X99710000Y-98210000D03*
D15*
X102250000Y-100750000D03*
%TD*%
D11*
%TO.C,J2*%
X115750000Y-81875000D03*
D10*
X115750000Y-84415000D03*
X115750000Y-86955000D03*
X115750000Y-89495000D03*
X115750000Y-92035000D03*
X115750000Y-94575000D03*
X115750000Y-97115000D03*
X115750000Y-99655000D03*
%TD*%
M02*
