%TF.GenerationSoftware,KiCad,Pcbnew,9.0.0*%
%TF.CreationDate,2025-03-03T21:18:55-05:00*%
%TF.ProjectId,neurophy-adaptor,6e657572-6f70-4687-992d-61646170746f,1*%
%TF.SameCoordinates,Original*%
%TF.FileFunction,Copper,L1,Top*%
%TF.FilePolarity,Positive*%
%FSLAX46Y46*%
G04 Gerber Fmt 4.6, Leading zero omitted, Abs format (unit mm)*
G04 Created by KiCad (PCBNEW 9.0.0) date 2025-03-03 21:18:55*
%MOMM*%
%LPD*%
G01*
G04 APERTURE LIST*
%TA.AperFunction,ComponentPad*%
%ADD10O,1.700000X1.700000*%
%TD*%
%TA.AperFunction,ComponentPad*%
%ADD11R,1.700000X1.700000*%
%TD*%
%TA.AperFunction,ComponentPad*%
%ADD12C,2.550000*%
%TD*%
%TA.AperFunction,ComponentPad*%
%ADD13C,1.755000*%
%TD*%
%TA.AperFunction,ComponentPad*%
%ADD14C,2.250000*%
%TD*%
%TA.AperFunction,ComponentPad*%
%ADD15C,2.050000*%
%TD*%
%TA.AperFunction,Conductor*%
%ADD16C,0.500000*%
%TD*%
%TA.AperFunction,Conductor*%
%ADD17C,0.250000*%
%TD*%
G04 APERTURE END LIST*
D10*
%TO.P,J1,8,Pin_8*%
%TO.N,unconnected-(J1-Pin_8-Pad8)*%
X115750000Y-113245000D03*
%TO.P,J1,7,Pin_7*%
%TO.N,unconnected-(J1-Pin_7-Pad7)*%
X113210000Y-113245000D03*
%TO.P,J1,6,Pin_6*%
%TO.N,unconnected-(J1-Pin_6-Pad6)*%
X110670000Y-113245000D03*
%TO.P,J1,5,Pin_5*%
%TO.N,unconnected-(J1-Pin_5-Pad5)*%
X108130000Y-113245000D03*
%TO.P,J1,4,Pin_4*%
%TO.N,Net-(J1-Pin_4)*%
X105590000Y-113245000D03*
%TO.P,J1,3,Pin_3*%
%TO.N,Net-(J1-Pin_3)*%
X103050000Y-113245000D03*
%TO.P,J1,2,Pin_2*%
%TO.N,Net-(J1-Pin_2)*%
X100510000Y-113245000D03*
D11*
%TO.P,J1,1,Pin_1*%
%TO.N,Net-(J1-Pin_1)*%
X97970000Y-113245000D03*
%TD*%
D12*
%TO.P,J8,2,Ext*%
%TO.N,Earth*%
X149960000Y-80710000D03*
X149960000Y-85790000D03*
X155040000Y-80710000D03*
X155040000Y-85790000D03*
D13*
%TO.P,J8,1,In*%
%TO.N,Net-(J4-Pin_2)*%
X152500000Y-83250000D03*
%TD*%
D12*
%TO.P,J9,2,Ext*%
%TO.N,Earth*%
X131540000Y-85787500D03*
X131540000Y-80707500D03*
X126460000Y-85787500D03*
X126460000Y-80707500D03*
D13*
%TO.P,J9,1,In*%
%TO.N,Net-(J1-Pin_3)*%
X129000000Y-83247500D03*
%TD*%
D11*
%TO.P,J4,1,Pin_1*%
%TO.N,Net-(J4-Pin_1)*%
X165750000Y-81840000D03*
D10*
%TO.P,J4,2,Pin_2*%
%TO.N,Net-(J4-Pin_2)*%
X165750000Y-84380000D03*
%TO.P,J4,3,Pin_3*%
%TO.N,Net-(J11-In)*%
X165750000Y-86920000D03*
%TO.P,J4,4,Pin_4*%
%TO.N,Net-(J12-In)*%
X165750000Y-89460000D03*
%TO.P,J4,5,Pin_5*%
%TO.N,unconnected-(J4-Pin_5-Pad5)*%
X165750000Y-92000000D03*
%TO.P,J4,6,Pin_6*%
%TO.N,unconnected-(J4-Pin_6-Pad6)*%
X165750000Y-94540000D03*
%TO.P,J4,7,Pin_7*%
%TO.N,unconnected-(J4-Pin_7-Pad7)*%
X165750000Y-97080000D03*
%TO.P,J4,8,Pin_8*%
%TO.N,unconnected-(J4-Pin_8-Pad8)*%
X165750000Y-99620000D03*
%TD*%
D12*
%TO.P,J5,2,Ext*%
%TO.N,Earth*%
X131540000Y-115785000D03*
X131540000Y-110705000D03*
X126460000Y-115785000D03*
X126460000Y-110705000D03*
D13*
%TO.P,J5,1,In*%
%TO.N,Net-(J1-Pin_1)*%
X129000000Y-113245000D03*
%TD*%
%TO.P,J6,1,In*%
%TO.N,Net-(J4-Pin_1)*%
X152500000Y-68252500D03*
D12*
%TO.P,J6,2,Ext*%
%TO.N,Earth*%
X155040000Y-70792500D03*
X155040000Y-65712500D03*
X149960000Y-70792500D03*
X149960000Y-65712500D03*
%TD*%
D13*
%TO.P,J10,1,In*%
%TO.N,Net-(J1-Pin_4)*%
X129000000Y-68250000D03*
D12*
%TO.P,J10,2,Ext*%
%TO.N,Earth*%
X126460000Y-65710000D03*
X126460000Y-70790000D03*
X131540000Y-65710000D03*
X131540000Y-70790000D03*
%TD*%
D13*
%TO.P,J11,1,In*%
%TO.N,Net-(J11-In)*%
X152500000Y-98250000D03*
D12*
%TO.P,J11,2,Ext*%
%TO.N,Earth*%
X155040000Y-100790000D03*
X155040000Y-95710000D03*
X149960000Y-100790000D03*
X149960000Y-95710000D03*
%TD*%
%TO.P,J12,2,Ext*%
%TO.N,Earth*%
X149960000Y-110707500D03*
X149960000Y-115787500D03*
X155040000Y-110707500D03*
X155040000Y-115787500D03*
D13*
%TO.P,J12,1,In*%
%TO.N,Net-(J12-In)*%
X152500000Y-113247500D03*
%TD*%
%TO.P,J7,1,In*%
%TO.N,Net-(J1-Pin_2)*%
X129000000Y-98247500D03*
D12*
%TO.P,J7,2,Ext*%
%TO.N,Earth*%
X126460000Y-95707500D03*
X126460000Y-100787500D03*
X131540000Y-95707500D03*
X131540000Y-100787500D03*
%TD*%
D14*
%TO.P,J13,2,Ext*%
%TO.N,Earth*%
X104790000Y-83290000D03*
X104790000Y-78210000D03*
X99710000Y-83290000D03*
X99710000Y-78210000D03*
D15*
%TO.P,J13,1,In*%
X102250000Y-80750000D03*
%TD*%
D14*
%TO.P,J14,2,Ext*%
%TO.N,Earth*%
X104790000Y-103290000D03*
X104790000Y-98210000D03*
X99710000Y-103290000D03*
X99710000Y-98210000D03*
D15*
%TO.P,J14,1,In*%
X102250000Y-100750000D03*
%TD*%
D11*
%TO.P,J2,1,Pin_1*%
%TO.N,unconnected-(J2-Pin_1-Pad1)*%
X115750000Y-81875000D03*
D10*
%TO.P,J2,2,Pin_2*%
%TO.N,unconnected-(J2-Pin_2-Pad2)*%
X115750000Y-84415000D03*
%TO.P,J2,3,Pin_3*%
%TO.N,unconnected-(J2-Pin_3-Pad3)*%
X115750000Y-86955000D03*
%TO.P,J2,4,Pin_4*%
%TO.N,unconnected-(J2-Pin_4-Pad4)*%
X115750000Y-89495000D03*
%TO.P,J2,5,Pin_5*%
%TO.N,unconnected-(J2-Pin_5-Pad5)*%
X115750000Y-92035000D03*
%TO.P,J2,6,Pin_6*%
%TO.N,unconnected-(J2-Pin_6-Pad6)*%
X115750000Y-94575000D03*
%TO.P,J2,7,Pin_7*%
%TO.N,unconnected-(J2-Pin_7-Pad7)*%
X115750000Y-97115000D03*
%TO.P,J2,8,Pin_8*%
%TO.N,unconnected-(J2-Pin_8-Pad8)*%
X115750000Y-99655000D03*
%TD*%
D16*
%TO.N,Net-(J1-Pin_2)*%
X100510000Y-116260000D02*
X102250000Y-118000000D01*
X102250000Y-118000000D02*
X117250000Y-118000000D01*
X100510000Y-113245000D02*
X100510000Y-116260000D01*
X120500000Y-108000000D02*
X122500000Y-106000000D01*
X117250000Y-118000000D02*
X120500000Y-114750000D01*
X120500000Y-114750000D02*
X120500000Y-108000000D01*
X122500000Y-106000000D02*
X126250000Y-106000000D01*
X126250000Y-106000000D02*
X129000000Y-103250000D01*
X129000000Y-103250000D02*
X129000000Y-98247500D01*
%TO.N,Net-(J12-In)*%
X157252500Y-113247500D02*
X152500000Y-113247500D01*
X163040000Y-89460000D02*
X165750000Y-89460000D01*
X157252500Y-113247500D02*
X161000000Y-109500000D01*
X161000000Y-109500000D02*
X161000000Y-91500000D01*
X161000000Y-91500000D02*
X163040000Y-89460000D01*
%TO.N,Net-(J11-In)*%
X165750000Y-86920000D02*
X161080000Y-86920000D01*
X156500000Y-91500000D02*
X154750000Y-91500000D01*
X152500000Y-93750000D02*
X152500000Y-98250000D01*
X161080000Y-86920000D02*
X156500000Y-91500000D01*
X154750000Y-91500000D02*
X152500000Y-93750000D01*
%TO.N,Net-(J4-Pin_2)*%
X159750000Y-83250000D02*
X152500000Y-83250000D01*
%TO.N,Net-(J4-Pin_1)*%
X160752500Y-68252500D02*
X152500000Y-68252500D01*
X165750000Y-73250000D02*
X165750000Y-81840000D01*
X160752500Y-68252500D02*
X165750000Y-73250000D01*
%TO.N,Net-(J1-Pin_4)*%
X105590000Y-113245000D02*
X105590000Y-111160000D01*
X116750000Y-108500000D02*
X116750000Y-105853859D01*
X116750000Y-105853859D02*
X119000000Y-103603859D01*
X122000000Y-68250000D02*
X129000000Y-68250000D01*
X105590000Y-111160000D02*
X106500000Y-110250000D01*
X115000000Y-110250000D02*
X116750000Y-108500000D01*
X119000000Y-103603859D02*
X119000000Y-71250000D01*
X106500000Y-110250000D02*
X115000000Y-110250000D01*
X119000000Y-71250000D02*
X122000000Y-68250000D01*
%TO.N,Net-(J1-Pin_3)*%
X103050000Y-113245000D02*
X103050000Y-115300000D01*
X121500000Y-104250000D02*
X121500000Y-91500000D01*
X118750000Y-114000000D02*
X118750000Y-107000000D01*
X103050000Y-115300000D02*
X104000000Y-116250000D01*
X121500000Y-91500000D02*
X123000000Y-90000000D01*
X126750000Y-90000000D02*
X129000000Y-87750000D01*
X104000000Y-116250000D02*
X116500000Y-116250000D01*
X123000000Y-90000000D02*
X126750000Y-90000000D01*
X116500000Y-116250000D02*
X118750000Y-114000000D01*
X118750000Y-107000000D02*
X121500000Y-104250000D01*
X129000000Y-87750000D02*
X129000000Y-83247500D01*
%TO.N,Net-(J1-Pin_1)*%
X97970000Y-113245000D02*
X97970000Y-116470000D01*
X97970000Y-116470000D02*
X101000000Y-119500000D01*
X118015610Y-119500000D02*
X124270610Y-113245000D01*
X124270610Y-113245000D02*
X129000000Y-113245000D01*
X101000000Y-119500000D02*
X118015610Y-119500000D01*
%TO.N,Net-(J4-Pin_2)*%
X165750000Y-84380000D02*
X160880000Y-84380000D01*
X160880000Y-84380000D02*
X159750000Y-83250000D01*
D17*
%TO.N,unconnected-(J4-Pin_8-Pad8)*%
X165875000Y-99655000D02*
X165780000Y-99750000D01*
%TD*%
%TA.AperFunction,Conductor*%
%TO.N,Earth*%
G36*
X170692539Y-60770185D02*
G01*
X170738294Y-60822989D01*
X170749500Y-60874500D01*
X170749500Y-110625500D01*
X170729815Y-110692539D01*
X170677011Y-110738294D01*
X170625500Y-110749500D01*
X170447808Y-110749500D01*
X169844552Y-110785990D01*
X169244600Y-110858839D01*
X169244597Y-110858839D01*
X169244593Y-110858840D01*
X168985685Y-110906286D01*
X168650124Y-110967780D01*
X168063319Y-111112414D01*
X167964267Y-111143279D01*
X167964266Y-111143278D01*
X167961246Y-111144218D01*
X167959400Y-111144693D01*
X167951787Y-111147166D01*
X167950884Y-111147448D01*
X167950824Y-111147468D01*
X167486317Y-111292215D01*
X167375165Y-111334368D01*
X167375166Y-111334369D01*
X167372345Y-111335438D01*
X167361785Y-111338870D01*
X167327383Y-111352490D01*
X167326512Y-111352821D01*
X166921232Y-111506524D01*
X166798713Y-111561664D01*
X166798712Y-111561663D01*
X166796073Y-111562850D01*
X166777541Y-111570188D01*
X166728584Y-111593225D01*
X166727525Y-111593702D01*
X166727481Y-111593723D01*
X166370111Y-111754563D01*
X166237146Y-111824347D01*
X166237147Y-111824348D01*
X166234755Y-111825603D01*
X166208974Y-111837735D01*
X166152814Y-111868609D01*
X166151717Y-111869185D01*
X166151713Y-111869185D01*
X165834976Y-112035423D01*
X165834961Y-112035431D01*
X165692555Y-112121519D01*
X165692554Y-112121519D01*
X165690350Y-112122850D01*
X165658329Y-112140455D01*
X165600122Y-112177393D01*
X165598910Y-112178127D01*
X165598871Y-112178152D01*
X165317771Y-112348084D01*
X165317744Y-112348102D01*
X165167019Y-112452138D01*
X165167020Y-112452139D01*
X165165027Y-112453514D01*
X165127779Y-112477153D01*
X165070692Y-112518628D01*
X165069436Y-112519496D01*
X164820381Y-112691406D01*
X164662531Y-112815072D01*
X164660722Y-112816488D01*
X164619417Y-112846499D01*
X164565780Y-112890871D01*
X164564425Y-112891933D01*
X164344638Y-113064127D01*
X164181005Y-113209093D01*
X164181004Y-113209094D01*
X164179432Y-113210486D01*
X164135249Y-113247038D01*
X164086533Y-113292785D01*
X164085145Y-113294015D01*
X163892249Y-113464908D01*
X163892229Y-113464927D01*
X163722840Y-113634315D01*
X163677187Y-113677187D01*
X163634315Y-113722840D01*
X163464927Y-113892229D01*
X163464908Y-113892249D01*
X163294016Y-114085142D01*
X163294017Y-114085143D01*
X163292789Y-114086528D01*
X163247038Y-114135249D01*
X163210486Y-114179432D01*
X163209094Y-114181004D01*
X163209093Y-114181005D01*
X163064127Y-114344638D01*
X162891933Y-114564423D01*
X162891934Y-114564424D01*
X162890875Y-114565775D01*
X162846499Y-114619417D01*
X162816504Y-114660701D01*
X162815077Y-114662523D01*
X162815072Y-114662531D01*
X162691406Y-114820381D01*
X162519496Y-115069436D01*
X162518628Y-115070692D01*
X162477153Y-115127779D01*
X162453514Y-115165027D01*
X162452139Y-115167020D01*
X162452137Y-115167021D01*
X162348102Y-115317744D01*
X162348084Y-115317771D01*
X162178152Y-115598871D01*
X162178151Y-115598870D01*
X162177389Y-115600128D01*
X162140455Y-115658329D01*
X162122857Y-115690338D01*
X162121531Y-115692533D01*
X162121519Y-115692555D01*
X162035431Y-115834961D01*
X162035423Y-115834976D01*
X161869184Y-116151716D01*
X161869185Y-116151717D01*
X161868609Y-116152814D01*
X161837735Y-116208974D01*
X161825603Y-116234755D01*
X161824348Y-116237147D01*
X161824346Y-116237148D01*
X161754563Y-116370111D01*
X161593723Y-116727481D01*
X161593252Y-116728526D01*
X161570188Y-116777541D01*
X161562850Y-116796074D01*
X161561672Y-116798692D01*
X161561664Y-116798713D01*
X161506524Y-116921232D01*
X161352821Y-117326512D01*
X161352490Y-117327383D01*
X161338870Y-117361785D01*
X161335440Y-117372338D01*
X161334369Y-117375165D01*
X161292215Y-117486317D01*
X161147468Y-117950824D01*
X161147467Y-117950826D01*
X161147187Y-117951724D01*
X161144693Y-117959400D01*
X161144219Y-117961244D01*
X161143286Y-117964239D01*
X161143279Y-117964267D01*
X161112414Y-118063319D01*
X160967780Y-118650124D01*
X160858839Y-119244600D01*
X160785990Y-119844552D01*
X160749500Y-120447808D01*
X160749500Y-120625500D01*
X160729815Y-120692539D01*
X160677011Y-120738294D01*
X160625500Y-120749500D01*
X90874500Y-120749500D01*
X90807461Y-120729815D01*
X90761706Y-120677011D01*
X90750500Y-120625500D01*
X90750500Y-112347135D01*
X96619500Y-112347135D01*
X96619500Y-114142870D01*
X96619501Y-114142876D01*
X96625908Y-114202483D01*
X96676202Y-114337328D01*
X96676206Y-114337335D01*
X96762452Y-114452544D01*
X96762455Y-114452547D01*
X96877664Y-114538793D01*
X96877671Y-114538797D01*
X96922618Y-114555561D01*
X97012517Y-114589091D01*
X97072127Y-114595500D01*
X97095497Y-114595499D01*
X97162536Y-114615181D01*
X97208292Y-114667983D01*
X97219500Y-114719499D01*
X97219500Y-116543918D01*
X97219500Y-116543920D01*
X97219499Y-116543920D01*
X97248340Y-116688907D01*
X97248343Y-116688917D01*
X97304913Y-116825490D01*
X97304914Y-116825491D01*
X97304916Y-116825495D01*
X97309897Y-116832949D01*
X97309898Y-116832952D01*
X97387046Y-116948414D01*
X97387052Y-116948421D01*
X100417049Y-119978416D01*
X100521583Y-120082950D01*
X100521585Y-120082952D01*
X100644498Y-120165080D01*
X100644511Y-120165087D01*
X100781082Y-120221656D01*
X100781087Y-120221658D01*
X100781091Y-120221658D01*
X100781092Y-120221659D01*
X100926079Y-120250500D01*
X100926082Y-120250500D01*
X118089530Y-120250500D01*
X118187072Y-120231096D01*
X118234523Y-120221658D01*
X118371105Y-120165084D01*
X118420339Y-120132186D01*
X118494026Y-120082952D01*
X124545159Y-114031819D01*
X124606482Y-113998334D01*
X124632840Y-113995500D01*
X127778787Y-113995500D01*
X127845826Y-114015185D01*
X127879105Y-114046614D01*
X127948920Y-114142707D01*
X128102293Y-114296080D01*
X128227753Y-114387231D01*
X128277771Y-114423571D01*
X128471034Y-114522044D01*
X128574175Y-114555556D01*
X128677318Y-114589069D01*
X128891549Y-114623000D01*
X128891550Y-114623000D01*
X129108450Y-114623000D01*
X129108451Y-114623000D01*
X129322682Y-114589069D01*
X129528968Y-114522043D01*
X129722229Y-114423571D01*
X129897707Y-114296080D01*
X130051080Y-114142707D01*
X130178571Y-113967229D01*
X130277043Y-113773968D01*
X130344069Y-113567682D01*
X130378000Y-113353451D01*
X130378000Y-113136549D01*
X130344069Y-112922318D01*
X130309223Y-112815072D01*
X130277044Y-112716034D01*
X130178571Y-112522771D01*
X130127254Y-112452138D01*
X130051080Y-112347293D01*
X129897707Y-112193920D01*
X129874959Y-112177393D01*
X129722228Y-112066428D01*
X129528965Y-111967955D01*
X129322683Y-111900931D01*
X129215566Y-111883965D01*
X129108451Y-111867000D01*
X128891549Y-111867000D01*
X128877754Y-111869185D01*
X128677316Y-111900931D01*
X128471034Y-111967955D01*
X128277771Y-112066428D01*
X128102292Y-112193920D01*
X127948920Y-112347292D01*
X127879106Y-112443385D01*
X127823776Y-112486051D01*
X127778787Y-112494500D01*
X124196690Y-112494500D01*
X124051702Y-112523340D01*
X124051692Y-112523343D01*
X123915119Y-112579913D01*
X123915117Y-112579914D01*
X123874255Y-112607218D01*
X123874253Y-112607219D01*
X123792199Y-112662043D01*
X123792194Y-112662047D01*
X121445234Y-115009007D01*
X121383911Y-115042492D01*
X121314219Y-115037508D01*
X121258286Y-114995636D01*
X121233869Y-114930172D01*
X121235936Y-114897133D01*
X121250500Y-114823919D01*
X121250500Y-108362229D01*
X121270185Y-108295190D01*
X121286819Y-108274548D01*
X122774548Y-106786819D01*
X122835871Y-106753334D01*
X122862229Y-106750500D01*
X126323920Y-106750500D01*
X126421462Y-106731096D01*
X126468913Y-106721658D01*
X126605495Y-106665084D01*
X126696377Y-106604359D01*
X126728416Y-106582952D01*
X129582951Y-103728416D01*
X129665084Y-103605495D01*
X129721658Y-103468913D01*
X129750500Y-103323918D01*
X129750500Y-103176083D01*
X129750500Y-99468712D01*
X129770185Y-99401673D01*
X129801614Y-99368394D01*
X129897707Y-99298580D01*
X130051080Y-99145207D01*
X130178571Y-98969729D01*
X130277043Y-98776468D01*
X130344069Y-98570182D01*
X130378000Y-98355951D01*
X130378000Y-98139049D01*
X130344069Y-97924818D01*
X130277856Y-97721034D01*
X130277044Y-97718534D01*
X130178571Y-97525271D01*
X130110253Y-97431239D01*
X130051080Y-97349793D01*
X129897707Y-97196420D01*
X129722229Y-97068929D01*
X129722230Y-97068929D01*
X129722228Y-97068928D01*
X129528965Y-96970455D01*
X129322683Y-96903431D01*
X129215566Y-96886465D01*
X129108451Y-96869500D01*
X128891549Y-96869500D01*
X128820138Y-96880810D01*
X128677316Y-96903431D01*
X128471034Y-96970455D01*
X128277771Y-97068928D01*
X128102292Y-97196420D01*
X127948920Y-97349792D01*
X127821428Y-97525271D01*
X127722955Y-97718534D01*
X127655931Y-97924816D01*
X127622000Y-98139049D01*
X127622000Y-98355950D01*
X127655931Y-98570183D01*
X127722955Y-98776465D01*
X127821428Y-98969728D01*
X127948920Y-99145207D01*
X128102296Y-99298583D01*
X128164345Y-99343663D01*
X128198384Y-99368394D01*
X128241051Y-99423722D01*
X128249500Y-99468712D01*
X128249500Y-102887770D01*
X128229815Y-102954809D01*
X128213181Y-102975451D01*
X125975451Y-105213181D01*
X125914128Y-105246666D01*
X125887770Y-105249500D01*
X122426080Y-105249500D01*
X122281092Y-105278340D01*
X122281082Y-105278343D01*
X122144511Y-105334912D01*
X122144499Y-105334919D01*
X122083858Y-105375439D01*
X122083852Y-105375443D01*
X122068389Y-105385775D01*
X122021581Y-105417050D01*
X122021580Y-105417051D01*
X119917052Y-107521578D01*
X119917049Y-107521581D01*
X119876043Y-107582951D01*
X119876044Y-107582952D01*
X119834914Y-107644508D01*
X119778343Y-107781082D01*
X119778340Y-107781092D01*
X119749500Y-107926079D01*
X119749500Y-114387770D01*
X119729815Y-114454809D01*
X119713181Y-114475451D01*
X116975451Y-117213181D01*
X116914128Y-117246666D01*
X116887770Y-117249500D01*
X102612229Y-117249500D01*
X102545190Y-117229815D01*
X102524548Y-117213181D01*
X101296819Y-115985451D01*
X101263334Y-115924128D01*
X101260500Y-115897770D01*
X101260500Y-114432220D01*
X101280185Y-114365181D01*
X101311614Y-114331902D01*
X101389792Y-114275104D01*
X101540104Y-114124792D01*
X101540106Y-114124788D01*
X101540109Y-114124786D01*
X101665048Y-113952820D01*
X101665047Y-113952820D01*
X101665051Y-113952816D01*
X101669514Y-113944054D01*
X101717488Y-113893259D01*
X101785308Y-113876463D01*
X101851444Y-113898999D01*
X101890486Y-113944056D01*
X101894951Y-113952820D01*
X102019890Y-114124786D01*
X102019896Y-114124792D01*
X102170208Y-114275104D01*
X102248384Y-114331902D01*
X102291051Y-114387231D01*
X102299500Y-114432220D01*
X102299500Y-115373918D01*
X102299500Y-115373920D01*
X102299499Y-115373920D01*
X102328340Y-115518907D01*
X102328343Y-115518917D01*
X102384914Y-115655492D01*
X102384915Y-115655494D01*
X102384916Y-115655495D01*
X102408197Y-115690338D01*
X102417812Y-115704727D01*
X102417813Y-115704730D01*
X102467046Y-115778414D01*
X102467052Y-115778421D01*
X103521583Y-116832951D01*
X103521586Y-116832954D01*
X103551058Y-116852645D01*
X103595270Y-116882186D01*
X103644505Y-116915084D01*
X103644506Y-116915084D01*
X103644507Y-116915085D01*
X103644509Y-116915086D01*
X103781082Y-116971656D01*
X103781087Y-116971658D01*
X103781091Y-116971658D01*
X103781092Y-116971659D01*
X103926079Y-117000500D01*
X103926082Y-117000500D01*
X116573920Y-117000500D01*
X116671462Y-116981096D01*
X116718913Y-116971658D01*
X116855495Y-116915084D01*
X116904729Y-116882186D01*
X116904734Y-116882183D01*
X116929071Y-116865921D01*
X116978416Y-116832952D01*
X119332952Y-114478415D01*
X119369597Y-114423571D01*
X119415084Y-114355495D01*
X119457343Y-114253473D01*
X119471659Y-114218912D01*
X119498312Y-114084916D01*
X119500500Y-114073918D01*
X119500500Y-107362229D01*
X119520185Y-107295190D01*
X119536819Y-107274548D01*
X122082948Y-104728419D01*
X122082951Y-104728416D01*
X122165084Y-104605495D01*
X122221658Y-104468913D01*
X122250500Y-104323918D01*
X122250500Y-104176083D01*
X122250500Y-91862229D01*
X122270185Y-91795190D01*
X122286819Y-91774548D01*
X123274548Y-90786819D01*
X123335871Y-90753334D01*
X123362229Y-90750500D01*
X126823920Y-90750500D01*
X126953660Y-90724692D01*
X126968913Y-90721658D01*
X127105495Y-90665084D01*
X127180375Y-90615051D01*
X127228416Y-90582952D01*
X129582952Y-88228415D01*
X129620943Y-88171557D01*
X129665084Y-88105495D01*
X129688518Y-88048920D01*
X129721659Y-87968912D01*
X129750500Y-87823917D01*
X129750500Y-87676082D01*
X129750500Y-84468712D01*
X129770185Y-84401673D01*
X129801614Y-84368394D01*
X129897707Y-84298580D01*
X130051080Y-84145207D01*
X130178571Y-83969729D01*
X130277043Y-83776468D01*
X130344069Y-83570182D01*
X130378000Y-83355951D01*
X130378000Y-83139049D01*
X130344069Y-82924818D01*
X130294703Y-82772883D01*
X130277044Y-82718534D01*
X130178571Y-82525271D01*
X130145546Y-82479815D01*
X130051080Y-82349793D01*
X129897707Y-82196420D01*
X129722229Y-82068929D01*
X129722230Y-82068929D01*
X129722228Y-82068928D01*
X129528965Y-81970455D01*
X129322683Y-81903431D01*
X129215566Y-81886465D01*
X129108451Y-81869500D01*
X128891549Y-81869500D01*
X128875765Y-81872000D01*
X128677316Y-81903431D01*
X128471034Y-81970455D01*
X128277771Y-82068928D01*
X128102292Y-82196420D01*
X127948920Y-82349792D01*
X127821428Y-82525271D01*
X127722955Y-82718534D01*
X127655931Y-82924816D01*
X127630949Y-83082546D01*
X127622000Y-83139049D01*
X127622000Y-83355951D01*
X127626866Y-83386673D01*
X127655931Y-83570183D01*
X127722955Y-83776465D01*
X127821428Y-83969728D01*
X127948920Y-84145207D01*
X128102296Y-84298583D01*
X128164345Y-84343663D01*
X128198384Y-84368394D01*
X128241051Y-84423722D01*
X128249500Y-84468712D01*
X128249500Y-87387770D01*
X128229815Y-87454809D01*
X128213181Y-87475451D01*
X126475451Y-89213181D01*
X126414128Y-89246666D01*
X126387770Y-89249500D01*
X122926080Y-89249500D01*
X122781092Y-89278340D01*
X122781082Y-89278343D01*
X122644511Y-89334912D01*
X122644498Y-89334919D01*
X122521584Y-89417048D01*
X122521580Y-89417051D01*
X120917048Y-91021583D01*
X120911546Y-91029817D01*
X120906114Y-91037949D01*
X120870393Y-91091409D01*
X120834914Y-91144507D01*
X120778343Y-91281082D01*
X120778340Y-91281092D01*
X120749500Y-91426079D01*
X120749500Y-103887770D01*
X120729815Y-103954809D01*
X120713181Y-103975451D01*
X118167050Y-106521581D01*
X118167044Y-106521589D01*
X118131011Y-106575516D01*
X118131012Y-106575517D01*
X118084913Y-106644508D01*
X118028343Y-106781082D01*
X118028340Y-106781092D01*
X117999500Y-106926079D01*
X117999500Y-113637770D01*
X117979815Y-113704809D01*
X117963181Y-113725451D01*
X116225451Y-115463181D01*
X116164128Y-115496666D01*
X116137770Y-115499500D01*
X104362230Y-115499500D01*
X104295191Y-115479815D01*
X104274549Y-115463181D01*
X103836819Y-115025451D01*
X103803334Y-114964128D01*
X103800500Y-114937770D01*
X103800500Y-114432220D01*
X103820185Y-114365181D01*
X103851614Y-114331902D01*
X103929792Y-114275104D01*
X104080104Y-114124792D01*
X104080106Y-114124788D01*
X104080109Y-114124786D01*
X104205048Y-113952820D01*
X104205047Y-113952820D01*
X104205051Y-113952816D01*
X104209514Y-113944054D01*
X104257488Y-113893259D01*
X104325308Y-113876463D01*
X104391444Y-113898999D01*
X104430486Y-113944056D01*
X104434951Y-113952820D01*
X104559890Y-114124786D01*
X104710213Y-114275109D01*
X104882179Y-114400048D01*
X104882181Y-114400049D01*
X104882184Y-114400051D01*
X105071588Y-114496557D01*
X105273757Y-114562246D01*
X105483713Y-114595500D01*
X105483714Y-114595500D01*
X105696286Y-114595500D01*
X105696287Y-114595500D01*
X105906243Y-114562246D01*
X106108412Y-114496557D01*
X106297816Y-114400051D01*
X106384138Y-114337335D01*
X106469786Y-114275109D01*
X106469788Y-114275106D01*
X106469792Y-114275104D01*
X106620104Y-114124792D01*
X106620106Y-114124788D01*
X106620109Y-114124786D01*
X106745048Y-113952820D01*
X106745047Y-113952820D01*
X106745051Y-113952816D01*
X106749514Y-113944054D01*
X106797488Y-113893259D01*
X106865308Y-113876463D01*
X106931444Y-113898999D01*
X106970486Y-113944056D01*
X106974951Y-113952820D01*
X107099890Y-114124786D01*
X107250213Y-114275109D01*
X107422179Y-114400048D01*
X107422181Y-114400049D01*
X107422184Y-114400051D01*
X107611588Y-114496557D01*
X107813757Y-114562246D01*
X108023713Y-114595500D01*
X108023714Y-114595500D01*
X108236286Y-114595500D01*
X108236287Y-114595500D01*
X108446243Y-114562246D01*
X108648412Y-114496557D01*
X108837816Y-114400051D01*
X108924138Y-114337335D01*
X109009786Y-114275109D01*
X109009788Y-114275106D01*
X109009792Y-114275104D01*
X109160104Y-114124792D01*
X109160106Y-114124788D01*
X109160109Y-114124786D01*
X109285048Y-113952820D01*
X109285047Y-113952820D01*
X109285051Y-113952816D01*
X109289514Y-113944054D01*
X109337488Y-113893259D01*
X109405308Y-113876463D01*
X109471444Y-113898999D01*
X109510486Y-113944056D01*
X109514951Y-113952820D01*
X109639890Y-114124786D01*
X109790213Y-114275109D01*
X109962179Y-114400048D01*
X109962181Y-114400049D01*
X109962184Y-114400051D01*
X110151588Y-114496557D01*
X110353757Y-114562246D01*
X110563713Y-114595500D01*
X110563714Y-114595500D01*
X110776286Y-114595500D01*
X110776287Y-114595500D01*
X110986243Y-114562246D01*
X111188412Y-114496557D01*
X111377816Y-114400051D01*
X111464138Y-114337335D01*
X111549786Y-114275109D01*
X111549788Y-114275106D01*
X111549792Y-114275104D01*
X111700104Y-114124792D01*
X111700106Y-114124788D01*
X111700109Y-114124786D01*
X111825048Y-113952820D01*
X111825047Y-113952820D01*
X111825051Y-113952816D01*
X111829514Y-113944054D01*
X111877488Y-113893259D01*
X111945308Y-113876463D01*
X112011444Y-113898999D01*
X112050486Y-113944056D01*
X112054951Y-113952820D01*
X112179890Y-114124786D01*
X112330213Y-114275109D01*
X112502179Y-114400048D01*
X112502181Y-114400049D01*
X112502184Y-114400051D01*
X112691588Y-114496557D01*
X112893757Y-114562246D01*
X113103713Y-114595500D01*
X113103714Y-114595500D01*
X113316286Y-114595500D01*
X113316287Y-114595500D01*
X113526243Y-114562246D01*
X113728412Y-114496557D01*
X113917816Y-114400051D01*
X114004138Y-114337335D01*
X114089786Y-114275109D01*
X114089788Y-114275106D01*
X114089792Y-114275104D01*
X114240104Y-114124792D01*
X114240106Y-114124788D01*
X114240109Y-114124786D01*
X114365048Y-113952820D01*
X114365047Y-113952820D01*
X114365051Y-113952816D01*
X114369514Y-113944054D01*
X114417488Y-113893259D01*
X114485308Y-113876463D01*
X114551444Y-113898999D01*
X114590486Y-113944056D01*
X114594951Y-113952820D01*
X114719890Y-114124786D01*
X114870213Y-114275109D01*
X115042179Y-114400048D01*
X115042181Y-114400049D01*
X115042184Y-114400051D01*
X115231588Y-114496557D01*
X115433757Y-114562246D01*
X115643713Y-114595500D01*
X115643714Y-114595500D01*
X115856286Y-114595500D01*
X115856287Y-114595500D01*
X116066243Y-114562246D01*
X116268412Y-114496557D01*
X116457816Y-114400051D01*
X116544138Y-114337335D01*
X116629786Y-114275109D01*
X116629788Y-114275106D01*
X116629792Y-114275104D01*
X116780104Y-114124792D01*
X116780106Y-114124788D01*
X116780109Y-114124786D01*
X116905048Y-113952820D01*
X116905047Y-113952820D01*
X116905051Y-113952816D01*
X117001557Y-113763412D01*
X117067246Y-113561243D01*
X117100500Y-113351287D01*
X117100500Y-113138713D01*
X117067246Y-112928757D01*
X117001557Y-112726588D01*
X116905051Y-112537184D01*
X116905049Y-112537181D01*
X116905048Y-112537179D01*
X116780109Y-112365213D01*
X116629786Y-112214890D01*
X116457820Y-112089951D01*
X116268414Y-111993444D01*
X116268413Y-111993443D01*
X116268412Y-111993443D01*
X116066243Y-111927754D01*
X116066241Y-111927753D01*
X116066240Y-111927753D01*
X115896890Y-111900931D01*
X115856287Y-111894500D01*
X115643713Y-111894500D01*
X115603110Y-111900931D01*
X115433760Y-111927753D01*
X115231585Y-111993444D01*
X115042179Y-112089951D01*
X114870213Y-112214890D01*
X114719890Y-112365213D01*
X114594949Y-112537182D01*
X114590484Y-112545946D01*
X114542509Y-112596742D01*
X114474688Y-112613536D01*
X114408553Y-112590998D01*
X114369516Y-112545946D01*
X114365050Y-112537182D01*
X114240109Y-112365213D01*
X114089786Y-112214890D01*
X113917820Y-112089951D01*
X113728414Y-111993444D01*
X113728413Y-111993443D01*
X113728412Y-111993443D01*
X113526243Y-111927754D01*
X113526241Y-111927753D01*
X113526240Y-111927753D01*
X113356890Y-111900931D01*
X113316287Y-111894500D01*
X113103713Y-111894500D01*
X113063110Y-111900931D01*
X112893760Y-111927753D01*
X112691585Y-111993444D01*
X112502179Y-112089951D01*
X112330213Y-112214890D01*
X112179890Y-112365213D01*
X112054949Y-112537182D01*
X112050484Y-112545946D01*
X112002509Y-112596742D01*
X111934688Y-112613536D01*
X111868553Y-112590998D01*
X111829516Y-112545946D01*
X111825050Y-112537182D01*
X111700109Y-112365213D01*
X111549786Y-112214890D01*
X111377820Y-112089951D01*
X111188414Y-111993444D01*
X111188413Y-111993443D01*
X111188412Y-111993443D01*
X110986243Y-111927754D01*
X110986241Y-111927753D01*
X110986240Y-111927753D01*
X110816890Y-111900931D01*
X110776287Y-111894500D01*
X110563713Y-111894500D01*
X110523110Y-111900931D01*
X110353760Y-111927753D01*
X110151585Y-111993444D01*
X109962179Y-112089951D01*
X109790213Y-112214890D01*
X109639890Y-112365213D01*
X109514949Y-112537182D01*
X109510484Y-112545946D01*
X109462509Y-112596742D01*
X109394688Y-112613536D01*
X109328553Y-112590998D01*
X109289516Y-112545946D01*
X109285050Y-112537182D01*
X109160109Y-112365213D01*
X109009786Y-112214890D01*
X108837820Y-112089951D01*
X108648414Y-111993444D01*
X108648413Y-111993443D01*
X108648412Y-111993443D01*
X108446243Y-111927754D01*
X108446241Y-111927753D01*
X108446240Y-111927753D01*
X108276890Y-111900931D01*
X108236287Y-111894500D01*
X108023713Y-111894500D01*
X107983110Y-111900931D01*
X107813760Y-111927753D01*
X107611585Y-111993444D01*
X107422179Y-112089951D01*
X107250213Y-112214890D01*
X107099890Y-112365213D01*
X106974949Y-112537182D01*
X106970484Y-112545946D01*
X106922509Y-112596742D01*
X106854688Y-112613536D01*
X106788553Y-112590998D01*
X106749516Y-112545946D01*
X106745050Y-112537182D01*
X106620109Y-112365213D01*
X106469794Y-112214898D01*
X106469788Y-112214893D01*
X106391615Y-112158097D01*
X106348949Y-112102767D01*
X106340500Y-112057779D01*
X106340500Y-111522229D01*
X106360185Y-111455190D01*
X106376819Y-111434548D01*
X106774548Y-111036819D01*
X106835871Y-111003334D01*
X106862229Y-111000500D01*
X115073920Y-111000500D01*
X115171462Y-110981096D01*
X115218913Y-110971658D01*
X115355495Y-110915084D01*
X115404729Y-110882186D01*
X115478416Y-110832952D01*
X117332952Y-108978416D01*
X117382186Y-108904729D01*
X117415084Y-108855495D01*
X117447042Y-108778342D01*
X117471659Y-108718912D01*
X117500500Y-108573917D01*
X117500500Y-108426082D01*
X117500500Y-106216088D01*
X117520185Y-106149049D01*
X117536819Y-106128407D01*
X119582950Y-104082276D01*
X119582952Y-104082274D01*
X119637591Y-104000500D01*
X119665084Y-103959354D01*
X119717442Y-103832951D01*
X119721659Y-103822771D01*
X119750500Y-103677776D01*
X119750500Y-103529941D01*
X119750500Y-71612229D01*
X119770185Y-71545190D01*
X119786819Y-71524548D01*
X122274548Y-69036819D01*
X122335871Y-69003334D01*
X122362229Y-69000500D01*
X127778787Y-69000500D01*
X127845826Y-69020185D01*
X127879105Y-69051614D01*
X127948920Y-69147707D01*
X128102293Y-69301080D01*
X128182764Y-69359545D01*
X128277771Y-69428571D01*
X128471034Y-69527044D01*
X128574175Y-69560556D01*
X128677318Y-69594069D01*
X128891549Y-69628000D01*
X128891550Y-69628000D01*
X129108450Y-69628000D01*
X129108451Y-69628000D01*
X129322682Y-69594069D01*
X129528968Y-69527043D01*
X129722229Y-69428571D01*
X129897707Y-69301080D01*
X130051080Y-69147707D01*
X130178571Y-68972229D01*
X130277043Y-68778968D01*
X130344069Y-68572682D01*
X130378000Y-68358451D01*
X130378000Y-68144049D01*
X151122000Y-68144049D01*
X151122000Y-68360950D01*
X151155931Y-68575183D01*
X151222955Y-68781465D01*
X151321428Y-68974728D01*
X151368356Y-69039319D01*
X151448920Y-69150207D01*
X151602293Y-69303580D01*
X151777771Y-69431071D01*
X151966127Y-69527044D01*
X151971034Y-69529544D01*
X152074175Y-69563056D01*
X152177318Y-69596569D01*
X152391549Y-69630500D01*
X152391550Y-69630500D01*
X152608450Y-69630500D01*
X152608451Y-69630500D01*
X152822682Y-69596569D01*
X153028968Y-69529543D01*
X153222229Y-69431071D01*
X153397707Y-69303580D01*
X153551080Y-69150207D01*
X153620894Y-69054114D01*
X153676224Y-69011449D01*
X153721213Y-69003000D01*
X160390270Y-69003000D01*
X160457309Y-69022685D01*
X160477951Y-69039319D01*
X164963181Y-73524548D01*
X164996666Y-73585871D01*
X164999500Y-73612229D01*
X164999500Y-80365500D01*
X164979815Y-80432539D01*
X164927011Y-80478294D01*
X164875505Y-80489500D01*
X164852132Y-80489500D01*
X164852123Y-80489501D01*
X164792516Y-80495908D01*
X164657671Y-80546202D01*
X164657664Y-80546206D01*
X164542455Y-80632452D01*
X164542452Y-80632455D01*
X164456206Y-80747664D01*
X164456202Y-80747671D01*
X164405908Y-80882517D01*
X164399501Y-80942116D01*
X164399501Y-80942123D01*
X164399500Y-80942135D01*
X164399500Y-82737870D01*
X164399501Y-82737876D01*
X164405908Y-82797483D01*
X164456202Y-82932328D01*
X164456206Y-82932335D01*
X164542452Y-83047544D01*
X164542455Y-83047547D01*
X164657664Y-83133793D01*
X164657671Y-83133797D01*
X164789082Y-83182810D01*
X164845016Y-83224681D01*
X164869433Y-83290145D01*
X164854582Y-83358418D01*
X164833431Y-83386673D01*
X164719892Y-83500212D01*
X164663097Y-83578385D01*
X164607767Y-83621051D01*
X164562779Y-83629500D01*
X161242229Y-83629500D01*
X161175190Y-83609815D01*
X161154548Y-83593181D01*
X160228418Y-82667049D01*
X160228416Y-82667047D01*
X160183519Y-82637049D01*
X160153720Y-82617139D01*
X160105495Y-82584916D01*
X160105488Y-82584912D01*
X159968917Y-82528343D01*
X159968907Y-82528340D01*
X159823920Y-82499500D01*
X159823918Y-82499500D01*
X153721213Y-82499500D01*
X153654174Y-82479815D01*
X153620894Y-82448385D01*
X153551079Y-82352292D01*
X153397707Y-82198920D01*
X153222228Y-82071428D01*
X153028965Y-81972955D01*
X152822683Y-81905931D01*
X152715566Y-81888965D01*
X152608451Y-81872000D01*
X152391549Y-81872000D01*
X152320138Y-81883310D01*
X152177316Y-81905931D01*
X151971034Y-81972955D01*
X151777771Y-82071428D01*
X151602292Y-82198920D01*
X151448920Y-82352292D01*
X151321428Y-82527771D01*
X151222955Y-82721034D01*
X151155931Y-82927316D01*
X151131345Y-83082546D01*
X151122000Y-83141549D01*
X151122000Y-83358451D01*
X151126470Y-83386673D01*
X151155931Y-83572683D01*
X151222955Y-83778965D01*
X151321428Y-83972228D01*
X151448920Y-84147707D01*
X151602292Y-84301079D01*
X151777771Y-84428571D01*
X151971034Y-84527044D01*
X152074175Y-84560556D01*
X152177318Y-84594069D01*
X152391549Y-84628000D01*
X152391550Y-84628000D01*
X152608450Y-84628000D01*
X152608451Y-84628000D01*
X152822682Y-84594069D01*
X153028968Y-84527043D01*
X153222229Y-84428571D01*
X153397707Y-84301080D01*
X153551080Y-84147707D01*
X153620894Y-84051614D01*
X153676224Y-84008949D01*
X153721213Y-84000500D01*
X159387770Y-84000500D01*
X159454809Y-84020185D01*
X159475451Y-84036819D01*
X160401580Y-84962948D01*
X160401584Y-84962951D01*
X160524498Y-85045080D01*
X160524511Y-85045087D01*
X160627669Y-85087816D01*
X160661087Y-85101658D01*
X160661091Y-85101658D01*
X160661092Y-85101659D01*
X160806079Y-85130500D01*
X160806082Y-85130500D01*
X160953917Y-85130500D01*
X164562779Y-85130500D01*
X164629818Y-85150185D01*
X164663097Y-85181615D01*
X164719892Y-85259788D01*
X164870213Y-85410109D01*
X165042182Y-85535050D01*
X165050946Y-85539516D01*
X165101742Y-85587491D01*
X165118536Y-85655312D01*
X165095998Y-85721447D01*
X165050946Y-85760484D01*
X165042182Y-85764949D01*
X164870213Y-85889890D01*
X164719892Y-86040211D01*
X164663097Y-86118385D01*
X164607767Y-86161051D01*
X164562779Y-86169500D01*
X161006080Y-86169500D01*
X160861092Y-86198340D01*
X160861082Y-86198343D01*
X160724509Y-86254913D01*
X160724507Y-86254914D01*
X160683645Y-86282218D01*
X160683644Y-86282219D01*
X160601581Y-86337050D01*
X160601580Y-86337051D01*
X156225451Y-90713181D01*
X156164128Y-90746666D01*
X156137770Y-90749500D01*
X154676076Y-90749500D01*
X154647242Y-90755234D01*
X154647243Y-90755235D01*
X154531092Y-90778339D01*
X154531086Y-90778341D01*
X154453450Y-90810500D01*
X154394509Y-90834914D01*
X154394499Y-90834919D01*
X154379489Y-90844949D01*
X154327108Y-90879949D01*
X154327107Y-90879950D01*
X154271586Y-90917046D01*
X154271581Y-90917050D01*
X151917048Y-93271583D01*
X151899665Y-93297599D01*
X151882398Y-93323443D01*
X151834919Y-93394499D01*
X151834912Y-93394511D01*
X151778343Y-93531082D01*
X151778340Y-93531092D01*
X151749500Y-93676079D01*
X151749500Y-97028787D01*
X151729815Y-97095826D01*
X151698385Y-97129105D01*
X151602296Y-97198917D01*
X151602290Y-97198922D01*
X151448920Y-97352292D01*
X151321428Y-97527771D01*
X151222955Y-97721034D01*
X151155931Y-97927316D01*
X151145245Y-97994786D01*
X151122000Y-98141549D01*
X151122000Y-98358451D01*
X151131978Y-98421447D01*
X151155931Y-98572683D01*
X151222955Y-98778965D01*
X151320154Y-98969728D01*
X151321429Y-98972229D01*
X151448920Y-99147707D01*
X151602293Y-99301080D01*
X151654156Y-99338760D01*
X151777771Y-99428571D01*
X151971034Y-99527044D01*
X152074175Y-99560556D01*
X152177318Y-99594069D01*
X152391549Y-99628000D01*
X152391550Y-99628000D01*
X152608450Y-99628000D01*
X152608451Y-99628000D01*
X152822682Y-99594069D01*
X153028968Y-99527043D01*
X153222229Y-99428571D01*
X153397707Y-99301080D01*
X153551080Y-99147707D01*
X153678571Y-98972229D01*
X153777043Y-98778968D01*
X153844069Y-98572682D01*
X153878000Y-98358451D01*
X153878000Y-98141549D01*
X153844069Y-97927318D01*
X153777043Y-97721032D01*
X153678571Y-97527771D01*
X153551080Y-97352293D01*
X153397707Y-97198920D01*
X153301615Y-97129105D01*
X153258949Y-97073775D01*
X153250500Y-97028787D01*
X153250500Y-94112229D01*
X153270185Y-94045190D01*
X153286819Y-94024548D01*
X155024548Y-92286819D01*
X155085871Y-92253334D01*
X155112229Y-92250500D01*
X156573920Y-92250500D01*
X156671462Y-92231096D01*
X156718913Y-92221658D01*
X156855495Y-92165084D01*
X156904729Y-92132186D01*
X156978416Y-92082952D01*
X161354548Y-87706818D01*
X161415871Y-87673334D01*
X161442229Y-87670500D01*
X164562779Y-87670500D01*
X164629818Y-87690185D01*
X164663097Y-87721615D01*
X164719892Y-87799788D01*
X164870213Y-87950109D01*
X165042182Y-88075050D01*
X165050946Y-88079516D01*
X165101742Y-88127491D01*
X165118536Y-88195312D01*
X165095998Y-88261447D01*
X165050946Y-88300484D01*
X165042182Y-88304949D01*
X164870213Y-88429890D01*
X164719892Y-88580211D01*
X164663097Y-88658385D01*
X164607767Y-88701051D01*
X164562779Y-88709500D01*
X162966076Y-88709500D01*
X162937242Y-88715234D01*
X162937243Y-88715235D01*
X162821092Y-88738339D01*
X162821086Y-88738341D01*
X162787668Y-88752184D01*
X162684508Y-88794914D01*
X162643645Y-88822218D01*
X162561582Y-88877049D01*
X160417048Y-91021583D01*
X160411546Y-91029817D01*
X160406114Y-91037949D01*
X160370393Y-91091409D01*
X160334914Y-91144507D01*
X160278343Y-91281082D01*
X160278340Y-91281092D01*
X160249500Y-91426079D01*
X160249500Y-109137770D01*
X160229815Y-109204809D01*
X160213181Y-109225451D01*
X156977951Y-112460681D01*
X156916628Y-112494166D01*
X156890270Y-112497000D01*
X153721213Y-112497000D01*
X153654174Y-112477315D01*
X153620894Y-112445885D01*
X153562283Y-112365213D01*
X153551080Y-112349793D01*
X153397707Y-112196420D01*
X153371518Y-112177393D01*
X153222228Y-112068928D01*
X153028965Y-111970455D01*
X152822683Y-111903431D01*
X152715566Y-111886465D01*
X152608451Y-111869500D01*
X152391549Y-111869500D01*
X152320138Y-111880810D01*
X152177316Y-111903431D01*
X151971034Y-111970455D01*
X151777771Y-112068928D01*
X151602292Y-112196420D01*
X151448920Y-112349792D01*
X151321428Y-112525271D01*
X151222955Y-112718534D01*
X151155931Y-112924816D01*
X151122000Y-113139049D01*
X151122000Y-113355950D01*
X151155931Y-113570183D01*
X151222955Y-113776465D01*
X151321428Y-113969728D01*
X151397126Y-114073918D01*
X151448920Y-114145207D01*
X151602293Y-114298580D01*
X151777771Y-114426071D01*
X151966127Y-114522044D01*
X151971034Y-114524544D01*
X152074175Y-114558056D01*
X152177318Y-114591569D01*
X152391549Y-114625500D01*
X152391550Y-114625500D01*
X152608450Y-114625500D01*
X152608451Y-114625500D01*
X152822682Y-114591569D01*
X153028968Y-114524543D01*
X153222229Y-114426071D01*
X153397707Y-114298580D01*
X153551080Y-114145207D01*
X153620894Y-114049114D01*
X153676224Y-114006449D01*
X153721213Y-113998000D01*
X157326420Y-113998000D01*
X157468547Y-113969728D01*
X157471413Y-113969158D01*
X157607995Y-113912584D01*
X157657229Y-113879686D01*
X157730916Y-113830452D01*
X161582951Y-109978416D01*
X161665084Y-109855495D01*
X161721658Y-109718913D01*
X161748312Y-109584919D01*
X161750500Y-109573920D01*
X161750500Y-91862229D01*
X161770185Y-91795190D01*
X161786819Y-91774548D01*
X163314548Y-90246819D01*
X163375871Y-90213334D01*
X163402229Y-90210500D01*
X164562779Y-90210500D01*
X164629818Y-90230185D01*
X164663097Y-90261615D01*
X164719892Y-90339788D01*
X164870213Y-90490109D01*
X165042182Y-90615050D01*
X165050946Y-90619516D01*
X165101742Y-90667491D01*
X165118536Y-90735312D01*
X165095998Y-90801447D01*
X165050946Y-90840484D01*
X165042182Y-90844949D01*
X164870213Y-90969890D01*
X164719890Y-91120213D01*
X164594951Y-91292179D01*
X164498444Y-91481585D01*
X164432753Y-91683760D01*
X164404487Y-91862229D01*
X164399500Y-91893713D01*
X164399500Y-92106287D01*
X164408812Y-92165083D01*
X164428093Y-92286819D01*
X164432754Y-92316243D01*
X164444126Y-92351243D01*
X164498444Y-92518414D01*
X164594951Y-92707820D01*
X164719890Y-92879786D01*
X164870213Y-93030109D01*
X165042182Y-93155050D01*
X165050946Y-93159516D01*
X165101742Y-93207491D01*
X165118536Y-93275312D01*
X165095998Y-93341447D01*
X165050946Y-93380484D01*
X165042182Y-93384949D01*
X164870213Y-93509890D01*
X164719890Y-93660213D01*
X164594951Y-93832179D01*
X164498444Y-94021585D01*
X164432753Y-94223760D01*
X164427210Y-94258760D01*
X164399500Y-94433713D01*
X164399500Y-94646287D01*
X164432754Y-94856243D01*
X164444126Y-94891243D01*
X164498444Y-95058414D01*
X164594951Y-95247820D01*
X164719890Y-95419786D01*
X164870213Y-95570109D01*
X165042182Y-95695050D01*
X165050946Y-95699516D01*
X165101742Y-95747491D01*
X165118536Y-95815312D01*
X165095998Y-95881447D01*
X165050946Y-95920484D01*
X165042182Y-95924949D01*
X164870213Y-96049890D01*
X164719890Y-96200213D01*
X164594951Y-96372179D01*
X164498444Y-96561585D01*
X164432753Y-96763760D01*
X164400016Y-96970455D01*
X164399500Y-96973713D01*
X164399500Y-97186287D01*
X164432754Y-97396243D01*
X164475490Y-97527771D01*
X164498444Y-97598414D01*
X164594951Y-97787820D01*
X164719890Y-97959786D01*
X164870213Y-98110109D01*
X165042182Y-98235050D01*
X165050946Y-98239516D01*
X165101742Y-98287491D01*
X165118536Y-98355312D01*
X165095998Y-98421447D01*
X165050946Y-98460484D01*
X165042182Y-98464949D01*
X164870213Y-98589890D01*
X164719890Y-98740213D01*
X164594951Y-98912179D01*
X164498444Y-99101585D01*
X164432753Y-99303760D01*
X164399500Y-99513713D01*
X164399500Y-99726287D01*
X164432754Y-99936243D01*
X164444126Y-99971243D01*
X164498444Y-100138414D01*
X164594951Y-100327820D01*
X164719890Y-100499786D01*
X164870213Y-100650109D01*
X165042179Y-100775048D01*
X165042181Y-100775049D01*
X165042184Y-100775051D01*
X165231588Y-100871557D01*
X165433757Y-100937246D01*
X165643713Y-100970500D01*
X165643714Y-100970500D01*
X165856286Y-100970500D01*
X165856287Y-100970500D01*
X166066243Y-100937246D01*
X166268412Y-100871557D01*
X166457816Y-100775051D01*
X166479789Y-100759086D01*
X166629786Y-100650109D01*
X166629788Y-100650106D01*
X166629792Y-100650104D01*
X166780104Y-100499792D01*
X166780106Y-100499788D01*
X166780109Y-100499786D01*
X166905048Y-100327820D01*
X166905047Y-100327820D01*
X166905051Y-100327816D01*
X167001557Y-100138412D01*
X167067246Y-99936243D01*
X167100500Y-99726287D01*
X167100500Y-99513713D01*
X167067246Y-99303757D01*
X167001557Y-99101588D01*
X166905051Y-98912184D01*
X166905049Y-98912181D01*
X166905048Y-98912179D01*
X166780109Y-98740213D01*
X166629786Y-98589890D01*
X166457820Y-98464951D01*
X166457115Y-98464591D01*
X166449054Y-98460485D01*
X166398259Y-98412512D01*
X166381463Y-98344692D01*
X166403999Y-98278556D01*
X166449054Y-98239515D01*
X166457816Y-98235051D01*
X166479789Y-98219086D01*
X166629786Y-98110109D01*
X166629788Y-98110106D01*
X166629792Y-98110104D01*
X166780104Y-97959792D01*
X166780106Y-97959788D01*
X166780109Y-97959786D01*
X166905048Y-97787820D01*
X166905047Y-97787820D01*
X166905051Y-97787816D01*
X167001557Y-97598412D01*
X167067246Y-97396243D01*
X167100500Y-97186287D01*
X167100500Y-96973713D01*
X167067246Y-96763757D01*
X167001557Y-96561588D01*
X166905051Y-96372184D01*
X166905049Y-96372181D01*
X166905048Y-96372179D01*
X166780109Y-96200213D01*
X166629786Y-96049890D01*
X166457820Y-95924951D01*
X166457115Y-95924591D01*
X166449054Y-95920485D01*
X166398259Y-95872512D01*
X166381463Y-95804692D01*
X166403999Y-95738556D01*
X166449054Y-95699515D01*
X166457816Y-95695051D01*
X166479789Y-95679086D01*
X166629786Y-95570109D01*
X166629788Y-95570106D01*
X166629792Y-95570104D01*
X166780104Y-95419792D01*
X166780106Y-95419788D01*
X166780109Y-95419786D01*
X166905048Y-95247820D01*
X166905047Y-95247820D01*
X166905051Y-95247816D01*
X167001557Y-95058412D01*
X167067246Y-94856243D01*
X167100500Y-94646287D01*
X167100500Y-94433713D01*
X167067246Y-94223757D01*
X167001557Y-94021588D01*
X166905051Y-93832184D01*
X166905049Y-93832181D01*
X166905048Y-93832179D01*
X166780109Y-93660213D01*
X166629786Y-93509890D01*
X166457820Y-93384951D01*
X166457115Y-93384591D01*
X166449054Y-93380485D01*
X166398259Y-93332512D01*
X166381463Y-93264692D01*
X166403999Y-93198556D01*
X166449054Y-93159515D01*
X166457816Y-93155051D01*
X166479789Y-93139086D01*
X166629786Y-93030109D01*
X166629788Y-93030106D01*
X166629792Y-93030104D01*
X166780104Y-92879792D01*
X166780106Y-92879788D01*
X166780109Y-92879786D01*
X166905048Y-92707820D01*
X166905047Y-92707820D01*
X166905051Y-92707816D01*
X167001557Y-92518412D01*
X167067246Y-92316243D01*
X167100500Y-92106287D01*
X167100500Y-91893713D01*
X167067246Y-91683757D01*
X167001557Y-91481588D01*
X166905051Y-91292184D01*
X166905049Y-91292181D01*
X166905048Y-91292179D01*
X166780109Y-91120213D01*
X166629786Y-90969890D01*
X166457820Y-90844951D01*
X166457115Y-90844591D01*
X166449054Y-90840485D01*
X166398259Y-90792512D01*
X166381463Y-90724692D01*
X166403999Y-90658556D01*
X166449054Y-90619515D01*
X166457816Y-90615051D01*
X166501997Y-90582952D01*
X166629786Y-90490109D01*
X166629788Y-90490106D01*
X166629792Y-90490104D01*
X166780104Y-90339792D01*
X166780106Y-90339788D01*
X166780109Y-90339786D01*
X166905048Y-90167820D01*
X166905047Y-90167820D01*
X166905051Y-90167816D01*
X167001557Y-89978412D01*
X167067246Y-89776243D01*
X167100500Y-89566287D01*
X167100500Y-89353713D01*
X167067246Y-89143757D01*
X167001557Y-88941588D01*
X166905051Y-88752184D01*
X166905049Y-88752181D01*
X166905048Y-88752179D01*
X166780109Y-88580213D01*
X166629786Y-88429890D01*
X166457820Y-88304951D01*
X166457115Y-88304591D01*
X166449054Y-88300485D01*
X166398259Y-88252512D01*
X166381463Y-88184692D01*
X166403999Y-88118556D01*
X166449054Y-88079515D01*
X166457816Y-88075051D01*
X166479789Y-88059086D01*
X166629786Y-87950109D01*
X166629788Y-87950106D01*
X166629792Y-87950104D01*
X166780104Y-87799792D01*
X166780106Y-87799788D01*
X166780109Y-87799786D01*
X166905048Y-87627820D01*
X166905047Y-87627820D01*
X166905051Y-87627816D01*
X167001557Y-87438412D01*
X167067246Y-87236243D01*
X167100500Y-87026287D01*
X167100500Y-86813713D01*
X167067246Y-86603757D01*
X167001557Y-86401588D01*
X166905051Y-86212184D01*
X166905049Y-86212181D01*
X166905048Y-86212179D01*
X166780109Y-86040213D01*
X166629786Y-85889890D01*
X166457820Y-85764951D01*
X166457115Y-85764591D01*
X166449054Y-85760485D01*
X166398259Y-85712512D01*
X166381463Y-85644692D01*
X166403999Y-85578556D01*
X166449054Y-85539515D01*
X166457816Y-85535051D01*
X166479789Y-85519086D01*
X166629786Y-85410109D01*
X166629788Y-85410106D01*
X166629792Y-85410104D01*
X166780104Y-85259792D01*
X166780106Y-85259788D01*
X166780109Y-85259786D01*
X166905048Y-85087820D01*
X166905047Y-85087820D01*
X166905051Y-85087816D01*
X167001557Y-84898412D01*
X167067246Y-84696243D01*
X167100500Y-84486287D01*
X167100500Y-84273713D01*
X167067246Y-84063757D01*
X167001557Y-83861588D01*
X166905051Y-83672184D01*
X166905049Y-83672181D01*
X166905048Y-83672179D01*
X166780109Y-83500213D01*
X166666569Y-83386673D01*
X166633084Y-83325350D01*
X166638068Y-83255658D01*
X166679940Y-83199725D01*
X166710915Y-83182810D01*
X166842331Y-83133796D01*
X166957546Y-83047546D01*
X167043796Y-82932331D01*
X167094091Y-82797483D01*
X167100500Y-82737873D01*
X167100499Y-80942128D01*
X167094091Y-80882517D01*
X167056848Y-80782664D01*
X167043797Y-80747671D01*
X167043793Y-80747664D01*
X166957547Y-80632455D01*
X166957544Y-80632452D01*
X166842335Y-80546206D01*
X166842328Y-80546202D01*
X166707482Y-80495908D01*
X166707483Y-80495908D01*
X166647883Y-80489501D01*
X166647881Y-80489500D01*
X166647873Y-80489500D01*
X166647865Y-80489500D01*
X166624500Y-80489500D01*
X166557461Y-80469815D01*
X166511706Y-80417011D01*
X166500500Y-80365500D01*
X166500500Y-73176079D01*
X166471659Y-73031092D01*
X166471658Y-73031091D01*
X166471658Y-73031087D01*
X166471656Y-73031082D01*
X166415087Y-72894511D01*
X166415080Y-72894498D01*
X166332952Y-72771585D01*
X166332951Y-72771584D01*
X166228416Y-72667049D01*
X165085915Y-71524548D01*
X161230921Y-67669552D01*
X161230914Y-67669546D01*
X161157229Y-67620312D01*
X161157229Y-67620313D01*
X161107991Y-67587413D01*
X160971417Y-67530843D01*
X160971407Y-67530840D01*
X160826420Y-67502000D01*
X160826418Y-67502000D01*
X153721213Y-67502000D01*
X153654174Y-67482315D01*
X153620894Y-67450885D01*
X153551079Y-67354792D01*
X153397707Y-67201420D01*
X153222228Y-67073928D01*
X153028965Y-66975455D01*
X152822683Y-66908431D01*
X152646857Y-66880583D01*
X152608451Y-66874500D01*
X152391549Y-66874500D01*
X152353143Y-66880583D01*
X152177316Y-66908431D01*
X151971034Y-66975455D01*
X151777771Y-67073928D01*
X151602292Y-67201420D01*
X151448920Y-67354792D01*
X151321428Y-67530271D01*
X151222955Y-67723534D01*
X151155931Y-67929816D01*
X151122000Y-68144049D01*
X130378000Y-68144049D01*
X130378000Y-68141549D01*
X130344069Y-67927318D01*
X130277856Y-67723534D01*
X130277044Y-67721034D01*
X130178571Y-67527771D01*
X130051080Y-67352293D01*
X129897707Y-67198920D01*
X129837762Y-67155368D01*
X129722228Y-67071428D01*
X129528965Y-66972955D01*
X129322683Y-66905931D01*
X129215566Y-66888965D01*
X129108451Y-66872000D01*
X128891549Y-66872000D01*
X128820138Y-66883310D01*
X128677316Y-66905931D01*
X128471034Y-66972955D01*
X128277771Y-67071428D01*
X128102292Y-67198920D01*
X127948920Y-67352292D01*
X127879106Y-67448385D01*
X127823776Y-67491051D01*
X127778787Y-67499500D01*
X121926076Y-67499500D01*
X121897242Y-67505234D01*
X121897243Y-67505235D01*
X121781092Y-67528339D01*
X121781086Y-67528341D01*
X121743576Y-67543878D01*
X121743558Y-67543886D01*
X121740040Y-67545344D01*
X121644505Y-67584916D01*
X121610339Y-67607745D01*
X121603402Y-67612379D01*
X121603398Y-67612382D01*
X121521582Y-67667049D01*
X121521579Y-67667052D01*
X118417050Y-70771580D01*
X118417044Y-70771588D01*
X118367812Y-70845268D01*
X118367813Y-70845269D01*
X118334921Y-70894496D01*
X118334914Y-70894508D01*
X118278342Y-71031086D01*
X118278340Y-71031092D01*
X118249500Y-71176079D01*
X118249500Y-103241628D01*
X118229815Y-103308667D01*
X118213181Y-103329309D01*
X116167050Y-105375439D01*
X116167044Y-105375447D01*
X116117812Y-105449127D01*
X116117813Y-105449128D01*
X116084921Y-105498355D01*
X116084914Y-105498367D01*
X116028342Y-105634945D01*
X116028340Y-105634951D01*
X115999500Y-105779938D01*
X115999500Y-108137770D01*
X115979815Y-108204809D01*
X115963181Y-108225451D01*
X114725451Y-109463181D01*
X114664128Y-109496666D01*
X114637770Y-109499500D01*
X106426080Y-109499500D01*
X106281092Y-109528340D01*
X106281082Y-109528343D01*
X106144511Y-109584912D01*
X106144498Y-109584919D01*
X106021584Y-109667048D01*
X106021580Y-109667051D01*
X105007045Y-110681586D01*
X104975759Y-110728413D01*
X104975757Y-110728416D01*
X104924919Y-110804499D01*
X104924912Y-110804511D01*
X104868343Y-110941082D01*
X104868340Y-110941092D01*
X104839500Y-111086079D01*
X104839500Y-112057779D01*
X104819815Y-112124818D01*
X104788385Y-112158097D01*
X104710211Y-112214893D01*
X104710205Y-112214898D01*
X104559890Y-112365213D01*
X104434949Y-112537182D01*
X104430484Y-112545946D01*
X104382509Y-112596742D01*
X104314688Y-112613536D01*
X104248553Y-112590998D01*
X104209516Y-112545946D01*
X104205050Y-112537182D01*
X104080109Y-112365213D01*
X103929786Y-112214890D01*
X103757820Y-112089951D01*
X103568414Y-111993444D01*
X103568413Y-111993443D01*
X103568412Y-111993443D01*
X103366243Y-111927754D01*
X103366241Y-111927753D01*
X103366240Y-111927753D01*
X103196890Y-111900931D01*
X103156287Y-111894500D01*
X102943713Y-111894500D01*
X102903110Y-111900931D01*
X102733760Y-111927753D01*
X102531585Y-111993444D01*
X102342179Y-112089951D01*
X102170213Y-112214890D01*
X102019890Y-112365213D01*
X101894949Y-112537182D01*
X101890484Y-112545946D01*
X101842509Y-112596742D01*
X101774688Y-112613536D01*
X101708553Y-112590998D01*
X101669516Y-112545946D01*
X101665050Y-112537182D01*
X101540109Y-112365213D01*
X101389786Y-112214890D01*
X101217820Y-112089951D01*
X101028414Y-111993444D01*
X101028413Y-111993443D01*
X101028412Y-111993443D01*
X100826243Y-111927754D01*
X100826241Y-111927753D01*
X100826240Y-111927753D01*
X100656890Y-111900931D01*
X100616287Y-111894500D01*
X100403713Y-111894500D01*
X100363110Y-111900931D01*
X100193760Y-111927753D01*
X99991585Y-111993444D01*
X99802179Y-112089951D01*
X99630215Y-112214889D01*
X99516673Y-112328431D01*
X99455350Y-112361915D01*
X99385658Y-112356931D01*
X99329725Y-112315059D01*
X99312810Y-112284082D01*
X99263797Y-112152671D01*
X99263793Y-112152664D01*
X99177547Y-112037455D01*
X99177544Y-112037452D01*
X99062335Y-111951206D01*
X99062328Y-111951202D01*
X98927482Y-111900908D01*
X98927483Y-111900908D01*
X98867883Y-111894501D01*
X98867881Y-111894500D01*
X98867873Y-111894500D01*
X98867864Y-111894500D01*
X97072129Y-111894500D01*
X97072123Y-111894501D01*
X97012516Y-111900908D01*
X96877671Y-111951202D01*
X96877664Y-111951206D01*
X96762455Y-112037452D01*
X96762452Y-112037455D01*
X96676206Y-112152664D01*
X96676202Y-112152671D01*
X96625908Y-112287517D01*
X96619501Y-112347116D01*
X96619500Y-112347135D01*
X90750500Y-112347135D01*
X90750500Y-80977135D01*
X114399500Y-80977135D01*
X114399500Y-82772870D01*
X114399501Y-82772876D01*
X114405908Y-82832483D01*
X114456202Y-82967328D01*
X114456206Y-82967335D01*
X114542452Y-83082544D01*
X114542455Y-83082547D01*
X114657664Y-83168793D01*
X114657671Y-83168797D01*
X114789082Y-83217810D01*
X114845016Y-83259681D01*
X114869433Y-83325145D01*
X114854582Y-83393418D01*
X114833431Y-83421673D01*
X114719889Y-83535215D01*
X114594951Y-83707179D01*
X114498444Y-83896585D01*
X114432753Y-84098760D01*
X114399500Y-84308713D01*
X114399500Y-84521286D01*
X114427210Y-84696243D01*
X114432754Y-84731243D01*
X114487071Y-84898414D01*
X114498444Y-84933414D01*
X114594951Y-85122820D01*
X114719890Y-85294786D01*
X114870213Y-85445109D01*
X115042182Y-85570050D01*
X115050946Y-85574516D01*
X115101742Y-85622491D01*
X115118536Y-85690312D01*
X115095998Y-85756447D01*
X115050946Y-85795484D01*
X115042182Y-85799949D01*
X114870213Y-85924890D01*
X114719890Y-86075213D01*
X114594951Y-86247179D01*
X114498444Y-86436585D01*
X114432753Y-86638760D01*
X114399500Y-86848713D01*
X114399500Y-87061286D01*
X114427210Y-87236243D01*
X114432754Y-87271243D01*
X114492398Y-87454809D01*
X114498444Y-87473414D01*
X114594951Y-87662820D01*
X114719890Y-87834786D01*
X114870213Y-87985109D01*
X115042182Y-88110050D01*
X115050946Y-88114516D01*
X115101742Y-88162491D01*
X115118536Y-88230312D01*
X115095998Y-88296447D01*
X115050946Y-88335484D01*
X115042182Y-88339949D01*
X114870213Y-88464890D01*
X114719890Y-88615213D01*
X114594951Y-88787179D01*
X114498444Y-88976585D01*
X114432753Y-89178760D01*
X114399500Y-89388713D01*
X114399500Y-89601286D01*
X114427210Y-89776243D01*
X114432754Y-89811243D01*
X114487071Y-89978414D01*
X114498444Y-90013414D01*
X114594951Y-90202820D01*
X114719890Y-90374786D01*
X114870213Y-90525109D01*
X115042182Y-90650050D01*
X115050946Y-90654516D01*
X115101742Y-90702491D01*
X115118536Y-90770312D01*
X115095998Y-90836447D01*
X115050946Y-90875484D01*
X115042182Y-90879949D01*
X114870213Y-91004890D01*
X114719890Y-91155213D01*
X114594951Y-91327179D01*
X114498444Y-91516585D01*
X114432753Y-91718760D01*
X114420648Y-91795190D01*
X114399500Y-91928713D01*
X114399500Y-92141287D01*
X114409534Y-92204644D01*
X114427210Y-92316243D01*
X114432754Y-92351243D01*
X114487071Y-92518414D01*
X114498444Y-92553414D01*
X114594951Y-92742820D01*
X114719890Y-92914786D01*
X114870213Y-93065109D01*
X115042182Y-93190050D01*
X115050946Y-93194516D01*
X115101742Y-93242491D01*
X115118536Y-93310312D01*
X115095998Y-93376447D01*
X115050946Y-93415484D01*
X115042182Y-93419949D01*
X114870213Y-93544890D01*
X114719890Y-93695213D01*
X114594951Y-93867179D01*
X114498444Y-94056585D01*
X114432753Y-94258760D01*
X114399500Y-94468713D01*
X114399500Y-94681286D01*
X114427210Y-94856243D01*
X114432754Y-94891243D01*
X114487071Y-95058414D01*
X114498444Y-95093414D01*
X114594951Y-95282820D01*
X114719890Y-95454786D01*
X114870213Y-95605109D01*
X115042182Y-95730050D01*
X115050946Y-95734516D01*
X115101742Y-95782491D01*
X115118536Y-95850312D01*
X115095998Y-95916447D01*
X115050946Y-95955484D01*
X115042182Y-95959949D01*
X114870213Y-96084890D01*
X114719890Y-96235213D01*
X114594951Y-96407179D01*
X114498444Y-96596585D01*
X114432753Y-96798760D01*
X114399500Y-97008713D01*
X114399500Y-97221286D01*
X114427210Y-97396243D01*
X114432754Y-97431243D01*
X114487071Y-97598414D01*
X114498444Y-97633414D01*
X114594951Y-97822820D01*
X114719890Y-97994786D01*
X114870213Y-98145109D01*
X115042182Y-98270050D01*
X115050946Y-98274516D01*
X115101742Y-98322491D01*
X115118536Y-98390312D01*
X115095998Y-98456447D01*
X115050946Y-98495484D01*
X115042182Y-98499949D01*
X114870213Y-98624890D01*
X114719890Y-98775213D01*
X114594951Y-98947179D01*
X114498444Y-99136585D01*
X114432753Y-99338760D01*
X114399500Y-99548713D01*
X114399500Y-99761286D01*
X114427210Y-99936243D01*
X114432754Y-99971243D01*
X114487071Y-100138414D01*
X114498444Y-100173414D01*
X114594951Y-100362820D01*
X114719890Y-100534786D01*
X114870213Y-100685109D01*
X115042179Y-100810048D01*
X115042181Y-100810049D01*
X115042184Y-100810051D01*
X115231588Y-100906557D01*
X115433757Y-100972246D01*
X115643713Y-101005500D01*
X115643714Y-101005500D01*
X115856286Y-101005500D01*
X115856287Y-101005500D01*
X116066243Y-100972246D01*
X116268412Y-100906557D01*
X116457816Y-100810051D01*
X116505994Y-100775048D01*
X116629786Y-100685109D01*
X116629788Y-100685106D01*
X116629792Y-100685104D01*
X116780104Y-100534792D01*
X116780106Y-100534788D01*
X116780109Y-100534786D01*
X116905048Y-100362820D01*
X116905047Y-100362820D01*
X116905051Y-100362816D01*
X117001557Y-100173412D01*
X117067246Y-99971243D01*
X117100500Y-99761287D01*
X117100500Y-99548713D01*
X117067246Y-99338757D01*
X117001557Y-99136588D01*
X116905051Y-98947184D01*
X116905049Y-98947181D01*
X116905048Y-98947179D01*
X116780109Y-98775213D01*
X116629786Y-98624890D01*
X116457820Y-98499951D01*
X116457115Y-98499591D01*
X116449054Y-98495485D01*
X116398259Y-98447512D01*
X116381463Y-98379692D01*
X116403999Y-98313556D01*
X116449054Y-98274515D01*
X116457816Y-98270051D01*
X116505994Y-98235048D01*
X116629786Y-98145109D01*
X116629788Y-98145106D01*
X116629792Y-98145104D01*
X116780104Y-97994792D01*
X116780106Y-97994788D01*
X116780109Y-97994786D01*
X116905048Y-97822820D01*
X116905047Y-97822820D01*
X116905051Y-97822816D01*
X117001557Y-97633412D01*
X117067246Y-97431243D01*
X117100500Y-97221287D01*
X117100500Y-97008713D01*
X117067246Y-96798757D01*
X117001557Y-96596588D01*
X116905051Y-96407184D01*
X116905049Y-96407181D01*
X116905048Y-96407179D01*
X116780109Y-96235213D01*
X116629786Y-96084890D01*
X116457820Y-95959951D01*
X116457115Y-95959591D01*
X116449054Y-95955485D01*
X116398259Y-95907512D01*
X116381463Y-95839692D01*
X116403999Y-95773556D01*
X116449054Y-95734515D01*
X116457816Y-95730051D01*
X116505994Y-95695048D01*
X116629786Y-95605109D01*
X116629788Y-95605106D01*
X116629792Y-95605104D01*
X116780104Y-95454792D01*
X116780106Y-95454788D01*
X116780109Y-95454786D01*
X116905048Y-95282820D01*
X116905047Y-95282820D01*
X116905051Y-95282816D01*
X117001557Y-95093412D01*
X117067246Y-94891243D01*
X117100500Y-94681287D01*
X117100500Y-94468713D01*
X117067246Y-94258757D01*
X117001557Y-94056588D01*
X116905051Y-93867184D01*
X116905049Y-93867181D01*
X116905048Y-93867179D01*
X116780109Y-93695213D01*
X116629786Y-93544890D01*
X116457820Y-93419951D01*
X116457115Y-93419591D01*
X116449054Y-93415485D01*
X116398259Y-93367512D01*
X116381463Y-93299692D01*
X116403999Y-93233556D01*
X116449054Y-93194515D01*
X116457816Y-93190051D01*
X116505994Y-93155048D01*
X116629786Y-93065109D01*
X116629788Y-93065106D01*
X116629792Y-93065104D01*
X116780104Y-92914792D01*
X116780106Y-92914788D01*
X116780109Y-92914786D01*
X116905048Y-92742820D01*
X116905047Y-92742820D01*
X116905051Y-92742816D01*
X117001557Y-92553412D01*
X117067246Y-92351243D01*
X117100500Y-92141287D01*
X117100500Y-91928713D01*
X117067246Y-91718757D01*
X117001557Y-91516588D01*
X116905051Y-91327184D01*
X116905049Y-91327181D01*
X116905048Y-91327179D01*
X116780109Y-91155213D01*
X116629786Y-91004890D01*
X116457818Y-90879950D01*
X116457450Y-90879762D01*
X116449054Y-90875485D01*
X116398259Y-90827512D01*
X116381463Y-90759692D01*
X116403999Y-90693556D01*
X116449054Y-90654515D01*
X116457816Y-90650051D01*
X116505995Y-90615047D01*
X116629786Y-90525109D01*
X116629788Y-90525106D01*
X116629792Y-90525104D01*
X116780104Y-90374792D01*
X116780106Y-90374788D01*
X116780109Y-90374786D01*
X116905048Y-90202820D01*
X116905047Y-90202820D01*
X116905051Y-90202816D01*
X117001557Y-90013412D01*
X117067246Y-89811243D01*
X117100500Y-89601287D01*
X117100500Y-89388713D01*
X117067246Y-89178757D01*
X117001557Y-88976588D01*
X116905051Y-88787184D01*
X116905049Y-88787181D01*
X116905048Y-88787179D01*
X116780109Y-88615213D01*
X116629786Y-88464890D01*
X116457820Y-88339951D01*
X116457115Y-88339591D01*
X116449054Y-88335485D01*
X116398259Y-88287512D01*
X116381463Y-88219692D01*
X116403999Y-88153556D01*
X116449054Y-88114515D01*
X116457816Y-88110051D01*
X116505994Y-88075048D01*
X116629786Y-87985109D01*
X116629788Y-87985106D01*
X116629792Y-87985104D01*
X116780104Y-87834792D01*
X116780106Y-87834788D01*
X116780109Y-87834786D01*
X116905048Y-87662820D01*
X116905047Y-87662820D01*
X116905051Y-87662816D01*
X117001557Y-87473412D01*
X117067246Y-87271243D01*
X117100500Y-87061287D01*
X117100500Y-86848713D01*
X117067246Y-86638757D01*
X117001557Y-86436588D01*
X116905051Y-86247184D01*
X116905049Y-86247181D01*
X116905048Y-86247179D01*
X116780109Y-86075213D01*
X116629786Y-85924890D01*
X116457820Y-85799951D01*
X116457115Y-85799591D01*
X116449054Y-85795485D01*
X116398259Y-85747512D01*
X116381463Y-85679692D01*
X116403999Y-85613556D01*
X116449054Y-85574515D01*
X116457816Y-85570051D01*
X116505994Y-85535048D01*
X116629786Y-85445109D01*
X116629788Y-85445106D01*
X116629792Y-85445104D01*
X116780104Y-85294792D01*
X116780106Y-85294788D01*
X116780109Y-85294786D01*
X116905048Y-85122820D01*
X116905047Y-85122820D01*
X116905051Y-85122816D01*
X117001557Y-84933412D01*
X117067246Y-84731243D01*
X117100500Y-84521287D01*
X117100500Y-84308713D01*
X117067246Y-84098757D01*
X117001557Y-83896588D01*
X116905051Y-83707184D01*
X116905049Y-83707181D01*
X116905048Y-83707179D01*
X116780109Y-83535213D01*
X116666569Y-83421673D01*
X116633084Y-83360350D01*
X116638068Y-83290658D01*
X116679940Y-83234725D01*
X116710915Y-83217810D01*
X116842331Y-83168796D01*
X116957546Y-83082546D01*
X117043796Y-82967331D01*
X117094091Y-82832483D01*
X117100500Y-82772873D01*
X117100499Y-80977128D01*
X117094091Y-80917517D01*
X117081036Y-80882516D01*
X117043797Y-80782671D01*
X117043793Y-80782664D01*
X116957547Y-80667455D01*
X116957544Y-80667452D01*
X116842335Y-80581206D01*
X116842328Y-80581202D01*
X116707482Y-80530908D01*
X116707483Y-80530908D01*
X116647883Y-80524501D01*
X116647881Y-80524500D01*
X116647873Y-80524500D01*
X116647864Y-80524500D01*
X114852129Y-80524500D01*
X114852123Y-80524501D01*
X114792516Y-80530908D01*
X114657671Y-80581202D01*
X114657664Y-80581206D01*
X114542455Y-80667452D01*
X114542452Y-80667455D01*
X114456206Y-80782664D01*
X114456202Y-80782671D01*
X114405908Y-80917517D01*
X114403262Y-80942135D01*
X114399501Y-80977123D01*
X114399500Y-80977135D01*
X90750500Y-80977135D01*
X90750500Y-70874500D01*
X90770185Y-70807461D01*
X90822989Y-70761706D01*
X90874500Y-70750500D01*
X91052170Y-70750500D01*
X91052183Y-70750500D01*
X91655447Y-70714009D01*
X92255407Y-70641160D01*
X92849874Y-70532220D01*
X93436679Y-70387586D01*
X93538715Y-70355790D01*
X93540600Y-70355307D01*
X93548365Y-70352782D01*
X94013680Y-70207785D01*
X94127646Y-70164563D01*
X94138215Y-70161130D01*
X94172632Y-70147502D01*
X94578772Y-69993474D01*
X94703883Y-69937165D01*
X94722459Y-69929812D01*
X94771508Y-69906730D01*
X95129894Y-69745434D01*
X95265257Y-69674389D01*
X95291026Y-69662265D01*
X95347178Y-69631394D01*
X95665034Y-69464571D01*
X95809649Y-69377147D01*
X95841671Y-69359545D01*
X95899976Y-69322542D01*
X96182239Y-69151909D01*
X96334981Y-69046478D01*
X96372221Y-69022847D01*
X96429315Y-68981364D01*
X96679623Y-68808590D01*
X96839254Y-68683526D01*
X96880583Y-68653501D01*
X96934271Y-68609085D01*
X97155370Y-68435866D01*
X97320586Y-68289496D01*
X97364751Y-68252962D01*
X97413484Y-68207196D01*
X97607745Y-68035097D01*
X97777142Y-67865699D01*
X97822813Y-67822813D01*
X97865699Y-67777142D01*
X98035097Y-67607745D01*
X98207201Y-67413479D01*
X98252962Y-67364751D01*
X98289501Y-67320581D01*
X98435866Y-67155370D01*
X98609085Y-66934271D01*
X98653501Y-66880583D01*
X98683526Y-66839254D01*
X98808590Y-66679623D01*
X98981364Y-66429315D01*
X99022847Y-66372221D01*
X99046488Y-66334967D01*
X99151909Y-66182239D01*
X99322542Y-65899976D01*
X99359545Y-65841671D01*
X99377147Y-65809649D01*
X99464571Y-65665034D01*
X99631394Y-65347178D01*
X99662265Y-65291026D01*
X99674389Y-65265257D01*
X99745434Y-65129894D01*
X99906738Y-64771491D01*
X99929812Y-64722459D01*
X99937165Y-64703883D01*
X99993474Y-64578772D01*
X100147492Y-64172659D01*
X100161130Y-64138215D01*
X100164563Y-64127646D01*
X100207785Y-64013680D01*
X100352782Y-63548365D01*
X100355307Y-63540600D01*
X100355790Y-63538715D01*
X100387586Y-63436679D01*
X100532220Y-62849874D01*
X100641160Y-62255407D01*
X100714009Y-61655447D01*
X100750500Y-61052183D01*
X100750500Y-60874500D01*
X100770185Y-60807461D01*
X100822989Y-60761706D01*
X100874500Y-60750500D01*
X110749793Y-60750500D01*
X120749793Y-60750500D01*
X125749793Y-60750500D01*
X155749793Y-60750500D01*
X160749793Y-60750500D01*
X170625500Y-60750500D01*
X170692539Y-60770185D01*
G37*
%TD.AperFunction*%
%TD*%
M02*
