%TF.GenerationSoftware,KiCad,Pcbnew,9.0.0*%
%TF.CreationDate,2025-03-03T21:18:55-05:00*%
%TF.ProjectId,neurophy-adaptor,6e657572-6f70-4687-992d-61646170746f,1*%
%TF.SameCoordinates,Original*%
%TF.FileFunction,Legend,Top*%
%TF.FilePolarity,Positive*%
%FSLAX46Y46*%
G04 Gerber Fmt 4.6, Leading zero omitted, Abs format (unit mm)*
G04 Created by KiCad (PCBNEW 9.0.0) date 2025-03-03 21:18:55*
%MOMM*%
%LPD*%
G01*
G04 APERTURE LIST*
%ADD10C,0.150000*%
%ADD11C,0.000000*%
%ADD12C,0.120000*%
%ADD13C,0.200000*%
%ADD14C,0.100000*%
G04 APERTURE END LIST*
D10*
X140750000Y-63249375D02*
X140750000Y-64899375D01*
X140750000Y-65499375D02*
X140750000Y-67149375D01*
X140750000Y-67749375D02*
X140750000Y-69399375D01*
X140750000Y-69999375D02*
X140750000Y-71649375D01*
X140750000Y-72249375D02*
X140750000Y-73899375D01*
X140750000Y-74499375D02*
X140750000Y-76149375D01*
X140750000Y-76749375D02*
X140750000Y-78399375D01*
X140750000Y-78999375D02*
X140750000Y-80649375D01*
X140750000Y-81249375D02*
X140750000Y-82899375D01*
X140750000Y-83499375D02*
X140750000Y-85149375D01*
X140750000Y-85749375D02*
X140750000Y-87399375D01*
X140750000Y-87999375D02*
X140750000Y-89649375D01*
X140750000Y-90249375D02*
X140750000Y-91899375D01*
X140750000Y-92499375D02*
X140750000Y-94149375D01*
X140750000Y-94749375D02*
X140750000Y-96399375D01*
X140750000Y-96999375D02*
X140750000Y-98649375D01*
X140750000Y-99249375D02*
X140750000Y-100899375D01*
X140750000Y-101499375D02*
X140750000Y-103149375D01*
X140750000Y-103749375D02*
X140750000Y-105399375D01*
X140750000Y-105999375D02*
X140750000Y-107649375D01*
X140750000Y-108249375D02*
X140750000Y-109899375D01*
X140750000Y-110499375D02*
X140750000Y-112149375D01*
X140750000Y-112749375D02*
X140750000Y-114399375D01*
X140750000Y-114999375D02*
X140750000Y-116649375D01*
X140750000Y-117249375D02*
X140750000Y-118249375D01*
G36*
X105653166Y-116067318D02*
G01*
X105730153Y-116105812D01*
X105760561Y-116136219D01*
X105794819Y-116204735D01*
X105794819Y-116264563D01*
X105760561Y-116333078D01*
X105730153Y-116363485D01*
X105653166Y-116401979D01*
X105479632Y-116445363D01*
X105260005Y-116445363D01*
X105086471Y-116401979D01*
X105009484Y-116363486D01*
X104979077Y-116333079D01*
X104944819Y-116264563D01*
X104944819Y-116204735D01*
X104979077Y-116136219D01*
X105009484Y-116105812D01*
X105086471Y-116067318D01*
X105260005Y-116023935D01*
X105479632Y-116023935D01*
X105653166Y-116067318D01*
G37*
G36*
X106055930Y-119849331D02*
G01*
X104683708Y-119849331D01*
X104683708Y-119007942D01*
X104795689Y-119007942D01*
X104796260Y-119009512D01*
X104796260Y-119011186D01*
X104801241Y-119023212D01*
X104805689Y-119035443D01*
X104806818Y-119036676D01*
X104807459Y-119038222D01*
X104816664Y-119047427D01*
X104825453Y-119057024D01*
X104827435Y-119058198D01*
X104828151Y-119058914D01*
X104829787Y-119059592D01*
X104838103Y-119064518D01*
X105406750Y-119329887D01*
X104838103Y-119595256D01*
X104829787Y-119600181D01*
X104828151Y-119600860D01*
X104827435Y-119601575D01*
X104825453Y-119602750D01*
X104816664Y-119612346D01*
X104807459Y-119621552D01*
X104806818Y-119623097D01*
X104805689Y-119624331D01*
X104801241Y-119636561D01*
X104796260Y-119648588D01*
X104796260Y-119650261D01*
X104795689Y-119651832D01*
X104796260Y-119664833D01*
X104796260Y-119677852D01*
X104796899Y-119679396D01*
X104796973Y-119681068D01*
X104802479Y-119692866D01*
X104807459Y-119704888D01*
X104808641Y-119706070D01*
X104809349Y-119707586D01*
X104818945Y-119716374D01*
X104828151Y-119725580D01*
X104829696Y-119726220D01*
X104830930Y-119727350D01*
X104843160Y-119731797D01*
X104855187Y-119736779D01*
X104857482Y-119737005D01*
X104858431Y-119737350D01*
X104860197Y-119737272D01*
X104869819Y-119738220D01*
X105869819Y-119738220D01*
X105884451Y-119736779D01*
X105911487Y-119725580D01*
X105932179Y-119704888D01*
X105943378Y-119677852D01*
X105943378Y-119648588D01*
X105932179Y-119621552D01*
X105911487Y-119600860D01*
X105884451Y-119589661D01*
X105869819Y-119588220D01*
X105207887Y-119588220D01*
X105615821Y-119397851D01*
X105621180Y-119394676D01*
X105622993Y-119394017D01*
X105624275Y-119392842D01*
X105628471Y-119390357D01*
X105636168Y-119381951D01*
X105644575Y-119374253D01*
X105645984Y-119371232D01*
X105648234Y-119368776D01*
X105652128Y-119358066D01*
X105656950Y-119347735D01*
X105657096Y-119344406D01*
X105658235Y-119341275D01*
X105657734Y-119329887D01*
X105658235Y-119318499D01*
X105657096Y-119315367D01*
X105656950Y-119312039D01*
X105652128Y-119301707D01*
X105648234Y-119290998D01*
X105645984Y-119288541D01*
X105644575Y-119285521D01*
X105636168Y-119277822D01*
X105628471Y-119269417D01*
X105624275Y-119266931D01*
X105622993Y-119265757D01*
X105621180Y-119265097D01*
X105615821Y-119261923D01*
X105207887Y-119071554D01*
X105869819Y-119071554D01*
X105884451Y-119070113D01*
X105911487Y-119058914D01*
X105932179Y-119038222D01*
X105943378Y-119011186D01*
X105943378Y-118981922D01*
X105932179Y-118954886D01*
X105911487Y-118934194D01*
X105884451Y-118922995D01*
X105869819Y-118921554D01*
X104869819Y-118921554D01*
X104860197Y-118922501D01*
X104858431Y-118922424D01*
X104857482Y-118922768D01*
X104855187Y-118922995D01*
X104843160Y-118927976D01*
X104830930Y-118932424D01*
X104829696Y-118933553D01*
X104828151Y-118934194D01*
X104818945Y-118943399D01*
X104809349Y-118952188D01*
X104808641Y-118953703D01*
X104807459Y-118954886D01*
X104802479Y-118966907D01*
X104796973Y-118978706D01*
X104796899Y-118980377D01*
X104796260Y-118981922D01*
X104796260Y-118994940D01*
X104795689Y-119007942D01*
X104683708Y-119007942D01*
X104683708Y-118044173D01*
X104794819Y-118044173D01*
X104794819Y-118520363D01*
X104796260Y-118534995D01*
X104807459Y-118562031D01*
X104828151Y-118582723D01*
X104855187Y-118593922D01*
X104869819Y-118595363D01*
X105869819Y-118595363D01*
X105884451Y-118593922D01*
X105911487Y-118582723D01*
X105932179Y-118562031D01*
X105943378Y-118534995D01*
X105944819Y-118520363D01*
X105944819Y-118044173D01*
X105943378Y-118029541D01*
X105932179Y-118002505D01*
X105911487Y-117981813D01*
X105884451Y-117970614D01*
X105855187Y-117970614D01*
X105828151Y-117981813D01*
X105807459Y-118002505D01*
X105796260Y-118029541D01*
X105794819Y-118044173D01*
X105794819Y-118445363D01*
X105421009Y-118445363D01*
X105421009Y-118187030D01*
X105419568Y-118172398D01*
X105408369Y-118145362D01*
X105387677Y-118124670D01*
X105360641Y-118113471D01*
X105331377Y-118113471D01*
X105304341Y-118124670D01*
X105283649Y-118145362D01*
X105272450Y-118172398D01*
X105271009Y-118187030D01*
X105271009Y-118445363D01*
X104944819Y-118445363D01*
X104944819Y-118044173D01*
X104943378Y-118029541D01*
X104932179Y-118002505D01*
X104911487Y-117981813D01*
X104884451Y-117970614D01*
X104855187Y-117970614D01*
X104828151Y-117981813D01*
X104807459Y-118002505D01*
X104796260Y-118029541D01*
X104794819Y-118044173D01*
X104683708Y-118044173D01*
X104683708Y-116960323D01*
X104795689Y-116960323D01*
X104796260Y-116961893D01*
X104796260Y-116963567D01*
X104801241Y-116975593D01*
X104805689Y-116987824D01*
X104806818Y-116989057D01*
X104807459Y-116990603D01*
X104816664Y-116999808D01*
X104825453Y-117009405D01*
X104827435Y-117010579D01*
X104828151Y-117011295D01*
X104829787Y-117011973D01*
X104838103Y-117016899D01*
X105406750Y-117282268D01*
X104838103Y-117547637D01*
X104829787Y-117552562D01*
X104828151Y-117553241D01*
X104827435Y-117553956D01*
X104825453Y-117555131D01*
X104816664Y-117564727D01*
X104807459Y-117573933D01*
X104806818Y-117575478D01*
X104805689Y-117576712D01*
X104801241Y-117588942D01*
X104796260Y-117600969D01*
X104796260Y-117602642D01*
X104795689Y-117604213D01*
X104796260Y-117617214D01*
X104796260Y-117630233D01*
X104796899Y-117631777D01*
X104796973Y-117633449D01*
X104802479Y-117645247D01*
X104807459Y-117657269D01*
X104808641Y-117658451D01*
X104809349Y-117659967D01*
X104818945Y-117668755D01*
X104828151Y-117677961D01*
X104829696Y-117678601D01*
X104830930Y-117679731D01*
X104843160Y-117684178D01*
X104855187Y-117689160D01*
X104857482Y-117689386D01*
X104858431Y-117689731D01*
X104860197Y-117689653D01*
X104869819Y-117690601D01*
X105869819Y-117690601D01*
X105884451Y-117689160D01*
X105911487Y-117677961D01*
X105932179Y-117657269D01*
X105943378Y-117630233D01*
X105943378Y-117600969D01*
X105932179Y-117573933D01*
X105911487Y-117553241D01*
X105884451Y-117542042D01*
X105869819Y-117540601D01*
X105207887Y-117540601D01*
X105615821Y-117350232D01*
X105621180Y-117347057D01*
X105622993Y-117346398D01*
X105624275Y-117345223D01*
X105628471Y-117342738D01*
X105636168Y-117334332D01*
X105644575Y-117326634D01*
X105645984Y-117323613D01*
X105648234Y-117321157D01*
X105652128Y-117310447D01*
X105656950Y-117300116D01*
X105657096Y-117296787D01*
X105658235Y-117293656D01*
X105657734Y-117282268D01*
X105658235Y-117270880D01*
X105657096Y-117267748D01*
X105656950Y-117264420D01*
X105652128Y-117254088D01*
X105648234Y-117243379D01*
X105645984Y-117240922D01*
X105644575Y-117237902D01*
X105636168Y-117230203D01*
X105628471Y-117221798D01*
X105624275Y-117219312D01*
X105622993Y-117218138D01*
X105621180Y-117217478D01*
X105615821Y-117214304D01*
X105207887Y-117023935D01*
X105869819Y-117023935D01*
X105884451Y-117022494D01*
X105911487Y-117011295D01*
X105932179Y-116990603D01*
X105943378Y-116963567D01*
X105943378Y-116934303D01*
X105932179Y-116907267D01*
X105911487Y-116886575D01*
X105884451Y-116875376D01*
X105869819Y-116873935D01*
X104869819Y-116873935D01*
X104860197Y-116874882D01*
X104858431Y-116874805D01*
X104857482Y-116875149D01*
X104855187Y-116875376D01*
X104843160Y-116880357D01*
X104830930Y-116884805D01*
X104829696Y-116885934D01*
X104828151Y-116886575D01*
X104818945Y-116895780D01*
X104809349Y-116904569D01*
X104808641Y-116906084D01*
X104807459Y-116907267D01*
X104802479Y-116919288D01*
X104796973Y-116931087D01*
X104796899Y-116932758D01*
X104796260Y-116934303D01*
X104796260Y-116947321D01*
X104795689Y-116960323D01*
X104683708Y-116960323D01*
X104683708Y-116187030D01*
X104794819Y-116187030D01*
X104794819Y-116282268D01*
X104796260Y-116296900D01*
X104797291Y-116299389D01*
X104797482Y-116302077D01*
X104802737Y-116315809D01*
X104850356Y-116411047D01*
X104854320Y-116417346D01*
X104855078Y-116419174D01*
X104856766Y-116421230D01*
X104858188Y-116423490D01*
X104859686Y-116424789D01*
X104864405Y-116430539D01*
X104912024Y-116478158D01*
X104917773Y-116482876D01*
X104919073Y-116484375D01*
X104921332Y-116485796D01*
X104923389Y-116487485D01*
X104925216Y-116488242D01*
X104931516Y-116492207D01*
X105026754Y-116539826D01*
X105027823Y-116540235D01*
X105028259Y-116540558D01*
X105034395Y-116542750D01*
X105040485Y-116545081D01*
X105041025Y-116545119D01*
X105042105Y-116545505D01*
X105232581Y-116593124D01*
X105235117Y-116593499D01*
X105236139Y-116593922D01*
X105241651Y-116594464D01*
X105247125Y-116595274D01*
X105248217Y-116595111D01*
X105250771Y-116595363D01*
X105488866Y-116595363D01*
X105491419Y-116595111D01*
X105492512Y-116595274D01*
X105497985Y-116594464D01*
X105503498Y-116593922D01*
X105504519Y-116593499D01*
X105507056Y-116593124D01*
X105697532Y-116545505D01*
X105698611Y-116545119D01*
X105699151Y-116545081D01*
X105705232Y-116542753D01*
X105711378Y-116540558D01*
X105711813Y-116540235D01*
X105712883Y-116539826D01*
X105808121Y-116492207D01*
X105814417Y-116488243D01*
X105816247Y-116487486D01*
X105818305Y-116485796D01*
X105820564Y-116484375D01*
X105821863Y-116482876D01*
X105827612Y-116478159D01*
X105875232Y-116430540D01*
X105879950Y-116424790D01*
X105881450Y-116423490D01*
X105882872Y-116421230D01*
X105884560Y-116419174D01*
X105885317Y-116417346D01*
X105889282Y-116411047D01*
X105936901Y-116315809D01*
X105942156Y-116302078D01*
X105942347Y-116299388D01*
X105943378Y-116296900D01*
X105944819Y-116282268D01*
X105944819Y-116187030D01*
X105943378Y-116172398D01*
X105942347Y-116169909D01*
X105942156Y-116167220D01*
X105936901Y-116153489D01*
X105889282Y-116058251D01*
X105885317Y-116051951D01*
X105884560Y-116050124D01*
X105882872Y-116048067D01*
X105881450Y-116045808D01*
X105879950Y-116044507D01*
X105875232Y-116038758D01*
X105827612Y-115991139D01*
X105821863Y-115986421D01*
X105820564Y-115984923D01*
X105818305Y-115983501D01*
X105816247Y-115981812D01*
X105814417Y-115981054D01*
X105808121Y-115977091D01*
X105712883Y-115929472D01*
X105711813Y-115929062D01*
X105711378Y-115928740D01*
X105705232Y-115926544D01*
X105699151Y-115924217D01*
X105698611Y-115924178D01*
X105697532Y-115923793D01*
X105507056Y-115876174D01*
X105504519Y-115875798D01*
X105503498Y-115875376D01*
X105497985Y-115874833D01*
X105492512Y-115874024D01*
X105491419Y-115874186D01*
X105488866Y-115873935D01*
X105250771Y-115873935D01*
X105248217Y-115874186D01*
X105247125Y-115874024D01*
X105241651Y-115874833D01*
X105236139Y-115875376D01*
X105235117Y-115875798D01*
X105232581Y-115876174D01*
X105042105Y-115923793D01*
X105041025Y-115924178D01*
X105040485Y-115924217D01*
X105034395Y-115926547D01*
X105028259Y-115928740D01*
X105027823Y-115929062D01*
X105026754Y-115929472D01*
X104931516Y-115977091D01*
X104925216Y-115981055D01*
X104923389Y-115981813D01*
X104921332Y-115983501D01*
X104919073Y-115984923D01*
X104917773Y-115986421D01*
X104912024Y-115991140D01*
X104864405Y-116038759D01*
X104859686Y-116044508D01*
X104858188Y-116045808D01*
X104856766Y-116048067D01*
X104855078Y-116050124D01*
X104854320Y-116051951D01*
X104850356Y-116058251D01*
X104802737Y-116153489D01*
X104797482Y-116167221D01*
X104797291Y-116169908D01*
X104796260Y-116172398D01*
X104794819Y-116187030D01*
X104683708Y-116187030D01*
X104683708Y-115762824D01*
X106055930Y-115762824D01*
X106055930Y-119849331D01*
G37*
G36*
X103555930Y-119849331D02*
G01*
X102183708Y-119849331D01*
X102183708Y-119007942D01*
X102295689Y-119007942D01*
X102296260Y-119009512D01*
X102296260Y-119011186D01*
X102301241Y-119023212D01*
X102305689Y-119035443D01*
X102306818Y-119036676D01*
X102307459Y-119038222D01*
X102316664Y-119047427D01*
X102325453Y-119057024D01*
X102327435Y-119058198D01*
X102328151Y-119058914D01*
X102329787Y-119059592D01*
X102338103Y-119064518D01*
X102906750Y-119329887D01*
X102338103Y-119595256D01*
X102329787Y-119600181D01*
X102328151Y-119600860D01*
X102327435Y-119601575D01*
X102325453Y-119602750D01*
X102316664Y-119612346D01*
X102307459Y-119621552D01*
X102306818Y-119623097D01*
X102305689Y-119624331D01*
X102301241Y-119636561D01*
X102296260Y-119648588D01*
X102296260Y-119650261D01*
X102295689Y-119651832D01*
X102296260Y-119664833D01*
X102296260Y-119677852D01*
X102296899Y-119679396D01*
X102296973Y-119681068D01*
X102302479Y-119692866D01*
X102307459Y-119704888D01*
X102308641Y-119706070D01*
X102309349Y-119707586D01*
X102318945Y-119716374D01*
X102328151Y-119725580D01*
X102329696Y-119726220D01*
X102330930Y-119727350D01*
X102343160Y-119731797D01*
X102355187Y-119736779D01*
X102357482Y-119737005D01*
X102358431Y-119737350D01*
X102360197Y-119737272D01*
X102369819Y-119738220D01*
X103369819Y-119738220D01*
X103384451Y-119736779D01*
X103411487Y-119725580D01*
X103432179Y-119704888D01*
X103443378Y-119677852D01*
X103443378Y-119648588D01*
X103432179Y-119621552D01*
X103411487Y-119600860D01*
X103384451Y-119589661D01*
X103369819Y-119588220D01*
X102707887Y-119588220D01*
X103115821Y-119397851D01*
X103121180Y-119394676D01*
X103122993Y-119394017D01*
X103124275Y-119392842D01*
X103128471Y-119390357D01*
X103136168Y-119381951D01*
X103144575Y-119374253D01*
X103145984Y-119371232D01*
X103148234Y-119368776D01*
X103152128Y-119358066D01*
X103156950Y-119347735D01*
X103157096Y-119344406D01*
X103158235Y-119341275D01*
X103157734Y-119329887D01*
X103158235Y-119318499D01*
X103157096Y-119315367D01*
X103156950Y-119312039D01*
X103152128Y-119301707D01*
X103148234Y-119290998D01*
X103145984Y-119288541D01*
X103144575Y-119285521D01*
X103136168Y-119277822D01*
X103128471Y-119269417D01*
X103124275Y-119266931D01*
X103122993Y-119265757D01*
X103121180Y-119265097D01*
X103115821Y-119261923D01*
X102707887Y-119071554D01*
X103369819Y-119071554D01*
X103384451Y-119070113D01*
X103411487Y-119058914D01*
X103432179Y-119038222D01*
X103443378Y-119011186D01*
X103443378Y-118981922D01*
X103432179Y-118954886D01*
X103411487Y-118934194D01*
X103384451Y-118922995D01*
X103369819Y-118921554D01*
X102369819Y-118921554D01*
X102360197Y-118922501D01*
X102358431Y-118922424D01*
X102357482Y-118922768D01*
X102355187Y-118922995D01*
X102343160Y-118927976D01*
X102330930Y-118932424D01*
X102329696Y-118933553D01*
X102328151Y-118934194D01*
X102318945Y-118943399D01*
X102309349Y-118952188D01*
X102308641Y-118953703D01*
X102307459Y-118954886D01*
X102302479Y-118966907D01*
X102296973Y-118978706D01*
X102296899Y-118980377D01*
X102296260Y-118981922D01*
X102296260Y-118994940D01*
X102295689Y-119007942D01*
X102183708Y-119007942D01*
X102183708Y-118044173D01*
X102294819Y-118044173D01*
X102294819Y-118520363D01*
X102296260Y-118534995D01*
X102307459Y-118562031D01*
X102328151Y-118582723D01*
X102355187Y-118593922D01*
X102369819Y-118595363D01*
X103369819Y-118595363D01*
X103384451Y-118593922D01*
X103411487Y-118582723D01*
X103432179Y-118562031D01*
X103443378Y-118534995D01*
X103444819Y-118520363D01*
X103444819Y-118044173D01*
X103443378Y-118029541D01*
X103432179Y-118002505D01*
X103411487Y-117981813D01*
X103384451Y-117970614D01*
X103355187Y-117970614D01*
X103328151Y-117981813D01*
X103307459Y-118002505D01*
X103296260Y-118029541D01*
X103294819Y-118044173D01*
X103294819Y-118445363D01*
X102921009Y-118445363D01*
X102921009Y-118187030D01*
X102919568Y-118172398D01*
X102908369Y-118145362D01*
X102887677Y-118124670D01*
X102860641Y-118113471D01*
X102831377Y-118113471D01*
X102804341Y-118124670D01*
X102783649Y-118145362D01*
X102772450Y-118172398D01*
X102771009Y-118187030D01*
X102771009Y-118445363D01*
X102444819Y-118445363D01*
X102444819Y-118044173D01*
X102443378Y-118029541D01*
X102432179Y-118002505D01*
X102411487Y-117981813D01*
X102384451Y-117970614D01*
X102355187Y-117970614D01*
X102328151Y-117981813D01*
X102307459Y-118002505D01*
X102296260Y-118029541D01*
X102294819Y-118044173D01*
X102183708Y-118044173D01*
X102183708Y-116960323D01*
X102295689Y-116960323D01*
X102296260Y-116961893D01*
X102296260Y-116963567D01*
X102301241Y-116975593D01*
X102305689Y-116987824D01*
X102306818Y-116989057D01*
X102307459Y-116990603D01*
X102316664Y-116999808D01*
X102325453Y-117009405D01*
X102327435Y-117010579D01*
X102328151Y-117011295D01*
X102329787Y-117011973D01*
X102338103Y-117016899D01*
X102906750Y-117282268D01*
X102338103Y-117547637D01*
X102329787Y-117552562D01*
X102328151Y-117553241D01*
X102327435Y-117553956D01*
X102325453Y-117555131D01*
X102316664Y-117564727D01*
X102307459Y-117573933D01*
X102306818Y-117575478D01*
X102305689Y-117576712D01*
X102301241Y-117588942D01*
X102296260Y-117600969D01*
X102296260Y-117602642D01*
X102295689Y-117604213D01*
X102296260Y-117617214D01*
X102296260Y-117630233D01*
X102296899Y-117631777D01*
X102296973Y-117633449D01*
X102302479Y-117645247D01*
X102307459Y-117657269D01*
X102308641Y-117658451D01*
X102309349Y-117659967D01*
X102318945Y-117668755D01*
X102328151Y-117677961D01*
X102329696Y-117678601D01*
X102330930Y-117679731D01*
X102343160Y-117684178D01*
X102355187Y-117689160D01*
X102357482Y-117689386D01*
X102358431Y-117689731D01*
X102360197Y-117689653D01*
X102369819Y-117690601D01*
X103369819Y-117690601D01*
X103384451Y-117689160D01*
X103411487Y-117677961D01*
X103432179Y-117657269D01*
X103443378Y-117630233D01*
X103443378Y-117600969D01*
X103432179Y-117573933D01*
X103411487Y-117553241D01*
X103384451Y-117542042D01*
X103369819Y-117540601D01*
X102707887Y-117540601D01*
X103115821Y-117350232D01*
X103121180Y-117347057D01*
X103122993Y-117346398D01*
X103124275Y-117345223D01*
X103128471Y-117342738D01*
X103136168Y-117334332D01*
X103144575Y-117326634D01*
X103145984Y-117323613D01*
X103148234Y-117321157D01*
X103152128Y-117310447D01*
X103156950Y-117300116D01*
X103157096Y-117296787D01*
X103158235Y-117293656D01*
X103157734Y-117282268D01*
X103158235Y-117270880D01*
X103157096Y-117267748D01*
X103156950Y-117264420D01*
X103152128Y-117254088D01*
X103148234Y-117243379D01*
X103145984Y-117240922D01*
X103144575Y-117237902D01*
X103136168Y-117230203D01*
X103128471Y-117221798D01*
X103124275Y-117219312D01*
X103122993Y-117218138D01*
X103121180Y-117217478D01*
X103115821Y-117214304D01*
X102707887Y-117023935D01*
X103369819Y-117023935D01*
X103384451Y-117022494D01*
X103411487Y-117011295D01*
X103432179Y-116990603D01*
X103443378Y-116963567D01*
X103443378Y-116934303D01*
X103432179Y-116907267D01*
X103411487Y-116886575D01*
X103384451Y-116875376D01*
X103369819Y-116873935D01*
X102369819Y-116873935D01*
X102360197Y-116874882D01*
X102358431Y-116874805D01*
X102357482Y-116875149D01*
X102355187Y-116875376D01*
X102343160Y-116880357D01*
X102330930Y-116884805D01*
X102329696Y-116885934D01*
X102328151Y-116886575D01*
X102318945Y-116895780D01*
X102309349Y-116904569D01*
X102308641Y-116906084D01*
X102307459Y-116907267D01*
X102302479Y-116919288D01*
X102296973Y-116931087D01*
X102296899Y-116932758D01*
X102296260Y-116934303D01*
X102296260Y-116947321D01*
X102295689Y-116960323D01*
X102183708Y-116960323D01*
X102183708Y-116234728D01*
X102294819Y-116234728D01*
X102296260Y-116241932D01*
X102296260Y-116249281D01*
X102299101Y-116256141D01*
X102300558Y-116263422D01*
X102304646Y-116269527D01*
X102307459Y-116276317D01*
X102312709Y-116281567D01*
X102316841Y-116287737D01*
X102328099Y-116296957D01*
X102328151Y-116297009D01*
X102328173Y-116297018D01*
X102328216Y-116297053D01*
X102464894Y-116388171D01*
X102546275Y-116469552D01*
X102588451Y-116553904D01*
X102596283Y-116566347D01*
X102618391Y-116585520D01*
X102646152Y-116594774D01*
X102675342Y-116592700D01*
X102701517Y-116579612D01*
X102720690Y-116557505D01*
X102729944Y-116529743D01*
X102727870Y-116500553D01*
X102722615Y-116486822D01*
X102674996Y-116391584D01*
X102671033Y-116385289D01*
X102670275Y-116383457D01*
X102668583Y-116381395D01*
X102667164Y-116379141D01*
X102665667Y-116377842D01*
X102660947Y-116372092D01*
X102598504Y-116309649D01*
X103294819Y-116309649D01*
X103294819Y-116520363D01*
X103296260Y-116534995D01*
X103307459Y-116562031D01*
X103328151Y-116582723D01*
X103355187Y-116593922D01*
X103384451Y-116593922D01*
X103411487Y-116582723D01*
X103432179Y-116562031D01*
X103443378Y-116534995D01*
X103444819Y-116520363D01*
X103444819Y-115948935D01*
X103443378Y-115934303D01*
X103432179Y-115907267D01*
X103411487Y-115886575D01*
X103384451Y-115875376D01*
X103355187Y-115875376D01*
X103328151Y-115886575D01*
X103307459Y-115907267D01*
X103296260Y-115934303D01*
X103294819Y-115948935D01*
X103294819Y-116159649D01*
X102369819Y-116159649D01*
X102369766Y-116159654D01*
X102369740Y-116159649D01*
X102369663Y-116159664D01*
X102355187Y-116161090D01*
X102348326Y-116163931D01*
X102341046Y-116165388D01*
X102334940Y-116169476D01*
X102328151Y-116172289D01*
X102322900Y-116177539D01*
X102316731Y-116181671D01*
X102312654Y-116187785D01*
X102307459Y-116192981D01*
X102304617Y-116199841D01*
X102300498Y-116206020D01*
X102299072Y-116213228D01*
X102296260Y-116220017D01*
X102296260Y-116227443D01*
X102294819Y-116234728D01*
X102183708Y-116234728D01*
X102183708Y-115764265D01*
X103555930Y-115764265D01*
X103555930Y-119849331D01*
G37*
G36*
X101055930Y-119849331D02*
G01*
X99683708Y-119849331D01*
X99683708Y-119007942D01*
X99795689Y-119007942D01*
X99796260Y-119009512D01*
X99796260Y-119011186D01*
X99801241Y-119023212D01*
X99805689Y-119035443D01*
X99806818Y-119036676D01*
X99807459Y-119038222D01*
X99816664Y-119047427D01*
X99825453Y-119057024D01*
X99827435Y-119058198D01*
X99828151Y-119058914D01*
X99829787Y-119059592D01*
X99838103Y-119064518D01*
X100406750Y-119329887D01*
X99838103Y-119595256D01*
X99829787Y-119600181D01*
X99828151Y-119600860D01*
X99827435Y-119601575D01*
X99825453Y-119602750D01*
X99816664Y-119612346D01*
X99807459Y-119621552D01*
X99806818Y-119623097D01*
X99805689Y-119624331D01*
X99801241Y-119636561D01*
X99796260Y-119648588D01*
X99796260Y-119650261D01*
X99795689Y-119651832D01*
X99796260Y-119664833D01*
X99796260Y-119677852D01*
X99796899Y-119679396D01*
X99796973Y-119681068D01*
X99802479Y-119692866D01*
X99807459Y-119704888D01*
X99808641Y-119706070D01*
X99809349Y-119707586D01*
X99818945Y-119716374D01*
X99828151Y-119725580D01*
X99829696Y-119726220D01*
X99830930Y-119727350D01*
X99843160Y-119731797D01*
X99855187Y-119736779D01*
X99857482Y-119737005D01*
X99858431Y-119737350D01*
X99860197Y-119737272D01*
X99869819Y-119738220D01*
X100869819Y-119738220D01*
X100884451Y-119736779D01*
X100911487Y-119725580D01*
X100932179Y-119704888D01*
X100943378Y-119677852D01*
X100943378Y-119648588D01*
X100932179Y-119621552D01*
X100911487Y-119600860D01*
X100884451Y-119589661D01*
X100869819Y-119588220D01*
X100207887Y-119588220D01*
X100615821Y-119397851D01*
X100621180Y-119394676D01*
X100622993Y-119394017D01*
X100624275Y-119392842D01*
X100628471Y-119390357D01*
X100636168Y-119381951D01*
X100644575Y-119374253D01*
X100645984Y-119371232D01*
X100648234Y-119368776D01*
X100652128Y-119358066D01*
X100656950Y-119347735D01*
X100657096Y-119344406D01*
X100658235Y-119341275D01*
X100657734Y-119329887D01*
X100658235Y-119318499D01*
X100657096Y-119315367D01*
X100656950Y-119312039D01*
X100652128Y-119301707D01*
X100648234Y-119290998D01*
X100645984Y-119288541D01*
X100644575Y-119285521D01*
X100636168Y-119277822D01*
X100628471Y-119269417D01*
X100624275Y-119266931D01*
X100622993Y-119265757D01*
X100621180Y-119265097D01*
X100615821Y-119261923D01*
X100207887Y-119071554D01*
X100869819Y-119071554D01*
X100884451Y-119070113D01*
X100911487Y-119058914D01*
X100932179Y-119038222D01*
X100943378Y-119011186D01*
X100943378Y-118981922D01*
X100932179Y-118954886D01*
X100911487Y-118934194D01*
X100884451Y-118922995D01*
X100869819Y-118921554D01*
X99869819Y-118921554D01*
X99860197Y-118922501D01*
X99858431Y-118922424D01*
X99857482Y-118922768D01*
X99855187Y-118922995D01*
X99843160Y-118927976D01*
X99830930Y-118932424D01*
X99829696Y-118933553D01*
X99828151Y-118934194D01*
X99818945Y-118943399D01*
X99809349Y-118952188D01*
X99808641Y-118953703D01*
X99807459Y-118954886D01*
X99802479Y-118966907D01*
X99796973Y-118978706D01*
X99796899Y-118980377D01*
X99796260Y-118981922D01*
X99796260Y-118994940D01*
X99795689Y-119007942D01*
X99683708Y-119007942D01*
X99683708Y-118044173D01*
X99794819Y-118044173D01*
X99794819Y-118520363D01*
X99796260Y-118534995D01*
X99807459Y-118562031D01*
X99828151Y-118582723D01*
X99855187Y-118593922D01*
X99869819Y-118595363D01*
X100869819Y-118595363D01*
X100884451Y-118593922D01*
X100911487Y-118582723D01*
X100932179Y-118562031D01*
X100943378Y-118534995D01*
X100944819Y-118520363D01*
X100944819Y-118044173D01*
X100943378Y-118029541D01*
X100932179Y-118002505D01*
X100911487Y-117981813D01*
X100884451Y-117970614D01*
X100855187Y-117970614D01*
X100828151Y-117981813D01*
X100807459Y-118002505D01*
X100796260Y-118029541D01*
X100794819Y-118044173D01*
X100794819Y-118445363D01*
X100421009Y-118445363D01*
X100421009Y-118187030D01*
X100419568Y-118172398D01*
X100408369Y-118145362D01*
X100387677Y-118124670D01*
X100360641Y-118113471D01*
X100331377Y-118113471D01*
X100304341Y-118124670D01*
X100283649Y-118145362D01*
X100272450Y-118172398D01*
X100271009Y-118187030D01*
X100271009Y-118445363D01*
X99944819Y-118445363D01*
X99944819Y-118044173D01*
X99943378Y-118029541D01*
X99932179Y-118002505D01*
X99911487Y-117981813D01*
X99884451Y-117970614D01*
X99855187Y-117970614D01*
X99828151Y-117981813D01*
X99807459Y-118002505D01*
X99796260Y-118029541D01*
X99794819Y-118044173D01*
X99683708Y-118044173D01*
X99683708Y-116960323D01*
X99795689Y-116960323D01*
X99796260Y-116961893D01*
X99796260Y-116963567D01*
X99801241Y-116975593D01*
X99805689Y-116987824D01*
X99806818Y-116989057D01*
X99807459Y-116990603D01*
X99816664Y-116999808D01*
X99825453Y-117009405D01*
X99827435Y-117010579D01*
X99828151Y-117011295D01*
X99829787Y-117011973D01*
X99838103Y-117016899D01*
X100406750Y-117282268D01*
X99838103Y-117547637D01*
X99829787Y-117552562D01*
X99828151Y-117553241D01*
X99827435Y-117553956D01*
X99825453Y-117555131D01*
X99816664Y-117564727D01*
X99807459Y-117573933D01*
X99806818Y-117575478D01*
X99805689Y-117576712D01*
X99801241Y-117588942D01*
X99796260Y-117600969D01*
X99796260Y-117602642D01*
X99795689Y-117604213D01*
X99796260Y-117617214D01*
X99796260Y-117630233D01*
X99796899Y-117631777D01*
X99796973Y-117633449D01*
X99802479Y-117645247D01*
X99807459Y-117657269D01*
X99808641Y-117658451D01*
X99809349Y-117659967D01*
X99818945Y-117668755D01*
X99828151Y-117677961D01*
X99829696Y-117678601D01*
X99830930Y-117679731D01*
X99843160Y-117684178D01*
X99855187Y-117689160D01*
X99857482Y-117689386D01*
X99858431Y-117689731D01*
X99860197Y-117689653D01*
X99869819Y-117690601D01*
X100869819Y-117690601D01*
X100884451Y-117689160D01*
X100911487Y-117677961D01*
X100932179Y-117657269D01*
X100943378Y-117630233D01*
X100943378Y-117600969D01*
X100932179Y-117573933D01*
X100911487Y-117553241D01*
X100884451Y-117542042D01*
X100869819Y-117540601D01*
X100207887Y-117540601D01*
X100615821Y-117350232D01*
X100621180Y-117347057D01*
X100622993Y-117346398D01*
X100624275Y-117345223D01*
X100628471Y-117342738D01*
X100636168Y-117334332D01*
X100644575Y-117326634D01*
X100645984Y-117323613D01*
X100648234Y-117321157D01*
X100652128Y-117310447D01*
X100656950Y-117300116D01*
X100657096Y-117296787D01*
X100658235Y-117293656D01*
X100657734Y-117282268D01*
X100658235Y-117270880D01*
X100657096Y-117267748D01*
X100656950Y-117264420D01*
X100652128Y-117254088D01*
X100648234Y-117243379D01*
X100645984Y-117240922D01*
X100644575Y-117237902D01*
X100636168Y-117230203D01*
X100628471Y-117221798D01*
X100624275Y-117219312D01*
X100622993Y-117218138D01*
X100621180Y-117217478D01*
X100615821Y-117214304D01*
X100207887Y-117023935D01*
X100869819Y-117023935D01*
X100884451Y-117022494D01*
X100911487Y-117011295D01*
X100932179Y-116990603D01*
X100943378Y-116963567D01*
X100943378Y-116934303D01*
X100932179Y-116907267D01*
X100911487Y-116886575D01*
X100884451Y-116875376D01*
X100869819Y-116873935D01*
X99869819Y-116873935D01*
X99860197Y-116874882D01*
X99858431Y-116874805D01*
X99857482Y-116875149D01*
X99855187Y-116875376D01*
X99843160Y-116880357D01*
X99830930Y-116884805D01*
X99829696Y-116885934D01*
X99828151Y-116886575D01*
X99818945Y-116895780D01*
X99809349Y-116904569D01*
X99808641Y-116906084D01*
X99807459Y-116907267D01*
X99802479Y-116919288D01*
X99796973Y-116931087D01*
X99796899Y-116932758D01*
X99796260Y-116934303D01*
X99796260Y-116947321D01*
X99795689Y-116960323D01*
X99683708Y-116960323D01*
X99683708Y-116139411D01*
X99794819Y-116139411D01*
X99794819Y-116377506D01*
X99796260Y-116392138D01*
X99797291Y-116394627D01*
X99797482Y-116397315D01*
X99802737Y-116411047D01*
X99850356Y-116506285D01*
X99854320Y-116512584D01*
X99855078Y-116514412D01*
X99856766Y-116516468D01*
X99858188Y-116518728D01*
X99859686Y-116520027D01*
X99864405Y-116525777D01*
X99912024Y-116573396D01*
X99923389Y-116582723D01*
X99950425Y-116593922D01*
X99979688Y-116593922D01*
X100006724Y-116582723D01*
X100027417Y-116562030D01*
X100038616Y-116534994D01*
X100038616Y-116505731D01*
X100027417Y-116478695D01*
X100018090Y-116467330D01*
X99979077Y-116428317D01*
X99944819Y-116359801D01*
X99944819Y-116157116D01*
X99979077Y-116088600D01*
X100009484Y-116058193D01*
X100078000Y-116023935D01*
X100143363Y-116023935D01*
X100257876Y-116062106D01*
X100816786Y-116621015D01*
X100828151Y-116630343D01*
X100847268Y-116638261D01*
X100855187Y-116641541D01*
X100855188Y-116641541D01*
X100884451Y-116641541D01*
X100911487Y-116630342D01*
X100932180Y-116609650D01*
X100940098Y-116590532D01*
X100943378Y-116582614D01*
X100944819Y-116567982D01*
X100944819Y-115948935D01*
X100943378Y-115934303D01*
X100932179Y-115907267D01*
X100911487Y-115886575D01*
X100884451Y-115875376D01*
X100855187Y-115875376D01*
X100828151Y-115886575D01*
X100807459Y-115907267D01*
X100796260Y-115934303D01*
X100794819Y-115948935D01*
X100794819Y-116386916D01*
X100351423Y-115943521D01*
X100340058Y-115934194D01*
X100337567Y-115933162D01*
X100335532Y-115931397D01*
X100322107Y-115925403D01*
X100179250Y-115877784D01*
X100171996Y-115876134D01*
X100170165Y-115875376D01*
X100167510Y-115875114D01*
X100164913Y-115874524D01*
X100162938Y-115874664D01*
X100155533Y-115873935D01*
X100060295Y-115873935D01*
X100045663Y-115875376D01*
X100043174Y-115876406D01*
X100040485Y-115876598D01*
X100026754Y-115881853D01*
X99931516Y-115929472D01*
X99925216Y-115933436D01*
X99923389Y-115934194D01*
X99921332Y-115935882D01*
X99919073Y-115937304D01*
X99917773Y-115938802D01*
X99912024Y-115943521D01*
X99864405Y-115991140D01*
X99859686Y-115996889D01*
X99858188Y-115998189D01*
X99856766Y-116000448D01*
X99855078Y-116002505D01*
X99854320Y-116004332D01*
X99850356Y-116010632D01*
X99802737Y-116105870D01*
X99797482Y-116119602D01*
X99797291Y-116122289D01*
X99796260Y-116124779D01*
X99794819Y-116139411D01*
X99683708Y-116139411D01*
X99683708Y-115762824D01*
X101055930Y-115762824D01*
X101055930Y-119849331D01*
G37*
G36*
X98555930Y-119849331D02*
G01*
X97183708Y-119849331D01*
X97183708Y-119007942D01*
X97295689Y-119007942D01*
X97296260Y-119009512D01*
X97296260Y-119011186D01*
X97301241Y-119023212D01*
X97305689Y-119035443D01*
X97306818Y-119036676D01*
X97307459Y-119038222D01*
X97316664Y-119047427D01*
X97325453Y-119057024D01*
X97327435Y-119058198D01*
X97328151Y-119058914D01*
X97329787Y-119059592D01*
X97338103Y-119064518D01*
X97906750Y-119329887D01*
X97338103Y-119595256D01*
X97329787Y-119600181D01*
X97328151Y-119600860D01*
X97327435Y-119601575D01*
X97325453Y-119602750D01*
X97316664Y-119612346D01*
X97307459Y-119621552D01*
X97306818Y-119623097D01*
X97305689Y-119624331D01*
X97301241Y-119636561D01*
X97296260Y-119648588D01*
X97296260Y-119650261D01*
X97295689Y-119651832D01*
X97296260Y-119664833D01*
X97296260Y-119677852D01*
X97296899Y-119679396D01*
X97296973Y-119681068D01*
X97302479Y-119692866D01*
X97307459Y-119704888D01*
X97308641Y-119706070D01*
X97309349Y-119707586D01*
X97318945Y-119716374D01*
X97328151Y-119725580D01*
X97329696Y-119726220D01*
X97330930Y-119727350D01*
X97343160Y-119731797D01*
X97355187Y-119736779D01*
X97357482Y-119737005D01*
X97358431Y-119737350D01*
X97360197Y-119737272D01*
X97369819Y-119738220D01*
X98369819Y-119738220D01*
X98384451Y-119736779D01*
X98411487Y-119725580D01*
X98432179Y-119704888D01*
X98443378Y-119677852D01*
X98443378Y-119648588D01*
X98432179Y-119621552D01*
X98411487Y-119600860D01*
X98384451Y-119589661D01*
X98369819Y-119588220D01*
X97707887Y-119588220D01*
X98115821Y-119397851D01*
X98121180Y-119394676D01*
X98122993Y-119394017D01*
X98124275Y-119392842D01*
X98128471Y-119390357D01*
X98136168Y-119381951D01*
X98144575Y-119374253D01*
X98145984Y-119371232D01*
X98148234Y-119368776D01*
X98152128Y-119358066D01*
X98156950Y-119347735D01*
X98157096Y-119344406D01*
X98158235Y-119341275D01*
X98157734Y-119329887D01*
X98158235Y-119318499D01*
X98157096Y-119315367D01*
X98156950Y-119312039D01*
X98152128Y-119301707D01*
X98148234Y-119290998D01*
X98145984Y-119288541D01*
X98144575Y-119285521D01*
X98136168Y-119277822D01*
X98128471Y-119269417D01*
X98124275Y-119266931D01*
X98122993Y-119265757D01*
X98121180Y-119265097D01*
X98115821Y-119261923D01*
X97707887Y-119071554D01*
X98369819Y-119071554D01*
X98384451Y-119070113D01*
X98411487Y-119058914D01*
X98432179Y-119038222D01*
X98443378Y-119011186D01*
X98443378Y-118981922D01*
X98432179Y-118954886D01*
X98411487Y-118934194D01*
X98384451Y-118922995D01*
X98369819Y-118921554D01*
X97369819Y-118921554D01*
X97360197Y-118922501D01*
X97358431Y-118922424D01*
X97357482Y-118922768D01*
X97355187Y-118922995D01*
X97343160Y-118927976D01*
X97330930Y-118932424D01*
X97329696Y-118933553D01*
X97328151Y-118934194D01*
X97318945Y-118943399D01*
X97309349Y-118952188D01*
X97308641Y-118953703D01*
X97307459Y-118954886D01*
X97302479Y-118966907D01*
X97296973Y-118978706D01*
X97296899Y-118980377D01*
X97296260Y-118981922D01*
X97296260Y-118994940D01*
X97295689Y-119007942D01*
X97183708Y-119007942D01*
X97183708Y-118044173D01*
X97294819Y-118044173D01*
X97294819Y-118520363D01*
X97296260Y-118534995D01*
X97307459Y-118562031D01*
X97328151Y-118582723D01*
X97355187Y-118593922D01*
X97369819Y-118595363D01*
X98369819Y-118595363D01*
X98384451Y-118593922D01*
X98411487Y-118582723D01*
X98432179Y-118562031D01*
X98443378Y-118534995D01*
X98444819Y-118520363D01*
X98444819Y-118044173D01*
X98443378Y-118029541D01*
X98432179Y-118002505D01*
X98411487Y-117981813D01*
X98384451Y-117970614D01*
X98355187Y-117970614D01*
X98328151Y-117981813D01*
X98307459Y-118002505D01*
X98296260Y-118029541D01*
X98294819Y-118044173D01*
X98294819Y-118445363D01*
X97921009Y-118445363D01*
X97921009Y-118187030D01*
X97919568Y-118172398D01*
X97908369Y-118145362D01*
X97887677Y-118124670D01*
X97860641Y-118113471D01*
X97831377Y-118113471D01*
X97804341Y-118124670D01*
X97783649Y-118145362D01*
X97772450Y-118172398D01*
X97771009Y-118187030D01*
X97771009Y-118445363D01*
X97444819Y-118445363D01*
X97444819Y-118044173D01*
X97443378Y-118029541D01*
X97432179Y-118002505D01*
X97411487Y-117981813D01*
X97384451Y-117970614D01*
X97355187Y-117970614D01*
X97328151Y-117981813D01*
X97307459Y-118002505D01*
X97296260Y-118029541D01*
X97294819Y-118044173D01*
X97183708Y-118044173D01*
X97183708Y-116960323D01*
X97295689Y-116960323D01*
X97296260Y-116961893D01*
X97296260Y-116963567D01*
X97301241Y-116975593D01*
X97305689Y-116987824D01*
X97306818Y-116989057D01*
X97307459Y-116990603D01*
X97316664Y-116999808D01*
X97325453Y-117009405D01*
X97327435Y-117010579D01*
X97328151Y-117011295D01*
X97329787Y-117011973D01*
X97338103Y-117016899D01*
X97906750Y-117282268D01*
X97338103Y-117547637D01*
X97329787Y-117552562D01*
X97328151Y-117553241D01*
X97327435Y-117553956D01*
X97325453Y-117555131D01*
X97316664Y-117564727D01*
X97307459Y-117573933D01*
X97306818Y-117575478D01*
X97305689Y-117576712D01*
X97301241Y-117588942D01*
X97296260Y-117600969D01*
X97296260Y-117602642D01*
X97295689Y-117604213D01*
X97296260Y-117617214D01*
X97296260Y-117630233D01*
X97296899Y-117631777D01*
X97296973Y-117633449D01*
X97302479Y-117645247D01*
X97307459Y-117657269D01*
X97308641Y-117658451D01*
X97309349Y-117659967D01*
X97318945Y-117668755D01*
X97328151Y-117677961D01*
X97329696Y-117678601D01*
X97330930Y-117679731D01*
X97343160Y-117684178D01*
X97355187Y-117689160D01*
X97357482Y-117689386D01*
X97358431Y-117689731D01*
X97360197Y-117689653D01*
X97369819Y-117690601D01*
X98369819Y-117690601D01*
X98384451Y-117689160D01*
X98411487Y-117677961D01*
X98432179Y-117657269D01*
X98443378Y-117630233D01*
X98443378Y-117600969D01*
X98432179Y-117573933D01*
X98411487Y-117553241D01*
X98384451Y-117542042D01*
X98369819Y-117540601D01*
X97707887Y-117540601D01*
X98115821Y-117350232D01*
X98121180Y-117347057D01*
X98122993Y-117346398D01*
X98124275Y-117345223D01*
X98128471Y-117342738D01*
X98136168Y-117334332D01*
X98144575Y-117326634D01*
X98145984Y-117323613D01*
X98148234Y-117321157D01*
X98152128Y-117310447D01*
X98156950Y-117300116D01*
X98157096Y-117296787D01*
X98158235Y-117293656D01*
X98157734Y-117282268D01*
X98158235Y-117270880D01*
X98157096Y-117267748D01*
X98156950Y-117264420D01*
X98152128Y-117254088D01*
X98148234Y-117243379D01*
X98145984Y-117240922D01*
X98144575Y-117237902D01*
X98136168Y-117230203D01*
X98128471Y-117221798D01*
X98124275Y-117219312D01*
X98122993Y-117218138D01*
X98121180Y-117217478D01*
X98115821Y-117214304D01*
X97707887Y-117023935D01*
X98369819Y-117023935D01*
X98384451Y-117022494D01*
X98411487Y-117011295D01*
X98432179Y-116990603D01*
X98443378Y-116963567D01*
X98443378Y-116934303D01*
X98432179Y-116907267D01*
X98411487Y-116886575D01*
X98384451Y-116875376D01*
X98369819Y-116873935D01*
X97369819Y-116873935D01*
X97360197Y-116874882D01*
X97358431Y-116874805D01*
X97357482Y-116875149D01*
X97355187Y-116875376D01*
X97343160Y-116880357D01*
X97330930Y-116884805D01*
X97329696Y-116885934D01*
X97328151Y-116886575D01*
X97318945Y-116895780D01*
X97309349Y-116904569D01*
X97308641Y-116906084D01*
X97307459Y-116907267D01*
X97302479Y-116919288D01*
X97296973Y-116931087D01*
X97296899Y-116932758D01*
X97296260Y-116934303D01*
X97296260Y-116947321D01*
X97295689Y-116960323D01*
X97183708Y-116960323D01*
X97183708Y-115948935D01*
X97294819Y-115948935D01*
X97294819Y-116567982D01*
X97296260Y-116582614D01*
X97307459Y-116609650D01*
X97328151Y-116630342D01*
X97355187Y-116641541D01*
X97384451Y-116641541D01*
X97411487Y-116630342D01*
X97432179Y-116609650D01*
X97443378Y-116582614D01*
X97444819Y-116567982D01*
X97444819Y-116114217D01*
X97701383Y-116338711D01*
X97707707Y-116343232D01*
X97709103Y-116344628D01*
X97710426Y-116345176D01*
X97713344Y-116347262D01*
X97724881Y-116351163D01*
X97736139Y-116355827D01*
X97738670Y-116355827D01*
X97741065Y-116356637D01*
X97753218Y-116355827D01*
X97765403Y-116355827D01*
X97767739Y-116354859D01*
X97770263Y-116354691D01*
X97781188Y-116349288D01*
X97792439Y-116344628D01*
X97794225Y-116342841D01*
X97796495Y-116341719D01*
X97804520Y-116332546D01*
X97813131Y-116323936D01*
X97814099Y-116321599D01*
X97815765Y-116319695D01*
X97819666Y-116308157D01*
X97824330Y-116296900D01*
X97824681Y-116293329D01*
X97825140Y-116291974D01*
X97825008Y-116290006D01*
X97825771Y-116282268D01*
X97825771Y-116157116D01*
X97860029Y-116088600D01*
X97890436Y-116058193D01*
X97958952Y-116023935D01*
X98161637Y-116023935D01*
X98230153Y-116058193D01*
X98260561Y-116088600D01*
X98294819Y-116157116D01*
X98294819Y-116407420D01*
X98260561Y-116475935D01*
X98221548Y-116514948D01*
X98212220Y-116526314D01*
X98201021Y-116553350D01*
X98201021Y-116582613D01*
X98212219Y-116609649D01*
X98232912Y-116630342D01*
X98259948Y-116641541D01*
X98289211Y-116641541D01*
X98316247Y-116630343D01*
X98327612Y-116621016D01*
X98375232Y-116573397D01*
X98379950Y-116567647D01*
X98381450Y-116566347D01*
X98382872Y-116564087D01*
X98384560Y-116562031D01*
X98385317Y-116560203D01*
X98389282Y-116553904D01*
X98436901Y-116458666D01*
X98442156Y-116444935D01*
X98442347Y-116442245D01*
X98443378Y-116439757D01*
X98444819Y-116425125D01*
X98444819Y-116139411D01*
X98443378Y-116124779D01*
X98442347Y-116122290D01*
X98442156Y-116119601D01*
X98436901Y-116105870D01*
X98389282Y-116010632D01*
X98385317Y-116004332D01*
X98384560Y-116002505D01*
X98382872Y-116000448D01*
X98381450Y-115998189D01*
X98379950Y-115996888D01*
X98375232Y-115991139D01*
X98327612Y-115943520D01*
X98321863Y-115938802D01*
X98320564Y-115937304D01*
X98318305Y-115935882D01*
X98316247Y-115934193D01*
X98314417Y-115933435D01*
X98308121Y-115929472D01*
X98212883Y-115881853D01*
X98199151Y-115876598D01*
X98196463Y-115876407D01*
X98193974Y-115875376D01*
X98179342Y-115873935D01*
X97941247Y-115873935D01*
X97926615Y-115875376D01*
X97924126Y-115876406D01*
X97921437Y-115876598D01*
X97907706Y-115881853D01*
X97812468Y-115929472D01*
X97806168Y-115933436D01*
X97804341Y-115934194D01*
X97802284Y-115935882D01*
X97800025Y-115937304D01*
X97798725Y-115938802D01*
X97792976Y-115943521D01*
X97745357Y-115991140D01*
X97740638Y-115996889D01*
X97739140Y-115998189D01*
X97737718Y-116000448D01*
X97736030Y-116002505D01*
X97735272Y-116004332D01*
X97731308Y-116010632D01*
X97683689Y-116105870D01*
X97678516Y-116119387D01*
X97419207Y-115892492D01*
X97412882Y-115887970D01*
X97411487Y-115886575D01*
X97410163Y-115886026D01*
X97407246Y-115883941D01*
X97395708Y-115880039D01*
X97384451Y-115875376D01*
X97381920Y-115875376D01*
X97379525Y-115874566D01*
X97367372Y-115875376D01*
X97355187Y-115875376D01*
X97352850Y-115876343D01*
X97350327Y-115876512D01*
X97339401Y-115881914D01*
X97328151Y-115886575D01*
X97326364Y-115888361D01*
X97324095Y-115889484D01*
X97316069Y-115898656D01*
X97307459Y-115907267D01*
X97306490Y-115909603D01*
X97304825Y-115911508D01*
X97300923Y-115923045D01*
X97296260Y-115934303D01*
X97295908Y-115937873D01*
X97295450Y-115939229D01*
X97295581Y-115941196D01*
X97294819Y-115948935D01*
X97183708Y-115948935D01*
X97183708Y-115762824D01*
X98555930Y-115762824D01*
X98555930Y-119849331D01*
G37*
X149500000Y-83247500D02*
X155500000Y-83247500D01*
X159250000Y-83250000D02*
G75*
G02*
X145750000Y-83250000I-6750000J0D01*
G01*
X145750000Y-83250000D02*
G75*
G02*
X159250000Y-83250000I6750000J0D01*
G01*
X135750000Y-83250000D02*
G75*
G02*
X122250000Y-83250000I-6750000J0D01*
G01*
X122250000Y-83250000D02*
G75*
G02*
X135750000Y-83250000I6750000J0D01*
G01*
X152500000Y-80252500D02*
X152500000Y-86247500D01*
X132000000Y-83250000D02*
X126000000Y-83250000D01*
X129000000Y-86245000D02*
X129000000Y-80250000D01*
X135750000Y-68252500D02*
G75*
G02*
X122250000Y-68252500I-6750000J0D01*
G01*
X122250000Y-68252500D02*
G75*
G02*
X135750000Y-68252500I6750000J0D01*
G01*
X152500000Y-65255000D02*
X152500000Y-71250000D01*
X132000000Y-68252500D02*
X126000000Y-68252500D01*
X129000000Y-71247500D02*
X129000000Y-65252500D01*
X159250000Y-68252500D02*
G75*
G02*
X145750000Y-68252500I-6750000J0D01*
G01*
X145750000Y-68252500D02*
G75*
G02*
X159250000Y-68252500I6750000J0D01*
G01*
X149500000Y-68250000D02*
X155500000Y-68250000D01*
X132000000Y-113247500D02*
X126000000Y-113247500D01*
X129000000Y-116242500D02*
X129000000Y-110247500D01*
X135750000Y-113247500D02*
G75*
G02*
X122250000Y-113247500I-6750000J0D01*
G01*
X122250000Y-113247500D02*
G75*
G02*
X135750000Y-113247500I6750000J0D01*
G01*
X152500000Y-110250000D02*
X152500000Y-116245000D01*
X132000000Y-98250000D02*
X126000000Y-98250000D01*
X129000000Y-101245000D02*
X129000000Y-95250000D01*
X135750000Y-98250000D02*
G75*
G02*
X122250000Y-98250000I-6750000J0D01*
G01*
X122250000Y-98250000D02*
G75*
G02*
X135750000Y-98250000I6750000J0D01*
G01*
X152500000Y-95252500D02*
X152500000Y-101247500D01*
X149500000Y-98247500D02*
X155500000Y-98247500D01*
X159250000Y-98250000D02*
G75*
G02*
X145750000Y-98250000I-6750000J0D01*
G01*
X145750000Y-98250000D02*
G75*
G02*
X159250000Y-98250000I6750000J0D01*
G01*
X149500000Y-113245000D02*
X155500000Y-113245000D01*
X159250000Y-113247500D02*
G75*
G02*
X145750000Y-113247500I-6750000J0D01*
G01*
X145750000Y-113247500D02*
G75*
G02*
X159250000Y-113247500I6750000J0D01*
G01*
D11*
%TO.C,G\u002A\u002A\u002A*%
G36*
X102497809Y-86815476D02*
G01*
X102723220Y-86815488D01*
X102930093Y-86815518D01*
X103119259Y-86815584D01*
X103291554Y-86815706D01*
X103447811Y-86815902D01*
X103588863Y-86816189D01*
X103715544Y-86816587D01*
X103828688Y-86817115D01*
X103929129Y-86817789D01*
X104017700Y-86818630D01*
X104095236Y-86819655D01*
X104162569Y-86820883D01*
X104220534Y-86822333D01*
X104269964Y-86824023D01*
X104311693Y-86825970D01*
X104346554Y-86828195D01*
X104375382Y-86830715D01*
X104399010Y-86833549D01*
X104418272Y-86836715D01*
X104434002Y-86840231D01*
X104447033Y-86844117D01*
X104458199Y-86848391D01*
X104468334Y-86853071D01*
X104478271Y-86858175D01*
X104488844Y-86863723D01*
X104491452Y-86865062D01*
X104567881Y-86914584D01*
X104634485Y-86978685D01*
X104687944Y-87053470D01*
X104724941Y-87135045D01*
X104727035Y-87141571D01*
X104730039Y-87151932D01*
X104732701Y-87163376D01*
X104735038Y-87177099D01*
X104737066Y-87194299D01*
X104738804Y-87216172D01*
X104740268Y-87243917D01*
X104741475Y-87278730D01*
X104742443Y-87321808D01*
X104743188Y-87374350D01*
X104743728Y-87437552D01*
X104744079Y-87512611D01*
X104744258Y-87600726D01*
X104744284Y-87703092D01*
X104744172Y-87820908D01*
X104743941Y-87955371D01*
X104743606Y-88107678D01*
X104743198Y-88274206D01*
X104740494Y-89346221D01*
X104708011Y-89414799D01*
X104659005Y-89495530D01*
X104594438Y-89566335D01*
X104517984Y-89623489D01*
X104483994Y-89642140D01*
X104408132Y-89679634D01*
X102265681Y-89681844D01*
X102020674Y-89682094D01*
X101795053Y-89682311D01*
X101587996Y-89682491D01*
X101398681Y-89682626D01*
X101226287Y-89682710D01*
X101069993Y-89682736D01*
X100928977Y-89682699D01*
X100802418Y-89682590D01*
X100689494Y-89682405D01*
X100589384Y-89682137D01*
X100501267Y-89681779D01*
X100424321Y-89681324D01*
X100357724Y-89680767D01*
X100300655Y-89680100D01*
X100252293Y-89679317D01*
X100211817Y-89678413D01*
X100178404Y-89677379D01*
X100151234Y-89676211D01*
X100129484Y-89674901D01*
X100112334Y-89673443D01*
X100098963Y-89671830D01*
X100088548Y-89670056D01*
X100080268Y-89668115D01*
X100073302Y-89666000D01*
X100069150Y-89664551D01*
X99981571Y-89622842D01*
X99905128Y-89565857D01*
X99841912Y-89495787D01*
X99794018Y-89414821D01*
X99770474Y-89351965D01*
X99767861Y-89341293D01*
X99765544Y-89327446D01*
X99763506Y-89309239D01*
X99761730Y-89285486D01*
X99760199Y-89254999D01*
X99758896Y-89216593D01*
X99757803Y-89169082D01*
X99756903Y-89111279D01*
X99756180Y-89041998D01*
X99755615Y-88960052D01*
X99755192Y-88864255D01*
X99754893Y-88753422D01*
X99754702Y-88626365D01*
X99754600Y-88481898D01*
X99754571Y-88318835D01*
X99754575Y-88255744D01*
X99754576Y-88248965D01*
X100973531Y-88248965D01*
X100974465Y-88324815D01*
X100978765Y-88395704D01*
X100986436Y-88455434D01*
X100990597Y-88475426D01*
X101021579Y-88569721D01*
X101065263Y-88652298D01*
X101120178Y-88721481D01*
X101184850Y-88775596D01*
X101257807Y-88812964D01*
X101297712Y-88825030D01*
X101355366Y-88833330D01*
X101422928Y-88835007D01*
X101491396Y-88830362D01*
X101551770Y-88819701D01*
X101564858Y-88816034D01*
X101565507Y-88815792D01*
X101876174Y-88815792D01*
X102078242Y-88815792D01*
X102078630Y-88424284D01*
X102079019Y-88032777D01*
X102175024Y-88280311D01*
X102204737Y-88356891D01*
X102235628Y-88436458D01*
X102265836Y-88514224D01*
X102293501Y-88585398D01*
X102316762Y-88645191D01*
X102327132Y-88671818D01*
X102383234Y-88815792D01*
X102623827Y-88815792D01*
X102805689Y-88815792D01*
X102974921Y-88815616D01*
X103060058Y-88814322D01*
X103132227Y-88810741D01*
X103188641Y-88805046D01*
X103212551Y-88800947D01*
X103275119Y-88782710D01*
X103336333Y-88756042D01*
X103390073Y-88724100D01*
X103430219Y-88690040D01*
X103432475Y-88687529D01*
X103473733Y-88628600D01*
X103508001Y-88555402D01*
X103529928Y-88484995D01*
X103538680Y-88434353D01*
X103544464Y-88369743D01*
X103547276Y-88296956D01*
X103547113Y-88221785D01*
X103543971Y-88150021D01*
X103537848Y-88087455D01*
X103530169Y-88045316D01*
X103501919Y-87957328D01*
X103464433Y-87885881D01*
X103416226Y-87828854D01*
X103355812Y-87784125D01*
X103341726Y-87776251D01*
X103295860Y-87754654D01*
X103247676Y-87738414D01*
X103193505Y-87726915D01*
X103129680Y-87719542D01*
X103052531Y-87715678D01*
X102974921Y-87714694D01*
X102805689Y-87714519D01*
X102805689Y-88815792D01*
X102623827Y-88815792D01*
X102623827Y-87714519D01*
X102421999Y-87714519D01*
X102419353Y-88099806D01*
X102416707Y-88485094D01*
X102269712Y-88102332D01*
X102122716Y-87719571D01*
X101876174Y-87713897D01*
X101876174Y-88815792D01*
X101565507Y-88815792D01*
X101608080Y-88799919D01*
X101651732Y-88779305D01*
X101677060Y-88764564D01*
X101724623Y-88733060D01*
X101724623Y-88219690D01*
X101381106Y-88219690D01*
X101381106Y-88401552D01*
X101532658Y-88401552D01*
X101532658Y-88506400D01*
X101531624Y-88561223D01*
X101528379Y-88597814D01*
X101522713Y-88618048D01*
X101519527Y-88622147D01*
X101489160Y-88636042D01*
X101447189Y-88640684D01*
X101399667Y-88636645D01*
X101352649Y-88624495D01*
X101312187Y-88604807D01*
X101308402Y-88602210D01*
X101275666Y-88567968D01*
X101248008Y-88517360D01*
X101226204Y-88453763D01*
X101211035Y-88380557D01*
X101203277Y-88301119D01*
X101203709Y-88218828D01*
X101208400Y-88168102D01*
X101224603Y-88080546D01*
X101248924Y-88010886D01*
X101282181Y-87958175D01*
X101325192Y-87921466D01*
X101378776Y-87899812D01*
X101443750Y-87892266D01*
X101446778Y-87892244D01*
X101522253Y-87900579D01*
X101588406Y-87926564D01*
X101646808Y-87970831D01*
X101649941Y-87973924D01*
X101684209Y-88008192D01*
X101684209Y-87757421D01*
X101634499Y-87736037D01*
X101565528Y-87713897D01*
X101552525Y-87709723D01*
X101463432Y-87696611D01*
X101373376Y-87696891D01*
X101288515Y-87710755D01*
X101246887Y-87724007D01*
X101175736Y-87762025D01*
X101112726Y-87817120D01*
X101059438Y-87887254D01*
X101017455Y-87970390D01*
X100990887Y-88053636D01*
X100981747Y-88107177D01*
X100975960Y-88174353D01*
X100973531Y-88248965D01*
X99754576Y-88248965D01*
X99754588Y-88083714D01*
X99754624Y-87930670D01*
X99754740Y-87795391D01*
X99754995Y-87676655D01*
X99755446Y-87573240D01*
X99756151Y-87483927D01*
X99757167Y-87407494D01*
X99758554Y-87342719D01*
X99760368Y-87288382D01*
X99762667Y-87243261D01*
X99765510Y-87206135D01*
X99768954Y-87175783D01*
X99773057Y-87150983D01*
X99777876Y-87130516D01*
X99783470Y-87113158D01*
X99789897Y-87097690D01*
X99797214Y-87082890D01*
X99805479Y-87067537D01*
X99811369Y-87056717D01*
X99859755Y-86986971D01*
X99923440Y-86925362D01*
X99998148Y-86875016D01*
X100079603Y-86839062D01*
X100126254Y-86826446D01*
X100140342Y-86825012D01*
X100168560Y-86823689D01*
X100211314Y-86822472D01*
X100269013Y-86821361D01*
X100342063Y-86820353D01*
X100430872Y-86819446D01*
X100535847Y-86818638D01*
X100657396Y-86817926D01*
X100795925Y-86817309D01*
X100951842Y-86816785D01*
X101125555Y-86816351D01*
X101317470Y-86816006D01*
X101527995Y-86815747D01*
X101757538Y-86815572D01*
X102006505Y-86815479D01*
X102253024Y-86815464D01*
X102497809Y-86815476D01*
G37*
G36*
X103144093Y-87914332D02*
G01*
X103203864Y-87937869D01*
X103250889Y-87977080D01*
X103285150Y-88031953D01*
X103297610Y-88065658D01*
X103306930Y-88110697D01*
X103313038Y-88169820D01*
X103315933Y-88237161D01*
X103315615Y-88306854D01*
X103312084Y-88373034D01*
X103305340Y-88429834D01*
X103297610Y-88464653D01*
X103269810Y-88527441D01*
X103229237Y-88574573D01*
X103175908Y-88606037D01*
X103109844Y-88621820D01*
X103071595Y-88623827D01*
X103027964Y-88623827D01*
X103027964Y-87906484D01*
X103071595Y-87906484D01*
X103144093Y-87914332D01*
G37*
G36*
X103144093Y-92914332D02*
G01*
X103203864Y-92937869D01*
X103250889Y-92977080D01*
X103285150Y-93031953D01*
X103297610Y-93065658D01*
X103306930Y-93110697D01*
X103313038Y-93169820D01*
X103315933Y-93237161D01*
X103315615Y-93306854D01*
X103312084Y-93373034D01*
X103305340Y-93429834D01*
X103297610Y-93464653D01*
X103269810Y-93527441D01*
X103229237Y-93574573D01*
X103175908Y-93606037D01*
X103109844Y-93621820D01*
X103071595Y-93623827D01*
X103027964Y-93623827D01*
X103027964Y-92906484D01*
X103071595Y-92906484D01*
X103144093Y-92914332D01*
G37*
G36*
X102497809Y-91815476D02*
G01*
X102723220Y-91815488D01*
X102930093Y-91815518D01*
X103119259Y-91815584D01*
X103291554Y-91815706D01*
X103447811Y-91815902D01*
X103588863Y-91816189D01*
X103715544Y-91816587D01*
X103828688Y-91817115D01*
X103929129Y-91817789D01*
X104017700Y-91818630D01*
X104095236Y-91819655D01*
X104162569Y-91820883D01*
X104220534Y-91822333D01*
X104269964Y-91824023D01*
X104311693Y-91825970D01*
X104346554Y-91828195D01*
X104375382Y-91830715D01*
X104399010Y-91833549D01*
X104418272Y-91836715D01*
X104434002Y-91840231D01*
X104447033Y-91844117D01*
X104458199Y-91848391D01*
X104468334Y-91853071D01*
X104478271Y-91858175D01*
X104488844Y-91863723D01*
X104491452Y-91865062D01*
X104567881Y-91914584D01*
X104634485Y-91978685D01*
X104687944Y-92053470D01*
X104724941Y-92135045D01*
X104727035Y-92141571D01*
X104730039Y-92151932D01*
X104732701Y-92163376D01*
X104735038Y-92177099D01*
X104737066Y-92194299D01*
X104738804Y-92216172D01*
X104740268Y-92243917D01*
X104741475Y-92278730D01*
X104742443Y-92321808D01*
X104743188Y-92374350D01*
X104743728Y-92437552D01*
X104744079Y-92512611D01*
X104744258Y-92600726D01*
X104744284Y-92703092D01*
X104744172Y-92820908D01*
X104743941Y-92955371D01*
X104743606Y-93107678D01*
X104743198Y-93274206D01*
X104740494Y-94346221D01*
X104708011Y-94414799D01*
X104659005Y-94495530D01*
X104594438Y-94566335D01*
X104517984Y-94623489D01*
X104483994Y-94642140D01*
X104408132Y-94679634D01*
X102265681Y-94681844D01*
X102020674Y-94682094D01*
X101795053Y-94682311D01*
X101587996Y-94682491D01*
X101398681Y-94682626D01*
X101226287Y-94682710D01*
X101069993Y-94682736D01*
X100928977Y-94682699D01*
X100802418Y-94682590D01*
X100689494Y-94682405D01*
X100589384Y-94682137D01*
X100501267Y-94681779D01*
X100424321Y-94681324D01*
X100357724Y-94680767D01*
X100300655Y-94680100D01*
X100252293Y-94679317D01*
X100211817Y-94678413D01*
X100178404Y-94677379D01*
X100151234Y-94676211D01*
X100129484Y-94674901D01*
X100112334Y-94673443D01*
X100098963Y-94671830D01*
X100088548Y-94670056D01*
X100080268Y-94668115D01*
X100073302Y-94666000D01*
X100069150Y-94664551D01*
X99981571Y-94622842D01*
X99905128Y-94565857D01*
X99841912Y-94495787D01*
X99794018Y-94414821D01*
X99770474Y-94351965D01*
X99767861Y-94341293D01*
X99765544Y-94327446D01*
X99763506Y-94309239D01*
X99761730Y-94285486D01*
X99760199Y-94254999D01*
X99758896Y-94216593D01*
X99757803Y-94169082D01*
X99756903Y-94111279D01*
X99756180Y-94041998D01*
X99755615Y-93960052D01*
X99755192Y-93864255D01*
X99754893Y-93753422D01*
X99754702Y-93626365D01*
X99754600Y-93481898D01*
X99754571Y-93318835D01*
X99754575Y-93255744D01*
X99754576Y-93248965D01*
X100973531Y-93248965D01*
X100974465Y-93324815D01*
X100978765Y-93395704D01*
X100986436Y-93455434D01*
X100990597Y-93475426D01*
X101021579Y-93569721D01*
X101065263Y-93652298D01*
X101120178Y-93721481D01*
X101184850Y-93775596D01*
X101257807Y-93812964D01*
X101297712Y-93825030D01*
X101355366Y-93833330D01*
X101422928Y-93835007D01*
X101491396Y-93830362D01*
X101551770Y-93819701D01*
X101564858Y-93816034D01*
X101565507Y-93815792D01*
X101876174Y-93815792D01*
X102078242Y-93815792D01*
X102078630Y-93424284D01*
X102079019Y-93032777D01*
X102175024Y-93280311D01*
X102204737Y-93356891D01*
X102235628Y-93436458D01*
X102265836Y-93514224D01*
X102293501Y-93585398D01*
X102316762Y-93645191D01*
X102327132Y-93671818D01*
X102383234Y-93815792D01*
X102623827Y-93815792D01*
X102805689Y-93815792D01*
X102974921Y-93815616D01*
X103060058Y-93814322D01*
X103132227Y-93810741D01*
X103188641Y-93805046D01*
X103212551Y-93800947D01*
X103275119Y-93782710D01*
X103336333Y-93756042D01*
X103390073Y-93724100D01*
X103430219Y-93690040D01*
X103432475Y-93687529D01*
X103473733Y-93628600D01*
X103508001Y-93555402D01*
X103529928Y-93484995D01*
X103538680Y-93434353D01*
X103544464Y-93369743D01*
X103547276Y-93296956D01*
X103547113Y-93221785D01*
X103543971Y-93150021D01*
X103537848Y-93087455D01*
X103530169Y-93045316D01*
X103501919Y-92957328D01*
X103464433Y-92885881D01*
X103416226Y-92828854D01*
X103355812Y-92784125D01*
X103341726Y-92776251D01*
X103295860Y-92754654D01*
X103247676Y-92738414D01*
X103193505Y-92726915D01*
X103129680Y-92719542D01*
X103052531Y-92715678D01*
X102974921Y-92714694D01*
X102805689Y-92714519D01*
X102805689Y-93815792D01*
X102623827Y-93815792D01*
X102623827Y-92714519D01*
X102421999Y-92714519D01*
X102419353Y-93099806D01*
X102416707Y-93485094D01*
X102269712Y-93102332D01*
X102122716Y-92719571D01*
X101876174Y-92713897D01*
X101876174Y-93815792D01*
X101565507Y-93815792D01*
X101608080Y-93799919D01*
X101651732Y-93779305D01*
X101677060Y-93764564D01*
X101724623Y-93733060D01*
X101724623Y-93219690D01*
X101381106Y-93219690D01*
X101381106Y-93401552D01*
X101532658Y-93401552D01*
X101532658Y-93506400D01*
X101531624Y-93561223D01*
X101528379Y-93597814D01*
X101522713Y-93618048D01*
X101519527Y-93622147D01*
X101489160Y-93636042D01*
X101447189Y-93640684D01*
X101399667Y-93636645D01*
X101352649Y-93624495D01*
X101312187Y-93604807D01*
X101308402Y-93602210D01*
X101275666Y-93567968D01*
X101248008Y-93517360D01*
X101226204Y-93453763D01*
X101211035Y-93380557D01*
X101203277Y-93301119D01*
X101203709Y-93218828D01*
X101208400Y-93168102D01*
X101224603Y-93080546D01*
X101248924Y-93010886D01*
X101282181Y-92958175D01*
X101325192Y-92921466D01*
X101378776Y-92899812D01*
X101443750Y-92892266D01*
X101446778Y-92892244D01*
X101522253Y-92900579D01*
X101588406Y-92926564D01*
X101646808Y-92970831D01*
X101649941Y-92973924D01*
X101684209Y-93008192D01*
X101684209Y-92757421D01*
X101634499Y-92736037D01*
X101565528Y-92713897D01*
X101552525Y-92709723D01*
X101463432Y-92696611D01*
X101373376Y-92696891D01*
X101288515Y-92710755D01*
X101246887Y-92724007D01*
X101175736Y-92762025D01*
X101112726Y-92817120D01*
X101059438Y-92887254D01*
X101017455Y-92970390D01*
X100990887Y-93053636D01*
X100981747Y-93107177D01*
X100975960Y-93174353D01*
X100973531Y-93248965D01*
X99754576Y-93248965D01*
X99754588Y-93083714D01*
X99754624Y-92930670D01*
X99754740Y-92795391D01*
X99754995Y-92676655D01*
X99755446Y-92573240D01*
X99756151Y-92483927D01*
X99757167Y-92407494D01*
X99758554Y-92342719D01*
X99760368Y-92288382D01*
X99762667Y-92243261D01*
X99765510Y-92206135D01*
X99768954Y-92175783D01*
X99773057Y-92150983D01*
X99777876Y-92130516D01*
X99783470Y-92113158D01*
X99789897Y-92097690D01*
X99797214Y-92082890D01*
X99805479Y-92067537D01*
X99811369Y-92056717D01*
X99859755Y-91986971D01*
X99923440Y-91925362D01*
X99998148Y-91875016D01*
X100079603Y-91839062D01*
X100126254Y-91826446D01*
X100140342Y-91825012D01*
X100168560Y-91823689D01*
X100211314Y-91822472D01*
X100269013Y-91821361D01*
X100342063Y-91820353D01*
X100430872Y-91819446D01*
X100535847Y-91818638D01*
X100657396Y-91817926D01*
X100795925Y-91817309D01*
X100951842Y-91816785D01*
X101125555Y-91816351D01*
X101317470Y-91816006D01*
X101527995Y-91815747D01*
X101757538Y-91815572D01*
X102006505Y-91815479D01*
X102253024Y-91815464D01*
X102497809Y-91815476D01*
G37*
G36*
X117442889Y-64889334D02*
G01*
X117476793Y-64890408D01*
X117501972Y-64893049D01*
X117522761Y-64897950D01*
X117543497Y-64905807D01*
X117566863Y-64916532D01*
X117631080Y-64954530D01*
X117680601Y-65001161D01*
X117716020Y-65057339D01*
X117737926Y-65123980D01*
X117746645Y-65195104D01*
X117747553Y-65242007D01*
X117744856Y-65279344D01*
X117737756Y-65314713D01*
X117731889Y-65335409D01*
X117703768Y-65398962D01*
X117661567Y-65454172D01*
X117607395Y-65499065D01*
X117543360Y-65531665D01*
X117511303Y-65541956D01*
X117470305Y-65549166D01*
X117419486Y-65552787D01*
X117365647Y-65552804D01*
X117315588Y-65549203D01*
X117277878Y-65542457D01*
X117212765Y-65516520D01*
X117154939Y-65477004D01*
X117107113Y-65426486D01*
X117071997Y-65367543D01*
X117059960Y-65335409D01*
X117050183Y-65297981D01*
X117045235Y-65262640D01*
X117044319Y-65221788D01*
X117045204Y-65195104D01*
X117055234Y-65118058D01*
X117078234Y-65052315D01*
X117114795Y-64996960D01*
X117165508Y-64951078D01*
X117224985Y-64916532D01*
X117249635Y-64905256D01*
X117270255Y-64897590D01*
X117291181Y-64892840D01*
X117316749Y-64890310D01*
X117351295Y-64889305D01*
X117395924Y-64889130D01*
X117442889Y-64889334D01*
G37*
G36*
X114494717Y-63279383D02*
G01*
X114559220Y-63285325D01*
X114616835Y-63295310D01*
X114636674Y-63300398D01*
X114666606Y-63309490D01*
X114689444Y-63317282D01*
X114700479Y-63322163D01*
X114700653Y-63322317D01*
X114700709Y-63331821D01*
X114698542Y-63356407D01*
X114694404Y-63393944D01*
X114688549Y-63442300D01*
X114681229Y-63499343D01*
X114672695Y-63562943D01*
X114668781Y-63591305D01*
X114632037Y-63855422D01*
X114557553Y-63835539D01*
X114473383Y-63817005D01*
X114399000Y-63809428D01*
X114330872Y-63812573D01*
X114296908Y-63818335D01*
X114216748Y-63843436D01*
X114146514Y-63882277D01*
X114087238Y-63934068D01*
X114039948Y-63998014D01*
X114023931Y-64028261D01*
X113999123Y-64080435D01*
X113999116Y-64791304D01*
X113999109Y-65502174D01*
X113425000Y-65502174D01*
X113425000Y-63327967D01*
X113648590Y-63330288D01*
X113872180Y-63332608D01*
X113903025Y-63466675D01*
X113914080Y-63512535D01*
X113924559Y-63552031D01*
X113933602Y-63582211D01*
X113940349Y-63600124D01*
X113942948Y-63603758D01*
X113951705Y-63598474D01*
X113963742Y-63581641D01*
X113970170Y-63569692D01*
X114017912Y-63490924D01*
X114078493Y-63421624D01*
X114149600Y-63363661D01*
X114228917Y-63318903D01*
X114314131Y-63289221D01*
X114318784Y-63288101D01*
X114368607Y-63280543D01*
X114429215Y-63277713D01*
X114494717Y-63279383D01*
G37*
G36*
X111667876Y-63503368D02*
G01*
X111717894Y-63460265D01*
X111807494Y-63392782D01*
X111901771Y-63341354D01*
X112003199Y-63304783D01*
X112072363Y-63288743D01*
X112142318Y-63279720D01*
X112220968Y-63276423D01*
X112302597Y-63278613D01*
X112381488Y-63286051D01*
X112451926Y-63298500D01*
X112479524Y-63305727D01*
X112583433Y-63344426D01*
X112676200Y-63395643D01*
X112758005Y-63459625D01*
X112829030Y-63536622D01*
X112889456Y-63626883D01*
X112939464Y-63730656D01*
X112979236Y-63848192D01*
X113008953Y-63979737D01*
X113019616Y-64047331D01*
X113034745Y-64194564D01*
X113040000Y-64342422D01*
X113035587Y-64487827D01*
X113021710Y-64627703D01*
X112998575Y-64758972D01*
X112966386Y-64878557D01*
X112963729Y-64886621D01*
X112914092Y-65009567D01*
X112851310Y-65121360D01*
X112775990Y-65221499D01*
X112688738Y-65309484D01*
X112590162Y-65384814D01*
X112480869Y-65446988D01*
X112361465Y-65495505D01*
X112232558Y-65529865D01*
X112170989Y-65540668D01*
X112116148Y-65546670D01*
X112048200Y-65550752D01*
X111971332Y-65552912D01*
X111889727Y-65553147D01*
X111807572Y-65551455D01*
X111729052Y-65547833D01*
X111658351Y-65542278D01*
X111646130Y-65541002D01*
X111568305Y-65530859D01*
X111486135Y-65517250D01*
X111403178Y-65500984D01*
X111322993Y-65482869D01*
X111249136Y-65463716D01*
X111185166Y-65444331D01*
X111134642Y-65425526D01*
X111130736Y-65423828D01*
X111093767Y-65407499D01*
X111093767Y-64056481D01*
X111667728Y-64056481D01*
X111669977Y-64537662D01*
X111672226Y-65018842D01*
X111728767Y-65038212D01*
X111804542Y-65058165D01*
X111888989Y-65070311D01*
X111974941Y-65074044D01*
X112055235Y-65068759D01*
X112068013Y-65066886D01*
X112148497Y-65045483D01*
X112221589Y-65009008D01*
X112285558Y-64958837D01*
X112338669Y-64896344D01*
X112379188Y-64822903D01*
X112380953Y-64818726D01*
X112400912Y-64767298D01*
X112416517Y-64717955D01*
X112428250Y-64667492D01*
X112436590Y-64612705D01*
X112442020Y-64550387D01*
X112445021Y-64477335D01*
X112446073Y-64390342D01*
X112446084Y-64384782D01*
X112445722Y-64305354D01*
X112444075Y-64240074D01*
X112440722Y-64185723D01*
X112435240Y-64139079D01*
X112427210Y-64096922D01*
X112416210Y-64056031D01*
X112401817Y-64013184D01*
X112395086Y-63994963D01*
X112358675Y-63918805D01*
X112312418Y-63856925D01*
X112256796Y-63809603D01*
X112192289Y-63777121D01*
X112119380Y-63759761D01*
X112038548Y-63757803D01*
X111997436Y-63762362D01*
X111918251Y-63782681D01*
X111847275Y-63818157D01*
X111785179Y-63868276D01*
X111732631Y-63932520D01*
X111698431Y-63992668D01*
X111667728Y-64056481D01*
X111093767Y-64056481D01*
X111093767Y-62458695D01*
X111667876Y-62458695D01*
X111667876Y-63503368D01*
G37*
G36*
X106265983Y-63270142D02*
G01*
X106392855Y-63280127D01*
X106506754Y-63300345D01*
X106609142Y-63331322D01*
X106701480Y-63373582D01*
X106785231Y-63427652D01*
X106845720Y-63478535D01*
X106918706Y-63558642D01*
X106978813Y-63650362D01*
X107026020Y-63753592D01*
X107060306Y-63868230D01*
X107081650Y-63994172D01*
X107090031Y-64131318D01*
X107085428Y-64279563D01*
X107067820Y-64438807D01*
X107056813Y-64507389D01*
X107047118Y-64563043D01*
X105744109Y-64563043D01*
X105744224Y-64595652D01*
X105747652Y-64636927D01*
X105756736Y-64688260D01*
X105770034Y-64743831D01*
X105786105Y-64797820D01*
X105803507Y-64844406D01*
X105808645Y-64855800D01*
X105852812Y-64929875D01*
X105908846Y-64991244D01*
X105976611Y-65039792D01*
X106055974Y-65075406D01*
X106073267Y-65080979D01*
X106099546Y-65087216D01*
X106137162Y-65093972D01*
X106180119Y-65100236D01*
X106205677Y-65103306D01*
X106295297Y-65107948D01*
X106389854Y-65103776D01*
X106481376Y-65091354D01*
X106531335Y-65080224D01*
X106585783Y-65063402D01*
X106646225Y-65040658D01*
X106706148Y-65014722D01*
X106759040Y-64988326D01*
X106781988Y-64975088D01*
X106807600Y-64959933D01*
X106826718Y-64949829D01*
X106835323Y-64946894D01*
X106835381Y-64946943D01*
X106839896Y-64955256D01*
X106851057Y-64976946D01*
X106867755Y-65009823D01*
X106888880Y-65051696D01*
X106913322Y-65100376D01*
X106930211Y-65134128D01*
X107022232Y-65318256D01*
X106976852Y-65348024D01*
X106859311Y-65415338D01*
X106730247Y-65471037D01*
X106591701Y-65514397D01*
X106445715Y-65544692D01*
X106407769Y-65550210D01*
X106354359Y-65555513D01*
X106289516Y-65559155D01*
X106218291Y-65561103D01*
X106145736Y-65561322D01*
X106076906Y-65559778D01*
X106016852Y-65556437D01*
X105983322Y-65553085D01*
X105888666Y-65535775D01*
X105793121Y-65508623D01*
X105701201Y-65473360D01*
X105617423Y-65431719D01*
X105546657Y-65385697D01*
X105466507Y-65314433D01*
X105394547Y-65228832D01*
X105331558Y-65130293D01*
X105278320Y-65020217D01*
X105235614Y-64900001D01*
X105204547Y-64772739D01*
X105185844Y-64649629D01*
X105175003Y-64518360D01*
X105172450Y-64386495D01*
X105176920Y-64282144D01*
X105184870Y-64206522D01*
X105753902Y-64206522D01*
X106564340Y-64206522D01*
X106559096Y-64104348D01*
X106551809Y-64023651D01*
X106538307Y-63956391D01*
X106517507Y-63899389D01*
X106488327Y-63849464D01*
X106460598Y-63815092D01*
X106415145Y-63777105D01*
X106357855Y-63748765D01*
X106291624Y-63730460D01*
X106219343Y-63722581D01*
X106143906Y-63725517D01*
X106068206Y-63739659D01*
X106018848Y-63755571D01*
X105959141Y-63787472D01*
X105904962Y-63834570D01*
X105857302Y-63895273D01*
X105817153Y-63967987D01*
X105785505Y-64051122D01*
X105763350Y-64143084D01*
X105758456Y-64173913D01*
X105753902Y-64206522D01*
X105184870Y-64206522D01*
X105191846Y-64140161D01*
X105214549Y-64012505D01*
X105245611Y-63897668D01*
X105285617Y-63794142D01*
X105335147Y-63700419D01*
X105394784Y-63614992D01*
X105465092Y-63536372D01*
X105555186Y-63457797D01*
X105654419Y-63393045D01*
X105763203Y-63341980D01*
X105881951Y-63304464D01*
X106011076Y-63280361D01*
X106150991Y-63269533D01*
X106265983Y-63270142D01*
G37*
G36*
X104473944Y-62402313D02*
G01*
X104576421Y-62409489D01*
X104673645Y-62420297D01*
X104761921Y-62434668D01*
X104774946Y-62437289D01*
X104826549Y-62448732D01*
X104878941Y-62461651D01*
X104928680Y-62475068D01*
X104972324Y-62488002D01*
X105006432Y-62499476D01*
X105027564Y-62508510D01*
X105029677Y-62509771D01*
X105032575Y-62514753D01*
X105033229Y-62525725D01*
X105031339Y-62544370D01*
X105026603Y-62572375D01*
X105018720Y-62611426D01*
X105007388Y-62663208D01*
X104992305Y-62729406D01*
X104984009Y-62765234D01*
X104969384Y-62828304D01*
X104956127Y-62885747D01*
X104944729Y-62935417D01*
X104935679Y-62975169D01*
X104929467Y-63002859D01*
X104926583Y-63016340D01*
X104926438Y-63017268D01*
X104918801Y-63016456D01*
X104898168Y-63010867D01*
X104867957Y-63001489D01*
X104841626Y-62992752D01*
X104762262Y-62969672D01*
X104676538Y-62952622D01*
X104581612Y-62941227D01*
X104474645Y-62935109D01*
X104395822Y-62933780D01*
X104335023Y-62933839D01*
X104287820Y-62934705D01*
X104250420Y-62936676D01*
X104219029Y-62940053D01*
X104189853Y-62945134D01*
X104159100Y-62952218D01*
X104157679Y-62952574D01*
X104048639Y-62987948D01*
X103950490Y-63036687D01*
X103863180Y-63098858D01*
X103786656Y-63174527D01*
X103720866Y-63263762D01*
X103665758Y-63366629D01*
X103621279Y-63483194D01*
X103587376Y-63613525D01*
X103572171Y-63697826D01*
X103565388Y-63755908D01*
X103560626Y-63825883D01*
X103557882Y-63903455D01*
X103557151Y-63984330D01*
X103558430Y-64064213D01*
X103561716Y-64138809D01*
X103567006Y-64203823D01*
X103572611Y-64245652D01*
X103601653Y-64383299D01*
X103639718Y-64506374D01*
X103686946Y-64615259D01*
X103741581Y-64707588D01*
X103798024Y-64777995D01*
X103866740Y-64844728D01*
X103942621Y-64903339D01*
X104017431Y-64947816D01*
X104110690Y-64985886D01*
X104213957Y-65012221D01*
X104324484Y-65026910D01*
X104439524Y-65030045D01*
X104556328Y-65021716D01*
X104672149Y-65002014D01*
X104784238Y-64971029D01*
X104889849Y-64928852D01*
X104911404Y-64918351D01*
X104940984Y-64904704D01*
X104958245Y-64900147D01*
X104965338Y-64904113D01*
X104965343Y-64904127D01*
X104968394Y-64915208D01*
X104975109Y-64940847D01*
X104984895Y-64978743D01*
X104997162Y-65026590D01*
X105011315Y-65082085D01*
X105026763Y-65142926D01*
X105027288Y-65145000D01*
X105085500Y-65374784D01*
X105064711Y-65391611D01*
X105014835Y-65424438D01*
X104949605Y-65455268D01*
X104871008Y-65483495D01*
X104781031Y-65508513D01*
X104681662Y-65529713D01*
X104574889Y-65546490D01*
X104545447Y-65550136D01*
X104504462Y-65553879D01*
X104452981Y-65556994D01*
X104394705Y-65559419D01*
X104333334Y-65561089D01*
X104272567Y-65561942D01*
X104216106Y-65561914D01*
X104167651Y-65560941D01*
X104130902Y-65558960D01*
X104117465Y-65557484D01*
X104098236Y-65554707D01*
X104068050Y-65550395D01*
X104033178Y-65545444D01*
X104030479Y-65545062D01*
X103946227Y-65529700D01*
X103856639Y-65507352D01*
X103767828Y-65479857D01*
X103685907Y-65449057D01*
X103634691Y-65425902D01*
X103607111Y-65411058D01*
X103571428Y-65390212D01*
X103533963Y-65367094D01*
X103521609Y-65359163D01*
X103410017Y-65276357D01*
X103309401Y-65180195D01*
X103219905Y-65070932D01*
X103141674Y-64948822D01*
X103074852Y-64814119D01*
X103019584Y-64667079D01*
X102976014Y-64507955D01*
X102945641Y-64346160D01*
X102939757Y-64294398D01*
X102935186Y-64228796D01*
X102931926Y-64152818D01*
X102929978Y-64069927D01*
X102929341Y-63983585D01*
X102930013Y-63897257D01*
X102931994Y-63814404D01*
X102935283Y-63738490D01*
X102939880Y-63672978D01*
X102945782Y-63621331D01*
X102945809Y-63621154D01*
X102978781Y-63451485D01*
X103024768Y-63293344D01*
X103083784Y-63146702D01*
X103155840Y-63011534D01*
X103240951Y-62887811D01*
X103339128Y-62775508D01*
X103347404Y-62767159D01*
X103441054Y-62681813D01*
X103539372Y-62609087D01*
X103644676Y-62547784D01*
X103759282Y-62496704D01*
X103885506Y-62454650D01*
X104012116Y-62423279D01*
X104085421Y-62411280D01*
X104171952Y-62403251D01*
X104268014Y-62399126D01*
X104369909Y-62398836D01*
X104473944Y-62402313D01*
G37*
G36*
X116000389Y-63291823D02*
G01*
X116099325Y-63303638D01*
X116186743Y-63322489D01*
X116264283Y-63348827D01*
X116333583Y-63383098D01*
X116396286Y-63425752D01*
X116453544Y-63476751D01*
X116506304Y-63537098D01*
X116548651Y-63602946D01*
X116581803Y-63677030D01*
X116606979Y-63762084D01*
X116625398Y-63860841D01*
X116625716Y-63863043D01*
X116629018Y-63897094D01*
X116631487Y-63945222D01*
X116633122Y-64004134D01*
X116633922Y-64070537D01*
X116633887Y-64141136D01*
X116633015Y-64212637D01*
X116631307Y-64281747D01*
X116628761Y-64345173D01*
X116625841Y-64393478D01*
X116621086Y-64469512D01*
X116617176Y-64554839D01*
X116614154Y-64646084D01*
X116612062Y-64739869D01*
X116610942Y-64832819D01*
X116610838Y-64921556D01*
X116611792Y-65002705D01*
X116613845Y-65072890D01*
X116616639Y-65123471D01*
X116625945Y-65222391D01*
X116638558Y-65314811D01*
X116653907Y-65397192D01*
X116671420Y-65465999D01*
X116672511Y-65469565D01*
X116685283Y-65510869D01*
X116218954Y-65510869D01*
X116200053Y-65447826D01*
X116178767Y-65377026D01*
X116161828Y-65321222D01*
X116148676Y-65278720D01*
X116138757Y-65247831D01*
X116131513Y-65226862D01*
X116126386Y-65214121D01*
X116122821Y-65207918D01*
X116120608Y-65206522D01*
X116112424Y-65212933D01*
X116097010Y-65229861D01*
X116077486Y-65253842D01*
X116074604Y-65257563D01*
X116002792Y-65337284D01*
X115919733Y-65405613D01*
X115827885Y-65461070D01*
X115729707Y-65502175D01*
X115627654Y-65527451D01*
X115625753Y-65527758D01*
X115580902Y-65532649D01*
X115525386Y-65535279D01*
X115464707Y-65535714D01*
X115404368Y-65534018D01*
X115349871Y-65530257D01*
X115306718Y-65524496D01*
X115303904Y-65523947D01*
X115203263Y-65495586D01*
X115110527Y-65453098D01*
X115027285Y-65397570D01*
X114955124Y-65330090D01*
X114895635Y-65251746D01*
X114887928Y-65239168D01*
X114847335Y-65155341D01*
X114819615Y-65064033D01*
X114804715Y-64968203D01*
X114802580Y-64870808D01*
X114807598Y-64825263D01*
X115391610Y-64825263D01*
X115397004Y-64876295D01*
X115404181Y-64903286D01*
X115431169Y-64956900D01*
X115471593Y-64999815D01*
X115524732Y-65031440D01*
X115583406Y-65049886D01*
X115625073Y-65054573D01*
X115676908Y-65054385D01*
X115732520Y-65049787D01*
X115785518Y-65041241D01*
X115818666Y-65032843D01*
X115870439Y-65012993D01*
X115917755Y-64985772D01*
X115964748Y-64948377D01*
X116012095Y-64901686D01*
X116069383Y-64840978D01*
X116069383Y-64556588D01*
X115984572Y-64550665D01*
X115904448Y-64548651D01*
X115819669Y-64552838D01*
X115734772Y-64562588D01*
X115654296Y-64577260D01*
X115582780Y-64596215D01*
X115535253Y-64613952D01*
X115493662Y-64637984D01*
X115454285Y-64670602D01*
X115422443Y-64706877D01*
X115407119Y-64732608D01*
X115395023Y-64774967D01*
X115391610Y-64825263D01*
X114807598Y-64825263D01*
X114813158Y-64774806D01*
X114836395Y-64683154D01*
X114872237Y-64598810D01*
X114900384Y-64552040D01*
X114962816Y-64475553D01*
X115039086Y-64408615D01*
X115129315Y-64351185D01*
X115233623Y-64303219D01*
X115352132Y-64264674D01*
X115484961Y-64235509D01*
X115632233Y-64215679D01*
X115794067Y-64205142D01*
X115883985Y-64203322D01*
X116068278Y-64202174D01*
X116074288Y-64138217D01*
X116076611Y-64096311D01*
X116076598Y-64051771D01*
X116074717Y-64019816D01*
X116063792Y-63950446D01*
X116045869Y-63895466D01*
X116019465Y-63852774D01*
X115983100Y-63820268D01*
X115935294Y-63795846D01*
X115910993Y-63787350D01*
X115853942Y-63774877D01*
X115783479Y-63768245D01*
X115702472Y-63767159D01*
X115613791Y-63771328D01*
X115520303Y-63780460D01*
X115424878Y-63794262D01*
X115330382Y-63812443D01*
X115239685Y-63834710D01*
X115155655Y-63860771D01*
X115141876Y-63865691D01*
X115071351Y-63891420D01*
X115003485Y-63675079D01*
X114985421Y-63616950D01*
X114969443Y-63564485D01*
X114956200Y-63519899D01*
X114946339Y-63485403D01*
X114940507Y-63463214D01*
X114939265Y-63455563D01*
X114951258Y-63449360D01*
X114976241Y-63439123D01*
X115010648Y-63426152D01*
X115050911Y-63411748D01*
X115093462Y-63397212D01*
X115134734Y-63383844D01*
X115142979Y-63381285D01*
X115263652Y-63348015D01*
X115385524Y-63322532D01*
X115512670Y-63304215D01*
X115649166Y-63292449D01*
X115761399Y-63287514D01*
X115888293Y-63286598D01*
X116000389Y-63291823D01*
G37*
G36*
X108566433Y-63280085D02*
G01*
X108632636Y-63288093D01*
X108689984Y-63300944D01*
X108697294Y-63303225D01*
X108713672Y-63308354D01*
X108729563Y-63312540D01*
X108746928Y-63315896D01*
X108767726Y-63318539D01*
X108793917Y-63320580D01*
X108827461Y-63322136D01*
X108870316Y-63323320D01*
X108924443Y-63324247D01*
X108991802Y-63325030D01*
X109074351Y-63325784D01*
X109085906Y-63325882D01*
X109413627Y-63328664D01*
X109444331Y-63421941D01*
X109499052Y-63588335D01*
X109548541Y-63739170D01*
X109593091Y-63875377D01*
X109632996Y-63997890D01*
X109668549Y-64107638D01*
X109700044Y-64205555D01*
X109727772Y-64292572D01*
X109752029Y-64369621D01*
X109773107Y-64437634D01*
X109791300Y-64497542D01*
X109806900Y-64550278D01*
X109820202Y-64596773D01*
X109831498Y-64637959D01*
X109841082Y-64674768D01*
X109849246Y-64708132D01*
X109849452Y-64709002D01*
X109862183Y-64762072D01*
X109873918Y-64809324D01*
X109883978Y-64848159D01*
X109891685Y-64875976D01*
X109896360Y-64890176D01*
X109897035Y-64891359D01*
X109901945Y-64893614D01*
X109906744Y-64889007D01*
X109911868Y-64875805D01*
X109917754Y-64852274D01*
X109924837Y-64816681D01*
X109933552Y-64767290D01*
X109943979Y-64704547D01*
X109950318Y-64667376D01*
X109957406Y-64629372D01*
X109965619Y-64589026D01*
X109975329Y-64544827D01*
X109986910Y-64495266D01*
X110000737Y-64438834D01*
X110017183Y-64374022D01*
X110036621Y-64299319D01*
X110059426Y-64213218D01*
X110085971Y-64114207D01*
X110116631Y-64000779D01*
X110135135Y-63932608D01*
X110298195Y-63332608D01*
X110591598Y-63330319D01*
X110661070Y-63329889D01*
X110724673Y-63329710D01*
X110780399Y-63329773D01*
X110826244Y-63330064D01*
X110860203Y-63330574D01*
X110880271Y-63331291D01*
X110885000Y-63331956D01*
X110882266Y-63341319D01*
X110874325Y-63365992D01*
X110861568Y-63404820D01*
X110844384Y-63456648D01*
X110823165Y-63520319D01*
X110798302Y-63594679D01*
X110770184Y-63678571D01*
X110739202Y-63770840D01*
X110705748Y-63870331D01*
X110670210Y-63975887D01*
X110632981Y-64086353D01*
X110594451Y-64200573D01*
X110555009Y-64317391D01*
X110515048Y-64435653D01*
X110474956Y-64554202D01*
X110435126Y-64671883D01*
X110395947Y-64787539D01*
X110357810Y-64900016D01*
X110321105Y-65008158D01*
X110286224Y-65110808D01*
X110253557Y-65206812D01*
X110223493Y-65295014D01*
X110196425Y-65374258D01*
X110172742Y-65443388D01*
X110152836Y-65501249D01*
X110137095Y-65546685D01*
X110125912Y-65578540D01*
X110122735Y-65587407D01*
X110076193Y-65712431D01*
X110032501Y-65822010D01*
X109990820Y-65917692D01*
X109950308Y-66001027D01*
X109910123Y-66073564D01*
X109869423Y-66136852D01*
X109827369Y-66192441D01*
X109783117Y-66241879D01*
X109749660Y-66274319D01*
X109693601Y-66320768D01*
X109638794Y-66354794D01*
X109581277Y-66377807D01*
X109517091Y-66391218D01*
X109442276Y-66396437D01*
X109406580Y-66396523D01*
X109363788Y-66395687D01*
X109325022Y-66394425D01*
X109295005Y-66392918D01*
X109280102Y-66391612D01*
X109236962Y-66383376D01*
X109186758Y-66370439D01*
X109138286Y-66355251D01*
X109108088Y-66343738D01*
X109082089Y-66330568D01*
X109071007Y-66319147D01*
X109070781Y-66311879D01*
X109073817Y-66299795D01*
X109080126Y-66273223D01*
X109089134Y-66234633D01*
X109100266Y-66186497D01*
X109112947Y-66131288D01*
X109123471Y-66085225D01*
X109136826Y-66026997D01*
X109148992Y-65974635D01*
X109159419Y-65930448D01*
X109167560Y-65896745D01*
X109172864Y-65875832D01*
X109174703Y-65869856D01*
X109183863Y-65870430D01*
X109205134Y-65874625D01*
X109232690Y-65881227D01*
X109287315Y-65890484D01*
X109337778Y-65887744D01*
X109389919Y-65872307D01*
X109420347Y-65858679D01*
X109479409Y-65820095D01*
X109530501Y-65766089D01*
X109573584Y-65696722D01*
X109608614Y-65612055D01*
X109622374Y-65566668D01*
X109639183Y-65505076D01*
X109198684Y-64451484D01*
X109133748Y-64296259D01*
X109075160Y-64156409D01*
X109022618Y-64031236D01*
X108975819Y-63920045D01*
X108934462Y-63822138D01*
X108898244Y-63736820D01*
X108866865Y-63663393D01*
X108840023Y-63601161D01*
X108817415Y-63549428D01*
X108798739Y-63507496D01*
X108783695Y-63474670D01*
X108771979Y-63450252D01*
X108763291Y-63433547D01*
X108757329Y-63423857D01*
X108753790Y-63420487D01*
X108752523Y-63421772D01*
X108749765Y-63436980D01*
X108745102Y-63466677D01*
X108738938Y-63508113D01*
X108731678Y-63558542D01*
X108723726Y-63615214D01*
X108718864Y-63650536D01*
X108690867Y-63855420D01*
X108616385Y-63835538D01*
X108532214Y-63817005D01*
X108457830Y-63809428D01*
X108389699Y-63812574D01*
X108355743Y-63818335D01*
X108275583Y-63843436D01*
X108205350Y-63882277D01*
X108146074Y-63934068D01*
X108098784Y-63998014D01*
X108082766Y-64028261D01*
X108057959Y-64080435D01*
X108057952Y-64791304D01*
X108057945Y-65502174D01*
X107483835Y-65502174D01*
X107483835Y-63327967D01*
X107707426Y-63330288D01*
X107931016Y-63332608D01*
X107961861Y-63466675D01*
X107972916Y-63512535D01*
X107983394Y-63552031D01*
X107992437Y-63582211D01*
X107999185Y-63600124D01*
X108001784Y-63603758D01*
X108010541Y-63598474D01*
X108022577Y-63581641D01*
X108029006Y-63569692D01*
X108076748Y-63490924D01*
X108137329Y-63421624D01*
X108208435Y-63363661D01*
X108287753Y-63318903D01*
X108372967Y-63289221D01*
X108377619Y-63288101D01*
X108432631Y-63279791D01*
X108497667Y-63277219D01*
X108566433Y-63280085D01*
G37*
D12*
%TO.C,J1*%
X99240000Y-111915000D02*
X117080000Y-111915000D01*
X96640000Y-114575000D02*
X96640000Y-113245000D01*
X97970000Y-114575000D02*
X96640000Y-114575000D01*
X99240000Y-114575000D02*
X99240000Y-111915000D01*
X99240000Y-114575000D02*
X117080000Y-114575000D01*
X117080000Y-114575000D02*
X117080000Y-111915000D01*
D13*
%TO.C,J8*%
X157300000Y-83250000D02*
G75*
G02*
X157200000Y-83250000I-50000J0D01*
G01*
X157200000Y-83250000D02*
G75*
G02*
X157300000Y-83250000I50000J0D01*
G01*
X157200000Y-83250000D02*
G75*
G02*
X157300000Y-83250000I50000J0D01*
G01*
X157300000Y-83250000D02*
X157300000Y-83250000D01*
X157300000Y-83250000D02*
X157300000Y-83250000D01*
X157200000Y-83250000D02*
X157200000Y-83250000D01*
D14*
X155500000Y-84000000D02*
X155500000Y-82500000D01*
X155500000Y-82500000D02*
X155495000Y-82500000D01*
X155495000Y-84000000D02*
X155500000Y-84000000D01*
X155495000Y-82500000D02*
X155495000Y-84000000D01*
X153250000Y-86245000D02*
X153250000Y-86245000D01*
X153250000Y-86245000D02*
X151750000Y-86245000D01*
X153250000Y-80250000D02*
X153250000Y-80250000D01*
X153250000Y-80250000D02*
X151750000Y-80250000D01*
X151750000Y-86245000D02*
X153250000Y-86245000D01*
X151750000Y-86245000D02*
X151750000Y-86245000D01*
X151750000Y-80250000D02*
X153250000Y-80250000D01*
X151750000Y-80250000D02*
X151750000Y-80250000D01*
X149505000Y-84000000D02*
X149505000Y-82500000D01*
X149505000Y-82500000D02*
X149500000Y-82500000D01*
X149500000Y-84000000D02*
X149505000Y-84000000D01*
X149500000Y-82500000D02*
X149500000Y-84000000D01*
D13*
%TO.C,J9*%
X124300000Y-83247500D02*
G75*
G02*
X124200000Y-83247500I-50000J0D01*
G01*
X124300000Y-83247500D02*
G75*
G02*
X124200000Y-83247500I-50000J0D01*
G01*
X124200000Y-83247500D02*
G75*
G02*
X124300000Y-83247500I50000J0D01*
G01*
D14*
X132000000Y-83997500D02*
X132000000Y-82497500D01*
X132000000Y-82497500D02*
X131995000Y-82497500D01*
X131995000Y-83997500D02*
X132000000Y-83997500D01*
X131995000Y-82497500D02*
X131995000Y-83997500D01*
X129750000Y-86247500D02*
X129750000Y-86247500D01*
X129750000Y-86247500D02*
X128250000Y-86247500D01*
X129750000Y-80252500D02*
X129750000Y-80252500D01*
X129750000Y-80252500D02*
X128250000Y-80252500D01*
X128250000Y-86247500D02*
X129750000Y-86247500D01*
X128250000Y-86247500D02*
X128250000Y-86247500D01*
X128250000Y-80252500D02*
X129750000Y-80252500D01*
X128250000Y-80252500D02*
X128250000Y-80252500D01*
X126005000Y-83997500D02*
X126005000Y-82497500D01*
X126005000Y-82497500D02*
X126000000Y-82497500D01*
X126000000Y-83997500D02*
X126005000Y-83997500D01*
X126000000Y-82497500D02*
X126000000Y-83997500D01*
D13*
X124300000Y-83247500D02*
X124300000Y-83247500D01*
X124200000Y-83247500D02*
X124200000Y-83247500D01*
X124200000Y-83247500D02*
X124200000Y-83247500D01*
%TO.C,J5*%
X124300000Y-113245000D02*
G75*
G02*
X124200000Y-113245000I-50000J0D01*
G01*
X124300000Y-113245000D02*
G75*
G02*
X124200000Y-113245000I-50000J0D01*
G01*
X124200000Y-113245000D02*
G75*
G02*
X124300000Y-113245000I50000J0D01*
G01*
D14*
X132000000Y-113995000D02*
X132000000Y-112495000D01*
X132000000Y-112495000D02*
X131995000Y-112495000D01*
X131995000Y-113995000D02*
X132000000Y-113995000D01*
X131995000Y-112495000D02*
X131995000Y-113995000D01*
X129750000Y-116245000D02*
X129750000Y-116245000D01*
X129750000Y-116245000D02*
X128250000Y-116245000D01*
X129750000Y-110250000D02*
X129750000Y-110250000D01*
X129750000Y-110250000D02*
X128250000Y-110250000D01*
X128250000Y-116245000D02*
X129750000Y-116245000D01*
X128250000Y-116245000D02*
X128250000Y-116245000D01*
X128250000Y-110250000D02*
X129750000Y-110250000D01*
X128250000Y-110250000D02*
X128250000Y-110250000D01*
X126005000Y-113995000D02*
X126005000Y-112495000D01*
X126005000Y-112495000D02*
X126000000Y-112495000D01*
X126000000Y-113995000D02*
X126005000Y-113995000D01*
X126000000Y-112495000D02*
X126000000Y-113995000D01*
D13*
X124300000Y-113245000D02*
X124300000Y-113245000D01*
X124200000Y-113245000D02*
X124200000Y-113245000D01*
X124200000Y-113245000D02*
X124200000Y-113245000D01*
D14*
%TO.C,J6*%
X149500000Y-67502500D02*
X149500000Y-69002500D01*
X149500000Y-69002500D02*
X149505000Y-69002500D01*
X149505000Y-67502500D02*
X149500000Y-67502500D01*
X149505000Y-69002500D02*
X149505000Y-67502500D01*
X151750000Y-65252500D02*
X151750000Y-65252500D01*
X151750000Y-65252500D02*
X153250000Y-65252500D01*
X151750000Y-71247500D02*
X151750000Y-71247500D01*
X151750000Y-71247500D02*
X153250000Y-71247500D01*
X153250000Y-65252500D02*
X151750000Y-65252500D01*
X153250000Y-65252500D02*
X153250000Y-65252500D01*
X153250000Y-71247500D02*
X151750000Y-71247500D01*
X153250000Y-71247500D02*
X153250000Y-71247500D01*
X155495000Y-67502500D02*
X155495000Y-69002500D01*
X155495000Y-69002500D02*
X155500000Y-69002500D01*
X155500000Y-67502500D02*
X155495000Y-67502500D01*
X155500000Y-69002500D02*
X155500000Y-67502500D01*
D13*
X157200000Y-68252500D02*
X157200000Y-68252500D01*
X157300000Y-68252500D02*
X157300000Y-68252500D01*
X157300000Y-68252500D02*
X157300000Y-68252500D01*
X157200000Y-68252500D02*
G75*
G02*
X157300000Y-68252500I50000J0D01*
G01*
X157200000Y-68252500D02*
G75*
G02*
X157300000Y-68252500I50000J0D01*
G01*
X157300000Y-68252500D02*
G75*
G02*
X157200000Y-68252500I-50000J0D01*
G01*
%TO.C,J10*%
X124200000Y-68250000D02*
X124200000Y-68250000D01*
X124200000Y-68250000D02*
X124200000Y-68250000D01*
X124300000Y-68250000D02*
X124300000Y-68250000D01*
D14*
X126000000Y-67500000D02*
X126000000Y-69000000D01*
X126000000Y-69000000D02*
X126005000Y-69000000D01*
X126005000Y-67500000D02*
X126000000Y-67500000D01*
X126005000Y-69000000D02*
X126005000Y-67500000D01*
X128250000Y-65255000D02*
X128250000Y-65255000D01*
X128250000Y-65255000D02*
X129750000Y-65255000D01*
X128250000Y-71250000D02*
X128250000Y-71250000D01*
X128250000Y-71250000D02*
X129750000Y-71250000D01*
X129750000Y-65255000D02*
X128250000Y-65255000D01*
X129750000Y-65255000D02*
X129750000Y-65255000D01*
X129750000Y-71250000D02*
X128250000Y-71250000D01*
X129750000Y-71250000D02*
X129750000Y-71250000D01*
X131995000Y-67500000D02*
X131995000Y-69000000D01*
X131995000Y-69000000D02*
X132000000Y-69000000D01*
X132000000Y-67500000D02*
X131995000Y-67500000D01*
X132000000Y-69000000D02*
X132000000Y-67500000D01*
D13*
X124200000Y-68250000D02*
G75*
G02*
X124300000Y-68250000I50000J0D01*
G01*
X124300000Y-68250000D02*
G75*
G02*
X124200000Y-68250000I-50000J0D01*
G01*
X124300000Y-68250000D02*
G75*
G02*
X124200000Y-68250000I-50000J0D01*
G01*
D14*
%TO.C,J11*%
X149500000Y-97500000D02*
X149500000Y-99000000D01*
X149500000Y-99000000D02*
X149505000Y-99000000D01*
X149505000Y-97500000D02*
X149500000Y-97500000D01*
X149505000Y-99000000D02*
X149505000Y-97500000D01*
X151750000Y-95250000D02*
X151750000Y-95250000D01*
X151750000Y-95250000D02*
X153250000Y-95250000D01*
X151750000Y-101245000D02*
X151750000Y-101245000D01*
X151750000Y-101245000D02*
X153250000Y-101245000D01*
X153250000Y-95250000D02*
X151750000Y-95250000D01*
X153250000Y-95250000D02*
X153250000Y-95250000D01*
X153250000Y-101245000D02*
X151750000Y-101245000D01*
X153250000Y-101245000D02*
X153250000Y-101245000D01*
X155495000Y-97500000D02*
X155495000Y-99000000D01*
X155495000Y-99000000D02*
X155500000Y-99000000D01*
X155500000Y-97500000D02*
X155495000Y-97500000D01*
X155500000Y-99000000D02*
X155500000Y-97500000D01*
D13*
X157200000Y-98250000D02*
X157200000Y-98250000D01*
X157300000Y-98250000D02*
X157300000Y-98250000D01*
X157300000Y-98250000D02*
X157300000Y-98250000D01*
X157200000Y-98250000D02*
G75*
G02*
X157300000Y-98250000I50000J0D01*
G01*
X157200000Y-98250000D02*
G75*
G02*
X157300000Y-98250000I50000J0D01*
G01*
X157300000Y-98250000D02*
G75*
G02*
X157200000Y-98250000I-50000J0D01*
G01*
%TO.C,J12*%
X157200000Y-113247500D02*
G75*
G02*
X157300000Y-113247500I50000J0D01*
G01*
X157200000Y-113247500D02*
G75*
G02*
X157300000Y-113247500I50000J0D01*
G01*
X157300000Y-113247500D02*
G75*
G02*
X157200000Y-113247500I-50000J0D01*
G01*
D14*
X149500000Y-112497500D02*
X149500000Y-113997500D01*
X149500000Y-113997500D02*
X149505000Y-113997500D01*
X149505000Y-112497500D02*
X149500000Y-112497500D01*
X149505000Y-113997500D02*
X149505000Y-112497500D01*
X151750000Y-110247500D02*
X151750000Y-110247500D01*
X151750000Y-110247500D02*
X153250000Y-110247500D01*
X151750000Y-116242500D02*
X151750000Y-116242500D01*
X151750000Y-116242500D02*
X153250000Y-116242500D01*
X153250000Y-110247500D02*
X151750000Y-110247500D01*
X153250000Y-110247500D02*
X153250000Y-110247500D01*
X153250000Y-116242500D02*
X151750000Y-116242500D01*
X153250000Y-116242500D02*
X153250000Y-116242500D01*
X155495000Y-112497500D02*
X155495000Y-113997500D01*
X155495000Y-113997500D02*
X155500000Y-113997500D01*
X155500000Y-112497500D02*
X155495000Y-112497500D01*
X155500000Y-113997500D02*
X155500000Y-112497500D01*
D13*
X157200000Y-113247500D02*
X157200000Y-113247500D01*
X157300000Y-113247500D02*
X157300000Y-113247500D01*
X157300000Y-113247500D02*
X157300000Y-113247500D01*
%TO.C,J7*%
X124200000Y-98247500D02*
X124200000Y-98247500D01*
X124200000Y-98247500D02*
X124200000Y-98247500D01*
X124300000Y-98247500D02*
X124300000Y-98247500D01*
D14*
X126000000Y-97497500D02*
X126000000Y-98997500D01*
X126000000Y-98997500D02*
X126005000Y-98997500D01*
X126005000Y-97497500D02*
X126000000Y-97497500D01*
X126005000Y-98997500D02*
X126005000Y-97497500D01*
X128250000Y-95252500D02*
X128250000Y-95252500D01*
X128250000Y-95252500D02*
X129750000Y-95252500D01*
X128250000Y-101247500D02*
X128250000Y-101247500D01*
X128250000Y-101247500D02*
X129750000Y-101247500D01*
X129750000Y-95252500D02*
X128250000Y-95252500D01*
X129750000Y-95252500D02*
X129750000Y-95252500D01*
X129750000Y-101247500D02*
X128250000Y-101247500D01*
X129750000Y-101247500D02*
X129750000Y-101247500D01*
X131995000Y-97497500D02*
X131995000Y-98997500D01*
X131995000Y-98997500D02*
X132000000Y-98997500D01*
X132000000Y-97497500D02*
X131995000Y-97497500D01*
X132000000Y-98997500D02*
X132000000Y-97497500D01*
D13*
X124200000Y-98247500D02*
G75*
G02*
X124300000Y-98247500I50000J0D01*
G01*
X124300000Y-98247500D02*
G75*
G02*
X124200000Y-98247500I-50000J0D01*
G01*
X124300000Y-98247500D02*
G75*
G02*
X124200000Y-98247500I-50000J0D01*
G01*
D12*
%TO.C,J13*%
X105605000Y-79300000D02*
X105605000Y-82200000D01*
X100800000Y-84105000D02*
X103700000Y-84105000D01*
X100800000Y-77395000D02*
X103700000Y-77395000D01*
X98895000Y-79300000D02*
X98895000Y-82200000D01*
%TO.C,J14*%
X105605000Y-99300000D02*
X105605000Y-102200000D01*
X100800000Y-104105000D02*
X103700000Y-104105000D01*
X100800000Y-97395000D02*
X103700000Y-97395000D01*
X98895000Y-99300000D02*
X98895000Y-102200000D01*
%TD*%
M02*
