%TF.GenerationSoftware,KiCad,Pcbnew,9.0.0*%
%TF.CreationDate,2025-03-03T21:18:55-05:00*%
%TF.ProjectId,neurophy-adaptor,6e657572-6f70-4687-992d-61646170746f,1*%
%TF.SameCoordinates,Original*%
%TF.FileFunction,Profile,NP*%
%FSLAX46Y46*%
G04 Gerber Fmt 4.6, Leading zero omitted, Abs format (unit mm)*
G04 Created by KiCad (PCBNEW 9.0.0) date 2025-03-03 21:18:55*
%MOMM*%
%LPD*%
G01*
G04 APERTURE LIST*
%TA.AperFunction,Profile*%
%ADD10C,0.100000*%
%TD*%
G04 APERTURE END LIST*
D10*
X90750000Y-75750000D02*
X90750000Y-70750000D01*
X120750000Y-60750000D02*
X110750000Y-60750000D01*
X100750000Y-60750000D02*
X110750000Y-60750000D01*
X90750000Y-120750000D02*
X100750000Y-120750000D01*
X110750000Y-120750000D02*
X100750000Y-120750000D01*
X120750000Y-120750000D02*
X110750000Y-120750000D01*
X90750000Y-110750000D02*
X90750000Y-120750000D01*
X170750000Y-70750000D02*
X170750000Y-60750000D01*
X160750000Y-60750000D02*
X170750000Y-60750000D01*
X160750000Y-120750000D02*
G75*
G02*
X170750000Y-110750000I9999999J1D01*
G01*
X100750000Y-60750000D02*
G75*
G02*
X90750000Y-70750000I-9999999J-1D01*
G01*
X90750000Y-110750000D02*
X90750000Y-105750000D01*
X120750000Y-120750000D02*
X125750000Y-120750000D01*
X160750000Y-120750000D02*
X155750000Y-120750000D01*
X170750000Y-110750000D02*
X170750000Y-105750000D01*
X170750000Y-70750000D02*
X170750000Y-75750000D01*
X160750000Y-60750000D02*
X155750000Y-60750000D01*
X120750000Y-60750000D02*
X125750000Y-60750000D01*
X170750000Y-105750000D02*
X170750000Y-75750000D01*
X90750000Y-105750000D02*
X90750000Y-75750000D01*
X155750000Y-120750000D02*
X125750000Y-120750000D01*
X125750000Y-60750000D02*
X155750000Y-60750000D01*
M02*
