M48
; DRILL file {KiCad 7.0.10} date Wednesday, May 08, 2024 at 04:25:12 PM
; FORMAT={-:-/ absolute / inch / decimal}
; #@! TF.CreationDate,2024-05-08T16:25:12-04:00
; #@! TF.GenerationSoftware,Kicad,Pcbnew,7.0.10
; #@! TF.FileFunction,Plated,1,4,PTH
FMAT,2
INCH
; #@! TA.AperFunction,Plated,PTH,ViaDrill
T1C0.0157
; #@! TA.AperFunction,Plated,PTH,ComponentDrill
T2C0.0197
; #@! TA.AperFunction,Plated,PTH,ComponentDrill
T3C0.0236
; #@! TA.AperFunction,Plated,PTH,ComponentDrill
T4C0.0394
; #@! TA.AperFunction,Plated,PTH,ComponentDrill
T5C0.0550
; #@! TA.AperFunction,Plated,PTH,ComponentDrill
T6C0.0590
; #@! TA.AperFunction,Plated,PTH,ComponentDrill
T7C0.1063
; #@! TA.AperFunction,Plated,PTH,ComponentDrill
T8C0.1693
%
G90
G05
T1
X3.7008Y-3.9567
X3.7008Y-4.0551
X3.7008Y-4.1535
X3.7008Y-4.252
X3.7008Y-4.3504
X3.7008Y-4.4488
X3.7008Y-4.5472
X3.7008Y-4.6457
X3.7008Y-4.7441
X3.7008Y-4.8425
X3.7008Y-4.9409
X3.7008Y-5.0394
X3.7008Y-5.1378
X3.7008Y-5.2362
X3.7008Y-5.3346
X3.7008Y-5.4331
X3.7008Y-5.5315
X3.7008Y-5.6299
X3.7008Y-5.7283
X3.7008Y-5.8268
X3.7008Y-5.9252
X3.7008Y-6.0236
X3.7008Y-6.122
X3.7008Y-6.2205
X3.7008Y-6.3189
X3.7008Y-6.4173
X3.7008Y-6.5157
X3.7008Y-6.6142
X3.7008Y-6.7126
X3.7008Y-6.811
X3.7008Y-6.9094
X3.7008Y-7.0079
X3.7008Y-7.1063
X3.7008Y-7.2047
X3.7008Y-7.3031
X3.7008Y-7.4016
X3.7008Y-7.5
X3.7008Y-7.5984
X3.7008Y-7.6969
X3.7008Y-7.7953
X3.7008Y-7.8937
X3.7008Y-7.9921
X3.7008Y-8.0906
X3.7008Y-8.189
X3.7008Y-8.2874
X3.7008Y-8.3858
X3.7008Y-8.4843
X3.7008Y-8.5827
X3.7008Y-8.6811
X3.7008Y-8.7795
X3.7008Y-8.878
X3.7008Y-8.9764
X3.7008Y-9.0748
X3.7008Y-9.1732
X3.7008Y-9.2717
X3.7008Y-9.3701
X3.7008Y-9.4685
X3.7008Y-9.5669
X3.7008Y-9.6654
X3.7008Y-9.7638
X3.7008Y-9.8622
X3.7008Y-9.9606
X3.7008Y-10.0591
X3.7008Y-10.1575
X3.7008Y-10.2559
X3.7008Y-10.3543
X3.7008Y-10.4528
X3.7008Y-10.5512
X3.7008Y-10.6496
X3.7008Y-10.748
X3.7008Y-10.8465
X3.7008Y-10.9449
X3.7008Y-11.0433
X3.7008Y-11.1417
X3.7008Y-11.2402
X3.7008Y-11.3386
X3.7008Y-11.437
X3.7008Y-11.5354
X3.7008Y-11.6339
X3.7008Y-11.7323
X3.7992Y-3.9567
X3.7992Y-11.7323
X3.8976Y-3.9567
X3.8976Y-11.7323
X3.9961Y-3.9567
X3.9961Y-11.7323
X4.0945Y-3.9567
X4.0945Y-11.7323
X4.1929Y-3.9567
X4.1929Y-11.7323
X4.2913Y-3.9567
X4.2913Y-11.7323
X4.3898Y-3.9567
X4.3898Y-11.7323
X4.4882Y-3.9567
X4.4882Y-11.7323
X4.5866Y-3.9567
X4.5866Y-11.7323
X4.685Y-3.9567
X4.685Y-11.7323
X4.7835Y-3.9567
X4.7835Y-11.7323
X4.8819Y-3.9567
X4.8819Y-11.7323
X4.9803Y-3.9567
X4.9803Y-11.7323
X5.0787Y-3.9567
X5.0787Y-11.7323
X5.1772Y-3.9567
X5.1772Y-11.7323
X5.2756Y-3.9567
X5.2756Y-11.7323
X5.374Y-3.9567
X5.374Y-11.7323
X5.4724Y-3.9567
X5.4724Y-11.7323
X5.5709Y-3.9567
X5.5709Y-11.7323
X5.6693Y-3.9567
X5.6693Y-11.7323
X5.7677Y-3.9567
X5.7677Y-11.7323
X5.8661Y-3.9567
X5.8661Y-11.7323
X5.9439Y-11.1427
X5.9449Y-11.0427
X5.9646Y-3.9567
X5.9646Y-11.7323
X5.9941Y-10.9154
X6.063Y-3.9567
X6.063Y-11.7323
X6.1516Y-10.9154
X6.1614Y-3.9567
X6.1614Y-11.7323
X6.1998Y-11.1427
X6.2002Y-11.0427
X6.2598Y-3.9567
X6.2598Y-11.7323
X6.3583Y-3.9567
X6.3583Y-11.7323
X6.4567Y-3.9567
X6.4567Y-11.7323
X6.4862Y-10.9154
X6.5551Y-3.9567
X6.5551Y-11.7323
X6.6535Y-3.9567
X6.6535Y-11.7323
X6.6626Y-10.9154
X6.6634Y-11.0427
X6.6634Y-11.1427
X6.7323Y-7.5
X6.7323Y-7.5984
X6.7323Y-7.6969
X6.7323Y-7.7953
X6.7323Y-7.8937
X6.7323Y-7.9921
X6.7323Y-8.0906
X6.7323Y-8.189
X6.752Y-3.9567
X6.752Y-11.7323
X6.8504Y-3.9567
X6.8504Y-11.7323
X6.9488Y-3.9567
X6.9488Y-11.7323
X7.0472Y-3.9567
X7.0472Y-11.7323
X7.0571Y-10.9154
X7.125Y-11.1427
X7.1254Y-11.0427
X7.1457Y-3.9567
X7.1457Y-11.7323
X7.2441Y-3.9567
X7.2441Y-11.7323
X7.3425Y-3.9567
X7.3425Y-11.7323
X7.4409Y-3.9567
X7.4409Y-11.7323
X7.5394Y-3.9567
X7.5394Y-11.7323
X7.6378Y-3.9567
X7.6378Y-11.7323
X7.7362Y-3.9567
X7.7362Y-11.7323
X7.8346Y-3.9567
X7.8346Y-11.7323
X7.9331Y-3.9567
X7.9331Y-11.7323
X7.9823Y-5.2214
X7.9823Y-10.1426
X8.0305Y-6.2411
X8.0305Y-6.4951
X8.0315Y-3.9567
X8.0315Y-11.7323
X8.1299Y-3.9567
X8.1299Y-11.7323
X8.1305Y-6.2407
X8.1305Y-6.4955
X8.1496Y-5.2214
X8.1496Y-10.1426
X8.2283Y-3.9567
X8.2283Y-11.7323
X8.2579Y-6.2894
X8.2579Y-6.4469
X8.3268Y-3.9567
X8.3268Y-11.7323
X8.4252Y-3.9567
X8.4252Y-11.7323
X8.4941Y-9.9803
X8.5236Y-3.9567
X8.5236Y-11.7323
X8.6211Y-4.872
X8.6211Y-5.1073
X8.6211Y-10.0384
X8.622Y-3.9567
X8.622Y-11.7323
X8.7205Y-3.9567
X8.7205Y-11.7323
X8.7211Y-4.872
X8.7211Y-5.1073
X8.7211Y-10.0388
X8.8189Y-3.9567
X8.8189Y-11.7323
X8.8484Y-4.9114
X8.8484Y-5.0689
X8.9173Y-3.9567
X8.9173Y-11.7323
X9.0157Y-3.9567
X9.0157Y-11.7323
X9.1142Y-3.9567
X9.1142Y-11.7323
X9.2126Y-3.9567
X9.2126Y-11.7323
X9.311Y-3.9567
X9.311Y-11.7323
X9.4094Y-3.9567
X9.4094Y-11.7323
X9.5079Y-3.9567
X9.5079Y-11.7323
X9.6063Y-3.9567
X9.6063Y-11.7323
X9.7047Y-3.9567
X9.7047Y-11.7323
X9.8031Y-3.9567
X9.8031Y-4.4291
X9.8031Y-11.2598
X9.8031Y-11.7323
X9.9016Y-3.9567
X9.9016Y-4.4291
X9.9016Y-11.2598
X9.9016Y-11.7323
X10.0Y-3.9567
X10.0Y-4.4291
X10.0Y-11.2598
X10.0Y-11.7323
X10.0984Y-3.9567
X10.0984Y-4.4291
X10.0984Y-11.2598
X10.0984Y-11.7323
X10.1969Y-3.9567
X10.1969Y-4.4291
X10.1969Y-11.2598
X10.1969Y-11.7323
X10.2953Y-3.9567
X10.2953Y-4.4291
X10.2953Y-11.2598
X10.2953Y-11.7323
X10.3937Y-3.9567
X10.3937Y-4.4291
X10.3937Y-11.2598
X10.3937Y-11.7323
X10.4921Y-3.9567
X10.4921Y-4.4291
X10.4921Y-11.2598
X10.4921Y-11.7323
X10.5906Y-3.9567
X10.5906Y-11.7323
X10.689Y-3.9567
X10.689Y-11.7323
X10.7874Y-3.9567
X10.7874Y-11.7323
X10.8858Y-3.9567
X10.8858Y-11.7323
X10.9843Y-3.9567
X10.9843Y-11.7323
X11.0827Y-3.9567
X11.0827Y-11.7323
X11.1811Y-3.9567
X11.1811Y-11.7323
X11.2795Y-3.9567
X11.2795Y-11.7323
X11.378Y-3.9567
X11.378Y-11.7323
X11.4764Y-3.9567
X11.4764Y-11.7323
X11.5748Y-3.9567
X11.5748Y-11.7323
X11.6732Y-3.9567
X11.6732Y-11.7323
X11.7717Y-3.9567
X11.7717Y-11.7323
X11.8701Y-3.9567
X11.8701Y-11.7323
X11.9685Y-3.9567
X11.9685Y-11.7323
X12.0669Y-3.9567
X12.0669Y-11.7323
X12.1654Y-3.9567
X12.1654Y-11.7323
X12.2638Y-3.9567
X12.2638Y-11.7323
X12.3622Y-3.9567
X12.3622Y-11.7323
X12.4606Y-3.9567
X12.4606Y-11.7323
X12.5591Y-3.9567
X12.5591Y-11.7323
X12.6575Y-3.9567
X12.6575Y-11.7323
X12.7559Y-3.9567
X12.7559Y-11.7323
X12.8543Y-3.9567
X12.8543Y-11.7323
X12.9528Y-3.9567
X12.9528Y-11.7323
X13.0512Y-3.9567
X13.0512Y-11.7323
X13.1496Y-3.9567
X13.1496Y-11.7323
X13.248Y-3.9567
X13.248Y-11.7323
X13.3465Y-3.9567
X13.3465Y-11.7323
X13.4449Y-3.9567
X13.4449Y-11.7323
X13.5433Y-3.9567
X13.5433Y-11.7323
X13.6417Y-3.9567
X13.6417Y-11.7323
X13.7402Y-3.9567
X13.7402Y-11.7323
X13.8386Y-3.9567
X13.8386Y-11.7323
X13.937Y-3.9567
X13.937Y-11.7323
X14.0354Y-3.9567
X14.0354Y-11.7323
X14.1339Y-3.9567
X14.1339Y-11.7323
X14.2323Y-3.9567
X14.2323Y-11.7323
X14.3307Y-3.9567
X14.3307Y-11.7323
X14.4291Y-3.9567
X14.4291Y-11.7323
X14.5276Y-3.9567
X14.5276Y-11.7323
X14.626Y-3.9567
X14.626Y-11.7323
X14.7244Y-3.9567
X14.7244Y-11.7323
X14.8228Y-3.9567
X14.8228Y-11.7323
X14.9213Y-3.9567
X14.9213Y-11.7323
X15.0197Y-3.9567
X15.0197Y-11.7323
X15.1181Y-3.9567
X15.1181Y-11.7323
X15.2165Y-3.9567
X15.2165Y-11.7323
X15.315Y-3.9567
X15.315Y-11.7323
X15.4134Y-3.9567
X15.4134Y-11.7323
X15.5118Y-3.9567
X15.5118Y-11.7323
X15.6102Y-3.9567
X15.6102Y-11.7323
X15.7087Y-3.9567
X15.7087Y-11.7323
X15.8071Y-3.9567
X15.8071Y-11.7323
X15.9055Y-3.9567
X15.9055Y-11.7323
X16.0039Y-3.9567
X16.0039Y-11.7323
X16.1024Y-3.9567
X16.1024Y-11.7323
X16.2008Y-3.9567
X16.2008Y-11.7323
X16.2992Y-3.9567
X16.2992Y-11.7323
X16.3976Y-3.9567
X16.3976Y-11.7323
X16.4961Y-3.9567
X16.4961Y-11.7323
X16.5945Y-3.9567
X16.5945Y-11.7323
X16.6929Y-3.9567
X16.6929Y-11.7323
X16.7862Y-10.3839
X16.7913Y-3.9567
X16.7913Y-11.7323
X16.8898Y-3.9567
X16.8898Y-11.7323
X16.9535Y-10.3839
X16.9882Y-3.9567
X16.9882Y-11.7323
X17.0866Y-3.9567
X17.0866Y-11.7323
X17.185Y-3.9567
X17.185Y-11.7323
X17.2146Y-10.0295
X17.2835Y-3.9567
X17.2835Y-11.7323
X17.3819Y-3.9567
X17.3819Y-10.0295
X17.3819Y-11.7323
X17.4803Y-3.9567
X17.4803Y-11.7323
X17.5787Y-3.9567
X17.5787Y-11.7323
X17.6772Y-3.9567
X17.6772Y-11.7323
X17.7756Y-3.9567
X17.7756Y-11.7323
X17.8248Y-10.0295
X17.874Y-3.9567
X17.874Y-11.7323
X17.9724Y-3.9567
X17.9724Y-11.7323
X18.0709Y-3.9567
X18.0709Y-11.7323
X18.1693Y-3.9567
X18.1693Y-11.7323
X18.2677Y-3.9567
X18.2677Y-11.7323
X18.2874Y-10.0295
X18.3661Y-3.9567
X18.3661Y-11.7323
X18.4646Y-3.9567
X18.4646Y-11.7323
X18.563Y-3.9567
X18.563Y-11.7323
X18.6614Y-3.9567
X18.6614Y-11.7323
X18.7598Y-3.9567
X18.7598Y-11.7323
X18.8583Y-3.9567
X18.8583Y-11.7323
X18.9567Y-3.9567
X18.9567Y-11.7323
X19.0551Y-3.9567
X19.0551Y-11.7323
X19.1535Y-3.9567
X19.1535Y-11.7323
X19.252Y-3.9567
X19.252Y-11.7323
X19.3504Y-3.9567
X19.3504Y-4.0551
X19.3504Y-4.1535
X19.3504Y-4.252
X19.3504Y-4.3504
X19.3504Y-4.4488
X19.3504Y-4.5472
X19.3504Y-4.6457
X19.3504Y-4.7441
X19.3504Y-4.8425
X19.3504Y-4.9409
X19.3504Y-5.0394
X19.3504Y-5.1378
X19.3504Y-5.2362
X19.3504Y-5.3346
X19.3504Y-5.4331
X19.3504Y-5.5315
X19.3504Y-5.6299
X19.3504Y-5.7283
X19.3504Y-5.8268
X19.3504Y-5.9252
X19.3504Y-6.0236
X19.3504Y-6.122
X19.3504Y-6.2205
X19.3504Y-6.3189
X19.3504Y-6.4173
X19.3504Y-6.5157
X19.3504Y-6.6142
X19.3504Y-6.7126
X19.3504Y-6.811
X19.3504Y-6.9094
X19.3504Y-7.0079
X19.3504Y-7.1063
X19.3504Y-7.2047
X19.3504Y-7.3031
X19.3504Y-7.4016
X19.3504Y-7.5
X19.3504Y-7.5984
X19.3504Y-7.6969
X19.3504Y-7.7953
X19.3504Y-7.8937
X19.3504Y-7.9921
X19.3504Y-8.0906
X19.3504Y-8.189
X19.3504Y-8.2874
X19.3504Y-8.3858
X19.3504Y-8.4843
X19.3504Y-8.5827
X19.3504Y-8.6811
X19.3504Y-8.7795
X19.3504Y-8.878
X19.3504Y-8.9764
X19.3504Y-9.0748
X19.3504Y-9.1732
X19.3504Y-9.2717
X19.3504Y-9.3701
X19.3504Y-9.4685
X19.3504Y-9.5669
X19.3504Y-9.6654
X19.3504Y-9.7638
X19.3504Y-9.8622
X19.3504Y-9.9606
X19.3504Y-10.0591
X19.3504Y-10.1575
X19.3504Y-10.2559
X19.3504Y-10.3543
X19.3504Y-10.4528
X19.3504Y-10.5512
X19.3504Y-10.6496
X19.3504Y-10.748
X19.3504Y-10.8465
X19.3504Y-10.9449
X19.3504Y-11.0433
X19.3504Y-11.1417
X19.3504Y-11.2402
X19.3504Y-11.3386
X19.3504Y-11.437
X19.3504Y-11.5354
X19.3504Y-11.6339
X19.3504Y-11.7323
T2
X6.8199Y-7.0571
X6.8199Y-8.6319
X6.8432Y-7.0007
X6.8432Y-7.1135
X6.8432Y-8.5755
X6.8432Y-8.6883
X6.8996Y-6.9774
X6.8996Y-7.1368
X6.8996Y-8.5522
X6.8996Y-8.7116
X6.956Y-7.0007
X6.956Y-7.1135
X6.956Y-8.5755
X6.956Y-8.6883
X6.9793Y-7.0571
X6.9793Y-8.6319
X8.3947Y-7.0571
X8.3947Y-8.6319
X8.418Y-7.0007
X8.418Y-7.1135
X8.418Y-8.5755
X8.418Y-8.6883
X8.4744Y-6.9774
X8.4744Y-7.1368
X8.4744Y-8.5522
X8.4744Y-8.7116
X8.5308Y-7.0007
X8.5308Y-7.1135
X8.5308Y-8.5755
X8.5308Y-8.6883
X8.5541Y-7.0571
X8.5541Y-8.6319
X9.2805Y-4.5965
X9.2805Y-6.1713
X9.2805Y-9.5177
X9.2805Y-11.0925
X9.3039Y-4.5401
X9.3039Y-4.6528
X9.3039Y-6.1149
X9.3039Y-6.2276
X9.3039Y-9.4613
X9.3039Y-9.5741
X9.3039Y-11.0361
X9.3039Y-11.1489
X9.3602Y-4.5167
X9.3602Y-4.6762
X9.3602Y-6.0915
X9.3602Y-6.251
X9.3602Y-9.438
X9.3602Y-9.5974
X9.3602Y-11.0128
X9.3602Y-11.1722
X9.4166Y-4.5401
X9.4166Y-4.6528
X9.4166Y-6.1149
X9.4166Y-6.2276
X9.4166Y-9.4613
X9.4166Y-9.5741
X9.4166Y-11.0361
X9.4166Y-11.1489
X9.44Y-4.5965
X9.44Y-6.1713
X9.44Y-9.5177
X9.44Y-11.0925
X10.8553Y-4.5965
X10.8553Y-6.1713
X10.8553Y-9.5177
X10.8553Y-11.0925
X10.8787Y-4.5401
X10.8787Y-4.6528
X10.8787Y-6.1149
X10.8787Y-6.2276
X10.8787Y-9.4613
X10.8787Y-9.5741
X10.8787Y-11.0361
X10.8787Y-11.1489
X10.935Y-4.5167
X10.935Y-4.6762
X10.935Y-6.0915
X10.935Y-6.251
X10.935Y-9.438
X10.935Y-9.5974
X10.935Y-11.0128
X10.935Y-11.1722
X10.9914Y-4.5401
X10.9914Y-4.6528
X10.9914Y-6.1149
X10.9914Y-6.2276
X10.9914Y-9.4613
X10.9914Y-9.5741
X10.9914Y-11.0361
X10.9914Y-11.1489
X11.0148Y-4.5965
X11.0148Y-6.1713
X11.0148Y-9.5177
X11.0148Y-11.0925
T3
X3.8199Y-4.2028
X3.8199Y-6.1713
X3.8199Y-9.5177
X3.8199Y-11.4862
X3.8571Y-4.113
X3.8571Y-4.2925
X3.8571Y-6.0815
X3.8571Y-6.261
X3.8571Y-9.4279
X3.8571Y-9.6075
X3.8571Y-11.3964
X3.8571Y-11.576
X3.9469Y-4.0758
X3.9469Y-4.3297
X3.9469Y-6.0443
X3.9469Y-6.2982
X3.9469Y-9.3907
X3.9469Y-9.6447
X3.9469Y-11.3593
X3.9469Y-11.6132
X4.0366Y-4.113
X4.0366Y-4.2925
X4.0366Y-6.0815
X4.0366Y-6.261
X4.0366Y-9.4279
X4.0366Y-9.6075
X4.0366Y-11.3964
X4.0366Y-11.576
X4.0738Y-4.2028
X4.0738Y-6.1713
X4.0738Y-9.5177
X4.0738Y-11.4862
X5.7884Y-6.1713
X5.7884Y-9.5177
X5.8256Y-6.0815
X5.8256Y-6.261
X5.8256Y-9.4279
X5.8256Y-9.6075
X5.9154Y-6.0443
X5.9154Y-6.2982
X5.9154Y-9.3907
X5.9154Y-9.6447
X6.0051Y-6.0815
X6.0051Y-6.261
X6.0051Y-9.4279
X6.0051Y-9.6075
X6.0423Y-6.1713
X6.0423Y-9.5177
X13.0709Y-6.1713
X13.0709Y-9.5177
X13.1081Y-6.0815
X13.1081Y-6.261
X13.1081Y-9.4279
X13.1081Y-9.6075
X13.1978Y-6.0443
X13.1978Y-6.2982
X13.1978Y-9.3907
X13.1978Y-9.6447
X13.2876Y-6.0815
X13.2876Y-6.261
X13.2876Y-9.4279
X13.2876Y-9.6075
X13.3248Y-6.1713
X13.3248Y-9.5177
X18.9764Y-6.1713
X18.9764Y-9.5177
X18.9774Y-4.2028
X18.9774Y-11.4862
X19.0136Y-6.0815
X19.0136Y-6.261
X19.0136Y-9.4279
X19.0136Y-9.6075
X19.0146Y-4.113
X19.0146Y-4.2925
X19.0146Y-11.3964
X19.0146Y-11.576
X19.1033Y-6.0443
X19.1033Y-6.2982
X19.1033Y-9.3907
X19.1033Y-9.6447
X19.1043Y-4.0758
X19.1043Y-4.3297
X19.1043Y-11.3593
X19.1043Y-11.6132
X19.1931Y-6.0815
X19.1931Y-6.261
X19.1931Y-9.4279
X19.1931Y-9.6075
X19.1941Y-4.113
X19.1941Y-4.2925
X19.1941Y-11.3964
X19.1941Y-11.576
X19.2303Y-6.1713
X19.2303Y-9.5177
X19.2313Y-4.2028
X19.2313Y-11.4862
T4
X6.0226Y-11.0427
X6.0226Y-11.1427
X6.1226Y-11.0427
X6.1226Y-11.1427
X6.4567Y-7.4951
X6.4567Y-7.5951
X6.4567Y-7.6951
X6.4567Y-7.7951
X6.4567Y-7.8951
X6.4567Y-7.9951
X6.4567Y-8.0951
X6.4567Y-8.1951
X6.4852Y-11.0427
X6.4852Y-11.1427
X6.5852Y-11.0427
X6.5852Y-11.1427
X6.9478Y-11.0427
X6.9478Y-11.1427
X7.0478Y-11.0427
X7.0478Y-11.1427
X8.0305Y-6.3179
X8.0305Y-6.4179
X8.1305Y-6.3179
X8.1305Y-6.4179
X8.6211Y-4.94
X8.6211Y-5.04
X8.6211Y-9.8612
X8.6211Y-9.9612
X8.7211Y-4.94
X8.7211Y-5.04
X8.7211Y-9.8612
X8.7211Y-9.9612
X8.9173Y-7.4951
X8.9173Y-7.5951
X8.9173Y-7.6951
X8.9173Y-7.7951
X8.9173Y-7.8951
X8.9173Y-7.9951
X8.9173Y-8.0951
X8.9173Y-8.1951
X9.1634Y-7.4951
X9.1634Y-7.5951
X9.1634Y-7.6951
X9.1634Y-7.7951
X9.1634Y-7.8951
X9.1634Y-7.9951
X9.1634Y-8.0951
X9.1634Y-8.1951
X9.797Y-8.8287
X9.797Y-9.0748
X9.797Y-11.5354
X9.7982Y-4.1535
X9.7982Y-6.6142
X9.7982Y-6.8602
X9.897Y-8.8287
X9.897Y-9.0748
X9.897Y-11.5354
X9.8982Y-4.1535
X9.8982Y-6.6142
X9.8982Y-6.8602
X9.997Y-8.8287
X9.997Y-9.0748
X9.997Y-11.5354
X9.9982Y-4.1535
X9.9982Y-6.6142
X9.9982Y-6.8602
X10.097Y-8.8287
X10.097Y-9.0748
X10.097Y-11.5354
X10.0982Y-4.1535
X10.0982Y-6.6142
X10.0982Y-6.8602
X10.197Y-8.8287
X10.197Y-9.0748
X10.197Y-11.5354
X10.1982Y-4.1535
X10.1982Y-6.6142
X10.1982Y-6.8602
X10.297Y-8.8287
X10.297Y-9.0748
X10.297Y-11.5354
X10.2982Y-4.1535
X10.2982Y-6.6142
X10.2982Y-6.8602
X10.397Y-8.8287
X10.397Y-9.0748
X10.397Y-11.5354
X10.3982Y-4.1535
X10.3982Y-6.6142
X10.3982Y-6.8602
X10.497Y-8.8287
X10.497Y-9.0748
X10.497Y-11.5354
X10.4982Y-4.1535
X10.4982Y-6.6142
X10.4982Y-6.8602
X11.1319Y-7.4951
X11.1319Y-7.5951
X11.1319Y-7.6951
X11.1319Y-7.7951
X11.1319Y-7.8951
X11.1319Y-7.9951
X11.1319Y-8.0951
X11.1319Y-8.1951
X16.7856Y-10.1567
X16.7856Y-10.2567
X16.8856Y-10.1567
X16.8856Y-10.2567
X17.2482Y-10.1567
X17.2482Y-10.2567
X17.3482Y-10.1567
X17.3482Y-10.2567
X17.7108Y-10.1567
X17.7108Y-10.2567
X17.8108Y-10.1567
X17.8108Y-10.2567
X18.1734Y-10.1567
X18.1734Y-10.2567
X18.2734Y-10.1567
X18.2734Y-10.2567
T5
X4.368Y-5.3276
X4.368Y-5.5286
X4.368Y-10.1603
X4.368Y-10.3613
X4.569Y-5.3276
X4.569Y-5.5286
X4.569Y-10.1603
X4.569Y-10.3613
X4.8306Y-5.3276
X4.8306Y-5.5286
X4.8306Y-10.1603
X4.8306Y-10.3613
X5.0316Y-5.3276
X5.0316Y-5.5286
X5.0316Y-10.1603
X5.0316Y-10.3613
X5.2932Y-5.3276
X5.2932Y-5.5286
X5.2932Y-10.1603
X5.2932Y-10.3613
X5.4942Y-5.3276
X5.4942Y-5.5286
X5.4942Y-10.1603
X5.4942Y-10.3613
X7.5027Y-4.6583
X7.5027Y-4.8593
X7.5027Y-5.1209
X7.5027Y-5.3219
X7.5027Y-9.5795
X7.5027Y-9.7805
X7.5027Y-10.0421
X7.5027Y-10.2431
X7.7037Y-4.6583
X7.7037Y-4.8593
X7.7037Y-5.1209
X7.7037Y-5.3219
X7.7037Y-9.5795
X7.7037Y-9.7805
X7.7037Y-10.0421
X7.7037Y-10.2431
X7.9653Y-4.6583
X7.9653Y-4.8593
X7.9653Y-5.1209
X7.9653Y-5.3219
X7.9653Y-9.5795
X7.9653Y-9.7805
X7.9653Y-10.0421
X7.9653Y-10.2431
X8.1663Y-4.6583
X8.1663Y-4.8593
X8.1663Y-5.1209
X8.1663Y-5.3219
X8.1663Y-9.5795
X8.1663Y-9.7805
X8.1663Y-10.0421
X8.1663Y-10.2431
X12.2244Y-6.1249
X12.2244Y-6.3259
X12.2244Y-6.5875
X12.2244Y-6.7885
X12.2244Y-7.0501
X12.2244Y-7.2511
X12.2244Y-7.5127
X12.2244Y-7.7137
X12.2244Y-7.9753
X12.2244Y-8.1763
X12.2244Y-8.4379
X12.2244Y-8.6389
X12.2244Y-8.9005
X12.2244Y-9.1015
X12.2244Y-9.3631
X12.2244Y-9.5641
X12.4254Y-6.1249
X12.4254Y-6.3259
X12.4254Y-6.5875
X12.4254Y-6.7885
X12.4254Y-7.0501
X12.4254Y-7.2511
X12.4254Y-7.5127
X12.4254Y-7.7137
X12.4254Y-7.9753
X12.4254Y-8.1763
X12.4254Y-8.4379
X12.4254Y-8.6389
X12.4254Y-8.9005
X12.4254Y-9.1015
X12.4254Y-9.3631
X12.4254Y-9.5641
X16.7351Y-5.3818
X16.7351Y-5.5828
X16.9361Y-5.3818
X16.9361Y-5.5828
X17.1977Y-5.3818
X17.1977Y-5.5828
X17.3987Y-5.3818
X17.3987Y-5.5828
X17.6603Y-5.3818
X17.6603Y-5.5828
X17.8613Y-5.3818
X17.8613Y-5.5828
X18.1229Y-5.3818
X18.1229Y-5.5828
X18.3239Y-5.3818
X18.3239Y-5.5828
T6
X4.4685Y-5.4281
X4.4685Y-10.2608
X4.9311Y-5.4281
X4.9311Y-10.2608
X5.3937Y-5.4281
X5.3937Y-10.2608
X7.6032Y-4.7588
X7.6032Y-5.2214
X7.6032Y-9.68
X7.6032Y-10.1426
X8.0658Y-4.7588
X8.0658Y-5.2214
X8.0658Y-9.68
X8.0658Y-10.1426
X12.3249Y-6.2254
X12.3249Y-6.688
X12.3249Y-7.1506
X12.3249Y-7.6132
X12.3249Y-8.0758
X12.3249Y-8.5384
X12.3249Y-9.001
X12.3249Y-9.4636
X16.8356Y-5.4823
X17.2982Y-5.4823
X17.7608Y-5.4823
X18.2234Y-5.4823
T7
X6.8996Y-7.0571
X6.8996Y-8.6319
X8.4744Y-7.0571
X8.4744Y-8.6319
X9.3602Y-4.5965
X9.3602Y-6.1713
X9.3602Y-9.5177
X9.3602Y-11.0925
X10.935Y-4.5965
X10.935Y-6.1713
X10.935Y-9.5177
X10.935Y-11.0925
T8
X3.9469Y-4.2028
X3.9469Y-6.1713
X3.9469Y-9.5177
X3.9469Y-11.4862
X5.9154Y-6.1713
X5.9154Y-9.5177
X13.1978Y-6.1713
X13.1978Y-9.5177
X19.1033Y-6.1713
X19.1033Y-9.5177
X19.1043Y-4.2028
X19.1043Y-11.4862
M30
