%TF.GenerationSoftware,KiCad,Pcbnew,7.0.10*%
%TF.CreationDate,2024-05-08T16:25:20-04:00*%
%TF.ProjectId,neurophy-eval-motherboard,6e657572-6f70-4687-992d-6576616c2d6d,1*%
%TF.SameCoordinates,Original*%
%TF.FileFunction,Soldermask,Top*%
%TF.FilePolarity,Negative*%
%FSLAX46Y46*%
G04 Gerber Fmt 4.6, Leading zero omitted, Abs format (unit mm)*
G04 Created by KiCad (PCBNEW 7.0.10) date 2024-05-08 16:25:20*
%MOMM*%
%LPD*%
G01*
G04 APERTURE LIST*
G04 Aperture macros list*
%AMRoundRect*
0 Rectangle with rounded corners*
0 $1 Rounding radius*
0 $2 $3 $4 $5 $6 $7 $8 $9 X,Y pos of 4 corners*
0 Add a 4 corners polygon primitive as box body*
4,1,4,$2,$3,$4,$5,$6,$7,$8,$9,$2,$3,0*
0 Add four circle primitives for the rounded corners*
1,1,$1+$1,$2,$3*
1,1,$1+$1,$4,$5*
1,1,$1+$1,$6,$7*
1,1,$1+$1,$8,$9*
0 Add four rect primitives between the rounded corners*
20,1,$1+$1,$2,$3,$4,$5,0*
20,1,$1+$1,$4,$5,$6,$7,0*
20,1,$1+$1,$6,$7,$8,$9,0*
20,1,$1+$1,$8,$9,$2,$3,0*%
G04 Aperture macros list end*
%ADD10C,0.150000*%
%ADD11C,0.500000*%
%ADD12C,5.000000*%
%ADD13C,0.800000*%
%ADD14C,5.400000*%
%ADD15RoundRect,0.200000X-0.275000X0.200000X-0.275000X-0.200000X0.275000X-0.200000X0.275000X0.200000X0*%
%ADD16RoundRect,0.200000X-0.200000X-0.275000X0.200000X-0.275000X0.200000X0.275000X-0.200000X0.275000X0*%
%ADD17C,0.900000*%
%ADD18C,8.600000*%
%ADD19RoundRect,0.200000X0.275000X-0.200000X0.275000X0.200000X-0.275000X0.200000X-0.275000X-0.200000X0*%
%ADD20RoundRect,0.225000X0.225000X0.250000X-0.225000X0.250000X-0.225000X-0.250000X0.225000X-0.250000X0*%
%ADD21C,2.006600*%
%ADD22C,1.905000*%
%ADD23RoundRect,0.225000X0.250000X-0.225000X0.250000X0.225000X-0.250000X0.225000X-0.250000X-0.225000X0*%
%ADD24R,1.700000X1.700000*%
%ADD25O,1.700000X1.700000*%
G04 APERTURE END LIST*
D10*
X480250000Y-101750000D02*
X490250000Y-101750000D01*
X490250000Y-111750000D01*
X480250000Y-111750000D01*
X480250000Y-101750000D01*
G36*
X480250000Y-101750000D02*
G01*
X490250000Y-101750000D01*
X490250000Y-111750000D01*
X480250000Y-111750000D01*
X480250000Y-101750000D01*
G37*
X480250000Y-151750000D02*
X490250000Y-151750000D01*
X490250000Y-161750000D01*
X480250000Y-161750000D01*
X480250000Y-151750000D01*
G36*
X480250000Y-151750000D02*
G01*
X490250000Y-151750000D01*
X490250000Y-161750000D01*
X480250000Y-161750000D01*
X480250000Y-151750000D01*
G37*
X480250000Y-236750000D02*
X490250000Y-236750000D01*
X490250000Y-246750000D01*
X480250000Y-246750000D01*
X480250000Y-236750000D01*
G36*
X480250000Y-236750000D02*
G01*
X490250000Y-236750000D01*
X490250000Y-246750000D01*
X480250000Y-246750000D01*
X480250000Y-236750000D01*
G37*
X480250000Y-286750000D02*
X490250000Y-286750000D01*
X490250000Y-296750000D01*
X480250000Y-296750000D01*
X480250000Y-286750000D01*
G36*
X480250000Y-286750000D02*
G01*
X490250000Y-286750000D01*
X490250000Y-296750000D01*
X480250000Y-296750000D01*
X480250000Y-286750000D01*
G37*
X95250000Y-101750000D02*
X105250000Y-101750000D01*
X105250000Y-111750000D01*
X95250000Y-111750000D01*
X95250000Y-101750000D01*
G36*
X95250000Y-101750000D02*
G01*
X105250000Y-101750000D01*
X105250000Y-111750000D01*
X95250000Y-111750000D01*
X95250000Y-101750000D01*
G37*
X95250000Y-151750000D02*
X105250000Y-151750000D01*
X105250000Y-161750000D01*
X95250000Y-161750000D01*
X95250000Y-151750000D01*
G36*
X95250000Y-151750000D02*
G01*
X105250000Y-151750000D01*
X105250000Y-161750000D01*
X95250000Y-161750000D01*
X95250000Y-151750000D01*
G37*
X95250000Y-236750000D02*
X105250000Y-236750000D01*
X105250000Y-246750000D01*
X95250000Y-246750000D01*
X95250000Y-236750000D01*
G36*
X95250000Y-236750000D02*
G01*
X105250000Y-236750000D01*
X105250000Y-246750000D01*
X95250000Y-246750000D01*
X95250000Y-236750000D01*
G37*
X95250000Y-286750000D02*
X105250000Y-286750000D01*
X105250000Y-296750000D01*
X95250000Y-296750000D01*
X95250000Y-286750000D01*
G36*
X95250000Y-286750000D02*
G01*
X105250000Y-286750000D01*
X105250000Y-296750000D01*
X95250000Y-296750000D01*
X95250000Y-286750000D01*
G37*
D11*
X287040671Y-207924030D02*
X287121777Y-207978223D01*
X287175970Y-208059329D01*
X287195000Y-208155000D01*
X287175970Y-208250671D01*
X287121777Y-208331777D01*
X287040671Y-208385970D01*
X286945000Y-208405000D01*
X282750000Y-208405000D01*
X282654329Y-208385970D01*
X282573223Y-208331777D01*
X282519030Y-208250671D01*
X282500000Y-208155000D01*
X282519030Y-208059329D01*
X282573223Y-207978223D01*
X282654329Y-207924030D01*
X282750000Y-207905000D01*
X286945000Y-207905000D01*
X287040671Y-207924030D01*
G36*
X287040671Y-207924030D02*
G01*
X287121777Y-207978223D01*
X287175970Y-208059329D01*
X287195000Y-208155000D01*
X287175970Y-208250671D01*
X287121777Y-208331777D01*
X287040671Y-208385970D01*
X286945000Y-208405000D01*
X282750000Y-208405000D01*
X282654329Y-208385970D01*
X282573223Y-208331777D01*
X282519030Y-208250671D01*
X282500000Y-208155000D01*
X282519030Y-208059329D01*
X282573223Y-207978223D01*
X282654329Y-207924030D01*
X282750000Y-207905000D01*
X286945000Y-207905000D01*
X287040671Y-207924030D01*
G37*
X290570671Y-192709030D02*
X290651777Y-192763223D01*
X290705970Y-192844329D01*
X290725000Y-192940000D01*
X290705970Y-193035671D01*
X290651777Y-193116777D01*
X290570671Y-193170970D01*
X290475000Y-193190000D01*
X288750000Y-193190000D01*
X288654329Y-193170970D01*
X288573223Y-193116777D01*
X288519030Y-193035671D01*
X288500000Y-192940000D01*
X288519030Y-192844329D01*
X288573223Y-192763223D01*
X288654329Y-192709030D01*
X288750000Y-192690000D01*
X290475000Y-192690000D01*
X290570671Y-192709030D01*
G36*
X290570671Y-192709030D02*
G01*
X290651777Y-192763223D01*
X290705970Y-192844329D01*
X290725000Y-192940000D01*
X290705970Y-193035671D01*
X290651777Y-193116777D01*
X290570671Y-193170970D01*
X290475000Y-193190000D01*
X288750000Y-193190000D01*
X288654329Y-193170970D01*
X288573223Y-193116777D01*
X288519030Y-193035671D01*
X288500000Y-192940000D01*
X288519030Y-192844329D01*
X288573223Y-192763223D01*
X288654329Y-192709030D01*
X288750000Y-192690000D01*
X290475000Y-192690000D01*
X290570671Y-192709030D01*
G37*
D12*
X492750000Y-99250000D02*
X92750000Y-99250000D01*
D11*
X290570671Y-200299030D02*
X290651777Y-200353223D01*
X290705970Y-200434329D01*
X290725000Y-200530000D01*
X290705970Y-200625671D01*
X290651777Y-200706777D01*
X290570671Y-200760970D01*
X290475000Y-200780000D01*
X288750000Y-200780000D01*
X288654329Y-200760970D01*
X288573223Y-200706777D01*
X288519030Y-200625671D01*
X288500000Y-200530000D01*
X288519030Y-200434329D01*
X288573223Y-200353223D01*
X288654329Y-200299030D01*
X288750000Y-200280000D01*
X290475000Y-200280000D01*
X290570671Y-200299030D01*
G36*
X290570671Y-200299030D02*
G01*
X290651777Y-200353223D01*
X290705970Y-200434329D01*
X290725000Y-200530000D01*
X290705970Y-200625671D01*
X290651777Y-200706777D01*
X290570671Y-200760970D01*
X290475000Y-200780000D01*
X288750000Y-200780000D01*
X288654329Y-200760970D01*
X288573223Y-200706777D01*
X288519030Y-200625671D01*
X288500000Y-200530000D01*
X288519030Y-200434329D01*
X288573223Y-200353223D01*
X288654329Y-200299030D01*
X288750000Y-200280000D01*
X290475000Y-200280000D01*
X290570671Y-200299030D01*
G37*
X290570671Y-195219030D02*
X290651777Y-195273223D01*
X290705970Y-195354329D01*
X290725000Y-195450000D01*
X290705970Y-195545671D01*
X290651777Y-195626777D01*
X290570671Y-195680970D01*
X290475000Y-195700000D01*
X288750000Y-195700000D01*
X288654329Y-195680970D01*
X288573223Y-195626777D01*
X288519030Y-195545671D01*
X288500000Y-195450000D01*
X288519030Y-195354329D01*
X288573223Y-195273223D01*
X288654329Y-195219030D01*
X288750000Y-195200000D01*
X290475000Y-195200000D01*
X290570671Y-195219030D01*
G36*
X290570671Y-195219030D02*
G01*
X290651777Y-195273223D01*
X290705970Y-195354329D01*
X290725000Y-195450000D01*
X290705970Y-195545671D01*
X290651777Y-195626777D01*
X290570671Y-195680970D01*
X290475000Y-195700000D01*
X288750000Y-195700000D01*
X288654329Y-195680970D01*
X288573223Y-195626777D01*
X288519030Y-195545671D01*
X288500000Y-195450000D01*
X288519030Y-195354329D01*
X288573223Y-195273223D01*
X288654329Y-195219030D01*
X288750000Y-195200000D01*
X290475000Y-195200000D01*
X290570671Y-195219030D01*
G37*
D12*
X492750000Y-299250000D02*
X492750000Y-99250000D01*
D11*
X313143371Y-181389030D02*
X313224477Y-181443223D01*
X313278670Y-181524329D01*
X313297700Y-181620000D01*
X313278670Y-181715671D01*
X313224477Y-181796777D01*
X313143371Y-181850970D01*
X313047700Y-181870000D01*
X307725000Y-181870000D01*
X307629329Y-181850970D01*
X307548223Y-181796777D01*
X307494030Y-181715671D01*
X307475000Y-181620000D01*
X307494030Y-181524329D01*
X307548223Y-181443223D01*
X307629329Y-181389030D01*
X307725000Y-181370000D01*
X313047700Y-181370000D01*
X313143371Y-181389030D01*
G36*
X313143371Y-181389030D02*
G01*
X313224477Y-181443223D01*
X313278670Y-181524329D01*
X313297700Y-181620000D01*
X313278670Y-181715671D01*
X313224477Y-181796777D01*
X313143371Y-181850970D01*
X313047700Y-181870000D01*
X307725000Y-181870000D01*
X307629329Y-181850970D01*
X307548223Y-181796777D01*
X307494030Y-181715671D01*
X307475000Y-181620000D01*
X307494030Y-181524329D01*
X307548223Y-181443223D01*
X307629329Y-181389030D01*
X307725000Y-181370000D01*
X313047700Y-181370000D01*
X313143371Y-181389030D01*
G37*
X313148371Y-169639030D02*
X313229477Y-169693223D01*
X313283670Y-169774329D01*
X313302700Y-169870000D01*
X313283670Y-169965671D01*
X313229477Y-170046777D01*
X313148371Y-170100970D01*
X313052700Y-170120000D01*
X307725000Y-170120000D01*
X307629329Y-170100970D01*
X307548223Y-170046777D01*
X307494030Y-169965671D01*
X307475000Y-169870000D01*
X307494030Y-169774329D01*
X307548223Y-169693223D01*
X307629329Y-169639030D01*
X307725000Y-169620000D01*
X313052700Y-169620000D01*
X313148371Y-169639030D01*
G36*
X313148371Y-169639030D02*
G01*
X313229477Y-169693223D01*
X313283670Y-169774329D01*
X313302700Y-169870000D01*
X313283670Y-169965671D01*
X313229477Y-170046777D01*
X313148371Y-170100970D01*
X313052700Y-170120000D01*
X307725000Y-170120000D01*
X307629329Y-170100970D01*
X307548223Y-170046777D01*
X307494030Y-169965671D01*
X307475000Y-169870000D01*
X307494030Y-169774329D01*
X307548223Y-169693223D01*
X307629329Y-169639030D01*
X307725000Y-169620000D01*
X313052700Y-169620000D01*
X313148371Y-169639030D01*
G37*
X287100671Y-202844030D02*
X287181777Y-202898223D01*
X287235970Y-202979329D01*
X287255000Y-203075000D01*
X287235970Y-203170671D01*
X287181777Y-203251777D01*
X287100671Y-203305970D01*
X287005000Y-203325000D01*
X282750000Y-203325000D01*
X282654329Y-203305970D01*
X282573223Y-203251777D01*
X282519030Y-203170671D01*
X282500000Y-203075000D01*
X282519030Y-202979329D01*
X282573223Y-202898223D01*
X282654329Y-202844030D01*
X282750000Y-202825000D01*
X287005000Y-202825000D01*
X287100671Y-202844030D01*
G36*
X287100671Y-202844030D02*
G01*
X287181777Y-202898223D01*
X287235970Y-202979329D01*
X287255000Y-203075000D01*
X287235970Y-203170671D01*
X287181777Y-203251777D01*
X287100671Y-203305970D01*
X287005000Y-203325000D01*
X282750000Y-203325000D01*
X282654329Y-203305970D01*
X282573223Y-203251777D01*
X282519030Y-203170671D01*
X282500000Y-203075000D01*
X282519030Y-202979329D01*
X282573223Y-202898223D01*
X282654329Y-202844030D01*
X282750000Y-202825000D01*
X287005000Y-202825000D01*
X287100671Y-202844030D01*
G37*
D12*
X92750000Y-99250000D02*
X92750000Y-299250000D01*
D11*
X312573371Y-228389030D02*
X312654477Y-228443223D01*
X312708670Y-228524329D01*
X312727700Y-228620000D01*
X312708670Y-228715671D01*
X312654477Y-228796777D01*
X312573371Y-228850970D01*
X312477700Y-228870000D01*
X311500000Y-228870000D01*
X311404329Y-228850970D01*
X311323223Y-228796777D01*
X311269030Y-228715671D01*
X311250000Y-228620000D01*
X311269030Y-228524329D01*
X311323223Y-228443223D01*
X311404329Y-228389030D01*
X311500000Y-228370000D01*
X312477700Y-228370000D01*
X312573371Y-228389030D01*
G36*
X312573371Y-228389030D02*
G01*
X312654477Y-228443223D01*
X312708670Y-228524329D01*
X312727700Y-228620000D01*
X312708670Y-228715671D01*
X312654477Y-228796777D01*
X312573371Y-228850970D01*
X312477700Y-228870000D01*
X311500000Y-228870000D01*
X311404329Y-228850970D01*
X311323223Y-228796777D01*
X311269030Y-228715671D01*
X311250000Y-228620000D01*
X311269030Y-228524329D01*
X311323223Y-228443223D01*
X311404329Y-228389030D01*
X311500000Y-228370000D01*
X312477700Y-228370000D01*
X312573371Y-228389030D01*
G37*
X287070671Y-205384030D02*
X287151777Y-205438223D01*
X287205970Y-205519329D01*
X287225000Y-205615000D01*
X287205970Y-205710671D01*
X287151777Y-205791777D01*
X287070671Y-205845970D01*
X286975000Y-205865000D01*
X282750000Y-205865000D01*
X282654329Y-205845970D01*
X282573223Y-205791777D01*
X282519030Y-205710671D01*
X282500000Y-205615000D01*
X282519030Y-205519329D01*
X282573223Y-205438223D01*
X282654329Y-205384030D01*
X282750000Y-205365000D01*
X286975000Y-205365000D01*
X287070671Y-205384030D01*
G36*
X287070671Y-205384030D02*
G01*
X287151777Y-205438223D01*
X287205970Y-205519329D01*
X287225000Y-205615000D01*
X287205970Y-205710671D01*
X287151777Y-205791777D01*
X287070671Y-205845970D01*
X286975000Y-205865000D01*
X282750000Y-205865000D01*
X282654329Y-205845970D01*
X282573223Y-205791777D01*
X282519030Y-205710671D01*
X282500000Y-205615000D01*
X282519030Y-205519329D01*
X282573223Y-205438223D01*
X282654329Y-205384030D01*
X282750000Y-205365000D01*
X286975000Y-205365000D01*
X287070671Y-205384030D01*
G37*
X313148371Y-193139030D02*
X313229477Y-193193223D01*
X313283670Y-193274329D01*
X313302700Y-193370000D01*
X313283670Y-193465671D01*
X313229477Y-193546777D01*
X313148371Y-193600970D01*
X313052700Y-193620000D01*
X307725000Y-193620000D01*
X307629329Y-193600970D01*
X307548223Y-193546777D01*
X307494030Y-193465671D01*
X307475000Y-193370000D01*
X307494030Y-193274329D01*
X307548223Y-193193223D01*
X307629329Y-193139030D01*
X307725000Y-193120000D01*
X313052700Y-193120000D01*
X313148371Y-193139030D01*
G36*
X313148371Y-193139030D02*
G01*
X313229477Y-193193223D01*
X313283670Y-193274329D01*
X313302700Y-193370000D01*
X313283670Y-193465671D01*
X313229477Y-193546777D01*
X313148371Y-193600970D01*
X313052700Y-193620000D01*
X307725000Y-193620000D01*
X307629329Y-193600970D01*
X307548223Y-193546777D01*
X307494030Y-193465671D01*
X307475000Y-193370000D01*
X307494030Y-193274329D01*
X307548223Y-193193223D01*
X307629329Y-193139030D01*
X307725000Y-193120000D01*
X313052700Y-193120000D01*
X313148371Y-193139030D01*
G37*
X290570671Y-197729030D02*
X290651777Y-197783223D01*
X290705970Y-197864329D01*
X290725000Y-197960000D01*
X290705970Y-198055671D01*
X290651777Y-198136777D01*
X290570671Y-198190970D01*
X290475000Y-198210000D01*
X288750000Y-198210000D01*
X288654329Y-198190970D01*
X288573223Y-198136777D01*
X288519030Y-198055671D01*
X288500000Y-197960000D01*
X288519030Y-197864329D01*
X288573223Y-197783223D01*
X288654329Y-197729030D01*
X288750000Y-197710000D01*
X290475000Y-197710000D01*
X290570671Y-197729030D01*
G36*
X290570671Y-197729030D02*
G01*
X290651777Y-197783223D01*
X290705970Y-197864329D01*
X290725000Y-197960000D01*
X290705970Y-198055671D01*
X290651777Y-198136777D01*
X290570671Y-198190970D01*
X290475000Y-198210000D01*
X288750000Y-198210000D01*
X288654329Y-198190970D01*
X288573223Y-198136777D01*
X288519030Y-198055671D01*
X288500000Y-197960000D01*
X288519030Y-197864329D01*
X288573223Y-197783223D01*
X288654329Y-197729030D01*
X288750000Y-197710000D01*
X290475000Y-197710000D01*
X290570671Y-197729030D01*
G37*
X290570671Y-202809030D02*
X290651777Y-202863223D01*
X290705970Y-202944329D01*
X290725000Y-203040000D01*
X290705970Y-203135671D01*
X290651777Y-203216777D01*
X290570671Y-203270970D01*
X290475000Y-203290000D01*
X288750000Y-203290000D01*
X288654329Y-203270970D01*
X288573223Y-203216777D01*
X288519030Y-203135671D01*
X288500000Y-203040000D01*
X288519030Y-202944329D01*
X288573223Y-202863223D01*
X288654329Y-202809030D01*
X288750000Y-202790000D01*
X290475000Y-202790000D01*
X290570671Y-202809030D01*
G36*
X290570671Y-202809030D02*
G01*
X290651777Y-202863223D01*
X290705970Y-202944329D01*
X290725000Y-203040000D01*
X290705970Y-203135671D01*
X290651777Y-203216777D01*
X290570671Y-203270970D01*
X290475000Y-203290000D01*
X288750000Y-203290000D01*
X288654329Y-203270970D01*
X288573223Y-203216777D01*
X288519030Y-203135671D01*
X288500000Y-203040000D01*
X288519030Y-202944329D01*
X288573223Y-202863223D01*
X288654329Y-202809030D01*
X288750000Y-202790000D01*
X290475000Y-202790000D01*
X290570671Y-202809030D01*
G37*
X287160671Y-197764030D02*
X287241777Y-197818223D01*
X287295970Y-197899329D01*
X287315000Y-197995000D01*
X287295970Y-198090671D01*
X287241777Y-198171777D01*
X287160671Y-198225970D01*
X287065000Y-198245000D01*
X282750000Y-198245000D01*
X282654329Y-198225970D01*
X282573223Y-198171777D01*
X282519030Y-198090671D01*
X282500000Y-197995000D01*
X282519030Y-197899329D01*
X282573223Y-197818223D01*
X282654329Y-197764030D01*
X282750000Y-197745000D01*
X287065000Y-197745000D01*
X287160671Y-197764030D01*
G36*
X287160671Y-197764030D02*
G01*
X287241777Y-197818223D01*
X287295970Y-197899329D01*
X287315000Y-197995000D01*
X287295970Y-198090671D01*
X287241777Y-198171777D01*
X287160671Y-198225970D01*
X287065000Y-198245000D01*
X282750000Y-198245000D01*
X282654329Y-198225970D01*
X282573223Y-198171777D01*
X282519030Y-198090671D01*
X282500000Y-197995000D01*
X282519030Y-197899329D01*
X282573223Y-197818223D01*
X282654329Y-197764030D01*
X282750000Y-197745000D01*
X287065000Y-197745000D01*
X287160671Y-197764030D01*
G37*
X313148371Y-204894030D02*
X313229477Y-204948223D01*
X313283670Y-205029329D01*
X313302700Y-205125000D01*
X313283670Y-205220671D01*
X313229477Y-205301777D01*
X313148371Y-205355970D01*
X313052700Y-205375000D01*
X307725000Y-205375000D01*
X307629329Y-205355970D01*
X307548223Y-205301777D01*
X307494030Y-205220671D01*
X307475000Y-205125000D01*
X307494030Y-205029329D01*
X307548223Y-204948223D01*
X307629329Y-204894030D01*
X307725000Y-204875000D01*
X313052700Y-204875000D01*
X313148371Y-204894030D01*
G36*
X313148371Y-204894030D02*
G01*
X313229477Y-204948223D01*
X313283670Y-205029329D01*
X313302700Y-205125000D01*
X313283670Y-205220671D01*
X313229477Y-205301777D01*
X313148371Y-205355970D01*
X313052700Y-205375000D01*
X307725000Y-205375000D01*
X307629329Y-205355970D01*
X307548223Y-205301777D01*
X307494030Y-205220671D01*
X307475000Y-205125000D01*
X307494030Y-205029329D01*
X307548223Y-204948223D01*
X307629329Y-204894030D01*
X307725000Y-204875000D01*
X313052700Y-204875000D01*
X313148371Y-204894030D01*
G37*
X290570671Y-190199030D02*
X290651777Y-190253223D01*
X290705970Y-190334329D01*
X290725000Y-190430000D01*
X290705970Y-190525671D01*
X290651777Y-190606777D01*
X290570671Y-190660970D01*
X290475000Y-190680000D01*
X288750000Y-190680000D01*
X288654329Y-190660970D01*
X288573223Y-190606777D01*
X288519030Y-190525671D01*
X288500000Y-190430000D01*
X288519030Y-190334329D01*
X288573223Y-190253223D01*
X288654329Y-190199030D01*
X288750000Y-190180000D01*
X290475000Y-190180000D01*
X290570671Y-190199030D01*
G36*
X290570671Y-190199030D02*
G01*
X290651777Y-190253223D01*
X290705970Y-190334329D01*
X290725000Y-190430000D01*
X290705970Y-190525671D01*
X290651777Y-190606777D01*
X290570671Y-190660970D01*
X290475000Y-190680000D01*
X288750000Y-190680000D01*
X288654329Y-190660970D01*
X288573223Y-190606777D01*
X288519030Y-190525671D01*
X288500000Y-190430000D01*
X288519030Y-190334329D01*
X288573223Y-190253223D01*
X288654329Y-190199030D01*
X288750000Y-190180000D01*
X290475000Y-190180000D01*
X290570671Y-190199030D01*
G37*
X287190671Y-195224030D02*
X287271777Y-195278223D01*
X287325970Y-195359329D01*
X287345000Y-195455000D01*
X287325970Y-195550671D01*
X287271777Y-195631777D01*
X287190671Y-195685970D01*
X287095000Y-195705000D01*
X282750000Y-195705000D01*
X282654329Y-195685970D01*
X282573223Y-195631777D01*
X282519030Y-195550671D01*
X282500000Y-195455000D01*
X282519030Y-195359329D01*
X282573223Y-195278223D01*
X282654329Y-195224030D01*
X282750000Y-195205000D01*
X287095000Y-195205000D01*
X287190671Y-195224030D01*
G36*
X287190671Y-195224030D02*
G01*
X287271777Y-195278223D01*
X287325970Y-195359329D01*
X287345000Y-195455000D01*
X287325970Y-195550671D01*
X287271777Y-195631777D01*
X287190671Y-195685970D01*
X287095000Y-195705000D01*
X282750000Y-195705000D01*
X282654329Y-195685970D01*
X282573223Y-195631777D01*
X282519030Y-195550671D01*
X282500000Y-195455000D01*
X282519030Y-195359329D01*
X282573223Y-195278223D01*
X282654329Y-195224030D01*
X282750000Y-195205000D01*
X287095000Y-195205000D01*
X287190671Y-195224030D01*
G37*
X290570671Y-207829030D02*
X290651777Y-207883223D01*
X290705970Y-207964329D01*
X290725000Y-208060000D01*
X290705970Y-208155671D01*
X290651777Y-208236777D01*
X290570671Y-208290970D01*
X290475000Y-208310000D01*
X288750000Y-208310000D01*
X288654329Y-208290970D01*
X288573223Y-208236777D01*
X288519030Y-208155671D01*
X288500000Y-208060000D01*
X288519030Y-207964329D01*
X288573223Y-207883223D01*
X288654329Y-207829030D01*
X288750000Y-207810000D01*
X290475000Y-207810000D01*
X290570671Y-207829030D01*
G36*
X290570671Y-207829030D02*
G01*
X290651777Y-207883223D01*
X290705970Y-207964329D01*
X290725000Y-208060000D01*
X290705970Y-208155671D01*
X290651777Y-208236777D01*
X290570671Y-208290970D01*
X290475000Y-208310000D01*
X288750000Y-208310000D01*
X288654329Y-208290970D01*
X288573223Y-208236777D01*
X288519030Y-208155671D01*
X288500000Y-208060000D01*
X288519030Y-207964329D01*
X288573223Y-207883223D01*
X288654329Y-207829030D01*
X288750000Y-207810000D01*
X290475000Y-207810000D01*
X290570671Y-207829030D01*
G37*
X313148371Y-216639030D02*
X313229477Y-216693223D01*
X313283670Y-216774329D01*
X313302700Y-216870000D01*
X313283670Y-216965671D01*
X313229477Y-217046777D01*
X313148371Y-217100970D01*
X313052700Y-217120000D01*
X307725000Y-217120000D01*
X307629329Y-217100970D01*
X307548223Y-217046777D01*
X307494030Y-216965671D01*
X307475000Y-216870000D01*
X307494030Y-216774329D01*
X307548223Y-216693223D01*
X307629329Y-216639030D01*
X307725000Y-216620000D01*
X313052700Y-216620000D01*
X313148371Y-216639030D01*
G36*
X313148371Y-216639030D02*
G01*
X313229477Y-216693223D01*
X313283670Y-216774329D01*
X313302700Y-216870000D01*
X313283670Y-216965671D01*
X313229477Y-217046777D01*
X313148371Y-217100970D01*
X313052700Y-217120000D01*
X307725000Y-217120000D01*
X307629329Y-217100970D01*
X307548223Y-217046777D01*
X307494030Y-216965671D01*
X307475000Y-216870000D01*
X307494030Y-216774329D01*
X307548223Y-216693223D01*
X307629329Y-216639030D01*
X307725000Y-216620000D01*
X313052700Y-216620000D01*
X313148371Y-216639030D01*
G37*
X290570671Y-205319030D02*
X290651777Y-205373223D01*
X290705970Y-205454329D01*
X290725000Y-205550000D01*
X290705970Y-205645671D01*
X290651777Y-205726777D01*
X290570671Y-205780970D01*
X290475000Y-205800000D01*
X288750000Y-205800000D01*
X288654329Y-205780970D01*
X288573223Y-205726777D01*
X288519030Y-205645671D01*
X288500000Y-205550000D01*
X288519030Y-205454329D01*
X288573223Y-205373223D01*
X288654329Y-205319030D01*
X288750000Y-205300000D01*
X290475000Y-205300000D01*
X290570671Y-205319030D01*
G36*
X290570671Y-205319030D02*
G01*
X290651777Y-205373223D01*
X290705970Y-205454329D01*
X290725000Y-205550000D01*
X290705970Y-205645671D01*
X290651777Y-205726777D01*
X290570671Y-205780970D01*
X290475000Y-205800000D01*
X288750000Y-205800000D01*
X288654329Y-205780970D01*
X288573223Y-205726777D01*
X288519030Y-205645671D01*
X288500000Y-205550000D01*
X288519030Y-205454329D01*
X288573223Y-205373223D01*
X288654329Y-205319030D01*
X288750000Y-205300000D01*
X290475000Y-205300000D01*
X290570671Y-205319030D01*
G37*
X313143371Y-240139030D02*
X313224477Y-240193223D01*
X313278670Y-240274329D01*
X313297700Y-240370000D01*
X313278670Y-240465671D01*
X313224477Y-240546777D01*
X313143371Y-240600970D01*
X313047700Y-240620000D01*
X307475000Y-240620000D01*
X307379329Y-240600970D01*
X307298223Y-240546777D01*
X307244030Y-240465671D01*
X307225000Y-240370000D01*
X307244030Y-240274329D01*
X307298223Y-240193223D01*
X307379329Y-240139030D01*
X307475000Y-240120000D01*
X313047700Y-240120000D01*
X313143371Y-240139030D01*
G36*
X313143371Y-240139030D02*
G01*
X313224477Y-240193223D01*
X313278670Y-240274329D01*
X313297700Y-240370000D01*
X313278670Y-240465671D01*
X313224477Y-240546777D01*
X313143371Y-240600970D01*
X313047700Y-240620000D01*
X307475000Y-240620000D01*
X307379329Y-240600970D01*
X307298223Y-240546777D01*
X307244030Y-240465671D01*
X307225000Y-240370000D01*
X307244030Y-240274329D01*
X307298223Y-240193223D01*
X307379329Y-240139030D01*
X307475000Y-240120000D01*
X313047700Y-240120000D01*
X313143371Y-240139030D01*
G37*
X287170671Y-192684030D02*
X287251777Y-192738223D01*
X287305970Y-192819329D01*
X287325000Y-192915000D01*
X287305970Y-193010671D01*
X287251777Y-193091777D01*
X287170671Y-193145970D01*
X287075000Y-193165000D01*
X282750000Y-193165000D01*
X282654329Y-193145970D01*
X282573223Y-193091777D01*
X282519030Y-193010671D01*
X282500000Y-192915000D01*
X282519030Y-192819329D01*
X282573223Y-192738223D01*
X282654329Y-192684030D01*
X282750000Y-192665000D01*
X287075000Y-192665000D01*
X287170671Y-192684030D01*
G36*
X287170671Y-192684030D02*
G01*
X287251777Y-192738223D01*
X287305970Y-192819329D01*
X287325000Y-192915000D01*
X287305970Y-193010671D01*
X287251777Y-193091777D01*
X287170671Y-193145970D01*
X287075000Y-193165000D01*
X282750000Y-193165000D01*
X282654329Y-193145970D01*
X282573223Y-193091777D01*
X282519030Y-193010671D01*
X282500000Y-192915000D01*
X282519030Y-192819329D01*
X282573223Y-192738223D01*
X282654329Y-192684030D01*
X282750000Y-192665000D01*
X287075000Y-192665000D01*
X287170671Y-192684030D01*
G37*
X287130671Y-200304030D02*
X287211777Y-200358223D01*
X287265970Y-200439329D01*
X287285000Y-200535000D01*
X287265970Y-200630671D01*
X287211777Y-200711777D01*
X287130671Y-200765970D01*
X287035000Y-200785000D01*
X282750000Y-200785000D01*
X282654329Y-200765970D01*
X282573223Y-200711777D01*
X282519030Y-200630671D01*
X282500000Y-200535000D01*
X282519030Y-200439329D01*
X282573223Y-200358223D01*
X282654329Y-200304030D01*
X282750000Y-200285000D01*
X287035000Y-200285000D01*
X287130671Y-200304030D01*
G36*
X287130671Y-200304030D02*
G01*
X287211777Y-200358223D01*
X287265970Y-200439329D01*
X287285000Y-200535000D01*
X287265970Y-200630671D01*
X287211777Y-200711777D01*
X287130671Y-200765970D01*
X287035000Y-200785000D01*
X282750000Y-200785000D01*
X282654329Y-200765970D01*
X282573223Y-200711777D01*
X282519030Y-200630671D01*
X282500000Y-200535000D01*
X282519030Y-200439329D01*
X282573223Y-200358223D01*
X282654329Y-200304030D01*
X282750000Y-200285000D01*
X287035000Y-200285000D01*
X287130671Y-200304030D01*
G37*
D12*
X92750000Y-299250000D02*
X492750000Y-299250000D01*
D11*
X287140671Y-190144030D02*
X287221777Y-190198223D01*
X287275970Y-190279329D01*
X287295000Y-190375000D01*
X287275970Y-190470671D01*
X287221777Y-190551777D01*
X287140671Y-190605970D01*
X287045000Y-190625000D01*
X282750000Y-190625000D01*
X282654329Y-190605970D01*
X282573223Y-190551777D01*
X282519030Y-190470671D01*
X282500000Y-190375000D01*
X282519030Y-190279329D01*
X282573223Y-190198223D01*
X282654329Y-190144030D01*
X282750000Y-190125000D01*
X287045000Y-190125000D01*
X287140671Y-190144030D01*
G36*
X287140671Y-190144030D02*
G01*
X287221777Y-190198223D01*
X287275970Y-190279329D01*
X287295000Y-190375000D01*
X287275970Y-190470671D01*
X287221777Y-190551777D01*
X287140671Y-190605970D01*
X287045000Y-190625000D01*
X282750000Y-190625000D01*
X282654329Y-190605970D01*
X282573223Y-190551777D01*
X282519030Y-190470671D01*
X282500000Y-190375000D01*
X282519030Y-190279329D01*
X282573223Y-190198223D01*
X282654329Y-190144030D01*
X282750000Y-190125000D01*
X287045000Y-190125000D01*
X287140671Y-190144030D01*
G37*
X313148371Y-157889030D02*
X313229477Y-157943223D01*
X313283670Y-158024329D01*
X313302700Y-158120000D01*
X313283670Y-158215671D01*
X313229477Y-158296777D01*
X313148371Y-158350970D01*
X313052700Y-158370000D01*
X307725000Y-158370000D01*
X307629329Y-158350970D01*
X307548223Y-158296777D01*
X307494030Y-158215671D01*
X307475000Y-158120000D01*
X307494030Y-158024329D01*
X307548223Y-157943223D01*
X307629329Y-157889030D01*
X307725000Y-157870000D01*
X313052700Y-157870000D01*
X313148371Y-157889030D01*
G36*
X313148371Y-157889030D02*
G01*
X313229477Y-157943223D01*
X313283670Y-158024329D01*
X313302700Y-158120000D01*
X313283670Y-158215671D01*
X313229477Y-158296777D01*
X313148371Y-158350970D01*
X313052700Y-158370000D01*
X307725000Y-158370000D01*
X307629329Y-158350970D01*
X307548223Y-158296777D01*
X307494030Y-158215671D01*
X307475000Y-158120000D01*
X307494030Y-158024329D01*
X307548223Y-157943223D01*
X307629329Y-157889030D01*
X307725000Y-157870000D01*
X313052700Y-157870000D01*
X313148371Y-157889030D01*
G37*
X311595671Y-228389030D02*
X311676777Y-228443223D01*
X311730970Y-228524329D01*
X311750000Y-228620000D01*
X311730970Y-228715671D01*
X311676777Y-228796777D01*
X311595671Y-228850970D01*
X311500000Y-228870000D01*
X307725000Y-228870000D01*
X307629329Y-228850970D01*
X307548223Y-228796777D01*
X307494030Y-228715671D01*
X307475000Y-228620000D01*
X307494030Y-228524329D01*
X307548223Y-228443223D01*
X307629329Y-228389030D01*
X307725000Y-228370000D01*
X311500000Y-228370000D01*
X311595671Y-228389030D01*
G36*
X311595671Y-228389030D02*
G01*
X311676777Y-228443223D01*
X311730970Y-228524329D01*
X311750000Y-228620000D01*
X311730970Y-228715671D01*
X311676777Y-228796777D01*
X311595671Y-228850970D01*
X311500000Y-228870000D01*
X307725000Y-228870000D01*
X307629329Y-228850970D01*
X307548223Y-228796777D01*
X307494030Y-228715671D01*
X307475000Y-228620000D01*
X307494030Y-228524329D01*
X307548223Y-228443223D01*
X307629329Y-228389030D01*
X307725000Y-228370000D01*
X311500000Y-228370000D01*
X311595671Y-228389030D01*
G37*
%TO.C,J113*%
X291570671Y-190199030D02*
X291651777Y-190253223D01*
X291705970Y-190334329D01*
X291725000Y-190430000D01*
X291705970Y-190525671D01*
X291651777Y-190606777D01*
X291570671Y-190660970D01*
X291475000Y-190680000D01*
X290475000Y-190680000D01*
X290379329Y-190660970D01*
X290298223Y-190606777D01*
X290244030Y-190525671D01*
X290225000Y-190430000D01*
X290244030Y-190334329D01*
X290298223Y-190253223D01*
X290379329Y-190199030D01*
X290475000Y-190180000D01*
X291475000Y-190180000D01*
X291570671Y-190199030D01*
G36*
X291570671Y-190199030D02*
G01*
X291651777Y-190253223D01*
X291705970Y-190334329D01*
X291725000Y-190430000D01*
X291705970Y-190525671D01*
X291651777Y-190606777D01*
X291570671Y-190660970D01*
X291475000Y-190680000D01*
X290475000Y-190680000D01*
X290379329Y-190660970D01*
X290298223Y-190606777D01*
X290244030Y-190525671D01*
X290225000Y-190430000D01*
X290244030Y-190334329D01*
X290298223Y-190253223D01*
X290379329Y-190199030D01*
X290475000Y-190180000D01*
X291475000Y-190180000D01*
X291570671Y-190199030D01*
G37*
X291570671Y-207829030D02*
X291651777Y-207883223D01*
X291705970Y-207964329D01*
X291725000Y-208060000D01*
X291705970Y-208155671D01*
X291651777Y-208236777D01*
X291570671Y-208290970D01*
X291475000Y-208310000D01*
X290475000Y-208310000D01*
X290379329Y-208290970D01*
X290298223Y-208236777D01*
X290244030Y-208155671D01*
X290225000Y-208060000D01*
X290244030Y-207964329D01*
X290298223Y-207883223D01*
X290379329Y-207829030D01*
X290475000Y-207810000D01*
X291475000Y-207810000D01*
X291570671Y-207829030D01*
G36*
X291570671Y-207829030D02*
G01*
X291651777Y-207883223D01*
X291705970Y-207964329D01*
X291725000Y-208060000D01*
X291705970Y-208155671D01*
X291651777Y-208236777D01*
X291570671Y-208290970D01*
X291475000Y-208310000D01*
X290475000Y-208310000D01*
X290379329Y-208290970D01*
X290298223Y-208236777D01*
X290244030Y-208155671D01*
X290225000Y-208060000D01*
X290244030Y-207964329D01*
X290298223Y-207883223D01*
X290379329Y-207829030D01*
X290475000Y-207810000D01*
X291475000Y-207810000D01*
X291570671Y-207829030D01*
G37*
X293320671Y-192709030D02*
X293401777Y-192763223D01*
X293455970Y-192844329D01*
X293475000Y-192940000D01*
X293455970Y-193035671D01*
X293401777Y-193116777D01*
X293320671Y-193170970D01*
X293225000Y-193190000D01*
X290475000Y-193190000D01*
X290379329Y-193170970D01*
X290298223Y-193116777D01*
X290244030Y-193035671D01*
X290225000Y-192940000D01*
X290244030Y-192844329D01*
X290298223Y-192763223D01*
X290379329Y-192709030D01*
X290475000Y-192690000D01*
X293225000Y-192690000D01*
X293320671Y-192709030D01*
G36*
X293320671Y-192709030D02*
G01*
X293401777Y-192763223D01*
X293455970Y-192844329D01*
X293475000Y-192940000D01*
X293455970Y-193035671D01*
X293401777Y-193116777D01*
X293320671Y-193170970D01*
X293225000Y-193190000D01*
X290475000Y-193190000D01*
X290379329Y-193170970D01*
X290298223Y-193116777D01*
X290244030Y-193035671D01*
X290225000Y-192940000D01*
X290244030Y-192844329D01*
X290298223Y-192763223D01*
X290379329Y-192709030D01*
X290475000Y-192690000D01*
X293225000Y-192690000D01*
X293320671Y-192709030D01*
G37*
X293320671Y-205319030D02*
X293401777Y-205373223D01*
X293455970Y-205454329D01*
X293475000Y-205550000D01*
X293455970Y-205645671D01*
X293401777Y-205726777D01*
X293320671Y-205780970D01*
X293225000Y-205800000D01*
X290475000Y-205800000D01*
X290379329Y-205780970D01*
X290298223Y-205726777D01*
X290244030Y-205645671D01*
X290225000Y-205550000D01*
X290244030Y-205454329D01*
X290298223Y-205373223D01*
X290379329Y-205319030D01*
X290475000Y-205300000D01*
X293225000Y-205300000D01*
X293320671Y-205319030D01*
G36*
X293320671Y-205319030D02*
G01*
X293401777Y-205373223D01*
X293455970Y-205454329D01*
X293475000Y-205550000D01*
X293455970Y-205645671D01*
X293401777Y-205726777D01*
X293320671Y-205780970D01*
X293225000Y-205800000D01*
X290475000Y-205800000D01*
X290379329Y-205780970D01*
X290298223Y-205726777D01*
X290244030Y-205645671D01*
X290225000Y-205550000D01*
X290244030Y-205454329D01*
X290298223Y-205373223D01*
X290379329Y-205319030D01*
X290475000Y-205300000D01*
X293225000Y-205300000D01*
X293320671Y-205319030D01*
G37*
X296320671Y-195219030D02*
X296401777Y-195273223D01*
X296455970Y-195354329D01*
X296475000Y-195450000D01*
X296455970Y-195545671D01*
X296401777Y-195626777D01*
X296320671Y-195680970D01*
X296225000Y-195700000D01*
X290475000Y-195700000D01*
X290379329Y-195680970D01*
X290298223Y-195626777D01*
X290244030Y-195545671D01*
X290225000Y-195450000D01*
X290244030Y-195354329D01*
X290298223Y-195273223D01*
X290379329Y-195219030D01*
X290475000Y-195200000D01*
X296225000Y-195200000D01*
X296320671Y-195219030D01*
G36*
X296320671Y-195219030D02*
G01*
X296401777Y-195273223D01*
X296455970Y-195354329D01*
X296475000Y-195450000D01*
X296455970Y-195545671D01*
X296401777Y-195626777D01*
X296320671Y-195680970D01*
X296225000Y-195700000D01*
X290475000Y-195700000D01*
X290379329Y-195680970D01*
X290298223Y-195626777D01*
X290244030Y-195545671D01*
X290225000Y-195450000D01*
X290244030Y-195354329D01*
X290298223Y-195273223D01*
X290379329Y-195219030D01*
X290475000Y-195200000D01*
X296225000Y-195200000D01*
X296320671Y-195219030D01*
G37*
X296320671Y-202809030D02*
X296401777Y-202863223D01*
X296455970Y-202944329D01*
X296475000Y-203040000D01*
X296455970Y-203135671D01*
X296401777Y-203216777D01*
X296320671Y-203270970D01*
X296225000Y-203290000D01*
X290475000Y-203290000D01*
X290379329Y-203270970D01*
X290298223Y-203216777D01*
X290244030Y-203135671D01*
X290225000Y-203040000D01*
X290244030Y-202944329D01*
X290298223Y-202863223D01*
X290379329Y-202809030D01*
X290475000Y-202790000D01*
X296225000Y-202790000D01*
X296320671Y-202809030D01*
G36*
X296320671Y-202809030D02*
G01*
X296401777Y-202863223D01*
X296455970Y-202944329D01*
X296475000Y-203040000D01*
X296455970Y-203135671D01*
X296401777Y-203216777D01*
X296320671Y-203270970D01*
X296225000Y-203290000D01*
X290475000Y-203290000D01*
X290379329Y-203270970D01*
X290298223Y-203216777D01*
X290244030Y-203135671D01*
X290225000Y-203040000D01*
X290244030Y-202944329D01*
X290298223Y-202863223D01*
X290379329Y-202809030D01*
X290475000Y-202790000D01*
X296225000Y-202790000D01*
X296320671Y-202809030D01*
G37*
X296570671Y-162639030D02*
X296651777Y-162693223D01*
X296705970Y-162774329D01*
X296725000Y-162870000D01*
X296725000Y-185430000D01*
X296705970Y-185525671D01*
X296651777Y-185606777D01*
X296570671Y-185660970D01*
X296475000Y-185680000D01*
X296379329Y-185660970D01*
X296298223Y-185606777D01*
X296244030Y-185525671D01*
X296225000Y-185430000D01*
X296225000Y-162870000D01*
X296244030Y-162774329D01*
X296298223Y-162693223D01*
X296379329Y-162639030D01*
X296475000Y-162620000D01*
X296570671Y-162639030D01*
G36*
X296570671Y-162639030D02*
G01*
X296651777Y-162693223D01*
X296705970Y-162774329D01*
X296725000Y-162870000D01*
X296725000Y-185430000D01*
X296705970Y-185525671D01*
X296651777Y-185606777D01*
X296570671Y-185660970D01*
X296475000Y-185680000D01*
X296379329Y-185660970D01*
X296298223Y-185606777D01*
X296244030Y-185525671D01*
X296225000Y-185430000D01*
X296225000Y-162870000D01*
X296244030Y-162774329D01*
X296298223Y-162693223D01*
X296379329Y-162639030D01*
X296475000Y-162620000D01*
X296570671Y-162639030D01*
G37*
X296570671Y-212829030D02*
X296651777Y-212883223D01*
X296705970Y-212964329D01*
X296725000Y-213060000D01*
X296725000Y-235620000D01*
X296705970Y-235715671D01*
X296651777Y-235796777D01*
X296570671Y-235850970D01*
X296475000Y-235870000D01*
X296379329Y-235850970D01*
X296298223Y-235796777D01*
X296244030Y-235715671D01*
X296225000Y-235620000D01*
X296225000Y-213060000D01*
X296244030Y-212964329D01*
X296298223Y-212883223D01*
X296379329Y-212829030D01*
X296475000Y-212810000D01*
X296570671Y-212829030D01*
G36*
X296570671Y-212829030D02*
G01*
X296651777Y-212883223D01*
X296705970Y-212964329D01*
X296725000Y-213060000D01*
X296725000Y-235620000D01*
X296705970Y-235715671D01*
X296651777Y-235796777D01*
X296570671Y-235850970D01*
X296475000Y-235870000D01*
X296379329Y-235850970D01*
X296298223Y-235796777D01*
X296244030Y-235715671D01*
X296225000Y-235620000D01*
X296225000Y-213060000D01*
X296244030Y-212964329D01*
X296298223Y-212883223D01*
X296379329Y-212829030D01*
X296475000Y-212810000D01*
X296570671Y-212829030D01*
G37*
X300570671Y-173644030D02*
X300651777Y-173698223D01*
X300705970Y-173779329D01*
X300725000Y-173875000D01*
X300725000Y-185690000D01*
X300705970Y-185785671D01*
X300651777Y-185866777D01*
X300570671Y-185920970D01*
X300475000Y-185940000D01*
X300379329Y-185920970D01*
X300298223Y-185866777D01*
X300244030Y-185785671D01*
X300225000Y-185690000D01*
X300225000Y-173875000D01*
X300244030Y-173779329D01*
X300298223Y-173698223D01*
X300379329Y-173644030D01*
X300475000Y-173625000D01*
X300570671Y-173644030D01*
G36*
X300570671Y-173644030D02*
G01*
X300651777Y-173698223D01*
X300705970Y-173779329D01*
X300725000Y-173875000D01*
X300725000Y-185690000D01*
X300705970Y-185785671D01*
X300651777Y-185866777D01*
X300570671Y-185920970D01*
X300475000Y-185940000D01*
X300379329Y-185920970D01*
X300298223Y-185866777D01*
X300244030Y-185785671D01*
X300225000Y-185690000D01*
X300225000Y-173875000D01*
X300244030Y-173779329D01*
X300298223Y-173698223D01*
X300379329Y-173644030D01*
X300475000Y-173625000D01*
X300570671Y-173644030D01*
G37*
X300570671Y-212569030D02*
X300651777Y-212623223D01*
X300705970Y-212704329D01*
X300725000Y-212800000D01*
X300725000Y-224615000D01*
X300705970Y-224710671D01*
X300651777Y-224791777D01*
X300570671Y-224845970D01*
X300475000Y-224865000D01*
X300379329Y-224845970D01*
X300298223Y-224791777D01*
X300244030Y-224710671D01*
X300225000Y-224615000D01*
X300225000Y-212800000D01*
X300244030Y-212704329D01*
X300298223Y-212623223D01*
X300379329Y-212569030D01*
X300475000Y-212550000D01*
X300570671Y-212569030D01*
G36*
X300570671Y-212569030D02*
G01*
X300651777Y-212623223D01*
X300705970Y-212704329D01*
X300725000Y-212800000D01*
X300725000Y-224615000D01*
X300705970Y-224710671D01*
X300651777Y-224791777D01*
X300570671Y-224845970D01*
X300475000Y-224865000D01*
X300379329Y-224845970D01*
X300298223Y-224791777D01*
X300244030Y-224710671D01*
X300225000Y-224615000D01*
X300225000Y-212800000D01*
X300244030Y-212704329D01*
X300298223Y-212623223D01*
X300379329Y-212569030D01*
X300475000Y-212550000D01*
X300570671Y-212569030D01*
G37*
X302725102Y-200285000D02*
X302820765Y-200304069D01*
X302901849Y-200358295D01*
X302956009Y-200439423D01*
X302975000Y-200535102D01*
X302955931Y-200630765D01*
X302901705Y-200711849D01*
X302820577Y-200766009D01*
X302724898Y-200785000D01*
X290474898Y-200780000D01*
X290379235Y-200760931D01*
X290298151Y-200706705D01*
X290243991Y-200625577D01*
X290225000Y-200529898D01*
X290244069Y-200434235D01*
X290298295Y-200353151D01*
X290379423Y-200298991D01*
X290475102Y-200280000D01*
X302725102Y-200285000D01*
G36*
X302725102Y-200285000D02*
G01*
X302820765Y-200304069D01*
X302901849Y-200358295D01*
X302956009Y-200439423D01*
X302975000Y-200535102D01*
X302955931Y-200630765D01*
X302901705Y-200711849D01*
X302820577Y-200766009D01*
X302724898Y-200785000D01*
X290474898Y-200780000D01*
X290379235Y-200760931D01*
X290298151Y-200706705D01*
X290243991Y-200625577D01*
X290225000Y-200529898D01*
X290244069Y-200434235D01*
X290298295Y-200353151D01*
X290379423Y-200298991D01*
X290475102Y-200280000D01*
X302725102Y-200285000D01*
G37*
X302820577Y-197723991D02*
X302901705Y-197778151D01*
X302955931Y-197859235D01*
X302975000Y-197954898D01*
X302956009Y-198050577D01*
X302901849Y-198131705D01*
X302820765Y-198185931D01*
X302725102Y-198205000D01*
X290475102Y-198210000D01*
X290379423Y-198191009D01*
X290298295Y-198136849D01*
X290244069Y-198055765D01*
X290225000Y-197960102D01*
X290243991Y-197864423D01*
X290298151Y-197783295D01*
X290379235Y-197729069D01*
X290474898Y-197710000D01*
X302724898Y-197705000D01*
X302820577Y-197723991D01*
G36*
X302820577Y-197723991D02*
G01*
X302901705Y-197778151D01*
X302955931Y-197859235D01*
X302975000Y-197954898D01*
X302956009Y-198050577D01*
X302901849Y-198131705D01*
X302820765Y-198185931D01*
X302725102Y-198205000D01*
X290475102Y-198210000D01*
X290379423Y-198191009D01*
X290298295Y-198136849D01*
X290244069Y-198055765D01*
X290225000Y-197960102D01*
X290243991Y-197864423D01*
X290298151Y-197783295D01*
X290379235Y-197729069D01*
X290474898Y-197710000D01*
X302724898Y-197705000D01*
X302820577Y-197723991D01*
G37*
X303820671Y-183889030D02*
X303901777Y-183943223D01*
X303955970Y-184024329D01*
X303975000Y-184120000D01*
X303975000Y-187950000D01*
X303955970Y-188045671D01*
X303901777Y-188126777D01*
X303820671Y-188180970D01*
X303725000Y-188200000D01*
X303629329Y-188180970D01*
X303548223Y-188126777D01*
X303494030Y-188045671D01*
X303475000Y-187950000D01*
X303475000Y-184120000D01*
X303494030Y-184024329D01*
X303548223Y-183943223D01*
X303629329Y-183889030D01*
X303725000Y-183870000D01*
X303820671Y-183889030D01*
G36*
X303820671Y-183889030D02*
G01*
X303901777Y-183943223D01*
X303955970Y-184024329D01*
X303975000Y-184120000D01*
X303975000Y-187950000D01*
X303955970Y-188045671D01*
X303901777Y-188126777D01*
X303820671Y-188180970D01*
X303725000Y-188200000D01*
X303629329Y-188180970D01*
X303548223Y-188126777D01*
X303494030Y-188045671D01*
X303475000Y-187950000D01*
X303475000Y-184120000D01*
X303494030Y-184024329D01*
X303548223Y-183943223D01*
X303629329Y-183889030D01*
X303725000Y-183870000D01*
X303820671Y-183889030D01*
G37*
X303820671Y-210309030D02*
X303901777Y-210363223D01*
X303955970Y-210444329D01*
X303975000Y-210540000D01*
X303975000Y-214370000D01*
X303955970Y-214465671D01*
X303901777Y-214546777D01*
X303820671Y-214600970D01*
X303725000Y-214620000D01*
X303629329Y-214600970D01*
X303548223Y-214546777D01*
X303494030Y-214465671D01*
X303475000Y-214370000D01*
X303475000Y-210540000D01*
X303494030Y-210444329D01*
X303548223Y-210363223D01*
X303629329Y-210309030D01*
X303725000Y-210290000D01*
X303820671Y-210309030D01*
G36*
X303820671Y-210309030D02*
G01*
X303901777Y-210363223D01*
X303955970Y-210444329D01*
X303975000Y-210540000D01*
X303975000Y-214370000D01*
X303955970Y-214465671D01*
X303901777Y-214546777D01*
X303820671Y-214600970D01*
X303725000Y-214620000D01*
X303629329Y-214600970D01*
X303548223Y-214546777D01*
X303494030Y-214465671D01*
X303475000Y-214370000D01*
X303475000Y-210540000D01*
X303494030Y-210444329D01*
X303548223Y-210363223D01*
X303629329Y-210309030D01*
X303725000Y-210290000D01*
X303820671Y-210309030D01*
G37*
X304320671Y-195639030D02*
X304401777Y-195693223D01*
X304455970Y-195774329D01*
X304475000Y-195870000D01*
X304475000Y-196455000D01*
X304455970Y-196550671D01*
X304401777Y-196631777D01*
X304320671Y-196685970D01*
X304225000Y-196705000D01*
X304129329Y-196685970D01*
X304048223Y-196631777D01*
X303994030Y-196550671D01*
X303975000Y-196455000D01*
X303975000Y-195870000D01*
X303994030Y-195774329D01*
X304048223Y-195693223D01*
X304129329Y-195639030D01*
X304225000Y-195620000D01*
X304320671Y-195639030D01*
G36*
X304320671Y-195639030D02*
G01*
X304401777Y-195693223D01*
X304455970Y-195774329D01*
X304475000Y-195870000D01*
X304475000Y-196455000D01*
X304455970Y-196550671D01*
X304401777Y-196631777D01*
X304320671Y-196685970D01*
X304225000Y-196705000D01*
X304129329Y-196685970D01*
X304048223Y-196631777D01*
X303994030Y-196550671D01*
X303975000Y-196455000D01*
X303975000Y-195870000D01*
X303994030Y-195774329D01*
X304048223Y-195693223D01*
X304129329Y-195639030D01*
X304225000Y-195620000D01*
X304320671Y-195639030D01*
G37*
X304320671Y-201804030D02*
X304401777Y-201858223D01*
X304455970Y-201939329D01*
X304475000Y-202035000D01*
X304475000Y-202620000D01*
X304455970Y-202715671D01*
X304401777Y-202796777D01*
X304320671Y-202850970D01*
X304225000Y-202870000D01*
X304129329Y-202850970D01*
X304048223Y-202796777D01*
X303994030Y-202715671D01*
X303975000Y-202620000D01*
X303975000Y-202035000D01*
X303994030Y-201939329D01*
X304048223Y-201858223D01*
X304129329Y-201804030D01*
X304225000Y-201785000D01*
X304320671Y-201804030D01*
G36*
X304320671Y-201804030D02*
G01*
X304401777Y-201858223D01*
X304455970Y-201939329D01*
X304475000Y-202035000D01*
X304475000Y-202620000D01*
X304455970Y-202715671D01*
X304401777Y-202796777D01*
X304320671Y-202850970D01*
X304225000Y-202870000D01*
X304129329Y-202850970D01*
X304048223Y-202796777D01*
X303994030Y-202715671D01*
X303975000Y-202620000D01*
X303975000Y-202035000D01*
X303994030Y-201939329D01*
X304048223Y-201858223D01*
X304129329Y-201804030D01*
X304225000Y-201785000D01*
X304320671Y-201804030D01*
G37*
X307570671Y-240139030D02*
X307651777Y-240193223D01*
X307705970Y-240274329D01*
X307725000Y-240370000D01*
X307705970Y-240465671D01*
X307651777Y-240546777D01*
X307570671Y-240600970D01*
X307475000Y-240620000D01*
X301225000Y-240620000D01*
X301129329Y-240600970D01*
X301048223Y-240546777D01*
X300994030Y-240465671D01*
X300975000Y-240370000D01*
X300994030Y-240274329D01*
X301048223Y-240193223D01*
X301129329Y-240139030D01*
X301225000Y-240120000D01*
X307475000Y-240120000D01*
X307570671Y-240139030D01*
G36*
X307570671Y-240139030D02*
G01*
X307651777Y-240193223D01*
X307705970Y-240274329D01*
X307725000Y-240370000D01*
X307705970Y-240465671D01*
X307651777Y-240546777D01*
X307570671Y-240600970D01*
X307475000Y-240620000D01*
X301225000Y-240620000D01*
X301129329Y-240600970D01*
X301048223Y-240546777D01*
X300994030Y-240465671D01*
X300975000Y-240370000D01*
X300994030Y-240274329D01*
X301048223Y-240193223D01*
X301129329Y-240139030D01*
X301225000Y-240120000D01*
X307475000Y-240120000D01*
X307570671Y-240139030D01*
G37*
X307725385Y-228370000D02*
X307821026Y-228389177D01*
X307902049Y-228443495D01*
X307956117Y-228524684D01*
X307975000Y-228620385D01*
X307955823Y-228716026D01*
X307901505Y-228797049D01*
X307820316Y-228851117D01*
X307724616Y-228870000D01*
X304474615Y-228865000D01*
X304378974Y-228845823D01*
X304297951Y-228791505D01*
X304243883Y-228710316D01*
X304225000Y-228614615D01*
X304244177Y-228518974D01*
X304298495Y-228437951D01*
X304379684Y-228383883D01*
X304475385Y-228365000D01*
X307725385Y-228370000D01*
G36*
X307725385Y-228370000D02*
G01*
X307821026Y-228389177D01*
X307902049Y-228443495D01*
X307956117Y-228524684D01*
X307975000Y-228620385D01*
X307955823Y-228716026D01*
X307901505Y-228797049D01*
X307820316Y-228851117D01*
X307724616Y-228870000D01*
X304474615Y-228865000D01*
X304378974Y-228845823D01*
X304297951Y-228791505D01*
X304243883Y-228710316D01*
X304225000Y-228614615D01*
X304244177Y-228518974D01*
X304298495Y-228437951D01*
X304379684Y-228383883D01*
X304475385Y-228365000D01*
X307725385Y-228370000D01*
G37*
X307820316Y-169638883D02*
X307901505Y-169692951D01*
X307955823Y-169773974D01*
X307975000Y-169869615D01*
X307956117Y-169965316D01*
X307902049Y-170046505D01*
X307821026Y-170100823D01*
X307725385Y-170120000D01*
X304475385Y-170125000D01*
X304379684Y-170106117D01*
X304298495Y-170052049D01*
X304244177Y-169971026D01*
X304225000Y-169875385D01*
X304243883Y-169779684D01*
X304297951Y-169698495D01*
X304378974Y-169644177D01*
X304474615Y-169625000D01*
X307724616Y-169620000D01*
X307820316Y-169638883D01*
G36*
X307820316Y-169638883D02*
G01*
X307901505Y-169692951D01*
X307955823Y-169773974D01*
X307975000Y-169869615D01*
X307956117Y-169965316D01*
X307902049Y-170046505D01*
X307821026Y-170100823D01*
X307725385Y-170120000D01*
X304475385Y-170125000D01*
X304379684Y-170106117D01*
X304298495Y-170052049D01*
X304244177Y-169971026D01*
X304225000Y-169875385D01*
X304243883Y-169779684D01*
X304297951Y-169698495D01*
X304378974Y-169644177D01*
X304474615Y-169625000D01*
X307724616Y-169620000D01*
X307820316Y-169638883D01*
G37*
X307820671Y-157889030D02*
X307901777Y-157943223D01*
X307955970Y-158024329D01*
X307975000Y-158120000D01*
X307955970Y-158215671D01*
X307901777Y-158296777D01*
X307820671Y-158350970D01*
X307725000Y-158370000D01*
X301225000Y-158370000D01*
X301129329Y-158350970D01*
X301048223Y-158296777D01*
X300994030Y-158215671D01*
X300975000Y-158120000D01*
X300994030Y-158024329D01*
X301048223Y-157943223D01*
X301129329Y-157889030D01*
X301225000Y-157870000D01*
X307725000Y-157870000D01*
X307820671Y-157889030D01*
G36*
X307820671Y-157889030D02*
G01*
X307901777Y-157943223D01*
X307955970Y-158024329D01*
X307975000Y-158120000D01*
X307955970Y-158215671D01*
X307901777Y-158296777D01*
X307820671Y-158350970D01*
X307725000Y-158370000D01*
X301225000Y-158370000D01*
X301129329Y-158350970D01*
X301048223Y-158296777D01*
X300994030Y-158215671D01*
X300975000Y-158120000D01*
X300994030Y-158024329D01*
X301048223Y-157943223D01*
X301129329Y-157889030D01*
X301225000Y-157870000D01*
X307725000Y-157870000D01*
X307820671Y-157889030D01*
G37*
X307820671Y-181389030D02*
X307901777Y-181443223D01*
X307955970Y-181524329D01*
X307975000Y-181620000D01*
X307955970Y-181715671D01*
X307901777Y-181796777D01*
X307820671Y-181850970D01*
X307725000Y-181870000D01*
X306225000Y-181870000D01*
X306129329Y-181850970D01*
X306048223Y-181796777D01*
X305994030Y-181715671D01*
X305975000Y-181620000D01*
X305994030Y-181524329D01*
X306048223Y-181443223D01*
X306129329Y-181389030D01*
X306225000Y-181370000D01*
X307725000Y-181370000D01*
X307820671Y-181389030D01*
G36*
X307820671Y-181389030D02*
G01*
X307901777Y-181443223D01*
X307955970Y-181524329D01*
X307975000Y-181620000D01*
X307955970Y-181715671D01*
X307901777Y-181796777D01*
X307820671Y-181850970D01*
X307725000Y-181870000D01*
X306225000Y-181870000D01*
X306129329Y-181850970D01*
X306048223Y-181796777D01*
X305994030Y-181715671D01*
X305975000Y-181620000D01*
X305994030Y-181524329D01*
X306048223Y-181443223D01*
X306129329Y-181389030D01*
X306225000Y-181370000D01*
X307725000Y-181370000D01*
X307820671Y-181389030D01*
G37*
X307820671Y-193139030D02*
X307901777Y-193193223D01*
X307955970Y-193274329D01*
X307975000Y-193370000D01*
X307955970Y-193465671D01*
X307901777Y-193546777D01*
X307820671Y-193600970D01*
X307725000Y-193620000D01*
X306725000Y-193620000D01*
X306629329Y-193600970D01*
X306548223Y-193546777D01*
X306494030Y-193465671D01*
X306475000Y-193370000D01*
X306494030Y-193274329D01*
X306548223Y-193193223D01*
X306629329Y-193139030D01*
X306725000Y-193120000D01*
X307725000Y-193120000D01*
X307820671Y-193139030D01*
G36*
X307820671Y-193139030D02*
G01*
X307901777Y-193193223D01*
X307955970Y-193274329D01*
X307975000Y-193370000D01*
X307955970Y-193465671D01*
X307901777Y-193546777D01*
X307820671Y-193600970D01*
X307725000Y-193620000D01*
X306725000Y-193620000D01*
X306629329Y-193600970D01*
X306548223Y-193546777D01*
X306494030Y-193465671D01*
X306475000Y-193370000D01*
X306494030Y-193274329D01*
X306548223Y-193193223D01*
X306629329Y-193139030D01*
X306725000Y-193120000D01*
X307725000Y-193120000D01*
X307820671Y-193139030D01*
G37*
X307820671Y-204889030D02*
X307901777Y-204943223D01*
X307955970Y-205024329D01*
X307975000Y-205120000D01*
X307955970Y-205215671D01*
X307901777Y-205296777D01*
X307820671Y-205350970D01*
X307725000Y-205370000D01*
X306725000Y-205370000D01*
X306629329Y-205350970D01*
X306548223Y-205296777D01*
X306494030Y-205215671D01*
X306475000Y-205120000D01*
X306494030Y-205024329D01*
X306548223Y-204943223D01*
X306629329Y-204889030D01*
X306725000Y-204870000D01*
X307725000Y-204870000D01*
X307820671Y-204889030D01*
G36*
X307820671Y-204889030D02*
G01*
X307901777Y-204943223D01*
X307955970Y-205024329D01*
X307975000Y-205120000D01*
X307955970Y-205215671D01*
X307901777Y-205296777D01*
X307820671Y-205350970D01*
X307725000Y-205370000D01*
X306725000Y-205370000D01*
X306629329Y-205350970D01*
X306548223Y-205296777D01*
X306494030Y-205215671D01*
X306475000Y-205120000D01*
X306494030Y-205024329D01*
X306548223Y-204943223D01*
X306629329Y-204889030D01*
X306725000Y-204870000D01*
X307725000Y-204870000D01*
X307820671Y-204889030D01*
G37*
X307820671Y-216639030D02*
X307901777Y-216693223D01*
X307955970Y-216774329D01*
X307975000Y-216870000D01*
X307955970Y-216965671D01*
X307901777Y-217046777D01*
X307820671Y-217100970D01*
X307725000Y-217120000D01*
X306225000Y-217120000D01*
X306129329Y-217100970D01*
X306048223Y-217046777D01*
X305994030Y-216965671D01*
X305975000Y-216870000D01*
X305994030Y-216774329D01*
X306048223Y-216693223D01*
X306129329Y-216639030D01*
X306225000Y-216620000D01*
X307725000Y-216620000D01*
X307820671Y-216639030D01*
G36*
X307820671Y-216639030D02*
G01*
X307901777Y-216693223D01*
X307955970Y-216774329D01*
X307975000Y-216870000D01*
X307955970Y-216965671D01*
X307901777Y-217046777D01*
X307820671Y-217100970D01*
X307725000Y-217120000D01*
X306225000Y-217120000D01*
X306129329Y-217100970D01*
X306048223Y-217046777D01*
X305994030Y-216965671D01*
X305975000Y-216870000D01*
X305994030Y-216774329D01*
X306048223Y-216693223D01*
X306129329Y-216639030D01*
X306225000Y-216620000D01*
X307725000Y-216620000D01*
X307820671Y-216639030D01*
G37*
X302974051Y-200302812D02*
X303218032Y-200355887D01*
X303451976Y-200443144D01*
X303671121Y-200562806D01*
X303871006Y-200712438D01*
X304047562Y-200888994D01*
X304197194Y-201088879D01*
X304316856Y-201308024D01*
X304404113Y-201541968D01*
X304457188Y-201785949D01*
X304475000Y-202035000D01*
X304459923Y-202120505D01*
X304416511Y-202195697D01*
X304350000Y-202251506D01*
X304268412Y-202281202D01*
X304181588Y-202281202D01*
X304100000Y-202251506D01*
X304033489Y-202195697D01*
X303990077Y-202120505D01*
X303975000Y-202035000D01*
X303975000Y-201936623D01*
X303944221Y-201742291D01*
X303883420Y-201555167D01*
X303794096Y-201379857D01*
X303678446Y-201220680D01*
X303539320Y-201081554D01*
X303380143Y-200965904D01*
X303204833Y-200876580D01*
X303017709Y-200815779D01*
X302823377Y-200785000D01*
X302725000Y-200785000D01*
X302639495Y-200769923D01*
X302564303Y-200726511D01*
X302508494Y-200660000D01*
X302478798Y-200578412D01*
X302478798Y-200491588D01*
X302508494Y-200410000D01*
X302564303Y-200343489D01*
X302639495Y-200300077D01*
X302725000Y-200285000D01*
X302974051Y-200302812D01*
G36*
X302974051Y-200302812D02*
G01*
X303218032Y-200355887D01*
X303451976Y-200443144D01*
X303671121Y-200562806D01*
X303871006Y-200712438D01*
X304047562Y-200888994D01*
X304197194Y-201088879D01*
X304316856Y-201308024D01*
X304404113Y-201541968D01*
X304457188Y-201785949D01*
X304475000Y-202035000D01*
X304459923Y-202120505D01*
X304416511Y-202195697D01*
X304350000Y-202251506D01*
X304268412Y-202281202D01*
X304181588Y-202281202D01*
X304100000Y-202251506D01*
X304033489Y-202195697D01*
X303990077Y-202120505D01*
X303975000Y-202035000D01*
X303975000Y-201936623D01*
X303944221Y-201742291D01*
X303883420Y-201555167D01*
X303794096Y-201379857D01*
X303678446Y-201220680D01*
X303539320Y-201081554D01*
X303380143Y-200965904D01*
X303204833Y-200876580D01*
X303017709Y-200815779D01*
X302823377Y-200785000D01*
X302725000Y-200785000D01*
X302639495Y-200769923D01*
X302564303Y-200726511D01*
X302508494Y-200660000D01*
X302478798Y-200578412D01*
X302478798Y-200491588D01*
X302508494Y-200410000D01*
X302564303Y-200343489D01*
X302639495Y-200300077D01*
X302725000Y-200285000D01*
X302974051Y-200302812D01*
G37*
X304350000Y-196238494D02*
X304416511Y-196294303D01*
X304459923Y-196369495D01*
X304475000Y-196455000D01*
X304457188Y-196704051D01*
X304404113Y-196948032D01*
X304316856Y-197181976D01*
X304197194Y-197401121D01*
X304047562Y-197601006D01*
X303871006Y-197777562D01*
X303671121Y-197927194D01*
X303451976Y-198046856D01*
X303218032Y-198134113D01*
X302974051Y-198187188D01*
X302725000Y-198205000D01*
X302639495Y-198189923D01*
X302564303Y-198146511D01*
X302508494Y-198080000D01*
X302478798Y-197998412D01*
X302478798Y-197911588D01*
X302508494Y-197830000D01*
X302564303Y-197763489D01*
X302639495Y-197720077D01*
X302725000Y-197705000D01*
X302823377Y-197705000D01*
X303017709Y-197674221D01*
X303204833Y-197613420D01*
X303380143Y-197524096D01*
X303539320Y-197408446D01*
X303678446Y-197269320D01*
X303794096Y-197110143D01*
X303883420Y-196934833D01*
X303944221Y-196747709D01*
X303975000Y-196553377D01*
X303975000Y-196455000D01*
X303990077Y-196369495D01*
X304033489Y-196294303D01*
X304100000Y-196238494D01*
X304181588Y-196208798D01*
X304268412Y-196208798D01*
X304350000Y-196238494D01*
G36*
X304350000Y-196238494D02*
G01*
X304416511Y-196294303D01*
X304459923Y-196369495D01*
X304475000Y-196455000D01*
X304457188Y-196704051D01*
X304404113Y-196948032D01*
X304316856Y-197181976D01*
X304197194Y-197401121D01*
X304047562Y-197601006D01*
X303871006Y-197777562D01*
X303671121Y-197927194D01*
X303451976Y-198046856D01*
X303218032Y-198134113D01*
X302974051Y-198187188D01*
X302725000Y-198205000D01*
X302639495Y-198189923D01*
X302564303Y-198146511D01*
X302508494Y-198080000D01*
X302478798Y-197998412D01*
X302478798Y-197911588D01*
X302508494Y-197830000D01*
X302564303Y-197763489D01*
X302639495Y-197720077D01*
X302725000Y-197705000D01*
X302823377Y-197705000D01*
X303017709Y-197674221D01*
X303204833Y-197613420D01*
X303380143Y-197524096D01*
X303539320Y-197408446D01*
X303678446Y-197269320D01*
X303794096Y-197110143D01*
X303883420Y-196934833D01*
X303944221Y-196747709D01*
X303975000Y-196553377D01*
X303975000Y-196455000D01*
X303990077Y-196369495D01*
X304033489Y-196294303D01*
X304100000Y-196238494D01*
X304181588Y-196208798D01*
X304268412Y-196208798D01*
X304350000Y-196238494D01*
G37*
X303850000Y-214153494D02*
X303916511Y-214209303D01*
X303959923Y-214284495D01*
X303975000Y-214370000D01*
X303975000Y-214506100D01*
X304007810Y-214776315D01*
X304072951Y-215040606D01*
X304169475Y-215295117D01*
X304295972Y-215536138D01*
X304450599Y-215760154D01*
X304631101Y-215963899D01*
X304834846Y-216144401D01*
X305058862Y-216299028D01*
X305299883Y-216425525D01*
X305554394Y-216522049D01*
X305818685Y-216587190D01*
X306088900Y-216620000D01*
X306225000Y-216620000D01*
X306310505Y-216635077D01*
X306385697Y-216678489D01*
X306441506Y-216745000D01*
X306471202Y-216826588D01*
X306471202Y-216913412D01*
X306441506Y-216995000D01*
X306385697Y-217061511D01*
X306310505Y-217104923D01*
X306225000Y-217120000D01*
X305917098Y-217102709D01*
X305613067Y-217051052D01*
X305316733Y-216965679D01*
X305031820Y-216847664D01*
X304761912Y-216698492D01*
X304510403Y-216520037D01*
X304280456Y-216314544D01*
X304074963Y-216084597D01*
X303896508Y-215833088D01*
X303747336Y-215563180D01*
X303629321Y-215278267D01*
X303543948Y-214981933D01*
X303492291Y-214677902D01*
X303475000Y-214370000D01*
X303490077Y-214284495D01*
X303533489Y-214209303D01*
X303600000Y-214153494D01*
X303681588Y-214123798D01*
X303768412Y-214123798D01*
X303850000Y-214153494D01*
G36*
X303850000Y-214153494D02*
G01*
X303916511Y-214209303D01*
X303959923Y-214284495D01*
X303975000Y-214370000D01*
X303975000Y-214506100D01*
X304007810Y-214776315D01*
X304072951Y-215040606D01*
X304169475Y-215295117D01*
X304295972Y-215536138D01*
X304450599Y-215760154D01*
X304631101Y-215963899D01*
X304834846Y-216144401D01*
X305058862Y-216299028D01*
X305299883Y-216425525D01*
X305554394Y-216522049D01*
X305818685Y-216587190D01*
X306088900Y-216620000D01*
X306225000Y-216620000D01*
X306310505Y-216635077D01*
X306385697Y-216678489D01*
X306441506Y-216745000D01*
X306471202Y-216826588D01*
X306471202Y-216913412D01*
X306441506Y-216995000D01*
X306385697Y-217061511D01*
X306310505Y-217104923D01*
X306225000Y-217120000D01*
X305917098Y-217102709D01*
X305613067Y-217051052D01*
X305316733Y-216965679D01*
X305031820Y-216847664D01*
X304761912Y-216698492D01*
X304510403Y-216520037D01*
X304280456Y-216314544D01*
X304074963Y-216084597D01*
X303896508Y-215833088D01*
X303747336Y-215563180D01*
X303629321Y-215278267D01*
X303543948Y-214981933D01*
X303492291Y-214677902D01*
X303475000Y-214370000D01*
X303490077Y-214284495D01*
X303533489Y-214209303D01*
X303600000Y-214153494D01*
X303681588Y-214123798D01*
X303768412Y-214123798D01*
X303850000Y-214153494D01*
G37*
X304350000Y-202403494D02*
X304416511Y-202459303D01*
X304459923Y-202534495D01*
X304475000Y-202620000D01*
X304475000Y-202756100D01*
X304507810Y-203026315D01*
X304572951Y-203290606D01*
X304669475Y-203545117D01*
X304795972Y-203786138D01*
X304950599Y-204010154D01*
X305131101Y-204213899D01*
X305334846Y-204394401D01*
X305558862Y-204549028D01*
X305799883Y-204675525D01*
X306054394Y-204772049D01*
X306318685Y-204837190D01*
X306588900Y-204870000D01*
X306725000Y-204870000D01*
X306810505Y-204885077D01*
X306885697Y-204928489D01*
X306941506Y-204995000D01*
X306971202Y-205076588D01*
X306971202Y-205163412D01*
X306941506Y-205245000D01*
X306885697Y-205311511D01*
X306810505Y-205354923D01*
X306725000Y-205370000D01*
X306417098Y-205352709D01*
X306113067Y-205301052D01*
X305816733Y-205215679D01*
X305531820Y-205097664D01*
X305261912Y-204948492D01*
X305010403Y-204770037D01*
X304780456Y-204564544D01*
X304574963Y-204334597D01*
X304396508Y-204083088D01*
X304247336Y-203813180D01*
X304129321Y-203528267D01*
X304043948Y-203231933D01*
X303992291Y-202927902D01*
X303975000Y-202620000D01*
X303990077Y-202534495D01*
X304033489Y-202459303D01*
X304100000Y-202403494D01*
X304181588Y-202373798D01*
X304268412Y-202373798D01*
X304350000Y-202403494D01*
G36*
X304350000Y-202403494D02*
G01*
X304416511Y-202459303D01*
X304459923Y-202534495D01*
X304475000Y-202620000D01*
X304475000Y-202756100D01*
X304507810Y-203026315D01*
X304572951Y-203290606D01*
X304669475Y-203545117D01*
X304795972Y-203786138D01*
X304950599Y-204010154D01*
X305131101Y-204213899D01*
X305334846Y-204394401D01*
X305558862Y-204549028D01*
X305799883Y-204675525D01*
X306054394Y-204772049D01*
X306318685Y-204837190D01*
X306588900Y-204870000D01*
X306725000Y-204870000D01*
X306810505Y-204885077D01*
X306885697Y-204928489D01*
X306941506Y-204995000D01*
X306971202Y-205076588D01*
X306971202Y-205163412D01*
X306941506Y-205245000D01*
X306885697Y-205311511D01*
X306810505Y-205354923D01*
X306725000Y-205370000D01*
X306417098Y-205352709D01*
X306113067Y-205301052D01*
X305816733Y-205215679D01*
X305531820Y-205097664D01*
X305261912Y-204948492D01*
X305010403Y-204770037D01*
X304780456Y-204564544D01*
X304574963Y-204334597D01*
X304396508Y-204083088D01*
X304247336Y-203813180D01*
X304129321Y-203528267D01*
X304043948Y-203231933D01*
X303992291Y-202927902D01*
X303975000Y-202620000D01*
X303990077Y-202534495D01*
X304033489Y-202459303D01*
X304100000Y-202403494D01*
X304181588Y-202373798D01*
X304268412Y-202373798D01*
X304350000Y-202403494D01*
G37*
X306310505Y-181385077D02*
X306385697Y-181428489D01*
X306441506Y-181495000D01*
X306471202Y-181576588D01*
X306471202Y-181663412D01*
X306441506Y-181745000D01*
X306385697Y-181811511D01*
X306310505Y-181854923D01*
X306225000Y-181870000D01*
X306088900Y-181870000D01*
X305818685Y-181902810D01*
X305554394Y-181967951D01*
X305299883Y-182064475D01*
X305058862Y-182190972D01*
X304834846Y-182345599D01*
X304631101Y-182526101D01*
X304450599Y-182729846D01*
X304295972Y-182953862D01*
X304169475Y-183194883D01*
X304072951Y-183449394D01*
X304007810Y-183713685D01*
X303975000Y-183983900D01*
X303975000Y-184120000D01*
X303959923Y-184205505D01*
X303916511Y-184280697D01*
X303850000Y-184336506D01*
X303768412Y-184366202D01*
X303681588Y-184366202D01*
X303600000Y-184336506D01*
X303533489Y-184280697D01*
X303490077Y-184205505D01*
X303475000Y-184120000D01*
X303492291Y-183812098D01*
X303543948Y-183508067D01*
X303629321Y-183211733D01*
X303747336Y-182926820D01*
X303896508Y-182656912D01*
X304074963Y-182405403D01*
X304280456Y-182175456D01*
X304510403Y-181969963D01*
X304761912Y-181791508D01*
X305031820Y-181642336D01*
X305316733Y-181524321D01*
X305613067Y-181438948D01*
X305917098Y-181387291D01*
X306225000Y-181370000D01*
X306310505Y-181385077D01*
G36*
X306310505Y-181385077D02*
G01*
X306385697Y-181428489D01*
X306441506Y-181495000D01*
X306471202Y-181576588D01*
X306471202Y-181663412D01*
X306441506Y-181745000D01*
X306385697Y-181811511D01*
X306310505Y-181854923D01*
X306225000Y-181870000D01*
X306088900Y-181870000D01*
X305818685Y-181902810D01*
X305554394Y-181967951D01*
X305299883Y-182064475D01*
X305058862Y-182190972D01*
X304834846Y-182345599D01*
X304631101Y-182526101D01*
X304450599Y-182729846D01*
X304295972Y-182953862D01*
X304169475Y-183194883D01*
X304072951Y-183449394D01*
X304007810Y-183713685D01*
X303975000Y-183983900D01*
X303975000Y-184120000D01*
X303959923Y-184205505D01*
X303916511Y-184280697D01*
X303850000Y-184336506D01*
X303768412Y-184366202D01*
X303681588Y-184366202D01*
X303600000Y-184336506D01*
X303533489Y-184280697D01*
X303490077Y-184205505D01*
X303475000Y-184120000D01*
X303492291Y-183812098D01*
X303543948Y-183508067D01*
X303629321Y-183211733D01*
X303747336Y-182926820D01*
X303896508Y-182656912D01*
X304074963Y-182405403D01*
X304280456Y-182175456D01*
X304510403Y-181969963D01*
X304761912Y-181791508D01*
X305031820Y-181642336D01*
X305316733Y-181524321D01*
X305613067Y-181438948D01*
X305917098Y-181387291D01*
X306225000Y-181370000D01*
X306310505Y-181385077D01*
G37*
X306810505Y-193135077D02*
X306885697Y-193178489D01*
X306941506Y-193245000D01*
X306971202Y-193326588D01*
X306971202Y-193413412D01*
X306941506Y-193495000D01*
X306885697Y-193561511D01*
X306810505Y-193604923D01*
X306725000Y-193620000D01*
X306588900Y-193620000D01*
X306318685Y-193652810D01*
X306054394Y-193717951D01*
X305799883Y-193814475D01*
X305558862Y-193940972D01*
X305334846Y-194095599D01*
X305131101Y-194276101D01*
X304950599Y-194479846D01*
X304795972Y-194703862D01*
X304669475Y-194944883D01*
X304572951Y-195199394D01*
X304507810Y-195463685D01*
X304475000Y-195733900D01*
X304475000Y-195870000D01*
X304459923Y-195955505D01*
X304416511Y-196030697D01*
X304350000Y-196086506D01*
X304268412Y-196116202D01*
X304181588Y-196116202D01*
X304100000Y-196086506D01*
X304033489Y-196030697D01*
X303990077Y-195955505D01*
X303975000Y-195870000D01*
X303992291Y-195562098D01*
X304043948Y-195258067D01*
X304129321Y-194961733D01*
X304247336Y-194676820D01*
X304396508Y-194406912D01*
X304574963Y-194155403D01*
X304780456Y-193925456D01*
X305010403Y-193719963D01*
X305261912Y-193541508D01*
X305531820Y-193392336D01*
X305816733Y-193274321D01*
X306113067Y-193188948D01*
X306417098Y-193137291D01*
X306725000Y-193120000D01*
X306810505Y-193135077D01*
G36*
X306810505Y-193135077D02*
G01*
X306885697Y-193178489D01*
X306941506Y-193245000D01*
X306971202Y-193326588D01*
X306971202Y-193413412D01*
X306941506Y-193495000D01*
X306885697Y-193561511D01*
X306810505Y-193604923D01*
X306725000Y-193620000D01*
X306588900Y-193620000D01*
X306318685Y-193652810D01*
X306054394Y-193717951D01*
X305799883Y-193814475D01*
X305558862Y-193940972D01*
X305334846Y-194095599D01*
X305131101Y-194276101D01*
X304950599Y-194479846D01*
X304795972Y-194703862D01*
X304669475Y-194944883D01*
X304572951Y-195199394D01*
X304507810Y-195463685D01*
X304475000Y-195733900D01*
X304475000Y-195870000D01*
X304459923Y-195955505D01*
X304416511Y-196030697D01*
X304350000Y-196086506D01*
X304268412Y-196116202D01*
X304181588Y-196116202D01*
X304100000Y-196086506D01*
X304033489Y-196030697D01*
X303990077Y-195955505D01*
X303975000Y-195870000D01*
X303992291Y-195562098D01*
X304043948Y-195258067D01*
X304129321Y-194961733D01*
X304247336Y-194676820D01*
X304396508Y-194406912D01*
X304574963Y-194155403D01*
X304780456Y-193925456D01*
X305010403Y-193719963D01*
X305261912Y-193541508D01*
X305531820Y-193392336D01*
X305816733Y-193274321D01*
X306113067Y-193188948D01*
X306417098Y-193137291D01*
X306725000Y-193120000D01*
X306810505Y-193135077D01*
G37*
X300600000Y-224398494D02*
X300666511Y-224454303D01*
X300709923Y-224529495D01*
X300725000Y-224615000D01*
X300725000Y-224799226D01*
X300761115Y-225165903D01*
X300832996Y-225527274D01*
X300939952Y-225879860D01*
X301080952Y-226220265D01*
X301254639Y-226545210D01*
X301459340Y-226851566D01*
X301693083Y-227136383D01*
X301953617Y-227396917D01*
X302238434Y-227630660D01*
X302544790Y-227835361D01*
X302869735Y-228009048D01*
X303210140Y-228150048D01*
X303562726Y-228257004D01*
X303924097Y-228328885D01*
X304290774Y-228365000D01*
X304475000Y-228365000D01*
X304560505Y-228380077D01*
X304635697Y-228423489D01*
X304691506Y-228490000D01*
X304721202Y-228571588D01*
X304721202Y-228658412D01*
X304691506Y-228740000D01*
X304635697Y-228806511D01*
X304560505Y-228849923D01*
X304475000Y-228865000D01*
X304082859Y-228846870D01*
X303694065Y-228792636D01*
X303311932Y-228702759D01*
X302939723Y-228578007D01*
X302580612Y-228419444D01*
X302237663Y-228228423D01*
X301913803Y-228006573D01*
X301611794Y-227755788D01*
X301334212Y-227478206D01*
X301083427Y-227176197D01*
X300861577Y-226852337D01*
X300670556Y-226509388D01*
X300511993Y-226150277D01*
X300387241Y-225778068D01*
X300297364Y-225395935D01*
X300243130Y-225007141D01*
X300225000Y-224615000D01*
X300240077Y-224529495D01*
X300283489Y-224454303D01*
X300350000Y-224398494D01*
X300431588Y-224368798D01*
X300518412Y-224368798D01*
X300600000Y-224398494D01*
G36*
X300600000Y-224398494D02*
G01*
X300666511Y-224454303D01*
X300709923Y-224529495D01*
X300725000Y-224615000D01*
X300725000Y-224799226D01*
X300761115Y-225165903D01*
X300832996Y-225527274D01*
X300939952Y-225879860D01*
X301080952Y-226220265D01*
X301254639Y-226545210D01*
X301459340Y-226851566D01*
X301693083Y-227136383D01*
X301953617Y-227396917D01*
X302238434Y-227630660D01*
X302544790Y-227835361D01*
X302869735Y-228009048D01*
X303210140Y-228150048D01*
X303562726Y-228257004D01*
X303924097Y-228328885D01*
X304290774Y-228365000D01*
X304475000Y-228365000D01*
X304560505Y-228380077D01*
X304635697Y-228423489D01*
X304691506Y-228490000D01*
X304721202Y-228571588D01*
X304721202Y-228658412D01*
X304691506Y-228740000D01*
X304635697Y-228806511D01*
X304560505Y-228849923D01*
X304475000Y-228865000D01*
X304082859Y-228846870D01*
X303694065Y-228792636D01*
X303311932Y-228702759D01*
X302939723Y-228578007D01*
X302580612Y-228419444D01*
X302237663Y-228228423D01*
X301913803Y-228006573D01*
X301611794Y-227755788D01*
X301334212Y-227478206D01*
X301083427Y-227176197D01*
X300861577Y-226852337D01*
X300670556Y-226509388D01*
X300511993Y-226150277D01*
X300387241Y-225778068D01*
X300297364Y-225395935D01*
X300243130Y-225007141D01*
X300225000Y-224615000D01*
X300240077Y-224529495D01*
X300283489Y-224454303D01*
X300350000Y-224398494D01*
X300431588Y-224368798D01*
X300518412Y-224368798D01*
X300600000Y-224398494D01*
G37*
X304560505Y-169640077D02*
X304635697Y-169683489D01*
X304691506Y-169750000D01*
X304721202Y-169831588D01*
X304721202Y-169918412D01*
X304691506Y-170000000D01*
X304635697Y-170066511D01*
X304560505Y-170109923D01*
X304475000Y-170125000D01*
X304290774Y-170125000D01*
X303924097Y-170161115D01*
X303562726Y-170232996D01*
X303210140Y-170339952D01*
X302869735Y-170480952D01*
X302544790Y-170654639D01*
X302238434Y-170859340D01*
X301953617Y-171093083D01*
X301693083Y-171353617D01*
X301459340Y-171638434D01*
X301254639Y-171944790D01*
X301080952Y-172269735D01*
X300939952Y-172610140D01*
X300832996Y-172962726D01*
X300761115Y-173324097D01*
X300725000Y-173690774D01*
X300725000Y-173875000D01*
X300709923Y-173960505D01*
X300666511Y-174035697D01*
X300600000Y-174091506D01*
X300518412Y-174121202D01*
X300431588Y-174121202D01*
X300350000Y-174091506D01*
X300283489Y-174035697D01*
X300240077Y-173960505D01*
X300225000Y-173875000D01*
X300243130Y-173482859D01*
X300297364Y-173094065D01*
X300387241Y-172711932D01*
X300511993Y-172339723D01*
X300670556Y-171980612D01*
X300861577Y-171637663D01*
X301083427Y-171313803D01*
X301334212Y-171011794D01*
X301611794Y-170734212D01*
X301913803Y-170483427D01*
X302237663Y-170261577D01*
X302580612Y-170070556D01*
X302939723Y-169911993D01*
X303311932Y-169787241D01*
X303694065Y-169697364D01*
X304082859Y-169643130D01*
X304475000Y-169625000D01*
X304560505Y-169640077D01*
G36*
X304560505Y-169640077D02*
G01*
X304635697Y-169683489D01*
X304691506Y-169750000D01*
X304721202Y-169831588D01*
X304721202Y-169918412D01*
X304691506Y-170000000D01*
X304635697Y-170066511D01*
X304560505Y-170109923D01*
X304475000Y-170125000D01*
X304290774Y-170125000D01*
X303924097Y-170161115D01*
X303562726Y-170232996D01*
X303210140Y-170339952D01*
X302869735Y-170480952D01*
X302544790Y-170654639D01*
X302238434Y-170859340D01*
X301953617Y-171093083D01*
X301693083Y-171353617D01*
X301459340Y-171638434D01*
X301254639Y-171944790D01*
X301080952Y-172269735D01*
X300939952Y-172610140D01*
X300832996Y-172962726D01*
X300761115Y-173324097D01*
X300725000Y-173690774D01*
X300725000Y-173875000D01*
X300709923Y-173960505D01*
X300666511Y-174035697D01*
X300600000Y-174091506D01*
X300518412Y-174121202D01*
X300431588Y-174121202D01*
X300350000Y-174091506D01*
X300283489Y-174035697D01*
X300240077Y-173960505D01*
X300225000Y-173875000D01*
X300243130Y-173482859D01*
X300297364Y-173094065D01*
X300387241Y-172711932D01*
X300511993Y-172339723D01*
X300670556Y-171980612D01*
X300861577Y-171637663D01*
X301083427Y-171313803D01*
X301334212Y-171011794D01*
X301611794Y-170734212D01*
X301913803Y-170483427D01*
X302237663Y-170261577D01*
X302580612Y-170070556D01*
X302939723Y-169911993D01*
X303311932Y-169787241D01*
X303694065Y-169697364D01*
X304082859Y-169643130D01*
X304475000Y-169625000D01*
X304560505Y-169640077D01*
G37*
X291908542Y-207827931D02*
X292339122Y-207881603D01*
X292763799Y-207970649D01*
X293179672Y-208094459D01*
X293583901Y-208252190D01*
X293973724Y-208442763D01*
X294346478Y-208664876D01*
X294699617Y-208917012D01*
X295030728Y-209197449D01*
X295337551Y-209504272D01*
X295617988Y-209835383D01*
X295870124Y-210188522D01*
X296092237Y-210561276D01*
X296282810Y-210951099D01*
X296440541Y-211355328D01*
X296564351Y-211771201D01*
X296653397Y-212195878D01*
X296707069Y-212626458D01*
X296725000Y-213060000D01*
X296709923Y-213145505D01*
X296666511Y-213220697D01*
X296600000Y-213276506D01*
X296518412Y-213306202D01*
X296431588Y-213306202D01*
X296350000Y-213276506D01*
X296283489Y-213220697D01*
X296240077Y-213145505D01*
X296225000Y-213060000D01*
X296225000Y-212852611D01*
X296188849Y-212439410D01*
X296116824Y-212030932D01*
X296009471Y-211630287D01*
X295867608Y-211240522D01*
X295692315Y-210864605D01*
X295484926Y-210505396D01*
X295247018Y-210165629D01*
X294980404Y-209847889D01*
X294687111Y-209554596D01*
X294369371Y-209287982D01*
X294029604Y-209050074D01*
X293670395Y-208842685D01*
X293294478Y-208667392D01*
X292904713Y-208525529D01*
X292504068Y-208418176D01*
X292095590Y-208346151D01*
X291682389Y-208310000D01*
X291475000Y-208310000D01*
X291389495Y-208294923D01*
X291314303Y-208251511D01*
X291258494Y-208185000D01*
X291228798Y-208103412D01*
X291228798Y-208016588D01*
X291258494Y-207935000D01*
X291314303Y-207868489D01*
X291389495Y-207825077D01*
X291475000Y-207810000D01*
X291908542Y-207827931D01*
G36*
X291908542Y-207827931D02*
G01*
X292339122Y-207881603D01*
X292763799Y-207970649D01*
X293179672Y-208094459D01*
X293583901Y-208252190D01*
X293973724Y-208442763D01*
X294346478Y-208664876D01*
X294699617Y-208917012D01*
X295030728Y-209197449D01*
X295337551Y-209504272D01*
X295617988Y-209835383D01*
X295870124Y-210188522D01*
X296092237Y-210561276D01*
X296282810Y-210951099D01*
X296440541Y-211355328D01*
X296564351Y-211771201D01*
X296653397Y-212195878D01*
X296707069Y-212626458D01*
X296725000Y-213060000D01*
X296709923Y-213145505D01*
X296666511Y-213220697D01*
X296600000Y-213276506D01*
X296518412Y-213306202D01*
X296431588Y-213306202D01*
X296350000Y-213276506D01*
X296283489Y-213220697D01*
X296240077Y-213145505D01*
X296225000Y-213060000D01*
X296225000Y-212852611D01*
X296188849Y-212439410D01*
X296116824Y-212030932D01*
X296009471Y-211630287D01*
X295867608Y-211240522D01*
X295692315Y-210864605D01*
X295484926Y-210505396D01*
X295247018Y-210165629D01*
X294980404Y-209847889D01*
X294687111Y-209554596D01*
X294369371Y-209287982D01*
X294029604Y-209050074D01*
X293670395Y-208842685D01*
X293294478Y-208667392D01*
X292904713Y-208525529D01*
X292504068Y-208418176D01*
X292095590Y-208346151D01*
X291682389Y-208310000D01*
X291475000Y-208310000D01*
X291389495Y-208294923D01*
X291314303Y-208251511D01*
X291258494Y-208185000D01*
X291228798Y-208103412D01*
X291228798Y-208016588D01*
X291258494Y-207935000D01*
X291314303Y-207868489D01*
X291389495Y-207825077D01*
X291475000Y-207810000D01*
X291908542Y-207827931D01*
G37*
X296600000Y-185213494D02*
X296666511Y-185269303D01*
X296709923Y-185344495D01*
X296725000Y-185430000D01*
X296707069Y-185863542D01*
X296653397Y-186294122D01*
X296564351Y-186718799D01*
X296440541Y-187134672D01*
X296282810Y-187538901D01*
X296092237Y-187928724D01*
X295870124Y-188301478D01*
X295617988Y-188654617D01*
X295337551Y-188985728D01*
X295030728Y-189292551D01*
X294699617Y-189572988D01*
X294346478Y-189825124D01*
X293973724Y-190047237D01*
X293583901Y-190237810D01*
X293179672Y-190395541D01*
X292763799Y-190519351D01*
X292339122Y-190608397D01*
X291908542Y-190662069D01*
X291475000Y-190680000D01*
X291389495Y-190664923D01*
X291314303Y-190621511D01*
X291258494Y-190555000D01*
X291228798Y-190473412D01*
X291228798Y-190386588D01*
X291258494Y-190305000D01*
X291314303Y-190238489D01*
X291389495Y-190195077D01*
X291475000Y-190180000D01*
X291682389Y-190180000D01*
X292095590Y-190143849D01*
X292504068Y-190071824D01*
X292904713Y-189964471D01*
X293294478Y-189822608D01*
X293670395Y-189647315D01*
X294029604Y-189439926D01*
X294369371Y-189202018D01*
X294687111Y-188935404D01*
X294980404Y-188642111D01*
X295247018Y-188324371D01*
X295484926Y-187984604D01*
X295692315Y-187625395D01*
X295867608Y-187249478D01*
X296009471Y-186859713D01*
X296116824Y-186459068D01*
X296188849Y-186050590D01*
X296225000Y-185637389D01*
X296225000Y-185430000D01*
X296240077Y-185344495D01*
X296283489Y-185269303D01*
X296350000Y-185213494D01*
X296431588Y-185183798D01*
X296518412Y-185183798D01*
X296600000Y-185213494D01*
G36*
X296600000Y-185213494D02*
G01*
X296666511Y-185269303D01*
X296709923Y-185344495D01*
X296725000Y-185430000D01*
X296707069Y-185863542D01*
X296653397Y-186294122D01*
X296564351Y-186718799D01*
X296440541Y-187134672D01*
X296282810Y-187538901D01*
X296092237Y-187928724D01*
X295870124Y-188301478D01*
X295617988Y-188654617D01*
X295337551Y-188985728D01*
X295030728Y-189292551D01*
X294699617Y-189572988D01*
X294346478Y-189825124D01*
X293973724Y-190047237D01*
X293583901Y-190237810D01*
X293179672Y-190395541D01*
X292763799Y-190519351D01*
X292339122Y-190608397D01*
X291908542Y-190662069D01*
X291475000Y-190680000D01*
X291389495Y-190664923D01*
X291314303Y-190621511D01*
X291258494Y-190555000D01*
X291228798Y-190473412D01*
X291228798Y-190386588D01*
X291258494Y-190305000D01*
X291314303Y-190238489D01*
X291389495Y-190195077D01*
X291475000Y-190180000D01*
X291682389Y-190180000D01*
X292095590Y-190143849D01*
X292504068Y-190071824D01*
X292904713Y-189964471D01*
X293294478Y-189822608D01*
X293670395Y-189647315D01*
X294029604Y-189439926D01*
X294369371Y-189202018D01*
X294687111Y-188935404D01*
X294980404Y-188642111D01*
X295247018Y-188324371D01*
X295484926Y-187984604D01*
X295692315Y-187625395D01*
X295867608Y-187249478D01*
X296009471Y-186859713D01*
X296116824Y-186459068D01*
X296188849Y-186050590D01*
X296225000Y-185637389D01*
X296225000Y-185430000D01*
X296240077Y-185344495D01*
X296283489Y-185269303D01*
X296350000Y-185213494D01*
X296431588Y-185183798D01*
X296518412Y-185183798D01*
X296600000Y-185213494D01*
G37*
X296600000Y-235403494D02*
X296666511Y-235459303D01*
X296709923Y-235534495D01*
X296725000Y-235620000D01*
X296725000Y-235816474D01*
X296759248Y-236207927D01*
X296827483Y-236594906D01*
X296929185Y-236974465D01*
X297063581Y-237343716D01*
X297229649Y-237699848D01*
X297426123Y-238040152D01*
X297651509Y-238362036D01*
X297904091Y-238663052D01*
X298181948Y-238940909D01*
X298482964Y-239193491D01*
X298804848Y-239418877D01*
X299145152Y-239615351D01*
X299501284Y-239781419D01*
X299870535Y-239915815D01*
X300250094Y-240017517D01*
X300637073Y-240085752D01*
X301028526Y-240120000D01*
X301225000Y-240120000D01*
X301310505Y-240135077D01*
X301385697Y-240178489D01*
X301441506Y-240245000D01*
X301471202Y-240326588D01*
X301471202Y-240413412D01*
X301441506Y-240495000D01*
X301385697Y-240561511D01*
X301310505Y-240604923D01*
X301225000Y-240620000D01*
X300812103Y-240602922D01*
X300402027Y-240551807D01*
X299997573Y-240467001D01*
X299601503Y-240349086D01*
X299216523Y-240198867D01*
X298845263Y-240017369D01*
X298490259Y-239805832D01*
X298153936Y-239565703D01*
X297838592Y-239298620D01*
X297546380Y-239006408D01*
X297279297Y-238691064D01*
X297039168Y-238354741D01*
X296827631Y-237999737D01*
X296646133Y-237628477D01*
X296495914Y-237243497D01*
X296377999Y-236847427D01*
X296293193Y-236442973D01*
X296242078Y-236032897D01*
X296225000Y-235620000D01*
X296240077Y-235534495D01*
X296283489Y-235459303D01*
X296350000Y-235403494D01*
X296431588Y-235373798D01*
X296518412Y-235373798D01*
X296600000Y-235403494D01*
G36*
X296600000Y-235403494D02*
G01*
X296666511Y-235459303D01*
X296709923Y-235534495D01*
X296725000Y-235620000D01*
X296725000Y-235816474D01*
X296759248Y-236207927D01*
X296827483Y-236594906D01*
X296929185Y-236974465D01*
X297063581Y-237343716D01*
X297229649Y-237699848D01*
X297426123Y-238040152D01*
X297651509Y-238362036D01*
X297904091Y-238663052D01*
X298181948Y-238940909D01*
X298482964Y-239193491D01*
X298804848Y-239418877D01*
X299145152Y-239615351D01*
X299501284Y-239781419D01*
X299870535Y-239915815D01*
X300250094Y-240017517D01*
X300637073Y-240085752D01*
X301028526Y-240120000D01*
X301225000Y-240120000D01*
X301310505Y-240135077D01*
X301385697Y-240178489D01*
X301441506Y-240245000D01*
X301471202Y-240326588D01*
X301471202Y-240413412D01*
X301441506Y-240495000D01*
X301385697Y-240561511D01*
X301310505Y-240604923D01*
X301225000Y-240620000D01*
X300812103Y-240602922D01*
X300402027Y-240551807D01*
X299997573Y-240467001D01*
X299601503Y-240349086D01*
X299216523Y-240198867D01*
X298845263Y-240017369D01*
X298490259Y-239805832D01*
X298153936Y-239565703D01*
X297838592Y-239298620D01*
X297546380Y-239006408D01*
X297279297Y-238691064D01*
X297039168Y-238354741D01*
X296827631Y-237999737D01*
X296646133Y-237628477D01*
X296495914Y-237243497D01*
X296377999Y-236847427D01*
X296293193Y-236442973D01*
X296242078Y-236032897D01*
X296225000Y-235620000D01*
X296240077Y-235534495D01*
X296283489Y-235459303D01*
X296350000Y-235403494D01*
X296431588Y-235373798D01*
X296518412Y-235373798D01*
X296600000Y-235403494D01*
G37*
X301310505Y-157885077D02*
X301385697Y-157928489D01*
X301441506Y-157995000D01*
X301471202Y-158076588D01*
X301471202Y-158163412D01*
X301441506Y-158245000D01*
X301385697Y-158311511D01*
X301310505Y-158354923D01*
X301225000Y-158370000D01*
X301028526Y-158370000D01*
X300637073Y-158404248D01*
X300250094Y-158472483D01*
X299870535Y-158574185D01*
X299501284Y-158708581D01*
X299145152Y-158874649D01*
X298804848Y-159071123D01*
X298482964Y-159296509D01*
X298181948Y-159549091D01*
X297904091Y-159826948D01*
X297651509Y-160127964D01*
X297426123Y-160449848D01*
X297229649Y-160790152D01*
X297063581Y-161146284D01*
X296929185Y-161515535D01*
X296827483Y-161895094D01*
X296759248Y-162282073D01*
X296725000Y-162673526D01*
X296725000Y-162870000D01*
X296709923Y-162955505D01*
X296666511Y-163030697D01*
X296600000Y-163086506D01*
X296518412Y-163116202D01*
X296431588Y-163116202D01*
X296350000Y-163086506D01*
X296283489Y-163030697D01*
X296240077Y-162955505D01*
X296225000Y-162870000D01*
X296242078Y-162457103D01*
X296293193Y-162047027D01*
X296377999Y-161642573D01*
X296495914Y-161246503D01*
X296646133Y-160861523D01*
X296827631Y-160490263D01*
X297039168Y-160135259D01*
X297279297Y-159798936D01*
X297546380Y-159483592D01*
X297838592Y-159191380D01*
X298153936Y-158924297D01*
X298490259Y-158684168D01*
X298845263Y-158472631D01*
X299216523Y-158291133D01*
X299601503Y-158140914D01*
X299997573Y-158022999D01*
X300402027Y-157938193D01*
X300812103Y-157887078D01*
X301225000Y-157870000D01*
X301310505Y-157885077D01*
G36*
X301310505Y-157885077D02*
G01*
X301385697Y-157928489D01*
X301441506Y-157995000D01*
X301471202Y-158076588D01*
X301471202Y-158163412D01*
X301441506Y-158245000D01*
X301385697Y-158311511D01*
X301310505Y-158354923D01*
X301225000Y-158370000D01*
X301028526Y-158370000D01*
X300637073Y-158404248D01*
X300250094Y-158472483D01*
X299870535Y-158574185D01*
X299501284Y-158708581D01*
X299145152Y-158874649D01*
X298804848Y-159071123D01*
X298482964Y-159296509D01*
X298181948Y-159549091D01*
X297904091Y-159826948D01*
X297651509Y-160127964D01*
X297426123Y-160449848D01*
X297229649Y-160790152D01*
X297063581Y-161146284D01*
X296929185Y-161515535D01*
X296827483Y-161895094D01*
X296759248Y-162282073D01*
X296725000Y-162673526D01*
X296725000Y-162870000D01*
X296709923Y-162955505D01*
X296666511Y-163030697D01*
X296600000Y-163086506D01*
X296518412Y-163116202D01*
X296431588Y-163116202D01*
X296350000Y-163086506D01*
X296283489Y-163030697D01*
X296240077Y-162955505D01*
X296225000Y-162870000D01*
X296242078Y-162457103D01*
X296293193Y-162047027D01*
X296377999Y-161642573D01*
X296495914Y-161246503D01*
X296646133Y-160861523D01*
X296827631Y-160490263D01*
X297039168Y-160135259D01*
X297279297Y-159798936D01*
X297546380Y-159483592D01*
X297838592Y-159191380D01*
X298153936Y-158924297D01*
X298490259Y-158684168D01*
X298845263Y-158472631D01*
X299216523Y-158291133D01*
X299601503Y-158140914D01*
X299997573Y-158022999D01*
X300402027Y-157938193D01*
X300812103Y-157887078D01*
X301225000Y-157870000D01*
X301310505Y-157885077D01*
G37*
X293736818Y-205317484D02*
X294246250Y-205369855D01*
X294750920Y-205456869D01*
X295248476Y-205578120D01*
X295736597Y-205733043D01*
X296213008Y-205920915D01*
X296675488Y-206140861D01*
X297121880Y-206391854D01*
X297550102Y-206672726D01*
X297958160Y-206982165D01*
X298344149Y-207318730D01*
X298706270Y-207680851D01*
X299042835Y-208066840D01*
X299352274Y-208474898D01*
X299633146Y-208903120D01*
X299884139Y-209349512D01*
X300104085Y-209811992D01*
X300291957Y-210288403D01*
X300446880Y-210776524D01*
X300568131Y-211274080D01*
X300655145Y-211778750D01*
X300707516Y-212288182D01*
X300725000Y-212800000D01*
X300709923Y-212885505D01*
X300666511Y-212960697D01*
X300600000Y-213016506D01*
X300518412Y-213046202D01*
X300431588Y-213046202D01*
X300350000Y-213016506D01*
X300283489Y-212960697D01*
X300240077Y-212885505D01*
X300225000Y-212800000D01*
X300225000Y-212549994D01*
X300189330Y-212051257D01*
X300118171Y-211556335D01*
X300011885Y-211067751D01*
X299871016Y-210587993D01*
X299696280Y-210119508D01*
X299488568Y-209664682D01*
X299248938Y-209225832D01*
X298978611Y-208805196D01*
X298678966Y-208404917D01*
X298351528Y-208027033D01*
X297997967Y-207673472D01*
X297620083Y-207346034D01*
X297219804Y-207046389D01*
X296799168Y-206776062D01*
X296360318Y-206536432D01*
X295905492Y-206328720D01*
X295437007Y-206153984D01*
X294957249Y-206013115D01*
X294468665Y-205906829D01*
X293973743Y-205835670D01*
X293475006Y-205800000D01*
X293225000Y-205800000D01*
X293139495Y-205784923D01*
X293064303Y-205741511D01*
X293008494Y-205675000D01*
X292978798Y-205593412D01*
X292978798Y-205506588D01*
X293008494Y-205425000D01*
X293064303Y-205358489D01*
X293139495Y-205315077D01*
X293225000Y-205300000D01*
X293736818Y-205317484D01*
G36*
X293736818Y-205317484D02*
G01*
X294246250Y-205369855D01*
X294750920Y-205456869D01*
X295248476Y-205578120D01*
X295736597Y-205733043D01*
X296213008Y-205920915D01*
X296675488Y-206140861D01*
X297121880Y-206391854D01*
X297550102Y-206672726D01*
X297958160Y-206982165D01*
X298344149Y-207318730D01*
X298706270Y-207680851D01*
X299042835Y-208066840D01*
X299352274Y-208474898D01*
X299633146Y-208903120D01*
X299884139Y-209349512D01*
X300104085Y-209811992D01*
X300291957Y-210288403D01*
X300446880Y-210776524D01*
X300568131Y-211274080D01*
X300655145Y-211778750D01*
X300707516Y-212288182D01*
X300725000Y-212800000D01*
X300709923Y-212885505D01*
X300666511Y-212960697D01*
X300600000Y-213016506D01*
X300518412Y-213046202D01*
X300431588Y-213046202D01*
X300350000Y-213016506D01*
X300283489Y-212960697D01*
X300240077Y-212885505D01*
X300225000Y-212800000D01*
X300225000Y-212549994D01*
X300189330Y-212051257D01*
X300118171Y-211556335D01*
X300011885Y-211067751D01*
X299871016Y-210587993D01*
X299696280Y-210119508D01*
X299488568Y-209664682D01*
X299248938Y-209225832D01*
X298978611Y-208805196D01*
X298678966Y-208404917D01*
X298351528Y-208027033D01*
X297997967Y-207673472D01*
X297620083Y-207346034D01*
X297219804Y-207046389D01*
X296799168Y-206776062D01*
X296360318Y-206536432D01*
X295905492Y-206328720D01*
X295437007Y-206153984D01*
X294957249Y-206013115D01*
X294468665Y-205906829D01*
X293973743Y-205835670D01*
X293475006Y-205800000D01*
X293225000Y-205800000D01*
X293139495Y-205784923D01*
X293064303Y-205741511D01*
X293008494Y-205675000D01*
X292978798Y-205593412D01*
X292978798Y-205506588D01*
X293008494Y-205425000D01*
X293064303Y-205358489D01*
X293139495Y-205315077D01*
X293225000Y-205300000D01*
X293736818Y-205317484D01*
G37*
X296753879Y-202808067D02*
X297280292Y-202862184D01*
X297801784Y-202952098D01*
X298315925Y-203077391D01*
X298820317Y-203237478D01*
X299312608Y-203431612D01*
X299790504Y-203658890D01*
X300251776Y-203918250D01*
X300694272Y-204208483D01*
X301115932Y-204528237D01*
X301514787Y-204876021D01*
X301888979Y-205250213D01*
X302236763Y-205649068D01*
X302556517Y-206070728D01*
X302846750Y-206513224D01*
X303106110Y-206974496D01*
X303333388Y-207452392D01*
X303527522Y-207944683D01*
X303687609Y-208449075D01*
X303812902Y-208963216D01*
X303902816Y-209484708D01*
X303956933Y-210011121D01*
X303975000Y-210540000D01*
X303959923Y-210625505D01*
X303916511Y-210700697D01*
X303850000Y-210756506D01*
X303768412Y-210786202D01*
X303681588Y-210786202D01*
X303600000Y-210756506D01*
X303533489Y-210700697D01*
X303490077Y-210625505D01*
X303475000Y-210540000D01*
X303475000Y-210281066D01*
X303438055Y-209764516D01*
X303364355Y-209251919D01*
X303254274Y-208745885D01*
X303108373Y-208248993D01*
X302927397Y-207763776D01*
X302712266Y-207292706D01*
X302464078Y-206838184D01*
X302184097Y-206402525D01*
X301873750Y-205987950D01*
X301534618Y-205596570D01*
X301168430Y-205230382D01*
X300777050Y-204891250D01*
X300362475Y-204580903D01*
X299926816Y-204300922D01*
X299472294Y-204052734D01*
X299001224Y-203837603D01*
X298516007Y-203656627D01*
X298019115Y-203510726D01*
X297513081Y-203400645D01*
X297000484Y-203326945D01*
X296483934Y-203290000D01*
X296225000Y-203290000D01*
X296139495Y-203274923D01*
X296064303Y-203231511D01*
X296008494Y-203165000D01*
X295978798Y-203083412D01*
X295978798Y-202996588D01*
X296008494Y-202915000D01*
X296064303Y-202848489D01*
X296139495Y-202805077D01*
X296225000Y-202790000D01*
X296753879Y-202808067D01*
G36*
X296753879Y-202808067D02*
G01*
X297280292Y-202862184D01*
X297801784Y-202952098D01*
X298315925Y-203077391D01*
X298820317Y-203237478D01*
X299312608Y-203431612D01*
X299790504Y-203658890D01*
X300251776Y-203918250D01*
X300694272Y-204208483D01*
X301115932Y-204528237D01*
X301514787Y-204876021D01*
X301888979Y-205250213D01*
X302236763Y-205649068D01*
X302556517Y-206070728D01*
X302846750Y-206513224D01*
X303106110Y-206974496D01*
X303333388Y-207452392D01*
X303527522Y-207944683D01*
X303687609Y-208449075D01*
X303812902Y-208963216D01*
X303902816Y-209484708D01*
X303956933Y-210011121D01*
X303975000Y-210540000D01*
X303959923Y-210625505D01*
X303916511Y-210700697D01*
X303850000Y-210756506D01*
X303768412Y-210786202D01*
X303681588Y-210786202D01*
X303600000Y-210756506D01*
X303533489Y-210700697D01*
X303490077Y-210625505D01*
X303475000Y-210540000D01*
X303475000Y-210281066D01*
X303438055Y-209764516D01*
X303364355Y-209251919D01*
X303254274Y-208745885D01*
X303108373Y-208248993D01*
X302927397Y-207763776D01*
X302712266Y-207292706D01*
X302464078Y-206838184D01*
X302184097Y-206402525D01*
X301873750Y-205987950D01*
X301534618Y-205596570D01*
X301168430Y-205230382D01*
X300777050Y-204891250D01*
X300362475Y-204580903D01*
X299926816Y-204300922D01*
X299472294Y-204052734D01*
X299001224Y-203837603D01*
X298516007Y-203656627D01*
X298019115Y-203510726D01*
X297513081Y-203400645D01*
X297000484Y-203326945D01*
X296483934Y-203290000D01*
X296225000Y-203290000D01*
X296139495Y-203274923D01*
X296064303Y-203231511D01*
X296008494Y-203165000D01*
X295978798Y-203083412D01*
X295978798Y-202996588D01*
X296008494Y-202915000D01*
X296064303Y-202848489D01*
X296139495Y-202805077D01*
X296225000Y-202790000D01*
X296753879Y-202808067D01*
G37*
X300600000Y-185473494D02*
X300666511Y-185529303D01*
X300709923Y-185604495D01*
X300725000Y-185690000D01*
X300707516Y-186201818D01*
X300655145Y-186711250D01*
X300568131Y-187215920D01*
X300446880Y-187713476D01*
X300291957Y-188201597D01*
X300104085Y-188678008D01*
X299884139Y-189140488D01*
X299633146Y-189586880D01*
X299352274Y-190015102D01*
X299042835Y-190423160D01*
X298706270Y-190809149D01*
X298344149Y-191171270D01*
X297958160Y-191507835D01*
X297550102Y-191817274D01*
X297121880Y-192098146D01*
X296675488Y-192349139D01*
X296213008Y-192569085D01*
X295736597Y-192756957D01*
X295248476Y-192911880D01*
X294750920Y-193033131D01*
X294246250Y-193120145D01*
X293736818Y-193172516D01*
X293225000Y-193190000D01*
X293139495Y-193174923D01*
X293064303Y-193131511D01*
X293008494Y-193065000D01*
X292978798Y-192983412D01*
X292978798Y-192896588D01*
X293008494Y-192815000D01*
X293064303Y-192748489D01*
X293139495Y-192705077D01*
X293225000Y-192690000D01*
X293475006Y-192690000D01*
X293973743Y-192654330D01*
X294468665Y-192583171D01*
X294957249Y-192476885D01*
X295437007Y-192336016D01*
X295905492Y-192161280D01*
X296360318Y-191953568D01*
X296799168Y-191713938D01*
X297219804Y-191443611D01*
X297620083Y-191143966D01*
X297997967Y-190816528D01*
X298351528Y-190462967D01*
X298678966Y-190085083D01*
X298978611Y-189684804D01*
X299248938Y-189264168D01*
X299488568Y-188825318D01*
X299696280Y-188370492D01*
X299871016Y-187902007D01*
X300011885Y-187422249D01*
X300118171Y-186933665D01*
X300189330Y-186438743D01*
X300225000Y-185940006D01*
X300225000Y-185690000D01*
X300240077Y-185604495D01*
X300283489Y-185529303D01*
X300350000Y-185473494D01*
X300431588Y-185443798D01*
X300518412Y-185443798D01*
X300600000Y-185473494D01*
G36*
X300600000Y-185473494D02*
G01*
X300666511Y-185529303D01*
X300709923Y-185604495D01*
X300725000Y-185690000D01*
X300707516Y-186201818D01*
X300655145Y-186711250D01*
X300568131Y-187215920D01*
X300446880Y-187713476D01*
X300291957Y-188201597D01*
X300104085Y-188678008D01*
X299884139Y-189140488D01*
X299633146Y-189586880D01*
X299352274Y-190015102D01*
X299042835Y-190423160D01*
X298706270Y-190809149D01*
X298344149Y-191171270D01*
X297958160Y-191507835D01*
X297550102Y-191817274D01*
X297121880Y-192098146D01*
X296675488Y-192349139D01*
X296213008Y-192569085D01*
X295736597Y-192756957D01*
X295248476Y-192911880D01*
X294750920Y-193033131D01*
X294246250Y-193120145D01*
X293736818Y-193172516D01*
X293225000Y-193190000D01*
X293139495Y-193174923D01*
X293064303Y-193131511D01*
X293008494Y-193065000D01*
X292978798Y-192983412D01*
X292978798Y-192896588D01*
X293008494Y-192815000D01*
X293064303Y-192748489D01*
X293139495Y-192705077D01*
X293225000Y-192690000D01*
X293475006Y-192690000D01*
X293973743Y-192654330D01*
X294468665Y-192583171D01*
X294957249Y-192476885D01*
X295437007Y-192336016D01*
X295905492Y-192161280D01*
X296360318Y-191953568D01*
X296799168Y-191713938D01*
X297219804Y-191443611D01*
X297620083Y-191143966D01*
X297997967Y-190816528D01*
X298351528Y-190462967D01*
X298678966Y-190085083D01*
X298978611Y-189684804D01*
X299248938Y-189264168D01*
X299488568Y-188825318D01*
X299696280Y-188370492D01*
X299871016Y-187902007D01*
X300011885Y-187422249D01*
X300118171Y-186933665D01*
X300189330Y-186438743D01*
X300225000Y-185940006D01*
X300225000Y-185690000D01*
X300240077Y-185604495D01*
X300283489Y-185529303D01*
X300350000Y-185473494D01*
X300431588Y-185443798D01*
X300518412Y-185443798D01*
X300600000Y-185473494D01*
G37*
X303850000Y-187733494D02*
X303916511Y-187789303D01*
X303959923Y-187864495D01*
X303975000Y-187950000D01*
X303956933Y-188478879D01*
X303902816Y-189005292D01*
X303812902Y-189526784D01*
X303687609Y-190040925D01*
X303527522Y-190545317D01*
X303333388Y-191037608D01*
X303106110Y-191515504D01*
X302846750Y-191976776D01*
X302556517Y-192419272D01*
X302236763Y-192840932D01*
X301888979Y-193239787D01*
X301514787Y-193613979D01*
X301115932Y-193961763D01*
X300694272Y-194281517D01*
X300251776Y-194571750D01*
X299790504Y-194831110D01*
X299312608Y-195058388D01*
X298820317Y-195252522D01*
X298315925Y-195412609D01*
X297801784Y-195537902D01*
X297280292Y-195627816D01*
X296753879Y-195681933D01*
X296225000Y-195700000D01*
X296139495Y-195684923D01*
X296064303Y-195641511D01*
X296008494Y-195575000D01*
X295978798Y-195493412D01*
X295978798Y-195406588D01*
X296008494Y-195325000D01*
X296064303Y-195258489D01*
X296139495Y-195215077D01*
X296225000Y-195200000D01*
X296483934Y-195200000D01*
X297000484Y-195163055D01*
X297513081Y-195089355D01*
X298019115Y-194979274D01*
X298516007Y-194833373D01*
X299001224Y-194652397D01*
X299472294Y-194437266D01*
X299926816Y-194189078D01*
X300362475Y-193909097D01*
X300777050Y-193598750D01*
X301168430Y-193259618D01*
X301534618Y-192893430D01*
X301873750Y-192502050D01*
X302184097Y-192087475D01*
X302464078Y-191651816D01*
X302712266Y-191197294D01*
X302927397Y-190726224D01*
X303108373Y-190241007D01*
X303254274Y-189744115D01*
X303364355Y-189238081D01*
X303438055Y-188725484D01*
X303475000Y-188208934D01*
X303475000Y-187950000D01*
X303490077Y-187864495D01*
X303533489Y-187789303D01*
X303600000Y-187733494D01*
X303681588Y-187703798D01*
X303768412Y-187703798D01*
X303850000Y-187733494D01*
G36*
X303850000Y-187733494D02*
G01*
X303916511Y-187789303D01*
X303959923Y-187864495D01*
X303975000Y-187950000D01*
X303956933Y-188478879D01*
X303902816Y-189005292D01*
X303812902Y-189526784D01*
X303687609Y-190040925D01*
X303527522Y-190545317D01*
X303333388Y-191037608D01*
X303106110Y-191515504D01*
X302846750Y-191976776D01*
X302556517Y-192419272D01*
X302236763Y-192840932D01*
X301888979Y-193239787D01*
X301514787Y-193613979D01*
X301115932Y-193961763D01*
X300694272Y-194281517D01*
X300251776Y-194571750D01*
X299790504Y-194831110D01*
X299312608Y-195058388D01*
X298820317Y-195252522D01*
X298315925Y-195412609D01*
X297801784Y-195537902D01*
X297280292Y-195627816D01*
X296753879Y-195681933D01*
X296225000Y-195700000D01*
X296139495Y-195684923D01*
X296064303Y-195641511D01*
X296008494Y-195575000D01*
X295978798Y-195493412D01*
X295978798Y-195406588D01*
X296008494Y-195325000D01*
X296064303Y-195258489D01*
X296139495Y-195215077D01*
X296225000Y-195200000D01*
X296483934Y-195200000D01*
X297000484Y-195163055D01*
X297513081Y-195089355D01*
X298019115Y-194979274D01*
X298516007Y-194833373D01*
X299001224Y-194652397D01*
X299472294Y-194437266D01*
X299926816Y-194189078D01*
X300362475Y-193909097D01*
X300777050Y-193598750D01*
X301168430Y-193259618D01*
X301534618Y-192893430D01*
X301873750Y-192502050D01*
X302184097Y-192087475D01*
X302464078Y-191651816D01*
X302712266Y-191197294D01*
X302927397Y-190726224D01*
X303108373Y-190241007D01*
X303254274Y-189744115D01*
X303364355Y-189238081D01*
X303438055Y-188725484D01*
X303475000Y-188208934D01*
X303475000Y-187950000D01*
X303490077Y-187864495D01*
X303533489Y-187789303D01*
X303600000Y-187733494D01*
X303681588Y-187703798D01*
X303768412Y-187703798D01*
X303850000Y-187733494D01*
G37*
%TD*%
D13*
%TO.C,H303*%
X275725000Y-281750000D03*
X276318109Y-280318109D03*
X276318109Y-283181891D03*
X277750000Y-279725000D03*
D14*
X277750000Y-281750000D03*
D13*
X277750000Y-283775000D03*
X279181891Y-280318109D03*
X279181891Y-283181891D03*
X279775000Y-281750000D03*
%TD*%
D15*
%TO.C,R505*%
X259000000Y-109675000D03*
X259000000Y-111325000D03*
%TD*%
D13*
%TO.C,H501*%
X235725000Y-116750000D03*
X236318109Y-115318109D03*
X236318109Y-118181891D03*
X237750000Y-114725000D03*
D14*
X237750000Y-116750000D03*
D13*
X237750000Y-118775000D03*
X239181891Y-115318109D03*
X239181891Y-118181891D03*
X239775000Y-116750000D03*
%TD*%
D16*
%TO.C,R407*%
X168180000Y-205500000D03*
X169830000Y-205500000D03*
%TD*%
D17*
%TO.C,H102*%
X482025000Y-106750000D03*
X482969581Y-104469581D03*
X482969581Y-109030419D03*
X485250000Y-103525000D03*
D18*
X485250000Y-106750000D03*
D17*
X485250000Y-109975000D03*
X487530419Y-104469581D03*
X487530419Y-109030419D03*
X488475000Y-106750000D03*
%TD*%
D19*
%TO.C,R308*%
X249000000Y-288825000D03*
X249000000Y-287175000D03*
%TD*%
D20*
%TO.C,C301*%
X155025000Y-277250000D03*
X153475000Y-277250000D03*
%TD*%
D15*
%TO.C,R506*%
X261500000Y-109675000D03*
X261500000Y-111325000D03*
%TD*%
D21*
%TO.C,J608*%
X462875000Y-139250000D03*
D22*
X460322300Y-141802700D03*
X465427700Y-141802700D03*
X460322300Y-136697300D03*
X465427700Y-136697300D03*
%TD*%
D23*
%TO.C,C501*%
X224750000Y-127525000D03*
X224750000Y-125975000D03*
%TD*%
D24*
%TO.C,J112*%
X282750000Y-190375000D03*
D25*
X282750000Y-192915000D03*
X282750000Y-195455000D03*
X282750000Y-197995000D03*
X282750000Y-200535000D03*
X282750000Y-203075000D03*
X282750000Y-205615000D03*
X282750000Y-208155000D03*
%TD*%
D24*
%TO.C,J402*%
X226500000Y-190375000D03*
D25*
X226500000Y-192915000D03*
X226500000Y-195455000D03*
X226500000Y-197995000D03*
X226500000Y-200535000D03*
X226500000Y-203075000D03*
X226500000Y-205615000D03*
X226500000Y-208155000D03*
%TD*%
D13*
%TO.C,H503*%
X275725000Y-156750000D03*
X276318109Y-155318109D03*
X276318109Y-158181891D03*
X277750000Y-154725000D03*
D14*
X277750000Y-156750000D03*
D13*
X277750000Y-158775000D03*
X279181891Y-155318109D03*
X279181891Y-158181891D03*
X279775000Y-156750000D03*
%TD*%
D17*
%TO.C,H603*%
X482000000Y-241750000D03*
X482944581Y-239469581D03*
X482944581Y-244030419D03*
X485225000Y-238525000D03*
D18*
X485225000Y-241750000D03*
D17*
X485225000Y-244975000D03*
X487505419Y-239469581D03*
X487505419Y-244030419D03*
X488450000Y-241750000D03*
%TD*%
D16*
%TO.C,R408*%
X168180000Y-208000000D03*
X169830000Y-208000000D03*
%TD*%
D24*
%TO.C,J603*%
X449855000Y-260520000D03*
D25*
X449855000Y-257980000D03*
X452395000Y-260520000D03*
X452395000Y-257980000D03*
%TD*%
D21*
%TO.C,J203*%
X113500000Y-260625000D03*
D22*
X116052700Y-263177700D03*
X116052700Y-258072300D03*
X110947300Y-263177700D03*
X110947300Y-258072300D03*
%TD*%
D17*
%TO.C,H204*%
X97025000Y-241750000D03*
X97969581Y-239469581D03*
X97969581Y-244030419D03*
X100250000Y-238525000D03*
D18*
X100250000Y-241750000D03*
D17*
X100250000Y-244975000D03*
X102530419Y-239469581D03*
X102530419Y-244030419D03*
X103475000Y-241750000D03*
%TD*%
%TO.C,H201*%
X97025000Y-156750000D03*
X97969581Y-154469581D03*
X97969581Y-159030419D03*
X100250000Y-153525000D03*
D18*
X100250000Y-156750000D03*
D17*
X100250000Y-159975000D03*
X102530419Y-154469581D03*
X102530419Y-159030419D03*
X103475000Y-156750000D03*
%TD*%
D21*
%TO.C,J101*%
X313052700Y-158125000D03*
D22*
X315605400Y-160677700D03*
X315605400Y-155572300D03*
X310500000Y-160677700D03*
X310500000Y-155572300D03*
%TD*%
D24*
%TO.C,J109*%
X266625000Y-224250000D03*
D25*
X264085000Y-224250000D03*
X261545000Y-224250000D03*
X259005000Y-224250000D03*
X256465000Y-224250000D03*
X253925000Y-224250000D03*
X251385000Y-224250000D03*
X248845000Y-224250000D03*
%TD*%
D24*
%TO.C,J309*%
X266625000Y-230500000D03*
D25*
X264085000Y-230500000D03*
X261545000Y-230500000D03*
X259005000Y-230500000D03*
X256465000Y-230500000D03*
X253925000Y-230500000D03*
X251385000Y-230500000D03*
X248845000Y-230500000D03*
%TD*%
D24*
%TO.C,J502*%
X248875000Y-168000000D03*
D25*
X251415000Y-168000000D03*
X253955000Y-168000000D03*
X256495000Y-168000000D03*
X259035000Y-168000000D03*
X261575000Y-168000000D03*
X264115000Y-168000000D03*
X266655000Y-168000000D03*
%TD*%
D21*
%TO.C,J311*%
X204872500Y-132622500D03*
D22*
X202319800Y-130069800D03*
X202319800Y-135175200D03*
X207425200Y-130069800D03*
X207425200Y-135175200D03*
%TD*%
D16*
%TO.C,R106*%
X287100000Y-202980000D03*
X288750000Y-202980000D03*
%TD*%
D24*
%TO.C,J302*%
X164725000Y-283025000D03*
D25*
X164725000Y-280485000D03*
X167265000Y-283025000D03*
X167265000Y-280485000D03*
%TD*%
D17*
%TO.C,H604*%
X332000000Y-241750000D03*
X332944581Y-239469581D03*
X332944581Y-244030419D03*
X335225000Y-238525000D03*
D18*
X335225000Y-241750000D03*
D17*
X335225000Y-244975000D03*
X337505419Y-239469581D03*
X337505419Y-244030419D03*
X338450000Y-241750000D03*
%TD*%
D21*
%TO.C,J201*%
X137000000Y-260625000D03*
D22*
X139552700Y-263177700D03*
X139552700Y-258072300D03*
X134447300Y-263177700D03*
X134447300Y-258072300D03*
%TD*%
D16*
%TO.C,R104*%
X287100000Y-197960000D03*
X288750000Y-197960000D03*
%TD*%
D21*
%TO.C,J204*%
X137000000Y-137875000D03*
D22*
X134447300Y-135322300D03*
X134447300Y-140427700D03*
X139552700Y-135322300D03*
X139552700Y-140427700D03*
%TD*%
D17*
%TO.C,H602*%
X482000000Y-156750000D03*
X482944581Y-154469581D03*
X482944581Y-159030419D03*
X485225000Y-153525000D03*
D18*
X485225000Y-156750000D03*
D17*
X485225000Y-159975000D03*
X487505419Y-154469581D03*
X487505419Y-159030419D03*
X488450000Y-156750000D03*
%TD*%
D21*
%TO.C,J205*%
X125250000Y-260625000D03*
D22*
X127802700Y-263177700D03*
X127802700Y-258072300D03*
X122697300Y-263177700D03*
X122697300Y-258072300D03*
%TD*%
D20*
%TO.C,C303*%
X178025000Y-277250000D03*
X176475000Y-277250000D03*
%TD*%
D16*
%TO.C,R402*%
X168180000Y-193000000D03*
X169830000Y-193000000D03*
%TD*%
D24*
%TO.C,J403*%
X164000000Y-190375000D03*
D25*
X164000000Y-192915000D03*
X164000000Y-195455000D03*
X164000000Y-197995000D03*
X164000000Y-200535000D03*
X164000000Y-203075000D03*
X164000000Y-205615000D03*
X164000000Y-208155000D03*
%TD*%
D19*
%TO.C,R302*%
X264000000Y-288825000D03*
X264000000Y-287175000D03*
%TD*%
D17*
%TO.C,H601*%
X332000000Y-156750000D03*
X332944581Y-154469581D03*
X332944581Y-159030419D03*
X335225000Y-153525000D03*
D18*
X335225000Y-156750000D03*
D17*
X335225000Y-159975000D03*
X337505419Y-154469581D03*
X337505419Y-159030419D03*
X338450000Y-156750000D03*
%TD*%
D24*
%TO.C,J601*%
X426355000Y-260520000D03*
D25*
X426355000Y-257980000D03*
X428895000Y-260520000D03*
X428895000Y-257980000D03*
%TD*%
D21*
%TO.C,J312*%
X193122500Y-120872500D03*
D22*
X190569800Y-118319800D03*
X190569800Y-123425200D03*
X195675200Y-118319800D03*
X195675200Y-123425200D03*
%TD*%
D16*
%TO.C,R101*%
X287100000Y-190430000D03*
X288750000Y-190430000D03*
%TD*%
D21*
%TO.C,J103*%
X313052700Y-181625000D03*
D22*
X315605400Y-184177700D03*
X315605400Y-179072300D03*
X310500000Y-184177700D03*
X310500000Y-179072300D03*
%TD*%
D19*
%TO.C,R304*%
X259000000Y-288825000D03*
X259000000Y-287175000D03*
%TD*%
D24*
%TO.C,J503*%
X248875000Y-105500000D03*
D25*
X251415000Y-105500000D03*
X253955000Y-105500000D03*
X256495000Y-105500000D03*
X259035000Y-105500000D03*
X261575000Y-105500000D03*
X264115000Y-105500000D03*
X266655000Y-105500000D03*
%TD*%
D13*
%TO.C,H401*%
X173225000Y-179250000D03*
X173818109Y-177818109D03*
X173818109Y-180681891D03*
X175250000Y-177225000D03*
D14*
X175250000Y-179250000D03*
D13*
X175250000Y-181275000D03*
X176681891Y-177818109D03*
X176681891Y-180681891D03*
X177275000Y-179250000D03*
%TD*%
D15*
%TO.C,R502*%
X251500000Y-109675000D03*
X251500000Y-111325000D03*
%TD*%
D21*
%TO.C,J308*%
X193122500Y-257622500D03*
D22*
X190569800Y-255069800D03*
X190569800Y-260175200D03*
X195675200Y-255069800D03*
X195675200Y-260175200D03*
%TD*%
D20*
%TO.C,C604*%
X463150000Y-254750000D03*
X461600000Y-254750000D03*
%TD*%
D24*
%TO.C,J110*%
X232750000Y-190375000D03*
D25*
X232750000Y-192915000D03*
X232750000Y-195455000D03*
X232750000Y-197995000D03*
X232750000Y-200535000D03*
X232750000Y-203075000D03*
X232750000Y-205615000D03*
X232750000Y-208155000D03*
%TD*%
D16*
%TO.C,R401*%
X168180000Y-190500000D03*
X169830000Y-190500000D03*
%TD*%
%TO.C,R107*%
X287100000Y-205490000D03*
X288750000Y-205490000D03*
%TD*%
D21*
%TO.C,J102*%
X313052700Y-169875000D03*
D22*
X315605400Y-172427700D03*
X315605400Y-167322300D03*
X310500000Y-172427700D03*
X310500000Y-167322300D03*
%TD*%
D21*
%TO.C,J206*%
X113500000Y-137875000D03*
D22*
X110947300Y-135322300D03*
X110947300Y-140427700D03*
X116052700Y-135322300D03*
X116052700Y-140427700D03*
%TD*%
D21*
%TO.C,J202*%
X125250000Y-137875000D03*
D22*
X122697300Y-135322300D03*
X122697300Y-140427700D03*
X127802700Y-135322300D03*
X127802700Y-140427700D03*
%TD*%
D21*
%TO.C,J306*%
X204872500Y-245872500D03*
D22*
X202319800Y-243319800D03*
X202319800Y-248425200D03*
X207425200Y-243319800D03*
X207425200Y-248425200D03*
%TD*%
D16*
%TO.C,R103*%
X287100000Y-195450000D03*
X288750000Y-195450000D03*
%TD*%
D20*
%TO.C,C302*%
X167775000Y-277250000D03*
X166225000Y-277250000D03*
%TD*%
D17*
%TO.C,H101*%
X97025000Y-106750000D03*
X97969581Y-104469581D03*
X97969581Y-109030419D03*
X100250000Y-103525000D03*
D18*
X100250000Y-106750000D03*
D17*
X100250000Y-109975000D03*
X102530419Y-104469581D03*
X102530419Y-109030419D03*
X103475000Y-106750000D03*
%TD*%
D20*
%TO.C,C602*%
X440155000Y-254750000D03*
X438605000Y-254750000D03*
%TD*%
D21*
%TO.C,J313*%
X204872500Y-120872500D03*
D22*
X202319800Y-118319800D03*
X202319800Y-123425200D03*
X207425200Y-118319800D03*
X207425200Y-123425200D03*
%TD*%
D13*
%TO.C,H404*%
X173225000Y-219250000D03*
X173818109Y-217818109D03*
X173818109Y-220681891D03*
X175250000Y-217225000D03*
D14*
X175250000Y-219250000D03*
D13*
X175250000Y-221275000D03*
X176681891Y-217818109D03*
X176681891Y-220681891D03*
X177275000Y-219250000D03*
%TD*%
D15*
%TO.C,R503*%
X254000000Y-109675000D03*
X254000000Y-111325000D03*
%TD*%
D13*
%TO.C,H502*%
X275725000Y-116750000D03*
X276318109Y-115318109D03*
X276318109Y-118181891D03*
X277750000Y-114725000D03*
D14*
X277750000Y-116750000D03*
D13*
X277750000Y-118775000D03*
X279181891Y-115318109D03*
X279181891Y-118181891D03*
X279775000Y-116750000D03*
%TD*%
D15*
%TO.C,R507*%
X264000000Y-109675000D03*
X264000000Y-111325000D03*
%TD*%
D19*
%TO.C,R303*%
X261500000Y-288825000D03*
X261500000Y-287175000D03*
%TD*%
D21*
%TO.C,J105*%
X313052700Y-205125000D03*
D22*
X315605400Y-207677700D03*
X315605400Y-202572300D03*
X310500000Y-207677700D03*
X310500000Y-202572300D03*
%TD*%
D17*
%TO.C,H202*%
X147025000Y-156750000D03*
X147969581Y-154469581D03*
X147969581Y-159030419D03*
X150250000Y-153525000D03*
D18*
X150250000Y-156750000D03*
D17*
X150250000Y-159975000D03*
X152530419Y-154469581D03*
X152530419Y-159030419D03*
X153475000Y-156750000D03*
%TD*%
D16*
%TO.C,R403*%
X168180000Y-195500000D03*
X169830000Y-195500000D03*
%TD*%
D13*
%TO.C,H301*%
X235725000Y-241750000D03*
X236318109Y-240318109D03*
X236318109Y-243181891D03*
X237750000Y-239725000D03*
D14*
X237750000Y-241750000D03*
D13*
X237750000Y-243775000D03*
X239181891Y-240318109D03*
X239181891Y-243181891D03*
X239775000Y-241750000D03*
%TD*%
D24*
%TO.C,J501*%
X218975000Y-125475000D03*
D25*
X221515000Y-125475000D03*
X218975000Y-128015000D03*
X221515000Y-128015000D03*
%TD*%
D13*
%TO.C,H402*%
X213225000Y-179250000D03*
X213818109Y-177818109D03*
X213818109Y-180681891D03*
X215250000Y-177225000D03*
D14*
X215250000Y-179250000D03*
D13*
X215250000Y-181275000D03*
X216681891Y-177818109D03*
X216681891Y-180681891D03*
X217275000Y-179250000D03*
%TD*%
D24*
%TO.C,J401*%
X203975000Y-160475000D03*
D25*
X206515000Y-160475000D03*
X203975000Y-163015000D03*
X206515000Y-163015000D03*
%TD*%
D19*
%TO.C,R301*%
X266500000Y-288825000D03*
X266500000Y-287175000D03*
%TD*%
D21*
%TO.C,J307*%
X193122500Y-245872500D03*
D22*
X190569800Y-243319800D03*
X190569800Y-248425200D03*
X195675200Y-243319800D03*
X195675200Y-248425200D03*
%TD*%
D17*
%TO.C,H104*%
X97025000Y-291750000D03*
X97969581Y-289469581D03*
X97969581Y-294030419D03*
X100250000Y-288525000D03*
D18*
X100250000Y-291750000D03*
D17*
X100250000Y-294975000D03*
X102530419Y-289469581D03*
X102530419Y-294030419D03*
X103475000Y-291750000D03*
%TD*%
D16*
%TO.C,R404*%
X168180000Y-198000000D03*
X169830000Y-198000000D03*
%TD*%
D23*
%TO.C,C304*%
X215750000Y-252025000D03*
X215750000Y-250475000D03*
%TD*%
D17*
%TO.C,H203*%
X147025000Y-241750000D03*
X147969581Y-239469581D03*
X147969581Y-244030419D03*
X150250000Y-238525000D03*
D18*
X150250000Y-241750000D03*
D17*
X150250000Y-244975000D03*
X152530419Y-239469581D03*
X152530419Y-244030419D03*
X153475000Y-241750000D03*
%TD*%
D23*
%TO.C,C401*%
X209750000Y-162525000D03*
X209750000Y-160975000D03*
%TD*%
D20*
%TO.C,C603*%
X451400000Y-254750000D03*
X449850000Y-254750000D03*
%TD*%
D16*
%TO.C,R405*%
X168180000Y-200500000D03*
X169830000Y-200500000D03*
%TD*%
D17*
%TO.C,H103*%
X482025000Y-291750000D03*
X482969581Y-289469581D03*
X482969581Y-294030419D03*
X485250000Y-288525000D03*
D18*
X485250000Y-291750000D03*
D17*
X485250000Y-294975000D03*
X487530419Y-289469581D03*
X487530419Y-294030419D03*
X488475000Y-291750000D03*
%TD*%
D13*
%TO.C,H403*%
X213225000Y-219250000D03*
X213818109Y-217818109D03*
X213818109Y-220681891D03*
X215250000Y-217225000D03*
D14*
X215250000Y-219250000D03*
D13*
X215250000Y-221275000D03*
X216681891Y-217818109D03*
X216681891Y-220681891D03*
X217275000Y-219250000D03*
%TD*%
D15*
%TO.C,R501*%
X249000000Y-109675000D03*
X249000000Y-111325000D03*
%TD*%
D20*
%TO.C,C601*%
X429275000Y-263750000D03*
X427725000Y-263750000D03*
%TD*%
D13*
%TO.C,H504*%
X235725000Y-156750000D03*
X236318109Y-155318109D03*
X236318109Y-158181891D03*
X237750000Y-154725000D03*
D14*
X237750000Y-156750000D03*
D13*
X237750000Y-158775000D03*
X239181891Y-155318109D03*
X239181891Y-158181891D03*
X239775000Y-156750000D03*
%TD*%
D16*
%TO.C,R108*%
X287100000Y-208000000D03*
X288750000Y-208000000D03*
%TD*%
D21*
%TO.C,J305*%
X204872500Y-257622500D03*
D22*
X202319800Y-255069800D03*
X202319800Y-260175200D03*
X207425200Y-255069800D03*
X207425200Y-260175200D03*
%TD*%
D24*
%TO.C,J304*%
X218975000Y-250475000D03*
D25*
X221515000Y-250475000D03*
X218975000Y-253015000D03*
X221515000Y-253015000D03*
%TD*%
D13*
%TO.C,H304*%
X235725000Y-281750000D03*
X236318109Y-280318109D03*
X236318109Y-283181891D03*
X237750000Y-279725000D03*
D14*
X237750000Y-281750000D03*
D13*
X237750000Y-283775000D03*
X239181891Y-280318109D03*
X239181891Y-283181891D03*
X239775000Y-281750000D03*
%TD*%
D21*
%TO.C,J314*%
X193122500Y-132622500D03*
D22*
X190569800Y-130069800D03*
X190569800Y-135175200D03*
X195675200Y-130069800D03*
X195675200Y-135175200D03*
%TD*%
D16*
%TO.C,R102*%
X287100000Y-192940000D03*
X288750000Y-192940000D03*
%TD*%
D24*
%TO.C,J111*%
X248875000Y-174250000D03*
D25*
X251415000Y-174250000D03*
X253955000Y-174250000D03*
X256495000Y-174250000D03*
X259035000Y-174250000D03*
X261575000Y-174250000D03*
X264115000Y-174250000D03*
X266655000Y-174250000D03*
%TD*%
D24*
%TO.C,J301*%
X152975000Y-283025000D03*
D25*
X152975000Y-280485000D03*
X155515000Y-283025000D03*
X155515000Y-280485000D03*
%TD*%
D15*
%TO.C,R508*%
X266500000Y-109675000D03*
X266500000Y-111325000D03*
%TD*%
D21*
%TO.C,J107*%
X313052700Y-228625000D03*
D22*
X315605400Y-231177700D03*
X315605400Y-226072300D03*
X310500000Y-231177700D03*
X310500000Y-226072300D03*
%TD*%
D13*
%TO.C,H302*%
X275725000Y-241750000D03*
X276318109Y-240318109D03*
X276318109Y-243181891D03*
X277750000Y-239725000D03*
D14*
X277750000Y-241750000D03*
D13*
X277750000Y-243775000D03*
X279181891Y-240318109D03*
X279181891Y-243181891D03*
X279775000Y-241750000D03*
%TD*%
D15*
%TO.C,R504*%
X256500000Y-109675000D03*
X256500000Y-111325000D03*
%TD*%
D19*
%TO.C,R307*%
X251500000Y-288825000D03*
X251500000Y-287175000D03*
%TD*%
D21*
%TO.C,J106*%
X313052700Y-216875000D03*
D22*
X315605400Y-219427700D03*
X315605400Y-214322300D03*
X310500000Y-219427700D03*
X310500000Y-214322300D03*
%TD*%
D19*
%TO.C,R306*%
X254000000Y-288825000D03*
X254000000Y-287175000D03*
%TD*%
D16*
%TO.C,R105*%
X287100000Y-200470000D03*
X288750000Y-200470000D03*
%TD*%
D21*
%TO.C,J104*%
X313052700Y-193375000D03*
D22*
X315605400Y-195927700D03*
X315605400Y-190822300D03*
X310500000Y-195927700D03*
X310500000Y-190822300D03*
%TD*%
D21*
%TO.C,J108*%
X313052700Y-240375000D03*
D22*
X315605400Y-242927700D03*
X315605400Y-237822300D03*
X310500000Y-242927700D03*
X310500000Y-237822300D03*
%TD*%
D24*
%TO.C,J303*%
X176475000Y-283025000D03*
D25*
X176475000Y-280485000D03*
X179015000Y-283025000D03*
X179015000Y-280485000D03*
%TD*%
D21*
%TO.C,J606*%
X439375000Y-139250000D03*
D22*
X436822300Y-141802700D03*
X441927700Y-141802700D03*
X436822300Y-136697300D03*
X441927700Y-136697300D03*
%TD*%
D16*
%TO.C,R406*%
X168180000Y-203000000D03*
X169830000Y-203000000D03*
%TD*%
D21*
%TO.C,J605*%
X427625000Y-139250000D03*
D22*
X425072300Y-141802700D03*
X430177700Y-141802700D03*
X425072300Y-136697300D03*
X430177700Y-136697300D03*
%TD*%
D24*
%TO.C,J602*%
X438105000Y-260520000D03*
D25*
X438105000Y-257980000D03*
X440645000Y-260520000D03*
X440645000Y-257980000D03*
%TD*%
D24*
%TO.C,J604*%
X461605000Y-260520000D03*
D25*
X461605000Y-257980000D03*
X464145000Y-260520000D03*
X464145000Y-257980000D03*
%TD*%
D19*
%TO.C,R305*%
X256500000Y-288825000D03*
X256500000Y-287175000D03*
%TD*%
D24*
%TO.C,J310*%
X266625000Y-293000000D03*
D25*
X264085000Y-293000000D03*
X261545000Y-293000000D03*
X259005000Y-293000000D03*
X256465000Y-293000000D03*
X253925000Y-293000000D03*
X251385000Y-293000000D03*
X248845000Y-293000000D03*
%TD*%
D21*
%TO.C,J607*%
X451125000Y-139250000D03*
D22*
X448572300Y-141802700D03*
X453677700Y-141802700D03*
X448572300Y-136697300D03*
X453677700Y-136697300D03*
%TD*%
M02*
