%TF.GenerationSoftware,KiCad,Pcbnew,7.0.10*%
%TF.CreationDate,2024-04-20T00:23:07-04:00*%
%TF.ProjectId,dual-rail-eval-board,6475616c-2d72-4616-996c-2d6576616c2d,1*%
%TF.SameCoordinates,Original*%
%TF.FileFunction,Copper,L1,Top*%
%TF.FilePolarity,Positive*%
%FSLAX46Y46*%
G04 Gerber Fmt 4.6, Leading zero omitted, Abs format (unit mm)*
G04 Created by KiCad (PCBNEW 7.0.10) date 2024-04-20 00:23:07*
%MOMM*%
%LPD*%
G01*
G04 APERTURE LIST*
G04 Aperture macros list*
%AMRoundRect*
0 Rectangle with rounded corners*
0 $1 Rounding radius*
0 $2 $3 $4 $5 $6 $7 $8 $9 X,Y pos of 4 corners*
0 Add a 4 corners polygon primitive as box body*
4,1,4,$2,$3,$4,$5,$6,$7,$8,$9,$2,$3,0*
0 Add four circle primitives for the rounded corners*
1,1,$1+$1,$2,$3*
1,1,$1+$1,$4,$5*
1,1,$1+$1,$6,$7*
1,1,$1+$1,$8,$9*
0 Add four rect primitives between the rounded corners*
20,1,$1+$1,$2,$3,$4,$5,0*
20,1,$1+$1,$4,$5,$6,$7,0*
20,1,$1+$1,$6,$7,$8,$9,0*
20,1,$1+$1,$8,$9,$2,$3,0*%
G04 Aperture macros list end*
%TA.AperFunction,ComponentPad*%
%ADD10C,2.006600*%
%TD*%
%TA.AperFunction,ComponentPad*%
%ADD11C,1.905000*%
%TD*%
%TA.AperFunction,ComponentPad*%
%ADD12C,2.400000*%
%TD*%
%TA.AperFunction,ComponentPad*%
%ADD13C,0.900000*%
%TD*%
%TA.AperFunction,ComponentPad*%
%ADD14C,8.600000*%
%TD*%
%TA.AperFunction,SMDPad,CuDef*%
%ADD15RoundRect,0.135000X0.185000X-0.135000X0.185000X0.135000X-0.185000X0.135000X-0.185000X-0.135000X0*%
%TD*%
%TA.AperFunction,SMDPad,CuDef*%
%ADD16R,0.600000X0.310000*%
%TD*%
%TA.AperFunction,SMDPad,CuDef*%
%ADD17R,1.500000X1.750000*%
%TD*%
%TA.AperFunction,SMDPad,CuDef*%
%ADD18R,0.230000X0.825000*%
%TD*%
%TA.AperFunction,SMDPad,CuDef*%
%ADD19RoundRect,0.250000X-0.250000X-0.475000X0.250000X-0.475000X0.250000X0.475000X-0.250000X0.475000X0*%
%TD*%
%TA.AperFunction,ComponentPad*%
%ADD20C,3.000000*%
%TD*%
%TA.AperFunction,SMDPad,CuDef*%
%ADD21RoundRect,0.140000X0.170000X-0.140000X0.170000X0.140000X-0.170000X0.140000X-0.170000X-0.140000X0*%
%TD*%
%TA.AperFunction,SMDPad,CuDef*%
%ADD22RoundRect,0.135000X-0.185000X0.135000X-0.185000X-0.135000X0.185000X-0.135000X0.185000X0.135000X0*%
%TD*%
%TA.AperFunction,SMDPad,CuDef*%
%ADD23RoundRect,0.250000X-0.450000X0.262500X-0.450000X-0.262500X0.450000X-0.262500X0.450000X0.262500X0*%
%TD*%
%TA.AperFunction,SMDPad,CuDef*%
%ADD24RoundRect,0.140000X-0.170000X0.140000X-0.170000X-0.140000X0.170000X-0.140000X0.170000X0.140000X0*%
%TD*%
%TA.AperFunction,SMDPad,CuDef*%
%ADD25RoundRect,0.250000X-0.475000X0.250000X-0.475000X-0.250000X0.475000X-0.250000X0.475000X0.250000X0*%
%TD*%
%TA.AperFunction,SMDPad,CuDef*%
%ADD26RoundRect,0.250000X0.250000X0.475000X-0.250000X0.475000X-0.250000X-0.475000X0.250000X-0.475000X0*%
%TD*%
%TA.AperFunction,SMDPad,CuDef*%
%ADD27RoundRect,0.250000X0.475000X-0.250000X0.475000X0.250000X-0.475000X0.250000X-0.475000X-0.250000X0*%
%TD*%
%TA.AperFunction,SMDPad,CuDef*%
%ADD28RoundRect,0.250000X0.450000X-0.262500X0.450000X0.262500X-0.450000X0.262500X-0.450000X-0.262500X0*%
%TD*%
%TA.AperFunction,SMDPad,CuDef*%
%ADD29RoundRect,0.218750X0.381250X-0.218750X0.381250X0.218750X-0.381250X0.218750X-0.381250X-0.218750X0*%
%TD*%
%TA.AperFunction,SMDPad,CuDef*%
%ADD30RoundRect,0.140000X0.140000X0.170000X-0.140000X0.170000X-0.140000X-0.170000X0.140000X-0.170000X0*%
%TD*%
%TA.AperFunction,SMDPad,CuDef*%
%ADD31R,0.249999X0.499999*%
%TD*%
%TA.AperFunction,SMDPad,CuDef*%
%ADD32R,2.650000X1.000000*%
%TD*%
%TA.AperFunction,SMDPad,CuDef*%
%ADD33RoundRect,0.218750X-0.381250X0.218750X-0.381250X-0.218750X0.381250X-0.218750X0.381250X0.218750X0*%
%TD*%
%TA.AperFunction,ViaPad*%
%ADD34C,0.800000*%
%TD*%
%TA.AperFunction,ViaPad*%
%ADD35C,0.600000*%
%TD*%
%TA.AperFunction,Conductor*%
%ADD36C,0.750000*%
%TD*%
%TA.AperFunction,Conductor*%
%ADD37C,0.250000*%
%TD*%
%TA.AperFunction,Conductor*%
%ADD38C,0.200000*%
%TD*%
%TA.AperFunction,Conductor*%
%ADD39C,0.500000*%
%TD*%
%TA.AperFunction,Conductor*%
%ADD40C,0.150000*%
%TD*%
%TA.AperFunction,Conductor*%
%ADD41C,2.000000*%
%TD*%
G04 APERTURE END LIST*
D10*
%TO.P,J10,1,In*%
%TO.N,Earth*%
X50750000Y-69200000D03*
D11*
%TO.P,J10,2,Ext*%
X48197300Y-66647300D03*
X53302700Y-66647300D03*
X53302700Y-71752700D03*
X48197300Y-71752700D03*
%TD*%
D10*
%TO.P,J9,1,In*%
%TO.N,Earth*%
X50750000Y-102300000D03*
D11*
%TO.P,J9,2,Ext*%
X48197300Y-99747300D03*
X53302700Y-99747300D03*
X53302700Y-104852700D03*
X48197300Y-104852700D03*
%TD*%
D10*
%TO.P,J8,1,In*%
%TO.N,Earth*%
X98250000Y-102300000D03*
D11*
%TO.P,J8,2,Ext*%
X95697300Y-99747300D03*
X100802700Y-99747300D03*
X100802700Y-104852700D03*
X95697300Y-104852700D03*
%TD*%
D10*
%TO.P,J7,1,In*%
%TO.N,Earth*%
X98250000Y-69200000D03*
D11*
%TO.P,J7,2,Ext*%
X95697300Y-66647300D03*
X100802700Y-66647300D03*
X100802700Y-71752700D03*
X95697300Y-71752700D03*
%TD*%
D12*
%TO.P,TP6,1,1*%
%TO.N,/-5V*%
X59500000Y-112299997D03*
%TD*%
%TO.P,TP5,1,1*%
%TO.N,/+5V*%
X59500000Y-59200000D03*
%TD*%
%TO.P,TP4,1,1*%
%TO.N,/-2.75V*%
X89500000Y-112300000D03*
%TD*%
%TO.P,TP3,1,1*%
%TO.N,/+2.75V*%
X89500000Y-59200000D03*
%TD*%
%TO.P,TP2,1,1*%
%TO.N,/-5.5V*%
X66250000Y-92250000D03*
%TD*%
%TO.P,TP1,1,1*%
%TO.N,/+5.5V*%
X82750000Y-79250000D03*
%TD*%
D13*
%TO.P,H1,1,1*%
%TO.N,Earth*%
X52725002Y-43250000D03*
X51780421Y-45530419D03*
X51780421Y-40969581D03*
X49500002Y-46475000D03*
D14*
X49500002Y-43250000D03*
D13*
X49500002Y-40025000D03*
X47219583Y-45530419D03*
X47219583Y-40969581D03*
X46275002Y-43250000D03*
%TD*%
D15*
%TO.P,R12,1*%
%TO.N,Earth*%
X63250000Y-70710000D03*
%TO.P,R12,2*%
%TO.N,/+5V_REG_FB*%
X63250000Y-69690000D03*
%TD*%
D16*
%TO.P,U4,1,OUT*%
%TO.N,/+5V*%
X65850000Y-68175000D03*
%TO.P,U4,2,FB*%
%TO.N,/+5V_REG_FB*%
X65850000Y-68825000D03*
%TO.P,U4,3,NC*%
%TO.N,unconnected-(U4-NC-Pad3)*%
X65850000Y-69475000D03*
%TO.P,U4,4,GND*%
%TO.N,Earth*%
X65850000Y-70125000D03*
%TO.P,U4,5,EN*%
%TO.N,/+5.5V*%
X68650000Y-70125000D03*
%TO.P,U4,6,NR/SS*%
%TO.N,/+5V_REG_NR{slash}SS*%
X68650000Y-69475000D03*
%TO.P,U4,7,DNC*%
%TO.N,unconnected-(U4-DNC-Pad7)*%
X68650000Y-68825000D03*
%TO.P,U4,8,IN*%
%TO.N,/+5.5V*%
X68650000Y-68175000D03*
D17*
%TO.P,U4,9,EP*%
%TO.N,Earth*%
X67250000Y-69150000D03*
D18*
%TO.P,U4,10,EP*%
X67575000Y-67862000D03*
%TO.P,U4,11,EP*%
X66925000Y-67862000D03*
%TO.P,U4,12,EP*%
X67575000Y-70438000D03*
%TO.P,U4,13,EP*%
X66925000Y-70438000D03*
%TD*%
D12*
%TO.P,TP9,1,1*%
%TO.N,Earth*%
X66250000Y-79250000D03*
%TD*%
D10*
%TO.P,J3,1,In*%
%TO.N,/+2.75V*%
X86250000Y-49200000D03*
D11*
%TO.P,J3,2,Ext*%
%TO.N,Earth*%
X83697300Y-46647300D03*
X83697300Y-51752700D03*
X88802700Y-46647300D03*
X88802700Y-51752700D03*
%TD*%
D19*
%TO.P,C2,1*%
%TO.N,/+3.3V*%
X76650000Y-83000000D03*
%TO.P,C2,2*%
%TO.N,Earth*%
X78550000Y-83000000D03*
%TD*%
D20*
%TO.P,TP20,1,1*%
%TO.N,/-2.75V*%
X86250000Y-129800000D03*
%TD*%
D10*
%TO.P,J6,1,In*%
%TO.N,/-5V*%
X62750000Y-122300000D03*
D11*
%TO.P,J6,2,Ext*%
%TO.N,Earth*%
X60197300Y-119747300D03*
X60197300Y-124852700D03*
X65302700Y-119747300D03*
X65302700Y-124852700D03*
%TD*%
D21*
%TO.P,C11,1*%
%TO.N,/-2.75V*%
X85750000Y-104030000D03*
%TO.P,C11,2*%
%TO.N,/-2.75V_REG_FB*%
X85750000Y-103070000D03*
%TD*%
D10*
%TO.P,J5,1,In*%
%TO.N,/+5V*%
X62750000Y-49200000D03*
D11*
%TO.P,J5,2,Ext*%
%TO.N,Earth*%
X60197300Y-46647300D03*
X60197300Y-51752700D03*
X65302700Y-46647300D03*
X65302700Y-51752700D03*
%TD*%
D20*
%TO.P,TP15,1,1*%
%TO.N,/+5V*%
X62750000Y-41700000D03*
%TD*%
D22*
%TO.P,R7,1*%
%TO.N,/+2.75V_REG_FB*%
X87250000Y-69990000D03*
%TO.P,R7,2*%
%TO.N,/+2.75V*%
X87250000Y-71010000D03*
%TD*%
D23*
%TO.P,R5,1*%
%TO.N,Net-(L1-Pad1)*%
X72000002Y-78137500D03*
%TO.P,R5,2*%
%TO.N,/CP_POS_OUT*%
X72000002Y-79962500D03*
%TD*%
D12*
%TO.P,TP10,1,1*%
%TO.N,Earth*%
X82750000Y-92250000D03*
%TD*%
D24*
%TO.P,C19,1*%
%TO.N,/-5V*%
X63250000Y-100570000D03*
%TO.P,C19,2*%
%TO.N,/-5V_REG_FB*%
X63250000Y-101530000D03*
%TD*%
D25*
%TO.P,C8,1*%
%TO.N,/-5.5V*%
X72000000Y-91550500D03*
%TO.P,C8,2*%
%TO.N,Earth*%
X72000000Y-93450500D03*
%TD*%
D19*
%TO.P,C6,1*%
%TO.N,/CP_NEG_OUT*%
X76650000Y-88500000D03*
%TO.P,C6,2*%
%TO.N,Earth*%
X78550000Y-88500000D03*
%TD*%
D22*
%TO.P,R9,1*%
%TO.N,/-2.75V_REG_FB*%
X87250000Y-103040000D03*
%TO.P,R9,2*%
%TO.N,/-2.75V*%
X87250000Y-104060000D03*
%TD*%
D26*
%TO.P,C5,1*%
%TO.N,/CP_POS_OUT*%
X72350000Y-83000000D03*
%TO.P,C5,2*%
%TO.N,Earth*%
X70450000Y-83000000D03*
%TD*%
D27*
%TO.P,C16,1*%
%TO.N,/-2.75V*%
X89700004Y-103250000D03*
%TO.P,C16,2*%
%TO.N,Earth*%
X89700004Y-101350000D03*
%TD*%
D21*
%TO.P,C20,1*%
%TO.N,/-5V_REG_NR{slash}SS*%
X71250000Y-102780000D03*
%TO.P,C20,2*%
%TO.N,Earth*%
X71250000Y-101820000D03*
%TD*%
D12*
%TO.P,TP12,1,1*%
%TO.N,Earth*%
X83000000Y-112300000D03*
%TD*%
D27*
%TO.P,C7,1*%
%TO.N,/+5.5V*%
X77000002Y-79950000D03*
%TO.P,C7,2*%
%TO.N,Earth*%
X77000002Y-78050000D03*
%TD*%
D15*
%TO.P,R4,1*%
%TO.N,Earth*%
X77000000Y-86260000D03*
%TO.P,R4,2*%
%TO.N,/CP_NEG_FB*%
X77000000Y-85240000D03*
%TD*%
D24*
%TO.P,C21,1*%
%TO.N,/+5V*%
X61750000Y-69720000D03*
%TO.P,C21,2*%
%TO.N,Earth*%
X61750000Y-70680000D03*
%TD*%
%TO.P,C12,1*%
%TO.N,/-2.75V_REG_NR{slash}SS*%
X77750000Y-101820000D03*
%TO.P,C12,2*%
%TO.N,Earth*%
X77750000Y-102780000D03*
%TD*%
D20*
%TO.P,TP13,1,1*%
%TO.N,/+3.3V*%
X51000000Y-92250000D03*
%TD*%
D24*
%TO.P,C22,1*%
%TO.N,/-5V*%
X61750000Y-102820000D03*
%TO.P,C22,2*%
%TO.N,Earth*%
X61750000Y-103780000D03*
%TD*%
D28*
%TO.P,R6,1*%
%TO.N,Net-(L2-Pad1)*%
X77000000Y-93413000D03*
%TO.P,R6,2*%
%TO.N,/CP_NEG_OUT*%
X77000000Y-91588000D03*
%TD*%
D20*
%TO.P,TP16,1,1*%
%TO.N,/+2.75V*%
X86250000Y-41700000D03*
%TD*%
D24*
%TO.P,C17,1*%
%TO.N,/+5V*%
X63250000Y-67470000D03*
%TO.P,C17,2*%
%TO.N,/+5V_REG_FB*%
X63250000Y-68430000D03*
%TD*%
D20*
%TO.P,TP18,1,1*%
%TO.N,/-5.5V*%
X74500000Y-129800000D03*
%TD*%
D13*
%TO.P,H4,1,1*%
%TO.N,Earth*%
X96274998Y-128250000D03*
X97219579Y-125969581D03*
X97219579Y-130530419D03*
X99499998Y-125025000D03*
D14*
X99499998Y-128250000D03*
D13*
X99499998Y-131475000D03*
X101780417Y-125969581D03*
X101780417Y-130530419D03*
X102724998Y-128250000D03*
%TD*%
D21*
%TO.P,C18,1*%
%TO.N,/+5V_REG_NR{slash}SS*%
X71250000Y-69680000D03*
%TO.P,C18,2*%
%TO.N,Earth*%
X71250000Y-68720000D03*
%TD*%
D16*
%TO.P,U2,1,OUT*%
%TO.N,/+2.75V*%
X83150000Y-70225000D03*
%TO.P,U2,2,FB*%
%TO.N,/+2.75V_REG_FB*%
X83150000Y-69575000D03*
%TO.P,U2,3,NC*%
%TO.N,unconnected-(U2-NC-Pad3)*%
X83150000Y-68925000D03*
%TO.P,U2,4,GND*%
%TO.N,Earth*%
X83150000Y-68275000D03*
%TO.P,U2,5,EN*%
%TO.N,/+5.5V*%
X80350000Y-68275000D03*
%TO.P,U2,6,NR/SS*%
%TO.N,/+2.75V_REG_NR{slash}SS*%
X80350000Y-68925000D03*
%TO.P,U2,7,DNC*%
%TO.N,unconnected-(U2-DNC-Pad7)*%
X80350000Y-69575000D03*
%TO.P,U2,8,IN*%
%TO.N,/+5.5V*%
X80350000Y-70225000D03*
D17*
%TO.P,U2,9,EP*%
%TO.N,Earth*%
X81750000Y-69250000D03*
D18*
%TO.P,U2,10,EP*%
X81425000Y-70538000D03*
%TO.P,U2,11,EP*%
X82075000Y-70538000D03*
%TO.P,U2,12,EP*%
X81425000Y-67962000D03*
%TO.P,U2,13,EP*%
X82075000Y-67962000D03*
%TD*%
D22*
%TO.P,R3,1*%
%TO.N,/CP_NEG_FB*%
X78250000Y-85240000D03*
%TO.P,R3,2*%
%TO.N,/CP_NEG_OUT*%
X78250000Y-86260000D03*
%TD*%
D15*
%TO.P,R1,1*%
%TO.N,/CP_POS_FB*%
X70750000Y-86260000D03*
%TO.P,R1,2*%
%TO.N,/CP_POS_OUT*%
X70750000Y-85240000D03*
%TD*%
D27*
%TO.P,C24,1*%
%TO.N,/-5V*%
X59500000Y-103250000D03*
%TO.P,C24,2*%
%TO.N,Earth*%
X59500000Y-101350000D03*
%TD*%
D21*
%TO.P,C14,1*%
%TO.N,/-2.75V*%
X87250000Y-101780000D03*
%TO.P,C14,2*%
%TO.N,Earth*%
X87250000Y-100820000D03*
%TD*%
D22*
%TO.P,R8,1*%
%TO.N,Earth*%
X85750000Y-67740000D03*
%TO.P,R8,2*%
%TO.N,/+2.75V_REG_FB*%
X85750000Y-68760000D03*
%TD*%
D13*
%TO.P,H2,1,1*%
%TO.N,Earth*%
X96275000Y-43250002D03*
X97219581Y-40969583D03*
X97219581Y-45530421D03*
X99500000Y-40025002D03*
D14*
X99500000Y-43250002D03*
D13*
X99500000Y-46475002D03*
X101780419Y-40969583D03*
X101780419Y-45530421D03*
X102725000Y-43250002D03*
%TD*%
D15*
%TO.P,R13,1*%
%TO.N,/-5V_REG_FB*%
X61750000Y-101560000D03*
%TO.P,R13,2*%
%TO.N,/-5V*%
X61750000Y-100540000D03*
%TD*%
D29*
%TO.P,L2,1,1*%
%TO.N,Net-(L2-Pad1)*%
X74500000Y-93563000D03*
%TO.P,L2,2,2*%
%TO.N,/-5.5V*%
X74500000Y-91438000D03*
%TD*%
D25*
%TO.P,C23,1*%
%TO.N,/+5V*%
X59500000Y-68250000D03*
%TO.P,C23,2*%
%TO.N,Earth*%
X59500000Y-70150000D03*
%TD*%
D12*
%TO.P,TP7,1,1*%
%TO.N,Earth*%
X66000000Y-59200000D03*
%TD*%
D30*
%TO.P,C3,1*%
%TO.N,/C1-*%
X74980000Y-83000000D03*
%TO.P,C3,2*%
%TO.N,/C1+*%
X74020000Y-83000000D03*
%TD*%
D31*
%TO.P,U1,1,PGOOD*%
%TO.N,Earth*%
X73250000Y-86699998D03*
%TO.P,U1,2,FB+*%
%TO.N,/CP_POS_FB*%
X73750002Y-86699998D03*
%TO.P,U1,3,VIN*%
%TO.N,/+3.3V*%
X74250000Y-86699998D03*
%TO.P,U1,4,GND*%
%TO.N,Earth*%
X74750000Y-86699998D03*
%TO.P,U1,5,CP*%
%TO.N,/CP_CAP*%
X75250001Y-86699998D03*
%TO.P,U1,6,OUT-*%
%TO.N,/CP_NEG_OUT*%
X75750000Y-86699998D03*
%TO.P,U1,7,FB-*%
%TO.N,/CP_NEG_FB*%
X75750000Y-84799999D03*
%TO.P,U1,8,EN-*%
%TO.N,/+3.3V*%
X75250001Y-84799999D03*
%TO.P,U1,9,C1-*%
%TO.N,/C1-*%
X74750000Y-84799999D03*
%TO.P,U1,10,C1+*%
%TO.N,/C1+*%
X74250000Y-84799999D03*
%TO.P,U1,11,OUT+*%
%TO.N,/CP_POS_OUT*%
X73750002Y-84799999D03*
%TO.P,U1,12,EN+*%
%TO.N,/+3.3V*%
X73250000Y-84799999D03*
D32*
%TO.P,U1,13,GND*%
%TO.N,Earth*%
X74500000Y-85749997D03*
%TD*%
D10*
%TO.P,J4,1,In*%
%TO.N,/-2.75V*%
X86250000Y-122300000D03*
D11*
%TO.P,J4,2,Ext*%
%TO.N,Earth*%
X83697300Y-119747300D03*
X83697300Y-124852700D03*
X88802700Y-119747300D03*
X88802700Y-124852700D03*
%TD*%
D24*
%TO.P,C10,1*%
%TO.N,/+2.75V_REG_NR{slash}SS*%
X77750000Y-68720000D03*
%TO.P,C10,2*%
%TO.N,Earth*%
X77750000Y-69680000D03*
%TD*%
D16*
%TO.P,U5,1,OUT*%
%TO.N,/-5V*%
X65850000Y-101275000D03*
%TO.P,U5,2,FB*%
%TO.N,/-5V_REG_FB*%
X65850000Y-101925000D03*
%TO.P,U5,3,NC*%
%TO.N,unconnected-(U5-NC-Pad3)*%
X65850000Y-102575000D03*
%TO.P,U5,4,GND*%
%TO.N,Earth*%
X65850000Y-103225000D03*
%TO.P,U5,5,EN*%
%TO.N,/-5.5V*%
X68650000Y-103225000D03*
%TO.P,U5,6,NR/SS*%
%TO.N,/-5V_REG_NR{slash}SS*%
X68650000Y-102575000D03*
%TO.P,U5,7,DNC*%
%TO.N,unconnected-(U5-DNC-Pad7)*%
X68650000Y-101925000D03*
%TO.P,U5,8,IN*%
%TO.N,/-5.5V*%
X68650000Y-101275000D03*
D17*
%TO.P,U5,9,EP*%
%TO.N,Earth*%
X67250000Y-102250000D03*
D18*
%TO.P,U5,10,EP*%
X67575000Y-100962000D03*
%TO.P,U5,11,EP*%
X66925000Y-100962000D03*
%TO.P,U5,12,EP*%
X67575000Y-103538000D03*
%TO.P,U5,13,EP*%
X66925000Y-103538000D03*
%TD*%
D15*
%TO.P,R11,1*%
%TO.N,/+5V_REG_FB*%
X61750000Y-68460000D03*
%TO.P,R11,2*%
%TO.N,/+5V*%
X61750000Y-67440000D03*
%TD*%
D10*
%TO.P,J2,1,In*%
%TO.N,/-5.5V*%
X74500000Y-122300000D03*
D11*
%TO.P,J2,2,Ext*%
%TO.N,Earth*%
X71947300Y-119747300D03*
X71947300Y-124852700D03*
X77052700Y-119747300D03*
X77052700Y-124852700D03*
%TD*%
D20*
%TO.P,TP22,1,1*%
%TO.N,Earth*%
X98000000Y-92250000D03*
%TD*%
D22*
%TO.P,R2,1*%
%TO.N,Earth*%
X72000000Y-85240000D03*
%TO.P,R2,2*%
%TO.N,/CP_POS_FB*%
X72000000Y-86260000D03*
%TD*%
D20*
%TO.P,TP14,1,1*%
%TO.N,/+5.5V*%
X74500000Y-41700000D03*
%TD*%
%TO.P,TP19,1,1*%
%TO.N,/-5V*%
X62750000Y-129800000D03*
%TD*%
D12*
%TO.P,TP8,1,1*%
%TO.N,Earth*%
X83000000Y-59200000D03*
%TD*%
D20*
%TO.P,TP17,1,1*%
%TO.N,/+3.3V*%
X98000000Y-79250000D03*
%TD*%
D25*
%TO.P,C15,1*%
%TO.N,/+2.75V*%
X89500000Y-68250000D03*
%TO.P,C15,2*%
%TO.N,Earth*%
X89500000Y-70150000D03*
%TD*%
D13*
%TO.P,H3,1,1*%
%TO.N,Earth*%
X52725000Y-128249998D03*
X51780419Y-130530417D03*
X51780419Y-125969579D03*
X49500000Y-131474998D03*
D14*
X49500000Y-128249998D03*
D13*
X49500000Y-125024998D03*
X47219581Y-130530417D03*
X47219581Y-125969579D03*
X46275000Y-128249998D03*
%TD*%
D12*
%TO.P,TP11,1,1*%
%TO.N,Earth*%
X66000000Y-112299997D03*
%TD*%
D21*
%TO.P,C13,1*%
%TO.N,/+2.75V*%
X87250000Y-68730000D03*
%TO.P,C13,2*%
%TO.N,Earth*%
X87250000Y-67770000D03*
%TD*%
D16*
%TO.P,U3,1,OUT*%
%TO.N,/-2.75V*%
X83150000Y-103325000D03*
%TO.P,U3,2,FB*%
%TO.N,/-2.75V_REG_FB*%
X83150000Y-102675000D03*
%TO.P,U3,3,NC*%
%TO.N,unconnected-(U3-NC-Pad3)*%
X83150000Y-102025000D03*
%TO.P,U3,4,GND*%
%TO.N,Earth*%
X83150000Y-101375000D03*
%TO.P,U3,5,EN*%
%TO.N,/-5.5V*%
X80350000Y-101375000D03*
%TO.P,U3,6,NR/SS*%
%TO.N,/-2.75V_REG_NR{slash}SS*%
X80350000Y-102025000D03*
%TO.P,U3,7,DNC*%
%TO.N,unconnected-(U3-DNC-Pad7)*%
X80350000Y-102675000D03*
%TO.P,U3,8,IN*%
%TO.N,/-5.5V*%
X80350000Y-103325000D03*
D17*
%TO.P,U3,9,EP*%
%TO.N,Earth*%
X81750000Y-102350000D03*
D18*
%TO.P,U3,10,EP*%
X81425000Y-103638000D03*
%TO.P,U3,11,EP*%
X82075000Y-103638000D03*
%TO.P,U3,12,EP*%
X81425000Y-101062000D03*
%TO.P,U3,13,EP*%
X82075000Y-101062000D03*
%TD*%
D22*
%TO.P,R10,1*%
%TO.N,Earth*%
X85750000Y-100790000D03*
%TO.P,R10,2*%
%TO.N,/-2.75V_REG_FB*%
X85750000Y-101810000D03*
%TD*%
D15*
%TO.P,R14,1*%
%TO.N,Earth*%
X63250000Y-103810000D03*
%TO.P,R14,2*%
%TO.N,/-5V_REG_FB*%
X63250000Y-102790000D03*
%TD*%
D26*
%TO.P,C1,1*%
%TO.N,/+3.3V*%
X72350000Y-88500000D03*
%TO.P,C1,2*%
%TO.N,Earth*%
X70450000Y-88500000D03*
%TD*%
D30*
%TO.P,C4,1*%
%TO.N,/CP_CAP*%
X74980000Y-88500000D03*
%TO.P,C4,2*%
%TO.N,Earth*%
X74020000Y-88500000D03*
%TD*%
D10*
%TO.P,J1,1,In*%
%TO.N,/+5.5V*%
X74500000Y-49200000D03*
D11*
%TO.P,J1,2,Ext*%
%TO.N,Earth*%
X71947300Y-46647300D03*
X71947300Y-51752700D03*
X77052700Y-46647300D03*
X77052700Y-51752700D03*
%TD*%
D20*
%TO.P,TP21,1,1*%
%TO.N,Earth*%
X51000000Y-79250000D03*
%TD*%
D33*
%TO.P,L1,1,1*%
%TO.N,Net-(L1-Pad1)*%
X74500002Y-77937500D03*
%TO.P,L1,2,2*%
%TO.N,/+5.5V*%
X74500002Y-80062500D03*
%TD*%
D21*
%TO.P,C9,1*%
%TO.N,/+2.75V*%
X85750000Y-70980000D03*
%TO.P,C9,2*%
%TO.N,/+2.75V_REG_FB*%
X85750000Y-70020000D03*
%TD*%
D34*
%TO.N,/+3.3V*%
X72350000Y-90049998D03*
X76650000Y-81350000D03*
D35*
X72776117Y-84255972D03*
D34*
%TO.N,Earth*%
X43250000Y-67000000D03*
X82850002Y-67050000D03*
X105750000Y-67000000D03*
X43250000Y-102000000D03*
X100750000Y-37000000D03*
X105750000Y-117000000D03*
X63250000Y-37000000D03*
X105750000Y-77000000D03*
D35*
X83995004Y-100448000D03*
D34*
X105750000Y-59500000D03*
X43250000Y-132000000D03*
X43250000Y-44500000D03*
X43250000Y-57000000D03*
X43250000Y-129500000D03*
X105750000Y-97000000D03*
X80570004Y-104523000D03*
X60750000Y-134500000D03*
D35*
X77750000Y-70800000D03*
D34*
X43250000Y-134500000D03*
X43250000Y-47000000D03*
X105750000Y-122000000D03*
X105750000Y-87000000D03*
X70450002Y-81550000D03*
X68250000Y-37000000D03*
X78250000Y-134500000D03*
X80750000Y-37000000D03*
X43250000Y-107000000D03*
X58250000Y-37000000D03*
X68400000Y-71345000D03*
X89500000Y-71650002D03*
X105750000Y-79500000D03*
X82845004Y-104523000D03*
X105750000Y-114500000D03*
X45750000Y-134500000D03*
D35*
X65000000Y-71045000D03*
D34*
X43250000Y-109500000D03*
X43250000Y-117000000D03*
D35*
X85750000Y-66600000D03*
D34*
X105750000Y-64500000D03*
X105750000Y-62000000D03*
X77000002Y-76700000D03*
X43250000Y-79500000D03*
X105750000Y-99500000D03*
X88250000Y-37000000D03*
X66150000Y-100070000D03*
X105750000Y-92000000D03*
X105750000Y-74500000D03*
X98250000Y-37000000D03*
D35*
X84000002Y-67350000D03*
D34*
X53250000Y-134500000D03*
X75750000Y-37000000D03*
X105750000Y-39500000D03*
D35*
X74020000Y-89380002D03*
D34*
X43250000Y-42000000D03*
X105750000Y-134500000D03*
X93250000Y-134500000D03*
X105750000Y-119500000D03*
X82850002Y-71425000D03*
X89700004Y-99800000D03*
D35*
X77750000Y-103949998D03*
D34*
X105750000Y-84500000D03*
X43250000Y-37000000D03*
D35*
X77000000Y-87050000D03*
D34*
X105750000Y-127000000D03*
X59500000Y-99800000D03*
X85750000Y-134500000D03*
X43250000Y-89500000D03*
X43250000Y-52000000D03*
X43250000Y-82000000D03*
X105750000Y-109500000D03*
D35*
X65000000Y-104145000D03*
D34*
X80750000Y-134500000D03*
X53250000Y-37000000D03*
X105750000Y-54500000D03*
X43250000Y-124500000D03*
X63250000Y-134500000D03*
X48250000Y-134500000D03*
X43250000Y-127000000D03*
X80575002Y-71425000D03*
X45750000Y-37000000D03*
X105750000Y-52000000D03*
X80600002Y-67050000D03*
X103250000Y-37000000D03*
X105750000Y-47000000D03*
X43250000Y-49500000D03*
X100750000Y-134500000D03*
X105750000Y-132000000D03*
X105750000Y-104500000D03*
X58250000Y-134500000D03*
X68250000Y-134500000D03*
X70750000Y-134500000D03*
X43250000Y-59500000D03*
X105750000Y-102000000D03*
X105750000Y-69500000D03*
D35*
X87250000Y-66600000D03*
D34*
X43250000Y-119500000D03*
X68400000Y-104445000D03*
X105750000Y-107000000D03*
X43250000Y-64500000D03*
X43250000Y-84500000D03*
X73250000Y-37000000D03*
X105750000Y-57000000D03*
X66150000Y-71345000D03*
X105750000Y-82000000D03*
X75750000Y-134500000D03*
X59500000Y-71550000D03*
X55750000Y-37000000D03*
X43250000Y-92000000D03*
X55750000Y-134500000D03*
X90750000Y-134500000D03*
X68425000Y-66970000D03*
X105750000Y-112000000D03*
X43250000Y-87000000D03*
X43250000Y-122000000D03*
X105750000Y-49500000D03*
X103250000Y-134500000D03*
X60750000Y-37000000D03*
X85750000Y-37000000D03*
X105750000Y-94500000D03*
X80595004Y-100148000D03*
X70750000Y-37000000D03*
X105750000Y-37000000D03*
X50750000Y-37000000D03*
D35*
X71250000Y-67550000D03*
D34*
X78250000Y-37000000D03*
X43250000Y-97000000D03*
X72000000Y-94800000D03*
X83250000Y-37000000D03*
X105750000Y-44500000D03*
D35*
X71250000Y-100699998D03*
D34*
X88250000Y-134500000D03*
X98250000Y-134500000D03*
X105750000Y-129500000D03*
X82845004Y-100148000D03*
X105750000Y-72000000D03*
X83250000Y-134500000D03*
X43250000Y-99500000D03*
X105750000Y-89500000D03*
X43250000Y-94500000D03*
X68425000Y-100070000D03*
X43250000Y-74500000D03*
X43250000Y-54500000D03*
X95750000Y-37000000D03*
X105750000Y-124500000D03*
X43250000Y-72000000D03*
X48250000Y-37000000D03*
X65750000Y-134500000D03*
X43250000Y-39500000D03*
X90750000Y-37000000D03*
D35*
X72000000Y-84449998D03*
D34*
X95750000Y-134500000D03*
X93250000Y-37000000D03*
X73250000Y-134500000D03*
X66150000Y-66970000D03*
X43250000Y-112000000D03*
X105750000Y-42000000D03*
X65750000Y-37000000D03*
X66150000Y-104445000D03*
X43250000Y-77000000D03*
X43250000Y-114500000D03*
X43250000Y-104500000D03*
X43250000Y-62000000D03*
X43250000Y-69500000D03*
X50750000Y-134500000D03*
%TD*%
D36*
%TO.N,/+3.3V*%
X72350000Y-90049998D02*
X72350000Y-88500000D01*
D37*
X75600002Y-83300000D02*
X75900002Y-83000000D01*
X73250000Y-84449998D02*
X73250000Y-84799999D01*
D38*
X73701042Y-87800000D02*
X73050000Y-87800000D01*
D37*
X75250001Y-84799999D02*
X75250001Y-84150001D01*
X75250001Y-84150001D02*
X75600002Y-83800000D01*
X73055974Y-84255972D02*
X73250000Y-84449998D01*
D36*
X76650000Y-81350000D02*
X76650000Y-83000000D01*
D38*
X73050000Y-87800000D02*
X72350000Y-88500000D01*
X74250000Y-87251042D02*
X73701042Y-87800000D01*
D37*
X72776117Y-84255972D02*
X73055974Y-84255972D01*
X75600002Y-83800000D02*
X75600002Y-83300000D01*
D38*
X74250000Y-86699998D02*
X74250000Y-87251042D01*
D37*
X75900002Y-83000000D02*
X76650000Y-83000000D01*
%TO.N,Earth*%
X67900000Y-71345000D02*
X67575002Y-71020002D01*
X65000000Y-103545000D02*
X65325000Y-103220000D01*
X82375004Y-71425000D02*
X82075000Y-71124996D01*
X66150000Y-104445000D02*
X66650000Y-104445000D01*
X66624998Y-100070000D02*
X66925002Y-100370004D01*
X81425000Y-67374998D02*
X81425000Y-67962000D01*
X82075000Y-71124996D02*
X82075000Y-70538000D01*
X66150000Y-71345000D02*
X66650000Y-71345000D01*
X66150000Y-66970000D02*
X66624998Y-66970000D01*
X68400000Y-104445000D02*
X67900000Y-104445000D01*
D36*
X89500000Y-71650002D02*
X89500000Y-70150000D01*
D37*
X67575002Y-67269998D02*
X67575002Y-67857000D01*
X67575002Y-104120002D02*
X67575002Y-103533000D01*
X81095004Y-100148000D02*
X81420002Y-100472998D01*
X76049999Y-85749997D02*
X75074999Y-85749997D01*
X72000000Y-84449998D02*
X72000000Y-85240000D01*
X66925002Y-71069998D02*
X66925002Y-70433000D01*
X83675002Y-68275000D02*
X83150000Y-68275000D01*
X68425000Y-66970000D02*
X67875000Y-66970000D01*
X81100002Y-67050000D02*
X81425000Y-67374998D01*
X65000000Y-104145000D02*
X65000000Y-103545000D01*
X66624998Y-66970000D02*
X66925002Y-67270004D01*
X84000002Y-67350000D02*
X84000002Y-67950000D01*
X74750000Y-86699998D02*
X74750000Y-86242461D01*
X82070002Y-100423002D02*
X82070002Y-101060000D01*
X82845004Y-104523000D02*
X82370006Y-104523000D01*
X67575002Y-71020002D02*
X67575002Y-70433000D01*
X65000000Y-71045000D02*
X65000000Y-70445000D01*
X77000000Y-86260000D02*
X76560002Y-86260000D01*
X83995004Y-101048000D02*
X83670004Y-101373000D01*
X81420002Y-104223002D02*
X81420002Y-103636000D01*
X81425000Y-71125002D02*
X81425000Y-70538000D01*
X85750000Y-66600000D02*
X85750000Y-67740000D01*
X67900000Y-104445000D02*
X67575002Y-104120002D01*
X67875000Y-66970000D02*
X67575002Y-67269998D01*
X66650000Y-104445000D02*
X66925002Y-104169998D01*
X81125002Y-71425000D02*
X81425000Y-71125002D01*
X82075000Y-67325002D02*
X82075000Y-67962000D01*
X66925002Y-100370004D02*
X66925002Y-100957000D01*
D36*
X59500000Y-71550000D02*
X59500000Y-70150000D01*
D37*
X80570004Y-104523000D02*
X81120004Y-104523000D01*
X82850002Y-71425000D02*
X82375004Y-71425000D01*
X82850002Y-67050000D02*
X82350002Y-67050000D01*
D36*
X72000000Y-94800000D02*
X72000000Y-93450500D01*
D39*
X77750000Y-70800000D02*
X77750000Y-69680000D01*
D37*
X68425000Y-100070000D02*
X67875000Y-100070000D01*
X80595004Y-100148000D02*
X81095004Y-100148000D01*
X65325000Y-103220000D02*
X65850002Y-103220000D01*
X82845004Y-100148000D02*
X82345004Y-100148000D01*
X84000002Y-67950000D02*
X83675002Y-68275000D01*
X66925002Y-104169998D02*
X66925002Y-103533000D01*
X83995004Y-100448000D02*
X83995004Y-101048000D01*
X80600002Y-67050000D02*
X81100002Y-67050000D01*
X82350002Y-67050000D02*
X82075000Y-67325002D01*
D39*
X77750000Y-103949998D02*
X77750000Y-102780000D01*
D37*
X65000000Y-70445000D02*
X65325000Y-70120000D01*
X83670004Y-101373000D02*
X83145002Y-101373000D01*
X76560002Y-86260000D02*
X76049999Y-85749997D01*
X82370006Y-104523000D02*
X82070002Y-104222996D01*
X74020000Y-89380002D02*
X74020000Y-88500000D01*
D36*
X70450002Y-81550000D02*
X70450002Y-82991087D01*
X77000002Y-76700000D02*
X77000002Y-78050000D01*
D37*
X81420002Y-100472998D02*
X81420002Y-101060000D01*
X66650000Y-71345000D02*
X66925002Y-71069998D01*
X68400000Y-71345000D02*
X67900000Y-71345000D01*
X87250000Y-66600000D02*
X87250000Y-67770000D01*
X82070002Y-104222996D02*
X82070002Y-103636000D01*
X81120004Y-104523000D02*
X81420002Y-104223002D01*
D36*
X59500000Y-99800000D02*
X59500000Y-101350000D01*
D37*
X66925002Y-67270004D02*
X66925002Y-67857000D01*
X82345004Y-100148000D02*
X82070002Y-100423002D01*
D36*
X89700004Y-99800000D02*
X89700004Y-101350000D01*
D37*
X80575002Y-71425000D02*
X81125002Y-71425000D01*
X65325000Y-70120000D02*
X65850002Y-70120000D01*
X67575002Y-100369998D02*
X67575002Y-100957000D01*
D40*
X73250000Y-86699998D02*
X73250000Y-86257539D01*
D37*
X77000000Y-87050000D02*
X77000000Y-86260000D01*
X66150000Y-100070000D02*
X66624998Y-100070000D01*
D39*
X71250000Y-100699998D02*
X71250000Y-101820000D01*
X71250000Y-67550000D02*
X71250000Y-68720000D01*
D37*
X67875000Y-100070000D02*
X67575002Y-100369998D01*
D38*
%TO.N,/C1-*%
X74750000Y-83950002D02*
X74980000Y-83720002D01*
X74980000Y-83720002D02*
X74980000Y-83000000D01*
X74750000Y-84799999D02*
X74750000Y-83950002D01*
%TO.N,/C1+*%
X74020000Y-83719998D02*
X74020000Y-83000000D01*
X74250000Y-84799999D02*
X74250000Y-83949998D01*
X74250000Y-83949998D02*
X74020000Y-83719998D01*
D37*
%TO.N,/CP_CAP*%
X75250001Y-87649999D02*
X74980000Y-87920000D01*
X74980000Y-87920000D02*
X74980000Y-88500000D01*
X75250001Y-86699998D02*
X75250001Y-87649999D01*
%TO.N,/CP_POS_OUT*%
X71650002Y-83000000D02*
X72350000Y-83000000D01*
X71350002Y-84050000D02*
X71350002Y-83300000D01*
X72000002Y-81200000D02*
X72000002Y-79962500D01*
X73050002Y-83000000D02*
X73350002Y-83300000D01*
X73350002Y-83300000D02*
X73350002Y-83800000D01*
X73750002Y-84200000D02*
X73750002Y-84799999D01*
X72350000Y-81549998D02*
X72000002Y-81200000D01*
X73350002Y-83800000D02*
X73750002Y-84200000D01*
X71350002Y-83300000D02*
X71650002Y-83000000D01*
X72350000Y-83000000D02*
X72350000Y-81549998D01*
X72350000Y-83000000D02*
X73050002Y-83000000D01*
X70750000Y-85240000D02*
X70750000Y-84650002D01*
X70750000Y-84650002D02*
X71350002Y-84050000D01*
%TO.N,/CP_NEG_OUT*%
X75750000Y-86699998D02*
X75750000Y-86949998D01*
X78250000Y-86260000D02*
X78250000Y-86900002D01*
X76100002Y-87300000D02*
X76350002Y-87300000D01*
X75750000Y-86949998D02*
X76100002Y-87300000D01*
X77600002Y-87550000D02*
X77600002Y-88300000D01*
X77000000Y-90449998D02*
X77000000Y-91588000D01*
X77400002Y-88500000D02*
X76650000Y-88500000D01*
X76650000Y-87599998D02*
X76650000Y-88500000D01*
X76350002Y-87300000D02*
X76650000Y-87599998D01*
X78250000Y-86900002D02*
X77600002Y-87550000D01*
X77600002Y-88300000D02*
X77400002Y-88500000D01*
X76650000Y-88500000D02*
X76650000Y-90099998D01*
X76650000Y-90099998D02*
X77000000Y-90449998D01*
D41*
%TO.N,/+5.5V*%
X74500000Y-49200000D02*
X74500000Y-41700000D01*
%TO.N,/-5.5V*%
X74500000Y-122300000D02*
X74500000Y-129800000D01*
D37*
%TO.N,/+2.75V*%
X83150000Y-70225000D02*
X84150002Y-70225000D01*
X84905002Y-70980000D02*
X85750000Y-70980000D01*
D41*
X86250000Y-49200000D02*
X86250000Y-41700000D01*
D37*
X84150002Y-70225000D02*
X84905002Y-70980000D01*
%TO.N,/+2.75V_REG_FB*%
X83150000Y-69575000D02*
X84075002Y-69575000D01*
X85780000Y-69920000D02*
X85750000Y-69950000D01*
X84075002Y-69575000D02*
X84890002Y-68760000D01*
X84890002Y-68760000D02*
X85750000Y-68760000D01*
%TO.N,/+2.75V_REG_NR{slash}SS*%
X79170002Y-68720000D02*
X77750000Y-68720000D01*
X80350000Y-68925000D02*
X79375002Y-68925000D01*
X79375002Y-68925000D02*
X79170002Y-68720000D01*
%TO.N,/-2.75V*%
X84150002Y-103325000D02*
X84905002Y-104080000D01*
X83145002Y-103323000D02*
X83147002Y-103325000D01*
D41*
X86250000Y-122300000D02*
X86250000Y-129800000D01*
D37*
X84900004Y-104078000D02*
X85745002Y-104078000D01*
X83147002Y-103325000D02*
X84143004Y-103325000D01*
X84143004Y-103325000D02*
X84145004Y-103323000D01*
%TO.N,/-2.75V_REG_FB*%
X83150000Y-102675000D02*
X84075002Y-102675000D01*
X84075002Y-102675000D02*
X84890002Y-101860000D01*
X84890002Y-101860000D02*
X85750000Y-101860000D01*
%TO.N,/-2.75V_REG_NR{slash}SS*%
X79075002Y-102025000D02*
X80350000Y-102025000D01*
X78870002Y-101820000D02*
X79075002Y-102025000D01*
X77750000Y-101820000D02*
X78870002Y-101820000D01*
%TO.N,/+5V*%
X65850000Y-68175000D02*
X64975002Y-68175000D01*
X64270002Y-67470000D02*
X63250000Y-67470000D01*
D41*
X62750000Y-49200000D02*
X62750000Y-41700000D01*
D37*
X64975002Y-68175000D02*
X64270002Y-67470000D01*
%TO.N,/+5V_REG_FB*%
X64950002Y-68825000D02*
X64085002Y-69690000D01*
X65850000Y-68825000D02*
X64950002Y-68825000D01*
X64085002Y-69690000D02*
X63250000Y-69690000D01*
%TO.N,/+5V_REG_NR{slash}SS*%
X69980002Y-69680000D02*
X69775002Y-69475000D01*
X71250000Y-69680000D02*
X69980002Y-69680000D01*
X69775002Y-69475000D02*
X68650000Y-69475000D01*
D41*
%TO.N,/-5V*%
X62750000Y-129800000D02*
X62750000Y-122300000D01*
D37*
X65850000Y-101275000D02*
X64975002Y-101275000D01*
X64270002Y-100570000D02*
X63250000Y-100570000D01*
X64975002Y-101275000D02*
X64270002Y-100570000D01*
%TO.N,/-5V_REG_FB*%
X64085002Y-102790000D02*
X63250000Y-102790000D01*
X65850000Y-101925000D02*
X64950002Y-101925000D01*
X64950002Y-101925000D02*
X64085002Y-102790000D01*
%TO.N,/-5V_REG_NR{slash}SS*%
X69775002Y-102575000D02*
X69980002Y-102780000D01*
X68650000Y-102575000D02*
X69775002Y-102575000D01*
X69980002Y-102780000D02*
X71250000Y-102780000D01*
D39*
%TO.N,Net-(L1-Pad1)*%
X74500002Y-77937500D02*
X72200002Y-77937500D01*
%TO.N,Net-(L2-Pad1)*%
X74500000Y-93563000D02*
X76850000Y-93563000D01*
D37*
%TO.N,/CP_POS_FB*%
X72000000Y-86949998D02*
X72000000Y-86260000D01*
X73750002Y-87150000D02*
X73600002Y-87300000D01*
X73600002Y-87300000D02*
X72350002Y-87300000D01*
X72350002Y-87300000D02*
X72000000Y-86949998D01*
X73750002Y-86699998D02*
X73750002Y-87150000D01*
X72000000Y-86260000D02*
X70750000Y-86260000D01*
%TO.N,/CP_NEG_FB*%
X75750000Y-84799999D02*
X76100001Y-84799999D01*
X76540002Y-85240000D02*
X78250000Y-85240000D01*
X76100001Y-84799999D02*
X76540002Y-85240000D01*
%TD*%
%TA.AperFunction,Conductor*%
%TO.N,/+5V*%
G36*
X63625002Y-53675000D02*
G01*
X61875002Y-53675000D01*
X61875002Y-50550000D01*
X63625002Y-50550000D01*
X63625002Y-53675000D01*
G37*
%TD.AperFunction*%
%TD*%
%TA.AperFunction,Conductor*%
%TO.N,/+5V_REG_FB*%
G36*
X63619325Y-68129704D02*
G01*
X63675263Y-68171571D01*
X63699685Y-68237033D01*
X63700002Y-68245890D01*
X63700002Y-69926000D01*
X63680317Y-69993039D01*
X63627513Y-70038794D01*
X63576002Y-70050000D01*
X62924002Y-70050000D01*
X62856963Y-70030315D01*
X62811208Y-69977511D01*
X62800002Y-69926000D01*
X62800002Y-69050000D01*
X62800002Y-68850000D01*
X62575002Y-68850000D01*
X61424002Y-68850000D01*
X61356963Y-68830315D01*
X61311208Y-68777511D01*
X61300002Y-68726000D01*
X61300002Y-68254500D01*
X61319687Y-68187461D01*
X61372491Y-68141706D01*
X61424002Y-68130500D01*
X63500993Y-68130500D01*
X63501002Y-68130500D01*
X63544686Y-68125803D01*
X63549635Y-68124726D01*
X63619325Y-68129704D01*
G37*
%TD.AperFunction*%
%TD*%
%TA.AperFunction,Conductor*%
%TO.N,/-2.75V_REG_FB*%
G36*
X86425002Y-102650000D02*
G01*
X86200002Y-102650000D01*
X86200002Y-102450000D01*
X86425002Y-102650000D01*
G37*
%TD.AperFunction*%
%TD*%
%TA.AperFunction,Conductor*%
%TO.N,/+5V*%
G36*
X63625002Y-61503744D02*
G01*
X63605317Y-61570783D01*
X63594710Y-61584952D01*
X63012084Y-62257212D01*
X62953305Y-62294980D01*
X62918381Y-62300000D01*
X60900001Y-62300000D01*
X60400002Y-62799999D01*
X60400002Y-62800000D01*
X60400002Y-66800000D01*
X60575002Y-66975000D01*
X63501002Y-66975000D01*
X63568041Y-66994685D01*
X63613796Y-67047489D01*
X63625002Y-67099000D01*
X63625002Y-67801000D01*
X63605317Y-67868039D01*
X63552513Y-67913794D01*
X63501002Y-67925000D01*
X61200002Y-67925000D01*
X61075002Y-68075000D01*
X61075002Y-68975000D01*
X61325002Y-69225000D01*
X62023640Y-69225000D01*
X62090679Y-69244685D01*
X62111321Y-69261319D01*
X62288683Y-69438681D01*
X62322168Y-69500004D01*
X62325002Y-69526362D01*
X62325002Y-69923638D01*
X62305317Y-69990677D01*
X62288687Y-70011314D01*
X62199002Y-70101000D01*
X62126812Y-70173190D01*
X62065489Y-70206674D01*
X62019182Y-70205068D01*
X62018893Y-70207266D01*
X61959901Y-70199500D01*
X61540105Y-70199500D01*
X61524386Y-70201569D01*
X61490513Y-70206028D01*
X61490511Y-70206029D01*
X61490509Y-70206029D01*
X61474742Y-70213382D01*
X61422337Y-70225000D01*
X60699002Y-70225000D01*
X60631963Y-70205315D01*
X60586208Y-70152511D01*
X60575002Y-70101000D01*
X60575002Y-69475000D01*
X60400002Y-69300000D01*
X56701364Y-69300000D01*
X56634325Y-69280315D01*
X56613683Y-69263681D01*
X56186321Y-68836319D01*
X56152836Y-68774996D01*
X56150002Y-68748638D01*
X56150002Y-56351362D01*
X56169687Y-56284323D01*
X56186321Y-56263681D01*
X56863683Y-55586319D01*
X56925006Y-55552834D01*
X56951364Y-55550000D01*
X61150002Y-55550000D01*
X61875002Y-54800000D01*
X61875002Y-53675000D01*
X63625002Y-53675000D01*
X63625002Y-61503744D01*
G37*
%TD.AperFunction*%
%TD*%
%TA.AperFunction,Conductor*%
%TO.N,/-5.5V*%
G36*
X71717539Y-89719685D02*
G01*
X71763294Y-89772489D01*
X71774500Y-89824000D01*
X71774500Y-89845528D01*
X71766598Y-89885257D01*
X71767060Y-89885381D01*
X71765171Y-89892429D01*
X71765063Y-89892976D01*
X71764956Y-89893233D01*
X71744318Y-90049996D01*
X71744318Y-90049999D01*
X71764955Y-90206758D01*
X71764956Y-90206760D01*
X71813667Y-90324360D01*
X71825464Y-90352839D01*
X71921718Y-90478280D01*
X72047159Y-90574534D01*
X72193238Y-90635042D01*
X72271619Y-90645361D01*
X72349999Y-90655680D01*
X72350000Y-90655680D01*
X72350001Y-90655680D01*
X72402254Y-90648800D01*
X72506762Y-90635042D01*
X72652841Y-90574534D01*
X72778282Y-90478280D01*
X72874536Y-90352839D01*
X72935044Y-90206760D01*
X72955682Y-90049998D01*
X72935044Y-89893236D01*
X72935043Y-89893233D01*
X72934937Y-89892976D01*
X72934828Y-89892429D01*
X72932940Y-89885381D01*
X72933401Y-89885257D01*
X72925500Y-89845528D01*
X72925500Y-89824000D01*
X72945185Y-89756961D01*
X72997989Y-89711206D01*
X73049500Y-89700000D01*
X73578394Y-89700000D01*
X73645433Y-89719685D01*
X73672106Y-89742796D01*
X73688872Y-89762145D01*
X73809947Y-89839955D01*
X73809950Y-89839956D01*
X73809949Y-89839956D01*
X73948036Y-89880501D01*
X73948038Y-89880502D01*
X73948039Y-89880502D01*
X74091962Y-89880502D01*
X74091962Y-89880501D01*
X74230053Y-89839955D01*
X74351128Y-89762145D01*
X74367894Y-89742796D01*
X74426673Y-89705022D01*
X74461606Y-89700000D01*
X74823640Y-89700000D01*
X74890679Y-89719685D01*
X74911321Y-89736319D01*
X75338683Y-90163681D01*
X75372168Y-90225004D01*
X75375002Y-90251362D01*
X75375002Y-91898638D01*
X75355317Y-91965677D01*
X75338683Y-91986319D01*
X74911321Y-92413681D01*
X74849998Y-92447166D01*
X74823640Y-92450000D01*
X70875001Y-92450000D01*
X70375002Y-92949999D01*
X70375002Y-92950000D01*
X70375002Y-95450000D01*
X71125002Y-96200000D01*
X79573640Y-96200000D01*
X79640679Y-96219685D01*
X79661321Y-96236319D01*
X80338683Y-96913681D01*
X80372168Y-96975004D01*
X80375002Y-97001362D01*
X80375002Y-99506297D01*
X80355317Y-99573336D01*
X80302513Y-99619091D01*
X80298480Y-99620847D01*
X80294278Y-99622587D01*
X80292160Y-99623465D01*
X80166723Y-99719716D01*
X80070467Y-99845160D01*
X80009960Y-99991237D01*
X80009959Y-99991239D01*
X79989322Y-100147998D01*
X79989322Y-100148001D01*
X80009959Y-100304760D01*
X80009960Y-100304762D01*
X80069101Y-100447542D01*
X80070468Y-100450841D01*
X80166722Y-100576282D01*
X80292163Y-100672536D01*
X80292164Y-100672536D01*
X80292165Y-100672537D01*
X80298454Y-100675142D01*
X80352858Y-100718982D01*
X80374923Y-100785276D01*
X80375002Y-100789703D01*
X80375002Y-101545500D01*
X80355317Y-101612539D01*
X80302513Y-101658294D01*
X80251002Y-101669500D01*
X80030247Y-101669500D01*
X79971773Y-101681131D01*
X79960489Y-101685806D01*
X79959577Y-101683605D01*
X79908875Y-101699480D01*
X79906666Y-101699500D01*
X79261190Y-101699500D01*
X79194151Y-101679815D01*
X79173509Y-101663181D01*
X79114046Y-101603718D01*
X79106736Y-101595741D01*
X79102348Y-101590512D01*
X79082457Y-101566806D01*
X79049736Y-101547914D01*
X79040618Y-101542104D01*
X79009686Y-101520446D01*
X79004863Y-101518197D01*
X78988057Y-101511235D01*
X78983044Y-101509411D01*
X78945854Y-101502852D01*
X78935300Y-101500512D01*
X78898810Y-101490735D01*
X78861183Y-101494028D01*
X78850374Y-101494500D01*
X78267403Y-101494500D01*
X78200364Y-101474815D01*
X78179722Y-101458182D01*
X78167040Y-101445500D01*
X78118316Y-101396776D01*
X78009487Y-101346028D01*
X78009485Y-101346027D01*
X78009486Y-101346027D01*
X77959901Y-101339500D01*
X77540105Y-101339500D01*
X77524386Y-101341569D01*
X77490513Y-101346028D01*
X77490511Y-101346029D01*
X77490509Y-101346029D01*
X77381683Y-101396776D01*
X77296776Y-101481683D01*
X77246027Y-101590514D01*
X77239500Y-101640097D01*
X77239500Y-101999894D01*
X77239501Y-101999900D01*
X77246028Y-102049487D01*
X77246029Y-102049489D01*
X77246029Y-102049490D01*
X77296776Y-102158316D01*
X77350779Y-102212319D01*
X77384264Y-102273642D01*
X77379280Y-102343334D01*
X77350779Y-102387681D01*
X77296776Y-102441683D01*
X77246027Y-102550514D01*
X77239500Y-102600097D01*
X77239500Y-102959894D01*
X77239501Y-102959900D01*
X77246028Y-103009487D01*
X77246029Y-103009489D01*
X77246029Y-103009490D01*
X77267018Y-103054500D01*
X77285726Y-103094620D01*
X77287882Y-103099242D01*
X77299500Y-103151647D01*
X77299500Y-103704661D01*
X77288294Y-103756172D01*
X77264835Y-103807539D01*
X77264834Y-103807540D01*
X77244353Y-103949998D01*
X77264834Y-104092454D01*
X77324622Y-104223369D01*
X77324623Y-104223371D01*
X77418872Y-104332141D01*
X77539947Y-104409951D01*
X77539950Y-104409952D01*
X77539949Y-104409952D01*
X77678036Y-104450497D01*
X77678038Y-104450498D01*
X77678039Y-104450498D01*
X77821962Y-104450498D01*
X77821962Y-104450497D01*
X77960053Y-104409951D01*
X78081128Y-104332141D01*
X78175377Y-104223371D01*
X78235165Y-104092455D01*
X78255647Y-103949998D01*
X78235165Y-103807541D01*
X78232484Y-103801671D01*
X78211706Y-103756172D01*
X78200500Y-103704661D01*
X78200500Y-103151647D01*
X78212118Y-103099242D01*
X78213096Y-103097145D01*
X78253972Y-103009487D01*
X78260500Y-102959901D01*
X78260499Y-102600100D01*
X78253972Y-102550513D01*
X78203224Y-102441684D01*
X78149221Y-102387681D01*
X78115736Y-102326358D01*
X78120720Y-102256666D01*
X78149220Y-102212319D01*
X78179723Y-102181817D01*
X78241047Y-102148333D01*
X78267403Y-102145500D01*
X78683814Y-102145500D01*
X78750853Y-102165185D01*
X78771495Y-102181819D01*
X78830952Y-102241276D01*
X78838259Y-102249250D01*
X78862543Y-102278190D01*
X78862545Y-102278191D01*
X78862547Y-102278194D01*
X78862549Y-102278195D01*
X78862550Y-102278196D01*
X78895258Y-102297080D01*
X78904381Y-102302892D01*
X78908860Y-102306028D01*
X78935318Y-102324554D01*
X78935321Y-102324554D01*
X78940178Y-102326820D01*
X78956935Y-102333760D01*
X78961955Y-102335587D01*
X78961957Y-102335588D01*
X78999145Y-102342145D01*
X79009708Y-102344487D01*
X79046195Y-102354264D01*
X79083825Y-102350971D01*
X79094632Y-102350500D01*
X79728193Y-102350500D01*
X79795232Y-102370185D01*
X79840987Y-102422989D01*
X79850931Y-102492147D01*
X79849810Y-102498694D01*
X79849500Y-102500252D01*
X79849500Y-102849752D01*
X79861131Y-102908229D01*
X79861132Y-102908230D01*
X79905447Y-102974552D01*
X79971769Y-103018867D01*
X79971770Y-103018868D01*
X80030247Y-103030499D01*
X80030250Y-103030500D01*
X80251002Y-103030500D01*
X80318041Y-103050185D01*
X80363796Y-103102989D01*
X80375002Y-103154500D01*
X80375002Y-103870941D01*
X80355317Y-103937980D01*
X80302513Y-103983735D01*
X80298455Y-103985502D01*
X80267165Y-103998462D01*
X80267162Y-103998464D01*
X80141723Y-104094716D01*
X80045467Y-104220160D01*
X79984960Y-104366237D01*
X79984959Y-104366239D01*
X79964322Y-104522998D01*
X79964322Y-104523001D01*
X79984959Y-104679760D01*
X79984960Y-104679762D01*
X80024903Y-104776194D01*
X80045468Y-104825841D01*
X80141722Y-104951282D01*
X80267163Y-105047536D01*
X80298457Y-105060498D01*
X80352857Y-105104337D01*
X80374923Y-105170631D01*
X80375002Y-105175058D01*
X80375002Y-105648638D01*
X80355317Y-105715677D01*
X80338683Y-105736319D01*
X79661321Y-106413681D01*
X79599998Y-106447166D01*
X79573640Y-106450000D01*
X76875001Y-106450000D01*
X76125002Y-107199999D01*
X76125002Y-117141921D01*
X76107948Y-117200000D01*
X72894700Y-117200000D01*
X72880720Y-117179141D01*
X72875002Y-117141921D01*
X72875002Y-107200000D01*
X72125002Y-106450000D01*
X69426364Y-106450000D01*
X69359325Y-106430315D01*
X69338683Y-106413681D01*
X68661321Y-105736319D01*
X68627836Y-105674996D01*
X68625002Y-105648638D01*
X68625002Y-105084632D01*
X68644687Y-105017593D01*
X68697491Y-104971838D01*
X68701550Y-104970071D01*
X68702202Y-104969800D01*
X68702841Y-104969536D01*
X68828282Y-104873282D01*
X68924536Y-104747841D01*
X68985044Y-104601762D01*
X69005682Y-104445000D01*
X68985044Y-104288238D01*
X68924536Y-104142159D01*
X68828282Y-104016718D01*
X68828280Y-104016717D01*
X68828280Y-104016716D01*
X68702841Y-103920464D01*
X68702842Y-103920464D01*
X68702014Y-103920121D01*
X68701543Y-103919926D01*
X68700617Y-103919180D01*
X68695805Y-103916402D01*
X68696238Y-103915651D01*
X68647142Y-103876083D01*
X68625081Y-103809788D01*
X68625002Y-103805368D01*
X68625002Y-103054500D01*
X68644687Y-102987461D01*
X68697491Y-102941706D01*
X68749002Y-102930500D01*
X68969750Y-102930500D01*
X68969751Y-102930499D01*
X69028231Y-102918867D01*
X69028235Y-102918864D01*
X69039511Y-102914194D01*
X69040422Y-102916394D01*
X69091125Y-102900520D01*
X69093334Y-102900500D01*
X69588814Y-102900500D01*
X69655853Y-102920185D01*
X69676495Y-102936819D01*
X69735952Y-102996276D01*
X69743259Y-103004250D01*
X69767543Y-103033190D01*
X69767545Y-103033191D01*
X69767547Y-103033194D01*
X69767549Y-103033195D01*
X69767550Y-103033196D01*
X69800258Y-103052080D01*
X69809381Y-103057892D01*
X69840315Y-103079552D01*
X69840318Y-103079554D01*
X69840321Y-103079554D01*
X69845178Y-103081820D01*
X69861935Y-103088760D01*
X69866955Y-103090587D01*
X69866957Y-103090588D01*
X69904145Y-103097145D01*
X69914708Y-103099487D01*
X69951195Y-103109264D01*
X69988825Y-103105971D01*
X69999632Y-103105500D01*
X70732597Y-103105500D01*
X70799636Y-103125185D01*
X70820278Y-103141818D01*
X70881684Y-103203224D01*
X70990513Y-103253972D01*
X71040099Y-103260500D01*
X71459900Y-103260499D01*
X71509487Y-103253972D01*
X71618316Y-103203224D01*
X71703224Y-103118316D01*
X71753972Y-103009487D01*
X71760500Y-102959901D01*
X71760499Y-102600100D01*
X71753972Y-102550513D01*
X71703224Y-102441684D01*
X71649221Y-102387681D01*
X71615736Y-102326358D01*
X71620720Y-102256666D01*
X71649221Y-102212319D01*
X71661792Y-102199748D01*
X71703224Y-102158316D01*
X71753972Y-102049487D01*
X71760500Y-101999901D01*
X71760499Y-101640100D01*
X71753972Y-101590513D01*
X71713095Y-101502852D01*
X71712118Y-101500757D01*
X71700500Y-101448352D01*
X71700500Y-100945333D01*
X71711705Y-100893823D01*
X71735165Y-100842455D01*
X71755647Y-100699998D01*
X71735165Y-100557541D01*
X71675377Y-100426625D01*
X71581128Y-100317855D01*
X71460053Y-100240045D01*
X71460051Y-100240044D01*
X71460049Y-100240043D01*
X71460050Y-100240043D01*
X71321963Y-100199498D01*
X71321961Y-100199498D01*
X71178039Y-100199498D01*
X71178036Y-100199498D01*
X71039949Y-100240043D01*
X70918873Y-100317854D01*
X70824623Y-100426624D01*
X70824622Y-100426626D01*
X70764834Y-100557541D01*
X70744353Y-100699998D01*
X70764834Y-100842451D01*
X70764834Y-100842452D01*
X70764834Y-100842453D01*
X70764835Y-100842455D01*
X70788294Y-100893823D01*
X70799500Y-100945333D01*
X70799500Y-101448352D01*
X70787882Y-101500756D01*
X70746027Y-101590512D01*
X70746027Y-101590513D01*
X70739500Y-101640097D01*
X70739500Y-101999894D01*
X70739501Y-101999900D01*
X70746028Y-102049487D01*
X70746029Y-102049489D01*
X70746029Y-102049490D01*
X70796776Y-102158316D01*
X70850778Y-102212318D01*
X70884263Y-102273641D01*
X70879279Y-102343333D01*
X70850780Y-102387679D01*
X70820280Y-102418180D01*
X70758957Y-102451666D01*
X70732597Y-102454500D01*
X70166190Y-102454500D01*
X70099151Y-102434815D01*
X70078509Y-102418181D01*
X70019046Y-102358718D01*
X70011736Y-102350741D01*
X69987458Y-102321807D01*
X69987457Y-102321806D01*
X69954736Y-102302914D01*
X69945618Y-102297104D01*
X69914686Y-102275446D01*
X69909863Y-102273197D01*
X69893057Y-102266235D01*
X69888044Y-102264411D01*
X69850854Y-102257852D01*
X69840300Y-102255512D01*
X69803810Y-102245735D01*
X69766183Y-102249028D01*
X69755374Y-102249500D01*
X69271807Y-102249500D01*
X69204768Y-102229815D01*
X69159013Y-102177011D01*
X69149069Y-102107853D01*
X69150190Y-102101306D01*
X69150500Y-102099747D01*
X69150500Y-101750249D01*
X69150499Y-101750247D01*
X69138868Y-101691770D01*
X69138867Y-101691769D01*
X69094552Y-101625447D01*
X69028230Y-101581132D01*
X69028229Y-101581131D01*
X68969752Y-101569500D01*
X68969748Y-101569500D01*
X68749002Y-101569500D01*
X68681963Y-101549815D01*
X68636208Y-101497011D01*
X68625002Y-101445500D01*
X68625002Y-100719987D01*
X68644687Y-100652948D01*
X68697491Y-100607193D01*
X68701498Y-100605447D01*
X68727841Y-100594536D01*
X68853282Y-100498282D01*
X68949536Y-100372841D01*
X69010044Y-100226762D01*
X69027969Y-100090606D01*
X69030682Y-100070001D01*
X69030682Y-100069998D01*
X69010044Y-99913239D01*
X69010044Y-99913238D01*
X68949536Y-99767159D01*
X68853282Y-99641718D01*
X68853280Y-99641717D01*
X68853280Y-99641716D01*
X68727841Y-99545464D01*
X68727838Y-99545462D01*
X68701549Y-99534573D01*
X68647146Y-99490732D01*
X68625081Y-99424437D01*
X68625002Y-99420012D01*
X68625002Y-97950000D01*
X67875002Y-97200000D01*
X64676364Y-97200000D01*
X64609325Y-97180315D01*
X64588683Y-97163681D01*
X63911321Y-96486319D01*
X63877836Y-96424996D01*
X63875002Y-96398638D01*
X63875002Y-90502557D01*
X63894687Y-90435518D01*
X63912770Y-90413450D01*
X63975404Y-90352837D01*
X64591142Y-89756961D01*
X64613946Y-89734893D01*
X64675810Y-89702418D01*
X64700178Y-89700000D01*
X71650500Y-89700000D01*
X71717539Y-89719685D01*
G37*
%TD.AperFunction*%
%TD*%
%TA.AperFunction,Conductor*%
%TO.N,/-2.75V_REG_FB*%
G36*
X86143041Y-101469685D02*
G01*
X86188796Y-101522489D01*
X86200002Y-101574000D01*
X86200002Y-102650000D01*
X87576002Y-102650000D01*
X87643041Y-102669685D01*
X87688796Y-102722489D01*
X87700002Y-102774000D01*
X87700002Y-103245500D01*
X87680317Y-103312539D01*
X87627513Y-103358294D01*
X87576002Y-103369500D01*
X85498994Y-103369500D01*
X85455317Y-103374196D01*
X85450357Y-103375276D01*
X85380665Y-103370290D01*
X85324733Y-103328417D01*
X85300318Y-103262952D01*
X85300002Y-103254109D01*
X85300002Y-101574000D01*
X85319687Y-101506961D01*
X85372491Y-101461206D01*
X85424002Y-101450000D01*
X86076002Y-101450000D01*
X86143041Y-101469685D01*
G37*
%TD.AperFunction*%
%TD*%
%TA.AperFunction,Conductor*%
%TO.N,/-5V_REG_FB*%
G36*
X62825002Y-102125000D02*
G01*
X62600002Y-101925000D01*
X62825002Y-101925000D01*
X62825002Y-102125000D01*
G37*
%TD.AperFunction*%
%TD*%
%TA.AperFunction,Conductor*%
%TO.N,/-2.75V*%
G36*
X87125002Y-120950000D02*
G01*
X85375002Y-120950000D01*
X85375002Y-117825000D01*
X87125002Y-117825000D01*
X87125002Y-120950000D01*
G37*
%TD.AperFunction*%
%TD*%
%TA.AperFunction,Conductor*%
%TO.N,/+2.75V*%
G36*
X87125002Y-54800000D02*
G01*
X87850002Y-55550000D01*
X92048640Y-55550000D01*
X92115679Y-55569685D01*
X92136321Y-55586319D01*
X92813683Y-56263681D01*
X92847168Y-56325004D01*
X92850002Y-56351362D01*
X92850002Y-68748638D01*
X92830317Y-68815677D01*
X92813683Y-68836319D01*
X92386321Y-69263681D01*
X92324998Y-69297166D01*
X92298640Y-69300000D01*
X88600001Y-69300000D01*
X88350002Y-69549999D01*
X88350002Y-71245146D01*
X88330317Y-71312185D01*
X88309413Y-71336899D01*
X88109995Y-71518187D01*
X88047149Y-71548717D01*
X88027711Y-71550429D01*
X85450129Y-71573862D01*
X85382914Y-71554788D01*
X85336681Y-71502402D01*
X85325002Y-71449867D01*
X85325002Y-70724000D01*
X85344687Y-70656961D01*
X85397491Y-70611206D01*
X85449002Y-70600000D01*
X87725000Y-70600000D01*
X87725002Y-70600000D01*
X87850002Y-70450000D01*
X87850002Y-69550000D01*
X87600002Y-69300000D01*
X86901364Y-69300000D01*
X86834325Y-69280315D01*
X86813683Y-69263681D01*
X86636321Y-69086319D01*
X86602836Y-69024996D01*
X86600002Y-68998638D01*
X86600002Y-68601362D01*
X86619687Y-68534323D01*
X86636321Y-68513681D01*
X86813683Y-68336319D01*
X86875006Y-68302834D01*
X86901364Y-68300000D01*
X88100002Y-68300000D01*
X88350002Y-68050000D01*
X88350002Y-67601362D01*
X88369687Y-67534323D01*
X88386321Y-67513681D01*
X88600002Y-67300000D01*
X88600002Y-62800000D01*
X88100002Y-62300000D01*
X86081623Y-62300000D01*
X86014584Y-62280315D01*
X85987921Y-62257215D01*
X85405295Y-61584954D01*
X85376266Y-61521402D01*
X85375002Y-61503744D01*
X85375002Y-53675000D01*
X87125002Y-53675000D01*
X87125002Y-54800000D01*
G37*
%TD.AperFunction*%
%TD*%
%TA.AperFunction,Conductor*%
%TO.N,/+2.75V*%
G36*
X87140679Y-47819685D02*
G01*
X87161321Y-47836319D01*
X87588683Y-48263681D01*
X87622168Y-48325004D01*
X87625002Y-48351362D01*
X87625002Y-49998638D01*
X87605317Y-50065677D01*
X87588683Y-50086319D01*
X87125002Y-50549999D01*
X87125002Y-50550000D01*
X85375002Y-50550000D01*
X84911321Y-50086319D01*
X84877836Y-50024996D01*
X84875002Y-49998638D01*
X84875002Y-48351362D01*
X84894687Y-48284323D01*
X84911321Y-48263681D01*
X85338683Y-47836319D01*
X85400006Y-47802834D01*
X85426364Y-47800000D01*
X87073640Y-47800000D01*
X87140679Y-47819685D01*
G37*
%TD.AperFunction*%
%TD*%
%TA.AperFunction,Conductor*%
%TO.N,/-5V*%
G36*
X63643041Y-99969685D02*
G01*
X63688796Y-100022489D01*
X63700002Y-100074000D01*
X63700002Y-100776000D01*
X63680317Y-100843039D01*
X63627513Y-100888794D01*
X63576002Y-100900000D01*
X61275002Y-100900000D01*
X61150002Y-101050000D01*
X61150002Y-101950000D01*
X61400002Y-102200000D01*
X62098640Y-102200000D01*
X62165679Y-102219685D01*
X62186321Y-102236319D01*
X62363683Y-102413681D01*
X62397168Y-102475004D01*
X62400002Y-102501362D01*
X62400002Y-102898638D01*
X62380317Y-102965677D01*
X62363683Y-102986319D01*
X62186321Y-103163681D01*
X62124998Y-103197166D01*
X62098640Y-103200000D01*
X60900001Y-103200000D01*
X60650002Y-103449999D01*
X60650002Y-103898638D01*
X60630317Y-103965677D01*
X60613683Y-103986319D01*
X60400002Y-104199999D01*
X60400002Y-104200000D01*
X60400002Y-108700000D01*
X60900002Y-109200000D01*
X62918381Y-109200000D01*
X62985420Y-109219685D01*
X63012086Y-109242789D01*
X63594707Y-109915044D01*
X63623738Y-109978597D01*
X63625002Y-109996255D01*
X63625002Y-117825000D01*
X61875002Y-117825000D01*
X61875002Y-116700000D01*
X61150002Y-115950000D01*
X56951364Y-115950000D01*
X56884325Y-115930315D01*
X56863683Y-115913681D01*
X56186321Y-115236319D01*
X56152836Y-115174996D01*
X56150002Y-115148638D01*
X56150002Y-102751362D01*
X56169687Y-102684323D01*
X56186321Y-102663681D01*
X56613683Y-102236319D01*
X56675006Y-102202834D01*
X56701364Y-102200000D01*
X60400002Y-102200000D01*
X60650002Y-101950000D01*
X60650002Y-100254853D01*
X60669687Y-100187814D01*
X60690587Y-100163103D01*
X60889530Y-99982246D01*
X60952376Y-99951717D01*
X60972941Y-99950000D01*
X63576002Y-99950000D01*
X63643041Y-99969685D01*
G37*
%TD.AperFunction*%
%TD*%
%TA.AperFunction,Conductor*%
%TO.N,/-5V_REG_FB*%
G36*
X63668041Y-101144685D02*
G01*
X63713796Y-101197489D01*
X63725002Y-101249000D01*
X63725002Y-103001000D01*
X63705317Y-103068039D01*
X63652513Y-103113794D01*
X63601002Y-103125000D01*
X62949002Y-103125000D01*
X62881963Y-103105315D01*
X62836208Y-103052511D01*
X62825002Y-103001000D01*
X62825002Y-102125000D01*
X62825002Y-101925000D01*
X62600002Y-101925000D01*
X61479502Y-101925000D01*
X61412463Y-101905315D01*
X61366708Y-101852511D01*
X61355502Y-101801000D01*
X61355502Y-101249000D01*
X61375187Y-101181961D01*
X61427991Y-101136206D01*
X61479502Y-101125000D01*
X63601002Y-101125000D01*
X63668041Y-101144685D01*
G37*
%TD.AperFunction*%
%TD*%
%TA.AperFunction,Conductor*%
%TO.N,/+2.75V*%
G36*
X87125002Y-53675000D02*
G01*
X85375002Y-53675000D01*
X85375002Y-50550000D01*
X87125002Y-50550000D01*
X87125002Y-53675000D01*
G37*
%TD.AperFunction*%
%TD*%
%TA.AperFunction,Conductor*%
%TO.N,/+5.5V*%
G36*
X75390679Y-47819685D02*
G01*
X75411321Y-47836319D01*
X75838683Y-48263681D01*
X75872168Y-48325004D01*
X75875002Y-48351362D01*
X75875002Y-49998638D01*
X75855317Y-50065677D01*
X75838683Y-50086319D01*
X75375002Y-50549999D01*
X75375002Y-50550000D01*
X73625002Y-50550000D01*
X73161321Y-50086319D01*
X73127836Y-50024996D01*
X73125002Y-49998638D01*
X73125002Y-48351362D01*
X73144687Y-48284323D01*
X73161321Y-48263681D01*
X73588683Y-47836319D01*
X73650006Y-47802834D01*
X73676364Y-47800000D01*
X75323640Y-47800000D01*
X75390679Y-47819685D01*
G37*
%TD.AperFunction*%
%TD*%
%TA.AperFunction,Conductor*%
%TO.N,/+5V_REG_FB*%
G36*
X62800002Y-69050000D02*
G01*
X62575002Y-68850000D01*
X62800002Y-68850000D01*
X62800002Y-69050000D01*
G37*
%TD.AperFunction*%
%TD*%
%TA.AperFunction,Conductor*%
%TO.N,/+5V*%
G36*
X63640679Y-47819685D02*
G01*
X63661321Y-47836319D01*
X64088683Y-48263681D01*
X64122168Y-48325004D01*
X64125002Y-48351362D01*
X64125002Y-49998638D01*
X64105317Y-50065677D01*
X64088683Y-50086319D01*
X63625002Y-50549999D01*
X63625002Y-50550000D01*
X61875002Y-50550000D01*
X61411321Y-50086319D01*
X61377836Y-50024996D01*
X61375002Y-49998638D01*
X61375002Y-48351362D01*
X61394687Y-48284323D01*
X61411321Y-48263681D01*
X61838683Y-47836319D01*
X61900006Y-47802834D01*
X61926364Y-47800000D01*
X63573640Y-47800000D01*
X63640679Y-47819685D01*
G37*
%TD.AperFunction*%
%TD*%
%TA.AperFunction,Conductor*%
%TO.N,/+2.75V_REG_FB*%
G36*
X86425002Y-69600000D02*
G01*
X86200002Y-69600000D01*
X86200002Y-69400000D01*
X86425002Y-69600000D01*
G37*
%TD.AperFunction*%
%TD*%
%TA.AperFunction,Conductor*%
%TO.N,/-5V*%
G36*
X63625002Y-120950000D02*
G01*
X61875002Y-120950000D01*
X61875002Y-117825000D01*
X63625002Y-117825000D01*
X63625002Y-120950000D01*
G37*
%TD.AperFunction*%
%TD*%
%TA.AperFunction,Conductor*%
%TO.N,/-2.75V*%
G36*
X87588683Y-121413681D02*
G01*
X87622168Y-121475004D01*
X87625002Y-121501362D01*
X87625002Y-123148638D01*
X87605317Y-123215677D01*
X87588683Y-123236319D01*
X87161321Y-123663681D01*
X87099998Y-123697166D01*
X87073640Y-123700000D01*
X85426364Y-123700000D01*
X85359325Y-123680315D01*
X85338683Y-123663681D01*
X84911321Y-123236319D01*
X84877836Y-123174996D01*
X84875002Y-123148638D01*
X84875002Y-121501362D01*
X84894687Y-121434323D01*
X84911321Y-121413681D01*
X85375002Y-120950000D01*
X87125002Y-120950000D01*
X87588683Y-121413681D01*
G37*
%TD.AperFunction*%
%TD*%
%TA.AperFunction,Conductor*%
%TO.N,/-5.5V*%
G36*
X75375002Y-120950000D02*
G01*
X73625002Y-120950000D01*
X73625002Y-117825000D01*
X75375002Y-117825000D01*
X75375002Y-120950000D01*
G37*
%TD.AperFunction*%
%TD*%
%TA.AperFunction,Conductor*%
%TO.N,/+2.75V_REG_FB*%
G36*
X86143041Y-68419685D02*
G01*
X86188796Y-68472489D01*
X86200002Y-68524000D01*
X86200002Y-69600000D01*
X87520502Y-69600000D01*
X87587541Y-69619685D01*
X87633296Y-69672489D01*
X87644502Y-69724000D01*
X87644502Y-70270500D01*
X87624817Y-70337539D01*
X87572013Y-70383294D01*
X87520502Y-70394500D01*
X85448997Y-70394500D01*
X85437252Y-70395763D01*
X85368493Y-70383355D01*
X85317358Y-70335742D01*
X85300002Y-70272473D01*
X85300002Y-68524000D01*
X85319687Y-68456961D01*
X85372491Y-68411206D01*
X85424002Y-68400000D01*
X86076002Y-68400000D01*
X86143041Y-68419685D01*
G37*
%TD.AperFunction*%
%TD*%
%TA.AperFunction,Conductor*%
%TO.N,/+5.5V*%
G36*
X76119284Y-54320858D02*
G01*
X76125002Y-54358078D01*
X76125002Y-64300000D01*
X76875002Y-65050000D01*
X79573640Y-65050000D01*
X79640679Y-65069685D01*
X79661321Y-65086319D01*
X80338683Y-65763681D01*
X80372168Y-65825004D01*
X80375002Y-65851362D01*
X80375002Y-66410366D01*
X80355317Y-66477405D01*
X80302513Y-66523160D01*
X80298462Y-66524924D01*
X80297167Y-66525460D01*
X80297164Y-66525462D01*
X80171721Y-66621716D01*
X80075465Y-66747160D01*
X80014958Y-66893237D01*
X80014957Y-66893239D01*
X79994320Y-67049998D01*
X79994320Y-67050001D01*
X80014957Y-67206760D01*
X80014958Y-67206762D01*
X80051714Y-67295500D01*
X80075466Y-67352841D01*
X80171720Y-67478282D01*
X80297161Y-67574536D01*
X80298447Y-67575068D01*
X80299367Y-67575810D01*
X80304198Y-67578599D01*
X80303763Y-67579351D01*
X80352852Y-67618903D01*
X80374923Y-67685195D01*
X80375002Y-67689632D01*
X80375002Y-68445500D01*
X80355317Y-68512539D01*
X80302513Y-68558294D01*
X80251002Y-68569500D01*
X80030247Y-68569500D01*
X79971773Y-68581131D01*
X79960489Y-68585806D01*
X79959577Y-68583605D01*
X79908875Y-68599480D01*
X79906666Y-68599500D01*
X79561190Y-68599500D01*
X79494151Y-68579815D01*
X79473509Y-68563181D01*
X79414046Y-68503718D01*
X79406736Y-68495741D01*
X79402348Y-68490512D01*
X79382457Y-68466806D01*
X79349736Y-68447914D01*
X79340618Y-68442104D01*
X79309686Y-68420446D01*
X79304863Y-68418197D01*
X79288057Y-68411235D01*
X79283044Y-68409411D01*
X79245854Y-68402852D01*
X79235300Y-68400512D01*
X79198810Y-68390735D01*
X79161183Y-68394028D01*
X79150374Y-68394500D01*
X78267403Y-68394500D01*
X78200364Y-68374815D01*
X78179722Y-68358182D01*
X78167040Y-68345500D01*
X78118316Y-68296776D01*
X78009487Y-68246028D01*
X78009485Y-68246027D01*
X78009486Y-68246027D01*
X77959901Y-68239500D01*
X77540105Y-68239500D01*
X77524386Y-68241569D01*
X77490513Y-68246028D01*
X77490511Y-68246029D01*
X77490509Y-68246029D01*
X77381683Y-68296776D01*
X77296776Y-68381683D01*
X77246027Y-68490514D01*
X77239500Y-68540097D01*
X77239500Y-68899894D01*
X77239501Y-68899900D01*
X77246028Y-68949487D01*
X77246029Y-68949489D01*
X77246029Y-68949490D01*
X77296776Y-69058316D01*
X77350779Y-69112319D01*
X77384264Y-69173642D01*
X77379280Y-69243334D01*
X77350779Y-69287681D01*
X77296776Y-69341683D01*
X77246027Y-69450514D01*
X77239500Y-69500097D01*
X77239500Y-69859894D01*
X77239501Y-69859900D01*
X77246028Y-69909487D01*
X77246029Y-69909489D01*
X77246029Y-69909490D01*
X77287882Y-69999242D01*
X77299500Y-70051647D01*
X77299500Y-70554663D01*
X77288294Y-70606174D01*
X77264835Y-70657541D01*
X77264834Y-70657542D01*
X77244353Y-70800000D01*
X77264834Y-70942456D01*
X77306830Y-71034412D01*
X77324623Y-71073373D01*
X77418872Y-71182143D01*
X77539947Y-71259953D01*
X77539950Y-71259954D01*
X77539949Y-71259954D01*
X77644281Y-71290588D01*
X77676506Y-71300050D01*
X77678036Y-71300499D01*
X77678038Y-71300500D01*
X77678039Y-71300500D01*
X77821962Y-71300500D01*
X77821962Y-71300499D01*
X77960053Y-71259953D01*
X78081128Y-71182143D01*
X78175377Y-71073373D01*
X78235165Y-70942457D01*
X78255647Y-70800000D01*
X78235165Y-70657543D01*
X78232484Y-70651673D01*
X78211706Y-70606174D01*
X78200500Y-70554663D01*
X78200500Y-70051647D01*
X78212118Y-69999242D01*
X78213096Y-69997145D01*
X78253972Y-69909487D01*
X78260500Y-69859901D01*
X78260499Y-69500100D01*
X78253972Y-69450513D01*
X78203224Y-69341684D01*
X78149221Y-69287681D01*
X78115736Y-69226358D01*
X78120720Y-69156666D01*
X78149220Y-69112319D01*
X78179723Y-69081817D01*
X78241047Y-69048333D01*
X78267403Y-69045500D01*
X78983814Y-69045500D01*
X79050853Y-69065185D01*
X79071495Y-69081819D01*
X79130952Y-69141276D01*
X79138259Y-69149250D01*
X79162543Y-69178190D01*
X79162545Y-69178191D01*
X79162547Y-69178194D01*
X79162549Y-69178195D01*
X79162550Y-69178196D01*
X79195258Y-69197080D01*
X79204381Y-69202892D01*
X79208860Y-69206028D01*
X79235318Y-69224554D01*
X79235321Y-69224554D01*
X79240178Y-69226820D01*
X79256935Y-69233760D01*
X79261955Y-69235587D01*
X79261957Y-69235588D01*
X79299145Y-69242145D01*
X79309708Y-69244487D01*
X79346195Y-69254264D01*
X79383825Y-69250971D01*
X79394632Y-69250500D01*
X79728193Y-69250500D01*
X79795232Y-69270185D01*
X79840987Y-69322989D01*
X79850931Y-69392147D01*
X79849810Y-69398694D01*
X79849500Y-69400252D01*
X79849500Y-69749752D01*
X79861131Y-69808229D01*
X79861132Y-69808230D01*
X79905447Y-69874552D01*
X79971769Y-69918867D01*
X79971770Y-69918868D01*
X80030247Y-69930499D01*
X80030250Y-69930500D01*
X80251002Y-69930500D01*
X80318041Y-69950185D01*
X80363796Y-70002989D01*
X80375002Y-70054500D01*
X80375002Y-70775011D01*
X80355317Y-70842050D01*
X80302513Y-70887805D01*
X80298456Y-70889572D01*
X80272161Y-70900463D01*
X80272160Y-70900464D01*
X80146721Y-70996716D01*
X80050465Y-71122160D01*
X79989958Y-71268237D01*
X79989957Y-71268239D01*
X79969320Y-71424998D01*
X79969320Y-71425001D01*
X79989957Y-71581760D01*
X79989958Y-71581762D01*
X80038845Y-71699787D01*
X80050466Y-71727841D01*
X80146720Y-71853282D01*
X80272161Y-71949536D01*
X80272162Y-71949536D01*
X80272163Y-71949537D01*
X80298454Y-71960427D01*
X80352858Y-72004267D01*
X80374923Y-72070561D01*
X80375002Y-72074988D01*
X80375002Y-73550000D01*
X81125002Y-74300000D01*
X84323640Y-74300000D01*
X84390679Y-74319685D01*
X84411321Y-74336319D01*
X85088683Y-75013681D01*
X85122168Y-75075004D01*
X85125002Y-75101362D01*
X85125002Y-80997442D01*
X85105317Y-81064481D01*
X85087234Y-81086549D01*
X84386058Y-81765107D01*
X84324195Y-81797582D01*
X84299826Y-81800000D01*
X77349500Y-81800000D01*
X77282461Y-81780315D01*
X77236706Y-81727511D01*
X77225500Y-81676000D01*
X77225500Y-81554467D01*
X77233403Y-81514737D01*
X77232940Y-81514613D01*
X77234833Y-81507545D01*
X77234939Y-81507015D01*
X77235044Y-81506762D01*
X77255682Y-81350000D01*
X77235044Y-81193238D01*
X77174536Y-81047159D01*
X77078282Y-80921718D01*
X76952841Y-80825464D01*
X76806762Y-80764956D01*
X76806760Y-80764955D01*
X76650001Y-80744318D01*
X76649999Y-80744318D01*
X76493239Y-80764955D01*
X76493237Y-80764956D01*
X76347160Y-80825463D01*
X76221718Y-80921718D01*
X76125463Y-81047160D01*
X76064956Y-81193237D01*
X76064955Y-81193239D01*
X76044318Y-81349998D01*
X76044318Y-81350001D01*
X76064955Y-81506759D01*
X76064955Y-81506761D01*
X76064956Y-81506762D01*
X76065060Y-81507014D01*
X76065166Y-81507545D01*
X76067060Y-81514613D01*
X76066596Y-81514737D01*
X76074500Y-81554467D01*
X76074500Y-81676000D01*
X76054815Y-81743039D01*
X76002011Y-81788794D01*
X75950500Y-81800000D01*
X74176364Y-81800000D01*
X74109325Y-81780315D01*
X74088683Y-81763681D01*
X73661321Y-81336319D01*
X73627836Y-81274996D01*
X73625002Y-81248638D01*
X73625002Y-79601362D01*
X73644687Y-79534323D01*
X73661321Y-79513681D01*
X74088683Y-79086319D01*
X74150006Y-79052834D01*
X74176364Y-79050000D01*
X78100002Y-79050000D01*
X78600002Y-78550000D01*
X78600002Y-76050000D01*
X77850002Y-75300000D01*
X69426364Y-75300000D01*
X69359325Y-75280315D01*
X69338683Y-75263681D01*
X68661321Y-74586319D01*
X68627836Y-74524996D01*
X68625002Y-74498638D01*
X68625002Y-71984632D01*
X68644687Y-71917593D01*
X68697491Y-71871838D01*
X68701550Y-71870071D01*
X68702202Y-71869800D01*
X68702841Y-71869536D01*
X68828282Y-71773282D01*
X68924536Y-71647841D01*
X68985044Y-71501762D01*
X69005682Y-71345000D01*
X69000158Y-71303044D01*
X68985044Y-71188239D01*
X68985044Y-71188238D01*
X68924536Y-71042159D01*
X68828282Y-70916718D01*
X68828280Y-70916717D01*
X68828280Y-70916716D01*
X68702841Y-70820464D01*
X68702842Y-70820464D01*
X68702014Y-70820121D01*
X68701543Y-70819926D01*
X68700617Y-70819180D01*
X68695805Y-70816402D01*
X68696238Y-70815651D01*
X68647142Y-70776083D01*
X68625081Y-70709788D01*
X68625002Y-70705368D01*
X68625002Y-69954500D01*
X68644687Y-69887461D01*
X68697491Y-69841706D01*
X68749002Y-69830500D01*
X68969750Y-69830500D01*
X68969751Y-69830499D01*
X69028231Y-69818867D01*
X69028235Y-69818864D01*
X69039511Y-69814194D01*
X69040422Y-69816394D01*
X69091125Y-69800520D01*
X69093334Y-69800500D01*
X69588814Y-69800500D01*
X69655853Y-69820185D01*
X69676495Y-69836819D01*
X69735952Y-69896276D01*
X69743259Y-69904250D01*
X69767543Y-69933190D01*
X69767545Y-69933191D01*
X69767547Y-69933194D01*
X69767549Y-69933195D01*
X69767550Y-69933196D01*
X69800258Y-69952080D01*
X69809381Y-69957892D01*
X69840315Y-69979552D01*
X69840318Y-69979554D01*
X69840321Y-69979554D01*
X69845178Y-69981820D01*
X69861935Y-69988760D01*
X69866955Y-69990587D01*
X69866957Y-69990588D01*
X69904145Y-69997145D01*
X69914708Y-69999487D01*
X69951195Y-70009264D01*
X69988825Y-70005971D01*
X69999632Y-70005500D01*
X70732597Y-70005500D01*
X70799636Y-70025185D01*
X70820278Y-70041818D01*
X70881684Y-70103224D01*
X70990513Y-70153972D01*
X71040099Y-70160500D01*
X71459900Y-70160499D01*
X71509487Y-70153972D01*
X71618316Y-70103224D01*
X71703224Y-70018316D01*
X71753972Y-69909487D01*
X71760500Y-69859901D01*
X71760499Y-69500100D01*
X71753972Y-69450513D01*
X71703224Y-69341684D01*
X71649221Y-69287681D01*
X71615736Y-69226358D01*
X71620720Y-69156666D01*
X71649221Y-69112319D01*
X71676040Y-69085500D01*
X71703224Y-69058316D01*
X71753972Y-68949487D01*
X71760500Y-68899901D01*
X71760499Y-68540100D01*
X71753972Y-68490513D01*
X71713095Y-68402852D01*
X71712118Y-68400757D01*
X71700500Y-68348352D01*
X71700500Y-67795335D01*
X71711705Y-67743825D01*
X71735165Y-67692457D01*
X71755647Y-67550000D01*
X71735165Y-67407543D01*
X71675377Y-67276627D01*
X71581128Y-67167857D01*
X71460053Y-67090047D01*
X71460051Y-67090046D01*
X71460049Y-67090045D01*
X71460050Y-67090045D01*
X71321963Y-67049500D01*
X71321961Y-67049500D01*
X71178039Y-67049500D01*
X71178036Y-67049500D01*
X71039949Y-67090045D01*
X70918873Y-67167856D01*
X70824623Y-67276626D01*
X70824622Y-67276628D01*
X70764834Y-67407543D01*
X70744353Y-67550000D01*
X70764834Y-67692453D01*
X70764834Y-67692454D01*
X70764834Y-67692455D01*
X70764835Y-67692457D01*
X70788294Y-67743825D01*
X70799500Y-67795335D01*
X70799500Y-68348352D01*
X70787882Y-68400756D01*
X70746027Y-68490512D01*
X70746027Y-68490513D01*
X70739500Y-68540097D01*
X70739500Y-68899894D01*
X70739501Y-68899900D01*
X70746028Y-68949487D01*
X70746029Y-68949489D01*
X70746029Y-68949490D01*
X70796776Y-69058316D01*
X70850778Y-69112318D01*
X70884263Y-69173641D01*
X70879279Y-69243333D01*
X70850780Y-69287679D01*
X70820280Y-69318180D01*
X70758957Y-69351666D01*
X70732597Y-69354500D01*
X70166190Y-69354500D01*
X70099151Y-69334815D01*
X70078509Y-69318181D01*
X70019046Y-69258718D01*
X70011736Y-69250741D01*
X69987458Y-69221807D01*
X69987457Y-69221806D01*
X69954736Y-69202914D01*
X69945618Y-69197104D01*
X69914686Y-69175446D01*
X69909863Y-69173197D01*
X69893057Y-69166235D01*
X69888044Y-69164411D01*
X69850854Y-69157852D01*
X69840300Y-69155512D01*
X69803810Y-69145735D01*
X69766183Y-69149028D01*
X69755374Y-69149500D01*
X69271807Y-69149500D01*
X69204768Y-69129815D01*
X69159013Y-69077011D01*
X69149069Y-69007853D01*
X69150190Y-69001306D01*
X69150500Y-68999747D01*
X69150500Y-68650249D01*
X69150499Y-68650247D01*
X69138868Y-68591770D01*
X69138867Y-68591769D01*
X69094552Y-68525447D01*
X69028230Y-68481132D01*
X69028229Y-68481131D01*
X68969752Y-68469500D01*
X68969748Y-68469500D01*
X68749002Y-68469500D01*
X68681963Y-68449815D01*
X68636208Y-68397011D01*
X68625002Y-68345500D01*
X68625002Y-67619987D01*
X68644687Y-67552948D01*
X68697491Y-67507193D01*
X68701498Y-67505447D01*
X68727841Y-67494536D01*
X68853282Y-67398282D01*
X68949536Y-67272841D01*
X69010044Y-67126762D01*
X69030682Y-66970000D01*
X69010044Y-66813238D01*
X68949536Y-66667159D01*
X68853282Y-66541718D01*
X68853280Y-66541717D01*
X68853280Y-66541716D01*
X68727841Y-66445464D01*
X68727838Y-66445462D01*
X68701549Y-66434573D01*
X68647146Y-66390732D01*
X68625081Y-66324437D01*
X68625002Y-66320012D01*
X68625002Y-65851362D01*
X68644687Y-65784323D01*
X68661321Y-65763681D01*
X69338683Y-65086319D01*
X69400006Y-65052834D01*
X69426364Y-65050000D01*
X72125002Y-65050000D01*
X72875002Y-64300000D01*
X72875002Y-54358078D01*
X72892056Y-54300000D01*
X76105305Y-54300000D01*
X76119284Y-54320858D01*
G37*
%TD.AperFunction*%
%TD*%
%TA.AperFunction,Conductor*%
%TO.N,/-5.5V*%
G36*
X75838683Y-121413681D02*
G01*
X75872168Y-121475004D01*
X75875002Y-121501362D01*
X75875002Y-123148638D01*
X75855317Y-123215677D01*
X75838683Y-123236319D01*
X75411321Y-123663681D01*
X75349998Y-123697166D01*
X75323640Y-123700000D01*
X73676364Y-123700000D01*
X73609325Y-123680315D01*
X73588683Y-123663681D01*
X73161321Y-123236319D01*
X73127836Y-123174996D01*
X73125002Y-123148638D01*
X73125002Y-121501362D01*
X73144687Y-121434323D01*
X73161321Y-121413681D01*
X73625002Y-120950000D01*
X75375002Y-120950000D01*
X75838683Y-121413681D01*
G37*
%TD.AperFunction*%
%TD*%
%TA.AperFunction,Conductor*%
%TO.N,/+5.5V*%
G36*
X76080385Y-54262819D02*
G01*
X76105305Y-54300000D01*
X72892056Y-54300000D01*
X72894687Y-54291039D01*
X72919619Y-54262819D01*
X73625002Y-53675000D01*
X75375002Y-53675000D01*
X76080385Y-54262819D01*
G37*
%TD.AperFunction*%
%TD*%
%TA.AperFunction,Conductor*%
%TO.N,/-5.5V*%
G36*
X76105317Y-117208960D02*
G01*
X76080385Y-117237180D01*
X75375002Y-117824999D01*
X75375002Y-117825000D01*
X73625002Y-117825000D01*
X73625001Y-117824999D01*
X72919619Y-117237180D01*
X72894700Y-117200000D01*
X76107948Y-117200000D01*
X76105317Y-117208960D01*
G37*
%TD.AperFunction*%
%TD*%
%TA.AperFunction,Conductor*%
%TO.N,/-5V*%
G36*
X64088683Y-121413681D02*
G01*
X64122168Y-121475004D01*
X64125002Y-121501362D01*
X64125002Y-123148638D01*
X64105317Y-123215677D01*
X64088683Y-123236319D01*
X63661321Y-123663681D01*
X63599998Y-123697166D01*
X63573640Y-123700000D01*
X61926364Y-123700000D01*
X61859325Y-123680315D01*
X61838683Y-123663681D01*
X61411321Y-123236319D01*
X61377836Y-123174996D01*
X61375002Y-123148638D01*
X61375002Y-121501362D01*
X61394687Y-121434323D01*
X61411321Y-121413681D01*
X61875002Y-120950000D01*
X63625002Y-120950000D01*
X64088683Y-121413681D01*
G37*
%TD.AperFunction*%
%TD*%
%TA.AperFunction,Conductor*%
%TO.N,/+5.5V*%
G36*
X75375002Y-53675000D02*
G01*
X73625002Y-53675000D01*
X73625002Y-50550000D01*
X75375002Y-50550000D01*
X75375002Y-53675000D01*
G37*
%TD.AperFunction*%
%TD*%
%TA.AperFunction,Conductor*%
%TO.N,/-2.75V*%
G36*
X88368041Y-101294685D02*
G01*
X88413796Y-101347489D01*
X88425002Y-101399000D01*
X88425002Y-102025000D01*
X88600002Y-102200000D01*
X92298640Y-102200000D01*
X92365679Y-102219685D01*
X92386321Y-102236319D01*
X92813683Y-102663681D01*
X92847168Y-102725004D01*
X92850002Y-102751362D01*
X92850002Y-115148638D01*
X92830317Y-115215677D01*
X92813683Y-115236319D01*
X92136321Y-115913681D01*
X92074998Y-115947166D01*
X92048640Y-115950000D01*
X87850002Y-115950000D01*
X87125002Y-116700000D01*
X87125002Y-117825000D01*
X85375002Y-117825000D01*
X85375002Y-109996255D01*
X85394687Y-109929216D01*
X85405297Y-109915044D01*
X85987918Y-109242789D01*
X86046699Y-109205020D01*
X86081623Y-109200000D01*
X88100002Y-109200000D01*
X88600002Y-108700000D01*
X88600002Y-104700000D01*
X88425002Y-104525000D01*
X85499002Y-104525000D01*
X85431963Y-104505315D01*
X85386208Y-104452511D01*
X85375002Y-104401000D01*
X85375002Y-103699000D01*
X85394687Y-103631961D01*
X85447491Y-103586206D01*
X85499002Y-103575000D01*
X87800000Y-103575000D01*
X87800002Y-103575000D01*
X87925002Y-103425000D01*
X87925002Y-102525000D01*
X87675002Y-102275000D01*
X86976364Y-102275000D01*
X86909325Y-102255315D01*
X86888683Y-102238681D01*
X86711321Y-102061319D01*
X86677836Y-101999996D01*
X86675002Y-101973638D01*
X86675002Y-101576362D01*
X86694687Y-101509323D01*
X86711315Y-101488686D01*
X86873193Y-101326808D01*
X86934513Y-101293326D01*
X86980817Y-101294935D01*
X86981107Y-101292734D01*
X86995929Y-101294685D01*
X87040099Y-101300500D01*
X87459900Y-101300499D01*
X87509487Y-101293972D01*
X87525258Y-101286618D01*
X87577663Y-101275000D01*
X88301002Y-101275000D01*
X88368041Y-101294685D01*
G37*
%TD.AperFunction*%
%TD*%
%TA.AperFunction,Conductor*%
%TO.N,Earth*%
G36*
X77873458Y-102320184D02*
G01*
X77919213Y-102372988D01*
X77925746Y-102390779D01*
X77935371Y-102424840D01*
X77935372Y-102424843D01*
X77935373Y-102424844D01*
X77951529Y-102454432D01*
X77968860Y-102486170D01*
X78003900Y-102532977D01*
X78003904Y-102532981D01*
X78003911Y-102532991D01*
X78003918Y-102532998D01*
X78016830Y-102545910D01*
X78041524Y-102581172D01*
X78043374Y-102585138D01*
X78054999Y-102637557D01*
X78054999Y-102922439D01*
X78043381Y-102974843D01*
X78025876Y-103012381D01*
X78025868Y-103012402D01*
X78011488Y-103054764D01*
X77999870Y-103107169D01*
X77999870Y-103107171D01*
X77995000Y-103151647D01*
X77995000Y-103704668D01*
X77999696Y-103748345D01*
X78010901Y-103799850D01*
X78024777Y-103841541D01*
X78028558Y-103849821D01*
X78038497Y-103883674D01*
X78045496Y-103932349D01*
X78045496Y-103967645D01*
X78038498Y-104016316D01*
X78028554Y-104050180D01*
X78008128Y-104094907D01*
X77989046Y-104124600D01*
X77956844Y-104161762D01*
X77930173Y-104184872D01*
X77888803Y-104211460D01*
X77856697Y-104226123D01*
X77833807Y-104232844D01*
X77809523Y-104239974D01*
X77774590Y-104244997D01*
X77725413Y-104244997D01*
X77690479Y-104239974D01*
X77643299Y-104226121D01*
X77611193Y-104211459D01*
X77569825Y-104184873D01*
X77543153Y-104161762D01*
X77523464Y-104139040D01*
X77510951Y-104124599D01*
X77491872Y-104094911D01*
X77484701Y-104079209D01*
X77471442Y-104050177D01*
X77461501Y-104016316D01*
X77454503Y-103967642D01*
X77454503Y-103932352D01*
X77459350Y-103898638D01*
X77461500Y-103883678D01*
X77471448Y-103849806D01*
X77475218Y-103841552D01*
X77475218Y-103841551D01*
X77475222Y-103841543D01*
X77489097Y-103799856D01*
X77500303Y-103748345D01*
X77505000Y-103704661D01*
X77505000Y-103151647D01*
X77500129Y-103107168D01*
X77488511Y-103054763D01*
X77474127Y-103012392D01*
X77474122Y-103012381D01*
X77474121Y-103012378D01*
X77456619Y-102974846D01*
X77445000Y-102922440D01*
X77445000Y-102637558D01*
X77456613Y-102585164D01*
X77458461Y-102581200D01*
X77483168Y-102545911D01*
X77496088Y-102532993D01*
X77523655Y-102498785D01*
X77552156Y-102454438D01*
X77557597Y-102445477D01*
X77575006Y-102388351D01*
X77613379Y-102329962D01*
X77677227Y-102301587D01*
X77693620Y-102300499D01*
X77806419Y-102300499D01*
X77873458Y-102320184D01*
G37*
%TD.AperFunction*%
%TA.AperFunction,Conductor*%
G36*
X71309521Y-100410020D02*
G01*
X71323988Y-100414267D01*
X71356694Y-100423870D01*
X71388798Y-100438531D01*
X71422123Y-100459947D01*
X71430174Y-100465122D01*
X71456844Y-100488232D01*
X71489046Y-100525394D01*
X71508128Y-100555087D01*
X71528554Y-100599814D01*
X71538498Y-100633678D01*
X71545496Y-100682350D01*
X71545496Y-100717643D01*
X71538499Y-100766312D01*
X71528558Y-100800172D01*
X71528554Y-100800182D01*
X71524777Y-100808452D01*
X71510903Y-100850138D01*
X71510899Y-100850149D01*
X71499696Y-100901649D01*
X71496453Y-100931819D01*
X71495000Y-100945333D01*
X71495000Y-101448352D01*
X71495078Y-101449063D01*
X71499870Y-101492827D01*
X71499872Y-101492837D01*
X71511489Y-101545237D01*
X71525870Y-101587600D01*
X71525870Y-101587601D01*
X71525872Y-101587605D01*
X71543381Y-101625155D01*
X71554999Y-101677558D01*
X71554999Y-101962440D01*
X71543379Y-102014848D01*
X71541529Y-102018815D01*
X71516836Y-102054082D01*
X71503918Y-102067001D01*
X71503905Y-102067015D01*
X71476346Y-102101212D01*
X71447834Y-102145576D01*
X71442404Y-102154520D01*
X71442403Y-102154521D01*
X71424994Y-102211649D01*
X71386621Y-102270038D01*
X71322772Y-102298412D01*
X71306380Y-102299500D01*
X71193580Y-102299500D01*
X71126541Y-102279815D01*
X71080786Y-102227011D01*
X71074253Y-102209220D01*
X71064627Y-102175158D01*
X71064626Y-102175157D01*
X71064626Y-102175155D01*
X71031141Y-102113832D01*
X71014061Y-102091016D01*
X70996098Y-102067021D01*
X70996093Y-102067015D01*
X70996088Y-102067008D01*
X70983169Y-102054089D01*
X70958462Y-102018799D01*
X70956608Y-102014824D01*
X70945000Y-101962439D01*
X70945000Y-101677558D01*
X70956618Y-101625152D01*
X70974128Y-101587605D01*
X70988511Y-101545235D01*
X70998192Y-101501565D01*
X71000129Y-101492832D01*
X71004922Y-101449063D01*
X71005000Y-101448352D01*
X71005000Y-100945333D01*
X71000303Y-100901648D01*
X70989097Y-100850138D01*
X70989096Y-100850135D01*
X70989095Y-100850130D01*
X70982174Y-100829339D01*
X70975223Y-100808455D01*
X70975221Y-100808451D01*
X70975221Y-100808449D01*
X70971445Y-100800182D01*
X70961500Y-100766313D01*
X70954503Y-100717642D01*
X70954503Y-100682353D01*
X70958567Y-100654085D01*
X70961501Y-100633676D01*
X70971442Y-100599818D01*
X70991873Y-100555081D01*
X71010947Y-100525400D01*
X71043158Y-100488227D01*
X71069828Y-100465118D01*
X71111197Y-100438531D01*
X71143295Y-100423873D01*
X71190478Y-100410019D01*
X71225408Y-100404998D01*
X71274590Y-100404998D01*
X71309521Y-100410020D01*
G37*
%TD.AperFunction*%
%TA.AperFunction,Conductor*%
G36*
X77873458Y-69220184D02*
G01*
X77919213Y-69272988D01*
X77925746Y-69290779D01*
X77935371Y-69324840D01*
X77935372Y-69324843D01*
X77935373Y-69324844D01*
X77951529Y-69354432D01*
X77968860Y-69386170D01*
X78003900Y-69432977D01*
X78003904Y-69432981D01*
X78003911Y-69432991D01*
X78003918Y-69432998D01*
X78016830Y-69445910D01*
X78041524Y-69481172D01*
X78043374Y-69485138D01*
X78054999Y-69537557D01*
X78054999Y-69822439D01*
X78043381Y-69874843D01*
X78025876Y-69912381D01*
X78025868Y-69912402D01*
X78011488Y-69954764D01*
X77999870Y-70007169D01*
X77999870Y-70007171D01*
X77995000Y-70051647D01*
X77995000Y-70554670D01*
X77999696Y-70598347D01*
X78010901Y-70649852D01*
X78024777Y-70691543D01*
X78028558Y-70699823D01*
X78038497Y-70733676D01*
X78045496Y-70782351D01*
X78045496Y-70817647D01*
X78038498Y-70866318D01*
X78028554Y-70900182D01*
X78008128Y-70944909D01*
X77989046Y-70974602D01*
X77956844Y-71011764D01*
X77930173Y-71034874D01*
X77888803Y-71061462D01*
X77856697Y-71076125D01*
X77843609Y-71079968D01*
X77809523Y-71089976D01*
X77774590Y-71094999D01*
X77725413Y-71094999D01*
X77690479Y-71089976D01*
X77643299Y-71076123D01*
X77611193Y-71061461D01*
X77569825Y-71034875D01*
X77543153Y-71011764D01*
X77538033Y-71005855D01*
X77510951Y-70974601D01*
X77491872Y-70944913D01*
X77487842Y-70936088D01*
X77471442Y-70900179D01*
X77461501Y-70866318D01*
X77454503Y-70817644D01*
X77454503Y-70782354D01*
X77461500Y-70733683D01*
X77471448Y-70699808D01*
X77475218Y-70691554D01*
X77475218Y-70691553D01*
X77475222Y-70691545D01*
X77489097Y-70649858D01*
X77500303Y-70598347D01*
X77505000Y-70554663D01*
X77505000Y-70051647D01*
X77500129Y-70007168D01*
X77488511Y-69954763D01*
X77474127Y-69912392D01*
X77474122Y-69912381D01*
X77474121Y-69912378D01*
X77456619Y-69874846D01*
X77445000Y-69822440D01*
X77445000Y-69537558D01*
X77456613Y-69485164D01*
X77458461Y-69481200D01*
X77483168Y-69445911D01*
X77496088Y-69432993D01*
X77523655Y-69398785D01*
X77552156Y-69354438D01*
X77557597Y-69345477D01*
X77575006Y-69288351D01*
X77613379Y-69229962D01*
X77677227Y-69201587D01*
X77693620Y-69200499D01*
X77806419Y-69200499D01*
X77873458Y-69220184D01*
G37*
%TD.AperFunction*%
%TA.AperFunction,Conductor*%
G36*
X71309521Y-67260022D02*
G01*
X71323988Y-67264269D01*
X71356694Y-67273872D01*
X71388798Y-67288533D01*
X71415694Y-67305818D01*
X71430174Y-67315124D01*
X71456844Y-67338234D01*
X71489046Y-67375396D01*
X71508128Y-67405089D01*
X71528554Y-67449816D01*
X71538498Y-67483680D01*
X71545496Y-67532352D01*
X71545496Y-67567645D01*
X71538499Y-67616314D01*
X71528558Y-67650174D01*
X71528554Y-67650184D01*
X71524777Y-67658454D01*
X71510903Y-67700140D01*
X71510899Y-67700151D01*
X71499696Y-67751651D01*
X71495000Y-67795334D01*
X71495000Y-68348351D01*
X71499870Y-68392827D01*
X71499872Y-68392837D01*
X71511489Y-68445237D01*
X71525870Y-68487600D01*
X71525870Y-68487601D01*
X71525872Y-68487605D01*
X71543381Y-68525155D01*
X71554999Y-68577558D01*
X71554999Y-68862440D01*
X71543379Y-68914848D01*
X71541529Y-68918815D01*
X71516836Y-68954082D01*
X71503918Y-68967001D01*
X71503905Y-68967015D01*
X71476346Y-69001212D01*
X71447834Y-69045576D01*
X71442404Y-69054520D01*
X71442403Y-69054521D01*
X71424994Y-69111649D01*
X71386621Y-69170038D01*
X71322772Y-69198412D01*
X71306380Y-69199500D01*
X71193580Y-69199500D01*
X71126541Y-69179815D01*
X71080786Y-69127011D01*
X71074253Y-69109220D01*
X71064627Y-69075158D01*
X71064626Y-69075157D01*
X71064626Y-69075155D01*
X71031141Y-69013832D01*
X71007037Y-68981634D01*
X70996098Y-68967021D01*
X70996093Y-68967015D01*
X70996088Y-68967008D01*
X70983169Y-68954089D01*
X70958462Y-68918799D01*
X70956608Y-68914824D01*
X70945000Y-68862439D01*
X70945000Y-68577558D01*
X70956618Y-68525152D01*
X70974128Y-68487605D01*
X70988511Y-68445235D01*
X70998192Y-68401565D01*
X71000129Y-68392832D01*
X71005000Y-68348351D01*
X71005000Y-67795343D01*
X71004999Y-67795334D01*
X71000303Y-67751650D01*
X70989097Y-67700140D01*
X70989096Y-67700137D01*
X70989095Y-67700132D01*
X70982174Y-67679341D01*
X70975223Y-67658457D01*
X70975221Y-67658453D01*
X70975221Y-67658451D01*
X70971445Y-67650184D01*
X70961500Y-67616315D01*
X70959350Y-67601362D01*
X70954503Y-67567644D01*
X70954503Y-67532355D01*
X70959866Y-67495050D01*
X70961501Y-67483678D01*
X70971442Y-67449820D01*
X70991873Y-67405083D01*
X71010947Y-67375402D01*
X71043158Y-67338229D01*
X71069828Y-67315120D01*
X71069970Y-67315029D01*
X71111197Y-67288533D01*
X71143295Y-67273875D01*
X71190478Y-67260021D01*
X71225408Y-67255000D01*
X71274590Y-67255000D01*
X71309521Y-67260022D01*
G37*
%TD.AperFunction*%
%TA.AperFunction,Conductor*%
G36*
X106942539Y-35770185D02*
G01*
X106988294Y-35822989D01*
X106999500Y-35874500D01*
X106999500Y-135625500D01*
X106979815Y-135692539D01*
X106927011Y-135738294D01*
X106875500Y-135749500D01*
X42124500Y-135749500D01*
X42057461Y-135729815D01*
X42011706Y-135677011D01*
X42000500Y-135625500D01*
X42000500Y-115148638D01*
X55944502Y-115148638D01*
X55945680Y-115170618D01*
X55948513Y-115196965D01*
X55948514Y-115196967D01*
X55972472Y-115273478D01*
X55972473Y-115273483D01*
X55986874Y-115299855D01*
X56005958Y-115334805D01*
X56005960Y-115334808D01*
X56005962Y-115334811D01*
X56041000Y-115381615D01*
X56041004Y-115381619D01*
X56041011Y-115381629D01*
X56041015Y-115381633D01*
X56041018Y-115381636D01*
X56718367Y-116058986D01*
X56718368Y-116058987D01*
X56734718Y-116073674D01*
X56734732Y-116073686D01*
X56734740Y-116073693D01*
X56743138Y-116080460D01*
X56755381Y-116090327D01*
X56826426Y-116127490D01*
X56893458Y-116147173D01*
X56893460Y-116147173D01*
X56893466Y-116147175D01*
X56951364Y-116155500D01*
X61010235Y-116155500D01*
X61077274Y-116175185D01*
X61099389Y-116193317D01*
X61634656Y-116747040D01*
X61667097Y-116808922D01*
X61669502Y-116833223D01*
X61669502Y-120813517D01*
X61649817Y-120880556D01*
X61633183Y-120901198D01*
X61266016Y-121268365D01*
X61266014Y-121268366D01*
X61251327Y-121284716D01*
X61251315Y-121284730D01*
X61234674Y-121305379D01*
X61197511Y-121376424D01*
X61177828Y-121443456D01*
X61177827Y-121443464D01*
X61169503Y-121501361D01*
X61169502Y-121501365D01*
X61169502Y-123148638D01*
X61170680Y-123170618D01*
X61173513Y-123196965D01*
X61173514Y-123196967D01*
X61197472Y-123273478D01*
X61197473Y-123273483D01*
X61211874Y-123299855D01*
X61230958Y-123334805D01*
X61230960Y-123334808D01*
X61230962Y-123334811D01*
X61266000Y-123381615D01*
X61266004Y-123381619D01*
X61266011Y-123381629D01*
X61266015Y-123381633D01*
X61266018Y-123381636D01*
X61513181Y-123628799D01*
X61546666Y-123690122D01*
X61549500Y-123716480D01*
X61549500Y-128540046D01*
X61529815Y-128607085D01*
X61509845Y-128630941D01*
X61499955Y-128640117D01*
X61499949Y-128640123D01*
X61341041Y-128839388D01*
X61213608Y-129060109D01*
X61120492Y-129297362D01*
X61120490Y-129297369D01*
X61063777Y-129545845D01*
X61044732Y-129799995D01*
X61044732Y-129800004D01*
X61063777Y-130054154D01*
X61063778Y-130054157D01*
X61120492Y-130302637D01*
X61213607Y-130539888D01*
X61341041Y-130760612D01*
X61499950Y-130959877D01*
X61686783Y-131133232D01*
X61897366Y-131276805D01*
X61897371Y-131276807D01*
X61897372Y-131276808D01*
X61897373Y-131276809D01*
X62019328Y-131335538D01*
X62126992Y-131387387D01*
X62126993Y-131387387D01*
X62126996Y-131387389D01*
X62370542Y-131462513D01*
X62622565Y-131500500D01*
X62877435Y-131500500D01*
X63129458Y-131462513D01*
X63373004Y-131387389D01*
X63602634Y-131276805D01*
X63813217Y-131133232D01*
X64000050Y-130959877D01*
X64158959Y-130760612D01*
X64286393Y-130539888D01*
X64379508Y-130302637D01*
X64436222Y-130054157D01*
X64455268Y-129800000D01*
X64436222Y-129545843D01*
X64379508Y-129297363D01*
X64286393Y-129060112D01*
X64158959Y-128839388D01*
X64000050Y-128640123D01*
X64000044Y-128640117D01*
X63990155Y-128630941D01*
X63954403Y-128570912D01*
X63950500Y-128540046D01*
X63950500Y-123716484D01*
X63970185Y-123649445D01*
X63986819Y-123628803D01*
X64233989Y-123381633D01*
X64234006Y-123381615D01*
X64248695Y-123365262D01*
X64265329Y-123344620D01*
X64302492Y-123273575D01*
X64322177Y-123206536D01*
X64330502Y-123148638D01*
X64330502Y-121501362D01*
X64329324Y-121479393D01*
X64326490Y-121453035D01*
X64302531Y-121376518D01*
X64269046Y-121315195D01*
X64269041Y-121315188D01*
X64234003Y-121268384D01*
X64234000Y-121268381D01*
X64233993Y-121268371D01*
X63866820Y-120901198D01*
X63833336Y-120839876D01*
X63830502Y-120813518D01*
X63830502Y-109996253D01*
X63830446Y-109994707D01*
X63829978Y-109981582D01*
X63828714Y-109963924D01*
X63810659Y-109893211D01*
X63781628Y-109829658D01*
X63781623Y-109829650D01*
X63781619Y-109829642D01*
X63750005Y-109780462D01*
X63750004Y-109780460D01*
X63750001Y-109780456D01*
X63749991Y-109780444D01*
X63167401Y-109108224D01*
X63167390Y-109108213D01*
X63167380Y-109108201D01*
X63146652Y-109087476D01*
X63146640Y-109087466D01*
X63146630Y-109087456D01*
X63119987Y-109064372D01*
X63043318Y-109022510D01*
X63043315Y-109022509D01*
X62976290Y-109002827D01*
X62976281Y-109002825D01*
X62976279Y-109002825D01*
X62918381Y-108994500D01*
X62918377Y-108994500D01*
X61036484Y-108994500D01*
X60969445Y-108974815D01*
X60948803Y-108958181D01*
X60641821Y-108651199D01*
X60608336Y-108589876D01*
X60605502Y-108563518D01*
X60605502Y-104336482D01*
X60625187Y-104269443D01*
X60641816Y-104248805D01*
X60758993Y-104131629D01*
X60773695Y-104115262D01*
X60790329Y-104094620D01*
X60827492Y-104023575D01*
X60847175Y-103956543D01*
X60847175Y-103956542D01*
X60847177Y-103956536D01*
X60855502Y-103898638D01*
X60855502Y-103586481D01*
X60875187Y-103519442D01*
X60891821Y-103498800D01*
X60948802Y-103441819D01*
X61010125Y-103408334D01*
X61036483Y-103405500D01*
X62098641Y-103405500D01*
X62101182Y-103405363D01*
X62120609Y-103404322D01*
X62120616Y-103404321D01*
X62120620Y-103404321D01*
X62146967Y-103401488D01*
X62223484Y-103377529D01*
X62284807Y-103344044D01*
X62331631Y-103308991D01*
X62483481Y-103157141D01*
X62544804Y-103123656D01*
X62614496Y-103128640D01*
X62670429Y-103170512D01*
X62680591Y-103186502D01*
X62680898Y-103187079D01*
X62680903Y-103187086D01*
X62726662Y-103239895D01*
X62740589Y-103254109D01*
X62744248Y-103257843D01*
X62744249Y-103257844D01*
X62744251Y-103257845D01*
X62766512Y-103270297D01*
X62824065Y-103302490D01*
X62891104Y-103322175D01*
X62949002Y-103330500D01*
X62949006Y-103330500D01*
X63600993Y-103330500D01*
X63601002Y-103330500D01*
X63644686Y-103325803D01*
X63673877Y-103319452D01*
X63696176Y-103314602D01*
X63696192Y-103314598D01*
X63696197Y-103314597D01*
X63706375Y-103312110D01*
X63787087Y-103269100D01*
X63839891Y-103223345D01*
X63857845Y-103205754D01*
X63872829Y-103178965D01*
X63922735Y-103130067D01*
X63981049Y-103115500D01*
X64065374Y-103115500D01*
X64076182Y-103115971D01*
X64113809Y-103119264D01*
X64150321Y-103109479D01*
X64160832Y-103107149D01*
X64198047Y-103100588D01*
X64198052Y-103100584D01*
X64203101Y-103098747D01*
X64219826Y-103091819D01*
X64224683Y-103089554D01*
X64224686Y-103089554D01*
X64255627Y-103067887D01*
X64264746Y-103062079D01*
X64277417Y-103054764D01*
X64297457Y-103043194D01*
X64297602Y-103043022D01*
X64321738Y-103014256D01*
X64329038Y-103006289D01*
X65048509Y-102286819D01*
X65109832Y-102253334D01*
X65136190Y-102250500D01*
X65228193Y-102250500D01*
X65295232Y-102270185D01*
X65340987Y-102322989D01*
X65350931Y-102392147D01*
X65349810Y-102398694D01*
X65349500Y-102400252D01*
X65349500Y-102749752D01*
X65361131Y-102808229D01*
X65361132Y-102808230D01*
X65405447Y-102874552D01*
X65471769Y-102918867D01*
X65471770Y-102918868D01*
X65530247Y-102930499D01*
X65530250Y-102930500D01*
X65530252Y-102930500D01*
X66169750Y-102930500D01*
X66169751Y-102930499D01*
X66184568Y-102927552D01*
X66228229Y-102918868D01*
X66228229Y-102918867D01*
X66228231Y-102918867D01*
X66294552Y-102874552D01*
X66338867Y-102808231D01*
X66338867Y-102808229D01*
X66338868Y-102808229D01*
X66350499Y-102749752D01*
X66350500Y-102749750D01*
X66350500Y-102400249D01*
X66350499Y-102400247D01*
X66338868Y-102341770D01*
X66338867Y-102341768D01*
X66323581Y-102318892D01*
X66302702Y-102252215D01*
X66321186Y-102184835D01*
X66323581Y-102181108D01*
X66338867Y-102158231D01*
X66338868Y-102158229D01*
X66350499Y-102099752D01*
X66350500Y-102099750D01*
X66350500Y-101750249D01*
X66350499Y-101750247D01*
X66338868Y-101691770D01*
X66338867Y-101691768D01*
X66323581Y-101668892D01*
X66302702Y-101602215D01*
X66321186Y-101534835D01*
X66323581Y-101531108D01*
X66338867Y-101508231D01*
X66338868Y-101508229D01*
X66350499Y-101449752D01*
X66350500Y-101449750D01*
X66350500Y-101100249D01*
X66350499Y-101100247D01*
X66338868Y-101041770D01*
X66338867Y-101041769D01*
X66294552Y-100975447D01*
X66228230Y-100931132D01*
X66228229Y-100931131D01*
X66169752Y-100919500D01*
X66169748Y-100919500D01*
X65530252Y-100919500D01*
X65530247Y-100919500D01*
X65471773Y-100931131D01*
X65460489Y-100935806D01*
X65459577Y-100933605D01*
X65408875Y-100949480D01*
X65406666Y-100949500D01*
X65161190Y-100949500D01*
X65094151Y-100929815D01*
X65073509Y-100913181D01*
X64514046Y-100353718D01*
X64506736Y-100345741D01*
X64482458Y-100316807D01*
X64482457Y-100316806D01*
X64449736Y-100297914D01*
X64440618Y-100292104D01*
X64409686Y-100270446D01*
X64404863Y-100268197D01*
X64388057Y-100261235D01*
X64383044Y-100259411D01*
X64345854Y-100252852D01*
X64335300Y-100250512D01*
X64298810Y-100240735D01*
X64261183Y-100244028D01*
X64250374Y-100244500D01*
X64029502Y-100244500D01*
X63962463Y-100224815D01*
X63916708Y-100172011D01*
X63905502Y-100120500D01*
X63905502Y-100074008D01*
X63905501Y-100073992D01*
X63905072Y-100069998D01*
X63900805Y-100030316D01*
X63890527Y-99983069D01*
X63889604Y-99978825D01*
X63889350Y-99977789D01*
X63887112Y-99968627D01*
X63844102Y-99887915D01*
X63798347Y-99835111D01*
X63798341Y-99835104D01*
X63780759Y-99817160D01*
X63780758Y-99817159D01*
X63780756Y-99817157D01*
X63780754Y-99817156D01*
X63780752Y-99817154D01*
X63700942Y-99772511D01*
X63700937Y-99772509D01*
X63633905Y-99752826D01*
X63633901Y-99752825D01*
X63633900Y-99752825D01*
X63576002Y-99744500D01*
X60972941Y-99744500D01*
X60972932Y-99744500D01*
X60955852Y-99745212D01*
X60935278Y-99746929D01*
X60862585Y-99766871D01*
X60862576Y-99766875D01*
X60799735Y-99797401D01*
X60799733Y-99797403D01*
X60751296Y-99830187D01*
X60552351Y-100011046D01*
X60533677Y-100030400D01*
X60512781Y-100055107D01*
X60512779Y-100055110D01*
X60472513Y-100129912D01*
X60472512Y-100129915D01*
X60452828Y-100196947D01*
X60452827Y-100196955D01*
X60444608Y-100254121D01*
X60444502Y-100254856D01*
X60444502Y-101813518D01*
X60424817Y-101880557D01*
X60408183Y-101901199D01*
X60351201Y-101958181D01*
X60289878Y-101991666D01*
X60263520Y-101994500D01*
X56701363Y-101994500D01*
X56679383Y-101995678D01*
X56653036Y-101998511D01*
X56653034Y-101998512D01*
X56576523Y-102022470D01*
X56576518Y-102022471D01*
X56515190Y-102055960D01*
X56468386Y-102090998D01*
X56468365Y-102091016D01*
X56041015Y-102518365D01*
X56041014Y-102518366D01*
X56026327Y-102534716D01*
X56026315Y-102534730D01*
X56009674Y-102555379D01*
X55972511Y-102626424D01*
X55952828Y-102693456D01*
X55952827Y-102693464D01*
X55944503Y-102751361D01*
X55944502Y-102751365D01*
X55944502Y-115148638D01*
X42000500Y-115148638D01*
X42000500Y-96398638D01*
X63669502Y-96398638D01*
X63670680Y-96420618D01*
X63673513Y-96446965D01*
X63673514Y-96446967D01*
X63697472Y-96523478D01*
X63697473Y-96523483D01*
X63711874Y-96549855D01*
X63730958Y-96584805D01*
X63730960Y-96584808D01*
X63730962Y-96584811D01*
X63766000Y-96631615D01*
X63766004Y-96631619D01*
X63766011Y-96631629D01*
X63766018Y-96631636D01*
X64443367Y-97308986D01*
X64443368Y-97308987D01*
X64459718Y-97323674D01*
X64459732Y-97323686D01*
X64459740Y-97323693D01*
X64468138Y-97330460D01*
X64480381Y-97340327D01*
X64551426Y-97377490D01*
X64618458Y-97397173D01*
X64618460Y-97397173D01*
X64618466Y-97397175D01*
X64676364Y-97405500D01*
X67738520Y-97405500D01*
X67805559Y-97425185D01*
X67826201Y-97441819D01*
X68383183Y-97998801D01*
X68416668Y-98060124D01*
X68419502Y-98086482D01*
X68419502Y-99420008D01*
X68419535Y-99423704D01*
X68419613Y-99428101D01*
X68419615Y-99428117D01*
X68430096Y-99489331D01*
X68430099Y-99489343D01*
X68452161Y-99555628D01*
X68452168Y-99555645D01*
X68461542Y-99578946D01*
X68461543Y-99578948D01*
X68461544Y-99578949D01*
X68518201Y-99650742D01*
X68572604Y-99694583D01*
X68600352Y-99711047D01*
X68619183Y-99722220D01*
X68631390Y-99730482D01*
X68660508Y-99752825D01*
X68693764Y-99778343D01*
X68716654Y-99801233D01*
X68760093Y-99857844D01*
X68776278Y-99885877D01*
X68803585Y-99951802D01*
X68811963Y-99983069D01*
X68821277Y-100053812D01*
X68821277Y-100086182D01*
X68811964Y-100156928D01*
X68803586Y-100188196D01*
X68788418Y-100224815D01*
X68776279Y-100254121D01*
X68760093Y-100282154D01*
X68716651Y-100338768D01*
X68693762Y-100361657D01*
X68636210Y-100405818D01*
X68618745Y-100417030D01*
X68615419Y-100418790D01*
X68562918Y-100451886D01*
X68562914Y-100451888D01*
X68510107Y-100497647D01*
X68492162Y-100515229D01*
X68492156Y-100515236D01*
X68447513Y-100595046D01*
X68447511Y-100595051D01*
X68427828Y-100662083D01*
X68427827Y-100662088D01*
X68427827Y-100662089D01*
X68419840Y-100717642D01*
X68419502Y-100719990D01*
X68419502Y-100799982D01*
X68399817Y-100867021D01*
X68347013Y-100912776D01*
X68319694Y-100921599D01*
X68271770Y-100931132D01*
X68271769Y-100931132D01*
X68205447Y-100975447D01*
X68161132Y-101041769D01*
X68161131Y-101041770D01*
X68149500Y-101100247D01*
X68149500Y-101449752D01*
X68161131Y-101508229D01*
X68176420Y-101531110D01*
X68197297Y-101597787D01*
X68178812Y-101665167D01*
X68176420Y-101668890D01*
X68161132Y-101691770D01*
X68161131Y-101691770D01*
X68149500Y-101750247D01*
X68149500Y-102099752D01*
X68161131Y-102158229D01*
X68176420Y-102181110D01*
X68197297Y-102247787D01*
X68178812Y-102315167D01*
X68176420Y-102318890D01*
X68161132Y-102341770D01*
X68161131Y-102341770D01*
X68149500Y-102400247D01*
X68149500Y-102749752D01*
X68161131Y-102808229D01*
X68176420Y-102831110D01*
X68197297Y-102897787D01*
X68178812Y-102965167D01*
X68176420Y-102968890D01*
X68161132Y-102991770D01*
X68161131Y-102991770D01*
X68149500Y-103050247D01*
X68149500Y-103399752D01*
X68161131Y-103458229D01*
X68161132Y-103458230D01*
X68205447Y-103524552D01*
X68221262Y-103535119D01*
X68271769Y-103568867D01*
X68319693Y-103578399D01*
X68381604Y-103610784D01*
X68416178Y-103671500D01*
X68419502Y-103700017D01*
X68419502Y-103805365D01*
X68419535Y-103809060D01*
X68419613Y-103813460D01*
X68425839Y-103849821D01*
X68430094Y-103874674D01*
X68438067Y-103898634D01*
X68452155Y-103940970D01*
X68461535Y-103964291D01*
X68518190Y-104036089D01*
X68531719Y-104046992D01*
X68531736Y-104047016D01*
X68539214Y-104053041D01*
X68540544Y-104054956D01*
X68561385Y-104070948D01*
X68563691Y-104072761D01*
X68567508Y-104075836D01*
X68567527Y-104075851D01*
X68597387Y-104099916D01*
X68606877Y-104105855D01*
X68668761Y-104153340D01*
X68691650Y-104176228D01*
X68698283Y-104184872D01*
X68729936Y-104226123D01*
X68735094Y-104232844D01*
X68751277Y-104260874D01*
X68758987Y-104279485D01*
X68778586Y-104326802D01*
X68786963Y-104358068D01*
X68796277Y-104428813D01*
X68796277Y-104461185D01*
X68786963Y-104531930D01*
X68778585Y-104563196D01*
X68751279Y-104629119D01*
X68735093Y-104657154D01*
X68691651Y-104713768D01*
X68668763Y-104736657D01*
X68577259Y-104806871D01*
X68567891Y-104813396D01*
X68562930Y-104816522D01*
X68562907Y-104816539D01*
X68552144Y-104825866D01*
X68546433Y-104830525D01*
X68545330Y-104831371D01*
X68542572Y-104834160D01*
X68510109Y-104862289D01*
X68492162Y-104879874D01*
X68492156Y-104879881D01*
X68447513Y-104959691D01*
X68447511Y-104959696D01*
X68427828Y-105026728D01*
X68427827Y-105026733D01*
X68427827Y-105026734D01*
X68426001Y-105039437D01*
X68419502Y-105084635D01*
X68419502Y-105648638D01*
X68420680Y-105670618D01*
X68423513Y-105696965D01*
X68423514Y-105696967D01*
X68447472Y-105773478D01*
X68447473Y-105773483D01*
X68461874Y-105799855D01*
X68480958Y-105834805D01*
X68480960Y-105834808D01*
X68480962Y-105834811D01*
X68516000Y-105881615D01*
X68516004Y-105881619D01*
X68516011Y-105881629D01*
X68516015Y-105881633D01*
X68516018Y-105881636D01*
X69193367Y-106558986D01*
X69193368Y-106558987D01*
X69209718Y-106573674D01*
X69209732Y-106573686D01*
X69209740Y-106573693D01*
X69218138Y-106580460D01*
X69230381Y-106590327D01*
X69301426Y-106627490D01*
X69368458Y-106647173D01*
X69368460Y-106647173D01*
X69368466Y-106647175D01*
X69426364Y-106655500D01*
X71988520Y-106655500D01*
X72055559Y-106675185D01*
X72076201Y-106691819D01*
X72633183Y-107248801D01*
X72666668Y-107310124D01*
X72669502Y-107336482D01*
X72669502Y-117141920D01*
X72671885Y-117173123D01*
X72671886Y-117173133D01*
X72677602Y-117210343D01*
X72677603Y-117210345D01*
X72710014Y-117293551D01*
X72710015Y-117293552D01*
X72727360Y-117319432D01*
X72727364Y-117319437D01*
X72748915Y-117351593D01*
X72748916Y-117351594D01*
X72788055Y-117395043D01*
X72788062Y-117395050D01*
X73374885Y-117884069D01*
X73413784Y-117942108D01*
X73419502Y-117979328D01*
X73419502Y-120813517D01*
X73399817Y-120880556D01*
X73383183Y-120901198D01*
X73016016Y-121268365D01*
X73016014Y-121268366D01*
X73001327Y-121284716D01*
X73001315Y-121284730D01*
X72984674Y-121305379D01*
X72947511Y-121376424D01*
X72927828Y-121443456D01*
X72927827Y-121443464D01*
X72919503Y-121501361D01*
X72919502Y-121501365D01*
X72919502Y-123148638D01*
X72920680Y-123170618D01*
X72923513Y-123196965D01*
X72923514Y-123196967D01*
X72947472Y-123273478D01*
X72947473Y-123273483D01*
X72961874Y-123299855D01*
X72980958Y-123334805D01*
X72980960Y-123334808D01*
X72980962Y-123334811D01*
X73016000Y-123381615D01*
X73016004Y-123381619D01*
X73016011Y-123381629D01*
X73016015Y-123381633D01*
X73016018Y-123381636D01*
X73263181Y-123628799D01*
X73296666Y-123690122D01*
X73299500Y-123716480D01*
X73299500Y-128540046D01*
X73279815Y-128607085D01*
X73259845Y-128630941D01*
X73249955Y-128640117D01*
X73249949Y-128640123D01*
X73091041Y-128839388D01*
X72963608Y-129060109D01*
X72870492Y-129297362D01*
X72870490Y-129297369D01*
X72813777Y-129545845D01*
X72794732Y-129799995D01*
X72794732Y-129800004D01*
X72813777Y-130054154D01*
X72813778Y-130054157D01*
X72870492Y-130302637D01*
X72963607Y-130539888D01*
X73091041Y-130760612D01*
X73249950Y-130959877D01*
X73436783Y-131133232D01*
X73647366Y-131276805D01*
X73647371Y-131276807D01*
X73647372Y-131276808D01*
X73647373Y-131276809D01*
X73769328Y-131335538D01*
X73876992Y-131387387D01*
X73876993Y-131387387D01*
X73876996Y-131387389D01*
X74120542Y-131462513D01*
X74372565Y-131500500D01*
X74627435Y-131500500D01*
X74879458Y-131462513D01*
X75123004Y-131387389D01*
X75352634Y-131276805D01*
X75563217Y-131133232D01*
X75750050Y-130959877D01*
X75908959Y-130760612D01*
X76036393Y-130539888D01*
X76129508Y-130302637D01*
X76186222Y-130054157D01*
X76205268Y-129800000D01*
X76186222Y-129545843D01*
X76129508Y-129297363D01*
X76036393Y-129060112D01*
X75908959Y-128839388D01*
X75750050Y-128640123D01*
X75750044Y-128640117D01*
X75740155Y-128630941D01*
X75704403Y-128570912D01*
X75700500Y-128540046D01*
X75700500Y-123716484D01*
X75720185Y-123649445D01*
X75736819Y-123628803D01*
X75983989Y-123381633D01*
X75984006Y-123381615D01*
X75998695Y-123365262D01*
X76015329Y-123344620D01*
X76052492Y-123273575D01*
X76072177Y-123206536D01*
X76080502Y-123148638D01*
X76080502Y-121501362D01*
X76079324Y-121479393D01*
X76076490Y-121453035D01*
X76052531Y-121376518D01*
X76019046Y-121315195D01*
X76019041Y-121315188D01*
X75984003Y-121268384D01*
X75984000Y-121268381D01*
X75983993Y-121268371D01*
X75616820Y-120901198D01*
X75583336Y-120839876D01*
X75580502Y-120813518D01*
X75580502Y-117979328D01*
X75600187Y-117912289D01*
X75625119Y-117884069D01*
X76211930Y-117395060D01*
X76211932Y-117395057D01*
X76211943Y-117395049D01*
X76234390Y-117373241D01*
X76259322Y-117345021D01*
X76302492Y-117266858D01*
X76305123Y-117257898D01*
X76305125Y-117257889D01*
X76322177Y-117199818D01*
X76330502Y-117141921D01*
X76330502Y-107336481D01*
X76350187Y-107269442D01*
X76366821Y-107248800D01*
X76923802Y-106691819D01*
X76985125Y-106658334D01*
X77011483Y-106655500D01*
X79573641Y-106655500D01*
X79576182Y-106655363D01*
X79595609Y-106654322D01*
X79595616Y-106654321D01*
X79595620Y-106654321D01*
X79621967Y-106651488D01*
X79698484Y-106627529D01*
X79759807Y-106594044D01*
X79806631Y-106558991D01*
X80483993Y-105881629D01*
X80498695Y-105865262D01*
X80515329Y-105844620D01*
X80552492Y-105773575D01*
X80572177Y-105706536D01*
X80580502Y-105648638D01*
X80580502Y-105175058D01*
X80580469Y-105171391D01*
X80580390Y-105166964D01*
X80569906Y-105105731D01*
X80547840Y-105039437D01*
X80538459Y-105016121D01*
X80481803Y-104944327D01*
X80427403Y-104900488D01*
X80377096Y-104870640D01*
X80373287Y-104868380D01*
X80373462Y-104868084D01*
X80359362Y-104859256D01*
X80301239Y-104814656D01*
X80278350Y-104791768D01*
X80234909Y-104735155D01*
X80218724Y-104707121D01*
X80191417Y-104641196D01*
X80183039Y-104609928D01*
X80180032Y-104587085D01*
X80173725Y-104539178D01*
X80173725Y-104506818D01*
X80183038Y-104436067D01*
X80191416Y-104404803D01*
X80201874Y-104379554D01*
X80218725Y-104338872D01*
X80234903Y-104310850D01*
X80278352Y-104254226D01*
X80301230Y-104231348D01*
X80358235Y-104187607D01*
X80380487Y-104174492D01*
X80380407Y-104174341D01*
X80383685Y-104172607D01*
X80384209Y-104172298D01*
X80384555Y-104172148D01*
X80437087Y-104139041D01*
X80489891Y-104093286D01*
X80507845Y-104075695D01*
X80552492Y-103995878D01*
X80572177Y-103928839D01*
X80580502Y-103870941D01*
X80580502Y-103800016D01*
X80600187Y-103732977D01*
X80652991Y-103687222D01*
X80680306Y-103678399D01*
X80728231Y-103668867D01*
X80794552Y-103624552D01*
X80838867Y-103558231D01*
X80838867Y-103558229D01*
X80838868Y-103558229D01*
X80850499Y-103499752D01*
X82649500Y-103499752D01*
X82661131Y-103558229D01*
X82661132Y-103558230D01*
X82705447Y-103624552D01*
X82771769Y-103668867D01*
X82771770Y-103668868D01*
X82830247Y-103680499D01*
X82830250Y-103680500D01*
X82830252Y-103680500D01*
X83469750Y-103680500D01*
X83469751Y-103680499D01*
X83528231Y-103668867D01*
X83528235Y-103668864D01*
X83539511Y-103664194D01*
X83540422Y-103666394D01*
X83591125Y-103650520D01*
X83593334Y-103650500D01*
X83963814Y-103650500D01*
X84030853Y-103670185D01*
X84051495Y-103686819D01*
X84640329Y-104275653D01*
X84647639Y-104283630D01*
X84687548Y-104331193D01*
X84687548Y-104331194D01*
X84732463Y-104357125D01*
X84741580Y-104362932D01*
X84765318Y-104379554D01*
X84765320Y-104379555D01*
X84775149Y-104384138D01*
X84775086Y-104384272D01*
X84776737Y-104384956D01*
X84776766Y-104384878D01*
X84786957Y-104388587D01*
X84786959Y-104388588D01*
X84813655Y-104393294D01*
X84816940Y-104393874D01*
X84827503Y-104396216D01*
X84839344Y-104399388D01*
X84876195Y-104409263D01*
X84936675Y-104403972D01*
X84947482Y-104403500D01*
X85065406Y-104403500D01*
X85132445Y-104423185D01*
X85178200Y-104475989D01*
X85185861Y-104498061D01*
X85187892Y-104506372D01*
X85187893Y-104506375D01*
X85230901Y-104587083D01*
X85230903Y-104587086D01*
X85276662Y-104639895D01*
X85293573Y-104657154D01*
X85294248Y-104657843D01*
X85294249Y-104657844D01*
X85294251Y-104657845D01*
X85374061Y-104702488D01*
X85374065Y-104702490D01*
X85441104Y-104722175D01*
X85499002Y-104730500D01*
X88270502Y-104730500D01*
X88337541Y-104750185D01*
X88383296Y-104802989D01*
X88394502Y-104854500D01*
X88394502Y-108563518D01*
X88374817Y-108630557D01*
X88358183Y-108651199D01*
X88051201Y-108958181D01*
X87989878Y-108991666D01*
X87963520Y-108994500D01*
X86081623Y-108994500D01*
X86052396Y-108996590D01*
X86052382Y-108996591D01*
X86017460Y-109001611D01*
X85935612Y-109032132D01*
X85876832Y-109069901D01*
X85876822Y-109069908D01*
X85832624Y-109108200D01*
X85832621Y-109108202D01*
X85250004Y-109780453D01*
X85240799Y-109791873D01*
X85230181Y-109806055D01*
X85197511Y-109871318D01*
X85177828Y-109938349D01*
X85177827Y-109938357D01*
X85169503Y-109996253D01*
X85169502Y-109996258D01*
X85169502Y-120813517D01*
X85149817Y-120880556D01*
X85133183Y-120901198D01*
X84766016Y-121268365D01*
X84766014Y-121268366D01*
X84751327Y-121284716D01*
X84751315Y-121284730D01*
X84734674Y-121305379D01*
X84697511Y-121376424D01*
X84677828Y-121443456D01*
X84677827Y-121443464D01*
X84669503Y-121501361D01*
X84669502Y-121501365D01*
X84669502Y-123148638D01*
X84670680Y-123170618D01*
X84673513Y-123196965D01*
X84673514Y-123196967D01*
X84697472Y-123273478D01*
X84697473Y-123273483D01*
X84711874Y-123299855D01*
X84730958Y-123334805D01*
X84730960Y-123334808D01*
X84730962Y-123334811D01*
X84766000Y-123381615D01*
X84766004Y-123381619D01*
X84766011Y-123381629D01*
X84766015Y-123381633D01*
X84766018Y-123381636D01*
X85013181Y-123628799D01*
X85046666Y-123690122D01*
X85049500Y-123716480D01*
X85049500Y-128540046D01*
X85029815Y-128607085D01*
X85009845Y-128630941D01*
X84999955Y-128640117D01*
X84999949Y-128640123D01*
X84841041Y-128839388D01*
X84713608Y-129060109D01*
X84620492Y-129297362D01*
X84620490Y-129297369D01*
X84563777Y-129545845D01*
X84544732Y-129799995D01*
X84544732Y-129800004D01*
X84563777Y-130054154D01*
X84563778Y-130054157D01*
X84620492Y-130302637D01*
X84713607Y-130539888D01*
X84841041Y-130760612D01*
X84999950Y-130959877D01*
X85186783Y-131133232D01*
X85397366Y-131276805D01*
X85397371Y-131276807D01*
X85397372Y-131276808D01*
X85397373Y-131276809D01*
X85519328Y-131335538D01*
X85626992Y-131387387D01*
X85626993Y-131387387D01*
X85626996Y-131387389D01*
X85870542Y-131462513D01*
X86122565Y-131500500D01*
X86377435Y-131500500D01*
X86629458Y-131462513D01*
X86873004Y-131387389D01*
X87102634Y-131276805D01*
X87313217Y-131133232D01*
X87500050Y-130959877D01*
X87658959Y-130760612D01*
X87786393Y-130539888D01*
X87879508Y-130302637D01*
X87936222Y-130054157D01*
X87955268Y-129800000D01*
X87936222Y-129545843D01*
X87879508Y-129297363D01*
X87786393Y-129060112D01*
X87658959Y-128839388D01*
X87500050Y-128640123D01*
X87500044Y-128640117D01*
X87490155Y-128630941D01*
X87454403Y-128570912D01*
X87450500Y-128540046D01*
X87450500Y-123716484D01*
X87470185Y-123649445D01*
X87486819Y-123628803D01*
X87733989Y-123381633D01*
X87734006Y-123381615D01*
X87748695Y-123365262D01*
X87765329Y-123344620D01*
X87802492Y-123273575D01*
X87822177Y-123206536D01*
X87830502Y-123148638D01*
X87830502Y-121501362D01*
X87829324Y-121479393D01*
X87826490Y-121453035D01*
X87802531Y-121376518D01*
X87769046Y-121315195D01*
X87769041Y-121315188D01*
X87734003Y-121268384D01*
X87734000Y-121268381D01*
X87733993Y-121268371D01*
X87366820Y-120901198D01*
X87333336Y-120839876D01*
X87330502Y-120813518D01*
X87330502Y-116833223D01*
X87350187Y-116766184D01*
X87365348Y-116747040D01*
X87900615Y-116193317D01*
X87961361Y-116158798D01*
X87989769Y-116155500D01*
X92048641Y-116155500D01*
X92051182Y-116155363D01*
X92070609Y-116154322D01*
X92070616Y-116154321D01*
X92070620Y-116154321D01*
X92096967Y-116151488D01*
X92173484Y-116127529D01*
X92234807Y-116094044D01*
X92281631Y-116058991D01*
X92958993Y-115381629D01*
X92973695Y-115365262D01*
X92990329Y-115344620D01*
X93027492Y-115273575D01*
X93047177Y-115206536D01*
X93055502Y-115148638D01*
X93055502Y-102751362D01*
X93054324Y-102729393D01*
X93051490Y-102703035D01*
X93027531Y-102626518D01*
X92994046Y-102565195D01*
X92991185Y-102561373D01*
X92959003Y-102518384D01*
X92959000Y-102518381D01*
X92958993Y-102518371D01*
X92746599Y-102305977D01*
X92531636Y-102091013D01*
X92531635Y-102091012D01*
X92515285Y-102076325D01*
X92515271Y-102076313D01*
X92494622Y-102059672D01*
X92423577Y-102022509D01*
X92356545Y-102002826D01*
X92355896Y-102002732D01*
X92298640Y-101994500D01*
X92298636Y-101994500D01*
X88754502Y-101994500D01*
X88687463Y-101974815D01*
X88641708Y-101922011D01*
X88630502Y-101870500D01*
X88630502Y-101399008D01*
X88630501Y-101398992D01*
X88629115Y-101386104D01*
X88625805Y-101355316D01*
X88621410Y-101335114D01*
X88614604Y-101303825D01*
X88614350Y-101302789D01*
X88612112Y-101293627D01*
X88569102Y-101212915D01*
X88523347Y-101160111D01*
X88523341Y-101160104D01*
X88505759Y-101142160D01*
X88505758Y-101142159D01*
X88505756Y-101142157D01*
X88505754Y-101142156D01*
X88505752Y-101142154D01*
X88425942Y-101097511D01*
X88425937Y-101097509D01*
X88358905Y-101077826D01*
X88358901Y-101077825D01*
X88358900Y-101077825D01*
X88301002Y-101069500D01*
X87577663Y-101069500D01*
X87533188Y-101074370D01*
X87480775Y-101085989D01*
X87473616Y-101088420D01*
X87433762Y-101094999D01*
X87061694Y-101094999D01*
X87045514Y-101093939D01*
X87031857Y-101092141D01*
X87007929Y-101088992D01*
X87007926Y-101088991D01*
X87007919Y-101088991D01*
X86951598Y-101087935D01*
X86947690Y-101088159D01*
X86941650Y-101087950D01*
X86941641Y-101087950D01*
X86941640Y-101087950D01*
X86924042Y-101088092D01*
X86924040Y-101088093D01*
X86836030Y-101112961D01*
X86836028Y-101112961D01*
X86836025Y-101112963D01*
X86774712Y-101146441D01*
X86727884Y-101181497D01*
X86727872Y-101181507D01*
X86566011Y-101343368D01*
X86551294Y-101359752D01*
X86532802Y-101382703D01*
X86475411Y-101422554D01*
X86405586Y-101425052D01*
X86345495Y-101389402D01*
X86342533Y-101386104D01*
X86298350Y-101335114D01*
X86298346Y-101335110D01*
X86280759Y-101317160D01*
X86280758Y-101317159D01*
X86280756Y-101317157D01*
X86280754Y-101317156D01*
X86280752Y-101317154D01*
X86200942Y-101272511D01*
X86200937Y-101272509D01*
X86133905Y-101252826D01*
X86133901Y-101252825D01*
X86133900Y-101252825D01*
X86076002Y-101244500D01*
X85424002Y-101244500D01*
X85423994Y-101244500D01*
X85380315Y-101249197D01*
X85328827Y-101260397D01*
X85318629Y-101262890D01*
X85318626Y-101262891D01*
X85237918Y-101305899D01*
X85237915Y-101305901D01*
X85185106Y-101351660D01*
X85167162Y-101369242D01*
X85167156Y-101369249D01*
X85122513Y-101449059D01*
X85119813Y-101455487D01*
X85117691Y-101454595D01*
X85085795Y-101504219D01*
X85022237Y-101533239D01*
X85004600Y-101534500D01*
X84909630Y-101534500D01*
X84898821Y-101534028D01*
X84861194Y-101530735D01*
X84861193Y-101530735D01*
X84824705Y-101540512D01*
X84814150Y-101542852D01*
X84776962Y-101549410D01*
X84771963Y-101551229D01*
X84755119Y-101558206D01*
X84750315Y-101560446D01*
X84719383Y-101582105D01*
X84710266Y-101587914D01*
X84677550Y-101606804D01*
X84677542Y-101606810D01*
X84653264Y-101635743D01*
X84645958Y-101643716D01*
X83976495Y-102313181D01*
X83915172Y-102346666D01*
X83888814Y-102349500D01*
X83771807Y-102349500D01*
X83704768Y-102329815D01*
X83659013Y-102277011D01*
X83649069Y-102207853D01*
X83650190Y-102201306D01*
X83650499Y-102199752D01*
X83650500Y-102199748D01*
X83650500Y-101850252D01*
X83650500Y-101850249D01*
X83650499Y-101850247D01*
X83638868Y-101791770D01*
X83638867Y-101791769D01*
X83594552Y-101725447D01*
X83528230Y-101681132D01*
X83528229Y-101681131D01*
X83469752Y-101669500D01*
X83469748Y-101669500D01*
X82830252Y-101669500D01*
X82830247Y-101669500D01*
X82771770Y-101681131D01*
X82771769Y-101681132D01*
X82705447Y-101725447D01*
X82661132Y-101791769D01*
X82661131Y-101791770D01*
X82649500Y-101850247D01*
X82649500Y-102199752D01*
X82661131Y-102258229D01*
X82676420Y-102281110D01*
X82697297Y-102347787D01*
X82678812Y-102415167D01*
X82676420Y-102418890D01*
X82661132Y-102441770D01*
X82661131Y-102441770D01*
X82649500Y-102500247D01*
X82649500Y-102849752D01*
X82661131Y-102908229D01*
X82676420Y-102931110D01*
X82697297Y-102997787D01*
X82678812Y-103065167D01*
X82676420Y-103068890D01*
X82661132Y-103091770D01*
X82661131Y-103091770D01*
X82649500Y-103150247D01*
X82649500Y-103499752D01*
X80850499Y-103499752D01*
X80850500Y-103499750D01*
X80850500Y-103150249D01*
X80850499Y-103150247D01*
X80838868Y-103091770D01*
X80838867Y-103091768D01*
X80823581Y-103068892D01*
X80802702Y-103002215D01*
X80821186Y-102934835D01*
X80823581Y-102931108D01*
X80838867Y-102908231D01*
X80838868Y-102908229D01*
X80850499Y-102849752D01*
X80850500Y-102849750D01*
X80850500Y-102500249D01*
X80850499Y-102500247D01*
X80838868Y-102441770D01*
X80838867Y-102441768D01*
X80823581Y-102418892D01*
X80802702Y-102352215D01*
X80821186Y-102284835D01*
X80823581Y-102281108D01*
X80838867Y-102258231D01*
X80838868Y-102258229D01*
X80850499Y-102199752D01*
X80850500Y-102199750D01*
X80850500Y-101850249D01*
X80850499Y-101850247D01*
X80838868Y-101791770D01*
X80838867Y-101791768D01*
X80823581Y-101768892D01*
X80802702Y-101702215D01*
X80821186Y-101634835D01*
X80823581Y-101631108D01*
X80838867Y-101608231D01*
X80838868Y-101608229D01*
X80850499Y-101549752D01*
X80850500Y-101549750D01*
X80850500Y-101200249D01*
X80850499Y-101200247D01*
X80838868Y-101141770D01*
X80838867Y-101141769D01*
X80794552Y-101075447D01*
X80728230Y-101031132D01*
X80680310Y-101021600D01*
X80618399Y-100989215D01*
X80583825Y-100928499D01*
X80580502Y-100899983D01*
X80580502Y-100789707D01*
X80580502Y-100789703D01*
X80580469Y-100786036D01*
X80580390Y-100781609D01*
X80569907Y-100720379D01*
X80568996Y-100717643D01*
X80547842Y-100654085D01*
X80539632Y-100633680D01*
X80538458Y-100630761D01*
X80502561Y-100585275D01*
X80481799Y-100558967D01*
X80427396Y-100515129D01*
X80427394Y-100515127D01*
X80421404Y-100511573D01*
X80409196Y-100503310D01*
X80326235Y-100439652D01*
X80303346Y-100416763D01*
X80259910Y-100360157D01*
X80243726Y-100332126D01*
X80216416Y-100266194D01*
X80208039Y-100234928D01*
X80201887Y-100188198D01*
X80198725Y-100164178D01*
X80198725Y-100131818D01*
X80208038Y-100061067D01*
X80216416Y-100029803D01*
X80235774Y-99983069D01*
X80243725Y-99963872D01*
X80259904Y-99935849D01*
X80303354Y-99879223D01*
X80326232Y-99856345D01*
X80409865Y-99792172D01*
X80419214Y-99785659D01*
X80437087Y-99774397D01*
X80489891Y-99728642D01*
X80507845Y-99711051D01*
X80552492Y-99631234D01*
X80572177Y-99564195D01*
X80580502Y-99506297D01*
X80580502Y-97001362D01*
X80579324Y-96979393D01*
X80576490Y-96953035D01*
X80552531Y-96876518D01*
X80519046Y-96815195D01*
X80483993Y-96768371D01*
X80162587Y-96446965D01*
X79806636Y-96091013D01*
X79806635Y-96091012D01*
X79790285Y-96076325D01*
X79790271Y-96076313D01*
X79769622Y-96059672D01*
X79698577Y-96022509D01*
X79631545Y-96002826D01*
X79630896Y-96002732D01*
X79573640Y-95994500D01*
X79573636Y-95994500D01*
X71261484Y-95994500D01*
X71194445Y-95974815D01*
X71173803Y-95958181D01*
X70616821Y-95401199D01*
X70583336Y-95339876D01*
X70580502Y-95313518D01*
X70580502Y-93814751D01*
X73699500Y-93814751D01*
X73715047Y-93912917D01*
X73715049Y-93912920D01*
X73775342Y-94031251D01*
X73775344Y-94031253D01*
X73775346Y-94031256D01*
X73869243Y-94125153D01*
X73869245Y-94125154D01*
X73869249Y-94125158D01*
X73987580Y-94185451D01*
X73987581Y-94185451D01*
X73987583Y-94185452D01*
X73987582Y-94185452D01*
X74085749Y-94201000D01*
X74085754Y-94201000D01*
X74914251Y-94201000D01*
X75012417Y-94185452D01*
X75012418Y-94185451D01*
X75012420Y-94185451D01*
X75130751Y-94125158D01*
X75206091Y-94049817D01*
X75267412Y-94016334D01*
X75293771Y-94013500D01*
X76208523Y-94013500D01*
X76275562Y-94033185D01*
X76282156Y-94037730D01*
X76337113Y-94078290D01*
X76337115Y-94078291D01*
X76337118Y-94078293D01*
X76379845Y-94093244D01*
X76465299Y-94123146D01*
X76495730Y-94126000D01*
X76495734Y-94126000D01*
X77504270Y-94126000D01*
X77534699Y-94123146D01*
X77534701Y-94123146D01*
X77598790Y-94100719D01*
X77662882Y-94078293D01*
X77772150Y-93997650D01*
X77852793Y-93888382D01*
X77878559Y-93814746D01*
X77897646Y-93760201D01*
X77897646Y-93760199D01*
X77900500Y-93729769D01*
X77900500Y-93096230D01*
X77897646Y-93065800D01*
X77897646Y-93065798D01*
X77864006Y-92969663D01*
X77852793Y-92937618D01*
X77772150Y-92828350D01*
X77662882Y-92747707D01*
X77662880Y-92747706D01*
X77534700Y-92702853D01*
X77504270Y-92700000D01*
X77504266Y-92700000D01*
X76495734Y-92700000D01*
X76495730Y-92700000D01*
X76465300Y-92702853D01*
X76465298Y-92702853D01*
X76337119Y-92747706D01*
X76337117Y-92747707D01*
X76227850Y-92828350D01*
X76147207Y-92937617D01*
X76115071Y-93029456D01*
X76074349Y-93086231D01*
X76009396Y-93111978D01*
X75998030Y-93112500D01*
X75293771Y-93112500D01*
X75226732Y-93092815D01*
X75206094Y-93076185D01*
X75130751Y-93000842D01*
X75012420Y-92940549D01*
X75012419Y-92940548D01*
X75012416Y-92940547D01*
X75012417Y-92940547D01*
X74914251Y-92925000D01*
X74914246Y-92925000D01*
X74085754Y-92925000D01*
X74085749Y-92925000D01*
X73987582Y-92940547D01*
X73908692Y-92980744D01*
X73869249Y-93000842D01*
X73869248Y-93000843D01*
X73869243Y-93000846D01*
X73775346Y-93094743D01*
X73775343Y-93094748D01*
X73775342Y-93094749D01*
X73755244Y-93134192D01*
X73715047Y-93213082D01*
X73699500Y-93311248D01*
X73699500Y-93814751D01*
X70580502Y-93814751D01*
X70580502Y-93086482D01*
X70600187Y-93019443D01*
X70616821Y-92998801D01*
X70923803Y-92691819D01*
X70985126Y-92658334D01*
X71011484Y-92655500D01*
X74823641Y-92655500D01*
X74826182Y-92655363D01*
X74845609Y-92654322D01*
X74845616Y-92654321D01*
X74845620Y-92654321D01*
X74871967Y-92651488D01*
X74948484Y-92627529D01*
X75009807Y-92594044D01*
X75056631Y-92558991D01*
X75483993Y-92131629D01*
X75498695Y-92115262D01*
X75515329Y-92094620D01*
X75552492Y-92023575D01*
X75572175Y-91956543D01*
X75572175Y-91956542D01*
X75572177Y-91956536D01*
X75580502Y-91898638D01*
X75580502Y-90251362D01*
X75579324Y-90229393D01*
X75577589Y-90213260D01*
X75576490Y-90203034D01*
X75576489Y-90203032D01*
X75552531Y-90126518D01*
X75519046Y-90065195D01*
X75483993Y-90018371D01*
X75379432Y-89913810D01*
X75056636Y-89591013D01*
X75056635Y-89591012D01*
X75040285Y-89576325D01*
X75040271Y-89576313D01*
X75019622Y-89559672D01*
X74948577Y-89522509D01*
X74881545Y-89502826D01*
X74879139Y-89502480D01*
X74823640Y-89494500D01*
X74461606Y-89494500D01*
X74461602Y-89494500D01*
X74432363Y-89496591D01*
X74397431Y-89501613D01*
X74315571Y-89532143D01*
X74315570Y-89532144D01*
X74256795Y-89569916D01*
X74256786Y-89569923D01*
X74225184Y-89597304D01*
X74211027Y-89607901D01*
X74158804Y-89641464D01*
X74126697Y-89656127D01*
X74079524Y-89669978D01*
X74044590Y-89675001D01*
X73995413Y-89675001D01*
X73960479Y-89669978D01*
X73913299Y-89656125D01*
X73881194Y-89641464D01*
X73834930Y-89611732D01*
X73814293Y-89595102D01*
X73806690Y-89587500D01*
X73806676Y-89587486D01*
X73806664Y-89587475D01*
X73806657Y-89587469D01*
X73780002Y-89564374D01*
X73703333Y-89522511D01*
X73703332Y-89522510D01*
X73703331Y-89522510D01*
X73662100Y-89510403D01*
X73636297Y-89502826D01*
X73636293Y-89502825D01*
X73636292Y-89502825D01*
X73578394Y-89494500D01*
X73049500Y-89494500D01*
X72982461Y-89474815D01*
X72936706Y-89422011D01*
X72925500Y-89370500D01*
X72925500Y-89333413D01*
X72945185Y-89266374D01*
X72949730Y-89259779D01*
X73002793Y-89187882D01*
X73025219Y-89123790D01*
X73047646Y-89059701D01*
X73047646Y-89059699D01*
X73050500Y-89029269D01*
X73050500Y-88275833D01*
X73070185Y-88208794D01*
X73086819Y-88188152D01*
X73138152Y-88136819D01*
X73199475Y-88103334D01*
X73225833Y-88100500D01*
X73633904Y-88100500D01*
X73651032Y-88101689D01*
X73658803Y-88102772D01*
X73658803Y-88102771D01*
X73658807Y-88102773D01*
X73705122Y-88100632D01*
X73710847Y-88100500D01*
X73728885Y-88100500D01*
X73728886Y-88100500D01*
X73728886Y-88100499D01*
X73733773Y-88100046D01*
X73744360Y-88098817D01*
X73771034Y-88097585D01*
X73777364Y-88094789D01*
X73804671Y-88086332D01*
X73811475Y-88085061D01*
X73811477Y-88085059D01*
X73811479Y-88085059D01*
X73834180Y-88071003D01*
X73849367Y-88062996D01*
X73873807Y-88052206D01*
X73878703Y-88047309D01*
X73901111Y-88029561D01*
X73906994Y-88025919D01*
X73923095Y-88004595D01*
X73934356Y-87991655D01*
X74415011Y-87511000D01*
X74427963Y-87499730D01*
X74434223Y-87495002D01*
X74434228Y-87495000D01*
X74465488Y-87460708D01*
X74469402Y-87456609D01*
X74482174Y-87443839D01*
X74482175Y-87443838D01*
X74485282Y-87440096D01*
X74491916Y-87431718D01*
X74509916Y-87411975D01*
X74512417Y-87405518D01*
X74525750Y-87380226D01*
X74526329Y-87379381D01*
X74529657Y-87374523D01*
X74535772Y-87348520D01*
X74540854Y-87332113D01*
X74548157Y-87313264D01*
X74550500Y-87307215D01*
X74550500Y-87300290D01*
X74553794Y-87271898D01*
X74555379Y-87265161D01*
X74551689Y-87238707D01*
X74550500Y-87221577D01*
X74550500Y-87085163D01*
X74559941Y-87037704D01*
X74563863Y-87028234D01*
X74563867Y-87028229D01*
X74564341Y-87025850D01*
X74573080Y-86981914D01*
X74575500Y-86969746D01*
X74575500Y-86430250D01*
X74575500Y-86430247D01*
X74575499Y-86430245D01*
X74563868Y-86371768D01*
X74563867Y-86371767D01*
X74519552Y-86305445D01*
X74453230Y-86261130D01*
X74453229Y-86261129D01*
X74394752Y-86249498D01*
X74394748Y-86249498D01*
X74105252Y-86249498D01*
X74105249Y-86249498D01*
X74034791Y-86263513D01*
X74034537Y-86262237D01*
X73977972Y-86268313D01*
X73954096Y-86261302D01*
X73894753Y-86249498D01*
X73894750Y-86249498D01*
X73605254Y-86249498D01*
X73605249Y-86249498D01*
X73546772Y-86261129D01*
X73546771Y-86261130D01*
X73480449Y-86305445D01*
X73436134Y-86371767D01*
X73436133Y-86371768D01*
X73424502Y-86430245D01*
X73424502Y-86850500D01*
X73404817Y-86917539D01*
X73352013Y-86963294D01*
X73300502Y-86974500D01*
X72536190Y-86974500D01*
X72469151Y-86954815D01*
X72448509Y-86938181D01*
X72369611Y-86859283D01*
X72336126Y-86797960D01*
X72341110Y-86728268D01*
X72374569Y-86683572D01*
X72372733Y-86681736D01*
X72395078Y-86659391D01*
X72464065Y-86590404D01*
X72514068Y-86483173D01*
X72520500Y-86434316D01*
X72520500Y-86085684D01*
X72514068Y-86036827D01*
X72464065Y-85929596D01*
X72380404Y-85845935D01*
X72273173Y-85795932D01*
X72273171Y-85795931D01*
X72273172Y-85795931D01*
X72224317Y-85789500D01*
X72224316Y-85789500D01*
X71775684Y-85789500D01*
X71775683Y-85789500D01*
X71726828Y-85795931D01*
X71619597Y-85845934D01*
X71567349Y-85898182D01*
X71506025Y-85931666D01*
X71479668Y-85934500D01*
X71270332Y-85934500D01*
X71203293Y-85914815D01*
X71182651Y-85898182D01*
X71130404Y-85845935D01*
X71130402Y-85845934D01*
X71122733Y-85838265D01*
X71125561Y-85835436D01*
X71094843Y-85797023D01*
X71087635Y-85727526D01*
X71119143Y-85665165D01*
X71122903Y-85661906D01*
X71122733Y-85661736D01*
X71130405Y-85654064D01*
X71214065Y-85570404D01*
X71264068Y-85463173D01*
X71270500Y-85414316D01*
X71270500Y-85065684D01*
X71264068Y-85016827D01*
X71214065Y-84909596D01*
X71170079Y-84865610D01*
X71136594Y-84804287D01*
X71141578Y-84734595D01*
X71170077Y-84690250D01*
X71566293Y-84294033D01*
X71574245Y-84286746D01*
X71603196Y-84262455D01*
X71622084Y-84229739D01*
X71627889Y-84220625D01*
X71649556Y-84189684D01*
X71649556Y-84189681D01*
X71651821Y-84184824D01*
X71658749Y-84168099D01*
X71660586Y-84163050D01*
X71660590Y-84163045D01*
X71667151Y-84125830D01*
X71669481Y-84115319D01*
X71679266Y-84078807D01*
X71675973Y-84041180D01*
X71675502Y-84030372D01*
X71675502Y-83967243D01*
X71695187Y-83900204D01*
X71747991Y-83854449D01*
X71817149Y-83844505D01*
X71873135Y-83867473D01*
X71877261Y-83870518D01*
X71887116Y-83877792D01*
X71887117Y-83877792D01*
X71887118Y-83877793D01*
X71929845Y-83892744D01*
X72015299Y-83922646D01*
X72045730Y-83925500D01*
X72045734Y-83925500D01*
X72183868Y-83925500D01*
X72250907Y-83945185D01*
X72296662Y-83997989D01*
X72306606Y-84067147D01*
X72296662Y-84101011D01*
X72290952Y-84113513D01*
X72290951Y-84113514D01*
X72270470Y-84255972D01*
X72290951Y-84398428D01*
X72344243Y-84515119D01*
X72350740Y-84529345D01*
X72444989Y-84638115D01*
X72566064Y-84715925D01*
X72566067Y-84715926D01*
X72566066Y-84715926D01*
X72704153Y-84756471D01*
X72704155Y-84756472D01*
X72800500Y-84756472D01*
X72867539Y-84776157D01*
X72913294Y-84828961D01*
X72924500Y-84880472D01*
X72924500Y-85069751D01*
X72936131Y-85128228D01*
X72936132Y-85128229D01*
X72980447Y-85194551D01*
X73046769Y-85238866D01*
X73046770Y-85238867D01*
X73105247Y-85250498D01*
X73105250Y-85250499D01*
X73105252Y-85250499D01*
X73394750Y-85250499D01*
X73394751Y-85250498D01*
X73409485Y-85247567D01*
X73465210Y-85236484D01*
X73465463Y-85237760D01*
X73522014Y-85231680D01*
X73545906Y-85238694D01*
X73605249Y-85250498D01*
X73605252Y-85250499D01*
X73605254Y-85250499D01*
X73894752Y-85250499D01*
X73894753Y-85250498D01*
X73909487Y-85247567D01*
X73965212Y-85236484D01*
X73965466Y-85237761D01*
X74022006Y-85231678D01*
X74045901Y-85238694D01*
X74105247Y-85250498D01*
X74105250Y-85250499D01*
X74105252Y-85250499D01*
X74394750Y-85250499D01*
X74394751Y-85250498D01*
X74409485Y-85247567D01*
X74465210Y-85236484D01*
X74465464Y-85237761D01*
X74522009Y-85231679D01*
X74545899Y-85238693D01*
X74605247Y-85250498D01*
X74605250Y-85250499D01*
X74605252Y-85250499D01*
X74894750Y-85250499D01*
X74894751Y-85250498D01*
X74909485Y-85247567D01*
X74965210Y-85236484D01*
X74965464Y-85237761D01*
X75022009Y-85231679D01*
X75045905Y-85238694D01*
X75105248Y-85250498D01*
X75105251Y-85250499D01*
X75105253Y-85250499D01*
X75394751Y-85250499D01*
X75394752Y-85250498D01*
X75409486Y-85247567D01*
X75465211Y-85236484D01*
X75465465Y-85237761D01*
X75522005Y-85231678D01*
X75545899Y-85238693D01*
X75605247Y-85250498D01*
X75605250Y-85250499D01*
X75605252Y-85250499D01*
X75894750Y-85250499D01*
X75894751Y-85250498D01*
X75909568Y-85247551D01*
X75953229Y-85238867D01*
X75964513Y-85234193D01*
X75966168Y-85238190D01*
X76010369Y-85224334D01*
X76077755Y-85242794D01*
X76100307Y-85260632D01*
X76295957Y-85456282D01*
X76303264Y-85464256D01*
X76327544Y-85493190D01*
X76327547Y-85493194D01*
X76360263Y-85512082D01*
X76369368Y-85517882D01*
X76400318Y-85539553D01*
X76400320Y-85539553D01*
X76400321Y-85539554D01*
X76405170Y-85541815D01*
X76421949Y-85548765D01*
X76426953Y-85550587D01*
X76426956Y-85550587D01*
X76426957Y-85550588D01*
X76464164Y-85557148D01*
X76474707Y-85559486D01*
X76491123Y-85563884D01*
X76511195Y-85569263D01*
X76511195Y-85569262D01*
X76511338Y-85569301D01*
X76566926Y-85601395D01*
X76619596Y-85654065D01*
X76726827Y-85704068D01*
X76775683Y-85710500D01*
X76775684Y-85710500D01*
X77224317Y-85710500D01*
X77240601Y-85708356D01*
X77273173Y-85704068D01*
X77380404Y-85654065D01*
X77432651Y-85601818D01*
X77493975Y-85568334D01*
X77520332Y-85565500D01*
X77729668Y-85565500D01*
X77796707Y-85585185D01*
X77817349Y-85601818D01*
X77869596Y-85654065D01*
X77869597Y-85654065D01*
X77877267Y-85661735D01*
X77874443Y-85664558D01*
X77905183Y-85703042D01*
X77912352Y-85772542D01*
X77880808Y-85834886D01*
X77877101Y-85838098D01*
X77877267Y-85838264D01*
X77785935Y-85929595D01*
X77735931Y-86036828D01*
X77729500Y-86085683D01*
X77729500Y-86434316D01*
X77735931Y-86483171D01*
X77785935Y-86590404D01*
X77854922Y-86659391D01*
X77888407Y-86720714D01*
X77883423Y-86790406D01*
X77854922Y-86834753D01*
X77383717Y-87305957D01*
X77375744Y-87313264D01*
X77346807Y-87337545D01*
X77327916Y-87370264D01*
X77322107Y-87379381D01*
X77300448Y-87410313D01*
X77298208Y-87415117D01*
X77291231Y-87431961D01*
X77289412Y-87436960D01*
X77282854Y-87474148D01*
X77280514Y-87484703D01*
X77267930Y-87531671D01*
X77264752Y-87530819D01*
X77245912Y-87578963D01*
X77189315Y-87619932D01*
X77119552Y-87623799D01*
X77106898Y-87620113D01*
X77069655Y-87607081D01*
X77044540Y-87598293D01*
X76987764Y-87557571D01*
X76963379Y-87502783D01*
X76962569Y-87498188D01*
X76960588Y-87486953D01*
X76960587Y-87486951D01*
X76958760Y-87481931D01*
X76951820Y-87465174D01*
X76949554Y-87460317D01*
X76949554Y-87460314D01*
X76938018Y-87443839D01*
X76927890Y-87429374D01*
X76922078Y-87420251D01*
X76903193Y-87387542D01*
X76874262Y-87363266D01*
X76866286Y-87355957D01*
X76594046Y-87083718D01*
X76586736Y-87075741D01*
X76562458Y-87046807D01*
X76562457Y-87046806D01*
X76534077Y-87030420D01*
X76529736Y-87027914D01*
X76520618Y-87022104D01*
X76489686Y-87000446D01*
X76484863Y-86998197D01*
X76468057Y-86991235D01*
X76463044Y-86989411D01*
X76425854Y-86982852D01*
X76415300Y-86980512D01*
X76378810Y-86970735D01*
X76341183Y-86974028D01*
X76330374Y-86974500D01*
X76286190Y-86974500D01*
X76219151Y-86954815D01*
X76198509Y-86938181D01*
X76111819Y-86851491D01*
X76078334Y-86790168D01*
X76075500Y-86763810D01*
X76075500Y-86430247D01*
X76075499Y-86430245D01*
X76063868Y-86371768D01*
X76063867Y-86371767D01*
X76019552Y-86305445D01*
X75953230Y-86261130D01*
X75953229Y-86261129D01*
X75894752Y-86249498D01*
X75894748Y-86249498D01*
X75605252Y-86249498D01*
X75605249Y-86249498D01*
X75534791Y-86263513D01*
X75534537Y-86262236D01*
X75477982Y-86268315D01*
X75454100Y-86261303D01*
X75394753Y-86249498D01*
X75394749Y-86249498D01*
X75105253Y-86249498D01*
X75105248Y-86249498D01*
X75046771Y-86261129D01*
X75046770Y-86261130D01*
X74980448Y-86305445D01*
X74936133Y-86371767D01*
X74936132Y-86371768D01*
X74924501Y-86430245D01*
X74924501Y-87463809D01*
X74904816Y-87530848D01*
X74888182Y-87551491D01*
X74763709Y-87675963D01*
X74755736Y-87683268D01*
X74726807Y-87707542D01*
X74726806Y-87707544D01*
X74707914Y-87740264D01*
X74702105Y-87749381D01*
X74680446Y-87780313D01*
X74678206Y-87785117D01*
X74671229Y-87801961D01*
X74669410Y-87806960D01*
X74662852Y-87844148D01*
X74660512Y-87854703D01*
X74650735Y-87891191D01*
X74650735Y-87891192D01*
X74654028Y-87928817D01*
X74654500Y-87939626D01*
X74654500Y-87982598D01*
X74634815Y-88049637D01*
X74618181Y-88070279D01*
X74556776Y-88131683D01*
X74506027Y-88240514D01*
X74499500Y-88290098D01*
X74499500Y-88709894D01*
X74499501Y-88709900D01*
X74506028Y-88759487D01*
X74506029Y-88759489D01*
X74506029Y-88759490D01*
X74533353Y-88818085D01*
X74556776Y-88868316D01*
X74641684Y-88953224D01*
X74750513Y-89003972D01*
X74800099Y-89010500D01*
X75159900Y-89010499D01*
X75209487Y-89003972D01*
X75318316Y-88953224D01*
X75403224Y-88868316D01*
X75453972Y-88759487D01*
X75460500Y-88709901D01*
X75460499Y-88290100D01*
X75453972Y-88240513D01*
X75403224Y-88131684D01*
X75403223Y-88131683D01*
X75403223Y-88131682D01*
X75397002Y-88122798D01*
X75398120Y-88122014D01*
X75370128Y-88070750D01*
X75375112Y-88001058D01*
X75403611Y-87956713D01*
X75466291Y-87894033D01*
X75474244Y-87886745D01*
X75503195Y-87862454D01*
X75522083Y-87829738D01*
X75527888Y-87820624D01*
X75549555Y-87789683D01*
X75549555Y-87789680D01*
X75551820Y-87784823D01*
X75558748Y-87768098D01*
X75560585Y-87763049D01*
X75560589Y-87763044D01*
X75567150Y-87725829D01*
X75569480Y-87715318D01*
X75579265Y-87678806D01*
X75575972Y-87641179D01*
X75575501Y-87630371D01*
X75575501Y-87535187D01*
X75595186Y-87468148D01*
X75647990Y-87422393D01*
X75717148Y-87412449D01*
X75780704Y-87441474D01*
X75787182Y-87447506D01*
X75855952Y-87516276D01*
X75863259Y-87524250D01*
X75887543Y-87553190D01*
X75887545Y-87553191D01*
X75887547Y-87553194D01*
X75887549Y-87553195D01*
X75887550Y-87553196D01*
X75920258Y-87572080D01*
X75929381Y-87577892D01*
X75960318Y-87599554D01*
X75960323Y-87599555D01*
X75967094Y-87602713D01*
X76019536Y-87648882D01*
X76038692Y-87716074D01*
X76018480Y-87782957D01*
X76014468Y-87788730D01*
X75997207Y-87812118D01*
X75997206Y-87812119D01*
X75952353Y-87940298D01*
X75952353Y-87940300D01*
X75949500Y-87970730D01*
X75949500Y-89029269D01*
X75952353Y-89059699D01*
X75952353Y-89059701D01*
X75997206Y-89187880D01*
X75997207Y-89187882D01*
X76077850Y-89297150D01*
X76187118Y-89377793D01*
X76241456Y-89396806D01*
X76298231Y-89437527D01*
X76323978Y-89502480D01*
X76324500Y-89513847D01*
X76324500Y-90080370D01*
X76324028Y-90091179D01*
X76320735Y-90128806D01*
X76330512Y-90165296D01*
X76332852Y-90175850D01*
X76339411Y-90213040D01*
X76341235Y-90218053D01*
X76348197Y-90234859D01*
X76350446Y-90239682D01*
X76372104Y-90270614D01*
X76377914Y-90279732D01*
X76396806Y-90312453D01*
X76420019Y-90331931D01*
X76425743Y-90336734D01*
X76433718Y-90344042D01*
X76638181Y-90548505D01*
X76671666Y-90609828D01*
X76674500Y-90636186D01*
X76674500Y-90751000D01*
X76654815Y-90818039D01*
X76602011Y-90863794D01*
X76550500Y-90875000D01*
X76495730Y-90875000D01*
X76465300Y-90877853D01*
X76465298Y-90877853D01*
X76337119Y-90922706D01*
X76337117Y-90922707D01*
X76227850Y-91003350D01*
X76147207Y-91112617D01*
X76147206Y-91112619D01*
X76102353Y-91240798D01*
X76102353Y-91240800D01*
X76099500Y-91271230D01*
X76099500Y-91904769D01*
X76102353Y-91935199D01*
X76102353Y-91935201D01*
X76147206Y-92063380D01*
X76147207Y-92063382D01*
X76227850Y-92172650D01*
X76337118Y-92253293D01*
X76379845Y-92268244D01*
X76465299Y-92298146D01*
X76495730Y-92301000D01*
X76495734Y-92301000D01*
X77504270Y-92301000D01*
X77534699Y-92298146D01*
X77534701Y-92298146D01*
X77598790Y-92275719D01*
X77662882Y-92253293D01*
X77772150Y-92172650D01*
X77852793Y-92063382D01*
X77876426Y-91995843D01*
X77897646Y-91935201D01*
X77897646Y-91935199D01*
X77900500Y-91904769D01*
X77900500Y-91271230D01*
X77897646Y-91240800D01*
X77897646Y-91240798D01*
X77852793Y-91112619D01*
X77852792Y-91112617D01*
X77836191Y-91090123D01*
X77772150Y-91003350D01*
X77662882Y-90922707D01*
X77662880Y-90922706D01*
X77534700Y-90877853D01*
X77504270Y-90875000D01*
X77504266Y-90875000D01*
X77449500Y-90875000D01*
X77382461Y-90855315D01*
X77336706Y-90802511D01*
X77325500Y-90751000D01*
X77325500Y-90469624D01*
X77325972Y-90458815D01*
X77329264Y-90421191D01*
X77319478Y-90384673D01*
X77317150Y-90374171D01*
X77310588Y-90336953D01*
X77310585Y-90336947D01*
X77308760Y-90331931D01*
X77301820Y-90315174D01*
X77299554Y-90310317D01*
X77299554Y-90310314D01*
X77280556Y-90283182D01*
X77277892Y-90279377D01*
X77272080Y-90270254D01*
X77253196Y-90237546D01*
X77253191Y-90237540D01*
X77224255Y-90213260D01*
X77216280Y-90205952D01*
X77011819Y-90001491D01*
X76978334Y-89940168D01*
X76975500Y-89913810D01*
X76975500Y-89513847D01*
X76995185Y-89446808D01*
X77047989Y-89401053D01*
X77058528Y-89396812D01*
X77112882Y-89377793D01*
X77222150Y-89297150D01*
X77302793Y-89187882D01*
X77325219Y-89123790D01*
X77347646Y-89059701D01*
X77347646Y-89059699D01*
X77350500Y-89029269D01*
X77350500Y-88945394D01*
X77370185Y-88878355D01*
X77422989Y-88832600D01*
X77442396Y-88825622D01*
X77465311Y-88819482D01*
X77475832Y-88817149D01*
X77513047Y-88810588D01*
X77513052Y-88810584D01*
X77518101Y-88808747D01*
X77534826Y-88801819D01*
X77539683Y-88799554D01*
X77539686Y-88799554D01*
X77570627Y-88777887D01*
X77579746Y-88772079D01*
X77612457Y-88753194D01*
X77612459Y-88753192D01*
X77636738Y-88724256D01*
X77644038Y-88716288D01*
X77816292Y-88544034D01*
X77824245Y-88536746D01*
X77853196Y-88512455D01*
X77872084Y-88479739D01*
X77877889Y-88470625D01*
X77899556Y-88439684D01*
X77899556Y-88439681D01*
X77901821Y-88434824D01*
X77908749Y-88418099D01*
X77910586Y-88413050D01*
X77910590Y-88413045D01*
X77917151Y-88375830D01*
X77919481Y-88365319D01*
X77929266Y-88328807D01*
X77925974Y-88291177D01*
X77925502Y-88280369D01*
X77925502Y-87736187D01*
X77945187Y-87669148D01*
X77961817Y-87648510D01*
X78466291Y-87144035D01*
X78474243Y-87136748D01*
X78503194Y-87112457D01*
X78522082Y-87079741D01*
X78527887Y-87070627D01*
X78549554Y-87039686D01*
X78549554Y-87039683D01*
X78551819Y-87034826D01*
X78558747Y-87018101D01*
X78560584Y-87013052D01*
X78560588Y-87013047D01*
X78567149Y-86975832D01*
X78569479Y-86965321D01*
X78579264Y-86928809D01*
X78575971Y-86891182D01*
X78575500Y-86880374D01*
X78575500Y-86777059D01*
X78595185Y-86710020D01*
X78628377Y-86675484D01*
X78630398Y-86674067D01*
X78630404Y-86674065D01*
X78714065Y-86590404D01*
X78764068Y-86483173D01*
X78770500Y-86434316D01*
X78770500Y-86085684D01*
X78764068Y-86036827D01*
X78714065Y-85929596D01*
X78630404Y-85845935D01*
X78622733Y-85838264D01*
X78625561Y-85835435D01*
X78594843Y-85797023D01*
X78587635Y-85727526D01*
X78619143Y-85665165D01*
X78622903Y-85661906D01*
X78622733Y-85661736D01*
X78630405Y-85654064D01*
X78714065Y-85570404D01*
X78764068Y-85463173D01*
X78770500Y-85414316D01*
X78770500Y-85065684D01*
X78764068Y-85016827D01*
X78714065Y-84909596D01*
X78630404Y-84825935D01*
X78523173Y-84775932D01*
X78523171Y-84775931D01*
X78523172Y-84775931D01*
X78474317Y-84769500D01*
X78474316Y-84769500D01*
X78025684Y-84769500D01*
X78025683Y-84769500D01*
X77976828Y-84775931D01*
X77869597Y-84825934D01*
X77817349Y-84878182D01*
X77756025Y-84911666D01*
X77729668Y-84914500D01*
X77520332Y-84914500D01*
X77453293Y-84894815D01*
X77432651Y-84878182D01*
X77420079Y-84865610D01*
X77380404Y-84825935D01*
X77273173Y-84775932D01*
X77273171Y-84775931D01*
X77273172Y-84775931D01*
X77224317Y-84769500D01*
X77224316Y-84769500D01*
X76775684Y-84769500D01*
X76775683Y-84769500D01*
X76726827Y-84775931D01*
X76726826Y-84775931D01*
X76675553Y-84799841D01*
X76606476Y-84810333D01*
X76542692Y-84781813D01*
X76535468Y-84775140D01*
X76344045Y-84583717D01*
X76336735Y-84575740D01*
X76312457Y-84546806D01*
X76312456Y-84546805D01*
X76279735Y-84527913D01*
X76270617Y-84522103D01*
X76239685Y-84500445D01*
X76234862Y-84498196D01*
X76218056Y-84491234D01*
X76213043Y-84489410D01*
X76175853Y-84482851D01*
X76165299Y-84480511D01*
X76128810Y-84470734D01*
X76118347Y-84469819D01*
X76053280Y-84444364D01*
X76026057Y-84415181D01*
X76019553Y-84405447D01*
X75953230Y-84361131D01*
X75953229Y-84361130D01*
X75894752Y-84349499D01*
X75894748Y-84349499D01*
X75810191Y-84349499D01*
X75743152Y-84329814D01*
X75697397Y-84277010D01*
X75687453Y-84207852D01*
X75716478Y-84144296D01*
X75722495Y-84137832D01*
X75816309Y-84044018D01*
X75824251Y-84036741D01*
X75853196Y-84012455D01*
X75872084Y-83979738D01*
X75877883Y-83970635D01*
X75899556Y-83939684D01*
X75899556Y-83939681D01*
X75901821Y-83934824D01*
X75908749Y-83918099D01*
X75910589Y-83913046D01*
X75910590Y-83913045D01*
X75913184Y-83898330D01*
X75944207Y-83835729D01*
X76004153Y-83799836D01*
X76073987Y-83802050D01*
X76108929Y-83820087D01*
X76187118Y-83877793D01*
X76229845Y-83892744D01*
X76315299Y-83922646D01*
X76345730Y-83925500D01*
X76345734Y-83925500D01*
X76954270Y-83925500D01*
X76984699Y-83922646D01*
X76984701Y-83922646D01*
X77054182Y-83898333D01*
X77112882Y-83877793D01*
X77222150Y-83797150D01*
X77302793Y-83687882D01*
X77335108Y-83595531D01*
X77347646Y-83559701D01*
X77347646Y-83559699D01*
X77350500Y-83529269D01*
X77350500Y-82470730D01*
X77347646Y-82440300D01*
X77347646Y-82440298D01*
X77302793Y-82312119D01*
X77302790Y-82312113D01*
X77249730Y-82240219D01*
X77225759Y-82174590D01*
X77225500Y-82166586D01*
X77225500Y-82129500D01*
X77245185Y-82062461D01*
X77297989Y-82016706D01*
X77349500Y-82005500D01*
X84299814Y-82005500D01*
X84299826Y-82005500D01*
X84320117Y-82004496D01*
X84344486Y-82002078D01*
X84397630Y-81986152D01*
X84419705Y-81979537D01*
X84419707Y-81979536D01*
X84419711Y-81979535D01*
X84481574Y-81947060D01*
X84528967Y-81912780D01*
X85230143Y-81234222D01*
X85246186Y-81216797D01*
X85264269Y-81194729D01*
X85302492Y-81122379D01*
X85322177Y-81055340D01*
X85330502Y-80997442D01*
X85330502Y-79250004D01*
X96294732Y-79250004D01*
X96313777Y-79504154D01*
X96339145Y-79615300D01*
X96370492Y-79752637D01*
X96463607Y-79989888D01*
X96591041Y-80210612D01*
X96749950Y-80409877D01*
X96936783Y-80583232D01*
X97147366Y-80726805D01*
X97147371Y-80726807D01*
X97147372Y-80726808D01*
X97147373Y-80726809D01*
X97269328Y-80785538D01*
X97376992Y-80837387D01*
X97376993Y-80837387D01*
X97376996Y-80837389D01*
X97620542Y-80912513D01*
X97872565Y-80950500D01*
X98127435Y-80950500D01*
X98379458Y-80912513D01*
X98623004Y-80837389D01*
X98852634Y-80726805D01*
X99063217Y-80583232D01*
X99250050Y-80409877D01*
X99408959Y-80210612D01*
X99536393Y-79989888D01*
X99629508Y-79752637D01*
X99686222Y-79504157D01*
X99696398Y-79368365D01*
X99705268Y-79250004D01*
X99705268Y-79249995D01*
X99686222Y-78995845D01*
X99665706Y-78905960D01*
X99629508Y-78747363D01*
X99536393Y-78510112D01*
X99408959Y-78289388D01*
X99250050Y-78090123D01*
X99063217Y-77916768D01*
X98852634Y-77773195D01*
X98852630Y-77773193D01*
X98852627Y-77773191D01*
X98852626Y-77773190D01*
X98623006Y-77662612D01*
X98623008Y-77662612D01*
X98379466Y-77587489D01*
X98379462Y-77587488D01*
X98379458Y-77587487D01*
X98258231Y-77569214D01*
X98127440Y-77549500D01*
X98127435Y-77549500D01*
X97872565Y-77549500D01*
X97872559Y-77549500D01*
X97715609Y-77573157D01*
X97620542Y-77587487D01*
X97620539Y-77587488D01*
X97620533Y-77587489D01*
X97376992Y-77662612D01*
X97147373Y-77773190D01*
X97147372Y-77773191D01*
X96936782Y-77916768D01*
X96749952Y-78090121D01*
X96749950Y-78090123D01*
X96591041Y-78289388D01*
X96463608Y-78510109D01*
X96370492Y-78747362D01*
X96370490Y-78747369D01*
X96313777Y-78995845D01*
X96294732Y-79249995D01*
X96294732Y-79250004D01*
X85330502Y-79250004D01*
X85330502Y-75101362D01*
X85329324Y-75079393D01*
X85326490Y-75053035D01*
X85302531Y-74976518D01*
X85269046Y-74915195D01*
X85233993Y-74868371D01*
X84912587Y-74546965D01*
X84556636Y-74191013D01*
X84556635Y-74191012D01*
X84540285Y-74176325D01*
X84540271Y-74176313D01*
X84519622Y-74159672D01*
X84448577Y-74122509D01*
X84381545Y-74102826D01*
X84380896Y-74102732D01*
X84323640Y-74094500D01*
X84323636Y-74094500D01*
X81261484Y-74094500D01*
X81194445Y-74074815D01*
X81173803Y-74058181D01*
X80616821Y-73501199D01*
X80583336Y-73439876D01*
X80580502Y-73413518D01*
X80580502Y-72074992D01*
X80580502Y-72074988D01*
X80580469Y-72071321D01*
X80580390Y-72066894D01*
X80569907Y-72005664D01*
X80547842Y-71939370D01*
X80538458Y-71916046D01*
X80493983Y-71859691D01*
X80481799Y-71844252D01*
X80427399Y-71800416D01*
X80427398Y-71800415D01*
X80392783Y-71779878D01*
X80380817Y-71772778D01*
X80368607Y-71764514D01*
X80306231Y-71716651D01*
X80283345Y-71693765D01*
X80239905Y-71637152D01*
X80223724Y-71609126D01*
X80196414Y-71543194D01*
X80188037Y-71511928D01*
X80185011Y-71488942D01*
X80178723Y-71441178D01*
X80178723Y-71408818D01*
X80188036Y-71338067D01*
X80196414Y-71306803D01*
X80207702Y-71279552D01*
X80223723Y-71240872D01*
X80239901Y-71212850D01*
X80283350Y-71156226D01*
X80306227Y-71133349D01*
X80363810Y-71089164D01*
X80381317Y-71077932D01*
X80384567Y-71076211D01*
X80384572Y-71076210D01*
X80437087Y-71043111D01*
X80489891Y-70997356D01*
X80507845Y-70979765D01*
X80552492Y-70899948D01*
X80572177Y-70832909D01*
X80580502Y-70775011D01*
X80580502Y-70700016D01*
X80600187Y-70632977D01*
X80652991Y-70587222D01*
X80680306Y-70578399D01*
X80728231Y-70568867D01*
X80794552Y-70524552D01*
X80838867Y-70458231D01*
X80838867Y-70458229D01*
X80838868Y-70458229D01*
X80847663Y-70414010D01*
X80850499Y-70399752D01*
X82649500Y-70399752D01*
X82661131Y-70458229D01*
X82661132Y-70458230D01*
X82705447Y-70524552D01*
X82771769Y-70568867D01*
X82771770Y-70568868D01*
X82830247Y-70580499D01*
X82830250Y-70580500D01*
X82830252Y-70580500D01*
X83469750Y-70580500D01*
X83469751Y-70580499D01*
X83528231Y-70568867D01*
X83528235Y-70568864D01*
X83539511Y-70564194D01*
X83540422Y-70566394D01*
X83591125Y-70550520D01*
X83593334Y-70550500D01*
X83963814Y-70550500D01*
X84030853Y-70570185D01*
X84051494Y-70586818D01*
X84364621Y-70899946D01*
X84660957Y-71196282D01*
X84668264Y-71204256D01*
X84692543Y-71233190D01*
X84692545Y-71233191D01*
X84692547Y-71233194D01*
X84692549Y-71233195D01*
X84692550Y-71233196D01*
X84725255Y-71252078D01*
X84734378Y-71257890D01*
X84765315Y-71279552D01*
X84765318Y-71279554D01*
X84765321Y-71279554D01*
X84770178Y-71281820D01*
X84786935Y-71288760D01*
X84791954Y-71290586D01*
X84791957Y-71290588D01*
X84829143Y-71297144D01*
X84839706Y-71299486D01*
X84852986Y-71303044D01*
X84876195Y-71309263D01*
X84913813Y-71305971D01*
X84924620Y-71305500D01*
X84995502Y-71305500D01*
X85062541Y-71325185D01*
X85108296Y-71377989D01*
X85119502Y-71429500D01*
X85119502Y-71449866D01*
X85124398Y-71494459D01*
X85124399Y-71494464D01*
X85131880Y-71528115D01*
X85136078Y-71546998D01*
X85138863Y-71558064D01*
X85182604Y-71638382D01*
X85182605Y-71638383D01*
X85228845Y-71690777D01*
X85246590Y-71708561D01*
X85246592Y-71708562D01*
X85246593Y-71708563D01*
X85326813Y-71752482D01*
X85326815Y-71752482D01*
X85326816Y-71752483D01*
X85349923Y-71759040D01*
X85394028Y-71771556D01*
X85451997Y-71779354D01*
X87861935Y-71757445D01*
X88029587Y-71755921D01*
X88036043Y-71755607D01*
X88045741Y-71755137D01*
X88065179Y-71753425D01*
X88105956Y-71742137D01*
X88136938Y-71733562D01*
X88136939Y-71733561D01*
X88136944Y-71733560D01*
X88199790Y-71703030D01*
X88248229Y-71670245D01*
X88447647Y-71488957D01*
X88466313Y-71469611D01*
X88487217Y-71444897D01*
X88506643Y-71408812D01*
X88527488Y-71370092D01*
X88527489Y-71370087D01*
X88527492Y-71370083D01*
X88547177Y-71303044D01*
X88555502Y-71245146D01*
X88555502Y-69686481D01*
X88575187Y-69619442D01*
X88591821Y-69598800D01*
X88648802Y-69541819D01*
X88710125Y-69508334D01*
X88736483Y-69505500D01*
X92298641Y-69505500D01*
X92301182Y-69505363D01*
X92320609Y-69504322D01*
X92320616Y-69504321D01*
X92320620Y-69504321D01*
X92346967Y-69501488D01*
X92423484Y-69477529D01*
X92484807Y-69444044D01*
X92531631Y-69408991D01*
X92958993Y-68981629D01*
X92973695Y-68965262D01*
X92990329Y-68944620D01*
X93027492Y-68873575D01*
X93047177Y-68806536D01*
X93055502Y-68748638D01*
X93055502Y-56351362D01*
X93054324Y-56329393D01*
X93051490Y-56303035D01*
X93027531Y-56226518D01*
X92994046Y-56165195D01*
X92994041Y-56165188D01*
X92959003Y-56118384D01*
X92959000Y-56118381D01*
X92958993Y-56118371D01*
X92958985Y-56118363D01*
X92281636Y-55441013D01*
X92281635Y-55441012D01*
X92265285Y-55426325D01*
X92265271Y-55426313D01*
X92244622Y-55409672D01*
X92173577Y-55372509D01*
X92106545Y-55352826D01*
X92105896Y-55352732D01*
X92048640Y-55344500D01*
X92048636Y-55344500D01*
X87989769Y-55344500D01*
X87922730Y-55324815D01*
X87900614Y-55306683D01*
X87365347Y-54752958D01*
X87332906Y-54691076D01*
X87330502Y-54666775D01*
X87330502Y-50686482D01*
X87350187Y-50619443D01*
X87366821Y-50598801D01*
X87733989Y-50231633D01*
X87734006Y-50231615D01*
X87748695Y-50215262D01*
X87765329Y-50194620D01*
X87802492Y-50123575D01*
X87822177Y-50056536D01*
X87830502Y-49998638D01*
X87830502Y-48351362D01*
X87829324Y-48329393D01*
X87826490Y-48303035D01*
X87802531Y-48226518D01*
X87769046Y-48165195D01*
X87769041Y-48165188D01*
X87734003Y-48118384D01*
X87734000Y-48118381D01*
X87733993Y-48118371D01*
X87486819Y-47871197D01*
X87453334Y-47809874D01*
X87450500Y-47783516D01*
X87450500Y-42959953D01*
X87470185Y-42892914D01*
X87490159Y-42869054D01*
X87500050Y-42859877D01*
X87658959Y-42660612D01*
X87786393Y-42439888D01*
X87879508Y-42202637D01*
X87936222Y-41954157D01*
X87955268Y-41700000D01*
X87936222Y-41445843D01*
X87879508Y-41197363D01*
X87786393Y-40960112D01*
X87658959Y-40739388D01*
X87500050Y-40540123D01*
X87313217Y-40366768D01*
X87102634Y-40223195D01*
X87102630Y-40223193D01*
X87102627Y-40223191D01*
X87102626Y-40223190D01*
X86873006Y-40112612D01*
X86873008Y-40112612D01*
X86629466Y-40037489D01*
X86629462Y-40037488D01*
X86629458Y-40037487D01*
X86508231Y-40019214D01*
X86377440Y-39999500D01*
X86377435Y-39999500D01*
X86122565Y-39999500D01*
X86122559Y-39999500D01*
X85965609Y-40023157D01*
X85870542Y-40037487D01*
X85870539Y-40037488D01*
X85870533Y-40037489D01*
X85626992Y-40112612D01*
X85397373Y-40223190D01*
X85397372Y-40223191D01*
X85186782Y-40366768D01*
X84999952Y-40540121D01*
X84999950Y-40540123D01*
X84841041Y-40739388D01*
X84713608Y-40960109D01*
X84620492Y-41197362D01*
X84620490Y-41197369D01*
X84563777Y-41445845D01*
X84544732Y-41699995D01*
X84544732Y-41700004D01*
X84563777Y-41954154D01*
X84563778Y-41954157D01*
X84620492Y-42202637D01*
X84713607Y-42439888D01*
X84841041Y-42660612D01*
X84931232Y-42773708D01*
X84999947Y-42859874D01*
X85009841Y-42869054D01*
X85045596Y-42929082D01*
X85049500Y-42959953D01*
X85049500Y-47783519D01*
X85029815Y-47850558D01*
X85013181Y-47871200D01*
X84766016Y-48118365D01*
X84766014Y-48118366D01*
X84751327Y-48134716D01*
X84751315Y-48134730D01*
X84734674Y-48155379D01*
X84697511Y-48226424D01*
X84677828Y-48293456D01*
X84677827Y-48293464D01*
X84669503Y-48351361D01*
X84669502Y-48351365D01*
X84669502Y-49998638D01*
X84670680Y-50020618D01*
X84673513Y-50046965D01*
X84673514Y-50046967D01*
X84697472Y-50123478D01*
X84697473Y-50123483D01*
X84711874Y-50149855D01*
X84730958Y-50184805D01*
X84730960Y-50184808D01*
X84730962Y-50184811D01*
X84766000Y-50231615D01*
X84766004Y-50231619D01*
X84766011Y-50231629D01*
X84766015Y-50231633D01*
X84766018Y-50231636D01*
X85133183Y-50598801D01*
X85166668Y-50660124D01*
X85169502Y-50686482D01*
X85169502Y-61503745D01*
X85170026Y-61518427D01*
X85171289Y-61536072D01*
X85177818Y-61561642D01*
X85189343Y-61606784D01*
X85218372Y-61670336D01*
X85242652Y-61708109D01*
X85250003Y-61719545D01*
X85250005Y-61719548D01*
X85832605Y-62391779D01*
X85832616Y-62391791D01*
X85832627Y-62391803D01*
X85853354Y-62412527D01*
X85853361Y-62412534D01*
X85853371Y-62412543D01*
X85880018Y-62435629D01*
X85880019Y-62435630D01*
X85880022Y-62435632D01*
X85880026Y-62435634D01*
X85956686Y-62477490D01*
X86023717Y-62497173D01*
X86023719Y-62497173D01*
X86023725Y-62497175D01*
X86081623Y-62505500D01*
X87963520Y-62505500D01*
X88030559Y-62525185D01*
X88051201Y-62541819D01*
X88358183Y-62848801D01*
X88391668Y-62910124D01*
X88394502Y-62936482D01*
X88394502Y-67163517D01*
X88374817Y-67230556D01*
X88358183Y-67251198D01*
X88241016Y-67368365D01*
X88241014Y-67368366D01*
X88226327Y-67384716D01*
X88226315Y-67384730D01*
X88209674Y-67405379D01*
X88172511Y-67476424D01*
X88152828Y-67543456D01*
X88144502Y-67601365D01*
X88144502Y-67913518D01*
X88124817Y-67980557D01*
X88108183Y-68001199D01*
X88051201Y-68058181D01*
X87989878Y-68091666D01*
X87963520Y-68094500D01*
X86901363Y-68094500D01*
X86879383Y-68095678D01*
X86853036Y-68098511D01*
X86853034Y-68098512D01*
X86776523Y-68122470D01*
X86776518Y-68122471D01*
X86715190Y-68155960D01*
X86668386Y-68190998D01*
X86668372Y-68191010D01*
X86520617Y-68338764D01*
X86459293Y-68372248D01*
X86389602Y-68367263D01*
X86339224Y-68332285D01*
X86298347Y-68285111D01*
X86298341Y-68285104D01*
X86280759Y-68267160D01*
X86280758Y-68267159D01*
X86280756Y-68267157D01*
X86280754Y-68267156D01*
X86280752Y-68267154D01*
X86200942Y-68222511D01*
X86200937Y-68222509D01*
X86133905Y-68202826D01*
X86133901Y-68202825D01*
X86133900Y-68202825D01*
X86076002Y-68194500D01*
X85424002Y-68194500D01*
X85423994Y-68194500D01*
X85380315Y-68199197D01*
X85328827Y-68210397D01*
X85318629Y-68212890D01*
X85318626Y-68212891D01*
X85237918Y-68255899D01*
X85237915Y-68255901D01*
X85185106Y-68301660D01*
X85167162Y-68319242D01*
X85167156Y-68319249D01*
X85150878Y-68348352D01*
X85138189Y-68371035D01*
X85088285Y-68419933D01*
X85029971Y-68434500D01*
X84909630Y-68434500D01*
X84898821Y-68434028D01*
X84861194Y-68430735D01*
X84861193Y-68430735D01*
X84824705Y-68440512D01*
X84814150Y-68442852D01*
X84776962Y-68449410D01*
X84771963Y-68451229D01*
X84755119Y-68458206D01*
X84750315Y-68460446D01*
X84719383Y-68482105D01*
X84710266Y-68487914D01*
X84677550Y-68506804D01*
X84677542Y-68506810D01*
X84653264Y-68535743D01*
X84645958Y-68543716D01*
X83976495Y-69213181D01*
X83915172Y-69246666D01*
X83888814Y-69249500D01*
X83771807Y-69249500D01*
X83704768Y-69229815D01*
X83659013Y-69177011D01*
X83649069Y-69107853D01*
X83650190Y-69101306D01*
X83650499Y-69099752D01*
X83650500Y-69099748D01*
X83650500Y-68750252D01*
X83650500Y-68750249D01*
X83650499Y-68750247D01*
X83638868Y-68691770D01*
X83638867Y-68691769D01*
X83594552Y-68625447D01*
X83528230Y-68581132D01*
X83528229Y-68581131D01*
X83469752Y-68569500D01*
X83469748Y-68569500D01*
X82830252Y-68569500D01*
X82830247Y-68569500D01*
X82771770Y-68581131D01*
X82771769Y-68581132D01*
X82705447Y-68625447D01*
X82661132Y-68691769D01*
X82661131Y-68691770D01*
X82649500Y-68750247D01*
X82649500Y-69099752D01*
X82661131Y-69158229D01*
X82676420Y-69181110D01*
X82697297Y-69247787D01*
X82678812Y-69315167D01*
X82676420Y-69318890D01*
X82661132Y-69341770D01*
X82661131Y-69341770D01*
X82649500Y-69400247D01*
X82649500Y-69749752D01*
X82661131Y-69808229D01*
X82676420Y-69831110D01*
X82697297Y-69897787D01*
X82678812Y-69965167D01*
X82676420Y-69968890D01*
X82661132Y-69991770D01*
X82661131Y-69991770D01*
X82649500Y-70050247D01*
X82649500Y-70399752D01*
X80850499Y-70399752D01*
X80850500Y-70399748D01*
X80850500Y-70050252D01*
X80850500Y-70050249D01*
X80850499Y-70050247D01*
X80838868Y-69991770D01*
X80838867Y-69991768D01*
X80823581Y-69968892D01*
X80802702Y-69902215D01*
X80821186Y-69834835D01*
X80823581Y-69831108D01*
X80838867Y-69808231D01*
X80838868Y-69808229D01*
X80850499Y-69749752D01*
X80850500Y-69749750D01*
X80850500Y-69400249D01*
X80850499Y-69400247D01*
X80838868Y-69341770D01*
X80838867Y-69341768D01*
X80823581Y-69318892D01*
X80802702Y-69252215D01*
X80821186Y-69184835D01*
X80823581Y-69181108D01*
X80838867Y-69158231D01*
X80838868Y-69158229D01*
X80850499Y-69099752D01*
X80850500Y-69099750D01*
X80850500Y-68750249D01*
X80850499Y-68750247D01*
X80838868Y-68691770D01*
X80838867Y-68691768D01*
X80823581Y-68668892D01*
X80802702Y-68602215D01*
X80821186Y-68534835D01*
X80823581Y-68531108D01*
X80838867Y-68508231D01*
X80838868Y-68508229D01*
X80850499Y-68449752D01*
X80850500Y-68449750D01*
X80850500Y-68100249D01*
X80850499Y-68100247D01*
X80838868Y-68041770D01*
X80838867Y-68041769D01*
X80794552Y-67975447D01*
X80728230Y-67931132D01*
X80680310Y-67921600D01*
X80618399Y-67889215D01*
X80583825Y-67828499D01*
X80580502Y-67799983D01*
X80580502Y-67689639D01*
X80580468Y-67685911D01*
X80580390Y-67681541D01*
X80580390Y-67681534D01*
X80569903Y-67620291D01*
X80569902Y-67620289D01*
X80569901Y-67620280D01*
X80547830Y-67553988D01*
X80538446Y-67530671D01*
X80481784Y-67458882D01*
X80481782Y-67458880D01*
X80481781Y-67458879D01*
X80460873Y-67442032D01*
X80459530Y-67440099D01*
X80438489Y-67423953D01*
X80436211Y-67422163D01*
X80432695Y-67419330D01*
X80432694Y-67419330D01*
X80427613Y-67415236D01*
X80427457Y-67415110D01*
X80427454Y-67415108D01*
X80426955Y-67414706D01*
X80426907Y-67414666D01*
X80424070Y-67412378D01*
X80424027Y-67412346D01*
X80402557Y-67395047D01*
X80393108Y-67389132D01*
X80331234Y-67341653D01*
X80308347Y-67318765D01*
X80264908Y-67262155D01*
X80248722Y-67234121D01*
X80221415Y-67168196D01*
X80213037Y-67136928D01*
X80208044Y-67099000D01*
X80203723Y-67066178D01*
X80203723Y-67033818D01*
X80213036Y-66963067D01*
X80221414Y-66931803D01*
X80229238Y-66912913D01*
X80248723Y-66865872D01*
X80264901Y-66837850D01*
X80308350Y-66781226D01*
X80331228Y-66758348D01*
X80422263Y-66688497D01*
X80422262Y-66688496D01*
X80422754Y-66688119D01*
X80432129Y-66681589D01*
X80437087Y-66678466D01*
X80447850Y-66669139D01*
X80453561Y-66664481D01*
X80454687Y-66663616D01*
X80457443Y-66660827D01*
X80489891Y-66632711D01*
X80507845Y-66615120D01*
X80552492Y-66535303D01*
X80572177Y-66468264D01*
X80580502Y-66410366D01*
X80580502Y-65851362D01*
X80579324Y-65829393D01*
X80576490Y-65803035D01*
X80552531Y-65726518D01*
X80519046Y-65665195D01*
X80519041Y-65665188D01*
X80484003Y-65618384D01*
X80484000Y-65618381D01*
X80483993Y-65618371D01*
X80483985Y-65618363D01*
X79806636Y-64941013D01*
X79806635Y-64941012D01*
X79790285Y-64926325D01*
X79790271Y-64926313D01*
X79769622Y-64909672D01*
X79698577Y-64872509D01*
X79631545Y-64852826D01*
X79630896Y-64852732D01*
X79573640Y-64844500D01*
X79573636Y-64844500D01*
X77011484Y-64844500D01*
X76944445Y-64824815D01*
X76923803Y-64808181D01*
X76366821Y-64251199D01*
X76333336Y-64189876D01*
X76330502Y-64163518D01*
X76330502Y-54358078D01*
X76328119Y-54326874D01*
X76322401Y-54289654D01*
X76322399Y-54289647D01*
X76289995Y-54206456D01*
X76289993Y-54206453D01*
X76289992Y-54206450D01*
X76276013Y-54185592D01*
X76276009Y-54185586D01*
X76251090Y-54148407D01*
X76231516Y-54126678D01*
X76211948Y-54104955D01*
X76211941Y-54104948D01*
X75625119Y-53615929D01*
X75586220Y-53557890D01*
X75580502Y-53520670D01*
X75580502Y-50686482D01*
X75600187Y-50619443D01*
X75616821Y-50598801D01*
X75983989Y-50231633D01*
X75984006Y-50231615D01*
X75998695Y-50215262D01*
X76015329Y-50194620D01*
X76052492Y-50123575D01*
X76072177Y-50056536D01*
X76080502Y-49998638D01*
X76080502Y-48351362D01*
X76079324Y-48329393D01*
X76076490Y-48303035D01*
X76052531Y-48226518D01*
X76019046Y-48165195D01*
X76019041Y-48165188D01*
X75984003Y-48118384D01*
X75984000Y-48118381D01*
X75983993Y-48118371D01*
X75736819Y-47871197D01*
X75703334Y-47809874D01*
X75700500Y-47783516D01*
X75700500Y-42959953D01*
X75720185Y-42892914D01*
X75740159Y-42869054D01*
X75750050Y-42859877D01*
X75908959Y-42660612D01*
X76036393Y-42439888D01*
X76129508Y-42202637D01*
X76186222Y-41954157D01*
X76205268Y-41700000D01*
X76186222Y-41445843D01*
X76129508Y-41197363D01*
X76036393Y-40960112D01*
X75908959Y-40739388D01*
X75750050Y-40540123D01*
X75563217Y-40366768D01*
X75352634Y-40223195D01*
X75352630Y-40223193D01*
X75352627Y-40223191D01*
X75352626Y-40223190D01*
X75123006Y-40112612D01*
X75123008Y-40112612D01*
X74879466Y-40037489D01*
X74879462Y-40037488D01*
X74879458Y-40037487D01*
X74758231Y-40019214D01*
X74627440Y-39999500D01*
X74627435Y-39999500D01*
X74372565Y-39999500D01*
X74372559Y-39999500D01*
X74215609Y-40023157D01*
X74120542Y-40037487D01*
X74120539Y-40037488D01*
X74120533Y-40037489D01*
X73876992Y-40112612D01*
X73647373Y-40223190D01*
X73647372Y-40223191D01*
X73436782Y-40366768D01*
X73249952Y-40540121D01*
X73249950Y-40540123D01*
X73091041Y-40739388D01*
X72963608Y-40960109D01*
X72870492Y-41197362D01*
X72870490Y-41197369D01*
X72813777Y-41445845D01*
X72794732Y-41699995D01*
X72794732Y-41700004D01*
X72813777Y-41954154D01*
X72813778Y-41954157D01*
X72870492Y-42202637D01*
X72963607Y-42439888D01*
X73091041Y-42660612D01*
X73181232Y-42773708D01*
X73249947Y-42859874D01*
X73259841Y-42869054D01*
X73295596Y-42929082D01*
X73299500Y-42959953D01*
X73299500Y-47783519D01*
X73279815Y-47850558D01*
X73263181Y-47871200D01*
X73016016Y-48118365D01*
X73016014Y-48118366D01*
X73001327Y-48134716D01*
X73001315Y-48134730D01*
X72984674Y-48155379D01*
X72947511Y-48226424D01*
X72927828Y-48293456D01*
X72927827Y-48293464D01*
X72919503Y-48351361D01*
X72919502Y-48351365D01*
X72919502Y-49998638D01*
X72920680Y-50020618D01*
X72923513Y-50046965D01*
X72923514Y-50046967D01*
X72947472Y-50123478D01*
X72947473Y-50123483D01*
X72961874Y-50149855D01*
X72980958Y-50184805D01*
X72980960Y-50184808D01*
X72980962Y-50184811D01*
X73016000Y-50231615D01*
X73016004Y-50231619D01*
X73016011Y-50231629D01*
X73016015Y-50231633D01*
X73016018Y-50231636D01*
X73383183Y-50598801D01*
X73416668Y-50660124D01*
X73419502Y-50686482D01*
X73419502Y-53520670D01*
X73399817Y-53587709D01*
X73374885Y-53615929D01*
X72788073Y-54104938D01*
X72788052Y-54104957D01*
X72765615Y-54126756D01*
X72740679Y-54154981D01*
X72697511Y-54233142D01*
X72694883Y-54242096D01*
X72694881Y-54242101D01*
X72677829Y-54300173D01*
X72677827Y-54300180D01*
X72669502Y-54358081D01*
X72669502Y-64163518D01*
X72649817Y-64230557D01*
X72633183Y-64251199D01*
X72076201Y-64808181D01*
X72014878Y-64841666D01*
X71988520Y-64844500D01*
X69426363Y-64844500D01*
X69404383Y-64845678D01*
X69378036Y-64848511D01*
X69378034Y-64848512D01*
X69301523Y-64872470D01*
X69301518Y-64872471D01*
X69240190Y-64905960D01*
X69193386Y-64940998D01*
X69193365Y-64941016D01*
X68516015Y-65618365D01*
X68516014Y-65618366D01*
X68501327Y-65634716D01*
X68501315Y-65634730D01*
X68484674Y-65655379D01*
X68447511Y-65726424D01*
X68427828Y-65793456D01*
X68427827Y-65793464D01*
X68419503Y-65851361D01*
X68419502Y-65851365D01*
X68419502Y-66320008D01*
X68419535Y-66323704D01*
X68419613Y-66328101D01*
X68419615Y-66328117D01*
X68430096Y-66389331D01*
X68430099Y-66389343D01*
X68452161Y-66455628D01*
X68452168Y-66455645D01*
X68461542Y-66478946D01*
X68461543Y-66478948D01*
X68461544Y-66478949D01*
X68518201Y-66550742D01*
X68572604Y-66594583D01*
X68607222Y-66615123D01*
X68619183Y-66622220D01*
X68631390Y-66630482D01*
X68634295Y-66632711D01*
X68693764Y-66678343D01*
X68716653Y-66701232D01*
X68760093Y-66757843D01*
X68776279Y-66785878D01*
X68803585Y-66851802D01*
X68811963Y-66883068D01*
X68821277Y-66953813D01*
X68821277Y-66986185D01*
X68811963Y-67056930D01*
X68803585Y-67088196D01*
X68776279Y-67154119D01*
X68760093Y-67182154D01*
X68716651Y-67238768D01*
X68693762Y-67261657D01*
X68636210Y-67305818D01*
X68618745Y-67317030D01*
X68615419Y-67318790D01*
X68562918Y-67351886D01*
X68562914Y-67351888D01*
X68510107Y-67397647D01*
X68492162Y-67415229D01*
X68492156Y-67415236D01*
X68447513Y-67495046D01*
X68447511Y-67495051D01*
X68427828Y-67562083D01*
X68427827Y-67562088D01*
X68427827Y-67562089D01*
X68420031Y-67616314D01*
X68419502Y-67619990D01*
X68419502Y-67699982D01*
X68399817Y-67767021D01*
X68347013Y-67812776D01*
X68319694Y-67821599D01*
X68271770Y-67831132D01*
X68271769Y-67831132D01*
X68205447Y-67875447D01*
X68161132Y-67941769D01*
X68161131Y-67941770D01*
X68149500Y-68000247D01*
X68149500Y-68349752D01*
X68161131Y-68408229D01*
X68176420Y-68431110D01*
X68197297Y-68497787D01*
X68178812Y-68565167D01*
X68176420Y-68568890D01*
X68161132Y-68591770D01*
X68161131Y-68591770D01*
X68149500Y-68650247D01*
X68149500Y-68999752D01*
X68161131Y-69058229D01*
X68176420Y-69081110D01*
X68197297Y-69147787D01*
X68178812Y-69215167D01*
X68176420Y-69218890D01*
X68161132Y-69241770D01*
X68161131Y-69241770D01*
X68149500Y-69300247D01*
X68149500Y-69649752D01*
X68161131Y-69708229D01*
X68176420Y-69731110D01*
X68197297Y-69797787D01*
X68178812Y-69865167D01*
X68176420Y-69868890D01*
X68161132Y-69891770D01*
X68161131Y-69891770D01*
X68149500Y-69950247D01*
X68149500Y-70299752D01*
X68161131Y-70358229D01*
X68161132Y-70358230D01*
X68205447Y-70424552D01*
X68249762Y-70454162D01*
X68271769Y-70468867D01*
X68319693Y-70478399D01*
X68381604Y-70510784D01*
X68416178Y-70571500D01*
X68419502Y-70600017D01*
X68419502Y-70705365D01*
X68419535Y-70709060D01*
X68419613Y-70713460D01*
X68430094Y-70774673D01*
X68452155Y-70840970D01*
X68461535Y-70864291D01*
X68518190Y-70936089D01*
X68531719Y-70946992D01*
X68531736Y-70947016D01*
X68539214Y-70953041D01*
X68540544Y-70954956D01*
X68561385Y-70970948D01*
X68563691Y-70972761D01*
X68567508Y-70975836D01*
X68567527Y-70975851D01*
X68597387Y-70999916D01*
X68606877Y-71005855D01*
X68668761Y-71053340D01*
X68691650Y-71076228D01*
X68735094Y-71132844D01*
X68751277Y-71160874D01*
X68767533Y-71200118D01*
X68778586Y-71226802D01*
X68786963Y-71258068D01*
X68796277Y-71328813D01*
X68796277Y-71361185D01*
X68786963Y-71431930D01*
X68778585Y-71463196D01*
X68751279Y-71529119D01*
X68735093Y-71557154D01*
X68691651Y-71613768D01*
X68668763Y-71636657D01*
X68577259Y-71706871D01*
X68567891Y-71713396D01*
X68562930Y-71716522D01*
X68562907Y-71716539D01*
X68552144Y-71725866D01*
X68546433Y-71730525D01*
X68545330Y-71731371D01*
X68542572Y-71734160D01*
X68510109Y-71762289D01*
X68492162Y-71779874D01*
X68492156Y-71779881D01*
X68447513Y-71859691D01*
X68447511Y-71859696D01*
X68427828Y-71926728D01*
X68419502Y-71984635D01*
X68419502Y-74498638D01*
X68420680Y-74520618D01*
X68423513Y-74546965D01*
X68423514Y-74546967D01*
X68447472Y-74623478D01*
X68447473Y-74623483D01*
X68461874Y-74649855D01*
X68480958Y-74684805D01*
X68480960Y-74684808D01*
X68480962Y-74684811D01*
X68516000Y-74731615D01*
X68516004Y-74731619D01*
X68516011Y-74731629D01*
X68516018Y-74731636D01*
X69193367Y-75408986D01*
X69193368Y-75408987D01*
X69209718Y-75423674D01*
X69209732Y-75423686D01*
X69209740Y-75423693D01*
X69218138Y-75430460D01*
X69230381Y-75440327D01*
X69301426Y-75477490D01*
X69368458Y-75497173D01*
X69368460Y-75497173D01*
X69368466Y-75497175D01*
X69426364Y-75505500D01*
X77713520Y-75505500D01*
X77780559Y-75525185D01*
X77801201Y-75541819D01*
X78358183Y-76098801D01*
X78391668Y-76160124D01*
X78394502Y-76186482D01*
X78394502Y-78413518D01*
X78374817Y-78480557D01*
X78358183Y-78501199D01*
X78051201Y-78808181D01*
X77989878Y-78841666D01*
X77963520Y-78844500D01*
X74176363Y-78844500D01*
X74154383Y-78845678D01*
X74128036Y-78848511D01*
X74128034Y-78848512D01*
X74051523Y-78872470D01*
X74051518Y-78872471D01*
X73990190Y-78905960D01*
X73943386Y-78940998D01*
X73943365Y-78941016D01*
X73516015Y-79368365D01*
X73516014Y-79368366D01*
X73501327Y-79384716D01*
X73501315Y-79384730D01*
X73484674Y-79405379D01*
X73447511Y-79476424D01*
X73427828Y-79543456D01*
X73419502Y-79601365D01*
X73419502Y-81248638D01*
X73420680Y-81270618D01*
X73423513Y-81296965D01*
X73423514Y-81296967D01*
X73447472Y-81373478D01*
X73447473Y-81373483D01*
X73461874Y-81399855D01*
X73480958Y-81434805D01*
X73480960Y-81434808D01*
X73480962Y-81434811D01*
X73516000Y-81481615D01*
X73516004Y-81481619D01*
X73516011Y-81481629D01*
X73516018Y-81481636D01*
X73943367Y-81908986D01*
X73943368Y-81908987D01*
X73959718Y-81923674D01*
X73959732Y-81923686D01*
X73959740Y-81923693D01*
X73968138Y-81930460D01*
X73980381Y-81940327D01*
X74051426Y-81977490D01*
X74118458Y-81997173D01*
X74118460Y-81997173D01*
X74118466Y-81997175D01*
X74176364Y-82005500D01*
X74176368Y-82005500D01*
X75950500Y-82005500D01*
X76017539Y-82025185D01*
X76063294Y-82077989D01*
X76074500Y-82129500D01*
X76074500Y-82166586D01*
X76054815Y-82233625D01*
X76050270Y-82240219D01*
X75997209Y-82312113D01*
X75997206Y-82312119D01*
X75952353Y-82440298D01*
X75952353Y-82440300D01*
X75949500Y-82470730D01*
X75949500Y-82554605D01*
X75929815Y-82621644D01*
X75877011Y-82667399D01*
X75857592Y-82674380D01*
X75834706Y-82680512D01*
X75824150Y-82682852D01*
X75786962Y-82689410D01*
X75781963Y-82691229D01*
X75765119Y-82698206D01*
X75760315Y-82700446D01*
X75729383Y-82722105D01*
X75720266Y-82727914D01*
X75687550Y-82746804D01*
X75687546Y-82746807D01*
X75664405Y-82774385D01*
X75606232Y-82813086D01*
X75536372Y-82814193D01*
X75477002Y-82777354D01*
X75457035Y-82747082D01*
X75445388Y-82722105D01*
X75403224Y-82631684D01*
X75318316Y-82546776D01*
X75209487Y-82496028D01*
X75209485Y-82496027D01*
X75209486Y-82496027D01*
X75159902Y-82489500D01*
X74800105Y-82489500D01*
X74784386Y-82491569D01*
X74750513Y-82496028D01*
X74750511Y-82496029D01*
X74750509Y-82496029D01*
X74641683Y-82546776D01*
X74587681Y-82600779D01*
X74526358Y-82634264D01*
X74456666Y-82629280D01*
X74412319Y-82600779D01*
X74358316Y-82546776D01*
X74249487Y-82496028D01*
X74249485Y-82496027D01*
X74249486Y-82496027D01*
X74199902Y-82489500D01*
X73840105Y-82489500D01*
X73824386Y-82491569D01*
X73790513Y-82496028D01*
X73790511Y-82496029D01*
X73790509Y-82496029D01*
X73681683Y-82546776D01*
X73596776Y-82631683D01*
X73546027Y-82740514D01*
X73544507Y-82752064D01*
X73516240Y-82815960D01*
X73457916Y-82854431D01*
X73388051Y-82855262D01*
X73333887Y-82823559D01*
X73294046Y-82783718D01*
X73286736Y-82775741D01*
X73262458Y-82746807D01*
X73262457Y-82746806D01*
X73229736Y-82727914D01*
X73220618Y-82722104D01*
X73189686Y-82700446D01*
X73184863Y-82698197D01*
X73168057Y-82691235D01*
X73163044Y-82689411D01*
X73152963Y-82687633D01*
X73090362Y-82656604D01*
X73054473Y-82596656D01*
X73050500Y-82565518D01*
X73050500Y-82470730D01*
X73047646Y-82440300D01*
X73047646Y-82440298D01*
X73002793Y-82312119D01*
X73002792Y-82312117D01*
X72949729Y-82240219D01*
X72922150Y-82202850D01*
X72812882Y-82122207D01*
X72758544Y-82103193D01*
X72701768Y-82062471D01*
X72676022Y-81997518D01*
X72675500Y-81986152D01*
X72675500Y-81569624D01*
X72675972Y-81558815D01*
X72679264Y-81521191D01*
X72669478Y-81484673D01*
X72667150Y-81474171D01*
X72660588Y-81436953D01*
X72660585Y-81436947D01*
X72658760Y-81431931D01*
X72651820Y-81415174D01*
X72649554Y-81410317D01*
X72649554Y-81410314D01*
X72627892Y-81379377D01*
X72622080Y-81370254D01*
X72603196Y-81337546D01*
X72603191Y-81337540D01*
X72574255Y-81313260D01*
X72566280Y-81305952D01*
X72361821Y-81101493D01*
X72328336Y-81040170D01*
X72325502Y-81013812D01*
X72325502Y-80799500D01*
X72345187Y-80732461D01*
X72397991Y-80686706D01*
X72449502Y-80675500D01*
X72504272Y-80675500D01*
X72534701Y-80672646D01*
X72534703Y-80672646D01*
X72598792Y-80650219D01*
X72662884Y-80627793D01*
X72772152Y-80547150D01*
X72852795Y-80437882D01*
X72875221Y-80373790D01*
X72897648Y-80309701D01*
X72897648Y-80309699D01*
X72900502Y-80279269D01*
X72900502Y-79645730D01*
X72897648Y-79615300D01*
X72897648Y-79615298D01*
X72852795Y-79487119D01*
X72852794Y-79487117D01*
X72844903Y-79476425D01*
X72772152Y-79377850D01*
X72662884Y-79297207D01*
X72662882Y-79297206D01*
X72534702Y-79252353D01*
X72504272Y-79249500D01*
X72504268Y-79249500D01*
X71495736Y-79249500D01*
X71495732Y-79249500D01*
X71465302Y-79252353D01*
X71465300Y-79252353D01*
X71337121Y-79297206D01*
X71337119Y-79297207D01*
X71227852Y-79377850D01*
X71147209Y-79487117D01*
X71147208Y-79487119D01*
X71102355Y-79615298D01*
X71102355Y-79615300D01*
X71099502Y-79645730D01*
X71099502Y-80279269D01*
X71102355Y-80309699D01*
X71102355Y-80309701D01*
X71147208Y-80437880D01*
X71147209Y-80437882D01*
X71227852Y-80547150D01*
X71337120Y-80627793D01*
X71379847Y-80642744D01*
X71465301Y-80672646D01*
X71495732Y-80675500D01*
X71495736Y-80675500D01*
X71550502Y-80675500D01*
X71617541Y-80695185D01*
X71663296Y-80747989D01*
X71674502Y-80799500D01*
X71674502Y-81180372D01*
X71674030Y-81191181D01*
X71670737Y-81228808D01*
X71680514Y-81265298D01*
X71682854Y-81275852D01*
X71689413Y-81313042D01*
X71691237Y-81318055D01*
X71698199Y-81334861D01*
X71700448Y-81339684D01*
X71722106Y-81370616D01*
X71727916Y-81379734D01*
X71746808Y-81412455D01*
X71760996Y-81424360D01*
X71775745Y-81436736D01*
X71783720Y-81444044D01*
X71988181Y-81648505D01*
X72021666Y-81709828D01*
X72024500Y-81736186D01*
X72024500Y-81986152D01*
X72004815Y-82053191D01*
X71952011Y-82098946D01*
X71941456Y-82103193D01*
X71887117Y-82122207D01*
X71777850Y-82202850D01*
X71697207Y-82312117D01*
X71697206Y-82312119D01*
X71652353Y-82440298D01*
X71652353Y-82440300D01*
X71649500Y-82470730D01*
X71649500Y-82565519D01*
X71629815Y-82632558D01*
X71577011Y-82678313D01*
X71547036Y-82687634D01*
X71536968Y-82689410D01*
X71536957Y-82689412D01*
X71531963Y-82691229D01*
X71515119Y-82698206D01*
X71510315Y-82700446D01*
X71479383Y-82722105D01*
X71470266Y-82727914D01*
X71437550Y-82746804D01*
X71437542Y-82746810D01*
X71413264Y-82775743D01*
X71405958Y-82783716D01*
X71133717Y-83055957D01*
X71125744Y-83063264D01*
X71096807Y-83087545D01*
X71077916Y-83120264D01*
X71072107Y-83129381D01*
X71050448Y-83160313D01*
X71048208Y-83165117D01*
X71041231Y-83181961D01*
X71039412Y-83186960D01*
X71032854Y-83224148D01*
X71030514Y-83234703D01*
X71020737Y-83271191D01*
X71020737Y-83271192D01*
X71024030Y-83308817D01*
X71024502Y-83319626D01*
X71024502Y-83863811D01*
X71004817Y-83930850D01*
X70988183Y-83951492D01*
X70533715Y-84405959D01*
X70525742Y-84413266D01*
X70496805Y-84437547D01*
X70477914Y-84470266D01*
X70472105Y-84479383D01*
X70450446Y-84510315D01*
X70448206Y-84515119D01*
X70441229Y-84531963D01*
X70439410Y-84536962D01*
X70432852Y-84574150D01*
X70430512Y-84584705D01*
X70420735Y-84621193D01*
X70420735Y-84621194D01*
X70424028Y-84658819D01*
X70424500Y-84669628D01*
X70424500Y-84722940D01*
X70404815Y-84789979D01*
X70371629Y-84824511D01*
X70369597Y-84825933D01*
X70285935Y-84909595D01*
X70235931Y-85016828D01*
X70229500Y-85065683D01*
X70229500Y-85414316D01*
X70235931Y-85463171D01*
X70285935Y-85570404D01*
X70377267Y-85661736D01*
X70374443Y-85664559D01*
X70405183Y-85703042D01*
X70412352Y-85772542D01*
X70380808Y-85834886D01*
X70377101Y-85838098D01*
X70377267Y-85838264D01*
X70285935Y-85929595D01*
X70235931Y-86036828D01*
X70229500Y-86085683D01*
X70229500Y-86434316D01*
X70235931Y-86483171D01*
X70235932Y-86483173D01*
X70285935Y-86590404D01*
X70369596Y-86674065D01*
X70476827Y-86724068D01*
X70525683Y-86730500D01*
X70525684Y-86730500D01*
X70974317Y-86730500D01*
X70991270Y-86728268D01*
X71023173Y-86724068D01*
X71130404Y-86674065D01*
X71182651Y-86621818D01*
X71243975Y-86588334D01*
X71270332Y-86585500D01*
X71479668Y-86585500D01*
X71546707Y-86605185D01*
X71567349Y-86621818D01*
X71619597Y-86674066D01*
X71621623Y-86675484D01*
X71624041Y-86678509D01*
X71627267Y-86681735D01*
X71626907Y-86682094D01*
X71665248Y-86730061D01*
X71674500Y-86777059D01*
X71674500Y-86930370D01*
X71674028Y-86941179D01*
X71670735Y-86978806D01*
X71680512Y-87015296D01*
X71682852Y-87025850D01*
X71689411Y-87063040D01*
X71691235Y-87068053D01*
X71698197Y-87084859D01*
X71700446Y-87089682D01*
X71722104Y-87120614D01*
X71727914Y-87129732D01*
X71746806Y-87162453D01*
X71775743Y-87186734D01*
X71783718Y-87194042D01*
X71988156Y-87398480D01*
X72021641Y-87459803D01*
X72016657Y-87529495D01*
X71974785Y-87585428D01*
X71941431Y-87603202D01*
X71887117Y-87622207D01*
X71777850Y-87702850D01*
X71697207Y-87812117D01*
X71697206Y-87812119D01*
X71652353Y-87940298D01*
X71652353Y-87940300D01*
X71649500Y-87970730D01*
X71649500Y-89029269D01*
X71652353Y-89059699D01*
X71652353Y-89059701D01*
X71697206Y-89187880D01*
X71750270Y-89259779D01*
X71774241Y-89325408D01*
X71774500Y-89333413D01*
X71774500Y-89370500D01*
X71754815Y-89437539D01*
X71702011Y-89483294D01*
X71650500Y-89494500D01*
X64700178Y-89494500D01*
X64691850Y-89494912D01*
X64679889Y-89495503D01*
X64655520Y-89497921D01*
X64655515Y-89497922D01*
X64580301Y-89520462D01*
X64580297Y-89520463D01*
X64580295Y-89520464D01*
X64580293Y-89520464D01*
X64580290Y-89520466D01*
X64518431Y-89552938D01*
X64471042Y-89587215D01*
X64471034Y-89587222D01*
X63769867Y-90265770D01*
X63753835Y-90283182D01*
X63753809Y-90283212D01*
X63735737Y-90305266D01*
X63697512Y-90377618D01*
X63677828Y-90444653D01*
X63677827Y-90444658D01*
X63677827Y-90444659D01*
X63674238Y-90469624D01*
X63669502Y-90502560D01*
X63669502Y-96398638D01*
X42000500Y-96398638D01*
X42000500Y-92250004D01*
X49294732Y-92250004D01*
X49313777Y-92504154D01*
X49369366Y-92747707D01*
X49370492Y-92752637D01*
X49443092Y-92937618D01*
X49463608Y-92989890D01*
X49480670Y-93019443D01*
X49591041Y-93210612D01*
X49749950Y-93409877D01*
X49936783Y-93583232D01*
X50147366Y-93726805D01*
X50147371Y-93726807D01*
X50147372Y-93726808D01*
X50147373Y-93726809D01*
X50216709Y-93760199D01*
X50376992Y-93837387D01*
X50376993Y-93837387D01*
X50376996Y-93837389D01*
X50620542Y-93912513D01*
X50872565Y-93950500D01*
X51127435Y-93950500D01*
X51379458Y-93912513D01*
X51623004Y-93837389D01*
X51846479Y-93729769D01*
X51852626Y-93726809D01*
X51852626Y-93726808D01*
X51852634Y-93726805D01*
X52063217Y-93583232D01*
X52250050Y-93409877D01*
X52408959Y-93210612D01*
X52536393Y-92989888D01*
X52629508Y-92752637D01*
X52686222Y-92504157D01*
X52701660Y-92298146D01*
X52705268Y-92250004D01*
X52705268Y-92249995D01*
X52686222Y-91995845D01*
X52672380Y-91935201D01*
X52629508Y-91747363D01*
X52536393Y-91510112D01*
X52408959Y-91289388D01*
X52250050Y-91090123D01*
X52063217Y-90916768D01*
X51852634Y-90773195D01*
X51852630Y-90773193D01*
X51852627Y-90773191D01*
X51852626Y-90773190D01*
X51623006Y-90662612D01*
X51623008Y-90662612D01*
X51379466Y-90587489D01*
X51379462Y-90587488D01*
X51379458Y-90587487D01*
X51258231Y-90569214D01*
X51127440Y-90549500D01*
X51127435Y-90549500D01*
X50872565Y-90549500D01*
X50872559Y-90549500D01*
X50715609Y-90573157D01*
X50620542Y-90587487D01*
X50620539Y-90587488D01*
X50620533Y-90587489D01*
X50376992Y-90662612D01*
X50147373Y-90773190D01*
X50147372Y-90773191D01*
X49936782Y-90916768D01*
X49749952Y-91090121D01*
X49749950Y-91090123D01*
X49591041Y-91289388D01*
X49463608Y-91510109D01*
X49370492Y-91747362D01*
X49370490Y-91747369D01*
X49313777Y-91995845D01*
X49294732Y-92249995D01*
X49294732Y-92250004D01*
X42000500Y-92250004D01*
X42000500Y-78454269D01*
X71099502Y-78454269D01*
X71102355Y-78484699D01*
X71102355Y-78484701D01*
X71147208Y-78612880D01*
X71147209Y-78612882D01*
X71227852Y-78722150D01*
X71337120Y-78802793D01*
X71379847Y-78817744D01*
X71465301Y-78847646D01*
X71495732Y-78850500D01*
X71495736Y-78850500D01*
X72504272Y-78850500D01*
X72534701Y-78847646D01*
X72534703Y-78847646D01*
X72598792Y-78825219D01*
X72662884Y-78802793D01*
X72772152Y-78722150D01*
X72852795Y-78612882D01*
X72888757Y-78510109D01*
X72900141Y-78477577D01*
X72901550Y-78478070D01*
X72931005Y-78424241D01*
X72992358Y-78390811D01*
X73018609Y-78388000D01*
X73706231Y-78388000D01*
X73773270Y-78407685D01*
X73793907Y-78424314D01*
X73869251Y-78499658D01*
X73987582Y-78559951D01*
X73987583Y-78559951D01*
X73987585Y-78559952D01*
X73987584Y-78559952D01*
X74085751Y-78575500D01*
X74085756Y-78575500D01*
X74914253Y-78575500D01*
X75012419Y-78559952D01*
X75012420Y-78559951D01*
X75012422Y-78559951D01*
X75130753Y-78499658D01*
X75224660Y-78405751D01*
X75284953Y-78287420D01*
X75284953Y-78287418D01*
X75284954Y-78287417D01*
X75300502Y-78189251D01*
X75300502Y-77685748D01*
X75284954Y-77587582D01*
X75265550Y-77549500D01*
X75224660Y-77469249D01*
X75224656Y-77469245D01*
X75224655Y-77469243D01*
X75130758Y-77375346D01*
X75130755Y-77375344D01*
X75130753Y-77375342D01*
X75012422Y-77315049D01*
X75012421Y-77315048D01*
X75012418Y-77315047D01*
X75012419Y-77315047D01*
X74914253Y-77299500D01*
X74914248Y-77299500D01*
X74085756Y-77299500D01*
X74085751Y-77299500D01*
X73987584Y-77315047D01*
X73908694Y-77355244D01*
X73869251Y-77375342D01*
X73869250Y-77375343D01*
X73869249Y-77375343D01*
X73831581Y-77413012D01*
X73793910Y-77450682D01*
X73732590Y-77484166D01*
X73706231Y-77487000D01*
X72721626Y-77487000D01*
X72671869Y-77474659D01*
X72671654Y-77475276D01*
X72665073Y-77472973D01*
X72663681Y-77472628D01*
X72662886Y-77472208D01*
X72662884Y-77472207D01*
X72534701Y-77427354D01*
X72534700Y-77427353D01*
X72534698Y-77427353D01*
X72504272Y-77424500D01*
X72504268Y-77424500D01*
X71495736Y-77424500D01*
X71495732Y-77424500D01*
X71465302Y-77427353D01*
X71465300Y-77427353D01*
X71337121Y-77472206D01*
X71337119Y-77472207D01*
X71227852Y-77552850D01*
X71147209Y-77662117D01*
X71147208Y-77662119D01*
X71102355Y-77790298D01*
X71102355Y-77790300D01*
X71099502Y-77820730D01*
X71099502Y-78454269D01*
X42000500Y-78454269D01*
X42000500Y-68748638D01*
X55944502Y-68748638D01*
X55945680Y-68770618D01*
X55948513Y-68796965D01*
X55948514Y-68796967D01*
X55972472Y-68873478D01*
X55972473Y-68873483D01*
X55982206Y-68891307D01*
X56005958Y-68934805D01*
X56005960Y-68934808D01*
X56005962Y-68934811D01*
X56041000Y-68981615D01*
X56041004Y-68981619D01*
X56041011Y-68981629D01*
X56041015Y-68981633D01*
X56041018Y-68981636D01*
X56468367Y-69408986D01*
X56468368Y-69408987D01*
X56484718Y-69423674D01*
X56484732Y-69423686D01*
X56484740Y-69423693D01*
X56493138Y-69430460D01*
X56505381Y-69440327D01*
X56576426Y-69477490D01*
X56643458Y-69497173D01*
X56643460Y-69497173D01*
X56643466Y-69497175D01*
X56701364Y-69505500D01*
X60245502Y-69505500D01*
X60312541Y-69525185D01*
X60358296Y-69577989D01*
X60369502Y-69629500D01*
X60369502Y-70101007D01*
X60374199Y-70144686D01*
X60385399Y-70196174D01*
X60387892Y-70206372D01*
X60387893Y-70206375D01*
X60430901Y-70287083D01*
X60430903Y-70287086D01*
X60476662Y-70339895D01*
X60494244Y-70357839D01*
X60494248Y-70357843D01*
X60494249Y-70357844D01*
X60494251Y-70357845D01*
X60569170Y-70399752D01*
X60574065Y-70402490D01*
X60641104Y-70422175D01*
X60699002Y-70430500D01*
X60699006Y-70430500D01*
X61422337Y-70430500D01*
X61466816Y-70425629D01*
X61519221Y-70414011D01*
X61526366Y-70411584D01*
X61566237Y-70405000D01*
X61938308Y-70405000D01*
X61954491Y-70406060D01*
X61992071Y-70411008D01*
X62038113Y-70411865D01*
X62038113Y-70411864D01*
X62048596Y-70412060D01*
X62048595Y-70412062D01*
X62052385Y-70411843D01*
X62058366Y-70412051D01*
X62058368Y-70412050D01*
X62058369Y-70412051D01*
X62058780Y-70412047D01*
X62075963Y-70411907D01*
X62163973Y-70387038D01*
X62225296Y-70353554D01*
X62272123Y-70318500D01*
X62433998Y-70156624D01*
X62448699Y-70140257D01*
X62465329Y-70119620D01*
X62465332Y-70119613D01*
X62467200Y-70117296D01*
X62524590Y-70077445D01*
X62594415Y-70074947D01*
X62654506Y-70110596D01*
X62657468Y-70113893D01*
X62660417Y-70117296D01*
X62701657Y-70164889D01*
X62719248Y-70182843D01*
X62719249Y-70182844D01*
X62719251Y-70182845D01*
X62799061Y-70227488D01*
X62799065Y-70227490D01*
X62866104Y-70247175D01*
X62924002Y-70255500D01*
X62924006Y-70255500D01*
X63575993Y-70255500D01*
X63576002Y-70255500D01*
X63619686Y-70250803D01*
X63648877Y-70244452D01*
X63671176Y-70239602D01*
X63671192Y-70239598D01*
X63671197Y-70239597D01*
X63681375Y-70237110D01*
X63762087Y-70194100D01*
X63814891Y-70148345D01*
X63832845Y-70130754D01*
X63861814Y-70078964D01*
X63911719Y-70030067D01*
X63970033Y-70015500D01*
X64065374Y-70015500D01*
X64076182Y-70015971D01*
X64113809Y-70019264D01*
X64150321Y-70009479D01*
X64160832Y-70007149D01*
X64198047Y-70000588D01*
X64198052Y-70000584D01*
X64203101Y-69998747D01*
X64219826Y-69991819D01*
X64224683Y-69989554D01*
X64224686Y-69989554D01*
X64255627Y-69967887D01*
X64264746Y-69962079D01*
X64277417Y-69954764D01*
X64297457Y-69943194D01*
X64321740Y-69914253D01*
X64329038Y-69906289D01*
X65048509Y-69186819D01*
X65109832Y-69153334D01*
X65136190Y-69150500D01*
X65228193Y-69150500D01*
X65295232Y-69170185D01*
X65340987Y-69222989D01*
X65350931Y-69292147D01*
X65349810Y-69298694D01*
X65349500Y-69300252D01*
X65349500Y-69649752D01*
X65361131Y-69708229D01*
X65361132Y-69708230D01*
X65405447Y-69774552D01*
X65471769Y-69818867D01*
X65471770Y-69818868D01*
X65530247Y-69830499D01*
X65530250Y-69830500D01*
X65530252Y-69830500D01*
X66169750Y-69830500D01*
X66169751Y-69830499D01*
X66184568Y-69827552D01*
X66228229Y-69818868D01*
X66228229Y-69818867D01*
X66228231Y-69818867D01*
X66294552Y-69774552D01*
X66338867Y-69708231D01*
X66338867Y-69708229D01*
X66338868Y-69708229D01*
X66350499Y-69649752D01*
X66350500Y-69649750D01*
X66350500Y-69300249D01*
X66350499Y-69300247D01*
X66338868Y-69241770D01*
X66338867Y-69241768D01*
X66323581Y-69218892D01*
X66302702Y-69152215D01*
X66321186Y-69084835D01*
X66323581Y-69081108D01*
X66338867Y-69058231D01*
X66338868Y-69058229D01*
X66350499Y-68999752D01*
X66350500Y-68999750D01*
X66350500Y-68650249D01*
X66350499Y-68650247D01*
X66338868Y-68591770D01*
X66338867Y-68591768D01*
X66323581Y-68568892D01*
X66302702Y-68502215D01*
X66321186Y-68434835D01*
X66323581Y-68431108D01*
X66338867Y-68408231D01*
X66338868Y-68408229D01*
X66350499Y-68349752D01*
X66350500Y-68349750D01*
X66350500Y-68000249D01*
X66350499Y-68000247D01*
X66338868Y-67941770D01*
X66338867Y-67941769D01*
X66294552Y-67875447D01*
X66228230Y-67831132D01*
X66228229Y-67831131D01*
X66169752Y-67819500D01*
X66169748Y-67819500D01*
X65530252Y-67819500D01*
X65530247Y-67819500D01*
X65471773Y-67831131D01*
X65460489Y-67835806D01*
X65459577Y-67833605D01*
X65408875Y-67849480D01*
X65406666Y-67849500D01*
X65161190Y-67849500D01*
X65094151Y-67829815D01*
X65073509Y-67813181D01*
X64514046Y-67253718D01*
X64506736Y-67245741D01*
X64482458Y-67216807D01*
X64482457Y-67216806D01*
X64449736Y-67197914D01*
X64440618Y-67192104D01*
X64409686Y-67170446D01*
X64404861Y-67168196D01*
X64388057Y-67161235D01*
X64383044Y-67159411D01*
X64345854Y-67152852D01*
X64335300Y-67150512D01*
X64298810Y-67140735D01*
X64261183Y-67144028D01*
X64250374Y-67144500D01*
X63945131Y-67144500D01*
X63878092Y-67124815D01*
X63832337Y-67072011D01*
X63823965Y-67046857D01*
X63814605Y-67003833D01*
X63814599Y-67003805D01*
X63812112Y-66993627D01*
X63769102Y-66912915D01*
X63723347Y-66860111D01*
X63723341Y-66860104D01*
X63705759Y-66842160D01*
X63705758Y-66842159D01*
X63705756Y-66842157D01*
X63705754Y-66842156D01*
X63705752Y-66842154D01*
X63625942Y-66797511D01*
X63625937Y-66797509D01*
X63558905Y-66777826D01*
X63558901Y-66777825D01*
X63558900Y-66777825D01*
X63501002Y-66769500D01*
X63500998Y-66769500D01*
X60729502Y-66769500D01*
X60662463Y-66749815D01*
X60616708Y-66697011D01*
X60605502Y-66645500D01*
X60605502Y-62936482D01*
X60625187Y-62869443D01*
X60641821Y-62848801D01*
X60948803Y-62541819D01*
X61010126Y-62508334D01*
X61036484Y-62505500D01*
X62918380Y-62505500D01*
X62918381Y-62505500D01*
X62947619Y-62503409D01*
X62982543Y-62498389D01*
X63064392Y-62467867D01*
X63123171Y-62430099D01*
X63167378Y-62391800D01*
X63750004Y-61719540D01*
X63759220Y-61708105D01*
X63769827Y-61693936D01*
X63802492Y-61628681D01*
X63822177Y-61561642D01*
X63830502Y-61503744D01*
X63830502Y-53675000D01*
X63830502Y-50686482D01*
X63850187Y-50619443D01*
X63866821Y-50598801D01*
X64233989Y-50231633D01*
X64234006Y-50231615D01*
X64248695Y-50215262D01*
X64265329Y-50194620D01*
X64302492Y-50123575D01*
X64322177Y-50056536D01*
X64330502Y-49998638D01*
X64330502Y-48351362D01*
X64329324Y-48329393D01*
X64326490Y-48303035D01*
X64302531Y-48226518D01*
X64269046Y-48165195D01*
X64269041Y-48165188D01*
X64234003Y-48118384D01*
X64234000Y-48118381D01*
X64233993Y-48118371D01*
X63986819Y-47871197D01*
X63953334Y-47809874D01*
X63950500Y-47783516D01*
X63950500Y-42959953D01*
X63970185Y-42892914D01*
X63990159Y-42869054D01*
X64000050Y-42859877D01*
X64158959Y-42660612D01*
X64286393Y-42439888D01*
X64379508Y-42202637D01*
X64436222Y-41954157D01*
X64455268Y-41700000D01*
X64436222Y-41445843D01*
X64379508Y-41197363D01*
X64286393Y-40960112D01*
X64158959Y-40739388D01*
X64000050Y-40540123D01*
X63813217Y-40366768D01*
X63602634Y-40223195D01*
X63602630Y-40223193D01*
X63602627Y-40223191D01*
X63602626Y-40223190D01*
X63373006Y-40112612D01*
X63373008Y-40112612D01*
X63129466Y-40037489D01*
X63129462Y-40037488D01*
X63129458Y-40037487D01*
X63008231Y-40019214D01*
X62877440Y-39999500D01*
X62877435Y-39999500D01*
X62622565Y-39999500D01*
X62622559Y-39999500D01*
X62465609Y-40023157D01*
X62370542Y-40037487D01*
X62370539Y-40037488D01*
X62370533Y-40037489D01*
X62126992Y-40112612D01*
X61897373Y-40223190D01*
X61897372Y-40223191D01*
X61686782Y-40366768D01*
X61499952Y-40540121D01*
X61499950Y-40540123D01*
X61341041Y-40739388D01*
X61213608Y-40960109D01*
X61120492Y-41197362D01*
X61120490Y-41197369D01*
X61063777Y-41445845D01*
X61044732Y-41699995D01*
X61044732Y-41700004D01*
X61063777Y-41954154D01*
X61063778Y-41954157D01*
X61120492Y-42202637D01*
X61213607Y-42439888D01*
X61341041Y-42660612D01*
X61431232Y-42773708D01*
X61499947Y-42859874D01*
X61509841Y-42869054D01*
X61545596Y-42929082D01*
X61549500Y-42959953D01*
X61549500Y-47783519D01*
X61529815Y-47850558D01*
X61513181Y-47871200D01*
X61266016Y-48118365D01*
X61266014Y-48118366D01*
X61251327Y-48134716D01*
X61251315Y-48134730D01*
X61234674Y-48155379D01*
X61197511Y-48226424D01*
X61177828Y-48293456D01*
X61177827Y-48293464D01*
X61169503Y-48351361D01*
X61169502Y-48351365D01*
X61169502Y-49998638D01*
X61170680Y-50020618D01*
X61173513Y-50046965D01*
X61173514Y-50046967D01*
X61197472Y-50123478D01*
X61197473Y-50123483D01*
X61211874Y-50149855D01*
X61230958Y-50184805D01*
X61230960Y-50184808D01*
X61230962Y-50184811D01*
X61266000Y-50231615D01*
X61266004Y-50231619D01*
X61266011Y-50231629D01*
X61266015Y-50231633D01*
X61266018Y-50231636D01*
X61633183Y-50598801D01*
X61666668Y-50660124D01*
X61669502Y-50686482D01*
X61669502Y-54666775D01*
X61649817Y-54733814D01*
X61634657Y-54752958D01*
X61099390Y-55306683D01*
X61038643Y-55341202D01*
X61010235Y-55344500D01*
X56951363Y-55344500D01*
X56929383Y-55345678D01*
X56903036Y-55348511D01*
X56903034Y-55348512D01*
X56826523Y-55372470D01*
X56826518Y-55372471D01*
X56765190Y-55405960D01*
X56718386Y-55440998D01*
X56718365Y-55441016D01*
X56041015Y-56118365D01*
X56041014Y-56118366D01*
X56026327Y-56134716D01*
X56026315Y-56134730D01*
X56009674Y-56155379D01*
X55972511Y-56226424D01*
X55952828Y-56293456D01*
X55952827Y-56293464D01*
X55944503Y-56351361D01*
X55944502Y-56351365D01*
X55944502Y-68748638D01*
X42000500Y-68748638D01*
X42000500Y-35874500D01*
X42020185Y-35807461D01*
X42072989Y-35761706D01*
X42124500Y-35750500D01*
X106875500Y-35750500D01*
X106942539Y-35770185D01*
G37*
%TD.AperFunction*%
%TD*%
M02*
