M48
; DRILL file {KiCad 7.0.10} date Saturday, April 20, 2024 at 12:23:04 AM
; FORMAT={-:-/ absolute / inch / decimal}
; #@! TF.CreationDate,2024-04-20T00:23:04-04:00
; #@! TF.GenerationSoftware,Kicad,Pcbnew,7.0.10
; #@! TF.FileFunction,Plated,1,4,PTH
FMAT,2
INCH
; #@! TA.AperFunction,Plated,PTH,ViaDrill
T1C0.0118
; #@! TA.AperFunction,Plated,PTH,ViaDrill
T2C0.0157
; #@! TA.AperFunction,Plated,PTH,ComponentDrill
T3C0.0236
; #@! TA.AperFunction,Plated,PTH,ComponentDrill
T4C0.0550
; #@! TA.AperFunction,Plated,PTH,ComponentDrill
T5C0.0590
; #@! TA.AperFunction,Plated,PTH,ComponentDrill
T6C0.0630
; #@! TA.AperFunction,Plated,PTH,ComponentDrill
T7C0.0787
; #@! TA.AperFunction,Plated,PTH,ComponentDrill
T8C0.1693
%
G90
G05
T1
X2.5591Y-2.797
X2.5591Y-4.1002
X2.8051Y-2.6594
X2.8051Y-3.9646
X2.8346Y-3.3248
X2.8652Y-3.3172
X2.9142Y-3.5189
X3.0315Y-3.4272
X3.061Y-2.7874
X3.061Y-4.0925
X3.3069Y-3.9546
X3.3071Y-2.6516
X3.376Y-2.622
X3.435Y-2.622
T2
X1.7028Y-1.4567
X1.7028Y-1.5551
X1.7028Y-1.6535
X1.7028Y-1.752
X1.7028Y-1.8504
X1.7028Y-1.9488
X1.7028Y-2.0472
X1.7028Y-2.1457
X1.7028Y-2.2441
X1.7028Y-2.3425
X1.7028Y-2.4409
X1.7028Y-2.5394
X1.7028Y-2.6378
X1.7028Y-2.7362
X1.7028Y-2.8346
X1.7028Y-2.9331
X1.7028Y-3.0315
X1.7028Y-3.1299
X1.7028Y-3.2283
X1.7028Y-3.3268
X1.7028Y-3.4252
X1.7028Y-3.5236
X1.7028Y-3.622
X1.7028Y-3.7205
X1.7028Y-3.8189
X1.7028Y-3.9173
X1.7028Y-4.0157
X1.7028Y-4.1142
X1.7028Y-4.2126
X1.7028Y-4.311
X1.7028Y-4.4094
X1.7028Y-4.5079
X1.7028Y-4.6063
X1.7028Y-4.7047
X1.7028Y-4.8031
X1.7028Y-4.9016
X1.7028Y-5.0
X1.7028Y-5.0984
X1.7028Y-5.1969
X1.7028Y-5.2953
X1.8012Y-1.4567
X1.8012Y-5.2953
X1.8996Y-1.4567
X1.8996Y-5.2953
X1.998Y-1.4567
X1.998Y-5.2953
X2.0965Y-1.4567
X2.0965Y-5.2953
X2.1949Y-1.4567
X2.1949Y-5.2953
X2.2933Y-1.4567
X2.2933Y-5.2953
X2.3425Y-2.8169
X2.3425Y-3.9291
X2.3917Y-1.4567
X2.3917Y-5.2953
X2.4902Y-1.4567
X2.4902Y-5.2953
X2.5886Y-1.4567
X2.5886Y-5.2953
X2.6043Y-2.6366
X2.6043Y-2.8089
X2.6043Y-3.9398
X2.6043Y-4.112
X2.687Y-1.4567
X2.687Y-5.2953
X2.6929Y-2.8089
X2.6929Y-4.112
X2.6939Y-2.6366
X2.6939Y-3.9398
X2.7736Y-3.2106
X2.7854Y-1.4567
X2.7854Y-5.2953
X2.8346Y-3.7323
X2.8484Y-3.5453
X2.8839Y-1.4567
X2.8839Y-5.2953
X2.9823Y-1.4567
X2.9823Y-5.2953
X3.0177Y-3.2028
X3.0315Y-3.0197
X3.0807Y-1.4567
X3.0807Y-5.2953
X3.172Y-4.1151
X3.1722Y-2.812
X3.173Y-3.9428
X3.1732Y-2.6398
X3.1791Y-1.4567
X3.1791Y-5.2953
X3.2616Y-3.9428
X3.2616Y-4.1151
X3.2618Y-2.6398
X3.2618Y-2.812
X3.2776Y-1.4567
X3.2776Y-5.2953
X3.376Y-1.4567
X3.376Y-5.2953
X3.4744Y-1.4567
X3.4744Y-5.2953
X3.5236Y-2.8209
X3.5315Y-3.9291
X3.5728Y-1.4567
X3.5728Y-5.2953
X3.6713Y-1.4567
X3.6713Y-5.2953
X3.7697Y-1.4567
X3.7697Y-5.2953
X3.8681Y-1.4567
X3.8681Y-5.2953
X3.9665Y-1.4567
X3.9665Y-5.2953
X4.065Y-1.4567
X4.065Y-5.2953
X4.1634Y-1.4567
X4.1634Y-1.5551
X4.1634Y-1.6535
X4.1634Y-1.752
X4.1634Y-1.8504
X4.1634Y-1.9488
X4.1634Y-2.0472
X4.1634Y-2.1457
X4.1634Y-2.2441
X4.1634Y-2.3425
X4.1634Y-2.4409
X4.1634Y-2.5394
X4.1634Y-2.6378
X4.1634Y-2.7362
X4.1634Y-2.8346
X4.1634Y-2.9331
X4.1634Y-3.0315
X4.1634Y-3.1299
X4.1634Y-3.2283
X4.1634Y-3.3268
X4.1634Y-3.4252
X4.1634Y-3.5236
X4.1634Y-3.622
X4.1634Y-3.7205
X4.1634Y-3.8189
X4.1634Y-3.9173
X4.1634Y-4.0157
X4.1634Y-4.1142
X4.1634Y-4.2126
X4.1634Y-4.311
X4.1634Y-4.4094
X4.1634Y-4.5079
X4.1634Y-4.6063
X4.1634Y-4.7047
X4.1634Y-4.8031
X4.1634Y-4.9016
X4.1634Y-5.0
X4.1634Y-5.0984
X4.1634Y-5.1969
X4.1634Y-5.2953
T3
X1.8219Y-5.0492
X1.8219Y-1.7028
X1.859Y-4.9594
X1.859Y-5.139
X1.859Y-1.613
X1.859Y-1.7925
X1.9488Y-4.9222
X1.9488Y-5.1762
X1.9488Y-1.5758
X1.9488Y-1.8297
X2.0386Y-4.9594
X2.0386Y-5.139
X2.0386Y-1.613
X2.0386Y-1.7925
X2.0758Y-5.0492
X2.0758Y-1.7028
X3.7904Y-5.0492
X3.7904Y-1.7028
X3.8275Y-4.9594
X3.8275Y-5.139
X3.8275Y-1.613
X3.8275Y-1.7925
X3.9173Y-4.9222
X3.9173Y-5.1762
X3.9173Y-1.5758
X3.9173Y-1.8297
X4.0071Y-4.9594
X4.0071Y-5.139
X4.0071Y-1.613
X4.0071Y-1.7925
X4.0443Y-5.0492
X4.0443Y-1.7028
T4
X1.8975Y-2.6239
X1.8975Y-2.8249
X1.8975Y-3.9271
X1.8975Y-4.1281
X2.0985Y-2.6239
X2.0985Y-2.8249
X2.0985Y-3.9271
X2.0985Y-4.1281
X2.37Y-1.8365
X2.37Y-2.0375
X2.37Y-4.7145
X2.37Y-4.9155
X2.571Y-1.8365
X2.571Y-2.0375
X2.571Y-4.7145
X2.571Y-4.9155
X2.8326Y-1.8365
X2.8326Y-2.0375
X2.8326Y-4.7145
X2.8326Y-4.9155
X3.0336Y-1.8365
X3.0336Y-2.0375
X3.0336Y-4.7145
X3.0336Y-4.9155
X3.2952Y-1.8365
X3.2952Y-2.0375
X3.2952Y-4.7145
X3.2952Y-4.9155
X3.4962Y-1.8365
X3.4962Y-2.0375
X3.4962Y-4.7145
X3.4962Y-4.9155
X3.7676Y-2.6239
X3.7676Y-2.8249
X3.7676Y-3.9271
X3.7676Y-4.1281
X3.9686Y-2.6239
X3.9686Y-2.8249
X3.9686Y-3.9271
X3.9686Y-4.1281
T5
X1.998Y-2.7244
X1.998Y-4.0276
X2.4705Y-1.937
X2.4705Y-4.815
X2.9331Y-1.937
X2.9331Y-4.815
X3.3957Y-1.937
X3.3957Y-4.815
X3.8681Y-2.7244
X3.8681Y-4.0276
T6
X2.3425Y-2.3307
X2.3425Y-4.4213
X2.5984Y-2.3307
X2.5984Y-4.4213
X2.6083Y-3.1201
X2.6083Y-3.6319
X3.2579Y-3.1201
X3.2579Y-3.6319
X3.2677Y-2.3307
X3.2677Y-4.4213
X3.5236Y-2.3307
X3.5236Y-4.4213
T7
X2.0079Y-3.1201
X2.0079Y-3.6319
X2.4705Y-1.6417
X2.4705Y-5.1102
X2.9331Y-1.6417
X2.9331Y-5.1102
X3.3957Y-1.6417
X3.3957Y-5.1102
X3.8583Y-3.1201
X3.8583Y-3.6319
T8
X1.9488Y-5.0492
X1.9488Y-1.7028
X3.9173Y-5.0492
X3.9173Y-1.7028
M30
