%TF.GenerationSoftware,KiCad,Pcbnew,7.0.10*%
%TF.CreationDate,2024-04-20T00:23:07-04:00*%
%TF.ProjectId,dual-rail-eval-board,6475616c-2d72-4616-996c-2d6576616c2d,1*%
%TF.SameCoordinates,Original*%
%TF.FileFunction,Soldermask,Top*%
%TF.FilePolarity,Negative*%
%FSLAX46Y46*%
G04 Gerber Fmt 4.6, Leading zero omitted, Abs format (unit mm)*
G04 Created by KiCad (PCBNEW 7.0.10) date 2024-04-20 00:23:07*
%MOMM*%
%LPD*%
G01*
G04 APERTURE LIST*
G04 Aperture macros list*
%AMRoundRect*
0 Rectangle with rounded corners*
0 $1 Rounding radius*
0 $2 $3 $4 $5 $6 $7 $8 $9 X,Y pos of 4 corners*
0 Add a 4 corners polygon primitive as box body*
4,1,4,$2,$3,$4,$5,$6,$7,$8,$9,$2,$3,0*
0 Add four circle primitives for the rounded corners*
1,1,$1+$1,$2,$3*
1,1,$1+$1,$4,$5*
1,1,$1+$1,$6,$7*
1,1,$1+$1,$8,$9*
0 Add four rect primitives between the rounded corners*
20,1,$1+$1,$2,$3,$4,$5,0*
20,1,$1+$1,$4,$5,$6,$7,0*
20,1,$1+$1,$6,$7,$8,$9,0*
20,1,$1+$1,$8,$9,$2,$3,0*%
G04 Aperture macros list end*
%ADD10C,5.000000*%
%ADD11C,0.150000*%
%ADD12C,2.006600*%
%ADD13C,1.905000*%
%ADD14C,2.604000*%
%ADD15C,0.900000*%
%ADD16C,8.600000*%
%ADD17RoundRect,0.135000X0.185000X-0.135000X0.185000X0.135000X-0.185000X0.135000X-0.185000X-0.135000X0*%
%ADD18R,0.600000X0.310000*%
%ADD19R,1.500000X1.750000*%
%ADD20R,0.230000X0.825000*%
%ADD21RoundRect,0.250000X-0.250000X-0.475000X0.250000X-0.475000X0.250000X0.475000X-0.250000X0.475000X0*%
%ADD22C,3.000000*%
%ADD23RoundRect,0.140000X0.170000X-0.140000X0.170000X0.140000X-0.170000X0.140000X-0.170000X-0.140000X0*%
%ADD24RoundRect,0.135000X-0.185000X0.135000X-0.185000X-0.135000X0.185000X-0.135000X0.185000X0.135000X0*%
%ADD25RoundRect,0.250000X-0.450000X0.262500X-0.450000X-0.262500X0.450000X-0.262500X0.450000X0.262500X0*%
%ADD26RoundRect,0.140000X-0.170000X0.140000X-0.170000X-0.140000X0.170000X-0.140000X0.170000X0.140000X0*%
%ADD27RoundRect,0.250000X-0.475000X0.250000X-0.475000X-0.250000X0.475000X-0.250000X0.475000X0.250000X0*%
%ADD28RoundRect,0.250000X0.250000X0.475000X-0.250000X0.475000X-0.250000X-0.475000X0.250000X-0.475000X0*%
%ADD29RoundRect,0.250000X0.475000X-0.250000X0.475000X0.250000X-0.475000X0.250000X-0.475000X-0.250000X0*%
%ADD30RoundRect,0.250000X0.450000X-0.262500X0.450000X0.262500X-0.450000X0.262500X-0.450000X-0.262500X0*%
%ADD31RoundRect,0.218750X0.381250X-0.218750X0.381250X0.218750X-0.381250X0.218750X-0.381250X-0.218750X0*%
%ADD32RoundRect,0.140000X0.140000X0.170000X-0.140000X0.170000X-0.140000X-0.170000X0.140000X-0.170000X0*%
%ADD33R,0.249999X0.499999*%
%ADD34R,2.650000X1.000000*%
%ADD35RoundRect,0.218750X-0.381250X0.218750X-0.381250X-0.218750X0.381250X-0.218750X0.381250X0.218750X0*%
G04 APERTURE END LIST*
D10*
X42000002Y-35800000D02*
X107000002Y-35800000D01*
X107000002Y-135800000D01*
X42000002Y-135800000D01*
X42000002Y-35800000D01*
D11*
X94850002Y-38300000D02*
X104500002Y-38300000D01*
X104500002Y-47900000D01*
X94850002Y-47900000D01*
X94850002Y-38300000D01*
G36*
X94850002Y-38300000D02*
G01*
X104500002Y-38300000D01*
X104500002Y-47900000D01*
X94850002Y-47900000D01*
X94850002Y-38300000D01*
G37*
X44500002Y-123700000D02*
X54150002Y-123700000D01*
X54150002Y-133300000D01*
X44500002Y-133300000D01*
X44500002Y-123700000D01*
G36*
X44500002Y-123700000D02*
G01*
X54150002Y-123700000D01*
X54150002Y-133300000D01*
X44500002Y-133300000D01*
X44500002Y-123700000D01*
G37*
X94900002Y-123650000D02*
X104500002Y-123650000D01*
X104500002Y-133300000D01*
X94900002Y-133300000D01*
X94900002Y-123650000D01*
G36*
X94900002Y-123650000D02*
G01*
X104500002Y-123650000D01*
X104500002Y-133300000D01*
X94900002Y-133300000D01*
X94900002Y-123650000D01*
G37*
X44500002Y-38300000D02*
X54150002Y-38300000D01*
X54150002Y-47900000D01*
X44500002Y-47900000D01*
X44500002Y-38300000D01*
G36*
X44500002Y-38300000D02*
G01*
X54150002Y-38300000D01*
X54150002Y-47900000D01*
X44500002Y-47900000D01*
X44500002Y-38300000D01*
G37*
D12*
%TO.C,J10*%
X50750000Y-69200000D03*
D13*
X48197300Y-66647300D03*
X53302700Y-66647300D03*
X53302700Y-71752700D03*
X48197300Y-71752700D03*
%TD*%
D12*
%TO.C,J9*%
X50750000Y-102300000D03*
D13*
X48197300Y-99747300D03*
X53302700Y-99747300D03*
X53302700Y-104852700D03*
X48197300Y-104852700D03*
%TD*%
D12*
%TO.C,J8*%
X98250000Y-102300000D03*
D13*
X95697300Y-99747300D03*
X100802700Y-99747300D03*
X100802700Y-104852700D03*
X95697300Y-104852700D03*
%TD*%
D12*
%TO.C,J7*%
X98250000Y-69200000D03*
D13*
X95697300Y-66647300D03*
X100802700Y-66647300D03*
X100802700Y-71752700D03*
X95697300Y-71752700D03*
%TD*%
D14*
%TO.C,TP6*%
X59500000Y-112299997D03*
%TD*%
%TO.C,TP5*%
X59500000Y-59200000D03*
%TD*%
%TO.C,TP4*%
X89500000Y-112300000D03*
%TD*%
%TO.C,TP3*%
X89500000Y-59200000D03*
%TD*%
%TO.C,TP2*%
X66250000Y-92250000D03*
%TD*%
%TO.C,TP1*%
X82750000Y-79250000D03*
%TD*%
D15*
%TO.C,H1*%
X52725002Y-43250000D03*
X51780421Y-45530419D03*
X51780421Y-40969581D03*
X49500002Y-46475000D03*
D16*
X49500002Y-43250000D03*
D15*
X49500002Y-40025000D03*
X47219583Y-45530419D03*
X47219583Y-40969581D03*
X46275002Y-43250000D03*
%TD*%
D17*
%TO.C,R12*%
X63250000Y-70710000D03*
X63250000Y-69690000D03*
%TD*%
D18*
%TO.C,U4*%
X65850000Y-68175000D03*
X65850000Y-68825000D03*
X65850000Y-69475000D03*
X65850000Y-70125000D03*
X68650000Y-70125000D03*
X68650000Y-69475000D03*
X68650000Y-68825000D03*
X68650000Y-68175000D03*
D19*
X67250000Y-69150000D03*
D20*
X67575000Y-67862000D03*
X66925000Y-67862000D03*
X67575000Y-70438000D03*
X66925000Y-70438000D03*
%TD*%
D14*
%TO.C,TP9*%
X66250000Y-79250000D03*
%TD*%
D12*
%TO.C,J3*%
X86250000Y-49200000D03*
D13*
X83697300Y-46647300D03*
X83697300Y-51752700D03*
X88802700Y-46647300D03*
X88802700Y-51752700D03*
%TD*%
D21*
%TO.C,C2*%
X76650000Y-83000000D03*
X78550000Y-83000000D03*
%TD*%
D22*
%TO.C,TP20*%
X86250000Y-129800000D03*
%TD*%
D12*
%TO.C,J6*%
X62750000Y-122300000D03*
D13*
X60197300Y-119747300D03*
X60197300Y-124852700D03*
X65302700Y-119747300D03*
X65302700Y-124852700D03*
%TD*%
D23*
%TO.C,C11*%
X85750000Y-104030000D03*
X85750000Y-103070000D03*
%TD*%
D12*
%TO.C,J5*%
X62750000Y-49200000D03*
D13*
X60197300Y-46647300D03*
X60197300Y-51752700D03*
X65302700Y-46647300D03*
X65302700Y-51752700D03*
%TD*%
D22*
%TO.C,TP15*%
X62750000Y-41700000D03*
%TD*%
D24*
%TO.C,R7*%
X87250000Y-69990000D03*
X87250000Y-71010000D03*
%TD*%
D25*
%TO.C,R5*%
X72000002Y-78137500D03*
X72000002Y-79962500D03*
%TD*%
D14*
%TO.C,TP10*%
X82750000Y-92250000D03*
%TD*%
D26*
%TO.C,C19*%
X63250000Y-100570000D03*
X63250000Y-101530000D03*
%TD*%
D27*
%TO.C,C8*%
X72000000Y-91550500D03*
X72000000Y-93450500D03*
%TD*%
D21*
%TO.C,C6*%
X76650000Y-88500000D03*
X78550000Y-88500000D03*
%TD*%
D24*
%TO.C,R9*%
X87250000Y-103040000D03*
X87250000Y-104060000D03*
%TD*%
D28*
%TO.C,C5*%
X72350000Y-83000000D03*
X70450000Y-83000000D03*
%TD*%
D29*
%TO.C,C16*%
X89700004Y-103250000D03*
X89700004Y-101350000D03*
%TD*%
D23*
%TO.C,C20*%
X71250000Y-102780000D03*
X71250000Y-101820000D03*
%TD*%
D14*
%TO.C,TP12*%
X83000000Y-112300000D03*
%TD*%
D29*
%TO.C,C7*%
X77000002Y-79950000D03*
X77000002Y-78050000D03*
%TD*%
D17*
%TO.C,R4*%
X77000000Y-86260000D03*
X77000000Y-85240000D03*
%TD*%
D26*
%TO.C,C21*%
X61750000Y-69720000D03*
X61750000Y-70680000D03*
%TD*%
%TO.C,C12*%
X77750000Y-101820000D03*
X77750000Y-102780000D03*
%TD*%
D22*
%TO.C,TP13*%
X51000000Y-92250000D03*
%TD*%
D26*
%TO.C,C22*%
X61750000Y-102820000D03*
X61750000Y-103780000D03*
%TD*%
D30*
%TO.C,R6*%
X77000000Y-93413000D03*
X77000000Y-91588000D03*
%TD*%
D22*
%TO.C,TP16*%
X86250000Y-41700000D03*
%TD*%
D26*
%TO.C,C17*%
X63250000Y-67470000D03*
X63250000Y-68430000D03*
%TD*%
D22*
%TO.C,TP18*%
X74500000Y-129800000D03*
%TD*%
D15*
%TO.C,H4*%
X96274998Y-128250000D03*
X97219579Y-125969581D03*
X97219579Y-130530419D03*
X99499998Y-125025000D03*
D16*
X99499998Y-128250000D03*
D15*
X99499998Y-131475000D03*
X101780417Y-125969581D03*
X101780417Y-130530419D03*
X102724998Y-128250000D03*
%TD*%
D23*
%TO.C,C18*%
X71250000Y-69680000D03*
X71250000Y-68720000D03*
%TD*%
D18*
%TO.C,U2*%
X83150000Y-70225000D03*
X83150000Y-69575000D03*
X83150000Y-68925000D03*
X83150000Y-68275000D03*
X80350000Y-68275000D03*
X80350000Y-68925000D03*
X80350000Y-69575000D03*
X80350000Y-70225000D03*
D19*
X81750000Y-69250000D03*
D20*
X81425000Y-70538000D03*
X82075000Y-70538000D03*
X81425000Y-67962000D03*
X82075000Y-67962000D03*
%TD*%
D24*
%TO.C,R3*%
X78250000Y-85240000D03*
X78250000Y-86260000D03*
%TD*%
D17*
%TO.C,R1*%
X70750000Y-86260000D03*
X70750000Y-85240000D03*
%TD*%
D29*
%TO.C,C24*%
X59500000Y-103250000D03*
X59500000Y-101350000D03*
%TD*%
D23*
%TO.C,C14*%
X87250000Y-101780000D03*
X87250000Y-100820000D03*
%TD*%
D24*
%TO.C,R8*%
X85750000Y-67740000D03*
X85750000Y-68760000D03*
%TD*%
D15*
%TO.C,H2*%
X96275000Y-43250002D03*
X97219581Y-40969583D03*
X97219581Y-45530421D03*
X99500000Y-40025002D03*
D16*
X99500000Y-43250002D03*
D15*
X99500000Y-46475002D03*
X101780419Y-40969583D03*
X101780419Y-45530421D03*
X102725000Y-43250002D03*
%TD*%
D17*
%TO.C,R13*%
X61750000Y-101560000D03*
X61750000Y-100540000D03*
%TD*%
D31*
%TO.C,L2*%
X74500000Y-93563000D03*
X74500000Y-91438000D03*
%TD*%
D27*
%TO.C,C23*%
X59500000Y-68250000D03*
X59500000Y-70150000D03*
%TD*%
D14*
%TO.C,TP7*%
X66000000Y-59200000D03*
%TD*%
D32*
%TO.C,C3*%
X74980000Y-83000000D03*
X74020000Y-83000000D03*
%TD*%
D33*
%TO.C,U1*%
X73250000Y-86699998D03*
X73750002Y-86699998D03*
X74250000Y-86699998D03*
X74750000Y-86699998D03*
X75250001Y-86699998D03*
X75750000Y-86699998D03*
X75750000Y-84799999D03*
X75250001Y-84799999D03*
X74750000Y-84799999D03*
X74250000Y-84799999D03*
X73750002Y-84799999D03*
X73250000Y-84799999D03*
D34*
X74500000Y-85749997D03*
%TD*%
D12*
%TO.C,J4*%
X86250000Y-122300000D03*
D13*
X83697300Y-119747300D03*
X83697300Y-124852700D03*
X88802700Y-119747300D03*
X88802700Y-124852700D03*
%TD*%
D26*
%TO.C,C10*%
X77750000Y-68720000D03*
X77750000Y-69680000D03*
%TD*%
D18*
%TO.C,U5*%
X65850000Y-101275000D03*
X65850000Y-101925000D03*
X65850000Y-102575000D03*
X65850000Y-103225000D03*
X68650000Y-103225000D03*
X68650000Y-102575000D03*
X68650000Y-101925000D03*
X68650000Y-101275000D03*
D19*
X67250000Y-102250000D03*
D20*
X67575000Y-100962000D03*
X66925000Y-100962000D03*
X67575000Y-103538000D03*
X66925000Y-103538000D03*
%TD*%
D17*
%TO.C,R11*%
X61750000Y-68460000D03*
X61750000Y-67440000D03*
%TD*%
D12*
%TO.C,J2*%
X74500000Y-122300000D03*
D13*
X71947300Y-119747300D03*
X71947300Y-124852700D03*
X77052700Y-119747300D03*
X77052700Y-124852700D03*
%TD*%
D22*
%TO.C,TP22*%
X98000000Y-92250000D03*
%TD*%
D24*
%TO.C,R2*%
X72000000Y-85240000D03*
X72000000Y-86260000D03*
%TD*%
D22*
%TO.C,TP14*%
X74500000Y-41700000D03*
%TD*%
%TO.C,TP19*%
X62750000Y-129800000D03*
%TD*%
D14*
%TO.C,TP8*%
X83000000Y-59200000D03*
%TD*%
D22*
%TO.C,TP17*%
X98000000Y-79250000D03*
%TD*%
D27*
%TO.C,C15*%
X89500000Y-68250000D03*
X89500000Y-70150000D03*
%TD*%
D15*
%TO.C,H3*%
X52725000Y-128249998D03*
X51780419Y-130530417D03*
X51780419Y-125969579D03*
X49500000Y-131474998D03*
D16*
X49500000Y-128249998D03*
D15*
X49500000Y-125024998D03*
X47219581Y-130530417D03*
X47219581Y-125969579D03*
X46275000Y-128249998D03*
%TD*%
D14*
%TO.C,TP11*%
X66000000Y-112299997D03*
%TD*%
D23*
%TO.C,C13*%
X87250000Y-68730000D03*
X87250000Y-67770000D03*
%TD*%
D18*
%TO.C,U3*%
X83150000Y-103325000D03*
X83150000Y-102675000D03*
X83150000Y-102025000D03*
X83150000Y-101375000D03*
X80350000Y-101375000D03*
X80350000Y-102025000D03*
X80350000Y-102675000D03*
X80350000Y-103325000D03*
D19*
X81750000Y-102350000D03*
D20*
X81425000Y-103638000D03*
X82075000Y-103638000D03*
X81425000Y-101062000D03*
X82075000Y-101062000D03*
%TD*%
D24*
%TO.C,R10*%
X85750000Y-100790000D03*
X85750000Y-101810000D03*
%TD*%
D17*
%TO.C,R14*%
X63250000Y-103810000D03*
X63250000Y-102790000D03*
%TD*%
D28*
%TO.C,C1*%
X72350000Y-88500000D03*
X70450000Y-88500000D03*
%TD*%
D32*
%TO.C,C4*%
X74980000Y-88500000D03*
X74020000Y-88500000D03*
%TD*%
D12*
%TO.C,J1*%
X74500000Y-49200000D03*
D13*
X71947300Y-46647300D03*
X71947300Y-51752700D03*
X77052700Y-46647300D03*
X77052700Y-51752700D03*
%TD*%
D22*
%TO.C,TP21*%
X51000000Y-79250000D03*
%TD*%
D35*
%TO.C,L1*%
X74500002Y-77937500D03*
X74500002Y-80062500D03*
%TD*%
D23*
%TO.C,C9*%
X85750000Y-70980000D03*
X85750000Y-70020000D03*
%TD*%
M02*
