%TF.GenerationSoftware,KiCad,Pcbnew,7.0.10*%
%TF.CreationDate,2024-04-20T00:23:07-04:00*%
%TF.ProjectId,dual-rail-eval-board,6475616c-2d72-4616-996c-2d6576616c2d,1*%
%TF.SameCoordinates,Original*%
%TF.FileFunction,Paste,Top*%
%TF.FilePolarity,Positive*%
%FSLAX46Y46*%
G04 Gerber Fmt 4.6, Leading zero omitted, Abs format (unit mm)*
G04 Created by KiCad (PCBNEW 7.0.10) date 2024-04-20 00:23:07*
%MOMM*%
%LPD*%
G01*
G04 APERTURE LIST*
G04 Aperture macros list*
%AMRoundRect*
0 Rectangle with rounded corners*
0 $1 Rounding radius*
0 $2 $3 $4 $5 $6 $7 $8 $9 X,Y pos of 4 corners*
0 Add a 4 corners polygon primitive as box body*
4,1,4,$2,$3,$4,$5,$6,$7,$8,$9,$2,$3,0*
0 Add four circle primitives for the rounded corners*
1,1,$1+$1,$2,$3*
1,1,$1+$1,$4,$5*
1,1,$1+$1,$6,$7*
1,1,$1+$1,$8,$9*
0 Add four rect primitives between the rounded corners*
20,1,$1+$1,$2,$3,$4,$5,0*
20,1,$1+$1,$4,$5,$6,$7,0*
20,1,$1+$1,$6,$7,$8,$9,0*
20,1,$1+$1,$8,$9,$2,$3,0*%
G04 Aperture macros list end*
%ADD10RoundRect,0.135000X0.185000X-0.135000X0.185000X0.135000X-0.185000X0.135000X-0.185000X-0.135000X0*%
%ADD11R,0.600000X0.310000*%
%ADD12R,1.500000X1.750000*%
%ADD13R,0.230000X0.825000*%
%ADD14RoundRect,0.250000X-0.250000X-0.475000X0.250000X-0.475000X0.250000X0.475000X-0.250000X0.475000X0*%
%ADD15RoundRect,0.140000X0.170000X-0.140000X0.170000X0.140000X-0.170000X0.140000X-0.170000X-0.140000X0*%
%ADD16RoundRect,0.135000X-0.185000X0.135000X-0.185000X-0.135000X0.185000X-0.135000X0.185000X0.135000X0*%
%ADD17RoundRect,0.250000X-0.450000X0.262500X-0.450000X-0.262500X0.450000X-0.262500X0.450000X0.262500X0*%
%ADD18RoundRect,0.140000X-0.170000X0.140000X-0.170000X-0.140000X0.170000X-0.140000X0.170000X0.140000X0*%
%ADD19RoundRect,0.250000X-0.475000X0.250000X-0.475000X-0.250000X0.475000X-0.250000X0.475000X0.250000X0*%
%ADD20RoundRect,0.250000X0.250000X0.475000X-0.250000X0.475000X-0.250000X-0.475000X0.250000X-0.475000X0*%
%ADD21RoundRect,0.250000X0.475000X-0.250000X0.475000X0.250000X-0.475000X0.250000X-0.475000X-0.250000X0*%
%ADD22RoundRect,0.250000X0.450000X-0.262500X0.450000X0.262500X-0.450000X0.262500X-0.450000X-0.262500X0*%
%ADD23RoundRect,0.218750X0.381250X-0.218750X0.381250X0.218750X-0.381250X0.218750X-0.381250X-0.218750X0*%
%ADD24RoundRect,0.140000X0.140000X0.170000X-0.140000X0.170000X-0.140000X-0.170000X0.140000X-0.170000X0*%
%ADD25R,0.249999X0.499999*%
%ADD26R,2.650000X1.000000*%
%ADD27RoundRect,0.218750X-0.381250X0.218750X-0.381250X-0.218750X0.381250X-0.218750X0.381250X0.218750X0*%
G04 APERTURE END LIST*
%TO.C,U1*%
G36*
X74357989Y-85276503D02*
G01*
X74367780Y-85279473D01*
X74376805Y-85284296D01*
X74384714Y-85290788D01*
X74391204Y-85298698D01*
X74396028Y-85307720D01*
X74398999Y-85317512D01*
X74400003Y-85327695D01*
X74400003Y-86172305D01*
X74398999Y-86182488D01*
X74396028Y-86192280D01*
X74391204Y-86201302D01*
X74384714Y-86209212D01*
X74376805Y-86215704D01*
X74367780Y-86220527D01*
X74357989Y-86223497D01*
X74347806Y-86224500D01*
X73284196Y-86224500D01*
X73274013Y-86223497D01*
X73264221Y-86220527D01*
X73255197Y-86215704D01*
X73247287Y-86209212D01*
X73240798Y-86201302D01*
X73235974Y-86192280D01*
X73233002Y-86182488D01*
X73232002Y-86172305D01*
X73232002Y-85327695D01*
X73233002Y-85317512D01*
X73235974Y-85307720D01*
X73240798Y-85298698D01*
X73247287Y-85290788D01*
X73255197Y-85284296D01*
X73264221Y-85279473D01*
X73274013Y-85276503D01*
X73284196Y-85275500D01*
X74347806Y-85275500D01*
X74357989Y-85276503D01*
G37*
G36*
X75725987Y-85276503D02*
G01*
X75735779Y-85279473D01*
X75744803Y-85284296D01*
X75752713Y-85290788D01*
X75759202Y-85298698D01*
X75764026Y-85307720D01*
X75766998Y-85317512D01*
X75767998Y-85327695D01*
X75767998Y-86172305D01*
X75766998Y-86182488D01*
X75764026Y-86192280D01*
X75759202Y-86201302D01*
X75752713Y-86209212D01*
X75744803Y-86215704D01*
X75735779Y-86220527D01*
X75725987Y-86223497D01*
X75715804Y-86224500D01*
X74652194Y-86224500D01*
X74642011Y-86223497D01*
X74632220Y-86220527D01*
X74623195Y-86215704D01*
X74615286Y-86209212D01*
X74608796Y-86201302D01*
X74603972Y-86192280D01*
X74601001Y-86182488D01*
X74599997Y-86172305D01*
X74599997Y-85327695D01*
X74601001Y-85317512D01*
X74603972Y-85307720D01*
X74608796Y-85298698D01*
X74615286Y-85290788D01*
X74623195Y-85284296D01*
X74632220Y-85279473D01*
X74642011Y-85276503D01*
X74652194Y-85275500D01*
X75715804Y-85275500D01*
X75725987Y-85276503D01*
G37*
%TD*%
D10*
%TO.C,R12*%
X63250000Y-70710000D03*
X63250000Y-69690000D03*
%TD*%
D11*
%TO.C,U4*%
X65850000Y-68175000D03*
X65850000Y-68825000D03*
X65850000Y-69475000D03*
X65850000Y-70125000D03*
X68650000Y-70125000D03*
X68650000Y-69475000D03*
X68650000Y-68825000D03*
X68650000Y-68175000D03*
D12*
X67250000Y-69150000D03*
D13*
X67575000Y-67862000D03*
X66925000Y-67862000D03*
X67575000Y-70438000D03*
X66925000Y-70438000D03*
%TD*%
D14*
%TO.C,C2*%
X76650000Y-83000000D03*
X78550000Y-83000000D03*
%TD*%
D15*
%TO.C,C11*%
X85750000Y-104030000D03*
X85750000Y-103070000D03*
%TD*%
D16*
%TO.C,R7*%
X87250000Y-69990000D03*
X87250000Y-71010000D03*
%TD*%
D17*
%TO.C,R5*%
X72000002Y-78137500D03*
X72000002Y-79962500D03*
%TD*%
D18*
%TO.C,C19*%
X63250000Y-100570000D03*
X63250000Y-101530000D03*
%TD*%
D19*
%TO.C,C8*%
X72000000Y-91550500D03*
X72000000Y-93450500D03*
%TD*%
D14*
%TO.C,C6*%
X76650000Y-88500000D03*
X78550000Y-88500000D03*
%TD*%
D16*
%TO.C,R9*%
X87250000Y-103040000D03*
X87250000Y-104060000D03*
%TD*%
D20*
%TO.C,C5*%
X72350000Y-83000000D03*
X70450000Y-83000000D03*
%TD*%
D21*
%TO.C,C16*%
X89700004Y-103250000D03*
X89700004Y-101350000D03*
%TD*%
D15*
%TO.C,C20*%
X71250000Y-102780000D03*
X71250000Y-101820000D03*
%TD*%
D21*
%TO.C,C7*%
X77000002Y-79950000D03*
X77000002Y-78050000D03*
%TD*%
D10*
%TO.C,R4*%
X77000000Y-86260000D03*
X77000000Y-85240000D03*
%TD*%
D18*
%TO.C,C21*%
X61750000Y-69720000D03*
X61750000Y-70680000D03*
%TD*%
%TO.C,C12*%
X77750000Y-101820000D03*
X77750000Y-102780000D03*
%TD*%
%TO.C,C22*%
X61750000Y-102820000D03*
X61750000Y-103780000D03*
%TD*%
D22*
%TO.C,R6*%
X77000000Y-93413000D03*
X77000000Y-91588000D03*
%TD*%
D18*
%TO.C,C17*%
X63250000Y-67470000D03*
X63250000Y-68430000D03*
%TD*%
D15*
%TO.C,C18*%
X71250000Y-69680000D03*
X71250000Y-68720000D03*
%TD*%
D11*
%TO.C,U2*%
X83150000Y-70225000D03*
X83150000Y-69575000D03*
X83150000Y-68925000D03*
X83150000Y-68275000D03*
X80350000Y-68275000D03*
X80350000Y-68925000D03*
X80350000Y-69575000D03*
X80350000Y-70225000D03*
D12*
X81750000Y-69250000D03*
D13*
X81425000Y-70538000D03*
X82075000Y-70538000D03*
X81425000Y-67962000D03*
X82075000Y-67962000D03*
%TD*%
D16*
%TO.C,R3*%
X78250000Y-85240000D03*
X78250000Y-86260000D03*
%TD*%
D10*
%TO.C,R1*%
X70750000Y-86260000D03*
X70750000Y-85240000D03*
%TD*%
D21*
%TO.C,C24*%
X59500000Y-103250000D03*
X59500000Y-101350000D03*
%TD*%
D15*
%TO.C,C14*%
X87250000Y-101780000D03*
X87250000Y-100820000D03*
%TD*%
D16*
%TO.C,R8*%
X85750000Y-67740000D03*
X85750000Y-68760000D03*
%TD*%
D10*
%TO.C,R13*%
X61750000Y-101560000D03*
X61750000Y-100540000D03*
%TD*%
D23*
%TO.C,L2*%
X74500000Y-93563000D03*
X74500000Y-91438000D03*
%TD*%
D19*
%TO.C,C23*%
X59500000Y-68250000D03*
X59500000Y-70150000D03*
%TD*%
D24*
%TO.C,C3*%
X74980000Y-83000000D03*
X74020000Y-83000000D03*
%TD*%
D25*
%TO.C,U1*%
X73250000Y-86699998D03*
X73750002Y-86699998D03*
X74250000Y-86699998D03*
X74750000Y-86699998D03*
X75250001Y-86699998D03*
X75750000Y-86699998D03*
X75750000Y-84799999D03*
X75250001Y-84799999D03*
X74750000Y-84799999D03*
X74250000Y-84799999D03*
X73750002Y-84799999D03*
X73250000Y-84799999D03*
D26*
X74500000Y-85749997D03*
%TD*%
D18*
%TO.C,C10*%
X77750000Y-68720000D03*
X77750000Y-69680000D03*
%TD*%
D11*
%TO.C,U5*%
X65850000Y-101275000D03*
X65850000Y-101925000D03*
X65850000Y-102575000D03*
X65850000Y-103225000D03*
X68650000Y-103225000D03*
X68650000Y-102575000D03*
X68650000Y-101925000D03*
X68650000Y-101275000D03*
D12*
X67250000Y-102250000D03*
D13*
X67575000Y-100962000D03*
X66925000Y-100962000D03*
X67575000Y-103538000D03*
X66925000Y-103538000D03*
%TD*%
D10*
%TO.C,R11*%
X61750000Y-68460000D03*
X61750000Y-67440000D03*
%TD*%
D16*
%TO.C,R2*%
X72000000Y-85240000D03*
X72000000Y-86260000D03*
%TD*%
D19*
%TO.C,C15*%
X89500000Y-68250000D03*
X89500000Y-70150000D03*
%TD*%
D15*
%TO.C,C13*%
X87250000Y-68730000D03*
X87250000Y-67770000D03*
%TD*%
D11*
%TO.C,U3*%
X83150000Y-103325000D03*
X83150000Y-102675000D03*
X83150000Y-102025000D03*
X83150000Y-101375000D03*
X80350000Y-101375000D03*
X80350000Y-102025000D03*
X80350000Y-102675000D03*
X80350000Y-103325000D03*
D12*
X81750000Y-102350000D03*
D13*
X81425000Y-103638000D03*
X82075000Y-103638000D03*
X81425000Y-101062000D03*
X82075000Y-101062000D03*
%TD*%
D16*
%TO.C,R10*%
X85750000Y-100790000D03*
X85750000Y-101810000D03*
%TD*%
D10*
%TO.C,R14*%
X63250000Y-103810000D03*
X63250000Y-102790000D03*
%TD*%
D20*
%TO.C,C1*%
X72350000Y-88500000D03*
X70450000Y-88500000D03*
%TD*%
D24*
%TO.C,C4*%
X74980000Y-88500000D03*
X74020000Y-88500000D03*
%TD*%
D27*
%TO.C,L1*%
X74500002Y-77937500D03*
X74500002Y-80062500D03*
%TD*%
D15*
%TO.C,C9*%
X85750000Y-70980000D03*
X85750000Y-70020000D03*
%TD*%
M02*
