%TF.GenerationSoftware,KiCad,Pcbnew,7.0.10*%
%TF.CreationDate,2024-04-20T00:23:08-04:00*%
%TF.ProjectId,dual-rail-eval-board,6475616c-2d72-4616-996c-2d6576616c2d,1*%
%TF.SameCoordinates,Original*%
%TF.FileFunction,Soldermask,Bot*%
%TF.FilePolarity,Negative*%
%FSLAX46Y46*%
G04 Gerber Fmt 4.6, Leading zero omitted, Abs format (unit mm)*
G04 Created by KiCad (PCBNEW 7.0.10) date 2024-04-20 00:23:08*
%MOMM*%
%LPD*%
G01*
G04 APERTURE LIST*
%ADD10C,2.006600*%
%ADD11C,1.905000*%
%ADD12C,2.604000*%
%ADD13C,0.900000*%
%ADD14C,8.600000*%
%ADD15C,3.000000*%
G04 APERTURE END LIST*
D10*
%TO.C,J10*%
X50750000Y-69200000D03*
D11*
X48197300Y-66647300D03*
X53302700Y-66647300D03*
X53302700Y-71752700D03*
X48197300Y-71752700D03*
%TD*%
D10*
%TO.C,J9*%
X50750000Y-102300000D03*
D11*
X48197300Y-99747300D03*
X53302700Y-99747300D03*
X53302700Y-104852700D03*
X48197300Y-104852700D03*
%TD*%
D10*
%TO.C,J8*%
X98250000Y-102300000D03*
D11*
X95697300Y-99747300D03*
X100802700Y-99747300D03*
X100802700Y-104852700D03*
X95697300Y-104852700D03*
%TD*%
D10*
%TO.C,J7*%
X98250000Y-69200000D03*
D11*
X95697300Y-66647300D03*
X100802700Y-66647300D03*
X100802700Y-71752700D03*
X95697300Y-71752700D03*
%TD*%
D12*
%TO.C,TP6*%
X59500000Y-112299997D03*
%TD*%
%TO.C,TP5*%
X59500000Y-59200000D03*
%TD*%
%TO.C,TP4*%
X89500000Y-112300000D03*
%TD*%
%TO.C,TP3*%
X89500000Y-59200000D03*
%TD*%
%TO.C,TP2*%
X66250000Y-92250000D03*
%TD*%
%TO.C,TP1*%
X82750000Y-79250000D03*
%TD*%
D13*
%TO.C,H1*%
X52725002Y-43250000D03*
X51780421Y-45530419D03*
X51780421Y-40969581D03*
X49500002Y-46475000D03*
D14*
X49500002Y-43250000D03*
D13*
X49500002Y-40025000D03*
X47219583Y-45530419D03*
X47219583Y-40969581D03*
X46275002Y-43250000D03*
%TD*%
D12*
%TO.C,TP9*%
X66250000Y-79250000D03*
%TD*%
D10*
%TO.C,J3*%
X86250000Y-49200000D03*
D11*
X83697300Y-46647300D03*
X83697300Y-51752700D03*
X88802700Y-46647300D03*
X88802700Y-51752700D03*
%TD*%
D15*
%TO.C,TP20*%
X86250000Y-129800000D03*
%TD*%
D10*
%TO.C,J6*%
X62750000Y-122300000D03*
D11*
X60197300Y-119747300D03*
X60197300Y-124852700D03*
X65302700Y-119747300D03*
X65302700Y-124852700D03*
%TD*%
D10*
%TO.C,J5*%
X62750000Y-49200000D03*
D11*
X60197300Y-46647300D03*
X60197300Y-51752700D03*
X65302700Y-46647300D03*
X65302700Y-51752700D03*
%TD*%
D15*
%TO.C,TP15*%
X62750000Y-41700000D03*
%TD*%
D12*
%TO.C,TP10*%
X82750000Y-92250000D03*
%TD*%
%TO.C,TP12*%
X83000000Y-112300000D03*
%TD*%
D15*
%TO.C,TP13*%
X51000000Y-92250000D03*
%TD*%
%TO.C,TP16*%
X86250000Y-41700000D03*
%TD*%
%TO.C,TP18*%
X74500000Y-129800000D03*
%TD*%
D13*
%TO.C,H4*%
X96274998Y-128250000D03*
X97219579Y-125969581D03*
X97219579Y-130530419D03*
X99499998Y-125025000D03*
D14*
X99499998Y-128250000D03*
D13*
X99499998Y-131475000D03*
X101780417Y-125969581D03*
X101780417Y-130530419D03*
X102724998Y-128250000D03*
%TD*%
%TO.C,H2*%
X96275000Y-43250002D03*
X97219581Y-40969583D03*
X97219581Y-45530421D03*
X99500000Y-40025002D03*
D14*
X99500000Y-43250002D03*
D13*
X99500000Y-46475002D03*
X101780419Y-40969583D03*
X101780419Y-45530421D03*
X102725000Y-43250002D03*
%TD*%
D12*
%TO.C,TP7*%
X66000000Y-59200000D03*
%TD*%
D10*
%TO.C,J4*%
X86250000Y-122300000D03*
D11*
X83697300Y-119747300D03*
X83697300Y-124852700D03*
X88802700Y-119747300D03*
X88802700Y-124852700D03*
%TD*%
D10*
%TO.C,J2*%
X74500000Y-122300000D03*
D11*
X71947300Y-119747300D03*
X71947300Y-124852700D03*
X77052700Y-119747300D03*
X77052700Y-124852700D03*
%TD*%
D15*
%TO.C,TP22*%
X98000000Y-92250000D03*
%TD*%
%TO.C,TP14*%
X74500000Y-41700000D03*
%TD*%
%TO.C,TP19*%
X62750000Y-129800000D03*
%TD*%
D12*
%TO.C,TP8*%
X83000000Y-59200000D03*
%TD*%
D15*
%TO.C,TP17*%
X98000000Y-79250000D03*
%TD*%
D13*
%TO.C,H3*%
X52725000Y-128249998D03*
X51780419Y-130530417D03*
X51780419Y-125969579D03*
X49500000Y-131474998D03*
D14*
X49500000Y-128249998D03*
D13*
X49500000Y-125024998D03*
X47219581Y-130530417D03*
X47219581Y-125969579D03*
X46275000Y-128249998D03*
%TD*%
D12*
%TO.C,TP11*%
X66000000Y-112299997D03*
%TD*%
D10*
%TO.C,J1*%
X74500000Y-49200000D03*
D11*
X71947300Y-46647300D03*
X71947300Y-51752700D03*
X77052700Y-46647300D03*
X77052700Y-51752700D03*
%TD*%
D15*
%TO.C,TP21*%
X51000000Y-79250000D03*
%TD*%
M02*
