%TF.GenerationSoftware,KiCad,Pcbnew,7.0.10*%
%TF.CreationDate,2024-11-06T23:47:12-05:00*%
%TF.ProjectId,configurable-adaptor,636f6e66-6967-4757-9261-626c652d6164,1*%
%TF.SameCoordinates,Original*%
%TF.FileFunction,Copper,L1,Top*%
%TF.FilePolarity,Positive*%
%FSLAX46Y46*%
G04 Gerber Fmt 4.6, Leading zero omitted, Abs format (unit mm)*
G04 Created by KiCad (PCBNEW 7.0.10) date 2024-11-06 23:47:12*
%MOMM*%
%LPD*%
G01*
G04 APERTURE LIST*
%TA.AperFunction,ComponentPad*%
%ADD10O,1.700000X1.700000*%
%TD*%
%TA.AperFunction,ComponentPad*%
%ADD11R,1.700000X1.700000*%
%TD*%
%TA.AperFunction,Conductor*%
%ADD12C,0.250000*%
%TD*%
G04 APERTURE END LIST*
D10*
%TO.P,J1,8,Pin_8*%
%TO.N,unconnected-(J1-Pin_8-Pad8)*%
X155880000Y-123790000D03*
%TO.P,J1,7,Pin_7*%
%TO.N,unconnected-(J1-Pin_7-Pad7)*%
X153340000Y-123790000D03*
%TO.P,J1,6,Pin_6*%
%TO.N,unconnected-(J1-Pin_6-Pad6)*%
X150800000Y-123790000D03*
%TO.P,J1,5,Pin_5*%
%TO.N,unconnected-(J1-Pin_5-Pad5)*%
X148260000Y-123790000D03*
%TO.P,J1,4,Pin_4*%
%TO.N,Net-(J1-Pin_4)*%
X145720000Y-123790000D03*
%TO.P,J1,3,Pin_3*%
%TO.N,Net-(J1-Pin_3)*%
X143180000Y-123790000D03*
%TO.P,J1,2,Pin_2*%
%TO.N,Net-(J1-Pin_2)*%
X140640000Y-123790000D03*
D11*
%TO.P,J1,1,Pin_1*%
%TO.N,Net-(J1-Pin_1)*%
X138100000Y-123790000D03*
%TD*%
%TO.P,J404,1,Pin_1*%
%TO.N,Net-(J4-Pin_5)*%
X162000000Y-114000000D03*
D10*
%TO.P,J404,2,Pin_2*%
X162000000Y-116540000D03*
%TD*%
D11*
%TO.P,J403,1,Pin_1*%
%TO.N,Net-(J402-Pin_2)*%
X152000000Y-114000000D03*
D10*
%TO.P,J403,2,Pin_2*%
%TO.N,Net-(J402-Pin_1)*%
X152000000Y-116540000D03*
%TD*%
D11*
%TO.P,J402,1,Pin_1*%
%TO.N,Net-(J402-Pin_1)*%
X141975000Y-116540000D03*
D10*
%TO.P,J402,2,Pin_2*%
%TO.N,Net-(J402-Pin_2)*%
X141975000Y-114000000D03*
%TD*%
D11*
%TO.P,J401,1,Pin_1*%
%TO.N,Net-(J1-Pin_4)*%
X131975000Y-116540000D03*
D10*
%TO.P,J401,2,Pin_2*%
X131975000Y-114000000D03*
%TD*%
D11*
%TO.P,J304,1,Pin_1*%
%TO.N,Net-(J304-Pin_1)*%
X162000000Y-103000000D03*
D10*
%TO.P,J304,2,Pin_2*%
X162000000Y-105540000D03*
%TD*%
D11*
%TO.P,J303,1,Pin_1*%
%TO.N,Net-(J302-Pin_2)*%
X152000000Y-103000000D03*
D10*
%TO.P,J303,2,Pin_2*%
%TO.N,Net-(J302-Pin_1)*%
X152000000Y-105540000D03*
%TD*%
D11*
%TO.P,J302,1,Pin_1*%
%TO.N,Net-(J302-Pin_1)*%
X141975000Y-105540000D03*
D10*
%TO.P,J302,2,Pin_2*%
%TO.N,Net-(J302-Pin_2)*%
X141975000Y-103000000D03*
%TD*%
D11*
%TO.P,J301,1,Pin_1*%
%TO.N,Net-(J1-Pin_3)*%
X131975000Y-105540000D03*
D10*
%TO.P,J301,2,Pin_2*%
X131975000Y-103000000D03*
%TD*%
%TO.P,J204,2,Pin_2*%
%TO.N,Net-(J204-Pin_1)*%
X162000000Y-94540000D03*
D11*
%TO.P,J204,1,Pin_1*%
X162000000Y-92000000D03*
%TD*%
D10*
%TO.P,J203,2,Pin_2*%
%TO.N,Net-(J202-Pin_1)*%
X152000000Y-94540000D03*
D11*
%TO.P,J203,1,Pin_1*%
%TO.N,Net-(J202-Pin_2)*%
X152000000Y-92000000D03*
%TD*%
D10*
%TO.P,J202,2,Pin_2*%
%TO.N,Net-(J202-Pin_2)*%
X141975000Y-92000000D03*
D11*
%TO.P,J202,1,Pin_1*%
%TO.N,Net-(J202-Pin_1)*%
X141975000Y-94540000D03*
%TD*%
D10*
%TO.P,J201,2,Pin_2*%
%TO.N,Net-(J1-Pin_2)*%
X131975000Y-92000000D03*
D11*
%TO.P,J201,1,Pin_1*%
X131975000Y-94540000D03*
%TD*%
%TO.P,J101,1,Pin_1*%
%TO.N,Net-(J1-Pin_1)*%
X131975000Y-83540000D03*
D10*
%TO.P,J101,2,Pin_2*%
X131975000Y-81000000D03*
%TD*%
D11*
%TO.P,J102,1,Pin_1*%
%TO.N,Net-(J102-Pin_1)*%
X141975000Y-83540000D03*
D10*
%TO.P,J102,2,Pin_2*%
%TO.N,Net-(J102-Pin_2)*%
X141975000Y-81000000D03*
%TD*%
D11*
%TO.P,J103,1,Pin_1*%
%TO.N,Net-(J102-Pin_2)*%
X152000000Y-81000000D03*
D10*
%TO.P,J103,2,Pin_2*%
%TO.N,Net-(J102-Pin_1)*%
X152000000Y-83540000D03*
%TD*%
D11*
%TO.P,J104,1,Pin_1*%
%TO.N,Net-(J104-Pin_1)*%
X162000000Y-81000000D03*
D10*
%TO.P,J104,2,Pin_2*%
X162000000Y-83540000D03*
%TD*%
D11*
%TO.P,J2,1,Pin_1*%
%TO.N,unconnected-(J2-Pin_1-Pad1)*%
X121975000Y-89915000D03*
D10*
%TO.P,J2,2,Pin_2*%
%TO.N,unconnected-(J2-Pin_2-Pad2)*%
X121975000Y-92455000D03*
%TO.P,J2,3,Pin_3*%
%TO.N,unconnected-(J2-Pin_3-Pad3)*%
X121975000Y-94995000D03*
%TO.P,J2,4,Pin_4*%
%TO.N,unconnected-(J2-Pin_4-Pad4)*%
X121975000Y-97535000D03*
%TO.P,J2,5,Pin_5*%
%TO.N,unconnected-(J2-Pin_5-Pad5)*%
X121975000Y-100075000D03*
%TO.P,J2,6,Pin_6*%
%TO.N,unconnected-(J2-Pin_6-Pad6)*%
X121975000Y-102615000D03*
%TO.P,J2,7,Pin_7*%
%TO.N,unconnected-(J2-Pin_7-Pad7)*%
X121975000Y-105155000D03*
%TO.P,J2,8,Pin_8*%
%TO.N,unconnected-(J2-Pin_8-Pad8)*%
X121975000Y-107695000D03*
%TD*%
D11*
%TO.P,J4,1,Pin_1*%
%TO.N,unconnected-(J4-Pin_1-Pad1)*%
X171975000Y-107665000D03*
D10*
%TO.P,J4,2,Pin_2*%
%TO.N,unconnected-(J4-Pin_2-Pad2)*%
X171975000Y-105125000D03*
%TO.P,J4,3,Pin_3*%
%TO.N,unconnected-(J4-Pin_3-Pad3)*%
X171975000Y-102585000D03*
%TO.P,J4,4,Pin_4*%
%TO.N,unconnected-(J4-Pin_4-Pad4)*%
X171975000Y-100045000D03*
%TO.P,J4,5,Pin_5*%
%TO.N,Net-(J4-Pin_5)*%
X171975000Y-97505000D03*
%TO.P,J4,6,Pin_6*%
%TO.N,Net-(J304-Pin_1)*%
X171975000Y-94965000D03*
%TO.P,J4,7,Pin_7*%
%TO.N,Net-(J204-Pin_1)*%
X171975000Y-92425000D03*
%TO.P,J4,8,Pin_8*%
%TO.N,Net-(J104-Pin_1)*%
X171975000Y-89885000D03*
%TD*%
D11*
%TO.P,J3,1,Pin_1*%
%TO.N,unconnected-(J3-Pin_1-Pad1)*%
X155850000Y-73790000D03*
D10*
%TO.P,J3,2,Pin_2*%
%TO.N,unconnected-(J3-Pin_2-Pad2)*%
X153310000Y-73790000D03*
%TO.P,J3,3,Pin_3*%
%TO.N,unconnected-(J3-Pin_3-Pad3)*%
X150770000Y-73790000D03*
%TO.P,J3,4,Pin_4*%
%TO.N,unconnected-(J3-Pin_4-Pad4)*%
X148230000Y-73790000D03*
%TO.P,J3,5,Pin_5*%
%TO.N,unconnected-(J3-Pin_5-Pad5)*%
X145690000Y-73790000D03*
%TO.P,J3,6,Pin_6*%
%TO.N,unconnected-(J3-Pin_6-Pad6)*%
X143150000Y-73790000D03*
%TO.P,J3,7,Pin_7*%
%TO.N,unconnected-(J3-Pin_7-Pad7)*%
X140610000Y-73790000D03*
%TO.P,J3,8,Pin_8*%
%TO.N,unconnected-(J3-Pin_8-Pad8)*%
X138070000Y-73790000D03*
%TD*%
D12*
%TO.N,Net-(J104-Pin_1)*%
X162000000Y-83540000D02*
X165475000Y-83540000D01*
X165475000Y-83540000D02*
X166975000Y-85040000D01*
X166975000Y-85040000D02*
X166975000Y-88040000D01*
X166975000Y-88040000D02*
X168820000Y-89885000D01*
X168820000Y-89885000D02*
X171975000Y-89885000D01*
%TO.N,Net-(J304-Pin_1)*%
X162000000Y-103000000D02*
X164765000Y-103000000D01*
X168800000Y-94965000D02*
X171975000Y-94965000D01*
X164765000Y-103000000D02*
X166225000Y-101540000D01*
X166225000Y-101540000D02*
X166225000Y-97540000D01*
X166225000Y-97540000D02*
X168800000Y-94965000D01*
%TO.N,Net-(J4-Pin_5)*%
X162000000Y-114000000D02*
X165265000Y-114000000D01*
X166975000Y-112290000D02*
X166975000Y-105790000D01*
X165265000Y-114000000D02*
X166975000Y-112290000D01*
X166975000Y-105790000D02*
X168225000Y-104540000D01*
X168225000Y-104540000D02*
X168225000Y-98790000D01*
X169510000Y-97505000D02*
X171975000Y-97505000D01*
X168225000Y-98790000D02*
X169510000Y-97505000D01*
%TO.N,Net-(J204-Pin_1)*%
X162000000Y-94540000D02*
X164975000Y-94540000D01*
X164975000Y-94540000D02*
X167090000Y-92425000D01*
X167090000Y-92425000D02*
X171975000Y-92425000D01*
%TO.N,Net-(J402-Pin_1)*%
X141975000Y-116540000D02*
X152000000Y-116540000D01*
%TO.N,Net-(J402-Pin_2)*%
X141975000Y-114000000D02*
X152000000Y-114000000D01*
%TO.N,Net-(J302-Pin_1)*%
X141975000Y-105540000D02*
X152000000Y-105540000D01*
%TO.N,Net-(J302-Pin_2)*%
X141975000Y-103000000D02*
X152000000Y-103000000D01*
%TO.N,Net-(J202-Pin_1)*%
X141975000Y-94540000D02*
X152000000Y-94540000D01*
%TO.N,Net-(J202-Pin_2)*%
X141975000Y-92000000D02*
X152000000Y-92000000D01*
%TO.N,Net-(J102-Pin_1)*%
X141975000Y-83540000D02*
X152000000Y-83540000D01*
%TO.N,Net-(J102-Pin_2)*%
X141975000Y-81000000D02*
X152000000Y-81000000D01*
%TO.N,Net-(J1-Pin_2)*%
X131975000Y-92000000D02*
X130015000Y-92000000D01*
X137225000Y-111540000D02*
X137225000Y-118540000D01*
X137225000Y-118540000D02*
X140640000Y-121955000D01*
X129225000Y-109540000D02*
X135225000Y-109540000D01*
X135225000Y-109540000D02*
X137225000Y-111540000D01*
X130015000Y-92000000D02*
X127975000Y-94040000D01*
X127975000Y-94040000D02*
X127975000Y-108290000D01*
X127975000Y-108290000D02*
X129225000Y-109540000D01*
X140640000Y-121955000D02*
X140640000Y-123790000D01*
%TO.N,Net-(J1-Pin_1)*%
X131975000Y-83540000D02*
X129725000Y-83540000D01*
X129725000Y-83540000D02*
X125975000Y-87290000D01*
X138100000Y-121915000D02*
X138100000Y-123790000D01*
X125975000Y-87290000D02*
X125975000Y-108790000D01*
X125975000Y-108790000D02*
X128475000Y-111290000D01*
X128475000Y-111290000D02*
X133725000Y-111290000D01*
X133725000Y-111290000D02*
X135475000Y-113040000D01*
X135475000Y-113040000D02*
X135475000Y-119290000D01*
X135475000Y-119290000D02*
X138100000Y-121915000D01*
%TO.N,Net-(J1-Pin_3)*%
X131975000Y-105540000D02*
X134850000Y-105540000D01*
X134850000Y-105540000D02*
X138975000Y-109665000D01*
X138975000Y-109665000D02*
X138975000Y-117790000D01*
X143180000Y-121995000D02*
X143180000Y-123790000D01*
X138975000Y-117790000D02*
X143180000Y-121995000D01*
%TO.N,Net-(J1-Pin_4)*%
X144475000Y-127040000D02*
X145725000Y-125790000D01*
X145725000Y-125790000D02*
X145720000Y-125785000D01*
X135725000Y-127040000D02*
X144475000Y-127040000D01*
X131975000Y-120290000D02*
X133975000Y-122290000D01*
X133975000Y-122290000D02*
X133975000Y-125290000D01*
X131975000Y-116540000D02*
X131975000Y-120290000D01*
X145720000Y-125785000D02*
X145720000Y-123790000D01*
X133975000Y-125290000D02*
X135725000Y-127040000D01*
%TO.N,unconnected-(J4-Pin_1-Pad1)*%
X172100000Y-107695000D02*
X172005000Y-107790000D01*
%TO.N,Net-(J1-Pin_3)*%
X143225000Y-123745000D02*
X143180000Y-123790000D01*
%TD*%
M02*
