%TF.GenerationSoftware,KiCad,Pcbnew,7.0.10*%
%TF.CreationDate,2024-11-06T23:47:12-05:00*%
%TF.ProjectId,configurable-adaptor,636f6e66-6967-4757-9261-626c652d6164,1*%
%TF.SameCoordinates,Original*%
%TF.FileFunction,Legend,Bot*%
%TF.FilePolarity,Positive*%
%FSLAX46Y46*%
G04 Gerber Fmt 4.6, Leading zero omitted, Abs format (unit mm)*
G04 Created by KiCad (PCBNEW 7.0.10) date 2024-11-06 23:47:12*
%MOMM*%
%LPD*%
G01*
G04 APERTURE LIST*
%ADD10C,0.120000*%
G04 APERTURE END LIST*
D10*
%TO.C,J1*%
X139370000Y-125120000D02*
X157210000Y-125120000D01*
X136770000Y-122460000D02*
X136770000Y-123790000D01*
X138100000Y-122460000D02*
X136770000Y-122460000D01*
X139370000Y-122460000D02*
X139370000Y-125120000D01*
X139370000Y-122460000D02*
X157210000Y-122460000D01*
X157210000Y-122460000D02*
X157210000Y-125120000D01*
%TO.C,J2*%
X123305000Y-109025000D02*
X120645000Y-109025000D01*
X123305000Y-91185000D02*
X123305000Y-109025000D01*
X123305000Y-91185000D02*
X120645000Y-91185000D01*
X123305000Y-89915000D02*
X123305000Y-88585000D01*
X123305000Y-88585000D02*
X121975000Y-88585000D01*
X120645000Y-91185000D02*
X120645000Y-109025000D01*
%TO.C,J4*%
X170645000Y-88555000D02*
X173305000Y-88555000D01*
X170645000Y-106395000D02*
X170645000Y-88555000D01*
X170645000Y-106395000D02*
X173305000Y-106395000D01*
X170645000Y-107665000D02*
X170645000Y-108995000D01*
X170645000Y-108995000D02*
X171975000Y-108995000D01*
X173305000Y-106395000D02*
X173305000Y-88555000D01*
%TO.C,J3*%
X136740000Y-75120000D02*
X136740000Y-72460000D01*
X154580000Y-75120000D02*
X136740000Y-75120000D01*
X154580000Y-75120000D02*
X154580000Y-72460000D01*
X155850000Y-75120000D02*
X157180000Y-75120000D01*
X157180000Y-75120000D02*
X157180000Y-73790000D01*
X154580000Y-72460000D02*
X136740000Y-72460000D01*
%TD*%
M02*
