%TF.GenerationSoftware,KiCad,Pcbnew,7.0.10*%
%TF.CreationDate,2024-11-06T23:47:12-05:00*%
%TF.ProjectId,configurable-adaptor,636f6e66-6967-4757-9261-626c652d6164,1*%
%TF.SameCoordinates,Original*%
%TF.FileFunction,Soldermask,Top*%
%TF.FilePolarity,Negative*%
%FSLAX46Y46*%
G04 Gerber Fmt 4.6, Leading zero omitted, Abs format (unit mm)*
G04 Created by KiCad (PCBNEW 7.0.10) date 2024-11-06 23:47:12*
%MOMM*%
%LPD*%
G01*
G04 APERTURE LIST*
%ADD10O,1.700000X1.700000*%
%ADD11R,1.700000X1.700000*%
G04 APERTURE END LIST*
D10*
%TO.C,J1*%
X155880000Y-123790000D03*
X153340000Y-123790000D03*
X150800000Y-123790000D03*
X148260000Y-123790000D03*
X145720000Y-123790000D03*
X143180000Y-123790000D03*
X140640000Y-123790000D03*
D11*
X138100000Y-123790000D03*
%TD*%
%TO.C,J404*%
X162000000Y-114000000D03*
D10*
X162000000Y-116540000D03*
%TD*%
D11*
%TO.C,J403*%
X152000000Y-114000000D03*
D10*
X152000000Y-116540000D03*
%TD*%
D11*
%TO.C,J402*%
X141975000Y-116540000D03*
D10*
X141975000Y-114000000D03*
%TD*%
D11*
%TO.C,J401*%
X131975000Y-116540000D03*
D10*
X131975000Y-114000000D03*
%TD*%
D11*
%TO.C,J304*%
X162000000Y-103000000D03*
D10*
X162000000Y-105540000D03*
%TD*%
D11*
%TO.C,J303*%
X152000000Y-103000000D03*
D10*
X152000000Y-105540000D03*
%TD*%
D11*
%TO.C,J302*%
X141975000Y-105540000D03*
D10*
X141975000Y-103000000D03*
%TD*%
D11*
%TO.C,J301*%
X131975000Y-105540000D03*
D10*
X131975000Y-103000000D03*
%TD*%
%TO.C,J204*%
X162000000Y-94540000D03*
D11*
X162000000Y-92000000D03*
%TD*%
D10*
%TO.C,J203*%
X152000000Y-94540000D03*
D11*
X152000000Y-92000000D03*
%TD*%
D10*
%TO.C,J202*%
X141975000Y-92000000D03*
D11*
X141975000Y-94540000D03*
%TD*%
D10*
%TO.C,J201*%
X131975000Y-92000000D03*
D11*
X131975000Y-94540000D03*
%TD*%
%TO.C,J101*%
X131975000Y-83540000D03*
D10*
X131975000Y-81000000D03*
%TD*%
D11*
%TO.C,J102*%
X141975000Y-83540000D03*
D10*
X141975000Y-81000000D03*
%TD*%
D11*
%TO.C,J103*%
X152000000Y-81000000D03*
D10*
X152000000Y-83540000D03*
%TD*%
D11*
%TO.C,J104*%
X162000000Y-81000000D03*
D10*
X162000000Y-83540000D03*
%TD*%
D11*
%TO.C,J2*%
X121975000Y-89915000D03*
D10*
X121975000Y-92455000D03*
X121975000Y-94995000D03*
X121975000Y-97535000D03*
X121975000Y-100075000D03*
X121975000Y-102615000D03*
X121975000Y-105155000D03*
X121975000Y-107695000D03*
%TD*%
D11*
%TO.C,J4*%
X171975000Y-107665000D03*
D10*
X171975000Y-105125000D03*
X171975000Y-102585000D03*
X171975000Y-100045000D03*
X171975000Y-97505000D03*
X171975000Y-94965000D03*
X171975000Y-92425000D03*
X171975000Y-89885000D03*
%TD*%
D11*
%TO.C,J3*%
X155850000Y-73790000D03*
D10*
X153310000Y-73790000D03*
X150770000Y-73790000D03*
X148230000Y-73790000D03*
X145690000Y-73790000D03*
X143150000Y-73790000D03*
X140610000Y-73790000D03*
X138070000Y-73790000D03*
%TD*%
M02*
