M48
; DRILL file {KiCad 7.0.10} date Wednesday, November 06, 2024 at 11:47:10 PM
; FORMAT={-:-/ absolute / inch / decimal}
; #@! TF.CreationDate,2024-11-06T23:47:10-05:00
; #@! TF.GenerationSoftware,Kicad,Pcbnew,7.0.10
; #@! TF.FileFunction,Plated,1,2,PTH
FMAT,2
INCH
; #@! TA.AperFunction,Plated,PTH,ComponentDrill
T1C0.0394
%
G90
G05
T1
X4.8022Y-3.54
X4.8022Y-3.64
X4.8022Y-3.74
X4.8022Y-3.84
X4.8022Y-3.94
X4.8022Y-4.04
X4.8022Y-4.14
X4.8022Y-4.24
X5.1959Y-3.189
X5.1959Y-3.289
X5.1959Y-3.622
X5.1959Y-3.722
X5.1959Y-4.0551
X5.1959Y-4.1551
X5.1959Y-4.4882
X5.1959Y-4.5882
X5.4358Y-2.9051
X5.437Y-4.8736
X5.5358Y-2.9051
X5.537Y-4.8736
X5.5896Y-3.189
X5.5896Y-3.289
X5.5896Y-3.622
X5.5896Y-3.722
X5.5896Y-4.0551
X5.5896Y-4.1551
X5.5896Y-4.4882
X5.5896Y-4.5882
X5.6358Y-2.9051
X5.637Y-4.8736
X5.7358Y-2.9051
X5.737Y-4.8736
X5.8358Y-2.9051
X5.837Y-4.8736
X5.9358Y-2.9051
X5.937Y-4.8736
X5.9843Y-3.189
X5.9843Y-3.289
X5.9843Y-3.622
X5.9843Y-3.722
X5.9843Y-4.0551
X5.9843Y-4.1551
X5.9843Y-4.4882
X5.9843Y-4.5882
X6.0358Y-2.9051
X6.037Y-4.8736
X6.1358Y-2.9051
X6.137Y-4.8736
X6.378Y-3.189
X6.378Y-3.289
X6.378Y-3.622
X6.378Y-3.722
X6.378Y-4.0551
X6.378Y-4.1551
X6.378Y-4.4882
X6.378Y-4.5882
X6.7707Y-3.5388
X6.7707Y-3.6388
X6.7707Y-3.7388
X6.7707Y-3.8388
X6.7707Y-3.9388
X6.7707Y-4.0388
X6.7707Y-4.1388
X6.7707Y-4.2388
M30
