%TF.GenerationSoftware,KiCad,Pcbnew,7.0.10*%
%TF.CreationDate,2024-09-26T18:12:59-04:00*%
%TF.ProjectId,neurophy-adaptor,6e657572-6f70-4687-992d-61646170746f,1*%
%TF.SameCoordinates,Original*%
%TF.FileFunction,Copper,L1,Top*%
%TF.FilePolarity,Positive*%
%FSLAX46Y46*%
G04 Gerber Fmt 4.6, Leading zero omitted, Abs format (unit mm)*
G04 Created by KiCad (PCBNEW 7.0.10) date 2024-09-26 18:12:59*
%MOMM*%
%LPD*%
G01*
G04 APERTURE LIST*
G04 Aperture macros list*
%AMRoundRect*
0 Rectangle with rounded corners*
0 $1 Rounding radius*
0 $2 $3 $4 $5 $6 $7 $8 $9 X,Y pos of 4 corners*
0 Add a 4 corners polygon primitive as box body*
4,1,4,$2,$3,$4,$5,$6,$7,$8,$9,$2,$3,0*
0 Add four circle primitives for the rounded corners*
1,1,$1+$1,$2,$3*
1,1,$1+$1,$4,$5*
1,1,$1+$1,$6,$7*
1,1,$1+$1,$8,$9*
0 Add four rect primitives between the rounded corners*
20,1,$1+$1,$2,$3,$4,$5,0*
20,1,$1+$1,$4,$5,$6,$7,0*
20,1,$1+$1,$6,$7,$8,$9,0*
20,1,$1+$1,$8,$9,$2,$3,0*%
G04 Aperture macros list end*
%TA.AperFunction,SMDPad,CuDef*%
%ADD10RoundRect,1.250000X-1.250000X-1.250000X1.250000X-1.250000X1.250000X1.250000X-1.250000X1.250000X0*%
%TD*%
%TA.AperFunction,ComponentPad*%
%ADD11R,1.700000X1.700000*%
%TD*%
%TA.AperFunction,ComponentPad*%
%ADD12O,1.700000X1.700000*%
%TD*%
%TA.AperFunction,Conductor*%
%ADD13C,1.000000*%
%TD*%
G04 APERTURE END LIST*
D10*
%TO.P,MEM1,1*%
%TO.N,Net-(J1-Pin_1)*%
X135750000Y-90750000D03*
%TO.P,MEM1,2*%
%TO.N,Net-(J4-Pin_1)*%
X145750000Y-90750000D03*
%TD*%
D11*
%TO.P,J2,1,Pin_1*%
%TO.N,unconnected-(J2-Pin_1-Pad1)*%
X115750000Y-81875000D03*
D12*
%TO.P,J2,2,Pin_2*%
%TO.N,unconnected-(J2-Pin_2-Pad2)*%
X115750000Y-84415000D03*
%TO.P,J2,3,Pin_3*%
%TO.N,unconnected-(J2-Pin_3-Pad3)*%
X115750000Y-86955000D03*
%TO.P,J2,4,Pin_4*%
%TO.N,unconnected-(J2-Pin_4-Pad4)*%
X115750000Y-89495000D03*
%TO.P,J2,5,Pin_5*%
%TO.N,unconnected-(J2-Pin_5-Pad5)*%
X115750000Y-92035000D03*
%TO.P,J2,6,Pin_6*%
%TO.N,unconnected-(J2-Pin_6-Pad6)*%
X115750000Y-94575000D03*
%TO.P,J2,7,Pin_7*%
%TO.N,unconnected-(J2-Pin_7-Pad7)*%
X115750000Y-97115000D03*
%TO.P,J2,8,Pin_8*%
%TO.N,unconnected-(J2-Pin_8-Pad8)*%
X115750000Y-99655000D03*
%TD*%
D11*
%TO.P,J4,1,Pin_1*%
%TO.N,Net-(J4-Pin_1)*%
X165750000Y-99625000D03*
D12*
%TO.P,J4,2,Pin_2*%
X165750000Y-97085000D03*
%TO.P,J4,3,Pin_3*%
X165750000Y-94545000D03*
%TO.P,J4,4,Pin_4*%
X165750000Y-92005000D03*
%TO.P,J4,5,Pin_5*%
X165750000Y-89465000D03*
%TO.P,J4,6,Pin_6*%
X165750000Y-86925000D03*
%TO.P,J4,7,Pin_7*%
X165750000Y-84385000D03*
%TO.P,J4,8,Pin_8*%
X165750000Y-81845000D03*
%TD*%
D11*
%TO.P,J1,1,Pin_1*%
%TO.N,Net-(J1-Pin_1)*%
X131875000Y-115750000D03*
D12*
%TO.P,J1,2,Pin_2*%
X134415000Y-115750000D03*
%TO.P,J1,3,Pin_3*%
X136955000Y-115750000D03*
%TO.P,J1,4,Pin_4*%
X139495000Y-115750000D03*
%TO.P,J1,5,Pin_5*%
X142035000Y-115750000D03*
%TO.P,J1,6,Pin_6*%
X144575000Y-115750000D03*
%TO.P,J1,7,Pin_7*%
X147115000Y-115750000D03*
%TO.P,J1,8,Pin_8*%
X149655000Y-115750000D03*
%TD*%
D11*
%TO.P,J3,1,Pin_1*%
%TO.N,unconnected-(J3-Pin_1-Pad1)*%
X149625000Y-65750000D03*
D12*
%TO.P,J3,2,Pin_2*%
%TO.N,unconnected-(J3-Pin_2-Pad2)*%
X147085000Y-65750000D03*
%TO.P,J3,3,Pin_3*%
%TO.N,unconnected-(J3-Pin_3-Pad3)*%
X144545000Y-65750000D03*
%TO.P,J3,4,Pin_4*%
%TO.N,unconnected-(J3-Pin_4-Pad4)*%
X142005000Y-65750000D03*
%TO.P,J3,5,Pin_5*%
%TO.N,unconnected-(J3-Pin_5-Pad5)*%
X139465000Y-65750000D03*
%TO.P,J3,6,Pin_6*%
%TO.N,unconnected-(J3-Pin_6-Pad6)*%
X136925000Y-65750000D03*
%TO.P,J3,7,Pin_7*%
%TO.N,unconnected-(J3-Pin_7-Pad7)*%
X134385000Y-65750000D03*
%TO.P,J3,8,Pin_8*%
%TO.N,unconnected-(J3-Pin_8-Pad8)*%
X131845000Y-65750000D03*
%TD*%
D13*
%TO.N,Net-(J1-Pin_1)*%
X139495000Y-115750000D02*
X139495000Y-109495000D01*
X131875000Y-115750000D02*
X149655000Y-115750000D01*
X135750000Y-105750000D02*
X135750000Y-90750000D01*
X139495000Y-109495000D02*
X135750000Y-105750000D01*
%TO.N,Net-(J4-Pin_1)*%
X161405000Y-81845000D02*
X165750000Y-81845000D01*
X145750000Y-90750000D02*
X152500000Y-90750000D01*
X165750000Y-81845000D02*
X165750000Y-99625000D01*
X152500000Y-90750000D02*
X161405000Y-81845000D01*
%TD*%
M02*
